<svg width="1198" height="250" viewBox="0 0 1198 250" fill="none" xmlns="http://www.w3.org/2000/svg">
<mask id="path-1-outside-1_825_1488" maskUnits="userSpaceOnUse" x="-1" y="-1.22656" width="1200" height="253" fill="black">
<rect fill="white" x="-1" y="-1.22656" width="1200" height="253"/>
<path d="M36.2573 244.773V87.9324H0.841546V36.9771C12.6468 36.9771 22.1633 34.9293 29.391 30.8336C36.6187 26.497 41.3167 18.3056 43.485 6.25942H95.163V244.773H36.2573ZM149.498 244.773V186.952L244.542 127.323C248.397 124.914 252.372 122.144 256.468 119.012C260.563 115.879 264.298 112.266 267.671 108.17C271.284 104.074 274.176 99.6172 276.344 94.7987C278.512 89.7393 279.596 84.1981 279.596 78.175C279.596 71.911 278.151 66.6107 275.26 62.2741C272.61 57.9375 268.634 54.685 263.334 52.5167C258.275 50.1074 252.011 48.9028 244.542 48.9028C236.11 48.9028 229.243 50.2279 223.943 52.8781C218.884 55.5282 214.908 59.2625 212.017 64.081C209.367 68.6585 207.56 73.9588 206.597 79.9819C205.633 86.005 205.151 92.269 205.151 98.774L149.136 86.8483C148.655 68.779 152.268 53.3599 159.978 40.591C167.687 27.5811 178.77 17.5828 193.225 10.596C207.922 3.60926 225.389 0.115873 245.626 0.115873C263.454 0.115873 279.235 2.88649 292.968 8.42773C306.941 13.969 317.783 22.2808 325.492 33.3633C333.443 44.2048 337.418 57.817 337.418 74.1998C337.418 86.2459 335.37 97.2079 331.274 107.086C327.179 116.723 321.878 125.276 315.373 132.744C308.869 140.213 301.641 146.838 293.69 152.62C285.981 158.162 278.512 162.98 271.284 167.076L218.161 196.709V199.962L340.309 197.793V244.773H149.498ZM491.108 249.833C475.448 249.833 461.113 247.183 448.103 241.882C435.334 236.341 424.372 228.391 415.217 218.031C406.062 207.671 399.075 194.782 394.257 179.363C389.438 163.944 387.029 146.356 387.029 126.601C387.029 98.6535 391.607 75.5249 400.762 57.2147C409.917 38.6636 422.445 24.8105 438.346 15.6554C454.488 6.25942 472.677 1.56142 492.915 1.56142C513.634 1.56142 531.824 6.25942 547.484 15.6554C563.144 25.0514 575.311 38.9045 583.984 57.2147C592.657 75.5249 596.994 98.1716 596.994 125.155C596.994 145.634 594.344 163.703 589.043 179.363C583.984 195.023 576.636 208.033 566.999 218.392C557.603 228.752 546.4 236.582 533.39 241.882C520.621 247.183 506.527 249.833 491.108 249.833ZM492.554 204.298C497.854 204.298 503.154 203.094 508.455 200.684C513.996 198.034 519.055 193.818 523.633 188.036C528.21 182.254 531.824 174.544 534.474 164.907C537.124 155.03 538.45 142.742 538.45 128.046C538.45 110.459 536.522 95.6419 532.667 83.5958C528.813 71.5496 523.392 62.3945 516.405 56.1305C509.418 49.8665 501.227 46.7345 491.831 46.7345C485.085 46.7345 478.098 49.0233 470.871 53.6008C463.643 58.1784 457.62 66.1288 452.801 77.4522C447.983 88.7756 445.574 104.797 445.574 125.516C445.574 139.972 446.778 152.259 449.187 162.378C451.838 172.256 455.331 180.326 459.668 186.59C464.245 192.614 469.305 197.071 474.846 199.962C480.628 202.853 486.531 204.298 492.554 204.298ZM902.573 244.773V6.25942H960.756V244.773H902.573ZM747.178 244.773V6.25942H805.36V244.773H747.178ZM782.593 147.922V100.942H926.063V147.922H782.593ZM1012.6 244.773V189.843L1128.97 59.0216V54.685H1016.22V6.25942H1192.57V65.8879L1080.18 192.373V196.348H1197.27V244.773H1012.6Z"/>
</mask>
<path d="M36.2573 244.773H35.2573V245.773H36.2573V244.773ZM36.2573 87.9324H37.2573V86.9324H36.2573V87.9324ZM0.841546 87.9324H-0.158454V88.9324H0.841546V87.9324ZM0.841546 36.9771V35.9771H-0.158454V36.9771H0.841546ZM29.391 30.8336L29.884 31.7036L29.8948 31.6975L29.9054 31.6911L29.391 30.8336ZM43.485 6.25942V5.25942H42.6489L42.5008 6.08227L43.485 6.25942ZM95.163 6.25942H96.163V5.25942H95.163V6.25942ZM95.163 244.773V245.773H96.163V244.773H95.163ZM37.2573 244.773V87.9324H35.2573V244.773H37.2573ZM36.2573 86.9324H0.841546V88.9324H36.2573V86.9324ZM1.84155 87.9324V36.9771H-0.158454V87.9324H1.84155ZM0.841546 37.9771C12.7509 37.9771 22.4557 35.9129 29.884 31.7036L28.8979 29.9636C21.8708 33.9456 12.5426 35.9771 0.841546 35.9771V37.9771ZM29.9054 31.6911C37.4756 27.149 42.2734 18.6354 44.4691 6.43658L42.5008 6.08227C40.3599 17.9758 35.7617 25.845 28.8765 29.9761L29.9054 31.6911ZM43.485 7.25942H95.163V5.25942H43.485V7.25942ZM94.163 6.25942V244.773H96.163V6.25942H94.163ZM95.163 243.773H36.2573V245.773H95.163V243.773ZM149.498 244.773H148.498V245.773H149.498V244.773ZM149.498 186.952L148.966 186.105L148.498 186.399V186.952H149.498ZM244.542 127.323L244.012 126.475L244.011 126.476L244.542 127.323ZM267.671 108.17L266.921 107.508L266.91 107.521L266.899 107.534L267.671 108.17ZM276.344 94.7987L277.256 95.2091L277.259 95.2009L277.263 95.1926L276.344 94.7987ZM275.26 62.2741L274.406 62.7955L274.417 62.8124L274.428 62.8288L275.26 62.2741ZM263.334 52.5167L262.904 53.4196L262.929 53.4316L262.955 53.4422L263.334 52.5167ZM223.943 52.8781L223.496 51.9836L223.487 51.9879L223.479 51.9922L223.943 52.8781ZM212.017 64.081L211.16 63.5665L211.156 63.5732L211.152 63.58L212.017 64.081ZM206.597 79.9819L207.584 80.1399L207.584 80.1399L206.597 79.9819ZM205.151 98.774L204.943 99.752L206.151 100.009V98.774H205.151ZM149.136 86.8483L148.137 86.8749L148.158 87.6623L148.928 87.8263L149.136 86.8483ZM159.978 40.591L160.834 41.1079L160.838 41.1008L159.978 40.591ZM193.225 10.596L192.796 9.6929L192.79 9.6957L193.225 10.596ZM292.968 8.42773L292.593 9.35509L292.599 9.3573L292.968 8.42773ZM325.492 33.3633L324.671 33.9343L324.678 33.9446L324.686 33.9546L325.492 33.3633ZM331.274 107.086L332.195 107.477L332.198 107.469L331.274 107.086ZM315.373 132.744L314.619 132.087L314.619 132.087L315.373 132.744ZM293.69 152.62L294.274 153.432L294.279 153.429L293.69 152.62ZM271.284 167.076L271.772 167.949L271.777 167.946L271.284 167.076ZM218.161 196.709L217.674 195.836L217.161 196.122V196.709H218.161ZM218.161 199.962H217.161V200.98L218.179 200.962L218.161 199.962ZM340.309 197.793H341.309V196.775L340.291 196.794L340.309 197.793ZM340.309 244.773V245.773H341.309V244.773H340.309ZM150.498 244.773V186.952H148.498V244.773H150.498ZM150.029 187.799L245.073 128.17L244.011 126.476L148.966 186.105L150.029 187.799ZM245.072 128.171C248.957 125.743 252.958 122.954 257.075 119.806L255.86 118.217C251.786 121.333 247.837 124.085 244.012 126.475L245.072 128.171ZM257.075 119.806C261.233 116.626 265.022 112.959 268.443 108.806L266.899 107.534C263.573 111.573 259.893 115.133 255.86 118.217L257.075 119.806ZM268.42 108.832C272.098 104.663 275.045 100.122 277.256 95.2091L275.432 94.3883C273.306 99.1124 270.471 103.485 266.921 107.508L268.42 108.832ZM277.263 95.1926C279.49 89.9975 280.596 84.3207 280.596 78.175H278.596C278.596 84.0755 277.535 89.4812 275.425 94.4048L277.263 95.1926ZM280.596 78.175C280.596 71.754 279.113 66.251 276.092 61.7194L274.428 62.8288C277.189 66.9704 278.596 72.068 278.596 78.175H280.596ZM276.113 61.7526C273.338 57.2115 269.184 53.8294 263.713 51.5911L262.955 53.4422C268.085 55.5406 271.881 58.6635 274.406 62.7955L276.113 61.7526ZM263.764 51.6138C258.533 49.1231 252.112 47.9028 244.542 47.9028V49.9028C251.909 49.9028 258.016 51.0918 262.904 53.4196L263.764 51.6138ZM244.542 47.9028C236.016 47.9028 228.981 49.241 223.496 51.9836L224.39 53.7725C229.506 51.2148 236.204 49.9028 244.542 49.9028V47.9028ZM223.479 51.9922C218.26 54.7262 214.147 58.5878 211.16 63.5665L212.875 64.5955C215.67 59.9373 219.508 56.3303 224.407 53.7639L223.479 51.9922ZM211.152 63.58C208.432 68.2783 206.589 73.6983 205.609 79.8239L207.584 80.1399C208.531 74.2194 210.303 69.0388 212.883 64.582L211.152 63.58ZM205.609 79.8239C204.637 85.9026 204.151 92.2196 204.151 98.774H206.151C206.151 92.3185 206.629 86.1074 207.584 80.1399L205.609 79.8239ZM205.359 97.7959L149.345 85.8702L148.928 87.8263L204.943 99.752L205.359 97.7959ZM150.136 86.8216C149.658 68.9027 153.242 53.6813 160.834 41.1079L159.122 40.0741C151.294 53.0385 147.651 68.6553 148.137 86.8749L150.136 86.8216ZM160.838 41.1008C168.441 28.2707 179.371 18.4032 193.661 11.4964L192.79 9.6957C178.169 16.7625 166.934 26.8915 159.118 40.0812L160.838 41.1008ZM193.655 11.4992C208.188 4.58977 225.502 1.11587 245.626 1.11587V-0.884127C225.275 -0.884127 207.655 2.62876 192.796 9.69292L193.655 11.4992ZM245.626 1.11587C263.352 1.11587 279.001 3.87053 292.593 9.35508L293.342 7.50037C279.469 1.90245 263.557 -0.884127 245.626 -0.884127V1.11587ZM292.599 9.3573C306.411 14.8346 317.087 23.0312 324.671 33.9343L326.313 32.7922C318.479 21.5304 307.471 13.1033 293.336 7.49815L292.599 9.3573ZM324.686 33.9546C332.485 44.59 336.418 57.9822 336.418 74.1998H338.418C338.418 57.6518 334.4 43.8197 326.299 32.7719L324.686 33.9546ZM336.418 74.1998C336.418 86.1311 334.39 96.9608 330.351 106.703L332.198 107.469C336.35 97.4551 338.418 86.3608 338.418 74.1998H336.418ZM330.354 106.695C326.297 116.24 321.051 124.702 314.619 132.087L316.128 133.401C322.705 125.849 328.06 117.205 332.195 107.477L330.354 106.695ZM314.619 132.087C308.163 139.5 300.991 146.074 293.102 151.812L294.279 153.429C302.29 147.602 309.574 140.926 316.128 133.401L314.619 132.087ZM293.107 151.808C285.422 157.331 277.984 162.13 270.791 166.206L271.777 167.946C279.04 163.83 286.539 158.992 294.274 153.432L293.107 151.808ZM270.797 166.202L217.674 195.836L218.648 197.583L271.772 167.949L270.797 166.202ZM217.161 196.709V199.962H219.161V196.709H217.161ZM218.179 200.962L340.327 198.793L340.291 196.794L218.143 198.962L218.179 200.962ZM339.309 197.793V244.773H341.309V197.793H339.309ZM340.309 243.773H149.498V245.773H340.309V243.773ZM448.103 241.882L447.705 242.8L447.716 242.804L447.726 242.808L448.103 241.882ZM415.217 218.031L414.468 218.693L414.468 218.693L415.217 218.031ZM394.257 179.363L395.211 179.065L395.211 179.064L394.257 179.363ZM400.762 57.2147L401.656 57.6619L401.659 57.6572L400.762 57.2147ZM438.346 15.6554L438.845 16.5221L438.849 16.5197L438.346 15.6554ZM547.484 15.6554L546.97 16.5129L546.97 16.5129L547.484 15.6554ZM583.984 57.2147L584.888 56.7866L584.888 56.7866L583.984 57.2147ZM589.043 179.363L588.096 179.042L588.092 179.055L589.043 179.363ZM566.999 218.392L566.267 217.711L566.258 217.721L566.999 218.392ZM533.39 241.882L533.013 240.956L533.007 240.959L533.39 241.882ZM508.455 200.684L508.868 201.595L508.877 201.591L508.886 201.587L508.455 200.684ZM523.633 188.036L522.849 187.415L522.849 187.415L523.633 188.036ZM534.474 164.907L535.439 165.173L535.44 165.167L534.474 164.907ZM532.667 83.5958L531.715 83.9006L531.715 83.9006L532.667 83.5958ZM516.405 56.1305L515.737 56.8751L515.737 56.8751L516.405 56.1305ZM449.187 162.378L448.215 162.609L448.218 162.623L448.222 162.637L449.187 162.378ZM459.668 186.59L458.845 187.16L458.858 187.178L458.871 187.196L459.668 186.59ZM474.846 199.962L474.383 200.848L474.391 200.852L474.399 200.856L474.846 199.962ZM491.108 248.833C475.563 248.833 461.358 246.202 448.481 240.956L447.726 242.808C460.869 248.163 475.334 250.833 491.108 250.833V248.833ZM448.501 240.965C435.866 235.482 425.024 227.618 415.967 217.369L414.468 218.693C423.721 229.163 434.803 237.201 447.705 242.8L448.501 240.965ZM415.967 217.369C406.919 207.131 399.995 194.372 395.211 179.065L393.302 179.661C398.156 195.192 405.205 208.212 414.468 218.693L415.967 217.369ZM395.211 179.064C390.429 163.761 388.029 146.277 388.029 126.601H386.029C386.029 146.436 388.448 164.127 393.302 179.661L395.211 179.064ZM388.029 126.601C388.029 98.755 392.591 75.792 401.656 57.6619L399.867 56.7675C390.622 75.2577 386.029 98.552 386.029 126.601H388.029ZM401.659 57.6572C410.738 39.2604 423.137 25.566 438.845 16.5221L437.847 14.7888C421.753 24.055 409.096 38.0668 399.865 56.7721L401.659 57.6572ZM438.849 16.5197C454.825 7.21995 472.839 2.56142 492.915 2.56142V0.561415C472.516 0.561415 454.15 5.2989 437.843 14.7912L438.849 16.5197ZM492.915 2.56142C513.478 2.56142 531.485 7.2222 546.97 16.5129L547.999 14.7979C532.163 5.29665 513.791 0.561415 492.915 0.561415V2.56142ZM546.97 16.5129C562.442 25.7964 574.482 39.4907 583.08 57.6428L584.888 56.7866C576.14 38.3183 563.846 24.3065 547.999 14.7979L546.97 16.5129ZM583.08 57.6428C591.673 75.7824 595.994 98.2729 595.994 125.155H597.994C597.994 98.0704 593.642 75.2673 584.888 56.7866L583.08 57.6428ZM595.994 125.155C595.994 145.549 593.354 163.507 588.096 179.042L589.991 179.683C595.333 163.899 597.994 145.718 597.994 125.155H595.994ZM588.092 179.055C583.07 194.599 575.789 207.475 566.267 217.711L567.731 219.073C577.483 208.591 584.898 195.447 589.995 179.67L588.092 179.055ZM566.258 217.721C556.963 227.969 545.885 235.712 533.013 240.956L533.767 242.808C546.915 237.452 558.243 229.535 567.74 219.064L566.258 217.721ZM533.007 240.959C520.373 246.203 506.411 248.833 491.108 248.833V250.833C506.644 250.833 520.87 248.162 533.774 242.806L533.007 240.959ZM492.554 205.298C498.01 205.298 503.451 204.057 508.868 201.595L508.041 199.774C502.857 202.13 497.698 203.298 492.554 203.298V205.298ZM508.886 201.587C514.59 198.859 519.763 194.535 524.417 188.657L522.849 187.415C518.347 193.102 513.402 197.21 508.023 199.782L508.886 201.587ZM524.417 188.657C529.102 182.739 532.765 174.896 535.438 165.173L533.51 164.642C530.884 174.193 527.319 181.769 522.849 187.415L524.417 188.657ZM535.44 165.167C538.12 155.176 539.45 142.795 539.45 128.046H537.45C537.45 142.69 536.128 154.883 533.508 164.648L535.44 165.167ZM539.45 128.046C539.45 110.392 537.516 95.4658 533.62 83.291L531.715 83.9006C535.529 95.8181 537.45 110.525 537.45 128.046H539.45ZM533.62 83.291C529.729 71.1323 524.23 61.803 517.073 55.386L515.737 56.8751C522.554 62.9861 527.896 71.9669 531.715 83.9006L533.62 83.291ZM517.073 55.386C509.902 48.9572 501.473 45.7345 491.831 45.7345V47.7345C500.981 47.7345 508.934 50.7758 515.737 56.8751L517.073 55.386ZM491.831 45.7345C484.851 45.7345 477.681 48.1041 470.335 52.756L471.406 54.4457C478.516 49.9425 485.319 47.7345 491.831 47.7345V45.7345ZM470.335 52.756C462.876 57.4801 456.746 65.6289 451.881 77.0607L453.721 77.8438C458.494 66.6287 464.409 58.8766 471.406 54.4457L470.335 52.756ZM451.881 77.0607C446.986 88.5646 444.574 104.742 444.574 125.516H446.574C446.574 104.852 448.98 88.9867 453.721 77.8438L451.881 77.0607ZM444.574 125.516C444.574 140.022 445.782 152.392 448.215 162.609L450.16 162.146C447.775 152.126 446.574 139.922 446.574 125.516H444.574ZM448.222 162.637C450.892 172.59 454.425 180.775 458.845 187.16L460.49 186.021C456.237 179.878 452.783 171.921 450.153 162.119L448.222 162.637ZM458.871 187.196C463.52 193.312 468.687 197.876 474.383 200.848L475.308 199.075C469.922 196.265 464.971 191.915 460.464 185.985L458.871 187.196ZM474.399 200.856C480.309 203.811 486.364 205.298 492.554 205.298V203.298C486.697 203.298 480.947 201.894 475.293 199.067L474.399 200.856ZM902.573 244.773H901.573V245.773H902.573V244.773ZM902.573 6.25942V5.25942H901.573V6.25942H902.573ZM960.756 6.25942H961.756V5.25942H960.756V6.25942ZM960.756 244.773V245.773H961.756V244.773H960.756ZM747.178 244.773H746.178V245.773H747.178V244.773ZM747.178 6.25942V5.25942H746.178V6.25942H747.178ZM805.36 6.25942H806.36V5.25942H805.36V6.25942ZM805.36 244.773V245.773H806.36V244.773H805.36ZM782.593 147.922H781.593V148.922H782.593V147.922ZM782.593 100.942V99.9423H781.593V100.942H782.593ZM926.063 100.942H927.063V99.9423H926.063V100.942ZM926.063 147.922V148.922H927.063V147.922H926.063ZM903.573 244.773V6.25942H901.573V244.773H903.573ZM902.573 7.25942H960.756V5.25942H902.573V7.25942ZM959.756 6.25942V244.773H961.756V6.25942H959.756ZM960.756 243.773H902.573V245.773H960.756V243.773ZM748.178 244.773V6.25942H746.178V244.773H748.178ZM747.178 7.25942H805.36V5.25942H747.178V7.25942ZM804.36 6.25942V244.773H806.36V6.25942H804.36ZM805.36 243.773H747.178V245.773H805.36V243.773ZM783.593 147.922V100.942H781.593V147.922H783.593ZM782.593 101.942H926.063V99.9423H782.593V101.942ZM925.063 100.942V147.922H927.063V100.942H925.063ZM926.063 146.922H782.593V148.922H926.063V146.922ZM1012.6 244.773H1011.6V245.773H1012.6V244.773ZM1012.6 189.843L1011.86 189.178L1011.6 189.463V189.843H1012.6ZM1128.97 59.0216L1129.72 59.6862L1129.97 59.402V59.0216H1128.97ZM1128.97 54.685H1129.97V53.685H1128.97V54.685ZM1016.22 54.685H1015.22V55.685H1016.22V54.685ZM1016.22 6.25942V5.25942H1015.22V6.25942H1016.22ZM1192.57 6.25942H1193.57V5.25942H1192.57V6.25942ZM1192.57 65.8879L1193.32 66.5522L1193.57 66.268V65.8879H1192.57ZM1080.18 192.373L1079.43 191.708L1079.18 191.993V192.373H1080.18ZM1080.18 196.348H1079.18V197.348H1080.18V196.348ZM1197.27 196.348H1198.27V195.348H1197.27V196.348ZM1197.27 244.773V245.773H1198.27V244.773H1197.27ZM1013.6 244.773V189.843H1011.6V244.773H1013.6ZM1013.35 190.508L1129.72 59.6862L1128.22 58.357L1011.86 189.178L1013.35 190.508ZM1129.97 59.0216V54.685H1127.97V59.0216H1129.97ZM1128.97 53.685H1016.22V55.685H1128.97V53.685ZM1017.22 54.685V6.25942H1015.22V54.685H1017.22ZM1016.22 7.25942H1192.57V5.25942H1016.22V7.25942ZM1191.57 6.25942V65.8879H1193.57V6.25942H1191.57ZM1191.83 65.2237L1079.43 191.708L1080.93 193.037L1193.32 66.5522L1191.83 65.2237ZM1079.18 192.373V196.348H1081.18V192.373H1079.18ZM1080.18 197.348H1197.27V195.348H1080.18V197.348ZM1196.27 196.348V244.773H1198.27V196.348H1196.27ZM1197.27 243.773H1012.6V245.773H1197.27V243.773Z" fill="url(#paint0_linear_825_1488)" mask="url(#path-1-outside-1_825_1488)"/>
<defs>
<linearGradient id="paint0_linear_825_1488" x1="164.5" y1="257.273" x2="158.2" y2="-22.3222" gradientUnits="userSpaceOnUse">
<stop stop-color="#161410"/>
<stop offset="0.27" stop-color="#FFBD6D"/>
<stop offset="0.593231" stop-color="#FF8657"/>
<stop offset="1" stop-color="#161410"/>
</linearGradient>
</defs>
</svg>
