<svg width="48" height="48" viewBox="0 0 48 48" fill="none" xmlns="http://www.w3.org/2000/svg">
<g id="vuesax/twotone/volume-high">
<g id="Group 1973339897">
<rect id="Rectangle 293029805" x="13.0002" y="4.34375" width="22.7027" height="40" rx="2.16216" stroke="white" stroke-width="1.94595"/>
<rect id="Rectangle 293029806" x="16.5784" y="7.75781" width="15.1351" height="16.2162" rx="1.08108" stroke="white" stroke-width="1.5"/>
<g id="Group 1973339896">
<rect id="Rectangle 293029807" x="16.2424" y="38.5664" width="4.86486" height="2.16216" rx="1.08108" fill="white"/>
<rect id="Rectangle 293029810" x="16.2424" y="34.7812" width="4.86486" height="2.16216" rx="1.08108" fill="white"/>
<rect id="Rectangle 293029813" x="16.2424" y="31" width="4.86486" height="2.16216" rx="1.08108" fill="white"/>
<rect id="Rectangle 293029816" x="16.2424" y="27.2148" width="4.86486" height="2.16216" rx="1.08108" fill="white"/>
<rect id="Rectangle 293029808" x="22.1877" y="38.5664" width="4.86486" height="2.16216" rx="1.08108" fill="white"/>
<rect id="Rectangle 293029811" x="22.1877" y="34.7812" width="4.86486" height="2.16216" rx="1.08108" fill="white"/>
<rect id="Rectangle 293029814" x="22.1877" y="31" width="4.86486" height="2.16216" rx="1.08108" fill="white"/>
<rect id="Rectangle 293029817" x="22.1877" y="27.2148" width="4.86486" height="2.16216" rx="1.08108" fill="white"/>
<rect id="Rectangle 293029809" x="28.1331" y="38.5664" width="4.86486" height="2.16216" rx="1.08108" fill="white"/>
<rect id="Rectangle 293029812" x="28.1331" y="34.7812" width="4.86486" height="2.16216" rx="1.08108" fill="white"/>
<rect id="Rectangle 293029815" x="28.1331" y="31" width="4.86486" height="2.16216" rx="1.08108" fill="white"/>
<rect id="Rectangle 293029818" x="28.1331" y="27.2148" width="4.86486" height="2.16216" rx="1.08108" fill="white"/>
</g>
</g>
</g>
</svg>
