<svg width="48" height="48" viewBox="0 0 48 48" fill="none" xmlns="http://www.w3.org/2000/svg">
<g id="Group">
<path id="Vector" d="M24.0002 48C10.7641 48 0.000244141 37.2361 0.000244141 24C0.000244141 10.7639 10.7641 0 24.0002 0C37.2364 0 48.0002 10.7639 48.0002 24C48.0002 37.2361 37.2364 48 24.0002 48ZM24.0002 0.759301C11.1832 0.759301 0.759545 11.183 0.759545 24C0.759545 36.817 11.1832 47.2407 24.0002 47.2407C36.8172 47.2407 47.2409 36.817 47.2409 24C47.2409 11.183 36.8172 0.759301 24.0002 0.759301Z" fill="white"/>
<g id="Group_2">
<path id="Vector_2" d="M23.172 39.9633C21.5136 39.9633 19.6974 39.2648 17.5106 37.6247L0.19245 24.6376C-0.0201539 24.4797 -0.0626585 24.176 0.0952762 23.9634C0.253211 23.7507 0.556922 23.7082 0.769527 23.8661L18.0877 36.8532C23.5607 40.9595 26.112 38.8213 30.929 34.0104C35.6792 29.2602 46.2 17.7856 46.3094 17.6702C46.4916 17.4758 46.7953 17.4637 46.9897 17.6399C47.1841 17.8221 47.1963 18.1258 47.0201 18.3202C46.9168 18.4356 36.3777 29.9284 31.6154 34.6907C28.5539 37.7522 26.1241 39.9633 23.178 39.9633H23.172Z" fill="white"/>
<path id="Vector_3" d="M44.2455 16.0746C42.1924 18.5529 40.0967 20.9888 37.9464 23.376C35.8082 25.7754 33.6214 28.1263 31.4103 30.4649L29.7277 32.1961C29.1627 32.7671 28.61 33.3503 27.9539 33.897C27.2979 34.4254 26.5629 34.8628 25.7732 35.1847C24.9775 35.4945 24.1331 35.6524 23.2888 35.6828C21.6001 35.7071 19.9661 35.2394 18.5022 34.5347C17.0382 33.8179 15.6775 32.9371 14.4141 31.9409C15.799 32.761 17.2022 33.5446 18.6905 34.1035C20.1605 34.6866 21.7277 35.0207 23.2524 34.9357C24.0117 34.8628 24.7527 34.6927 25.4513 34.4072C26.1377 34.0974 26.7876 33.6904 27.3708 33.1923C27.9357 32.6942 28.4946 32.1171 29.0473 31.534L30.7056 29.7907C32.9289 27.4763 35.14 25.1498 37.3936 22.8536C39.635 20.5514 41.919 18.2918 44.2394 16.0625L44.2455 16.0746Z" fill="white"/>
</g>
</g>
</svg>
