<svg width="1200" height="540" viewBox="0 0 1200 540" fill="none" xmlns="http://www.w3.org/2000/svg">
<g filter="url(#filter0_bi_669_4033)">
<path d="M0.460571 270V42.7856C0.460571 19.1558 19.6163 0 43.2461 0H394.999H989.03C997.654 0 1006.08 2.60608 1013.19 7.47652L1180.92 122.256C1192.57 130.231 1199.54 143.444 1199.54 157.565V270V497.214C1199.54 520.844 1180.38 540 1156.75 540H394.999H210.968C202.344 540 193.922 537.394 186.805 532.523L19.0826 417.744C7.42871 409.769 0.460571 396.556 0.460571 382.435V270Z" fill="#DFDEDE" fill-opacity="0.1"/>
<path d="M1.82605 42.7856V270V382.435C1.82605 396.106 8.57178 408.896 19.8538 416.617L187.576 531.397C194.466 536.112 202.62 538.635 210.968 538.635H394.999H1156.75C1179.63 538.635 1198.17 520.09 1198.17 497.214V270V157.565C1198.17 143.894 1191.43 131.104 1180.14 123.383L1012.42 8.6034C1005.53 3.8884 997.379 1.3655 989.03 1.3655H394.999H43.2461C20.3705 1.3655 1.82605 19.9099 1.82605 42.7856Z" stroke="url(#paint0_linear_669_4033)" stroke-opacity="0.5" stroke-width="2.73099" stroke-linecap="round"/>
</g>
<defs>
<filter id="filter0_bi_669_4033" x="-11.5391" y="-12" width="1223.08" height="564" filterUnits="userSpaceOnUse" color-interpolation-filters="sRGB">
<feFlood flood-opacity="0" result="BackgroundImageFix"/>
<feGaussianBlur in="BackgroundImageFix" stdDeviation="6"/>
<feComposite in2="SourceAlpha" operator="in" result="effect1_backgroundBlur_669_4033"/>
<feBlend mode="normal" in="SourceGraphic" in2="effect1_backgroundBlur_669_4033" result="shape"/>
<feColorMatrix in="SourceAlpha" type="matrix" values="0 0 0 0 0 0 0 0 0 0 0 0 0 0 0 0 0 0 127 0" result="hardAlpha"/>
<feOffset dx="7.28265" dy="7.28265"/>
<feGaussianBlur stdDeviation="9.10331"/>
<feComposite in2="hardAlpha" operator="arithmetic" k2="-1" k3="1"/>
<feColorMatrix type="matrix" values="0 0 0 0 1 0 0 0 0 1 0 0 0 0 1 0 0 0 0.15 0"/>
<feBlend mode="normal" in2="shape" result="effect2_innerShadow_669_4033"/>
</filter>
<linearGradient id="paint0_linear_669_4033" x1="792.004" y1="1.68747" x2="540.326" y2="369.453" gradientUnits="userSpaceOnUse">
<stop stop-color="white" stop-opacity="0.5"/>
<stop offset="1" stop-color="white" stop-opacity="0.1"/>
</linearGradient>
</defs>
</svg>
