<svg width="79" height="79" viewBox="0 0 79 79" fill="none" xmlns="http://www.w3.org/2000/svg">
<g id="Frame 1973341144" filter="url(#filter0_dd_7561_103226)">
<rect x="12.1094" y="0.570312" width="54" height="54" rx="8" fill="white"/>
<path id="Vector" d="M21.6237 34.2382C22.014 28.1236 23.1638 23.6505 24.135 21.0517C24.6268 19.7392 25.6838 18.7627 27.0366 18.4354C34.5617 16.6154 43.6584 16.6154 51.1835 18.4354C52.5363 18.7627 53.5933 19.7392 54.0851 21.0517C55.0581 23.6505 56.2061 28.1236 56.5964 34.2364C56.8291 37.894 54.1866 39.9083 51.2588 41.3818C49.3967 42.3216 47.9635 39.5513 47.0114 37.4057C46.7592 36.8352 46.345 36.3512 45.8201 36.014C45.2953 35.6767 44.683 35.501 44.0591 35.5087H34.161C32.8677 35.5087 31.7284 36.235 31.2087 37.4057C30.2566 39.5513 28.8234 42.3216 26.9596 41.3818C24.0633 39.924 21.3892 37.9238 21.6237 34.2364M26.8598 14.4453L30.2951 13.5703M51.3603 14.4453L47.8602 13.5703M33.86 29.3206L31.2349 26.6956M31.2349 26.6956L28.6099 24.0705M31.2349 26.6956L28.6099 29.3206M31.2349 26.6956L33.86 24.0705M46.0892 24.0705H46.1067M49.5892 29.3206H49.6067" stroke="black" stroke-width="2" stroke-linecap="round" stroke-linejoin="round"/>
</g>
<defs>
<filter id="filter0_dd_7561_103226" x="0.109375" y="0.570312" width="78" height="78" filterUnits="userSpaceOnUse" color-interpolation-filters="sRGB">
<feFlood flood-opacity="0" result="BackgroundImageFix"/>
<feColorMatrix in="SourceAlpha" type="matrix" values="0 0 0 0 0 0 0 0 0 0 0 0 0 0 0 0 0 0 127 0" result="hardAlpha"/>
<feMorphology radius="2" operator="erode" in="SourceAlpha" result="effect1_dropShadow_7561_103226"/>
<feOffset dy="4"/>
<feGaussianBlur stdDeviation="3"/>
<feComposite in2="hardAlpha" operator="out"/>
<feColorMatrix type="matrix" values="0 0 0 0 0.223529 0 0 0 0 0.223529 0 0 0 0 0.415686 0 0 0 0.03 0"/>
<feBlend mode="normal" in2="BackgroundImageFix" result="effect1_dropShadow_7561_103226"/>
<feColorMatrix in="SourceAlpha" type="matrix" values="0 0 0 0 0 0 0 0 0 0 0 0 0 0 0 0 0 0 127 0" result="hardAlpha"/>
<feMorphology radius="4" operator="erode" in="SourceAlpha" result="effect2_dropShadow_7561_103226"/>
<feOffset dy="12"/>
<feGaussianBlur stdDeviation="8"/>
<feComposite in2="hardAlpha" operator="out"/>
<feColorMatrix type="matrix" values="0 0 0 0 0.223529 0 0 0 0 0.223529 0 0 0 0 0.415686 0 0 0 0.08 0"/>
<feBlend mode="normal" in2="effect1_dropShadow_7561_103226" result="effect2_dropShadow_7561_103226"/>
<feBlend mode="normal" in="SourceGraphic" in2="effect2_dropShadow_7561_103226" result="shape"/>
</filter>
</defs>
</svg>
