<svg width="79" height="79" viewBox="0 0 79 79" fill="none" xmlns="http://www.w3.org/2000/svg">
<g id="Frame 1973341144" filter="url(#filter0_dd_7561_103248)">
<rect x="12.1094" y="0.570312" width="54" height="54" rx="8" fill="white"/>
<path id="Vector" d="M53.1315 31.7554L50.1446 28.7684V24.8115C50.1411 22.077 49.1239 19.4409 47.2896 17.413C45.4552 15.385 42.9341 14.1092 40.2137 13.8323V11.5703H38.0068V13.8323C35.2864 14.1092 32.7652 15.385 30.9309 17.413C29.0966 19.4409 28.0793 22.077 28.0759 24.8115V28.7684L25.0889 31.7554C24.882 31.9623 24.7657 32.2429 24.7656 32.5355V35.8458C24.7656 36.1385 24.8819 36.4191 25.0888 36.6261C25.2957 36.833 25.5764 36.9492 25.8691 36.9492H33.5931V37.8066C33.5686 39.2066 34.0618 40.5663 34.9782 41.625C35.8945 42.6837 37.1695 43.3668 38.5585 43.5434C39.3256 43.6194 40.1001 43.5341 40.8322 43.2929C41.5644 43.0516 42.2379 42.6598 42.8095 42.1427C43.3811 41.6255 43.8382 40.9944 44.1513 40.2901C44.4644 39.5856 44.6265 38.8235 44.6274 38.0527V36.9492H52.3514C52.6441 36.9492 52.9247 36.833 53.1317 36.6261C53.3386 36.4191 53.4548 36.1385 53.4548 35.8458V32.5355C53.4548 32.2429 53.3385 31.9623 53.1315 31.7554ZM42.4205 38.0527C42.4205 38.9306 42.0718 39.7726 41.451 40.3934C40.8302 41.0142 39.9882 41.363 39.1102 41.363C38.2323 41.363 37.3903 41.0142 36.7695 40.3934C36.1487 39.7726 35.7999 38.9306 35.7999 38.0527V36.9492H42.4205V38.0527ZM51.248 34.7424H26.9725V32.9923L29.9595 30.0053C30.1664 29.7985 30.2827 29.5178 30.2828 29.2252V24.8115C30.2828 22.4703 31.2128 20.225 32.8683 18.5695C34.5238 16.9141 36.7691 15.984 39.1102 15.984C41.4514 15.984 43.6967 16.9141 45.3522 18.5695C47.0077 20.225 47.9377 22.4703 47.9377 24.8115V29.2252C47.9378 29.5178 48.054 29.7985 48.261 30.0053L51.248 32.9923V34.7424Z" fill="black"/>
</g>
<defs>
<filter id="filter0_dd_7561_103248" x="0.109375" y="0.570312" width="78" height="78" filterUnits="userSpaceOnUse" color-interpolation-filters="sRGB">
<feFlood flood-opacity="0" result="BackgroundImageFix"/>
<feColorMatrix in="SourceAlpha" type="matrix" values="0 0 0 0 0 0 0 0 0 0 0 0 0 0 0 0 0 0 127 0" result="hardAlpha"/>
<feMorphology radius="2" operator="erode" in="SourceAlpha" result="effect1_dropShadow_7561_103248"/>
<feOffset dy="4"/>
<feGaussianBlur stdDeviation="3"/>
<feComposite in2="hardAlpha" operator="out"/>
<feColorMatrix type="matrix" values="0 0 0 0 0.223529 0 0 0 0 0.223529 0 0 0 0 0.415686 0 0 0 0.03 0"/>
<feBlend mode="normal" in2="BackgroundImageFix" result="effect1_dropShadow_7561_103248"/>
<feColorMatrix in="SourceAlpha" type="matrix" values="0 0 0 0 0 0 0 0 0 0 0 0 0 0 0 0 0 0 127 0" result="hardAlpha"/>
<feMorphology radius="4" operator="erode" in="SourceAlpha" result="effect2_dropShadow_7561_103248"/>
<feOffset dy="12"/>
<feGaussianBlur stdDeviation="8"/>
<feComposite in2="hardAlpha" operator="out"/>
<feColorMatrix type="matrix" values="0 0 0 0 0.223529 0 0 0 0 0.223529 0 0 0 0 0.415686 0 0 0 0.08 0"/>
<feBlend mode="normal" in2="effect1_dropShadow_7561_103248" result="effect2_dropShadow_7561_103248"/>
<feBlend mode="normal" in="SourceGraphic" in2="effect2_dropShadow_7561_103248" result="shape"/>
</filter>
</defs>
</svg>
