<svg width="57" height="57" viewBox="0 0 57 57" fill="none" xmlns="http://www.w3.org/2000/svg">
<g filter="url(#filter0_dd_7561_101911)">
<rect x="13" width="32" height="32" rx="8" fill="white" shape-rendering="crispEdges"/>
<path d="M22.8086 10.8789C19.9622 10.8789 17.6543 13.1869 17.6543 16.0334C17.6543 18.88 19.9622 21.188 22.8086 21.188C25.6551 21.188 27.963 18.88 27.963 16.0334C27.963 13.1869 25.6551 10.8789 22.8086 10.8789ZM22.8086 20.7054C20.228 20.7054 18.1369 18.6142 18.1369 16.0334C18.1369 13.4527 20.228 11.3615 22.8086 11.3615C25.3893 11.3615 27.4804 13.4527 27.4804 16.0334C27.4804 18.6142 25.3893 20.7054 22.8086 20.7054Z" fill="#232323" stroke="#232323"/>
<path d="M21.2624 16.8981C21.0984 16.6136 21.0214 16.3023 21.0214 15.9977L20.9076 15.7969L20.583 15.9843L19.0332 17.3366C19.1135 17.5643 19.2173 17.7919 19.3445 18.0095C19.4717 18.227 19.6123 18.4279 19.7729 18.6153L21.7176 17.9492L22.0423 17.7618L21.9285 17.5609C21.6641 17.4103 21.4331 17.186 21.2691 16.9015L21.2624 16.8981Z" fill="#232323"/>
<path d="M25.0464 15.9843L24.7218 15.7969L24.6079 15.9977C24.6079 16.3057 24.531 16.6136 24.3669 16.8981C24.2029 17.1827 23.972 17.4036 23.7076 17.5576L23.5938 17.7584L23.9184 17.9459L25.8631 18.612C26.0205 18.4279 26.1644 18.227 26.2916 18.0061C26.4188 17.7885 26.5192 17.5643 26.6029 17.3333L25.0531 15.981L25.0464 15.9843Z" fill="#232323"/>
<path d="M23.9443 14.4519V14.0737L23.5494 12.0552C23.3117 12.0117 23.064 11.9883 22.813 11.9883C22.562 11.9883 22.3143 12.0117 22.0766 12.0552L21.6816 14.0737V14.4519H21.9126C22.177 14.2979 22.485 14.2109 22.813 14.2109C23.141 14.2109 23.449 14.2979 23.7134 14.4519H23.9443Z" fill="#232323"/>
<path d="M34.4297 10.8789C31.5833 10.8789 29.2754 13.1869 29.2754 16.0334C29.2754 18.88 31.5833 21.188 34.4297 21.188C37.2761 21.188 39.5841 18.88 39.5841 16.0334C39.5841 13.1869 37.2761 10.8789 34.4297 10.8789ZM34.4297 20.7054C31.8491 20.7054 29.758 18.6142 29.758 16.0334C29.758 13.4527 31.8491 11.3615 34.4297 11.3615C37.0104 11.3615 39.1015 13.4527 39.1015 16.0334C39.1015 18.6142 37.0104 20.7054 34.4297 20.7054Z" fill="#232323" stroke="#232323"/>
<path d="M32.9167 16.8981C32.7527 16.6136 32.6757 16.3023 32.6757 15.9977L32.5619 15.7969L32.2372 15.9843L30.6875 17.3366C30.7678 17.5643 30.8716 17.7919 30.9988 18.0095C31.126 18.227 31.2666 18.4279 31.4272 18.6153L33.3719 17.9492L33.6966 17.7618L33.5828 17.5609C33.3184 17.4103 33.0874 17.186 32.9234 16.9015L32.9167 16.8981Z" fill="#232323"/>
<path d="M36.7007 15.9843L36.376 15.7969L36.2622 15.9977C36.2622 16.3057 36.1853 16.6136 36.0212 16.8981C35.8572 17.1827 35.6263 17.4036 35.3619 17.5576L35.248 17.7584L35.5727 17.9459L37.5174 18.612C37.6748 18.4279 37.8187 18.227 37.9459 18.0061C38.0731 17.7885 38.1735 17.5643 38.2572 17.3333L36.7074 15.981L36.7007 15.9843Z" fill="#232323"/>
<path d="M35.5986 14.4519V14.0737L35.2037 12.0552C34.966 12.0117 34.7183 11.9883 34.4673 11.9883C34.2162 11.9883 33.9686 12.0117 33.7309 12.0552L33.3359 14.0737V14.4519H33.5669C33.8313 14.2979 34.1393 14.2109 34.4673 14.2109C34.7953 14.2109 35.1033 14.2979 35.3677 14.4519H35.5986Z" fill="#232323"/>
<path d="M34.5097 20.7031H22.7148V21.1892H34.5097V20.7031Z" fill="#232323" stroke="#232323"/>
</g>
<defs>
<filter id="filter0_dd_7561_101911" x="0.765625" y="0" width="56.2344" height="56.3438" filterUnits="userSpaceOnUse" color-interpolation-filters="sRGB">
<feFlood flood-opacity="0" result="BackgroundImageFix"/>
<feColorMatrix in="SourceAlpha" type="matrix" values="0 0 0 0 0 0 0 0 0 0 0 0 0 0 0 0 0 0 127 0" result="hardAlpha"/>
<feMorphology radius="2" operator="erode" in="SourceAlpha" result="effect1_dropShadow_7561_101911"/>
<feOffset dy="4"/>
<feGaussianBlur stdDeviation="3"/>
<feComposite in2="hardAlpha" operator="out"/>
<feColorMatrix type="matrix" values="0 0 0 0 0.223529 0 0 0 0 0.223529 0 0 0 0 0.415686 0 0 0 0.03 0"/>
<feBlend mode="normal" in2="BackgroundImageFix" result="effect1_dropShadow_7561_101911"/>
<feColorMatrix in="SourceAlpha" type="matrix" values="0 0 0 0 0 0 0 0 0 0 0 0 0 0 0 0 0 0 127 0" result="hardAlpha"/>
<feMorphology radius="4" operator="erode" in="SourceAlpha" result="effect2_dropShadow_7561_101911"/>
<feOffset dy="12"/>
<feGaussianBlur stdDeviation="8"/>
<feComposite in2="hardAlpha" operator="out"/>
<feColorMatrix type="matrix" values="0 0 0 0 0.223529 0 0 0 0 0.223529 0 0 0 0 0.415686 0 0 0 0.08 0"/>
<feBlend mode="normal" in2="effect1_dropShadow_7561_101911" result="effect2_dropShadow_7561_101911"/>
<feBlend mode="normal" in="SourceGraphic" in2="effect2_dropShadow_7561_101911" result="shape"/>
</filter>
</defs>
</svg>
