<svg width="79" height="79" viewBox="0 0 79 79" fill="none" xmlns="http://www.w3.org/2000/svg">
<g id="Frame 1973341144" filter="url(#filter0_dd_7561_103260)">
<rect x="12.1094" y="0.570312" width="54" height="54" rx="8" fill="white"/>
<g id="Group 1973340423">
<g id="vuesax/twotone/setting-2">
<g id="Group 1973340359">
<path id="Vector" d="M30.5297 25.6523H29.2422V29.4915H30.5297V25.6523Z" fill="#181818"/>
<path id="Vector_2" d="M48.5532 25.6523H47.2656V29.4915H48.5532V25.6523Z" fill="#181818"/>
<path id="Vector_3" d="M43.4047 25.6523H42.1172V29.4915H43.4047V25.6523Z" fill="#181818"/>
<path id="Vector_4" d="M38.2485 25.6523H36.9609V29.4915H38.2485V25.6523Z" fill="#181818"/>
<path id="Vector_5" d="M33.1 23.7344H31.8125V31.4088H33.1V23.7344Z" fill="#181818"/>
<path id="Vector_6" d="M40.8266 23.7344H39.5391V31.4088H40.8266V23.7344Z" fill="#181818"/>
<path id="Vector_7" d="M46.0141 21.8125H44.7266V33.3223H46.0141V21.8125Z" fill="#181818"/>
<path id="Vector_8" d="M35.686 19.8945H34.3984V35.2435H35.686V19.8945Z" fill="#181818"/>
<path id="Vector_9" d="M27.9516 26.9336H26.6641V28.2133H27.9516V26.9336Z" fill="#181818"/>
<path id="Vector_10" d="M51.1235 26.9336H49.8359V28.2133H51.1235V26.9336Z" fill="#181818"/>
</g>
</g>
<circle id="Ellipse 2185" cx="39.1094" cy="27.5703" r="16" stroke="#181818" stroke-width="1.44"/>
</g>
</g>
<defs>
<filter id="filter0_dd_7561_103260" x="0.109375" y="0.570312" width="78" height="78" filterUnits="userSpaceOnUse" color-interpolation-filters="sRGB">
<feFlood flood-opacity="0" result="BackgroundImageFix"/>
<feColorMatrix in="SourceAlpha" type="matrix" values="0 0 0 0 0 0 0 0 0 0 0 0 0 0 0 0 0 0 127 0" result="hardAlpha"/>
<feMorphology radius="2" operator="erode" in="SourceAlpha" result="effect1_dropShadow_7561_103260"/>
<feOffset dy="4"/>
<feGaussianBlur stdDeviation="3"/>
<feComposite in2="hardAlpha" operator="out"/>
<feColorMatrix type="matrix" values="0 0 0 0 0.223529 0 0 0 0 0.223529 0 0 0 0 0.415686 0 0 0 0.03 0"/>
<feBlend mode="normal" in2="BackgroundImageFix" result="effect1_dropShadow_7561_103260"/>
<feColorMatrix in="SourceAlpha" type="matrix" values="0 0 0 0 0 0 0 0 0 0 0 0 0 0 0 0 0 0 127 0" result="hardAlpha"/>
<feMorphology radius="4" operator="erode" in="SourceAlpha" result="effect2_dropShadow_7561_103260"/>
<feOffset dy="12"/>
<feGaussianBlur stdDeviation="8"/>
<feComposite in2="hardAlpha" operator="out"/>
<feColorMatrix type="matrix" values="0 0 0 0 0.223529 0 0 0 0 0.223529 0 0 0 0 0.415686 0 0 0 0.08 0"/>
<feBlend mode="normal" in2="effect1_dropShadow_7561_103260" result="effect2_dropShadow_7561_103260"/>
<feBlend mode="normal" in="SourceGraphic" in2="effect2_dropShadow_7561_103260" result="shape"/>
</filter>
</defs>
</svg>
