<svg width="107" height="175" viewBox="0 0 107 175" fill="none" xmlns="http://www.w3.org/2000/svg">
<rect x="105.057" y="1.5" width="171.093" height="103.557" rx="51.7785" transform="rotate(90 105.057 1.5)" stroke="url(#paint0_linear_327_4817)" stroke-width="3"/>
<path d="M53.2783 106.557C53.2783 106.557 47.797 97.1183 42.5386 93.1392C35.1697 87.563 20.2606 86.671 20.2606 86.671C20.2606 86.671 35.1697 85.779 42.5386 80.2028C47.797 76.2237 53.2783 66.7854 53.2783 66.7854C53.2783 66.7854 58.7595 76.2237 64.0179 80.2028C71.3868 85.779 86.2959 86.671 86.2959 86.671C86.2959 86.671 71.3868 87.563 64.0179 93.1392C58.7595 97.1183 53.2783 106.557 53.2783 106.557Z" fill="url(#paint1_linear_327_4817)"/>
<defs>
<linearGradient id="paint0_linear_327_4817" x1="80.4427" y1="-440.08" x2="394.51" y2="-383.843" gradientUnits="userSpaceOnUse">
<stop stop-color="#2969C3"/>
<stop offset="1" stop-color="#BA6AF6"/>
</linearGradient>
<linearGradient id="paint1_linear_327_4817" x1="20.7296" y1="70.323" x2="86.7628" y2="71.2786" gradientUnits="userSpaceOnUse">
<stop stop-color="#BA69F6"/>
<stop offset="1" stop-color="#2768C2"/>
</linearGradient>
</defs>
</svg>
