<svg width="946" height="175" viewBox="0 0 946 175" fill="none" xmlns="http://www.w3.org/2000/svg">
<path fill-rule="evenodd" clip-rule="evenodd" d="M385.88 0C404.433 0 414.001 11.0852 414.001 30.5717V34.4224L395.915 34.4224V29.2882C395.915 20.6534 392.414 17.3862 386.347 17.3862C380.279 17.3862 376.895 20.6534 376.895 29.2882C376.895 40.7528 384.741 47.9622 393.229 55.7611C403.228 64.9487 414.118 74.9543 414.118 93.6988C414.118 113.069 404.433 124.271 385.647 124.271C366.977 124.271 357.292 113.069 357.292 93.6988V86.2309H375.261V94.8657C375.261 103.617 379.112 106.651 385.18 106.651C391.247 106.651 395.098 103.617 395.098 94.8657C395.098 83.401 387.227 76.2162 378.713 68.444C368.682 59.2877 357.759 49.3162 357.759 30.5717C357.759 11.0852 367.327 0 385.88 0ZM303.15 122.868L303.15 34.8872L326.837 122.868L346.44 122.868L346.44 1.39834L329.521 1.39834V74.0937L309.917 1.39834L285.997 1.39834L285.997 122.868L303.15 122.868ZM235.355 95.0973L235.355 1.39846L216.218 1.39846L216.218 93.8137C216.218 113.3 225.903 124.385 244.69 124.385C263.359 124.385 273.161 113.3 273.161 93.8137L273.161 1.39846L255.075 1.39846L255.075 95.0973C255.075 103.732 251.224 106.883 245.156 106.883C239.089 106.883 235.355 103.732 235.355 95.0973ZM478.528 1.3986L419.485 1.3986V18.7848L439.438 18.7848L439.438 122.869H458.575L458.575 18.7848L478.528 18.7848V1.3986ZM485.295 30.5719C485.295 11.0853 495.447 0.000143724 514.234 0.000143724C532.903 0.000143724 543.172 11.0853 543.172 30.5719V93.6989C543.172 113.069 532.903 124.271 514.234 124.271C495.447 124.271 485.295 113.069 485.295 93.6989L485.295 30.5719ZM504.315 94.8658C504.315 103.617 508.166 106.884 514.234 106.884C520.301 106.884 524.152 103.617 524.152 94.8658V29.405C524.152 20.6536 520.301 17.3864 514.234 17.3864C508.166 17.3864 504.315 20.6536 504.315 29.405L504.315 94.8658ZM612.017 47.2557V31.3864C612.017 12.0165 602.683 1.39811 583.546 1.39811L555.541 1.39811V122.868H574.561V77.244L583.546 77.244C602.683 77.244 612.017 66.6255 612.017 47.2557ZM574.561 59.8578V18.7843H583.546C589.614 18.7843 592.998 21.5848 592.998 30.2195V48.4225C592.998 57.0573 589.614 59.8578 583.546 59.8578H574.561ZM164.528 72.8124L127.305 72.8124L127.305 24.7378L174.096 24.7378V0.000419463L100.117 0.000419463L100.117 172.696L174.096 172.696V147.958H127.305L127.305 97.4332L164.528 97.4332V72.8124ZM81.0967 45.8582V39.7905C81.0967 13.0695 69.0781 0.000648032 40.9568 0.000648032L0 0.000648032L0 172.696L42.707 172.696C69.7782 172.696 83.8972 158.343 83.8972 131.739V117.62C83.8972 99.4171 78.1796 86.3482 63.5938 80.6306C75.7292 75.0297 81.0967 63.7112 81.0967 45.8582ZM27.0711 70.3623L27.0711 24.7381L40.14 24.7381C49.8249 24.7381 54.0256 30.1056 54.0256 42.4743L54.0256 52.0426C54.0256 65.9282 47.8412 70.3623 37.6895 70.3623H27.0711ZM27.0711 147.958L27.0711 94.983H39.2065C51.5752 94.983 56.7094 99.8838 56.7094 115.986L56.7094 131.039C56.7094 143.874 51.8086 147.958 42.707 147.958L27.0711 147.958ZM852.04 51.2212L833.02 51.2212L833.02 172.691L883.545 172.691L883.545 155.305H852.04V51.2212ZM684.595 97.0788V81.2095C684.595 61.8396 675.143 51.2212 656.124 51.2212L628.002 51.2212L628.002 172.691H647.022L647.022 127.067H656.124C675.143 127.067 684.595 116.449 684.595 97.0788ZM647.022 109.681V68.6074H656.124C662.191 68.6074 665.458 71.4079 665.458 80.0426V98.2457C665.458 106.88 662.191 109.681 656.124 109.681H647.022ZM734.537 172.691H753.79L734.304 51.2213L706.416 51.2213L686.929 172.691H704.432L707.816 150.638H731.153L734.537 172.691ZM719.485 72.8082L728.703 134.185H710.267L719.485 72.8082ZM819.719 79.226V83.5434C819.719 96.0288 815.868 103.963 807.35 107.931C817.618 112.015 821.586 121.116 821.586 133.952V143.87C821.586 162.656 811.667 172.691 792.648 172.691H762.543L762.543 51.2214L791.364 51.2214C811.201 51.2214 819.719 60.4396 819.719 79.226ZM781.679 68.6076V100.696H789.147C796.265 100.696 800.582 97.5457 800.582 87.8608V81.093C800.582 72.4582 797.665 68.6076 790.897 68.6076H781.679ZM781.679 118.082V155.305H792.531C798.949 155.305 802.449 152.388 802.449 143.403V132.785C802.449 121.466 798.832 118.082 790.197 118.082H781.679ZM910.851 102.447H937.105V119.716H910.851V155.305L943.873 155.305L943.873 172.692L891.831 172.692L891.831 51.2215L943.873 51.2215V68.6077L910.851 68.6077V102.447ZM686.109 43.3558V31.7326C686.109 10.9625 675.724 0.110666 656.121 0.110666L626.366 0.110666V43.3558L629.633 43.3558V3.26118L656.121 3.26118C673.857 3.26118 682.959 12.8294 682.959 31.7326V43.3558H686.109ZM742.626 43.3558L735.702 0.110401L705.013 0.110401L698.089 43.3558H701.402L707.814 3.26092L732.901 3.26092L739.353 43.3558H742.626ZM820.349 43.3558C820.939 40.5451 821.232 37.4137 821.232 33.9495V29.6321C821.232 9.44542 811.78 0.110541 791.36 0.110541L761.022 0.110541V43.3558H764.172V3.26106L791.36 3.26106C809.796 3.26106 818.081 11.4291 818.081 29.6321V33.9495C818.081 37.4797 817.769 40.6073 817.13 43.3558H820.349ZM853.669 43.3558V0.110422L831.382 0.110422V43.3558H834.65V3.26094L850.519 3.26094V43.3558H853.669ZM890.192 43.3558V0.110841L945.502 0.110841V20.6476L912.479 20.6476V43.3558H909.329V17.3804L942.234 17.3804V3.26136L893.46 3.26136V43.3558H890.192ZM801.722 43.3558C802.049 41.8437 802.212 40.1477 802.212 38.2668V31.4991C802.212 25.4314 801.045 17.3801 790.893 17.3801L780.042 17.3801V43.3558H783.309V20.6473L790.893 20.6473C795.677 20.6473 798.945 22.5142 798.945 31.4991V38.2668C798.945 40.2464 798.77 41.9355 798.4 43.3558H801.722ZM724.134 43.3558L719.482 12.3624L714.831 43.3558H718.108L719.482 34.066L720.879 43.3558H724.134ZM667.089 43.3558V30.449C667.089 21.5809 663.589 17.3802 656.121 17.3802L645.503 17.3802V43.3558H648.653V20.6474L656.121 20.6474C660.905 20.6474 663.822 22.281 663.822 30.449V43.3558H667.089ZM387.178 173.861C367.808 173.861 357.189 162.426 357.189 141.773V132.671L378.426 132.671V142.94C378.426 152.041 382.86 153.208 386.711 153.208C390.562 153.208 394.996 152.041 394.996 142.94C394.996 137.514 393.118 133.101 390.16 129.069H393.979C396.531 133.071 398.146 137.544 398.146 142.94C398.146 151.808 394.296 156.358 386.711 156.358C379.01 156.358 375.159 151.808 375.159 142.94V135.938H360.34V141.773C360.34 160.676 369.675 170.711 387.178 170.711C404.797 170.711 414.015 160.676 414.015 141.773C414.015 136.985 413.288 132.803 412.032 129.069H415.442C416.608 132.843 417.283 137.039 417.283 141.773C417.283 162.426 406.548 173.861 387.178 173.861ZM349.605 172.459V129.069H346.454V169.308H329.651L318.781 129.069H315.486L327.201 172.459H349.605ZM285.894 172.459V129.069H289.045V169.308H303.047V129.069H306.314V172.459H285.894ZM276.209 141.887V129.069H273.058V141.887C273.058 160.79 263.723 170.825 246.22 170.825C228.601 170.825 219.383 160.79 219.383 141.887V129.069H216.115V141.887C216.115 162.657 226.851 174.093 246.22 174.093C265.59 174.093 276.209 162.657 276.209 141.887ZM238.402 143.171V129.069H235.252V143.171C235.252 152.039 239.103 156.59 246.687 156.59C254.388 156.59 258.239 152.039 258.239 143.171V129.069H254.972V143.171C254.972 152.156 250.538 153.323 246.687 153.323C242.837 153.323 238.402 152.156 238.402 143.171ZM332.568 134.303L331.159 129.069H332.568V134.303ZM439.335 172.459V129.069H442.602V169.308H458.472V129.069H461.622V172.459H439.335ZM485.193 141.773V129.069H488.344V141.773C488.344 160.443 498.145 170.711 515.765 170.711C533.384 170.711 543.069 160.443 543.069 141.773V129.069H546.336V141.773C546.336 162.193 535.135 173.861 515.765 173.861C496.278 173.861 485.193 162.193 485.193 141.773ZM504.213 142.94V129.069H507.48V142.94C507.48 152.158 511.914 153.325 515.765 153.325C519.615 153.325 524.049 152.158 524.049 142.94V129.069H527.2V142.94C527.2 154.142 521.016 156.592 515.765 156.592C510.514 156.592 504.213 154.142 504.213 142.94ZM553.938 173.209L553.938 129.069H557.089L557.089 170.059H572.958L572.958 129.069H576.225L576.225 173.209H553.938Z" fill="url(#paint0_linear_327_4736)"/>
<defs>
<linearGradient id="paint0_linear_327_4736" x1="938.787" y1="158.607" x2="-4.76888" y2="113.941" gradientUnits="userSpaceOnUse">
<stop stop-color="#BA69F6"/>
<stop offset="1" stop-color="#2768C2"/>
</linearGradient>
</defs>
</svg>
