<svg width="720" height="570" viewBox="0 0 720 570" fill="none" xmlns="http://www.w3.org/2000/svg">
<g clip-path="url(#clip0_324_4722)">
<path d="M10 105.5L97.5 28L101 72L166.5 68.5L194.5 54.5L204.5 49.5L213.5 77.5L263 68.5L293 82L323 60.5L330 77.5H348V60.5H355L378.5 49.5L404.5 28L418 53L434.5 63.5L460 49.5L464.5 75.5L489.5 63.5H499L520 73.5H540L570 59L605 28L642.5 70L663 59L668 78.5L714 77.5L87 656H10V105.5Z" fill="url(#paint0_linear_324_4722)"/>
<path d="M10 105.5L97.5 28L101 72L166.5 68.5L194.5 54.5L204.5 49.5L213.5 77.5L263 68.5L293 82L323 60.5L330 77.5H348V60.5H355L378.5 49.5L404.5 28L418 53L434.5 63.5L460 49.5L464.5 75.5L489.5 63.5H499L520 73.5H540L570 59L573 77.5L10 595.401L5 600L10 105.5Z" fill="url(#paint1_linear_324_4722)"/>
<path d="M5 110.5L92.5 33L96 77L161.5 73.5L189.5 59.5L199.5 54.5L208.5 82.5L258 73.5L288 87L318 65.5L325 82.5H343V65.5H350L373.5 54.5L377 81.5L-1 428.5L-3.5 115.5L5 110.5Z" fill="url(#paint2_linear_324_4722)"/>
<path d="M126.72 86.52H107.2C100.213 86.52 95.04 84.7067 91.68 81.08C88.3733 77.4533 86.72 72.76 86.72 67V44.52C86.72 41.5867 87.1467 39.0533 88 36.92C88.8533 34.7333 90.1067 32.92 91.76 31.48L102.16 22.76C103.813 21.3733 105.92 20.3333 108.48 19.64C111.04 18.9467 114.053 18.6 117.52 18.6H137.04C138.32 18.6 139.253 18.8933 139.84 19.48C140.427 20.0667 140.72 21 140.72 22.28V31.96C140.72 32.6533 140.613 33.24 140.4 33.72C140.24 34.2 139.973 34.6 139.6 34.92L129.2 43.56C128.987 43.7733 128.64 43.96 128.16 44.12C127.733 44.28 127.253 44.36 126.72 44.36H116.88V57.88C116.88 59 117.227 59.8 117.92 60.28C118.613 60.7067 119.627 60.92 120.96 60.92H137.04C138.32 60.92 139.253 61.2133 139.84 61.8C140.427 62.3867 140.72 63.32 140.72 64.6V74.12C140.72 74.8133 140.613 75.4 140.4 75.88C140.24 76.36 139.973 76.76 139.6 77.08L129.2 85.72C128.987 85.9333 128.64 86.12 128.16 86.28C127.733 86.44 127.253 86.52 126.72 86.52ZM137.04 77C138.053 77 138.773 76.7867 139.2 76.36C139.68 75.88 139.92 75.1333 139.92 74.12V64.6C139.92 63.5867 139.68 62.8667 139.2 62.44C138.773 61.96 138.053 61.72 137.04 61.72H120.96C119.307 61.72 118.08 61.4267 117.28 60.84C116.48 60.2 116.08 59.2133 116.08 57.88V38.84C116.08 37.5067 116.48 36.52 117.28 35.88C118.08 35.1867 119.307 34.84 120.96 34.84H137.04C138.053 34.84 138.773 34.6267 139.2 34.2C139.68 33.72 139.92 32.9733 139.92 31.96V22.28C139.92 21.2667 139.68 20.5467 139.2 20.12C138.773 19.64 138.053 19.4 137.04 19.4H117.52C110.853 19.4 105.893 20.76 102.64 23.48C99.44 26.1467 97.84 30.2533 97.84 35.8V60.68C97.84 66.2267 99.44 70.3333 102.64 73C105.893 75.6667 110.853 77 117.52 77H137.04ZM132.64 69V69.8H119.28C114.107 69.8 110.667 69 108.96 67.4C107.307 65.8 106.48 63.16 106.48 59.48V37.08C106.48 33.2933 107.333 30.6 109.04 29C110.747 27.4 114.16 26.6 119.28 26.6H132.64V27.4H119.28C114.587 27.4 111.413 28.1467 109.76 29.64C108.107 31.08 107.28 33.56 107.28 37.08V59.48C107.28 62.9467 108.08 65.4 109.68 66.84C111.28 68.28 114.48 69 119.28 69H132.64ZM185.413 82.68C183.546 84.28 180.933 85.5067 177.573 86.36C174.213 87.2667 169.893 87.72 164.613 87.72C159.386 87.72 155.093 87.16 151.733 86.04C148.426 84.9733 145.813 83.5333 143.893 81.72C142.026 79.9067 140.719 77.8267 139.973 75.48C139.279 73.1333 138.933 70.7067 138.933 68.2V43.32C138.933 40.8667 139.279 38.6 139.973 36.52C140.666 34.3867 141.919 32.5733 143.733 31.08L154.133 22.44C155.999 20.84 158.586 19.6133 161.893 18.76C165.253 17.8533 169.599 17.4 174.933 17.4C180.159 17.4 184.426 17.8267 187.733 18.68C191.093 19.5333 193.706 20.7333 195.573 22.28C197.493 23.7733 198.799 25.5867 199.493 27.72C200.186 29.8 200.533 32.0933 200.533 34.6V61.88C200.533 64.3333 200.186 66.6 199.493 68.68C198.799 70.76 197.546 72.5467 195.733 74.04L185.413 82.68ZM199.733 61.88V34.6C199.733 32.1467 199.359 29.9333 198.613 27.96C197.919 25.9333 196.639 24.2 194.773 22.76C192.959 21.32 190.426 20.2 187.173 19.4C183.973 18.6 179.893 18.2 174.933 18.2C169.973 18.2 165.866 18.6 162.613 19.4C159.359 20.2 156.799 21.32 154.933 22.76C153.119 24.2 151.839 25.9333 151.093 27.96C150.399 29.9333 150.053 32.1467 150.053 34.6V61.88C150.053 64.3333 150.399 66.5733 151.093 68.6C151.839 70.5733 153.119 72.28 154.933 73.72C156.799 75.1067 159.359 76.2 162.613 77C165.866 77.8 169.973 78.2 174.933 78.2C179.893 78.2 183.973 77.8 187.173 77C190.426 76.2 192.959 75.1067 194.773 73.72C196.639 72.28 197.919 70.5733 198.613 68.6C199.359 66.5733 199.733 64.3333 199.733 61.88ZM191.013 60.04C191.013 63.24 189.866 65.8533 187.573 67.88C185.279 69.8533 181.013 70.84 174.773 70.84C168.533 70.84 164.293 69.8533 162.053 67.88C159.813 65.8533 158.693 63.24 158.693 60.04V36.44C158.693 33.24 159.813 30.6533 162.053 28.68C164.293 26.6533 168.533 25.64 174.773 25.64C181.013 25.64 185.279 26.6533 187.573 28.68C189.866 30.6533 191.013 33.24 191.013 36.44V60.04ZM159.493 60.04C159.493 63.0267 160.559 65.4533 162.693 67.32C164.826 69.1333 168.853 70.04 174.773 70.04C180.693 70.04 184.746 69.1333 186.933 67.32C189.119 65.4533 190.213 63.0267 190.213 60.04V36.44C190.213 33.4533 189.119 31.0533 186.933 29.24C184.746 27.3733 180.693 26.44 174.773 26.44C168.853 26.44 164.826 27.3733 162.693 29.24C160.559 31.0533 159.493 33.4533 159.493 36.44V60.04ZM168.213 59V37.48C168.213 36.4667 168.613 35.6133 169.413 34.92C170.213 34.1733 172.053 33.8 174.933 33.8C177.813 33.8 179.653 34.1733 180.453 34.92C181.253 35.6133 181.653 36.4667 181.653 37.48V59C181.653 60.0667 181.253 60.9733 180.453 61.72C179.653 62.4133 177.813 62.76 174.933 62.76C172.053 62.76 170.213 62.4133 169.413 61.72C168.613 60.9733 168.213 60.0667 168.213 59ZM169.013 59C169.013 59.5333 169.119 60.0133 169.333 60.44C169.546 60.8133 169.946 61.1333 170.533 61.4V46.2C170.533 45.6667 170.426 45.2133 170.213 44.84C169.999 44.4133 169.599 44.0933 169.013 43.88V59ZM245.566 86.52H204.846C203.566 86.52 202.632 86.2267 202.046 85.64C201.459 85.0533 201.166 84.12 201.166 82.84V31C201.166 30.3067 201.246 29.72 201.406 29.24C201.619 28.76 201.912 28.36 202.286 28.04L212.606 19.32C212.872 19.1067 213.219 18.9467 213.646 18.84C214.126 18.68 214.632 18.6 215.166 18.6H227.566C228.846 18.6 229.779 18.8933 230.366 19.48C230.952 20.0667 231.246 21 231.246 22.28V54.84L231.406 54.68L241.726 45.96C241.992 45.7467 242.339 45.5867 242.766 45.48C243.246 45.32 243.752 45.24 244.286 45.24H255.886C257.166 45.24 258.099 45.5333 258.686 46.12C259.272 46.7067 259.566 47.64 259.566 48.92V74.12C259.566 74.8133 259.459 75.4 259.246 75.88C259.086 76.36 258.819 76.76 258.446 77.08L248.046 85.72C247.832 85.9333 247.486 86.12 247.006 86.28C246.579 86.44 246.099 86.52 245.566 86.52ZM255.886 77C256.899 77 257.619 76.7867 258.046 76.36C258.526 75.88 258.766 75.1333 258.766 74.12V48.92C258.766 47.9067 258.526 47.1867 258.046 46.76C257.619 46.28 256.899 46.04 255.886 46.04H244.286C243.272 46.04 242.526 46.28 242.046 46.76C241.619 47.1867 241.406 47.9067 241.406 48.92V61.88H230.446V22.28C230.446 21.2667 230.206 20.5467 229.726 20.12C229.299 19.64 228.579 19.4 227.566 19.4H215.166C214.152 19.4 213.406 19.64 212.926 20.12C212.499 20.5467 212.286 21.2667 212.286 22.28V74.12C212.286 75.1333 212.499 75.88 212.926 76.36C213.406 76.7867 214.152 77 215.166 77H255.886ZM221.006 69.8V26.6H221.806V69H249.646V53.24H250.446V69.8H221.006ZM304.759 82.68C302.893 84.28 300.279 85.5067 296.919 86.36C293.559 87.2667 289.239 87.72 283.959 87.72C278.733 87.72 274.439 87.16 271.079 86.04C267.773 84.9733 265.159 83.5333 263.239 81.72C261.373 79.9067 260.066 77.8267 259.319 75.48C258.626 73.1333 258.279 70.7067 258.279 68.2V43.32C258.279 40.8667 258.626 38.6 259.319 36.52C260.013 34.3867 261.266 32.5733 263.079 31.08L273.479 22.44C275.346 20.84 277.933 19.6133 281.239 18.76C284.599 17.8533 288.946 17.4 294.279 17.4C299.506 17.4 303.773 17.8267 307.079 18.68C310.439 19.5333 313.053 20.7333 314.919 22.28C316.839 23.7733 318.146 25.5867 318.839 27.72C319.533 29.8 319.879 32.0933 319.879 34.6V61.88C319.879 64.3333 319.533 66.6 318.839 68.68C318.146 70.76 316.893 72.5467 315.079 74.04L304.759 82.68ZM319.079 61.88V34.6C319.079 32.1467 318.706 29.9333 317.959 27.96C317.266 25.9333 315.986 24.2 314.119 22.76C312.306 21.32 309.773 20.2 306.519 19.4C303.319 18.6 299.239 18.2 294.279 18.2C289.319 18.2 285.213 18.6 281.959 19.4C278.706 20.2 276.146 21.32 274.279 22.76C272.466 24.2 271.186 25.9333 270.439 27.96C269.746 29.9333 269.399 32.1467 269.399 34.6V61.88C269.399 64.3333 269.746 66.5733 270.439 68.6C271.186 70.5733 272.466 72.28 274.279 73.72C276.146 75.1067 278.706 76.2 281.959 77C285.213 77.8 289.319 78.2 294.279 78.2C299.239 78.2 303.319 77.8 306.519 77C309.773 76.2 312.306 75.1067 314.119 73.72C315.986 72.28 317.266 70.5733 317.959 68.6C318.706 66.5733 319.079 64.3333 319.079 61.88ZM310.359 60.04C310.359 63.24 309.213 65.8533 306.919 67.88C304.626 69.8533 300.359 70.84 294.119 70.84C287.879 70.84 283.639 69.8533 281.399 67.88C279.159 65.8533 278.039 63.24 278.039 60.04V36.44C278.039 33.24 279.159 30.6533 281.399 28.68C283.639 26.6533 287.879 25.64 294.119 25.64C300.359 25.64 304.626 26.6533 306.919 28.68C309.213 30.6533 310.359 33.24 310.359 36.44V60.04ZM278.839 60.04C278.839 63.0267 279.906 65.4533 282.039 67.32C284.173 69.1333 288.199 70.04 294.119 70.04C300.039 70.04 304.093 69.1333 306.279 67.32C308.466 65.4533 309.559 63.0267 309.559 60.04V36.44C309.559 33.4533 308.466 31.0533 306.279 29.24C304.093 27.3733 300.039 26.44 294.119 26.44C288.199 26.44 284.173 27.3733 282.039 29.24C279.906 31.0533 278.839 33.4533 278.839 36.44V60.04ZM287.559 59V37.48C287.559 36.4667 287.959 35.6133 288.759 34.92C289.559 34.1733 291.399 33.8 294.279 33.8C297.159 33.8 298.999 34.1733 299.799 34.92C300.599 35.6133 300.999 36.4667 300.999 37.48V59C300.999 60.0667 300.599 60.9733 299.799 61.72C298.999 62.4133 297.159 62.76 294.279 62.76C291.399 62.76 289.559 62.4133 288.759 61.72C287.959 60.9733 287.559 60.0667 287.559 59ZM288.359 59C288.359 59.5333 288.466 60.0133 288.679 60.44C288.893 60.8133 289.293 61.1333 289.879 61.4V46.2C289.879 45.6667 289.773 45.2133 289.559 44.84C289.346 44.4133 288.946 44.0933 288.359 43.88V59ZM358.513 27.4H341.073V50.52H358.513C361.819 50.52 364.033 49.72 365.153 48.12C366.273 46.52 366.833 44.2533 366.833 41.32V35.72C366.833 33.2667 366.139 31.2667 364.753 29.72C363.419 28.1733 361.339 27.4 358.513 27.4ZM349.713 33.8H355.713C357.099 33.8 358.033 34.1733 358.513 34.92C358.993 35.6133 359.233 36.4933 359.233 37.56V40.28C359.233 41.3467 358.993 42.2533 358.513 43C358.033 43.6933 357.099 44.04 355.713 44.04H349.713V33.8ZM341.073 69.8H340.273V26.6H358.513C361.606 26.6 363.899 27.48 365.393 29.24C366.886 30.9467 367.633 33.1067 367.633 35.72V41.24C367.633 43.6933 367.313 45.72 366.673 47.32C366.033 48.8667 364.753 49.9333 362.833 50.52H363.713C366.966 50.52 369.393 51.2667 370.993 52.76C372.593 54.2 373.393 56.3067 373.393 59.08V69.8H372.593V59.08C372.593 56.4667 371.873 54.52 370.433 53.24C368.993 51.9067 366.753 51.24 363.713 51.24H341.073V69.8ZM346.833 77C347.846 77 348.566 76.7867 348.993 76.36C349.473 75.88 349.713 75.1333 349.713 74.12V58.44H360.913C362.033 58.44 362.806 58.7333 363.233 59.32C363.713 59.8533 363.953 60.7067 363.953 61.88V74.12C363.953 75.1333 364.166 75.88 364.593 76.36C365.073 76.7867 365.819 77 366.833 77H379.233C380.246 77 380.966 76.7867 381.393 76.36C381.873 75.88 382.113 75.1333 382.113 74.12V57.16C382.113 53.8 381.206 51.1067 379.393 49.08C377.633 47.0533 375.313 45.88 372.433 45.56C374.086 44.8667 375.233 43.7467 375.873 42.2C376.566 40.6 376.913 38.68 376.913 36.44V32.76C376.913 28.8133 375.766 25.6133 373.473 23.16C371.233 20.6533 367.126 19.4 361.153 19.4H334.513C333.499 19.4 332.753 19.64 332.273 20.12C331.846 20.5467 331.633 21.2667 331.633 22.28V74.12C331.633 75.1333 331.846 75.88 332.273 76.36C332.753 76.7867 333.499 77 334.513 77H346.833ZM349.393 77.08L338.993 85.72C338.779 85.9333 338.433 86.12 337.953 86.28C337.526 86.44 337.046 86.52 336.513 86.52H324.193C322.913 86.52 321.979 86.2267 321.393 85.64C320.806 85.0533 320.513 84.12 320.513 82.84V31C320.513 30.3067 320.593 29.72 320.753 29.24C320.966 28.76 321.259 28.36 321.633 28.04L331.953 19.32C332.219 19.1067 332.566 18.9467 332.993 18.84C333.473 18.68 333.979 18.6 334.513 18.6H361.153C367.499 18.6 371.846 19.9333 374.193 22.6C376.539 25.2133 377.713 28.6 377.713 32.76V36.44C377.713 38.4133 377.473 40.1467 376.993 41.64C376.513 43.08 375.739 44.2533 374.673 45.16H374.593C377.099 45.8533 379.099 47.24 380.593 49.32C382.139 51.4 382.913 54.0133 382.913 57.16V74.12C382.913 74.8133 382.806 75.4 382.593 75.88C382.433 76.36 382.166 76.76 381.793 77.08L371.393 85.72C371.179 85.9333 370.833 86.12 370.353 86.28C369.926 86.44 369.446 86.52 368.913 86.52H356.513C355.233 86.52 354.299 86.2267 353.713 85.64C353.126 85.0533 352.833 84.12 352.833 82.84V70.6C352.833 69.7467 352.673 69.1067 352.353 68.68C352.033 68.2 351.446 67.96 350.593 67.96H350.513V74.12C350.513 74.8133 350.406 75.4 350.193 75.88C350.033 76.36 349.766 76.76 349.393 77.08ZM418.83 86.52H406.43C405.15 86.52 404.217 86.2267 403.63 85.64C403.043 85.0533 402.75 84.12 402.75 82.84V31C402.75 30.3067 402.83 29.72 402.99 29.24C403.203 28.76 403.497 28.36 403.87 28.04L414.19 19.32C414.457 19.1067 414.803 18.9467 415.23 18.84C415.71 18.68 416.217 18.6 416.75 18.6H441.23C445.017 18.6 448.19 19 450.75 19.8C453.31 20.6 455.337 21.72 456.83 23.16C458.323 24.6 459.363 26.3333 459.95 28.36C460.59 30.3867 460.91 32.6 460.91 35V45.24C460.91 47.8 460.537 50.1467 459.79 52.28C459.097 54.36 457.87 56.1467 456.11 57.64L445.71 66.28C444.377 67.4 442.643 68.3333 440.51 69.08C438.43 69.7733 435.87 70.1733 432.83 70.28V74.12C432.83 74.8133 432.723 75.4 432.51 75.88C432.35 76.36 432.083 76.76 431.71 77.08L421.31 85.72C421.097 85.9333 420.75 86.12 420.27 86.28C419.843 86.44 419.363 86.52 418.83 86.52ZM429.15 77C430.163 77 430.883 76.7867 431.31 76.36C431.79 75.88 432.03 75.1333 432.03 74.12V60.84H441.23C448.483 60.84 453.443 59.4 456.11 56.52C458.777 53.64 460.11 49.88 460.11 45.24V35C460.11 30.36 458.777 26.6 456.11 23.72C453.443 20.84 448.483 19.4 441.23 19.4H416.75C415.737 19.4 414.99 19.64 414.51 20.12C414.083 20.5467 413.87 21.2667 413.87 22.28V74.12C413.87 75.1333 414.083 75.88 414.51 76.36C414.99 76.7867 415.737 77 416.75 77H429.15ZM440.11 54.04H423.63V69.8H422.83V26.6H440.11C442.617 26.6 444.643 26.8933 446.19 27.48C447.79 28.0133 449.017 28.76 449.87 29.72C450.723 30.68 451.31 31.8267 451.63 33.16C451.95 34.4933 452.11 35.9333 452.11 37.48V43.4C452.11 44.9467 451.95 46.3867 451.63 47.72C451.31 49 450.723 50.12 449.87 51.08C449.017 51.9867 447.79 52.7067 446.19 53.24C444.643 53.7733 442.617 54.04 440.11 54.04ZM423.63 53.24H440.11C442.457 53.24 444.35 53 445.79 52.52C447.283 52.04 448.43 51.3733 449.23 50.52C450.03 49.6133 450.563 48.5733 450.83 47.4C451.15 46.1733 451.31 44.84 451.31 43.4V37.48C451.31 36.04 451.15 34.7067 450.83 33.48C450.563 32.2533 450.03 31.1867 449.23 30.28C448.43 29.3733 447.283 28.68 445.79 28.2C444.35 27.6667 442.457 27.4 440.11 27.4H423.63V53.24ZM431.87 34.36H439.07C440.617 34.36 441.63 34.76 442.11 35.56C442.59 36.36 442.83 37.2667 442.83 38.28V42.52C442.83 43.5333 442.59 44.44 442.11 45.24C441.63 46.04 440.617 46.44 439.07 46.44H431.87V34.36ZM497.728 27.4H480.288V50.52H497.728C501.035 50.52 503.248 49.72 504.368 48.12C505.488 46.52 506.048 44.2533 506.048 41.32V35.72C506.048 33.2667 505.355 31.2667 503.968 29.72C502.635 28.1733 500.555 27.4 497.728 27.4ZM488.928 33.8H494.928C496.315 33.8 497.248 34.1733 497.728 34.92C498.208 35.6133 498.448 36.4933 498.448 37.56V40.28C498.448 41.3467 498.208 42.2533 497.728 43C497.248 43.6933 496.315 44.04 494.928 44.04H488.928V33.8ZM480.288 69.8H479.488V26.6H497.728C500.821 26.6 503.115 27.48 504.608 29.24C506.101 30.9467 506.848 33.1067 506.848 35.72V41.24C506.848 43.6933 506.528 45.72 505.888 47.32C505.248 48.8667 503.968 49.9333 502.048 50.52H502.928C506.181 50.52 508.608 51.2667 510.208 52.76C511.808 54.2 512.608 56.3067 512.608 59.08V69.8H511.808V59.08C511.808 56.4667 511.088 54.52 509.648 53.24C508.208 51.9067 505.968 51.24 502.928 51.24H480.288V69.8ZM486.048 77C487.061 77 487.781 76.7867 488.208 76.36C488.688 75.88 488.928 75.1333 488.928 74.12V58.44H500.128C501.248 58.44 502.021 58.7333 502.448 59.32C502.928 59.8533 503.168 60.7067 503.168 61.88V74.12C503.168 75.1333 503.381 75.88 503.808 76.36C504.288 76.7867 505.035 77 506.048 77H518.448C519.461 77 520.181 76.7867 520.608 76.36C521.088 75.88 521.328 75.1333 521.328 74.12V57.16C521.328 53.8 520.421 51.1067 518.608 49.08C516.848 47.0533 514.528 45.88 511.648 45.56C513.301 44.8667 514.448 43.7467 515.088 42.2C515.781 40.6 516.128 38.68 516.128 36.44V32.76C516.128 28.8133 514.981 25.6133 512.688 23.16C510.448 20.6533 506.341 19.4 500.368 19.4H473.728C472.715 19.4 471.968 19.64 471.488 20.12C471.061 20.5467 470.848 21.2667 470.848 22.28V74.12C470.848 75.1333 471.061 75.88 471.488 76.36C471.968 76.7867 472.715 77 473.728 77H486.048ZM488.608 77.08L478.208 85.72C477.995 85.9333 477.648 86.12 477.168 86.28C476.741 86.44 476.261 86.52 475.728 86.52H463.408C462.128 86.52 461.195 86.2267 460.608 85.64C460.021 85.0533 459.728 84.12 459.728 82.84V31C459.728 30.3067 459.808 29.72 459.968 29.24C460.181 28.76 460.475 28.36 460.848 28.04L471.168 19.32C471.435 19.1067 471.781 18.9467 472.208 18.84C472.688 18.68 473.195 18.6 473.728 18.6H500.368C506.715 18.6 511.061 19.9333 513.408 22.6C515.755 25.2133 516.928 28.6 516.928 32.76V36.44C516.928 38.4133 516.688 40.1467 516.208 41.64C515.728 43.08 514.955 44.2533 513.888 45.16H513.808C516.315 45.8533 518.315 47.24 519.808 49.32C521.355 51.4 522.128 54.0133 522.128 57.16V74.12C522.128 74.8133 522.021 75.4 521.808 75.88C521.648 76.36 521.381 76.76 521.008 77.08L510.608 85.72C510.395 85.9333 510.048 86.12 509.568 86.28C509.141 86.44 508.661 86.52 508.128 86.52H495.728C494.448 86.52 493.515 86.2267 492.928 85.64C492.341 85.0533 492.048 84.12 492.048 82.84V70.6C492.048 69.7467 491.888 69.1067 491.568 68.68C491.248 68.2 490.661 67.96 489.808 67.96H489.728V74.12C489.728 74.8133 489.621 75.4 489.408 75.88C489.248 76.36 488.981 76.76 488.608 77.08ZM566.759 82.68C564.893 84.28 562.279 85.5067 558.919 86.36C555.559 87.2667 551.239 87.72 545.959 87.72C540.733 87.72 536.439 87.16 533.079 86.04C529.773 84.9733 527.159 83.5333 525.239 81.72C523.373 79.9067 522.066 77.8267 521.319 75.48C520.626 73.1333 520.279 70.7067 520.279 68.2V43.32C520.279 40.8667 520.626 38.6 521.319 36.52C522.013 34.3867 523.266 32.5733 525.079 31.08L535.479 22.44C537.346 20.84 539.933 19.6133 543.239 18.76C546.599 17.8533 550.946 17.4 556.279 17.4C561.506 17.4 565.773 17.8267 569.079 18.68C572.439 19.5333 575.053 20.7333 576.919 22.28C578.839 23.7733 580.146 25.5867 580.839 27.72C581.533 29.8 581.879 32.0933 581.879 34.6V61.88C581.879 64.3333 581.533 66.6 580.839 68.68C580.146 70.76 578.893 72.5467 577.079 74.04L566.759 82.68ZM581.079 61.88V34.6C581.079 32.1467 580.706 29.9333 579.959 27.96C579.266 25.9333 577.986 24.2 576.119 22.76C574.306 21.32 571.773 20.2 568.519 19.4C565.319 18.6 561.239 18.2 556.279 18.2C551.319 18.2 547.213 18.6 543.959 19.4C540.706 20.2 538.146 21.32 536.279 22.76C534.466 24.2 533.186 25.9333 532.439 27.96C531.746 29.9333 531.399 32.1467 531.399 34.6V61.88C531.399 64.3333 531.746 66.5733 532.439 68.6C533.186 70.5733 534.466 72.28 536.279 73.72C538.146 75.1067 540.706 76.2 543.959 77C547.213 77.8 551.319 78.2 556.279 78.2C561.239 78.2 565.319 77.8 568.519 77C571.773 76.2 574.306 75.1067 576.119 73.72C577.986 72.28 579.266 70.5733 579.959 68.6C580.706 66.5733 581.079 64.3333 581.079 61.88ZM572.359 60.04C572.359 63.24 571.213 65.8533 568.919 67.88C566.626 69.8533 562.359 70.84 556.119 70.84C549.879 70.84 545.639 69.8533 543.399 67.88C541.159 65.8533 540.039 63.24 540.039 60.04V36.44C540.039 33.24 541.159 30.6533 543.399 28.68C545.639 26.6533 549.879 25.64 556.119 25.64C562.359 25.64 566.626 26.6533 568.919 28.68C571.213 30.6533 572.359 33.24 572.359 36.44V60.04ZM540.839 60.04C540.839 63.0267 541.906 65.4533 544.039 67.32C546.173 69.1333 550.199 70.04 556.119 70.04C562.039 70.04 566.093 69.1333 568.279 67.32C570.466 65.4533 571.559 63.0267 571.559 60.04V36.44C571.559 33.4533 570.466 31.0533 568.279 29.24C566.093 27.3733 562.039 26.44 556.119 26.44C550.199 26.44 546.173 27.3733 544.039 29.24C541.906 31.0533 540.839 33.4533 540.839 36.44V60.04ZM549.559 59V37.48C549.559 36.4667 549.959 35.6133 550.759 34.92C551.559 34.1733 553.399 33.8 556.279 33.8C559.159 33.8 560.999 34.1733 561.799 34.92C562.599 35.6133 562.999 36.4667 562.999 37.48V59C562.999 60.0667 562.599 60.9733 561.799 61.72C560.999 62.4133 559.159 62.76 556.279 62.76C553.399 62.76 551.559 62.4133 550.759 61.72C549.959 60.9733 549.559 60.0667 549.559 59ZM550.359 59C550.359 59.5333 550.466 60.0133 550.679 60.44C550.893 60.8133 551.293 61.1333 551.879 61.4V46.2C551.879 45.6667 551.773 45.2133 551.559 44.84C551.346 44.4133 550.946 44.0933 550.359 43.88V59ZM605.488 86.52C604.208 86.52 603.275 86.2267 602.688 85.64C602.101 85.0533 601.808 84.12 601.808 82.84V73.48C601.808 72.7867 601.888 72.2 602.048 71.72C602.261 71.24 602.555 70.84 602.928 70.52L609.968 64.6H606.288C605.008 64.6 604.075 64.3067 603.488 63.72C602.901 63.1333 602.608 62.2 602.608 60.92V31C602.608 30.3067 602.688 29.72 602.848 29.24C603.061 28.76 603.355 28.36 603.728 28.04L614.048 19.32C614.315 19.1067 614.661 18.9467 615.088 18.84C615.568 18.68 616.075 18.6 616.608 18.6H651.088C652.368 18.6 653.301 18.8933 653.888 19.48C654.475 20.0667 654.768 21 654.768 22.28V31.8C654.768 32.4933 654.661 33.08 654.448 33.56C654.288 34.04 654.021 34.44 653.648 34.76L647.888 39.64C650.928 40.3333 653.301 41.7733 655.008 43.96C656.768 46.1467 657.648 49.0267 657.648 52.6V63.72C657.648 65.8533 657.248 67.8267 656.448 69.64C655.701 71.4 654.581 72.8933 653.088 74.12L642.688 82.84C641.301 84.0133 639.595 84.92 637.568 85.56C635.595 86.2 633.381 86.52 630.928 86.52H605.488ZM641.248 77C646.048 77 649.835 75.8 652.608 73.4C655.435 71 656.848 67.7733 656.848 63.72V52.6C656.848 48.3867 655.595 45.2133 653.088 43.08C650.581 40.9467 647.168 39.88 642.848 39.88H631.888V34.68H651.088C652.101 34.68 652.821 34.4667 653.248 34.04C653.728 33.56 653.968 32.8133 653.968 31.8V22.28C653.968 21.2667 653.728 20.5467 653.248 20.12C652.821 19.64 652.101 19.4 651.088 19.4H616.608C615.595 19.4 614.848 19.64 614.368 20.12C613.941 20.5467 613.728 21.2667 613.728 22.28V52.2C613.728 53.2133 613.941 53.96 614.368 54.44C614.848 54.8667 615.595 55.08 616.608 55.08H636.448C637.088 55.08 637.595 55.24 637.968 55.56C638.395 55.8267 638.608 56.28 638.608 56.92V60.04C638.608 60.68 638.395 61.16 637.968 61.48C637.595 61.7467 637.088 61.88 636.448 61.88H615.808C614.795 61.88 614.048 62.12 613.568 62.6C613.141 63.0267 612.928 63.7467 612.928 64.76V74.12C612.928 75.1333 613.141 75.88 613.568 76.36C614.048 76.7867 614.795 77 615.808 77H641.248ZM620.128 69.8V69H639.008C641.995 69 644.128 68.44 645.408 67.32C646.688 66.2 647.328 64.4133 647.328 61.96V54.92C647.328 52.4133 646.661 50.6267 645.328 49.56C644.048 48.44 642.181 47.88 639.728 47.88H622.448V26.6H646.768V27.4H623.248V47.08H639.728C642.501 47.08 644.581 47.72 645.968 49C647.408 50.2267 648.128 52.2 648.128 54.92V61.96C648.128 64.68 647.435 66.68 646.048 67.96C644.661 69.1867 642.315 69.8 639.008 69.8H620.128ZM701.894 86.52H676.694C669.707 86.52 664.534 84.7067 661.174 81.08C657.867 77.4533 656.214 72.76 656.214 67V44.44C656.214 41.5067 656.64 38.9733 657.494 36.84C658.347 34.7067 659.6 32.92 661.254 31.48L671.574 22.76C673.227 21.3733 675.334 20.3333 677.894 19.64C680.507 18.9467 683.547 18.6 687.014 18.6H707.014C708.294 18.6 709.227 18.8933 709.814 19.48C710.4 20.0667 710.694 21 710.694 22.28V31.96C710.694 32.6533 710.587 33.24 710.374 33.72C710.214 34.2 709.947 34.6 709.574 34.92L699.174 43.56C698.96 43.7733 698.614 43.96 698.134 44.12C697.707 44.28 697.227 44.36 696.694 44.36H686.294V55.88C686.347 55.7733 686.427 55.6667 686.534 55.56C686.694 55.4 686.827 55.2667 686.934 55.16L697.254 46.44C697.52 46.2267 697.867 46.0667 698.294 45.96C698.774 45.8 699.28 45.72 699.814 45.72H712.214C713.494 45.72 714.427 46.0133 715.014 46.6C715.6 47.1867 715.894 48.12 715.894 49.4V74.12C715.894 74.8133 715.787 75.4 715.574 75.88C715.414 76.36 715.147 76.76 714.774 77.08L704.374 85.72C704.16 85.9333 703.814 86.12 703.334 86.28C702.907 86.44 702.427 86.52 701.894 86.52ZM712.214 77C713.227 77 713.947 76.7867 714.374 76.36C714.854 75.88 715.094 75.1333 715.094 74.12V49.4C715.094 48.3867 714.854 47.6667 714.374 47.24C713.947 46.76 713.227 46.52 712.214 46.52H699.814C698.8 46.52 698.054 46.76 697.574 47.24C697.147 47.6667 696.934 48.3867 696.934 49.4V61.88H689.174C687.947 61.88 687.014 61.56 686.374 60.92C685.787 60.28 685.494 59.2933 685.494 57.96V38.84C685.494 37.5067 685.894 36.52 686.694 35.88C687.494 35.1867 688.72 34.84 690.374 34.84H707.014C708.027 34.84 708.747 34.6267 709.174 34.2C709.654 33.72 709.894 32.9733 709.894 31.96V22.28C709.894 21.2667 709.654 20.5467 709.174 20.12C708.747 19.64 708.027 19.4 707.014 19.4H687.014C680.347 19.4 675.387 20.7333 672.134 23.4C668.934 26.0667 667.334 30.1733 667.334 35.72V60.68C667.334 66.2267 668.934 70.3333 672.134 73C675.387 75.6667 680.347 77 687.014 77H712.214ZM690.454 69.8C687.52 69.8 685.12 69.6133 683.254 69.24C681.387 68.8667 679.92 68.28 678.854 67.48C677.787 66.6267 677.04 65.56 676.614 64.28C676.24 62.9467 676.054 61.3467 676.054 59.48V37.08C676.054 33.2933 676.907 30.6 678.614 29C680.32 27.4 683.734 26.6 688.854 26.6H702.694V27.4H688.854C684.16 27.4 680.987 28.1467 679.334 29.64C677.68 31.08 676.854 33.56 676.854 37.08V59.48C676.854 62.9467 677.76 65.4 679.574 66.84C681.44 68.28 685.067 69 690.454 69H705.574V53.72H706.374V69.8H690.454Z" fill="#1584B2"/>
<path d="M136.84 77H117.32C110.653 77 105.693 75.6667 102.44 73C99.24 70.3333 97.64 66.2267 97.64 60.68V35.8C97.64 30.2533 99.24 26.1467 102.44 23.48C105.693 20.76 110.653 19.4 117.32 19.4H136.84C137.853 19.4 138.573 19.64 139 20.12C139.48 20.5467 139.72 21.2667 139.72 22.28V31.96C139.72 32.9733 139.48 33.72 139 34.2C138.573 34.6267 137.853 34.84 136.84 34.84H120.76C119.107 34.84 117.88 35.1867 117.08 35.88C116.28 36.52 115.88 37.5067 115.88 38.84V57.88C115.88 59.2133 116.28 60.2 117.08 60.84C117.88 61.4267 119.107 61.72 120.76 61.72H136.84C137.853 61.72 138.573 61.96 139 62.44C139.48 62.8667 139.72 63.5867 139.72 64.6V74.12C139.72 75.1333 139.48 75.88 139 76.36C138.573 76.7867 137.853 77 136.84 77ZM132.44 69H119.08C114.28 69 111.08 68.28 109.48 66.84C107.88 65.4 107.08 62.9467 107.08 59.48V37.08C107.08 33.56 107.907 31.08 109.56 29.64C111.213 28.1467 114.387 27.4 119.08 27.4H132.44V26.6H119.08C113.96 26.6 110.547 27.4 108.84 29C107.133 30.6 106.28 33.2933 106.28 37.08V59.48C106.28 63.16 107.107 65.8 108.76 67.4C110.467 69 113.907 69.8 119.08 69.8H132.44V69ZM199.564 61.88C199.564 64.3333 199.19 66.5733 198.444 68.6C197.75 70.5733 196.47 72.28 194.604 73.72C192.79 75.1067 190.257 76.2 187.004 77C183.804 77.8 179.724 78.2 174.764 78.2C169.804 78.2 165.697 77.8 162.444 77C159.19 76.2 156.63 75.1067 154.764 73.72C152.95 72.28 151.67 70.5733 150.924 68.6C150.23 66.5733 149.884 64.3333 149.884 61.88V34.6C149.884 32.1467 150.23 29.9333 150.924 27.96C151.67 25.9333 152.95 24.2 154.764 22.76C156.63 21.32 159.19 20.2 162.444 19.4C165.697 18.6 169.804 18.2 174.764 18.2C179.724 18.2 183.804 18.6 187.004 19.4C190.257 20.2 192.79 21.32 194.604 22.76C196.47 24.2 197.75 25.9333 198.444 27.96C199.19 29.9333 199.564 32.1467 199.564 34.6V61.88ZM190.844 60.04V36.44C190.844 33.24 189.697 30.6533 187.404 28.68C185.11 26.6533 180.844 25.64 174.604 25.64C168.364 25.64 164.124 26.6533 161.884 28.68C159.644 30.6533 158.524 33.24 158.524 36.44V60.04C158.524 63.24 159.644 65.8533 161.884 67.88C164.124 69.8533 168.364 70.84 174.604 70.84C180.844 70.84 185.11 69.8533 187.404 67.88C189.697 65.8533 190.844 63.24 190.844 60.04ZM159.324 60.04V36.44C159.324 33.4533 160.39 31.0533 162.524 29.24C164.657 27.3733 168.684 26.44 174.604 26.44C180.524 26.44 184.577 27.3733 186.764 29.24C188.95 31.0533 190.044 33.4533 190.044 36.44V60.04C190.044 63.0267 188.95 65.4533 186.764 67.32C184.577 69.1333 180.524 70.04 174.604 70.04C168.684 70.04 164.657 69.1333 162.524 67.32C160.39 65.4533 159.324 63.0267 159.324 60.04ZM168.044 59C168.044 60.0667 168.444 60.9733 169.244 61.72C170.044 62.4133 171.884 62.76 174.764 62.76C177.644 62.76 179.484 62.4133 180.284 61.72C181.084 60.9733 181.484 60.0667 181.484 59V37.48C181.484 36.4667 181.084 35.6133 180.284 34.92C179.484 34.1733 177.644 33.8 174.764 33.8C171.884 33.8 170.044 34.1733 169.244 34.92C168.444 35.6133 168.044 36.4667 168.044 37.48V59ZM255.748 77H215.028C214.015 77 213.268 76.7867 212.788 76.36C212.361 75.88 212.148 75.1333 212.148 74.12V22.28C212.148 21.2667 212.361 20.5467 212.788 20.12C213.268 19.64 214.015 19.4 215.028 19.4H227.428C228.441 19.4 229.161 19.64 229.588 20.12C230.068 20.5467 230.308 21.2667 230.308 22.28V61.88H241.268V48.92C241.268 47.9067 241.481 47.1867 241.908 46.76C242.388 46.28 243.135 46.04 244.148 46.04H255.748C256.761 46.04 257.481 46.28 257.908 46.76C258.388 47.1867 258.628 47.9067 258.628 48.92V74.12C258.628 75.1333 258.388 75.88 257.908 76.36C257.481 76.7867 256.761 77 255.748 77ZM220.868 69.8H250.308V53.24H249.508V69H221.668V26.6H220.868V69.8ZM318.973 61.88C318.973 64.3333 318.6 66.5733 317.853 68.6C317.16 70.5733 315.88 72.28 314.013 73.72C312.2 75.1067 309.666 76.2 306.413 77C303.213 77.8 299.133 78.2 294.173 78.2C289.213 78.2 285.106 77.8 281.853 77C278.6 76.2 276.04 75.1067 274.173 73.72C272.36 72.28 271.08 70.5733 270.333 68.6C269.64 66.5733 269.293 64.3333 269.293 61.88V34.6C269.293 32.1467 269.64 29.9333 270.333 27.96C271.08 25.9333 272.36 24.2 274.173 22.76C276.04 21.32 278.6 20.2 281.853 19.4C285.106 18.6 289.213 18.2 294.173 18.2C299.133 18.2 303.213 18.6 306.413 19.4C309.666 20.2 312.2 21.32 314.013 22.76C315.88 24.2 317.16 25.9333 317.853 27.96C318.6 29.9333 318.973 32.1467 318.973 34.6V61.88ZM310.253 60.04V36.44C310.253 33.24 309.106 30.6533 306.813 28.68C304.52 26.6533 300.253 25.64 294.013 25.64C287.773 25.64 283.533 26.6533 281.293 28.68C279.053 30.6533 277.933 33.24 277.933 36.44V60.04C277.933 63.24 279.053 65.8533 281.293 67.88C283.533 69.8533 287.773 70.84 294.013 70.84C300.253 70.84 304.52 69.8533 306.813 67.88C309.106 65.8533 310.253 63.24 310.253 60.04ZM278.733 60.04V36.44C278.733 33.4533 279.8 31.0533 281.933 29.24C284.066 27.3733 288.093 26.44 294.013 26.44C299.933 26.44 303.986 27.3733 306.173 29.24C308.36 31.0533 309.453 33.4533 309.453 36.44V60.04C309.453 63.0267 308.36 65.4533 306.173 67.32C303.986 69.1333 299.933 70.04 294.013 70.04C288.093 70.04 284.066 69.1333 281.933 67.32C279.8 65.4533 278.733 63.0267 278.733 60.04ZM287.453 59C287.453 60.0667 287.853 60.9733 288.653 61.72C289.453 62.4133 291.293 62.76 294.173 62.76C297.053 62.76 298.893 62.4133 299.693 61.72C300.493 60.9733 300.893 60.0667 300.893 59V37.48C300.893 36.4667 300.493 35.6133 299.693 34.92C298.893 34.1733 297.053 33.8 294.173 33.8C291.293 33.8 289.453 34.1733 288.653 34.92C287.853 35.6133 287.453 36.4667 287.453 37.48V59ZM358.438 27.4C361.264 27.4 363.344 28.1733 364.678 29.72C366.064 31.2667 366.758 33.2667 366.758 35.72V41.32C366.758 44.2533 366.198 46.52 365.078 48.12C363.958 49.72 361.744 50.52 358.438 50.52H340.998V27.4H358.438ZM349.638 33.8V44.04H355.638C357.024 44.04 357.958 43.6933 358.438 43C358.918 42.2533 359.158 41.3467 359.158 40.28V37.56C359.158 36.4933 358.918 35.6133 358.438 34.92C357.958 34.1733 357.024 33.8 355.638 33.8H349.638ZM340.998 69.8V51.24H363.638C366.678 51.24 368.918 51.9067 370.358 53.24C371.798 54.52 372.518 56.4667 372.518 59.08V69.8H373.318V59.08C373.318 56.3067 372.518 54.2 370.918 52.76C369.318 51.2667 366.891 50.52 363.638 50.52H362.758C364.678 49.9333 365.958 48.8667 366.598 47.32C367.238 45.72 367.558 43.6933 367.558 41.24V35.72C367.558 33.1067 366.811 30.9467 365.318 29.24C363.824 27.48 361.531 26.6 358.438 26.6H340.198V69.8H340.998ZM346.758 77H334.438C333.424 77 332.678 76.7867 332.198 76.36C331.771 75.88 331.558 75.1333 331.558 74.12V22.28C331.558 21.2667 331.771 20.5467 332.198 20.12C332.678 19.64 333.424 19.4 334.438 19.4H361.078C367.051 19.4 371.158 20.6533 373.398 23.16C375.691 25.6133 376.838 28.8133 376.838 32.76V36.44C376.838 38.68 376.491 40.6 375.798 42.2C375.158 43.7467 374.011 44.8667 372.358 45.56C375.238 45.88 377.558 47.0533 379.318 49.08C381.131 51.1067 382.038 53.8 382.038 57.16V74.12C382.038 75.1333 381.798 75.88 381.318 76.36C380.891 76.7867 380.171 77 379.158 77H366.758C365.744 77 364.998 76.7867 364.518 76.36C364.091 75.88 363.878 75.1333 363.878 74.12V61.88C363.878 60.7067 363.638 59.8533 363.158 59.32C362.731 58.7333 361.958 58.44 360.838 58.44H349.638V74.12C349.638 75.1333 349.398 75.88 348.918 76.36C348.491 76.7867 347.771 77 346.758 77ZM429.059 77H416.659C415.646 77 414.899 76.7867 414.419 76.36C413.993 75.88 413.779 75.1333 413.779 74.12V22.28C413.779 21.2667 413.993 20.5467 414.419 20.12C414.899 19.64 415.646 19.4 416.659 19.4H441.139C448.393 19.4 453.353 20.84 456.019 23.72C458.686 26.6 460.019 30.36 460.019 35V45.24C460.019 49.88 458.686 53.64 456.019 56.52C453.353 59.4 448.393 60.84 441.139 60.84H431.939V74.12C431.939 75.1333 431.699 75.88 431.219 76.36C430.793 76.7867 430.073 77 429.059 77ZM440.019 54.04C442.526 54.04 444.553 53.7733 446.099 53.24C447.699 52.7067 448.926 51.9867 449.779 51.08C450.633 50.12 451.219 49 451.539 47.72C451.859 46.3867 452.019 44.9467 452.019 43.4V37.48C452.019 35.9333 451.859 34.4933 451.539 33.16C451.219 31.8267 450.633 30.68 449.779 29.72C448.926 28.76 447.699 28.0133 446.099 27.48C444.553 26.8933 442.526 26.6 440.019 26.6H422.739V69.8H423.539V54.04H440.019ZM423.539 53.24V27.4H440.019C442.366 27.4 444.259 27.6667 445.699 28.2C447.193 28.68 448.339 29.3733 449.139 30.28C449.939 31.1867 450.473 32.2533 450.739 33.48C451.059 34.7067 451.219 36.04 451.219 37.48V43.4C451.219 44.84 451.059 46.1733 450.739 47.4C450.473 48.5733 449.939 49.6133 449.139 50.52C448.339 51.3733 447.193 52.04 445.699 52.52C444.259 53 442.366 53.24 440.019 53.24H423.539ZM431.779 34.36V46.44H438.979C440.526 46.44 441.539 46.04 442.019 45.24C442.499 44.44 442.739 43.5333 442.739 42.52V38.28C442.739 37.2667 442.499 36.36 442.019 35.56C441.539 34.76 440.526 34.36 438.979 34.36H431.779ZM497.591 27.4C500.417 27.4 502.497 28.1733 503.831 29.72C505.217 31.2667 505.911 33.2667 505.911 35.72V41.32C505.911 44.2533 505.351 46.52 504.231 48.12C503.111 49.72 500.897 50.52 497.591 50.52H480.151V27.4H497.591ZM488.791 33.8V44.04H494.791C496.177 44.04 497.111 43.6933 497.591 43C498.071 42.2533 498.311 41.3467 498.311 40.28V37.56C498.311 36.4933 498.071 35.6133 497.591 34.92C497.111 34.1733 496.177 33.8 494.791 33.8H488.791ZM480.151 69.8V51.24H502.791C505.831 51.24 508.071 51.9067 509.511 53.24C510.951 54.52 511.671 56.4667 511.671 59.08V69.8H512.471V59.08C512.471 56.3067 511.671 54.2 510.071 52.76C508.471 51.2667 506.044 50.52 502.791 50.52H501.911C503.831 49.9333 505.111 48.8667 505.751 47.32C506.391 45.72 506.711 43.6933 506.711 41.24V35.72C506.711 33.1067 505.964 30.9467 504.471 29.24C502.977 27.48 500.684 26.6 497.591 26.6H479.351V69.8H480.151ZM485.911 77H473.591C472.577 77 471.831 76.7867 471.351 76.36C470.924 75.88 470.711 75.1333 470.711 74.12V22.28C470.711 21.2667 470.924 20.5467 471.351 20.12C471.831 19.64 472.577 19.4 473.591 19.4H500.231C506.204 19.4 510.311 20.6533 512.551 23.16C514.844 25.6133 515.991 28.8133 515.991 32.76V36.44C515.991 38.68 515.644 40.6 514.951 42.2C514.311 43.7467 513.164 44.8667 511.511 45.56C514.391 45.88 516.711 47.0533 518.471 49.08C520.284 51.1067 521.191 53.8 521.191 57.16V74.12C521.191 75.1333 520.951 75.88 520.471 76.36C520.044 76.7867 519.324 77 518.311 77H505.911C504.897 77 504.151 76.7867 503.671 76.36C503.244 75.88 503.031 75.1333 503.031 74.12V61.88C503.031 60.7067 502.791 59.8533 502.311 59.32C501.884 58.7333 501.111 58.44 499.991 58.44H488.791V74.12C488.791 75.1333 488.551 75.88 488.071 76.36C487.644 76.7867 486.924 77 485.911 77ZM580.973 61.88C580.973 64.3333 580.6 66.5733 579.853 68.6C579.16 70.5733 577.88 72.28 576.013 73.72C574.2 75.1067 571.666 76.2 568.413 77C565.213 77.8 561.133 78.2 556.173 78.2C551.213 78.2 547.106 77.8 543.853 77C540.6 76.2 538.04 75.1067 536.173 73.72C534.36 72.28 533.08 70.5733 532.333 68.6C531.64 66.5733 531.293 64.3333 531.293 61.88V34.6C531.293 32.1467 531.64 29.9333 532.333 27.96C533.08 25.9333 534.36 24.2 536.173 22.76C538.04 21.32 540.6 20.2 543.853 19.4C547.106 18.6 551.213 18.2 556.173 18.2C561.133 18.2 565.213 18.6 568.413 19.4C571.666 20.2 574.2 21.32 576.013 22.76C577.88 24.2 579.16 25.9333 579.853 27.96C580.6 29.9333 580.973 32.1467 580.973 34.6V61.88ZM572.253 60.04V36.44C572.253 33.24 571.106 30.6533 568.813 28.68C566.52 26.6533 562.253 25.64 556.013 25.64C549.773 25.64 545.533 26.6533 543.293 28.68C541.053 30.6533 539.933 33.24 539.933 36.44V60.04C539.933 63.24 541.053 65.8533 543.293 67.88C545.533 69.8533 549.773 70.84 556.013 70.84C562.253 70.84 566.52 69.8533 568.813 67.88C571.106 65.8533 572.253 63.24 572.253 60.04ZM540.733 60.04V36.44C540.733 33.4533 541.8 31.0533 543.933 29.24C546.066 27.3733 550.093 26.44 556.013 26.44C561.933 26.44 565.986 27.3733 568.173 29.24C570.36 31.0533 571.453 33.4533 571.453 36.44V60.04C571.453 63.0267 570.36 65.4533 568.173 67.32C565.986 69.1333 561.933 70.04 556.013 70.04C550.093 70.04 546.066 69.1333 543.933 67.32C541.8 65.4533 540.733 63.0267 540.733 60.04ZM549.453 59C549.453 60.0667 549.853 60.9733 550.653 61.72C551.453 62.4133 553.293 62.76 556.173 62.76C559.053 62.76 560.893 62.4133 561.693 61.72C562.493 60.9733 562.893 60.0667 562.893 59V37.48C562.893 36.4667 562.493 35.6133 561.693 34.92C560.893 34.1733 559.053 33.8 556.173 33.8C553.293 33.8 551.453 34.1733 550.653 34.92C549.853 35.6133 549.453 36.4667 549.453 37.48V59ZM641.126 77H615.686C614.673 77 613.926 76.7867 613.446 76.36C613.02 75.88 612.806 75.1333 612.806 74.12V64.76C612.806 63.7467 613.02 63.0267 613.446 62.6C613.926 62.12 614.673 61.88 615.686 61.88H636.326C636.966 61.88 637.473 61.7467 637.846 61.48C638.273 61.16 638.486 60.68 638.486 60.04V56.92C638.486 56.28 638.273 55.8267 637.846 55.56C637.473 55.24 636.966 55.08 636.326 55.08H616.486C615.473 55.08 614.726 54.8667 614.246 54.44C613.82 53.96 613.606 53.2133 613.606 52.2V22.28C613.606 21.2667 613.82 20.5467 614.246 20.12C614.726 19.64 615.473 19.4 616.486 19.4H650.966C651.98 19.4 652.7 19.64 653.126 20.12C653.606 20.5467 653.846 21.2667 653.846 22.28V31.8C653.846 32.8133 653.606 33.56 653.126 34.04C652.7 34.4667 651.98 34.68 650.966 34.68H631.766V39.88H642.726C647.046 39.88 650.46 40.9467 652.966 43.08C655.473 45.2133 656.726 48.3867 656.726 52.6V63.72C656.726 67.7733 655.313 71 652.486 73.4C649.713 75.8 645.926 77 641.126 77ZM620.006 69.8H638.886C642.193 69.8 644.54 69.1867 645.926 67.96C647.313 66.68 648.006 64.68 648.006 61.96V54.92C648.006 52.2 647.286 50.2267 645.846 49C644.46 47.72 642.38 47.08 639.606 47.08H623.126V27.4H646.646V26.6H622.326V47.88H639.606C642.06 47.88 643.926 48.44 645.206 49.56C646.54 50.6267 647.206 52.4133 647.206 54.92V61.96C647.206 64.4133 646.566 66.2 645.286 67.32C644.006 68.44 641.873 69 638.886 69H620.006V69.8ZM712.123 77H686.923C680.256 77 675.296 75.6667 672.043 73C668.843 70.3333 667.243 66.2267 667.243 60.68V35.72C667.243 30.1733 668.843 26.0667 672.043 23.4C675.296 20.7333 680.256 19.4 686.923 19.4H706.923C707.936 19.4 708.656 19.64 709.083 20.12C709.563 20.5467 709.803 21.2667 709.803 22.28V31.96C709.803 32.9733 709.563 33.72 709.083 34.2C708.656 34.6267 707.936 34.84 706.923 34.84H690.283C688.63 34.84 687.403 35.1867 686.603 35.88C685.803 36.52 685.403 37.5067 685.403 38.84V57.96C685.403 59.2933 685.696 60.28 686.283 60.92C686.923 61.56 687.856 61.88 689.083 61.88H696.843V49.4C696.843 48.3867 697.056 47.6667 697.483 47.24C697.963 46.76 698.71 46.52 699.723 46.52H712.123C713.136 46.52 713.856 46.76 714.283 47.24C714.763 47.6667 715.003 48.3867 715.003 49.4V74.12C715.003 75.1333 714.763 75.88 714.283 76.36C713.856 76.7867 713.136 77 712.123 77ZM690.363 69.8H706.283V53.72H705.483V69H690.363C684.976 69 681.35 68.28 679.483 66.84C677.67 65.4 676.763 62.9467 676.763 59.48V37.08C676.763 33.56 677.59 31.08 679.243 29.64C680.896 28.1467 684.07 27.4 688.763 27.4H702.603V26.6H688.763C683.643 26.6 680.23 27.4 678.523 29C676.816 30.6 675.963 33.2933 675.963 37.08V59.48C675.963 61.3467 676.15 62.9467 676.523 64.28C676.95 65.56 677.696 66.6267 678.763 67.48C679.83 68.28 681.296 68.8667 683.163 69.24C685.03 69.6133 687.43 69.8 690.363 69.8Z" fill="#CFF1FF"/>
<g style="mix-blend-mode:hue">
<rect x="-48" width="768" height="661" fill="#9736DF"/>
</g>
</g>
<defs>
<linearGradient id="paint0_linear_324_4722" x1="35.6753" y1="376" x2="375.422" y2="-250.32" gradientUnits="userSpaceOnUse">
<stop stop-color="#1584B2" stop-opacity="0"/>
<stop offset="1" stop-color="#0B3546" stop-opacity="0.6"/>
</linearGradient>
<linearGradient id="paint1_linear_324_4722" x1="25.7153" y1="376" x2="401.054" y2="-182.264" gradientUnits="userSpaceOnUse">
<stop stop-color="#1584B2" stop-opacity="0"/>
<stop offset="1" stop-color="#0B3546" stop-opacity="0.6"/>
</linearGradient>
<linearGradient id="paint2_linear_324_4722" x1="-32.5" y1="381" x2="370.5" y2="-67.4999" gradientUnits="userSpaceOnUse">
<stop stop-color="#1584B2" stop-opacity="0"/>
<stop offset="1" stop-color="#0B3546" stop-opacity="0.6"/>
</linearGradient>
<clipPath id="clip0_324_4722">
<rect width="720" height="570" fill="white"/>
</clipPath>
</defs>
</svg>
