<svg width="707" height="578" viewBox="0 0 707 578" fill="none" xmlns="http://www.w3.org/2000/svg">
<path d="M-3 105.5L84.5 28L88 72L153.5 68.5L181.5 54.5L191.5 49.5L200.5 77.5L250 68.5L280 82L310 60.5L317 77.5H335V60.5H342L365.5 49.5L391.5 28L405 53L421.5 63.5L447 49.5L451.5 75.5L476.5 63.5H486L507 73.5H527L557 59L592 28L629.5 70L650 59L655 78.5L701 77.5L74 656H-3V105.5Z" fill="url(#paint0_linear_13642_62448)"/>
<path d="M-3 105.5L84.5 28L88 72L153.5 68.5L181.5 54.5L191.5 49.5L200.5 77.5L250 68.5L280 82L310 60.5L317 77.5H335V60.5H342L365.5 49.5L391.5 28L405 53L421.5 63.5L447 49.5L451.5 75.5L476.5 63.5H486L507 73.5H527L557 59L560 77.5L-3 595.401L-8 600L-3 105.5Z" fill="url(#paint1_linear_13642_62448)"/>
<path d="M-8 110.5L79.5 33L83 77L148.5 73.5L176.5 59.5L186.5 54.5L195.5 82.5L245 73.5L275 87L305 65.5L312 82.5H330V65.5H337L360.5 54.5L364 81.5L-14 428.5L-16.5 115.5L-8 110.5Z" fill="url(#paint2_linear_13642_62448)"/>
<path d="M113.72 86.52H94.2C87.2133 86.52 82.04 84.7067 78.68 81.08C75.3733 77.4533 73.72 72.76 73.72 67V44.52C73.72 41.5867 74.1467 39.0533 75 36.92C75.8533 34.7333 77.1067 32.92 78.76 31.48L89.16 22.76C90.8133 21.3733 92.92 20.3333 95.48 19.64C98.04 18.9467 101.053 18.6 104.52 18.6H124.04C125.32 18.6 126.253 18.8933 126.84 19.48C127.427 20.0667 127.72 21 127.72 22.28V31.96C127.72 32.6533 127.613 33.24 127.4 33.72C127.24 34.2 126.973 34.6 126.6 34.92L116.2 43.56C115.987 43.7733 115.64 43.96 115.16 44.12C114.733 44.28 114.253 44.36 113.72 44.36H103.88V57.88C103.88 59 104.227 59.8 104.92 60.28C105.613 60.7067 106.627 60.92 107.96 60.92H124.04C125.32 60.92 126.253 61.2133 126.84 61.8C127.427 62.3867 127.72 63.32 127.72 64.6V74.12C127.72 74.8133 127.613 75.4 127.4 75.88C127.24 76.36 126.973 76.76 126.6 77.08L116.2 85.72C115.987 85.9333 115.64 86.12 115.16 86.28C114.733 86.44 114.253 86.52 113.72 86.52ZM124.04 77C125.053 77 125.773 76.7867 126.2 76.36C126.68 75.88 126.92 75.1333 126.92 74.12V64.6C126.92 63.5867 126.68 62.8667 126.2 62.44C125.773 61.96 125.053 61.72 124.04 61.72H107.96C106.307 61.72 105.08 61.4267 104.28 60.84C103.48 60.2 103.08 59.2133 103.08 57.88V38.84C103.08 37.5067 103.48 36.52 104.28 35.88C105.08 35.1867 106.307 34.84 107.96 34.84H124.04C125.053 34.84 125.773 34.6267 126.2 34.2C126.68 33.72 126.92 32.9733 126.92 31.96V22.28C126.92 21.2667 126.68 20.5467 126.2 20.12C125.773 19.64 125.053 19.4 124.04 19.4H104.52C97.8533 19.4 92.8933 20.76 89.64 23.48C86.44 26.1467 84.84 30.2533 84.84 35.8V60.68C84.84 66.2267 86.44 70.3333 89.64 73C92.8933 75.6667 97.8533 77 104.52 77H124.04ZM119.64 69V69.8H106.28C101.107 69.8 97.6667 69 95.96 67.4C94.3067 65.8 93.48 63.16 93.48 59.48V37.08C93.48 33.2933 94.3333 30.6 96.04 29C97.7467 27.4 101.16 26.6 106.28 26.6H119.64V27.4H106.28C101.587 27.4 98.4133 28.1467 96.76 29.64C95.1067 31.08 94.28 33.56 94.28 37.08V59.48C94.28 62.9467 95.08 65.4 96.68 66.84C98.28 68.28 101.48 69 106.28 69H119.64ZM172.413 82.68C170.546 84.28 167.933 85.5067 164.573 86.36C161.213 87.2667 156.893 87.72 151.613 87.72C146.386 87.72 142.093 87.16 138.733 86.04C135.426 84.9733 132.813 83.5333 130.893 81.72C129.026 79.9067 127.719 77.8267 126.973 75.48C126.279 73.1333 125.933 70.7067 125.933 68.2V43.32C125.933 40.8667 126.279 38.6 126.973 36.52C127.666 34.3867 128.919 32.5733 130.733 31.08L141.133 22.44C142.999 20.84 145.586 19.6133 148.893 18.76C152.253 17.8533 156.599 17.4 161.933 17.4C167.159 17.4 171.426 17.8267 174.733 18.68C178.093 19.5333 180.706 20.7333 182.573 22.28C184.493 23.7733 185.799 25.5867 186.493 27.72C187.186 29.8 187.533 32.0933 187.533 34.6V61.88C187.533 64.3333 187.186 66.6 186.493 68.68C185.799 70.76 184.546 72.5467 182.733 74.04L172.413 82.68ZM186.733 61.88V34.6C186.733 32.1467 186.359 29.9333 185.613 27.96C184.919 25.9333 183.639 24.2 181.773 22.76C179.959 21.32 177.426 20.2 174.173 19.4C170.973 18.6 166.893 18.2 161.933 18.2C156.973 18.2 152.866 18.6 149.613 19.4C146.359 20.2 143.799 21.32 141.933 22.76C140.119 24.2 138.839 25.9333 138.093 27.96C137.399 29.9333 137.053 32.1467 137.053 34.6V61.88C137.053 64.3333 137.399 66.5733 138.093 68.6C138.839 70.5733 140.119 72.28 141.933 73.72C143.799 75.1067 146.359 76.2 149.613 77C152.866 77.8 156.973 78.2 161.933 78.2C166.893 78.2 170.973 77.8 174.173 77C177.426 76.2 179.959 75.1067 181.773 73.72C183.639 72.28 184.919 70.5733 185.613 68.6C186.359 66.5733 186.733 64.3333 186.733 61.88ZM178.013 60.04C178.013 63.24 176.866 65.8533 174.573 67.88C172.279 69.8533 168.013 70.84 161.773 70.84C155.533 70.84 151.293 69.8533 149.053 67.88C146.813 65.8533 145.693 63.24 145.693 60.04V36.44C145.693 33.24 146.813 30.6533 149.053 28.68C151.293 26.6533 155.533 25.64 161.773 25.64C168.013 25.64 172.279 26.6533 174.573 28.68C176.866 30.6533 178.013 33.24 178.013 36.44V60.04ZM146.493 60.04C146.493 63.0267 147.559 65.4533 149.693 67.32C151.826 69.1333 155.853 70.04 161.773 70.04C167.693 70.04 171.746 69.1333 173.933 67.32C176.119 65.4533 177.213 63.0267 177.213 60.04V36.44C177.213 33.4533 176.119 31.0533 173.933 29.24C171.746 27.3733 167.693 26.44 161.773 26.44C155.853 26.44 151.826 27.3733 149.693 29.24C147.559 31.0533 146.493 33.4533 146.493 36.44V60.04ZM155.213 59V37.48C155.213 36.4667 155.613 35.6133 156.413 34.92C157.213 34.1733 159.053 33.8 161.933 33.8C164.813 33.8 166.653 34.1733 167.453 34.92C168.253 35.6133 168.653 36.4667 168.653 37.48V59C168.653 60.0667 168.253 60.9733 167.453 61.72C166.653 62.4133 164.813 62.76 161.933 62.76C159.053 62.76 157.213 62.4133 156.413 61.72C155.613 60.9733 155.213 60.0667 155.213 59ZM156.013 59C156.013 59.5333 156.119 60.0133 156.333 60.44C156.546 60.8133 156.946 61.1333 157.533 61.4V46.2C157.533 45.6667 157.426 45.2133 157.213 44.84C156.999 44.4133 156.599 44.0933 156.013 43.88V59ZM232.566 86.52H191.846C190.566 86.52 189.632 86.2267 189.046 85.64C188.459 85.0533 188.166 84.12 188.166 82.84V31C188.166 30.3067 188.246 29.72 188.406 29.24C188.619 28.76 188.912 28.36 189.286 28.04L199.606 19.32C199.872 19.1067 200.219 18.9467 200.646 18.84C201.126 18.68 201.632 18.6 202.166 18.6H214.566C215.846 18.6 216.779 18.8933 217.366 19.48C217.952 20.0667 218.246 21 218.246 22.28V54.84L218.406 54.68L228.726 45.96C228.992 45.7467 229.339 45.5867 229.766 45.48C230.246 45.32 230.752 45.24 231.286 45.24H242.886C244.166 45.24 245.099 45.5333 245.686 46.12C246.272 46.7067 246.566 47.64 246.566 48.92V74.12C246.566 74.8133 246.459 75.4 246.246 75.88C246.086 76.36 245.819 76.76 245.446 77.08L235.046 85.72C234.832 85.9333 234.486 86.12 234.006 86.28C233.579 86.44 233.099 86.52 232.566 86.52ZM242.886 77C243.899 77 244.619 76.7867 245.046 76.36C245.526 75.88 245.766 75.1333 245.766 74.12V48.92C245.766 47.9067 245.526 47.1867 245.046 46.76C244.619 46.28 243.899 46.04 242.886 46.04H231.286C230.272 46.04 229.526 46.28 229.046 46.76C228.619 47.1867 228.406 47.9067 228.406 48.92V61.88H217.446V22.28C217.446 21.2667 217.206 20.5467 216.726 20.12C216.299 19.64 215.579 19.4 214.566 19.4H202.166C201.152 19.4 200.406 19.64 199.926 20.12C199.499 20.5467 199.286 21.2667 199.286 22.28V74.12C199.286 75.1333 199.499 75.88 199.926 76.36C200.406 76.7867 201.152 77 202.166 77H242.886ZM208.006 69.8V26.6H208.806V69H236.646V53.24H237.446V69.8H208.006ZM291.759 82.68C289.893 84.28 287.279 85.5067 283.919 86.36C280.559 87.2667 276.239 87.72 270.959 87.72C265.733 87.72 261.439 87.16 258.079 86.04C254.773 84.9733 252.159 83.5333 250.239 81.72C248.373 79.9067 247.066 77.8267 246.319 75.48C245.626 73.1333 245.279 70.7067 245.279 68.2V43.32C245.279 40.8667 245.626 38.6 246.319 36.52C247.013 34.3867 248.266 32.5733 250.079 31.08L260.479 22.44C262.346 20.84 264.933 19.6133 268.239 18.76C271.599 17.8533 275.946 17.4 281.279 17.4C286.506 17.4 290.773 17.8267 294.079 18.68C297.439 19.5333 300.053 20.7333 301.919 22.28C303.839 23.7733 305.146 25.5867 305.839 27.72C306.533 29.8 306.879 32.0933 306.879 34.6V61.88C306.879 64.3333 306.533 66.6 305.839 68.68C305.146 70.76 303.893 72.5467 302.079 74.04L291.759 82.68ZM306.079 61.88V34.6C306.079 32.1467 305.706 29.9333 304.959 27.96C304.266 25.9333 302.986 24.2 301.119 22.76C299.306 21.32 296.773 20.2 293.519 19.4C290.319 18.6 286.239 18.2 281.279 18.2C276.319 18.2 272.213 18.6 268.959 19.4C265.706 20.2 263.146 21.32 261.279 22.76C259.466 24.2 258.186 25.9333 257.439 27.96C256.746 29.9333 256.399 32.1467 256.399 34.6V61.88C256.399 64.3333 256.746 66.5733 257.439 68.6C258.186 70.5733 259.466 72.28 261.279 73.72C263.146 75.1067 265.706 76.2 268.959 77C272.213 77.8 276.319 78.2 281.279 78.2C286.239 78.2 290.319 77.8 293.519 77C296.773 76.2 299.306 75.1067 301.119 73.72C302.986 72.28 304.266 70.5733 304.959 68.6C305.706 66.5733 306.079 64.3333 306.079 61.88ZM297.359 60.04C297.359 63.24 296.213 65.8533 293.919 67.88C291.626 69.8533 287.359 70.84 281.119 70.84C274.879 70.84 270.639 69.8533 268.399 67.88C266.159 65.8533 265.039 63.24 265.039 60.04V36.44C265.039 33.24 266.159 30.6533 268.399 28.68C270.639 26.6533 274.879 25.64 281.119 25.64C287.359 25.64 291.626 26.6533 293.919 28.68C296.213 30.6533 297.359 33.24 297.359 36.44V60.04ZM265.839 60.04C265.839 63.0267 266.906 65.4533 269.039 67.32C271.173 69.1333 275.199 70.04 281.119 70.04C287.039 70.04 291.093 69.1333 293.279 67.32C295.466 65.4533 296.559 63.0267 296.559 60.04V36.44C296.559 33.4533 295.466 31.0533 293.279 29.24C291.093 27.3733 287.039 26.44 281.119 26.44C275.199 26.44 271.173 27.3733 269.039 29.24C266.906 31.0533 265.839 33.4533 265.839 36.44V60.04ZM274.559 59V37.48C274.559 36.4667 274.959 35.6133 275.759 34.92C276.559 34.1733 278.399 33.8 281.279 33.8C284.159 33.8 285.999 34.1733 286.799 34.92C287.599 35.6133 287.999 36.4667 287.999 37.48V59C287.999 60.0667 287.599 60.9733 286.799 61.72C285.999 62.4133 284.159 62.76 281.279 62.76C278.399 62.76 276.559 62.4133 275.759 61.72C274.959 60.9733 274.559 60.0667 274.559 59ZM275.359 59C275.359 59.5333 275.466 60.0133 275.679 60.44C275.893 60.8133 276.293 61.1333 276.879 61.4V46.2C276.879 45.6667 276.773 45.2133 276.559 44.84C276.346 44.4133 275.946 44.0933 275.359 43.88V59ZM345.513 27.4H328.073V50.52H345.513C348.819 50.52 351.033 49.72 352.153 48.12C353.273 46.52 353.833 44.2533 353.833 41.32V35.72C353.833 33.2667 353.139 31.2667 351.753 29.72C350.419 28.1733 348.339 27.4 345.513 27.4ZM336.713 33.8H342.713C344.099 33.8 345.033 34.1733 345.513 34.92C345.993 35.6133 346.233 36.4933 346.233 37.56V40.28C346.233 41.3467 345.993 42.2533 345.513 43C345.033 43.6933 344.099 44.04 342.713 44.04H336.713V33.8ZM328.073 69.8H327.273V26.6H345.513C348.606 26.6 350.899 27.48 352.393 29.24C353.886 30.9467 354.633 33.1067 354.633 35.72V41.24C354.633 43.6933 354.313 45.72 353.673 47.32C353.033 48.8667 351.753 49.9333 349.833 50.52H350.713C353.966 50.52 356.393 51.2667 357.993 52.76C359.593 54.2 360.393 56.3067 360.393 59.08V69.8H359.593V59.08C359.593 56.4667 358.873 54.52 357.433 53.24C355.993 51.9067 353.753 51.24 350.713 51.24H328.073V69.8ZM333.833 77C334.846 77 335.566 76.7867 335.993 76.36C336.473 75.88 336.713 75.1333 336.713 74.12V58.44H347.913C349.033 58.44 349.806 58.7333 350.233 59.32C350.713 59.8533 350.953 60.7067 350.953 61.88V74.12C350.953 75.1333 351.166 75.88 351.593 76.36C352.073 76.7867 352.819 77 353.833 77H366.233C367.246 77 367.966 76.7867 368.393 76.36C368.873 75.88 369.113 75.1333 369.113 74.12V57.16C369.113 53.8 368.206 51.1067 366.393 49.08C364.633 47.0533 362.313 45.88 359.433 45.56C361.086 44.8667 362.233 43.7467 362.873 42.2C363.566 40.6 363.913 38.68 363.913 36.44V32.76C363.913 28.8133 362.766 25.6133 360.473 23.16C358.233 20.6533 354.126 19.4 348.153 19.4H321.513C320.499 19.4 319.753 19.64 319.273 20.12C318.846 20.5467 318.633 21.2667 318.633 22.28V74.12C318.633 75.1333 318.846 75.88 319.273 76.36C319.753 76.7867 320.499 77 321.513 77H333.833ZM336.393 77.08L325.993 85.72C325.779 85.9333 325.433 86.12 324.953 86.28C324.526 86.44 324.046 86.52 323.513 86.52H311.193C309.913 86.52 308.979 86.2267 308.393 85.64C307.806 85.0533 307.513 84.12 307.513 82.84V31C307.513 30.3067 307.593 29.72 307.753 29.24C307.966 28.76 308.259 28.36 308.633 28.04L318.953 19.32C319.219 19.1067 319.566 18.9467 319.993 18.84C320.473 18.68 320.979 18.6 321.513 18.6H348.153C354.499 18.6 358.846 19.9333 361.193 22.6C363.539 25.2133 364.713 28.6 364.713 32.76V36.44C364.713 38.4133 364.473 40.1467 363.993 41.64C363.513 43.08 362.739 44.2533 361.673 45.16H361.593C364.099 45.8533 366.099 47.24 367.593 49.32C369.139 51.4 369.913 54.0133 369.913 57.16V74.12C369.913 74.8133 369.806 75.4 369.593 75.88C369.433 76.36 369.166 76.76 368.793 77.08L358.393 85.72C358.179 85.9333 357.833 86.12 357.353 86.28C356.926 86.44 356.446 86.52 355.913 86.52H343.513C342.233 86.52 341.299 86.2267 340.713 85.64C340.126 85.0533 339.833 84.12 339.833 82.84V70.6C339.833 69.7467 339.673 69.1067 339.353 68.68C339.033 68.2 338.446 67.96 337.593 67.96H337.513V74.12C337.513 74.8133 337.406 75.4 337.193 75.88C337.033 76.36 336.766 76.76 336.393 77.08ZM405.83 86.52H393.43C392.15 86.52 391.217 86.2267 390.63 85.64C390.043 85.0533 389.75 84.12 389.75 82.84V31C389.75 30.3067 389.83 29.72 389.99 29.24C390.203 28.76 390.497 28.36 390.87 28.04L401.19 19.32C401.457 19.1067 401.803 18.9467 402.23 18.84C402.71 18.68 403.217 18.6 403.75 18.6H428.23C432.017 18.6 435.19 19 437.75 19.8C440.31 20.6 442.337 21.72 443.83 23.16C445.323 24.6 446.363 26.3333 446.95 28.36C447.59 30.3867 447.91 32.6 447.91 35V45.24C447.91 47.8 447.537 50.1467 446.79 52.28C446.097 54.36 444.87 56.1467 443.11 57.64L432.71 66.28C431.377 67.4 429.643 68.3333 427.51 69.08C425.43 69.7733 422.87 70.1733 419.83 70.28V74.12C419.83 74.8133 419.723 75.4 419.51 75.88C419.35 76.36 419.083 76.76 418.71 77.08L408.31 85.72C408.097 85.9333 407.75 86.12 407.27 86.28C406.843 86.44 406.363 86.52 405.83 86.52ZM416.15 77C417.163 77 417.883 76.7867 418.31 76.36C418.79 75.88 419.03 75.1333 419.03 74.12V60.84H428.23C435.483 60.84 440.443 59.4 443.11 56.52C445.777 53.64 447.11 49.88 447.11 45.24V35C447.11 30.36 445.777 26.6 443.11 23.72C440.443 20.84 435.483 19.4 428.23 19.4H403.75C402.737 19.4 401.99 19.64 401.51 20.12C401.083 20.5467 400.87 21.2667 400.87 22.28V74.12C400.87 75.1333 401.083 75.88 401.51 76.36C401.99 76.7867 402.737 77 403.75 77H416.15ZM427.11 54.04H410.63V69.8H409.83V26.6H427.11C429.617 26.6 431.643 26.8933 433.19 27.48C434.79 28.0133 436.017 28.76 436.87 29.72C437.723 30.68 438.31 31.8267 438.63 33.16C438.95 34.4933 439.11 35.9333 439.11 37.48V43.4C439.11 44.9467 438.95 46.3867 438.63 47.72C438.31 49 437.723 50.12 436.87 51.08C436.017 51.9867 434.79 52.7067 433.19 53.24C431.643 53.7733 429.617 54.04 427.11 54.04ZM410.63 53.24H427.11C429.457 53.24 431.35 53 432.79 52.52C434.283 52.04 435.43 51.3733 436.23 50.52C437.03 49.6133 437.563 48.5733 437.83 47.4C438.15 46.1733 438.31 44.84 438.31 43.4V37.48C438.31 36.04 438.15 34.7067 437.83 33.48C437.563 32.2533 437.03 31.1867 436.23 30.28C435.43 29.3733 434.283 28.68 432.79 28.2C431.35 27.6667 429.457 27.4 427.11 27.4H410.63V53.24ZM418.87 34.36H426.07C427.617 34.36 428.63 34.76 429.11 35.56C429.59 36.36 429.83 37.2667 429.83 38.28V42.52C429.83 43.5333 429.59 44.44 429.11 45.24C428.63 46.04 427.617 46.44 426.07 46.44H418.87V34.36ZM484.728 27.4H467.288V50.52H484.728C488.035 50.52 490.248 49.72 491.368 48.12C492.488 46.52 493.048 44.2533 493.048 41.32V35.72C493.048 33.2667 492.355 31.2667 490.968 29.72C489.635 28.1733 487.555 27.4 484.728 27.4ZM475.928 33.8H481.928C483.315 33.8 484.248 34.1733 484.728 34.92C485.208 35.6133 485.448 36.4933 485.448 37.56V40.28C485.448 41.3467 485.208 42.2533 484.728 43C484.248 43.6933 483.315 44.04 481.928 44.04H475.928V33.8ZM467.288 69.8H466.488V26.6H484.728C487.821 26.6 490.115 27.48 491.608 29.24C493.101 30.9467 493.848 33.1067 493.848 35.72V41.24C493.848 43.6933 493.528 45.72 492.888 47.32C492.248 48.8667 490.968 49.9333 489.048 50.52H489.928C493.181 50.52 495.608 51.2667 497.208 52.76C498.808 54.2 499.608 56.3067 499.608 59.08V69.8H498.808V59.08C498.808 56.4667 498.088 54.52 496.648 53.24C495.208 51.9067 492.968 51.24 489.928 51.24H467.288V69.8ZM473.048 77C474.061 77 474.781 76.7867 475.208 76.36C475.688 75.88 475.928 75.1333 475.928 74.12V58.44H487.128C488.248 58.44 489.021 58.7333 489.448 59.32C489.928 59.8533 490.168 60.7067 490.168 61.88V74.12C490.168 75.1333 490.381 75.88 490.808 76.36C491.288 76.7867 492.035 77 493.048 77H505.448C506.461 77 507.181 76.7867 507.608 76.36C508.088 75.88 508.328 75.1333 508.328 74.12V57.16C508.328 53.8 507.421 51.1067 505.608 49.08C503.848 47.0533 501.528 45.88 498.648 45.56C500.301 44.8667 501.448 43.7467 502.088 42.2C502.781 40.6 503.128 38.68 503.128 36.44V32.76C503.128 28.8133 501.981 25.6133 499.688 23.16C497.448 20.6533 493.341 19.4 487.368 19.4H460.728C459.715 19.4 458.968 19.64 458.488 20.12C458.061 20.5467 457.848 21.2667 457.848 22.28V74.12C457.848 75.1333 458.061 75.88 458.488 76.36C458.968 76.7867 459.715 77 460.728 77H473.048ZM475.608 77.08L465.208 85.72C464.995 85.9333 464.648 86.12 464.168 86.28C463.741 86.44 463.261 86.52 462.728 86.52H450.408C449.128 86.52 448.195 86.2267 447.608 85.64C447.021 85.0533 446.728 84.12 446.728 82.84V31C446.728 30.3067 446.808 29.72 446.968 29.24C447.181 28.76 447.475 28.36 447.848 28.04L458.168 19.32C458.435 19.1067 458.781 18.9467 459.208 18.84C459.688 18.68 460.195 18.6 460.728 18.6H487.368C493.715 18.6 498.061 19.9333 500.408 22.6C502.755 25.2133 503.928 28.6 503.928 32.76V36.44C503.928 38.4133 503.688 40.1467 503.208 41.64C502.728 43.08 501.955 44.2533 500.888 45.16H500.808C503.315 45.8533 505.315 47.24 506.808 49.32C508.355 51.4 509.128 54.0133 509.128 57.16V74.12C509.128 74.8133 509.021 75.4 508.808 75.88C508.648 76.36 508.381 76.76 508.008 77.08L497.608 85.72C497.395 85.9333 497.048 86.12 496.568 86.28C496.141 86.44 495.661 86.52 495.128 86.52H482.728C481.448 86.52 480.515 86.2267 479.928 85.64C479.341 85.0533 479.048 84.12 479.048 82.84V70.6C479.048 69.7467 478.888 69.1067 478.568 68.68C478.248 68.2 477.661 67.96 476.808 67.96H476.728V74.12C476.728 74.8133 476.621 75.4 476.408 75.88C476.248 76.36 475.981 76.76 475.608 77.08ZM553.759 82.68C551.893 84.28 549.279 85.5067 545.919 86.36C542.559 87.2667 538.239 87.72 532.959 87.72C527.733 87.72 523.439 87.16 520.079 86.04C516.773 84.9733 514.159 83.5333 512.239 81.72C510.373 79.9067 509.066 77.8267 508.319 75.48C507.626 73.1333 507.279 70.7067 507.279 68.2V43.32C507.279 40.8667 507.626 38.6 508.319 36.52C509.013 34.3867 510.266 32.5733 512.079 31.08L522.479 22.44C524.346 20.84 526.933 19.6133 530.239 18.76C533.599 17.8533 537.946 17.4 543.279 17.4C548.506 17.4 552.773 17.8267 556.079 18.68C559.439 19.5333 562.053 20.7333 563.919 22.28C565.839 23.7733 567.146 25.5867 567.839 27.72C568.533 29.8 568.879 32.0933 568.879 34.6V61.88C568.879 64.3333 568.533 66.6 567.839 68.68C567.146 70.76 565.893 72.5467 564.079 74.04L553.759 82.68ZM568.079 61.88V34.6C568.079 32.1467 567.706 29.9333 566.959 27.96C566.266 25.9333 564.986 24.2 563.119 22.76C561.306 21.32 558.773 20.2 555.519 19.4C552.319 18.6 548.239 18.2 543.279 18.2C538.319 18.2 534.213 18.6 530.959 19.4C527.706 20.2 525.146 21.32 523.279 22.76C521.466 24.2 520.186 25.9333 519.439 27.96C518.746 29.9333 518.399 32.1467 518.399 34.6V61.88C518.399 64.3333 518.746 66.5733 519.439 68.6C520.186 70.5733 521.466 72.28 523.279 73.72C525.146 75.1067 527.706 76.2 530.959 77C534.213 77.8 538.319 78.2 543.279 78.2C548.239 78.2 552.319 77.8 555.519 77C558.773 76.2 561.306 75.1067 563.119 73.72C564.986 72.28 566.266 70.5733 566.959 68.6C567.706 66.5733 568.079 64.3333 568.079 61.88ZM559.359 60.04C559.359 63.24 558.213 65.8533 555.919 67.88C553.626 69.8533 549.359 70.84 543.119 70.84C536.879 70.84 532.639 69.8533 530.399 67.88C528.159 65.8533 527.039 63.24 527.039 60.04V36.44C527.039 33.24 528.159 30.6533 530.399 28.68C532.639 26.6533 536.879 25.64 543.119 25.64C549.359 25.64 553.626 26.6533 555.919 28.68C558.213 30.6533 559.359 33.24 559.359 36.44V60.04ZM527.839 60.04C527.839 63.0267 528.906 65.4533 531.039 67.32C533.173 69.1333 537.199 70.04 543.119 70.04C549.039 70.04 553.093 69.1333 555.279 67.32C557.466 65.4533 558.559 63.0267 558.559 60.04V36.44C558.559 33.4533 557.466 31.0533 555.279 29.24C553.093 27.3733 549.039 26.44 543.119 26.44C537.199 26.44 533.173 27.3733 531.039 29.24C528.906 31.0533 527.839 33.4533 527.839 36.44V60.04ZM536.559 59V37.48C536.559 36.4667 536.959 35.6133 537.759 34.92C538.559 34.1733 540.399 33.8 543.279 33.8C546.159 33.8 547.999 34.1733 548.799 34.92C549.599 35.6133 549.999 36.4667 549.999 37.48V59C549.999 60.0667 549.599 60.9733 548.799 61.72C547.999 62.4133 546.159 62.76 543.279 62.76C540.399 62.76 538.559 62.4133 537.759 61.72C536.959 60.9733 536.559 60.0667 536.559 59ZM537.359 59C537.359 59.5333 537.466 60.0133 537.679 60.44C537.893 60.8133 538.293 61.1333 538.879 61.4V46.2C538.879 45.6667 538.773 45.2133 538.559 44.84C538.346 44.4133 537.946 44.0933 537.359 43.88V59ZM592.488 86.52C591.208 86.52 590.275 86.2267 589.688 85.64C589.101 85.0533 588.808 84.12 588.808 82.84V73.48C588.808 72.7867 588.888 72.2 589.048 71.72C589.261 71.24 589.555 70.84 589.928 70.52L596.968 64.6H593.288C592.008 64.6 591.075 64.3067 590.488 63.72C589.901 63.1333 589.608 62.2 589.608 60.92V31C589.608 30.3067 589.688 29.72 589.848 29.24C590.061 28.76 590.355 28.36 590.728 28.04L601.048 19.32C601.315 19.1067 601.661 18.9467 602.088 18.84C602.568 18.68 603.075 18.6 603.608 18.6H638.088C639.368 18.6 640.301 18.8933 640.888 19.48C641.475 20.0667 641.768 21 641.768 22.28V31.8C641.768 32.4933 641.661 33.08 641.448 33.56C641.288 34.04 641.021 34.44 640.648 34.76L634.888 39.64C637.928 40.3333 640.301 41.7733 642.008 43.96C643.768 46.1467 644.648 49.0267 644.648 52.6V63.72C644.648 65.8533 644.248 67.8267 643.448 69.64C642.701 71.4 641.581 72.8933 640.088 74.12L629.688 82.84C628.301 84.0133 626.595 84.92 624.568 85.56C622.595 86.2 620.381 86.52 617.928 86.52H592.488ZM628.248 77C633.048 77 636.835 75.8 639.608 73.4C642.435 71 643.848 67.7733 643.848 63.72V52.6C643.848 48.3867 642.595 45.2133 640.088 43.08C637.581 40.9467 634.168 39.88 629.848 39.88H618.888V34.68H638.088C639.101 34.68 639.821 34.4667 640.248 34.04C640.728 33.56 640.968 32.8133 640.968 31.8V22.28C640.968 21.2667 640.728 20.5467 640.248 20.12C639.821 19.64 639.101 19.4 638.088 19.4H603.608C602.595 19.4 601.848 19.64 601.368 20.12C600.941 20.5467 600.728 21.2667 600.728 22.28V52.2C600.728 53.2133 600.941 53.96 601.368 54.44C601.848 54.8667 602.595 55.08 603.608 55.08H623.448C624.088 55.08 624.595 55.24 624.968 55.56C625.395 55.8267 625.608 56.28 625.608 56.92V60.04C625.608 60.68 625.395 61.16 624.968 61.48C624.595 61.7467 624.088 61.88 623.448 61.88H602.808C601.795 61.88 601.048 62.12 600.568 62.6C600.141 63.0267 599.928 63.7467 599.928 64.76V74.12C599.928 75.1333 600.141 75.88 600.568 76.36C601.048 76.7867 601.795 77 602.808 77H628.248ZM607.128 69.8V69H626.008C628.995 69 631.128 68.44 632.408 67.32C633.688 66.2 634.328 64.4133 634.328 61.96V54.92C634.328 52.4133 633.661 50.6267 632.328 49.56C631.048 48.44 629.181 47.88 626.728 47.88H609.448V26.6H633.768V27.4H610.248V47.08H626.728C629.501 47.08 631.581 47.72 632.968 49C634.408 50.2267 635.128 52.2 635.128 54.92V61.96C635.128 64.68 634.435 66.68 633.048 67.96C631.661 69.1867 629.315 69.8 626.008 69.8H607.128ZM688.894 86.52H663.694C656.707 86.52 651.534 84.7067 648.174 81.08C644.867 77.4533 643.214 72.76 643.214 67V44.44C643.214 41.5067 643.64 38.9733 644.494 36.84C645.347 34.7067 646.6 32.92 648.254 31.48L658.574 22.76C660.227 21.3733 662.334 20.3333 664.894 19.64C667.507 18.9467 670.547 18.6 674.014 18.6H694.014C695.294 18.6 696.227 18.8933 696.814 19.48C697.4 20.0667 697.694 21 697.694 22.28V31.96C697.694 32.6533 697.587 33.24 697.374 33.72C697.214 34.2 696.947 34.6 696.574 34.92L686.174 43.56C685.96 43.7733 685.614 43.96 685.134 44.12C684.707 44.28 684.227 44.36 683.694 44.36H673.294V55.88C673.347 55.7733 673.427 55.6667 673.534 55.56C673.694 55.4 673.827 55.2667 673.934 55.16L684.254 46.44C684.52 46.2267 684.867 46.0667 685.294 45.96C685.774 45.8 686.28 45.72 686.814 45.72H699.214C700.494 45.72 701.427 46.0133 702.014 46.6C702.6 47.1867 702.894 48.12 702.894 49.4V74.12C702.894 74.8133 702.787 75.4 702.574 75.88C702.414 76.36 702.147 76.76 701.774 77.08L691.374 85.72C691.16 85.9333 690.814 86.12 690.334 86.28C689.907 86.44 689.427 86.52 688.894 86.52ZM699.214 77C700.227 77 700.947 76.7867 701.374 76.36C701.854 75.88 702.094 75.1333 702.094 74.12V49.4C702.094 48.3867 701.854 47.6667 701.374 47.24C700.947 46.76 700.227 46.52 699.214 46.52H686.814C685.8 46.52 685.054 46.76 684.574 47.24C684.147 47.6667 683.934 48.3867 683.934 49.4V61.88H676.174C674.947 61.88 674.014 61.56 673.374 60.92C672.787 60.28 672.494 59.2933 672.494 57.96V38.84C672.494 37.5067 672.894 36.52 673.694 35.88C674.494 35.1867 675.72 34.84 677.374 34.84H694.014C695.027 34.84 695.747 34.6267 696.174 34.2C696.654 33.72 696.894 32.9733 696.894 31.96V22.28C696.894 21.2667 696.654 20.5467 696.174 20.12C695.747 19.64 695.027 19.4 694.014 19.4H674.014C667.347 19.4 662.387 20.7333 659.134 23.4C655.934 26.0667 654.334 30.1733 654.334 35.72V60.68C654.334 66.2267 655.934 70.3333 659.134 73C662.387 75.6667 667.347 77 674.014 77H699.214ZM677.454 69.8C674.52 69.8 672.12 69.6133 670.254 69.24C668.387 68.8667 666.92 68.28 665.854 67.48C664.787 66.6267 664.04 65.56 663.614 64.28C663.24 62.9467 663.054 61.3467 663.054 59.48V37.08C663.054 33.2933 663.907 30.6 665.614 29C667.32 27.4 670.734 26.6 675.854 26.6H689.694V27.4H675.854C671.16 27.4 667.987 28.1467 666.334 29.64C664.68 31.08 663.854 33.56 663.854 37.08V59.48C663.854 62.9467 664.76 65.4 666.574 66.84C668.44 68.28 672.067 69 677.454 69H692.574V53.72H693.374V69.8H677.454Z" fill="#1584B2"/>
<path d="M123.84 77H104.32C97.6533 77 92.6933 75.6667 89.44 73C86.24 70.3333 84.64 66.2267 84.64 60.68V35.8C84.64 30.2533 86.24 26.1467 89.44 23.48C92.6933 20.76 97.6533 19.4 104.32 19.4H123.84C124.853 19.4 125.573 19.64 126 20.12C126.48 20.5467 126.72 21.2667 126.72 22.28V31.96C126.72 32.9733 126.48 33.72 126 34.2C125.573 34.6267 124.853 34.84 123.84 34.84H107.76C106.107 34.84 104.88 35.1867 104.08 35.88C103.28 36.52 102.88 37.5067 102.88 38.84V57.88C102.88 59.2133 103.28 60.2 104.08 60.84C104.88 61.4267 106.107 61.72 107.76 61.72H123.84C124.853 61.72 125.573 61.96 126 62.44C126.48 62.8667 126.72 63.5867 126.72 64.6V74.12C126.72 75.1333 126.48 75.88 126 76.36C125.573 76.7867 124.853 77 123.84 77ZM119.44 69H106.08C101.28 69 98.08 68.28 96.48 66.84C94.88 65.4 94.08 62.9467 94.08 59.48V37.08C94.08 33.56 94.9067 31.08 96.56 29.64C98.2133 28.1467 101.387 27.4 106.08 27.4H119.44V26.6H106.08C100.96 26.6 97.5467 27.4 95.84 29C94.1333 30.6 93.28 33.2933 93.28 37.08V59.48C93.28 63.16 94.1067 65.8 95.76 67.4C97.4667 69 100.907 69.8 106.08 69.8H119.44V69ZM186.564 61.88C186.564 64.3333 186.19 66.5733 185.444 68.6C184.75 70.5733 183.47 72.28 181.604 73.72C179.79 75.1067 177.257 76.2 174.004 77C170.804 77.8 166.724 78.2 161.764 78.2C156.804 78.2 152.697 77.8 149.444 77C146.19 76.2 143.63 75.1067 141.764 73.72C139.95 72.28 138.67 70.5733 137.924 68.6C137.23 66.5733 136.884 64.3333 136.884 61.88V34.6C136.884 32.1467 137.23 29.9333 137.924 27.96C138.67 25.9333 139.95 24.2 141.764 22.76C143.63 21.32 146.19 20.2 149.444 19.4C152.697 18.6 156.804 18.2 161.764 18.2C166.724 18.2 170.804 18.6 174.004 19.4C177.257 20.2 179.79 21.32 181.604 22.76C183.47 24.2 184.75 25.9333 185.444 27.96C186.19 29.9333 186.564 32.1467 186.564 34.6V61.88ZM177.844 60.04V36.44C177.844 33.24 176.697 30.6533 174.404 28.68C172.11 26.6533 167.844 25.64 161.604 25.64C155.364 25.64 151.124 26.6533 148.884 28.68C146.644 30.6533 145.524 33.24 145.524 36.44V60.04C145.524 63.24 146.644 65.8533 148.884 67.88C151.124 69.8533 155.364 70.84 161.604 70.84C167.844 70.84 172.11 69.8533 174.404 67.88C176.697 65.8533 177.844 63.24 177.844 60.04ZM146.324 60.04V36.44C146.324 33.4533 147.39 31.0533 149.524 29.24C151.657 27.3733 155.684 26.44 161.604 26.44C167.524 26.44 171.577 27.3733 173.764 29.24C175.95 31.0533 177.044 33.4533 177.044 36.44V60.04C177.044 63.0267 175.95 65.4533 173.764 67.32C171.577 69.1333 167.524 70.04 161.604 70.04C155.684 70.04 151.657 69.1333 149.524 67.32C147.39 65.4533 146.324 63.0267 146.324 60.04ZM155.044 59C155.044 60.0667 155.444 60.9733 156.244 61.72C157.044 62.4133 158.884 62.76 161.764 62.76C164.644 62.76 166.484 62.4133 167.284 61.72C168.084 60.9733 168.484 60.0667 168.484 59V37.48C168.484 36.4667 168.084 35.6133 167.284 34.92C166.484 34.1733 164.644 33.8 161.764 33.8C158.884 33.8 157.044 34.1733 156.244 34.92C155.444 35.6133 155.044 36.4667 155.044 37.48V59ZM242.748 77H202.028C201.015 77 200.268 76.7867 199.788 76.36C199.361 75.88 199.148 75.1333 199.148 74.12V22.28C199.148 21.2667 199.361 20.5467 199.788 20.12C200.268 19.64 201.015 19.4 202.028 19.4H214.428C215.441 19.4 216.161 19.64 216.588 20.12C217.068 20.5467 217.308 21.2667 217.308 22.28V61.88H228.268V48.92C228.268 47.9067 228.481 47.1867 228.908 46.76C229.388 46.28 230.135 46.04 231.148 46.04H242.748C243.761 46.04 244.481 46.28 244.908 46.76C245.388 47.1867 245.628 47.9067 245.628 48.92V74.12C245.628 75.1333 245.388 75.88 244.908 76.36C244.481 76.7867 243.761 77 242.748 77ZM207.868 69.8H237.308V53.24H236.508V69H208.668V26.6H207.868V69.8ZM305.973 61.88C305.973 64.3333 305.6 66.5733 304.853 68.6C304.16 70.5733 302.88 72.28 301.013 73.72C299.2 75.1067 296.666 76.2 293.413 77C290.213 77.8 286.133 78.2 281.173 78.2C276.213 78.2 272.106 77.8 268.853 77C265.6 76.2 263.04 75.1067 261.173 73.72C259.36 72.28 258.08 70.5733 257.333 68.6C256.64 66.5733 256.293 64.3333 256.293 61.88V34.6C256.293 32.1467 256.64 29.9333 257.333 27.96C258.08 25.9333 259.36 24.2 261.173 22.76C263.04 21.32 265.6 20.2 268.853 19.4C272.106 18.6 276.213 18.2 281.173 18.2C286.133 18.2 290.213 18.6 293.413 19.4C296.666 20.2 299.2 21.32 301.013 22.76C302.88 24.2 304.16 25.9333 304.853 27.96C305.6 29.9333 305.973 32.1467 305.973 34.6V61.88ZM297.253 60.04V36.44C297.253 33.24 296.106 30.6533 293.813 28.68C291.52 26.6533 287.253 25.64 281.013 25.64C274.773 25.64 270.533 26.6533 268.293 28.68C266.053 30.6533 264.933 33.24 264.933 36.44V60.04C264.933 63.24 266.053 65.8533 268.293 67.88C270.533 69.8533 274.773 70.84 281.013 70.84C287.253 70.84 291.52 69.8533 293.813 67.88C296.106 65.8533 297.253 63.24 297.253 60.04ZM265.733 60.04V36.44C265.733 33.4533 266.8 31.0533 268.933 29.24C271.066 27.3733 275.093 26.44 281.013 26.44C286.933 26.44 290.986 27.3733 293.173 29.24C295.36 31.0533 296.453 33.4533 296.453 36.44V60.04C296.453 63.0267 295.36 65.4533 293.173 67.32C290.986 69.1333 286.933 70.04 281.013 70.04C275.093 70.04 271.066 69.1333 268.933 67.32C266.8 65.4533 265.733 63.0267 265.733 60.04ZM274.453 59C274.453 60.0667 274.853 60.9733 275.653 61.72C276.453 62.4133 278.293 62.76 281.173 62.76C284.053 62.76 285.893 62.4133 286.693 61.72C287.493 60.9733 287.893 60.0667 287.893 59V37.48C287.893 36.4667 287.493 35.6133 286.693 34.92C285.893 34.1733 284.053 33.8 281.173 33.8C278.293 33.8 276.453 34.1733 275.653 34.92C274.853 35.6133 274.453 36.4667 274.453 37.48V59ZM345.438 27.4C348.264 27.4 350.344 28.1733 351.678 29.72C353.064 31.2667 353.758 33.2667 353.758 35.72V41.32C353.758 44.2533 353.198 46.52 352.078 48.12C350.958 49.72 348.744 50.52 345.438 50.52H327.998V27.4H345.438ZM336.638 33.8V44.04H342.638C344.024 44.04 344.958 43.6933 345.438 43C345.918 42.2533 346.158 41.3467 346.158 40.28V37.56C346.158 36.4933 345.918 35.6133 345.438 34.92C344.958 34.1733 344.024 33.8 342.638 33.8H336.638ZM327.998 69.8V51.24H350.638C353.678 51.24 355.918 51.9067 357.358 53.24C358.798 54.52 359.518 56.4667 359.518 59.08V69.8H360.318V59.08C360.318 56.3067 359.518 54.2 357.918 52.76C356.318 51.2667 353.891 50.52 350.638 50.52H349.758C351.678 49.9333 352.958 48.8667 353.598 47.32C354.238 45.72 354.558 43.6933 354.558 41.24V35.72C354.558 33.1067 353.811 30.9467 352.318 29.24C350.824 27.48 348.531 26.6 345.438 26.6H327.198V69.8H327.998ZM333.758 77H321.438C320.424 77 319.678 76.7867 319.198 76.36C318.771 75.88 318.558 75.1333 318.558 74.12V22.28C318.558 21.2667 318.771 20.5467 319.198 20.12C319.678 19.64 320.424 19.4 321.438 19.4H348.078C354.051 19.4 358.158 20.6533 360.398 23.16C362.691 25.6133 363.838 28.8133 363.838 32.76V36.44C363.838 38.68 363.491 40.6 362.798 42.2C362.158 43.7467 361.011 44.8667 359.358 45.56C362.238 45.88 364.558 47.0533 366.318 49.08C368.131 51.1067 369.038 53.8 369.038 57.16V74.12C369.038 75.1333 368.798 75.88 368.318 76.36C367.891 76.7867 367.171 77 366.158 77H353.758C352.744 77 351.998 76.7867 351.518 76.36C351.091 75.88 350.878 75.1333 350.878 74.12V61.88C350.878 60.7067 350.638 59.8533 350.158 59.32C349.731 58.7333 348.958 58.44 347.838 58.44H336.638V74.12C336.638 75.1333 336.398 75.88 335.918 76.36C335.491 76.7867 334.771 77 333.758 77ZM416.059 77H403.659C402.646 77 401.899 76.7867 401.419 76.36C400.993 75.88 400.779 75.1333 400.779 74.12V22.28C400.779 21.2667 400.993 20.5467 401.419 20.12C401.899 19.64 402.646 19.4 403.659 19.4H428.139C435.393 19.4 440.353 20.84 443.019 23.72C445.686 26.6 447.019 30.36 447.019 35V45.24C447.019 49.88 445.686 53.64 443.019 56.52C440.353 59.4 435.393 60.84 428.139 60.84H418.939V74.12C418.939 75.1333 418.699 75.88 418.219 76.36C417.793 76.7867 417.073 77 416.059 77ZM427.019 54.04C429.526 54.04 431.553 53.7733 433.099 53.24C434.699 52.7067 435.926 51.9867 436.779 51.08C437.633 50.12 438.219 49 438.539 47.72C438.859 46.3867 439.019 44.9467 439.019 43.4V37.48C439.019 35.9333 438.859 34.4933 438.539 33.16C438.219 31.8267 437.633 30.68 436.779 29.72C435.926 28.76 434.699 28.0133 433.099 27.48C431.553 26.8933 429.526 26.6 427.019 26.6H409.739V69.8H410.539V54.04H427.019ZM410.539 53.24V27.4H427.019C429.366 27.4 431.259 27.6667 432.699 28.2C434.193 28.68 435.339 29.3733 436.139 30.28C436.939 31.1867 437.473 32.2533 437.739 33.48C438.059 34.7067 438.219 36.04 438.219 37.48V43.4C438.219 44.84 438.059 46.1733 437.739 47.4C437.473 48.5733 436.939 49.6133 436.139 50.52C435.339 51.3733 434.193 52.04 432.699 52.52C431.259 53 429.366 53.24 427.019 53.24H410.539ZM418.779 34.36V46.44H425.979C427.526 46.44 428.539 46.04 429.019 45.24C429.499 44.44 429.739 43.5333 429.739 42.52V38.28C429.739 37.2667 429.499 36.36 429.019 35.56C428.539 34.76 427.526 34.36 425.979 34.36H418.779ZM484.591 27.4C487.417 27.4 489.497 28.1733 490.831 29.72C492.217 31.2667 492.911 33.2667 492.911 35.72V41.32C492.911 44.2533 492.351 46.52 491.231 48.12C490.111 49.72 487.897 50.52 484.591 50.52H467.151V27.4H484.591ZM475.791 33.8V44.04H481.791C483.177 44.04 484.111 43.6933 484.591 43C485.071 42.2533 485.311 41.3467 485.311 40.28V37.56C485.311 36.4933 485.071 35.6133 484.591 34.92C484.111 34.1733 483.177 33.8 481.791 33.8H475.791ZM467.151 69.8V51.24H489.791C492.831 51.24 495.071 51.9067 496.511 53.24C497.951 54.52 498.671 56.4667 498.671 59.08V69.8H499.471V59.08C499.471 56.3067 498.671 54.2 497.071 52.76C495.471 51.2667 493.044 50.52 489.791 50.52H488.911C490.831 49.9333 492.111 48.8667 492.751 47.32C493.391 45.72 493.711 43.6933 493.711 41.24V35.72C493.711 33.1067 492.964 30.9467 491.471 29.24C489.977 27.48 487.684 26.6 484.591 26.6H466.351V69.8H467.151ZM472.911 77H460.591C459.577 77 458.831 76.7867 458.351 76.36C457.924 75.88 457.711 75.1333 457.711 74.12V22.28C457.711 21.2667 457.924 20.5467 458.351 20.12C458.831 19.64 459.577 19.4 460.591 19.4H487.231C493.204 19.4 497.311 20.6533 499.551 23.16C501.844 25.6133 502.991 28.8133 502.991 32.76V36.44C502.991 38.68 502.644 40.6 501.951 42.2C501.311 43.7467 500.164 44.8667 498.511 45.56C501.391 45.88 503.711 47.0533 505.471 49.08C507.284 51.1067 508.191 53.8 508.191 57.16V74.12C508.191 75.1333 507.951 75.88 507.471 76.36C507.044 76.7867 506.324 77 505.311 77H492.911C491.897 77 491.151 76.7867 490.671 76.36C490.244 75.88 490.031 75.1333 490.031 74.12V61.88C490.031 60.7067 489.791 59.8533 489.311 59.32C488.884 58.7333 488.111 58.44 486.991 58.44H475.791V74.12C475.791 75.1333 475.551 75.88 475.071 76.36C474.644 76.7867 473.924 77 472.911 77ZM567.973 61.88C567.973 64.3333 567.6 66.5733 566.853 68.6C566.16 70.5733 564.88 72.28 563.013 73.72C561.2 75.1067 558.666 76.2 555.413 77C552.213 77.8 548.133 78.2 543.173 78.2C538.213 78.2 534.106 77.8 530.853 77C527.6 76.2 525.04 75.1067 523.173 73.72C521.36 72.28 520.08 70.5733 519.333 68.6C518.64 66.5733 518.293 64.3333 518.293 61.88V34.6C518.293 32.1467 518.64 29.9333 519.333 27.96C520.08 25.9333 521.36 24.2 523.173 22.76C525.04 21.32 527.6 20.2 530.853 19.4C534.106 18.6 538.213 18.2 543.173 18.2C548.133 18.2 552.213 18.6 555.413 19.4C558.666 20.2 561.2 21.32 563.013 22.76C564.88 24.2 566.16 25.9333 566.853 27.96C567.6 29.9333 567.973 32.1467 567.973 34.6V61.88ZM559.253 60.04V36.44C559.253 33.24 558.106 30.6533 555.813 28.68C553.52 26.6533 549.253 25.64 543.013 25.64C536.773 25.64 532.533 26.6533 530.293 28.68C528.053 30.6533 526.933 33.24 526.933 36.44V60.04C526.933 63.24 528.053 65.8533 530.293 67.88C532.533 69.8533 536.773 70.84 543.013 70.84C549.253 70.84 553.52 69.8533 555.813 67.88C558.106 65.8533 559.253 63.24 559.253 60.04ZM527.733 60.04V36.44C527.733 33.4533 528.8 31.0533 530.933 29.24C533.066 27.3733 537.093 26.44 543.013 26.44C548.933 26.44 552.986 27.3733 555.173 29.24C557.36 31.0533 558.453 33.4533 558.453 36.44V60.04C558.453 63.0267 557.36 65.4533 555.173 67.32C552.986 69.1333 548.933 70.04 543.013 70.04C537.093 70.04 533.066 69.1333 530.933 67.32C528.8 65.4533 527.733 63.0267 527.733 60.04ZM536.453 59C536.453 60.0667 536.853 60.9733 537.653 61.72C538.453 62.4133 540.293 62.76 543.173 62.76C546.053 62.76 547.893 62.4133 548.693 61.72C549.493 60.9733 549.893 60.0667 549.893 59V37.48C549.893 36.4667 549.493 35.6133 548.693 34.92C547.893 34.1733 546.053 33.8 543.173 33.8C540.293 33.8 538.453 34.1733 537.653 34.92C536.853 35.6133 536.453 36.4667 536.453 37.48V59ZM628.126 77H602.686C601.673 77 600.926 76.7867 600.446 76.36C600.02 75.88 599.806 75.1333 599.806 74.12V64.76C599.806 63.7467 600.02 63.0267 600.446 62.6C600.926 62.12 601.673 61.88 602.686 61.88H623.326C623.966 61.88 624.473 61.7467 624.846 61.48C625.273 61.16 625.486 60.68 625.486 60.04V56.92C625.486 56.28 625.273 55.8267 624.846 55.56C624.473 55.24 623.966 55.08 623.326 55.08H603.486C602.473 55.08 601.726 54.8667 601.246 54.44C600.82 53.96 600.606 53.2133 600.606 52.2V22.28C600.606 21.2667 600.82 20.5467 601.246 20.12C601.726 19.64 602.473 19.4 603.486 19.4H637.966C638.98 19.4 639.7 19.64 640.126 20.12C640.606 20.5467 640.846 21.2667 640.846 22.28V31.8C640.846 32.8133 640.606 33.56 640.126 34.04C639.7 34.4667 638.98 34.68 637.966 34.68H618.766V39.88H629.726C634.046 39.88 637.46 40.9467 639.966 43.08C642.473 45.2133 643.726 48.3867 643.726 52.6V63.72C643.726 67.7733 642.313 71 639.486 73.4C636.713 75.8 632.926 77 628.126 77ZM607.006 69.8H625.886C629.193 69.8 631.54 69.1867 632.926 67.96C634.313 66.68 635.006 64.68 635.006 61.96V54.92C635.006 52.2 634.286 50.2267 632.846 49C631.46 47.72 629.38 47.08 626.606 47.08H610.126V27.4H633.646V26.6H609.326V47.88H626.606C629.06 47.88 630.926 48.44 632.206 49.56C633.54 50.6267 634.206 52.4133 634.206 54.92V61.96C634.206 64.4133 633.566 66.2 632.286 67.32C631.006 68.44 628.873 69 625.886 69H607.006V69.8ZM699.123 77H673.923C667.256 77 662.296 75.6667 659.043 73C655.843 70.3333 654.243 66.2267 654.243 60.68V35.72C654.243 30.1733 655.843 26.0667 659.043 23.4C662.296 20.7333 667.256 19.4 673.923 19.4H693.923C694.936 19.4 695.656 19.64 696.083 20.12C696.563 20.5467 696.803 21.2667 696.803 22.28V31.96C696.803 32.9733 696.563 33.72 696.083 34.2C695.656 34.6267 694.936 34.84 693.923 34.84H677.283C675.63 34.84 674.403 35.1867 673.603 35.88C672.803 36.52 672.403 37.5067 672.403 38.84V57.96C672.403 59.2933 672.696 60.28 673.283 60.92C673.923 61.56 674.856 61.88 676.083 61.88H683.843V49.4C683.843 48.3867 684.056 47.6667 684.483 47.24C684.963 46.76 685.71 46.52 686.723 46.52H699.123C700.136 46.52 700.856 46.76 701.283 47.24C701.763 47.6667 702.003 48.3867 702.003 49.4V74.12C702.003 75.1333 701.763 75.88 701.283 76.36C700.856 76.7867 700.136 77 699.123 77ZM677.363 69.8H693.283V53.72H692.483V69H677.363C671.976 69 668.35 68.28 666.483 66.84C664.67 65.4 663.763 62.9467 663.763 59.48V37.08C663.763 33.56 664.59 31.08 666.243 29.64C667.896 28.1467 671.07 27.4 675.763 27.4H689.603V26.6H675.763C670.643 26.6 667.23 27.4 665.523 29C663.816 30.6 662.963 33.2933 662.963 37.08V59.48C662.963 61.3467 663.15 62.9467 663.523 64.28C663.95 65.56 664.696 66.6267 665.763 67.48C666.83 68.28 668.296 68.8667 670.163 69.24C672.03 69.6133 674.43 69.8 677.363 69.8Z" fill="#CFF1FF"/>
<defs>
<linearGradient id="paint0_linear_13642_62448" x1="22.6753" y1="376" x2="362.422" y2="-250.32" gradientUnits="userSpaceOnUse">
<stop stop-color="#1584B2" stop-opacity="0"/>
<stop offset="1" stop-color="#0B3546" stop-opacity="0.6"/>
</linearGradient>
<linearGradient id="paint1_linear_13642_62448" x1="12.7153" y1="376" x2="388.054" y2="-182.264" gradientUnits="userSpaceOnUse">
<stop stop-color="#1584B2" stop-opacity="0"/>
<stop offset="1" stop-color="#0B3546" stop-opacity="0.6"/>
</linearGradient>
<linearGradient id="paint2_linear_13642_62448" x1="-45.5" y1="381" x2="357.5" y2="-67.4999" gradientUnits="userSpaceOnUse">
<stop stop-color="#1584B2" stop-opacity="0"/>
<stop offset="1" stop-color="#0B3546" stop-opacity="0.6"/>
</linearGradient>
</defs>
</svg>
