<svg width="187" height="48" viewBox="0 0 187 48" fill="none" xmlns="http://www.w3.org/2000/svg">
<path d="M9.6 45.72C9.6 47.16 10.44 48 11.88 48V0C10.44 0 9.6 0.84 9.6 2.28V2.4C9.6 3.84 8.64 4.56 7.32 4.56H7.08C5.64 4.56 4.56 5.64 4.56 7.08V7.32C4.56 8.64 3.84 9.6 2.4 9.6H2.28C0.84 9.6 0 10.44 0 11.88V36.12C0 37.56 0.84 38.4 2.28 38.4H2.4C3.84 38.4 4.56 39.36 4.56 40.68V40.92C4.56 42.36 5.64 43.44 7.08 43.44H7.32C8.64 43.44 9.6 44.16 9.6 45.6V45.72Z" fill="white"/>
<rect width="163" height="48" transform="translate(11.8799)" fill="white"/>
<g clip-path="url(#clip0_14685_121478)">
<path d="M30.6743 30.208C27.2263 30.208 24.7943 27.768 24.7943 24.4C24.7943 21.032 27.2263 18.592 30.6743 18.592C32.7383 18.592 34.5623 19.536 35.4743 21.104L33.5543 22.28C32.9223 21.312 31.9063 20.736 30.6583 20.736C28.6263 20.736 27.1223 22.224 27.1223 24.4C27.1303 26.648 28.6823 28.064 30.6583 28.064C31.8983 28.064 32.9063 27.504 33.5783 26.528L35.4023 27.84C34.4103 29.296 32.7223 30.208 30.6743 30.208ZM39.8004 30H37.5684V18.8H39.8004V23.312H45.1924V18.8H47.4244V30H45.1924V25.392H39.8004V30ZM58.5027 30H50.1347V18.8H58.4387V20.848H52.3667V23.328H58.1587V25.376H52.3667V27.952H58.5027V30ZM66.2168 30.208C62.7688 30.208 60.3368 27.768 60.3368 24.4C60.3368 21.032 62.7688 18.592 66.2168 18.592C68.2808 18.592 70.1048 19.536 71.0168 21.104L69.0968 22.28C68.4648 21.312 67.4488 20.736 66.2008 20.736C64.1688 20.736 62.6648 22.224 62.6648 24.4C62.6728 26.648 64.2248 28.064 66.2008 28.064C67.4408 28.064 68.4488 27.504 69.1208 26.528L70.9448 27.84C69.9528 29.296 68.2648 30.208 66.2168 30.208ZM75.3429 30H73.1109V18.8H75.3429V23.336H76.3989L80.1029 18.8H82.9029L78.2069 24.264L83.2549 30H80.3589L76.3749 25.392H75.3429V30ZM90.7959 30H88.5559V18.8H90.6439L96.3319 26.28V18.8H98.5719V30H96.4759L90.7959 22.52V30ZM106.622 30.208C103.174 30.208 100.742 27.744 100.742 24.4C100.742 21.056 103.174 18.592 106.622 18.592C110.07 18.592 112.51 21.056 112.51 24.4C112.51 27.744 110.07 30.208 106.622 30.208ZM106.622 28.064C108.686 28.064 110.174 26.576 110.174 24.4C110.174 22.224 108.686 20.736 106.622 20.736C104.566 20.736 103.07 22.224 103.07 24.4C103.07 26.576 104.566 28.064 106.622 28.064ZM119.424 30H116.72L113.376 18.8H115.696L118.104 27.392L120.608 18.8H123.08L125.584 27.392L127.992 18.8H130.272L126.928 30H124.224L121.824 22L119.424 30Z" fill="#1C1B1B"/>
<path d="M157.018 23.0415C156.638 22.8935 156.383 22.5284 156.383 22.0775V21.9789C156.383 21.3873 156.139 21.1409 155.555 21.1409H155.457C154.872 21.1409 154.434 20.6972 154.434 20.1056V20.007C154.434 19.4155 154.19 19.169 153.604 19.169H153.507C152.923 19.169 152.483 18.7253 152.483 18.1338V18.0352C152.483 17.4437 152.923 17 153.507 17H153.604C154.19 17 154.628 17.4437 154.628 18.0352V18.1338C154.628 18.7253 154.872 18.9719 155.457 18.9719H155.555C156.139 18.9719 156.578 19.4155 156.578 20.007V20.1056C156.578 20.6972 156.822 20.9436 157.407 20.9436H157.504C158.089 20.9436 158.528 21.3873 158.528 21.9789V22.0775C158.528 22.6198 158.82 23.0141 159.405 23.0141H159.453C159.965 23.0141 160.38 23.4334 160.38 23.9507V24.0493C160.38 24.5666 159.965 24.9859 159.453 24.9859H159.405C158.82 24.9859 158.528 25.3802 158.528 25.9225V26.0211C158.528 26.6127 158.089 27.0564 157.504 27.0564H157.407C156.822 27.0564 156.578 27.3028 156.578 27.8944V27.993C156.578 28.5845 156.139 29.0281 155.555 29.0281H155.457C154.872 29.0281 154.628 29.2747 154.628 29.8662V29.9648C154.628 30.5563 154.19 31 153.604 31H153.507C152.923 31 152.483 30.5563 152.483 29.9648V29.8662C152.483 29.2747 152.923 28.831 153.507 28.831H153.604C154.19 28.831 154.434 28.5845 154.434 27.993V27.8944C154.434 27.3028 154.872 26.8591 155.457 26.8591H155.555C156.139 26.8591 156.383 26.6127 156.383 26.0211V25.9225C156.383 25.4622 156.648 25.0916 157.042 24.9497H141.323C140.802 24.9497 140.38 24.5225 140.38 23.9956C140.38 23.4687 140.802 23.0415 141.323 23.0415H157.018Z" fill="#FF0037"/>
</g>
<path d="M177.16 45.72C177.16 47.16 176.32 48 174.88 48V0C176.32 0 177.16 0.84 177.16 2.28V2.4C177.16 3.84 178.12 4.56 179.44 4.56H179.68C181.12 4.56 182.2 5.64 182.2 7.08V7.32C182.2 8.64 182.92 9.6 184.36 9.6H184.48C185.92 9.6 186.76 10.44 186.76 11.88V36.12C186.76 37.56 185.92 38.4 184.48 38.4H184.36C182.92 38.4 182.2 39.36 182.2 40.68V40.92C182.2 42.36 181.12 43.44 179.68 43.44H179.44C178.12 43.44 177.16 44.16 177.16 45.6V45.72Z" fill="white"/>
<defs>
<clipPath id="clip0_14685_121478">
<rect width="139" height="24" fill="white" transform="translate(23.8799 12)"/>
</clipPath>
</defs>
</svg>
