<svg width="724" height="455" viewBox="0 0 724 455" fill="none" xmlns="http://www.w3.org/2000/svg">
<path d="M14 106L101.5 28.5L105 72.5L170.5 69L198.5 55L208.5 50L217.5 78L267 69L297 82.5L327 61L334 78H352V61H359L382.5 50L408.5 28.5L422 53.5L438.5 64L464 50L468.5 76L493.5 64H503L524 74H544L574 59.5L609 28.5L646.5 70.5L667 59.5L672 79L718 78L91 656.5H14V106Z" fill="url(#paint0_linear_14685_121465)"/>
<path d="M14 106L101.5 28.5L105 72.5L170.5 69L198.5 55L208.5 50L217.5 78L267 69L297 82.5L327 61L334 78H352V61H359L382.5 50L408.5 28.5L422 53.5L438.5 64L464 50L468.5 76L493.5 64H503L524 74H544L574 59.5L577 78L14 595.901L9 600.5L14 106Z" fill="url(#paint1_linear_14685_121465)"/>
<path d="M9 111L96.5 33.5L100 77.5L165.5 74L193.5 60L203.5 55L212.5 83L262 74L292 87.5L322 66L329 83H347V66H354L377.5 55L381 82L3 429L0.5 116L9 111Z" fill="url(#paint2_linear_14685_121465)"/>
<path d="M130.72 87.02H111.2C104.213 87.02 99.04 85.2067 95.68 81.58C92.3733 77.9533 90.72 73.26 90.72 67.5V45.02C90.72 42.0867 91.1467 39.5533 92 37.42C92.8533 35.2333 94.1067 33.42 95.76 31.98L106.16 23.26C107.813 21.8733 109.92 20.8333 112.48 20.14C115.04 19.4467 118.053 19.1 121.52 19.1H141.04C142.32 19.1 143.253 19.3933 143.84 19.98C144.427 20.5667 144.72 21.5 144.72 22.78V32.46C144.72 33.1533 144.613 33.74 144.4 34.22C144.24 34.7 143.973 35.1 143.6 35.42L133.2 44.06C132.987 44.2733 132.64 44.46 132.16 44.62C131.733 44.78 131.253 44.86 130.72 44.86H120.88V58.38C120.88 59.5 121.227 60.3 121.92 60.78C122.613 61.2067 123.627 61.42 124.96 61.42H141.04C142.32 61.42 143.253 61.7133 143.84 62.3C144.427 62.8867 144.72 63.82 144.72 65.1V74.62C144.72 75.3133 144.613 75.9 144.4 76.38C144.24 76.86 143.973 77.26 143.6 77.58L133.2 86.22C132.987 86.4333 132.64 86.62 132.16 86.78C131.733 86.94 131.253 87.02 130.72 87.02ZM141.04 77.5C142.053 77.5 142.773 77.2867 143.2 76.86C143.68 76.38 143.92 75.6333 143.92 74.62V65.1C143.92 64.0867 143.68 63.3667 143.2 62.94C142.773 62.46 142.053 62.22 141.04 62.22H124.96C123.307 62.22 122.08 61.9267 121.28 61.34C120.48 60.7 120.08 59.7133 120.08 58.38V39.34C120.08 38.0067 120.48 37.02 121.28 36.38C122.08 35.6867 123.307 35.34 124.96 35.34H141.04C142.053 35.34 142.773 35.1267 143.2 34.7C143.68 34.22 143.92 33.4733 143.92 32.46V22.78C143.92 21.7667 143.68 21.0467 143.2 20.62C142.773 20.14 142.053 19.9 141.04 19.9H121.52C114.853 19.9 109.893 21.26 106.64 23.98C103.44 26.6467 101.84 30.7533 101.84 36.3V61.18C101.84 66.7267 103.44 70.8333 106.64 73.5C109.893 76.1667 114.853 77.5 121.52 77.5H141.04ZM136.64 69.5V70.3H123.28C118.107 70.3 114.667 69.5 112.96 67.9C111.307 66.3 110.48 63.66 110.48 59.98V37.58C110.48 33.7933 111.333 31.1 113.04 29.5C114.747 27.9 118.16 27.1 123.28 27.1H136.64V27.9H123.28C118.587 27.9 115.413 28.6467 113.76 30.14C112.107 31.58 111.28 34.06 111.28 37.58V59.98C111.28 63.4467 112.08 65.9 113.68 67.34C115.28 68.78 118.48 69.5 123.28 69.5H136.64ZM189.413 83.18C187.546 84.78 184.933 86.0067 181.573 86.86C178.213 87.7667 173.893 88.22 168.613 88.22C163.386 88.22 159.093 87.66 155.733 86.54C152.426 85.4733 149.813 84.0333 147.893 82.22C146.026 80.4067 144.719 78.3267 143.973 75.98C143.279 73.6333 142.933 71.2067 142.933 68.7V43.82C142.933 41.3667 143.279 39.1 143.973 37.02C144.666 34.8867 145.919 33.0733 147.733 31.58L158.133 22.94C159.999 21.34 162.586 20.1133 165.893 19.26C169.253 18.3533 173.599 17.9 178.933 17.9C184.159 17.9 188.426 18.3267 191.733 19.18C195.093 20.0333 197.706 21.2333 199.573 22.78C201.493 24.2733 202.799 26.0867 203.493 28.22C204.186 30.3 204.533 32.5933 204.533 35.1V62.38C204.533 64.8333 204.186 67.1 203.493 69.18C202.799 71.26 201.546 73.0467 199.733 74.54L189.413 83.18ZM203.733 62.38V35.1C203.733 32.6467 203.359 30.4333 202.613 28.46C201.919 26.4333 200.639 24.7 198.773 23.26C196.959 21.82 194.426 20.7 191.173 19.9C187.973 19.1 183.893 18.7 178.933 18.7C173.973 18.7 169.866 19.1 166.613 19.9C163.359 20.7 160.799 21.82 158.933 23.26C157.119 24.7 155.839 26.4333 155.093 28.46C154.399 30.4333 154.053 32.6467 154.053 35.1V62.38C154.053 64.8333 154.399 67.0733 155.093 69.1C155.839 71.0733 157.119 72.78 158.933 74.22C160.799 75.6067 163.359 76.7 166.613 77.5C169.866 78.3 173.973 78.7 178.933 78.7C183.893 78.7 187.973 78.3 191.173 77.5C194.426 76.7 196.959 75.6067 198.773 74.22C200.639 72.78 201.919 71.0733 202.613 69.1C203.359 67.0733 203.733 64.8333 203.733 62.38ZM195.013 60.54C195.013 63.74 193.866 66.3533 191.573 68.38C189.279 70.3533 185.013 71.34 178.773 71.34C172.533 71.34 168.293 70.3533 166.053 68.38C163.813 66.3533 162.693 63.74 162.693 60.54V36.94C162.693 33.74 163.813 31.1533 166.053 29.18C168.293 27.1533 172.533 26.14 178.773 26.14C185.013 26.14 189.279 27.1533 191.573 29.18C193.866 31.1533 195.013 33.74 195.013 36.94V60.54ZM163.493 60.54C163.493 63.5267 164.559 65.9533 166.693 67.82C168.826 69.6333 172.853 70.54 178.773 70.54C184.693 70.54 188.746 69.6333 190.933 67.82C193.119 65.9533 194.213 63.5267 194.213 60.54V36.94C194.213 33.9533 193.119 31.5533 190.933 29.74C188.746 27.8733 184.693 26.94 178.773 26.94C172.853 26.94 168.826 27.8733 166.693 29.74C164.559 31.5533 163.493 33.9533 163.493 36.94V60.54ZM172.213 59.5V37.98C172.213 36.9667 172.613 36.1133 173.413 35.42C174.213 34.6733 176.053 34.3 178.933 34.3C181.813 34.3 183.653 34.6733 184.453 35.42C185.253 36.1133 185.653 36.9667 185.653 37.98V59.5C185.653 60.5667 185.253 61.4733 184.453 62.22C183.653 62.9133 181.813 63.26 178.933 63.26C176.053 63.26 174.213 62.9133 173.413 62.22C172.613 61.4733 172.213 60.5667 172.213 59.5ZM173.013 59.5C173.013 60.0333 173.119 60.5133 173.333 60.94C173.546 61.3133 173.946 61.6333 174.533 61.9V46.7C174.533 46.1667 174.426 45.7133 174.213 45.34C173.999 44.9133 173.599 44.5933 173.013 44.38V59.5ZM249.566 87.02H208.846C207.566 87.02 206.632 86.7267 206.046 86.14C205.459 85.5533 205.166 84.62 205.166 83.34V31.5C205.166 30.8067 205.246 30.22 205.406 29.74C205.619 29.26 205.912 28.86 206.286 28.54L216.606 19.82C216.872 19.6067 217.219 19.4467 217.646 19.34C218.126 19.18 218.632 19.1 219.166 19.1H231.566C232.846 19.1 233.779 19.3933 234.366 19.98C234.952 20.5667 235.246 21.5 235.246 22.78V55.34L235.406 55.18L245.726 46.46C245.992 46.2467 246.339 46.0867 246.766 45.98C247.246 45.82 247.752 45.74 248.286 45.74H259.886C261.166 45.74 262.099 46.0333 262.686 46.62C263.272 47.2067 263.566 48.14 263.566 49.42V74.62C263.566 75.3133 263.459 75.9 263.246 76.38C263.086 76.86 262.819 77.26 262.446 77.58L252.046 86.22C251.832 86.4333 251.486 86.62 251.006 86.78C250.579 86.94 250.099 87.02 249.566 87.02ZM259.886 77.5C260.899 77.5 261.619 77.2867 262.046 76.86C262.526 76.38 262.766 75.6333 262.766 74.62V49.42C262.766 48.4067 262.526 47.6867 262.046 47.26C261.619 46.78 260.899 46.54 259.886 46.54H248.286C247.272 46.54 246.526 46.78 246.046 47.26C245.619 47.6867 245.406 48.4067 245.406 49.42V62.38H234.446V22.78C234.446 21.7667 234.206 21.0467 233.726 20.62C233.299 20.14 232.579 19.9 231.566 19.9H219.166C218.152 19.9 217.406 20.14 216.926 20.62C216.499 21.0467 216.286 21.7667 216.286 22.78V74.62C216.286 75.6333 216.499 76.38 216.926 76.86C217.406 77.2867 218.152 77.5 219.166 77.5H259.886ZM225.006 70.3V27.1H225.806V69.5H253.646V53.74H254.446V70.3H225.006ZM308.759 83.18C306.893 84.78 304.279 86.0067 300.919 86.86C297.559 87.7667 293.239 88.22 287.959 88.22C282.733 88.22 278.439 87.66 275.079 86.54C271.773 85.4733 269.159 84.0333 267.239 82.22C265.373 80.4067 264.066 78.3267 263.319 75.98C262.626 73.6333 262.279 71.2067 262.279 68.7V43.82C262.279 41.3667 262.626 39.1 263.319 37.02C264.013 34.8867 265.266 33.0733 267.079 31.58L277.479 22.94C279.346 21.34 281.933 20.1133 285.239 19.26C288.599 18.3533 292.946 17.9 298.279 17.9C303.506 17.9 307.773 18.3267 311.079 19.18C314.439 20.0333 317.053 21.2333 318.919 22.78C320.839 24.2733 322.146 26.0867 322.839 28.22C323.533 30.3 323.879 32.5933 323.879 35.1V62.38C323.879 64.8333 323.533 67.1 322.839 69.18C322.146 71.26 320.893 73.0467 319.079 74.54L308.759 83.18ZM323.079 62.38V35.1C323.079 32.6467 322.706 30.4333 321.959 28.46C321.266 26.4333 319.986 24.7 318.119 23.26C316.306 21.82 313.773 20.7 310.519 19.9C307.319 19.1 303.239 18.7 298.279 18.7C293.319 18.7 289.213 19.1 285.959 19.9C282.706 20.7 280.146 21.82 278.279 23.26C276.466 24.7 275.186 26.4333 274.439 28.46C273.746 30.4333 273.399 32.6467 273.399 35.1V62.38C273.399 64.8333 273.746 67.0733 274.439 69.1C275.186 71.0733 276.466 72.78 278.279 74.22C280.146 75.6067 282.706 76.7 285.959 77.5C289.213 78.3 293.319 78.7 298.279 78.7C303.239 78.7 307.319 78.3 310.519 77.5C313.773 76.7 316.306 75.6067 318.119 74.22C319.986 72.78 321.266 71.0733 321.959 69.1C322.706 67.0733 323.079 64.8333 323.079 62.38ZM314.359 60.54C314.359 63.74 313.213 66.3533 310.919 68.38C308.626 70.3533 304.359 71.34 298.119 71.34C291.879 71.34 287.639 70.3533 285.399 68.38C283.159 66.3533 282.039 63.74 282.039 60.54V36.94C282.039 33.74 283.159 31.1533 285.399 29.18C287.639 27.1533 291.879 26.14 298.119 26.14C304.359 26.14 308.626 27.1533 310.919 29.18C313.213 31.1533 314.359 33.74 314.359 36.94V60.54ZM282.839 60.54C282.839 63.5267 283.906 65.9533 286.039 67.82C288.173 69.6333 292.199 70.54 298.119 70.54C304.039 70.54 308.093 69.6333 310.279 67.82C312.466 65.9533 313.559 63.5267 313.559 60.54V36.94C313.559 33.9533 312.466 31.5533 310.279 29.74C308.093 27.8733 304.039 26.94 298.119 26.94C292.199 26.94 288.173 27.8733 286.039 29.74C283.906 31.5533 282.839 33.9533 282.839 36.94V60.54ZM291.559 59.5V37.98C291.559 36.9667 291.959 36.1133 292.759 35.42C293.559 34.6733 295.399 34.3 298.279 34.3C301.159 34.3 302.999 34.6733 303.799 35.42C304.599 36.1133 304.999 36.9667 304.999 37.98V59.5C304.999 60.5667 304.599 61.4733 303.799 62.22C302.999 62.9133 301.159 63.26 298.279 63.26C295.399 63.26 293.559 62.9133 292.759 62.22C291.959 61.4733 291.559 60.5667 291.559 59.5ZM292.359 59.5C292.359 60.0333 292.466 60.5133 292.679 60.94C292.893 61.3133 293.293 61.6333 293.879 61.9V46.7C293.879 46.1667 293.773 45.7133 293.559 45.34C293.346 44.9133 292.946 44.5933 292.359 44.38V59.5ZM362.513 27.9H345.073V51.02H362.513C365.819 51.02 368.033 50.22 369.153 48.62C370.273 47.02 370.833 44.7533 370.833 41.82V36.22C370.833 33.7667 370.139 31.7667 368.753 30.22C367.419 28.6733 365.339 27.9 362.513 27.9ZM353.713 34.3H359.713C361.099 34.3 362.033 34.6733 362.513 35.42C362.993 36.1133 363.233 36.9933 363.233 38.06V40.78C363.233 41.8467 362.993 42.7533 362.513 43.5C362.033 44.1933 361.099 44.54 359.713 44.54H353.713V34.3ZM345.073 70.3H344.273V27.1H362.513C365.606 27.1 367.899 27.98 369.393 29.74C370.886 31.4467 371.633 33.6067 371.633 36.22V41.74C371.633 44.1933 371.313 46.22 370.673 47.82C370.033 49.3667 368.753 50.4333 366.833 51.02H367.713C370.966 51.02 373.393 51.7667 374.993 53.26C376.593 54.7 377.393 56.8067 377.393 59.58V70.3H376.593V59.58C376.593 56.9667 375.873 55.02 374.433 53.74C372.993 52.4067 370.753 51.74 367.713 51.74H345.073V70.3ZM350.833 77.5C351.846 77.5 352.566 77.2867 352.993 76.86C353.473 76.38 353.713 75.6333 353.713 74.62V58.94H364.913C366.033 58.94 366.806 59.2333 367.233 59.82C367.713 60.3533 367.953 61.2067 367.953 62.38V74.62C367.953 75.6333 368.166 76.38 368.593 76.86C369.073 77.2867 369.819 77.5 370.833 77.5H383.233C384.246 77.5 384.966 77.2867 385.393 76.86C385.873 76.38 386.113 75.6333 386.113 74.62V57.66C386.113 54.3 385.206 51.6067 383.393 49.58C381.633 47.5533 379.313 46.38 376.433 46.06C378.086 45.3667 379.233 44.2467 379.873 42.7C380.566 41.1 380.913 39.18 380.913 36.94V33.26C380.913 29.3133 379.766 26.1133 377.473 23.66C375.233 21.1533 371.126 19.9 365.153 19.9H338.513C337.499 19.9 336.753 20.14 336.273 20.62C335.846 21.0467 335.633 21.7667 335.633 22.78V74.62C335.633 75.6333 335.846 76.38 336.273 76.86C336.753 77.2867 337.499 77.5 338.513 77.5H350.833ZM353.393 77.58L342.993 86.22C342.779 86.4333 342.433 86.62 341.953 86.78C341.526 86.94 341.046 87.02 340.513 87.02H328.193C326.913 87.02 325.979 86.7267 325.393 86.14C324.806 85.5533 324.513 84.62 324.513 83.34V31.5C324.513 30.8067 324.593 30.22 324.753 29.74C324.966 29.26 325.259 28.86 325.633 28.54L335.953 19.82C336.219 19.6067 336.566 19.4467 336.993 19.34C337.473 19.18 337.979 19.1 338.513 19.1H365.153C371.499 19.1 375.846 20.4333 378.193 23.1C380.539 25.7133 381.713 29.1 381.713 33.26V36.94C381.713 38.9133 381.473 40.6467 380.993 42.14C380.513 43.58 379.739 44.7533 378.673 45.66H378.593C381.099 46.3533 383.099 47.74 384.593 49.82C386.139 51.9 386.913 54.5133 386.913 57.66V74.62C386.913 75.3133 386.806 75.9 386.593 76.38C386.433 76.86 386.166 77.26 385.793 77.58L375.393 86.22C375.179 86.4333 374.833 86.62 374.353 86.78C373.926 86.94 373.446 87.02 372.913 87.02H360.513C359.233 87.02 358.299 86.7267 357.713 86.14C357.126 85.5533 356.833 84.62 356.833 83.34V71.1C356.833 70.2467 356.673 69.6067 356.353 69.18C356.033 68.7 355.446 68.46 354.593 68.46H354.513V74.62C354.513 75.3133 354.406 75.9 354.193 76.38C354.033 76.86 353.766 77.26 353.393 77.58ZM422.83 87.02H410.43C409.15 87.02 408.217 86.7267 407.63 86.14C407.043 85.5533 406.75 84.62 406.75 83.34V31.5C406.75 30.8067 406.83 30.22 406.99 29.74C407.203 29.26 407.497 28.86 407.87 28.54L418.19 19.82C418.457 19.6067 418.803 19.4467 419.23 19.34C419.71 19.18 420.217 19.1 420.75 19.1H445.23C449.017 19.1 452.19 19.5 454.75 20.3C457.31 21.1 459.337 22.22 460.83 23.66C462.323 25.1 463.363 26.8333 463.95 28.86C464.59 30.8867 464.91 33.1 464.91 35.5V45.74C464.91 48.3 464.537 50.6467 463.79 52.78C463.097 54.86 461.87 56.6467 460.11 58.14L449.71 66.78C448.377 67.9 446.643 68.8333 444.51 69.58C442.43 70.2733 439.87 70.6733 436.83 70.78V74.62C436.83 75.3133 436.723 75.9 436.51 76.38C436.35 76.86 436.083 77.26 435.71 77.58L425.31 86.22C425.097 86.4333 424.75 86.62 424.27 86.78C423.843 86.94 423.363 87.02 422.83 87.02ZM433.15 77.5C434.163 77.5 434.883 77.2867 435.31 76.86C435.79 76.38 436.03 75.6333 436.03 74.62V61.34H445.23C452.483 61.34 457.443 59.9 460.11 57.02C462.777 54.14 464.11 50.38 464.11 45.74V35.5C464.11 30.86 462.777 27.1 460.11 24.22C457.443 21.34 452.483 19.9 445.23 19.9H420.75C419.737 19.9 418.99 20.14 418.51 20.62C418.083 21.0467 417.87 21.7667 417.87 22.78V74.62C417.87 75.6333 418.083 76.38 418.51 76.86C418.99 77.2867 419.737 77.5 420.75 77.5H433.15ZM444.11 54.54H427.63V70.3H426.83V27.1H444.11C446.617 27.1 448.643 27.3933 450.19 27.98C451.79 28.5133 453.017 29.26 453.87 30.22C454.723 31.18 455.31 32.3267 455.63 33.66C455.95 34.9933 456.11 36.4333 456.11 37.98V43.9C456.11 45.4467 455.95 46.8867 455.63 48.22C455.31 49.5 454.723 50.62 453.87 51.58C453.017 52.4867 451.79 53.2067 450.19 53.74C448.643 54.2733 446.617 54.54 444.11 54.54ZM427.63 53.74H444.11C446.457 53.74 448.35 53.5 449.79 53.02C451.283 52.54 452.43 51.8733 453.23 51.02C454.03 50.1133 454.563 49.0733 454.83 47.9C455.15 46.6733 455.31 45.34 455.31 43.9V37.98C455.31 36.54 455.15 35.2067 454.83 33.98C454.563 32.7533 454.03 31.6867 453.23 30.78C452.43 29.8733 451.283 29.18 449.79 28.7C448.35 28.1667 446.457 27.9 444.11 27.9H427.63V53.74ZM435.87 34.86H443.07C444.617 34.86 445.63 35.26 446.11 36.06C446.59 36.86 446.83 37.7667 446.83 38.78V43.02C446.83 44.0333 446.59 44.94 446.11 45.74C445.63 46.54 444.617 46.94 443.07 46.94H435.87V34.86ZM501.728 27.9H484.288V51.02H501.728C505.035 51.02 507.248 50.22 508.368 48.62C509.488 47.02 510.048 44.7533 510.048 41.82V36.22C510.048 33.7667 509.355 31.7667 507.968 30.22C506.635 28.6733 504.555 27.9 501.728 27.9ZM492.928 34.3H498.928C500.315 34.3 501.248 34.6733 501.728 35.42C502.208 36.1133 502.448 36.9933 502.448 38.06V40.78C502.448 41.8467 502.208 42.7533 501.728 43.5C501.248 44.1933 500.315 44.54 498.928 44.54H492.928V34.3ZM484.288 70.3H483.488V27.1H501.728C504.821 27.1 507.115 27.98 508.608 29.74C510.101 31.4467 510.848 33.6067 510.848 36.22V41.74C510.848 44.1933 510.528 46.22 509.888 47.82C509.248 49.3667 507.968 50.4333 506.048 51.02H506.928C510.181 51.02 512.608 51.7667 514.208 53.26C515.808 54.7 516.608 56.8067 516.608 59.58V70.3H515.808V59.58C515.808 56.9667 515.088 55.02 513.648 53.74C512.208 52.4067 509.968 51.74 506.928 51.74H484.288V70.3ZM490.048 77.5C491.061 77.5 491.781 77.2867 492.208 76.86C492.688 76.38 492.928 75.6333 492.928 74.62V58.94H504.128C505.248 58.94 506.021 59.2333 506.448 59.82C506.928 60.3533 507.168 61.2067 507.168 62.38V74.62C507.168 75.6333 507.381 76.38 507.808 76.86C508.288 77.2867 509.035 77.5 510.048 77.5H522.448C523.461 77.5 524.181 77.2867 524.608 76.86C525.088 76.38 525.328 75.6333 525.328 74.62V57.66C525.328 54.3 524.421 51.6067 522.608 49.58C520.848 47.5533 518.528 46.38 515.648 46.06C517.301 45.3667 518.448 44.2467 519.088 42.7C519.781 41.1 520.128 39.18 520.128 36.94V33.26C520.128 29.3133 518.981 26.1133 516.688 23.66C514.448 21.1533 510.341 19.9 504.368 19.9H477.728C476.715 19.9 475.968 20.14 475.488 20.62C475.061 21.0467 474.848 21.7667 474.848 22.78V74.62C474.848 75.6333 475.061 76.38 475.488 76.86C475.968 77.2867 476.715 77.5 477.728 77.5H490.048ZM492.608 77.58L482.208 86.22C481.995 86.4333 481.648 86.62 481.168 86.78C480.741 86.94 480.261 87.02 479.728 87.02H467.408C466.128 87.02 465.195 86.7267 464.608 86.14C464.021 85.5533 463.728 84.62 463.728 83.34V31.5C463.728 30.8067 463.808 30.22 463.968 29.74C464.181 29.26 464.475 28.86 464.848 28.54L475.168 19.82C475.435 19.6067 475.781 19.4467 476.208 19.34C476.688 19.18 477.195 19.1 477.728 19.1H504.368C510.715 19.1 515.061 20.4333 517.408 23.1C519.755 25.7133 520.928 29.1 520.928 33.26V36.94C520.928 38.9133 520.688 40.6467 520.208 42.14C519.728 43.58 518.955 44.7533 517.888 45.66H517.808C520.315 46.3533 522.315 47.74 523.808 49.82C525.355 51.9 526.128 54.5133 526.128 57.66V74.62C526.128 75.3133 526.021 75.9 525.808 76.38C525.648 76.86 525.381 77.26 525.008 77.58L514.608 86.22C514.395 86.4333 514.048 86.62 513.568 86.78C513.141 86.94 512.661 87.02 512.128 87.02H499.728C498.448 87.02 497.515 86.7267 496.928 86.14C496.341 85.5533 496.048 84.62 496.048 83.34V71.1C496.048 70.2467 495.888 69.6067 495.568 69.18C495.248 68.7 494.661 68.46 493.808 68.46H493.728V74.62C493.728 75.3133 493.621 75.9 493.408 76.38C493.248 76.86 492.981 77.26 492.608 77.58ZM570.759 83.18C568.893 84.78 566.279 86.0067 562.919 86.86C559.559 87.7667 555.239 88.22 549.959 88.22C544.733 88.22 540.439 87.66 537.079 86.54C533.773 85.4733 531.159 84.0333 529.239 82.22C527.373 80.4067 526.066 78.3267 525.319 75.98C524.626 73.6333 524.279 71.2067 524.279 68.7V43.82C524.279 41.3667 524.626 39.1 525.319 37.02C526.013 34.8867 527.266 33.0733 529.079 31.58L539.479 22.94C541.346 21.34 543.933 20.1133 547.239 19.26C550.599 18.3533 554.946 17.9 560.279 17.9C565.506 17.9 569.773 18.3267 573.079 19.18C576.439 20.0333 579.053 21.2333 580.919 22.78C582.839 24.2733 584.146 26.0867 584.839 28.22C585.533 30.3 585.879 32.5933 585.879 35.1V62.38C585.879 64.8333 585.533 67.1 584.839 69.18C584.146 71.26 582.893 73.0467 581.079 74.54L570.759 83.18ZM585.079 62.38V35.1C585.079 32.6467 584.706 30.4333 583.959 28.46C583.266 26.4333 581.986 24.7 580.119 23.26C578.306 21.82 575.773 20.7 572.519 19.9C569.319 19.1 565.239 18.7 560.279 18.7C555.319 18.7 551.213 19.1 547.959 19.9C544.706 20.7 542.146 21.82 540.279 23.26C538.466 24.7 537.186 26.4333 536.439 28.46C535.746 30.4333 535.399 32.6467 535.399 35.1V62.38C535.399 64.8333 535.746 67.0733 536.439 69.1C537.186 71.0733 538.466 72.78 540.279 74.22C542.146 75.6067 544.706 76.7 547.959 77.5C551.213 78.3 555.319 78.7 560.279 78.7C565.239 78.7 569.319 78.3 572.519 77.5C575.773 76.7 578.306 75.6067 580.119 74.22C581.986 72.78 583.266 71.0733 583.959 69.1C584.706 67.0733 585.079 64.8333 585.079 62.38ZM576.359 60.54C576.359 63.74 575.213 66.3533 572.919 68.38C570.626 70.3533 566.359 71.34 560.119 71.34C553.879 71.34 549.639 70.3533 547.399 68.38C545.159 66.3533 544.039 63.74 544.039 60.54V36.94C544.039 33.74 545.159 31.1533 547.399 29.18C549.639 27.1533 553.879 26.14 560.119 26.14C566.359 26.14 570.626 27.1533 572.919 29.18C575.213 31.1533 576.359 33.74 576.359 36.94V60.54ZM544.839 60.54C544.839 63.5267 545.906 65.9533 548.039 67.82C550.173 69.6333 554.199 70.54 560.119 70.54C566.039 70.54 570.093 69.6333 572.279 67.82C574.466 65.9533 575.559 63.5267 575.559 60.54V36.94C575.559 33.9533 574.466 31.5533 572.279 29.74C570.093 27.8733 566.039 26.94 560.119 26.94C554.199 26.94 550.173 27.8733 548.039 29.74C545.906 31.5533 544.839 33.9533 544.839 36.94V60.54ZM553.559 59.5V37.98C553.559 36.9667 553.959 36.1133 554.759 35.42C555.559 34.6733 557.399 34.3 560.279 34.3C563.159 34.3 564.999 34.6733 565.799 35.42C566.599 36.1133 566.999 36.9667 566.999 37.98V59.5C566.999 60.5667 566.599 61.4733 565.799 62.22C564.999 62.9133 563.159 63.26 560.279 63.26C557.399 63.26 555.559 62.9133 554.759 62.22C553.959 61.4733 553.559 60.5667 553.559 59.5ZM554.359 59.5C554.359 60.0333 554.466 60.5133 554.679 60.94C554.893 61.3133 555.293 61.6333 555.879 61.9V46.7C555.879 46.1667 555.773 45.7133 555.559 45.34C555.346 44.9133 554.946 44.5933 554.359 44.38V59.5ZM609.488 87.02C608.208 87.02 607.275 86.7267 606.688 86.14C606.101 85.5533 605.808 84.62 605.808 83.34V73.98C605.808 73.2867 605.888 72.7 606.048 72.22C606.261 71.74 606.555 71.34 606.928 71.02L613.968 65.1H610.288C609.008 65.1 608.075 64.8067 607.488 64.22C606.901 63.6333 606.608 62.7 606.608 61.42V31.5C606.608 30.8067 606.688 30.22 606.848 29.74C607.061 29.26 607.355 28.86 607.728 28.54L618.048 19.82C618.315 19.6067 618.661 19.4467 619.088 19.34C619.568 19.18 620.075 19.1 620.608 19.1H655.088C656.368 19.1 657.301 19.3933 657.888 19.98C658.475 20.5667 658.768 21.5 658.768 22.78V32.3C658.768 32.9933 658.661 33.58 658.448 34.06C658.288 34.54 658.021 34.94 657.648 35.26L651.888 40.14C654.928 40.8333 657.301 42.2733 659.008 44.46C660.768 46.6467 661.648 49.5267 661.648 53.1V64.22C661.648 66.3533 661.248 68.3267 660.448 70.14C659.701 71.9 658.581 73.3933 657.088 74.62L646.688 83.34C645.301 84.5133 643.595 85.42 641.568 86.06C639.595 86.7 637.381 87.02 634.928 87.02H609.488ZM645.248 77.5C650.048 77.5 653.835 76.3 656.608 73.9C659.435 71.5 660.848 68.2733 660.848 64.22V53.1C660.848 48.8867 659.595 45.7133 657.088 43.58C654.581 41.4467 651.168 40.38 646.848 40.38H635.888V35.18H655.088C656.101 35.18 656.821 34.9667 657.248 34.54C657.728 34.06 657.968 33.3133 657.968 32.3V22.78C657.968 21.7667 657.728 21.0467 657.248 20.62C656.821 20.14 656.101 19.9 655.088 19.9H620.608C619.595 19.9 618.848 20.14 618.368 20.62C617.941 21.0467 617.728 21.7667 617.728 22.78V52.7C617.728 53.7133 617.941 54.46 618.368 54.94C618.848 55.3667 619.595 55.58 620.608 55.58H640.448C641.088 55.58 641.595 55.74 641.968 56.06C642.395 56.3267 642.608 56.78 642.608 57.42V60.54C642.608 61.18 642.395 61.66 641.968 61.98C641.595 62.2467 641.088 62.38 640.448 62.38H619.808C618.795 62.38 618.048 62.62 617.568 63.1C617.141 63.5267 616.928 64.2467 616.928 65.26V74.62C616.928 75.6333 617.141 76.38 617.568 76.86C618.048 77.2867 618.795 77.5 619.808 77.5H645.248ZM624.128 70.3V69.5H643.008C645.995 69.5 648.128 68.94 649.408 67.82C650.688 66.7 651.328 64.9133 651.328 62.46V55.42C651.328 52.9133 650.661 51.1267 649.328 50.06C648.048 48.94 646.181 48.38 643.728 48.38H626.448V27.1H650.768V27.9H627.248V47.58H643.728C646.501 47.58 648.581 48.22 649.968 49.5C651.408 50.7267 652.128 52.7 652.128 55.42V62.46C652.128 65.18 651.435 67.18 650.048 68.46C648.661 69.6867 646.315 70.3 643.008 70.3H624.128ZM705.894 87.02H680.694C673.707 87.02 668.534 85.2067 665.174 81.58C661.867 77.9533 660.214 73.26 660.214 67.5V44.94C660.214 42.0067 660.64 39.4733 661.494 37.34C662.347 35.2067 663.6 33.42 665.254 31.98L675.574 23.26C677.227 21.8733 679.334 20.8333 681.894 20.14C684.507 19.4467 687.547 19.1 691.014 19.1H711.014C712.294 19.1 713.227 19.3933 713.814 19.98C714.4 20.5667 714.694 21.5 714.694 22.78V32.46C714.694 33.1533 714.587 33.74 714.374 34.22C714.214 34.7 713.947 35.1 713.574 35.42L703.174 44.06C702.96 44.2733 702.614 44.46 702.134 44.62C701.707 44.78 701.227 44.86 700.694 44.86H690.294V56.38C690.347 56.2733 690.427 56.1667 690.534 56.06C690.694 55.9 690.827 55.7667 690.934 55.66L701.254 46.94C701.52 46.7267 701.867 46.5667 702.294 46.46C702.774 46.3 703.28 46.22 703.814 46.22H716.214C717.494 46.22 718.427 46.5133 719.014 47.1C719.6 47.6867 719.894 48.62 719.894 49.9V74.62C719.894 75.3133 719.787 75.9 719.574 76.38C719.414 76.86 719.147 77.26 718.774 77.58L708.374 86.22C708.16 86.4333 707.814 86.62 707.334 86.78C706.907 86.94 706.427 87.02 705.894 87.02ZM716.214 77.5C717.227 77.5 717.947 77.2867 718.374 76.86C718.854 76.38 719.094 75.6333 719.094 74.62V49.9C719.094 48.8867 718.854 48.1667 718.374 47.74C717.947 47.26 717.227 47.02 716.214 47.02H703.814C702.8 47.02 702.054 47.26 701.574 47.74C701.147 48.1667 700.934 48.8867 700.934 49.9V62.38H693.174C691.947 62.38 691.014 62.06 690.374 61.42C689.787 60.78 689.494 59.7933 689.494 58.46V39.34C689.494 38.0067 689.894 37.02 690.694 36.38C691.494 35.6867 692.72 35.34 694.374 35.34H711.014C712.027 35.34 712.747 35.1267 713.174 34.7C713.654 34.22 713.894 33.4733 713.894 32.46V22.78C713.894 21.7667 713.654 21.0467 713.174 20.62C712.747 20.14 712.027 19.9 711.014 19.9H691.014C684.347 19.9 679.387 21.2333 676.134 23.9C672.934 26.5667 671.334 30.6733 671.334 36.22V61.18C671.334 66.7267 672.934 70.8333 676.134 73.5C679.387 76.1667 684.347 77.5 691.014 77.5H716.214ZM694.454 70.3C691.52 70.3 689.12 70.1133 687.254 69.74C685.387 69.3667 683.92 68.78 682.854 67.98C681.787 67.1267 681.04 66.06 680.614 64.78C680.24 63.4467 680.054 61.8467 680.054 59.98V37.58C680.054 33.7933 680.907 31.1 682.614 29.5C684.32 27.9 687.734 27.1 692.854 27.1H706.694V27.9H692.854C688.16 27.9 684.987 28.6467 683.334 30.14C681.68 31.58 680.854 34.06 680.854 37.58V59.98C680.854 63.4467 681.76 65.9 683.574 67.34C685.44 68.78 689.067 69.5 694.454 69.5H709.574V54.22H710.374V70.3H694.454Z" fill="#1584B2"/>
<path d="M140.84 77.5H121.32C114.653 77.5 109.693 76.1667 106.44 73.5C103.24 70.8333 101.64 66.7267 101.64 61.18V36.3C101.64 30.7533 103.24 26.6467 106.44 23.98C109.693 21.26 114.653 19.9 121.32 19.9H140.84C141.853 19.9 142.573 20.14 143 20.62C143.48 21.0467 143.72 21.7667 143.72 22.78V32.46C143.72 33.4733 143.48 34.22 143 34.7C142.573 35.1267 141.853 35.34 140.84 35.34H124.76C123.107 35.34 121.88 35.6867 121.08 36.38C120.28 37.02 119.88 38.0067 119.88 39.34V58.38C119.88 59.7133 120.28 60.7 121.08 61.34C121.88 61.9267 123.107 62.22 124.76 62.22H140.84C141.853 62.22 142.573 62.46 143 62.94C143.48 63.3667 143.72 64.0867 143.72 65.1V74.62C143.72 75.6333 143.48 76.38 143 76.86C142.573 77.2867 141.853 77.5 140.84 77.5ZM136.44 69.5H123.08C118.28 69.5 115.08 68.78 113.48 67.34C111.88 65.9 111.08 63.4467 111.08 59.98V37.58C111.08 34.06 111.907 31.58 113.56 30.14C115.213 28.6467 118.387 27.9 123.08 27.9H136.44V27.1H123.08C117.96 27.1 114.547 27.9 112.84 29.5C111.133 31.1 110.28 33.7933 110.28 37.58V59.98C110.28 63.66 111.107 66.3 112.76 67.9C114.467 69.5 117.907 70.3 123.08 70.3H136.44V69.5ZM203.564 62.38C203.564 64.8333 203.19 67.0733 202.444 69.1C201.75 71.0733 200.47 72.78 198.604 74.22C196.79 75.6067 194.257 76.7 191.004 77.5C187.804 78.3 183.724 78.7 178.764 78.7C173.804 78.7 169.697 78.3 166.444 77.5C163.19 76.7 160.63 75.6067 158.764 74.22C156.95 72.78 155.67 71.0733 154.924 69.1C154.23 67.0733 153.884 64.8333 153.884 62.38V35.1C153.884 32.6467 154.23 30.4333 154.924 28.46C155.67 26.4333 156.95 24.7 158.764 23.26C160.63 21.82 163.19 20.7 166.444 19.9C169.697 19.1 173.804 18.7 178.764 18.7C183.724 18.7 187.804 19.1 191.004 19.9C194.257 20.7 196.79 21.82 198.604 23.26C200.47 24.7 201.75 26.4333 202.444 28.46C203.19 30.4333 203.564 32.6467 203.564 35.1V62.38ZM194.844 60.54V36.94C194.844 33.74 193.697 31.1533 191.404 29.18C189.11 27.1533 184.844 26.14 178.604 26.14C172.364 26.14 168.124 27.1533 165.884 29.18C163.644 31.1533 162.524 33.74 162.524 36.94V60.54C162.524 63.74 163.644 66.3533 165.884 68.38C168.124 70.3533 172.364 71.34 178.604 71.34C184.844 71.34 189.11 70.3533 191.404 68.38C193.697 66.3533 194.844 63.74 194.844 60.54ZM163.324 60.54V36.94C163.324 33.9533 164.39 31.5533 166.524 29.74C168.657 27.8733 172.684 26.94 178.604 26.94C184.524 26.94 188.577 27.8733 190.764 29.74C192.95 31.5533 194.044 33.9533 194.044 36.94V60.54C194.044 63.5267 192.95 65.9533 190.764 67.82C188.577 69.6333 184.524 70.54 178.604 70.54C172.684 70.54 168.657 69.6333 166.524 67.82C164.39 65.9533 163.324 63.5267 163.324 60.54ZM172.044 59.5C172.044 60.5667 172.444 61.4733 173.244 62.22C174.044 62.9133 175.884 63.26 178.764 63.26C181.644 63.26 183.484 62.9133 184.284 62.22C185.084 61.4733 185.484 60.5667 185.484 59.5V37.98C185.484 36.9667 185.084 36.1133 184.284 35.42C183.484 34.6733 181.644 34.3 178.764 34.3C175.884 34.3 174.044 34.6733 173.244 35.42C172.444 36.1133 172.044 36.9667 172.044 37.98V59.5ZM259.748 77.5H219.028C218.015 77.5 217.268 77.2867 216.788 76.86C216.361 76.38 216.148 75.6333 216.148 74.62V22.78C216.148 21.7667 216.361 21.0467 216.788 20.62C217.268 20.14 218.015 19.9 219.028 19.9H231.428C232.441 19.9 233.161 20.14 233.588 20.62C234.068 21.0467 234.308 21.7667 234.308 22.78V62.38H245.268V49.42C245.268 48.4067 245.481 47.6867 245.908 47.26C246.388 46.78 247.135 46.54 248.148 46.54H259.748C260.761 46.54 261.481 46.78 261.908 47.26C262.388 47.6867 262.628 48.4067 262.628 49.42V74.62C262.628 75.6333 262.388 76.38 261.908 76.86C261.481 77.2867 260.761 77.5 259.748 77.5ZM224.868 70.3H254.308V53.74H253.508V69.5H225.668V27.1H224.868V70.3ZM322.973 62.38C322.973 64.8333 322.6 67.0733 321.853 69.1C321.16 71.0733 319.88 72.78 318.013 74.22C316.2 75.6067 313.666 76.7 310.413 77.5C307.213 78.3 303.133 78.7 298.173 78.7C293.213 78.7 289.106 78.3 285.853 77.5C282.6 76.7 280.04 75.6067 278.173 74.22C276.36 72.78 275.08 71.0733 274.333 69.1C273.64 67.0733 273.293 64.8333 273.293 62.38V35.1C273.293 32.6467 273.64 30.4333 274.333 28.46C275.08 26.4333 276.36 24.7 278.173 23.26C280.04 21.82 282.6 20.7 285.853 19.9C289.106 19.1 293.213 18.7 298.173 18.7C303.133 18.7 307.213 19.1 310.413 19.9C313.666 20.7 316.2 21.82 318.013 23.26C319.88 24.7 321.16 26.4333 321.853 28.46C322.6 30.4333 322.973 32.6467 322.973 35.1V62.38ZM314.253 60.54V36.94C314.253 33.74 313.106 31.1533 310.813 29.18C308.52 27.1533 304.253 26.14 298.013 26.14C291.773 26.14 287.533 27.1533 285.293 29.18C283.053 31.1533 281.933 33.74 281.933 36.94V60.54C281.933 63.74 283.053 66.3533 285.293 68.38C287.533 70.3533 291.773 71.34 298.013 71.34C304.253 71.34 308.52 70.3533 310.813 68.38C313.106 66.3533 314.253 63.74 314.253 60.54ZM282.733 60.54V36.94C282.733 33.9533 283.8 31.5533 285.933 29.74C288.066 27.8733 292.093 26.94 298.013 26.94C303.933 26.94 307.986 27.8733 310.173 29.74C312.36 31.5533 313.453 33.9533 313.453 36.94V60.54C313.453 63.5267 312.36 65.9533 310.173 67.82C307.986 69.6333 303.933 70.54 298.013 70.54C292.093 70.54 288.066 69.6333 285.933 67.82C283.8 65.9533 282.733 63.5267 282.733 60.54ZM291.453 59.5C291.453 60.5667 291.853 61.4733 292.653 62.22C293.453 62.9133 295.293 63.26 298.173 63.26C301.053 63.26 302.893 62.9133 303.693 62.22C304.493 61.4733 304.893 60.5667 304.893 59.5V37.98C304.893 36.9667 304.493 36.1133 303.693 35.42C302.893 34.6733 301.053 34.3 298.173 34.3C295.293 34.3 293.453 34.6733 292.653 35.42C291.853 36.1133 291.453 36.9667 291.453 37.98V59.5ZM362.438 27.9C365.264 27.9 367.344 28.6733 368.678 30.22C370.064 31.7667 370.758 33.7667 370.758 36.22V41.82C370.758 44.7533 370.198 47.02 369.078 48.62C367.958 50.22 365.744 51.02 362.438 51.02H344.998V27.9H362.438ZM353.638 34.3V44.54H359.638C361.024 44.54 361.958 44.1933 362.438 43.5C362.918 42.7533 363.158 41.8467 363.158 40.78V38.06C363.158 36.9933 362.918 36.1133 362.438 35.42C361.958 34.6733 361.024 34.3 359.638 34.3H353.638ZM344.998 70.3V51.74H367.638C370.678 51.74 372.918 52.4067 374.358 53.74C375.798 55.02 376.518 56.9667 376.518 59.58V70.3H377.318V59.58C377.318 56.8067 376.518 54.7 374.918 53.26C373.318 51.7667 370.891 51.02 367.638 51.02H366.758C368.678 50.4333 369.958 49.3667 370.598 47.82C371.238 46.22 371.558 44.1933 371.558 41.74V36.22C371.558 33.6067 370.811 31.4467 369.318 29.74C367.824 27.98 365.531 27.1 362.438 27.1H344.198V70.3H344.998ZM350.758 77.5H338.438C337.424 77.5 336.678 77.2867 336.198 76.86C335.771 76.38 335.558 75.6333 335.558 74.62V22.78C335.558 21.7667 335.771 21.0467 336.198 20.62C336.678 20.14 337.424 19.9 338.438 19.9H365.078C371.051 19.9 375.158 21.1533 377.398 23.66C379.691 26.1133 380.838 29.3133 380.838 33.26V36.94C380.838 39.18 380.491 41.1 379.798 42.7C379.158 44.2467 378.011 45.3667 376.358 46.06C379.238 46.38 381.558 47.5533 383.318 49.58C385.131 51.6067 386.038 54.3 386.038 57.66V74.62C386.038 75.6333 385.798 76.38 385.318 76.86C384.891 77.2867 384.171 77.5 383.158 77.5H370.758C369.744 77.5 368.998 77.2867 368.518 76.86C368.091 76.38 367.878 75.6333 367.878 74.62V62.38C367.878 61.2067 367.638 60.3533 367.158 59.82C366.731 59.2333 365.958 58.94 364.838 58.94H353.638V74.62C353.638 75.6333 353.398 76.38 352.918 76.86C352.491 77.2867 351.771 77.5 350.758 77.5ZM433.059 77.5H420.659C419.646 77.5 418.899 77.2867 418.419 76.86C417.993 76.38 417.779 75.6333 417.779 74.62V22.78C417.779 21.7667 417.993 21.0467 418.419 20.62C418.899 20.14 419.646 19.9 420.659 19.9H445.139C452.393 19.9 457.353 21.34 460.019 24.22C462.686 27.1 464.019 30.86 464.019 35.5V45.74C464.019 50.38 462.686 54.14 460.019 57.02C457.353 59.9 452.393 61.34 445.139 61.34H435.939V74.62C435.939 75.6333 435.699 76.38 435.219 76.86C434.793 77.2867 434.073 77.5 433.059 77.5ZM444.019 54.54C446.526 54.54 448.553 54.2733 450.099 53.74C451.699 53.2067 452.926 52.4867 453.779 51.58C454.633 50.62 455.219 49.5 455.539 48.22C455.859 46.8867 456.019 45.4467 456.019 43.9V37.98C456.019 36.4333 455.859 34.9933 455.539 33.66C455.219 32.3267 454.633 31.18 453.779 30.22C452.926 29.26 451.699 28.5133 450.099 27.98C448.553 27.3933 446.526 27.1 444.019 27.1H426.739V70.3H427.539V54.54H444.019ZM427.539 53.74V27.9H444.019C446.366 27.9 448.259 28.1667 449.699 28.7C451.193 29.18 452.339 29.8733 453.139 30.78C453.939 31.6867 454.473 32.7533 454.739 33.98C455.059 35.2067 455.219 36.54 455.219 37.98V43.9C455.219 45.34 455.059 46.6733 454.739 47.9C454.473 49.0733 453.939 50.1133 453.139 51.02C452.339 51.8733 451.193 52.54 449.699 53.02C448.259 53.5 446.366 53.74 444.019 53.74H427.539ZM435.779 34.86V46.94H442.979C444.526 46.94 445.539 46.54 446.019 45.74C446.499 44.94 446.739 44.0333 446.739 43.02V38.78C446.739 37.7667 446.499 36.86 446.019 36.06C445.539 35.26 444.526 34.86 442.979 34.86H435.779ZM501.591 27.9C504.417 27.9 506.497 28.6733 507.831 30.22C509.217 31.7667 509.911 33.7667 509.911 36.22V41.82C509.911 44.7533 509.351 47.02 508.231 48.62C507.111 50.22 504.897 51.02 501.591 51.02H484.151V27.9H501.591ZM492.791 34.3V44.54H498.791C500.177 44.54 501.111 44.1933 501.591 43.5C502.071 42.7533 502.311 41.8467 502.311 40.78V38.06C502.311 36.9933 502.071 36.1133 501.591 35.42C501.111 34.6733 500.177 34.3 498.791 34.3H492.791ZM484.151 70.3V51.74H506.791C509.831 51.74 512.071 52.4067 513.511 53.74C514.951 55.02 515.671 56.9667 515.671 59.58V70.3H516.471V59.58C516.471 56.8067 515.671 54.7 514.071 53.26C512.471 51.7667 510.044 51.02 506.791 51.02H505.911C507.831 50.4333 509.111 49.3667 509.751 47.82C510.391 46.22 510.711 44.1933 510.711 41.74V36.22C510.711 33.6067 509.964 31.4467 508.471 29.74C506.977 27.98 504.684 27.1 501.591 27.1H483.351V70.3H484.151ZM489.911 77.5H477.591C476.577 77.5 475.831 77.2867 475.351 76.86C474.924 76.38 474.711 75.6333 474.711 74.62V22.78C474.711 21.7667 474.924 21.0467 475.351 20.62C475.831 20.14 476.577 19.9 477.591 19.9H504.231C510.204 19.9 514.311 21.1533 516.551 23.66C518.844 26.1133 519.991 29.3133 519.991 33.26V36.94C519.991 39.18 519.644 41.1 518.951 42.7C518.311 44.2467 517.164 45.3667 515.511 46.06C518.391 46.38 520.711 47.5533 522.471 49.58C524.284 51.6067 525.191 54.3 525.191 57.66V74.62C525.191 75.6333 524.951 76.38 524.471 76.86C524.044 77.2867 523.324 77.5 522.311 77.5H509.911C508.897 77.5 508.151 77.2867 507.671 76.86C507.244 76.38 507.031 75.6333 507.031 74.62V62.38C507.031 61.2067 506.791 60.3533 506.311 59.82C505.884 59.2333 505.111 58.94 503.991 58.94H492.791V74.62C492.791 75.6333 492.551 76.38 492.071 76.86C491.644 77.2867 490.924 77.5 489.911 77.5ZM584.973 62.38C584.973 64.8333 584.6 67.0733 583.853 69.1C583.16 71.0733 581.88 72.78 580.013 74.22C578.2 75.6067 575.666 76.7 572.413 77.5C569.213 78.3 565.133 78.7 560.173 78.7C555.213 78.7 551.106 78.3 547.853 77.5C544.6 76.7 542.04 75.6067 540.173 74.22C538.36 72.78 537.08 71.0733 536.333 69.1C535.64 67.0733 535.293 64.8333 535.293 62.38V35.1C535.293 32.6467 535.64 30.4333 536.333 28.46C537.08 26.4333 538.36 24.7 540.173 23.26C542.04 21.82 544.6 20.7 547.853 19.9C551.106 19.1 555.213 18.7 560.173 18.7C565.133 18.7 569.213 19.1 572.413 19.9C575.666 20.7 578.2 21.82 580.013 23.26C581.88 24.7 583.16 26.4333 583.853 28.46C584.6 30.4333 584.973 32.6467 584.973 35.1V62.38ZM576.253 60.54V36.94C576.253 33.74 575.106 31.1533 572.813 29.18C570.52 27.1533 566.253 26.14 560.013 26.14C553.773 26.14 549.533 27.1533 547.293 29.18C545.053 31.1533 543.933 33.74 543.933 36.94V60.54C543.933 63.74 545.053 66.3533 547.293 68.38C549.533 70.3533 553.773 71.34 560.013 71.34C566.253 71.34 570.52 70.3533 572.813 68.38C575.106 66.3533 576.253 63.74 576.253 60.54ZM544.733 60.54V36.94C544.733 33.9533 545.8 31.5533 547.933 29.74C550.066 27.8733 554.093 26.94 560.013 26.94C565.933 26.94 569.986 27.8733 572.173 29.74C574.36 31.5533 575.453 33.9533 575.453 36.94V60.54C575.453 63.5267 574.36 65.9533 572.173 67.82C569.986 69.6333 565.933 70.54 560.013 70.54C554.093 70.54 550.066 69.6333 547.933 67.82C545.8 65.9533 544.733 63.5267 544.733 60.54ZM553.453 59.5C553.453 60.5667 553.853 61.4733 554.653 62.22C555.453 62.9133 557.293 63.26 560.173 63.26C563.053 63.26 564.893 62.9133 565.693 62.22C566.493 61.4733 566.893 60.5667 566.893 59.5V37.98C566.893 36.9667 566.493 36.1133 565.693 35.42C564.893 34.6733 563.053 34.3 560.173 34.3C557.293 34.3 555.453 34.6733 554.653 35.42C553.853 36.1133 553.453 36.9667 553.453 37.98V59.5ZM645.126 77.5H619.686C618.673 77.5 617.926 77.2867 617.446 76.86C617.02 76.38 616.806 75.6333 616.806 74.62V65.26C616.806 64.2467 617.02 63.5267 617.446 63.1C617.926 62.62 618.673 62.38 619.686 62.38H640.326C640.966 62.38 641.473 62.2467 641.846 61.98C642.273 61.66 642.486 61.18 642.486 60.54V57.42C642.486 56.78 642.273 56.3267 641.846 56.06C641.473 55.74 640.966 55.58 640.326 55.58H620.486C619.473 55.58 618.726 55.3667 618.246 54.94C617.82 54.46 617.606 53.7133 617.606 52.7V22.78C617.606 21.7667 617.82 21.0467 618.246 20.62C618.726 20.14 619.473 19.9 620.486 19.9H654.966C655.98 19.9 656.7 20.14 657.126 20.62C657.606 21.0467 657.846 21.7667 657.846 22.78V32.3C657.846 33.3133 657.606 34.06 657.126 34.54C656.7 34.9667 655.98 35.18 654.966 35.18H635.766V40.38H646.726C651.046 40.38 654.46 41.4467 656.966 43.58C659.473 45.7133 660.726 48.8867 660.726 53.1V64.22C660.726 68.2733 659.313 71.5 656.486 73.9C653.713 76.3 649.926 77.5 645.126 77.5ZM624.006 70.3H642.886C646.193 70.3 648.54 69.6867 649.926 68.46C651.313 67.18 652.006 65.18 652.006 62.46V55.42C652.006 52.7 651.286 50.7267 649.846 49.5C648.46 48.22 646.38 47.58 643.606 47.58H627.126V27.9H650.646V27.1H626.326V48.38H643.606C646.06 48.38 647.926 48.94 649.206 50.06C650.54 51.1267 651.206 52.9133 651.206 55.42V62.46C651.206 64.9133 650.566 66.7 649.286 67.82C648.006 68.94 645.873 69.5 642.886 69.5H624.006V70.3ZM716.123 77.5H690.923C684.256 77.5 679.296 76.1667 676.043 73.5C672.843 70.8333 671.243 66.7267 671.243 61.18V36.22C671.243 30.6733 672.843 26.5667 676.043 23.9C679.296 21.2333 684.256 19.9 690.923 19.9H710.923C711.936 19.9 712.656 20.14 713.083 20.62C713.563 21.0467 713.803 21.7667 713.803 22.78V32.46C713.803 33.4733 713.563 34.22 713.083 34.7C712.656 35.1267 711.936 35.34 710.923 35.34H694.283C692.63 35.34 691.403 35.6867 690.603 36.38C689.803 37.02 689.403 38.0067 689.403 39.34V58.46C689.403 59.7933 689.696 60.78 690.283 61.42C690.923 62.06 691.856 62.38 693.083 62.38H700.843V49.9C700.843 48.8867 701.056 48.1667 701.483 47.74C701.963 47.26 702.71 47.02 703.723 47.02H716.123C717.136 47.02 717.856 47.26 718.283 47.74C718.763 48.1667 719.003 48.8867 719.003 49.9V74.62C719.003 75.6333 718.763 76.38 718.283 76.86C717.856 77.2867 717.136 77.5 716.123 77.5ZM694.363 70.3H710.283V54.22H709.483V69.5H694.363C688.976 69.5 685.35 68.78 683.483 67.34C681.67 65.9 680.763 63.4467 680.763 59.98V37.58C680.763 34.06 681.59 31.58 683.243 30.14C684.896 28.6467 688.07 27.9 692.763 27.9H706.603V27.1H692.763C687.643 27.1 684.23 27.9 682.523 29.5C680.816 31.1 679.963 33.7933 679.963 37.58V59.98C679.963 61.8467 680.15 63.4467 680.523 64.78C680.95 66.06 681.696 67.1267 682.763 67.98C683.83 68.78 685.296 69.3667 687.163 69.74C689.03 70.1133 691.43 70.3 694.363 70.3Z" fill="#CFF1FF"/>
<defs>
<linearGradient id="paint0_linear_14685_121465" x1="39.6753" y1="376.5" x2="379.422" y2="-249.82" gradientUnits="userSpaceOnUse">
<stop stop-color="#1584B2" stop-opacity="0"/>
<stop offset="1" stop-color="#0B3546" stop-opacity="0.6"/>
</linearGradient>
<linearGradient id="paint1_linear_14685_121465" x1="29.7153" y1="376.5" x2="405.054" y2="-181.764" gradientUnits="userSpaceOnUse">
<stop stop-color="#1584B2" stop-opacity="0"/>
<stop offset="1" stop-color="#0B3546" stop-opacity="0.6"/>
</linearGradient>
<linearGradient id="paint2_linear_14685_121465" x1="-28.5" y1="381.5" x2="374.5" y2="-66.9999" gradientUnits="userSpaceOnUse">
<stop stop-color="#1584B2" stop-opacity="0"/>
<stop offset="1" stop-color="#0B3546" stop-opacity="0.6"/>
</linearGradient>
</defs>
</svg>
