<svg width="71" height="47" viewBox="0 0 71 47" fill="none" xmlns="http://www.w3.org/2000/svg">
<path d="M40.5301 18.4666C38.2789 18.4666 36.3277 20.0195 35.7266 21.8842H43.9821C43.9821 19.865 42.632 18.4666 40.5301 18.4666Z" fill="#FF073C"/>
<path d="M35.4254 0.135742C15.9114 0.135742 0 8.52397 0 21.1049C0 29.1815 6.60418 36.327 16.5111 40.3653L15.4609 46.2682C44.4313 48.7535 71 39.2785 71 21.4152C70.8494 6.34899 51.3367 0.135742 35.4254 0.135742Z" fill="#FF073C"/>
<path d="M38.8212 33.3381C42.8744 33.3381 46.1758 31.319 47.6779 27.5911H42.7238C41.8228 28.8337 40.7725 29.4543 39.1211 29.4543C37.0192 29.4543 35.3679 27.9014 35.2186 25.8822H48.1271C50.0783 19.669 46.9262 14.8542 40.6219 14.8542C35.5185 14.8542 31.9158 17.8057 31.0148 22.7763C29.9659 28.8337 33.2673 33.3381 38.8212 33.3381ZM40.6232 18.7367C42.8744 18.7367 44.2259 20.1352 44.2259 22.1543H35.9703C36.4195 20.291 38.2214 18.7367 40.6232 18.7367Z" fill="#F8F6F3"/>
<path d="M27.1145 33.3397H28.3154L29.2164 28.8353H28.1661C26.5147 28.8353 25.7643 27.5926 26.0642 25.7294L27.2651 19.2058H31.0183L31.9193 14.7014H28.1647L28.9151 10.3528H24.1116L21.2593 25.5749C20.5103 30.0779 22.3109 33.3397 27.1145 33.3397Z" fill="#F8F6F3"/>
<path d="M55.7845 33.3384H57.136L58.037 28.834H56.9867C55.3354 28.834 54.4344 27.5913 54.8849 25.7281L57.7371 10.3501H52.9336L50.0813 25.5722C49.179 30.3869 51.2809 33.3384 55.7845 33.3384Z" fill="#F8F6F3"/>
<path d="M22.3098 10.5068H17.5062L16.7559 15.0113H21.4088L22.3098 10.5068Z" fill="#F8F6F3"/>
<path d="M21.109 16.8713H16.3055L13.1533 33.3361H17.9569L21.109 16.8713Z" fill="#F8F6F3"/>
</svg>
