<svg width="284" height="49" viewBox="0 0 284 49" fill="none" xmlns="http://www.w3.org/2000/svg">
<path d="M10.1918 46.4834C10.1918 47.9234 11.0318 48.7634 12.4718 48.7634V0.763428C11.0318 0.763428 10.1918 1.60343 10.1918 3.04343V3.16343C10.1918 4.60343 9.2318 5.32343 7.9118 5.32343H7.6718C6.2318 5.32343 5.1518 6.40343 5.1518 7.84343V8.08343C5.1518 9.40343 4.4318 10.3634 2.9918 10.3634H2.8718C1.4318 10.3634 0.591797 11.2034 0.591797 12.6434V36.8834C0.591797 38.3234 1.4318 39.1634 2.8718 39.1634H2.9918C4.4318 39.1634 5.1518 40.1234 5.1518 41.4434V41.6834C5.1518 43.1234 6.2318 44.2034 7.6718 44.2034H7.9118C9.2318 44.2034 10.1918 44.9234 10.1918 46.3634V46.4834Z" fill="white"/>
<rect width="259" height="48" transform="translate(12.4717 0.763428)" fill="white"/>
<path d="M23.7997 30.7634H21.9917V19.5634H29.9837V21.2754H23.7997V24.2674H29.6157V25.9794H23.7997V30.7634ZM37.5914 30.9714C34.1514 30.9714 31.7274 28.5074 31.7274 25.1634C31.7274 21.8194 34.1514 19.3554 37.5914 19.3554C41.0314 19.3554 43.4554 21.8194 43.4554 25.1634C43.4554 28.5074 41.0314 30.9714 37.5914 30.9714ZM37.5914 29.2354C39.8794 29.2354 41.5594 27.5794 41.5594 25.1634C41.5594 22.7474 39.8794 21.0914 37.5914 21.0914C35.3034 21.0914 33.6234 22.7474 33.6234 25.1634C33.6234 27.5794 35.3034 29.2354 37.5914 29.2354ZM53.8903 30.7634H45.8823V19.5634H47.6903V29.0514H53.8903V30.7634ZM63.7184 30.7634H55.7104V19.5634H57.5184V29.0514H63.7184V30.7634ZM70.3102 30.9714C66.8702 30.9714 64.4462 28.5074 64.4462 25.1634C64.4462 21.8194 66.8702 19.3554 70.3102 19.3554C73.7502 19.3554 76.1742 21.8194 76.1742 25.1634C76.1742 28.5074 73.7502 30.9714 70.3102 30.9714ZM70.3102 29.2354C72.5982 29.2354 74.2782 27.5794 74.2782 25.1634C74.2782 22.7474 72.5982 21.0914 70.3102 21.0914C68.0222 21.0914 66.3422 22.7474 66.3422 25.1634C66.3422 27.5794 68.0222 29.2354 70.3102 29.2354ZM82.9648 30.7634H80.7248L77.3088 19.5634H79.2048L81.8688 28.6754L84.6368 19.5634H86.6928L89.4528 28.6754L92.1248 19.5634H93.9808L90.5648 30.7634H88.3248L85.6448 22.0194L82.9648 30.7634ZM104.639 30.9634C101.991 30.9634 99.8866 29.4594 99.8866 26.3474V19.5634H101.695V26.2114C101.695 28.3474 102.903 29.2274 104.639 29.2274C106.375 29.2274 107.583 28.3474 107.583 26.2114V19.5634H109.391V26.3474C109.391 29.4594 107.287 30.9634 104.639 30.9634ZM116.169 30.9634C114.649 30.9634 112.825 30.4594 111.665 29.4594L112.649 28.0194C113.417 28.7234 114.865 29.2514 116.161 29.2514C117.625 29.2514 118.777 28.6274 118.777 27.5954C118.777 26.7154 117.897 26.3074 116.257 26.0834L115.385 25.9634C113.721 25.7314 112.065 24.9474 112.065 22.8674C112.065 20.6194 114.057 19.3714 116.481 19.3714C118.113 19.3714 119.401 19.8274 120.529 20.5794L119.609 22.0434C118.657 21.4354 117.601 21.0834 116.465 21.0834C114.969 21.0834 113.945 21.7314 113.945 22.7554C113.945 23.6834 114.817 24.0434 116.273 24.2514L117.049 24.3554C118.865 24.6034 120.657 25.3554 120.657 27.4354C120.657 29.7154 118.593 30.9634 116.169 30.9634ZM133.766 33.3074C129.894 33.3074 127.158 30.5314 127.158 26.7634C127.158 23.0354 129.894 20.2594 133.766 20.2594C137.638 20.2594 140.374 22.9794 140.374 26.4434C140.374 28.5074 139.358 30.0354 137.542 30.0354C136.502 30.0354 135.902 29.5874 135.606 29.0034C135.158 29.5954 134.478 29.9874 133.51 29.9874C131.71 29.9874 130.398 28.6274 130.398 26.7634C130.398 24.8994 131.734 23.5394 133.462 23.5394C134.326 23.5394 134.95 23.8674 135.374 24.3714V23.6994H136.806V27.0834C136.806 28.2114 137.014 28.7154 137.614 28.7154C138.31 28.7154 138.846 28.0994 138.846 26.4434C138.846 23.6354 136.71 21.6034 133.766 21.6034C130.822 21.6034 128.686 23.7074 128.686 26.7634C128.686 29.8594 130.822 31.9634 133.766 31.9634C134.998 31.9634 136.11 31.5954 137.086 30.9394L137.862 32.0194C136.662 32.8914 135.27 33.3074 133.766 33.3074ZM133.662 28.6354C134.726 28.6354 135.446 27.8354 135.446 26.7634C135.446 25.6914 134.726 24.8914 133.662 24.8914C132.558 24.8914 131.878 25.7314 131.878 26.7634C131.878 27.7954 132.558 28.6354 133.662 28.6354ZM144.987 30.7634H143.179V19.5634H144.987V30.7634ZM152.239 30.7634H150.431V21.2754H146.807V19.5634H155.863V21.2754H152.239V30.7634ZM165.847 30.7634H157.679V19.5634H165.743V21.2594H159.487V24.2754H165.527V25.9714H159.487V29.0674H165.847V30.7634ZM176.593 30.7634H168.585V19.5634H170.393V29.0514H176.593V30.7634ZM184.454 33.1874H176.854V31.6674H184.454V33.1874ZM187.737 30.7634H185.929V19.5634H187.737V30.7634ZM192.589 30.7634H190.773V19.5634H192.405L198.661 27.6674V19.5634H200.469V30.7634H198.837L192.589 22.6594V30.7634ZM207.955 30.7634H203.507V19.5634H207.955C211.459 19.5634 213.771 21.7874 213.771 25.1634C213.771 28.5394 211.459 30.7634 207.955 30.7634ZM205.315 21.2754V29.0514H207.955C210.587 29.0514 211.875 27.4194 211.875 25.1634C211.875 22.8834 210.587 21.2754 207.955 21.2754H205.315ZM218.018 30.7634H216.21V19.5634H218.018V30.7634ZM221.654 30.7634H219.774L224.198 19.5634H226.454L230.878 30.7634H228.934L227.83 27.9074H222.758L221.654 30.7634ZM225.294 21.3634L223.422 26.1954H227.166L225.294 21.3634Z" fill="#232323"/>
<path d="M257.202 23.5683C256.822 23.4204 256.567 23.0553 256.567 22.6043V22.5058C256.567 21.9142 256.323 21.6677 255.738 21.6677H255.641C255.056 21.6677 254.617 21.224 254.617 20.6325V20.5339C254.617 19.9423 254.373 19.6959 253.788 19.6959H253.691C253.106 19.6959 252.667 19.2522 252.667 18.6607V18.562C252.667 17.9706 253.106 17.5269 253.691 17.5269H253.788C254.373 17.5269 254.812 17.9706 254.812 18.562V18.6607C254.812 19.2522 255.056 19.4987 255.641 19.4987H255.738C256.323 19.4987 256.762 19.9423 256.762 20.5339V20.6325C256.762 21.224 257.005 21.4705 257.59 21.4705H257.688C258.273 21.4705 258.711 21.9142 258.711 22.5058V22.6043C258.711 23.1466 259.004 23.5409 259.588 23.5409H259.637C260.149 23.5409 260.563 23.9603 260.563 24.4775V24.5762C260.563 25.0934 260.149 25.5128 259.637 25.5128H259.588C259.004 25.5128 258.711 25.9071 258.711 26.4494V26.548C258.711 27.1395 258.273 27.5832 257.688 27.5832H257.59C257.005 27.5832 256.762 27.8297 256.762 28.4212V28.5198C256.762 29.1114 256.323 29.555 255.738 29.555H255.641C255.056 29.555 254.812 29.8015 254.812 30.393V30.4917C254.812 31.0832 254.373 31.5269 253.788 31.5269H253.691C253.106 31.5269 252.667 31.0832 252.667 30.4917V30.393C252.667 29.8015 253.106 29.3578 253.691 29.3578H253.788C254.373 29.3578 254.617 29.1114 254.617 28.5198V28.4212C254.617 27.8297 255.056 27.386 255.641 27.386H255.738C256.323 27.386 256.567 27.1395 256.567 26.548V26.4494C256.567 25.9891 256.832 25.6184 257.225 25.4765H241.507C240.986 25.4765 240.563 25.0493 240.563 24.5224C240.563 23.9955 240.986 23.5683 241.507 23.5683H257.202Z" fill="#FF0037"/>
<path d="M273.752 46.4834C273.752 47.9234 272.912 48.7634 271.472 48.7634V0.763428C272.912 0.763428 273.752 1.60343 273.752 3.04343V3.16343C273.752 4.60343 274.712 5.32343 276.032 5.32343H276.272C277.712 5.32343 278.792 6.40343 278.792 7.84343V8.08343C278.792 9.40343 279.512 10.3634 280.952 10.3634H281.072C282.512 10.3634 283.352 11.2034 283.352 12.6434V36.8834C283.352 38.3234 282.512 39.1634 281.072 39.1634H280.952C279.512 39.1634 278.792 40.1234 278.792 41.4434V41.6834C278.792 43.1234 277.712 44.2034 276.272 44.2034H276.032C274.712 44.2034 273.752 44.9234 273.752 46.3634V46.4834Z" fill="white"/>
</svg>
