<svg width="21" height="14" viewBox="0 0 21 14" fill="none" xmlns="http://www.w3.org/2000/svg">
<path d="M17.1384 6.04146C16.7581 5.8935 16.5031 5.52844 16.5031 5.07748V4.9789C16.5031 4.38733 16.2591 4.14088 15.6747 4.14088H15.5774C14.9922 4.14088 14.5537 3.69718 14.5537 3.10561V3.00703C14.5537 2.41547 14.3097 2.16902 13.7245 2.16902H13.6272C13.0427 2.16902 12.6035 1.72532 12.6035 1.13385V1.03517C12.6035 0.443699 13.0427 0 13.6272 0H13.7245C14.3097 0 14.7482 0.443699 14.7482 1.03517V1.13385C14.7482 1.72532 14.9922 1.97186 15.5774 1.97186H15.6747C16.2591 1.97186 16.6984 2.41547 16.6984 3.00703V3.10561C16.6984 3.69718 16.9416 3.94363 17.5268 3.94363H17.6241C18.2093 3.94363 18.6478 4.38733 18.6478 4.9789V5.07748C18.6478 5.61975 18.9404 6.01407 19.5249 6.01407H19.5736C20.0851 6.01407 20.5 6.43345 20.5 6.95066V7.04934C20.5 7.56655 20.0851 7.98593 19.5736 7.98593H19.5249C18.9404 7.98593 18.6478 8.38025 18.6478 8.92253V9.0211C18.6478 9.61267 18.2093 10.0564 17.6241 10.0564H17.5268C16.9416 10.0564 16.6984 10.3028 16.6984 10.8944V10.993C16.6984 11.5845 16.2591 12.0281 15.6747 12.0281H15.5774C14.9922 12.0281 14.7482 12.2747 14.7482 12.8662V12.9648C14.7482 13.5563 14.3097 14 13.7245 14H13.6272C13.0427 14 12.6035 13.5563 12.6035 12.9648V12.8662C12.6035 12.2747 13.0427 11.831 13.6272 11.831H13.7245C14.3097 11.831 14.5537 11.5845 14.5537 10.993V10.8944C14.5537 10.3028 14.9922 9.85912 15.5774 9.85912H15.6747C16.2591 9.85912 16.5031 9.61267 16.5031 9.0211V8.92253C16.5031 8.46224 16.7684 8.09159 17.162 7.94969H1.4434C0.922318 7.94969 0.5 7.52248 0.5 6.99557C0.5 6.46867 0.922318 6.04146 1.4434 6.04146H17.1384Z" fill="#FF0037"/>
</svg>
