<svg width="68" height="68" viewBox="0 0 68 68" fill="none" xmlns="http://www.w3.org/2000/svg">
<path d="M50.8296 62.3703L50.8296 62.1793C50.8296 59.8869 52.3467 58.7407 54.4326 58.7407L54.8118 58.7407C57.0874 58.7407 58.7941 57.0214 58.7941 54.7289L58.7941 54.3469C58.7941 52.2455 59.9319 50.7172 62.2074 50.7172L62.397 50.7172C64.6726 50.7172 66 49.38 66 47.0875L66 20.9125C66 18.62 64.6726 17.2828 62.397 17.2828L62.2074 17.2828C59.9319 17.2828 58.7941 15.7545 58.7941 13.6531L58.7941 13.2711C58.7941 10.9786 57.0874 9.25933 54.8118 9.25933L54.4326 9.25933C52.3467 9.25933 50.8296 8.11312 50.8296 5.8207L50.8296 5.62966C50.8296 3.33724 49.5022 2 47.2267 2L20.7733 2C18.4978 2 17.1704 3.33724 17.1704 5.62966L17.1704 5.8207C17.1704 8.11312 15.6533 9.25933 13.5674 9.25933L13.1882 9.25933C10.9126 9.25933 9.20592 10.9786 9.20592 13.2711L9.20592 13.6531C9.20592 15.7545 8.06815 17.2828 5.79259 17.2828L5.60296 17.2828C3.3274 17.2828 2 18.62 2 20.9125L2 47.0875C2 49.3799 3.3274 50.7172 5.60296 50.7172L5.79259 50.7172C8.06814 50.7172 9.20592 52.2455 9.20592 54.3469L9.20592 54.7289C9.20592 57.0214 10.9126 58.7407 13.1881 58.7407L13.5674 58.7407C15.6533 58.7407 17.1704 59.8869 17.1704 62.1793L17.1704 62.3703C17.1704 64.6627 18.4978 66 20.7733 66L47.2267 66C49.5022 66 50.8296 64.6627 50.8296 62.3703Z" stroke="#050036" stroke-width="4"/>
<path d="M46.481 35.6399C42.9599 35.6399 40.1084 32.7021 40.1084 27.82C40.1084 22.9271 42.9599 20 46.481 20C49.9914 20 52.8645 22.9271 52.8645 27.82C52.8645 32.7021 49.9914 35.6399 46.481 35.6399ZM46.481 33.3933C48.6628 33.3933 50.4126 31.4707 50.4126 27.82C50.4126 24.1692 48.6628 22.2466 46.481 22.2466C44.3208 22.2466 42.5602 24.1692 42.5602 27.82C42.5602 31.4707 44.3208 33.3933 46.481 33.3933Z" fill="#FF0037"/>
<path d="M31.1031 35.6399C27.5819 35.6399 24.7305 32.7021 24.7305 27.82C24.7305 22.9271 27.5819 20 31.1031 20C34.6134 20 37.4865 22.9271 37.4865 27.82C37.4865 32.7021 34.6134 35.6399 31.1031 35.6399ZM31.1031 33.3933C33.2849 33.3933 35.0347 31.4707 35.0347 27.82C35.0347 24.1692 33.2849 22.2466 31.1031 22.2466C28.9429 22.2466 27.1823 24.1692 27.1823 27.82C27.1823 31.4707 28.9429 33.3933 31.1031 33.3933Z" fill="#FF0037"/>
<path d="M21.3257 35.3816H18.9819V23.4248L15.1367 25.0774V22.6363L21.3257 20.0225V35.3816Z" fill="#FF0037"/>
<path d="M46.8725 48.0001C45.6938 48.0001 44.2794 47.6093 43.3799 46.8338L44.1429 45.7172C44.7385 46.2631 45.8613 46.6725 46.8663 46.6725C48.0016 46.6725 48.8949 46.1887 48.8949 45.3884C48.8949 44.706 48.2125 44.3896 46.9407 44.2159L46.2646 44.1229C44.9742 43.943 43.6901 43.335 43.6901 41.7221C43.6901 39.9789 45.2348 39.0111 47.1144 39.0111C48.38 39.0111 49.3788 39.3647 50.2535 39.9479L49.54 41.0831C48.8018 40.6116 47.9829 40.3387 47.102 40.3387C45.942 40.3387 45.1479 40.8412 45.1479 41.6352C45.1479 42.3548 45.8241 42.634 46.9532 42.7953L47.5549 42.8759C48.9631 43.0683 50.3527 43.6514 50.3527 45.2643C50.3527 47.0324 48.7522 48.0001 46.8725 48.0001Z" fill="#FF0037"/>
<path d="M39.4467 47.8446H38.0447V44.2961L34.6699 39.1595H36.3449L38.7519 43.0492L41.1651 39.1595H42.7966L39.4467 44.3209V47.8446Z" fill="#FF0037"/>
<path d="M28.0194 47.8446H26.5615L29.9921 39.1595H31.7415L35.1721 47.8446H33.6646L32.8085 45.6299H28.8755L28.0194 47.8446ZM30.842 40.5554L29.3904 44.3023H32.2936L30.842 40.5554Z" fill="#FF0037"/>
<path d="M21.3955 47.8438H17.9463V39.1588H21.3955C24.1127 39.1588 25.9055 40.8834 25.9055 43.5013C25.9055 46.1192 24.1127 47.8438 21.3955 47.8438ZM19.3483 40.4864V46.5163H21.3955C23.4365 46.5163 24.4352 45.2507 24.4352 43.5013C24.4352 41.7333 23.4365 40.4864 21.3955 40.4864H19.3483Z" fill="#FF0037"/>
</svg>
