<svg width="44" height="54" viewBox="0 0 44 54" fill="none" xmlns="http://www.w3.org/2000/svg">
<g id="vuesax/twotone/mobile">
<g id="mobile">
<path id="Subtract" fill-rule="evenodd" clip-rule="evenodd" d="M30.416 0.267781C30.103 0.262562 29.7851 0.260132 29.4626 0.260132H14.538C9.57653 0.260132 5.72802 0.835136 3.26919 3.29397C0.810355 5.7528 0.235352 9.60131 0.235352 14.5628V39.4371C0.235352 44.3986 0.810355 48.2471 3.26919 50.7059C5.72802 53.1648 9.57653 53.7398 14.538 53.7398H29.4626C34.4241 53.7398 38.2726 53.1648 40.7315 50.7059C43.1903 48.2471 43.7653 44.3986 43.7653 39.4371V15.8895H40.0342V39.4371C40.0342 44.4253 39.3654 46.7953 38.0931 48.0676C36.8208 49.3399 34.4508 50.0086 29.4626 50.0086H14.538C9.54986 50.0086 7.17981 49.3399 5.9075 48.0676C4.6352 46.7953 3.96649 44.4253 3.96649 39.4371V14.5628C3.96649 9.57464 4.6352 7.20459 5.9075 5.93228C7.17981 4.65998 9.54986 3.99127 14.538 3.99127H29.4626C29.7916 3.99127 30.1093 3.99418 30.416 3.99998V0.267781Z" fill="#FF0037"/>
<path id="Vector (Stroke)" fill-rule="evenodd" clip-rule="evenodd" d="M15.1592 10.8318C15.1592 9.80143 15.9944 8.96619 17.0247 8.96619H26.9744C28.0048 8.96619 28.84 9.80143 28.84 10.8318C28.84 11.8621 28.0048 12.6973 26.9744 12.6973H17.0247C15.9944 12.6973 15.1592 11.8621 15.1592 10.8318Z" fill="#FF0037"/>
<path id="O (Stroke)" fill-rule="evenodd" clip-rule="evenodd" d="M22.4656 38.1243L20.8285 38.1243C20.7414 38.2622 20.6328 38.393 20.5003 38.5117C20.342 38.6534 20.1727 38.7571 20.0025 38.8314C19.9294 39.0021 19.8269 39.1723 19.6861 39.3319C19.5674 39.4664 19.436 39.5769 19.2971 39.6655L19.2971 41.283C19.436 41.3717 19.5674 41.4821 19.6861 41.6167C19.8269 41.7762 19.9294 41.9464 20.0025 42.1171C20.1727 42.1914 20.342 42.2951 20.5003 42.4369C20.6328 42.5556 20.7414 42.6863 20.8285 42.8243L22.4656 42.8243C22.5528 42.6863 22.6613 42.5556 22.7939 42.4369C22.9522 42.2951 23.1214 42.1914 23.2916 42.1171C23.3647 41.9464 23.4673 41.7762 23.608 41.6167C23.7268 41.4821 23.8581 41.3717 23.9971 41.283L23.9971 39.6655C23.8581 39.5769 23.7268 39.4664 23.608 39.3319C23.4673 39.1723 23.3647 39.0021 23.2916 38.8314C23.1215 38.7571 22.9522 38.6534 22.7939 38.5117C22.6613 38.393 22.5528 38.2622 22.4656 38.1243ZM26.4476 37.5212C26.869 37.9457 26.9971 38.4748 26.9971 38.8997L26.9971 42.0489C26.9971 42.4737 26.869 43.0028 26.4476 43.4274C26.2957 43.5803 26.1299 43.6954 25.9599 43.7801C25.7645 44.2217 25.4133 44.5778 24.9711 44.7768C24.8877 44.947 24.7741 45.1133 24.6224 45.2661C24.1995 45.6921 23.6684 45.8243 23.2384 45.8243L20.0557 45.8243C19.6257 45.8243 19.0947 45.6921 18.6718 45.2661C18.5201 45.1133 18.4064 44.9469 18.323 44.7768C17.8808 44.5778 17.5296 44.2217 17.3343 43.7801C17.1642 43.6954 16.9984 43.5803 16.8466 43.4274C16.4251 43.0028 16.2971 42.4737 16.2971 42.0489L16.2971 38.8997C16.2971 38.4748 16.4251 37.9457 16.8466 37.5212C16.9984 37.3682 17.1642 37.2531 17.3343 37.1684C17.5296 36.7268 17.8808 36.3708 18.323 36.1717C18.4064 36.0016 18.5201 35.8352 18.6718 35.6824C19.0947 35.2564 19.6257 35.1243 20.0557 35.1243L23.2384 35.1243C23.6684 35.1243 24.1995 35.2564 24.6224 35.6824C24.7741 35.8352 24.8877 36.0016 24.9711 36.1717C25.4133 36.3708 25.7645 36.7268 25.9599 37.1684C26.1299 37.2531 26.2957 37.3682 26.4476 37.5212Z" fill="#050036"/>
</g>
</g>
</svg>
