<svg width="64" height="67" viewBox="0 0 64 67" fill="none" xmlns="http://www.w3.org/2000/svg">
<g id="vuesax/twotone/receipt-text">
<g id="vuesax/twotone/mobile">
<g id="mobile">
<path id="Vector" d="M58.4023 26.9386V51.8128C58.4023 61.7625 55.9149 64.25 45.9652 64.25H31.0406C21.0909 64.25 18.6035 61.7625 18.6035 51.8128V26.9386C18.6035 16.9889 21.0909 14.5015 31.0406 14.5015H45.9652C55.9149 14.5015 58.4023 16.9889 58.4023 26.9386Z" stroke="#FF0037" stroke-width="3.73114" stroke-linecap="round" stroke-linejoin="round"/>
<path id="Vector_2" d="M43.477 23.2075H33.5273" stroke="#FF0037" stroke-width="3.73114" stroke-linecap="round" stroke-linejoin="round"/>
<path id="O" d="M40.1748 56.2633L40.1748 56.2403C40.1748 55.9645 40.3573 55.8266 40.6083 55.8266L40.6539 55.8266C40.9277 55.8266 41.133 55.6198 41.133 55.344L41.133 55.298C41.133 55.0452 41.2699 54.8613 41.5437 54.8613L41.5665 54.8613C41.8403 54.8613 42 54.7004 42 54.4246L42 51.2754C42 50.9996 41.8403 50.8387 41.5665 50.8387L41.5437 50.8387C41.2699 50.8387 41.133 50.6548 41.133 50.402L41.133 50.356C41.133 50.0802 40.9277 49.8734 40.6539 49.8734L40.6083 49.8734C40.3573 49.8734 40.1748 49.7355 40.1748 49.4597L40.1748 49.4367C40.1748 49.1609 40.0151 49 39.7413 49L36.5587 49C36.2849 49 36.1252 49.1609 36.1252 49.4367L36.1252 49.4597C36.1252 49.7355 35.9427 49.8734 35.6917 49.8734L35.6461 49.8734C35.3723 49.8734 35.167 50.0802 35.167 50.356L35.167 50.402C35.167 50.6548 35.0301 50.8387 34.7563 50.8387L34.7335 50.8387C34.4597 50.8387 34.3 50.9996 34.3 51.2754L34.3 54.4246C34.3 54.7004 34.4597 54.8613 34.7335 54.8613L34.7563 54.8613C35.0301 54.8613 35.167 55.0452 35.167 55.298L35.167 55.3439C35.167 55.6198 35.3723 55.8266 35.6461 55.8266L35.6917 55.8266C35.9427 55.8266 36.1252 55.9645 36.1252 56.2403L36.1252 56.2633C36.1252 56.5391 36.2849 56.7 36.5587 56.7L39.7413 56.7C40.0151 56.7 40.1748 56.5391 40.1748 56.2633Z" stroke="#FF0037" stroke-width="3"/>
</g>
<path id="Vector_3" d="M44.8252 8.06961C43.5297 3.56003 40.1937 2.25 32.9276 2.25H17.8144C7.73901 2.25 5.22016 4.76886 5.22016 14.8443V40.0329C5.22016 47.9511 6.77588 51.2022 12.3326 52.2313" stroke="#050036" stroke-width="3.77829" stroke-linecap="round" stroke-linejoin="round"/>
</g>
</g>
</svg>
