<svg width="334" height="447" viewBox="0 0 334 447" fill="none" xmlns="http://www.w3.org/2000/svg">
<path d="M9.88552 266.616L80.4462 277.413C84.295 342.514 100.657 400.977 127.937 446.683L292.262 446.683L333.34 391.976L333.342 231.747L333.339 52.2623L292.261 0.790823L109.73 0.790824C68.1535 79.2421 33.8146 169.907 9.88552 266.616Z" fill="#FF073C"/>
<path d="M209.334 127.604C205.205 127.604 201.626 130.45 200.523 133.869H215.666C215.666 130.167 213.189 127.604 209.334 127.604Z" fill="#FF073C"/>
<path d="M199.973 94C164.18 94 134.996 109.377 134.996 132.441C134.996 147.247 147.109 160.346 165.281 167.749L163.354 178.57C216.491 183.126 265.223 165.757 265.223 133.01C264.947 105.39 229.157 94 199.973 94Z" fill="white"/>
<path d="M206.205 154.866C213.639 154.866 219.694 151.164 222.449 144.33H213.363C211.71 146.608 209.784 147.746 206.755 147.746C202.899 147.746 199.87 144.899 199.597 141.198H223.273C226.852 129.808 221.071 120.981 209.507 120.981C200.147 120.981 193.539 126.392 191.886 135.504C189.962 146.608 196.018 154.866 206.205 154.866ZM209.51 128.098C213.639 128.098 216.118 130.662 216.118 134.364H200.975C201.799 130.948 205.104 128.098 209.51 128.098Z" fill="#FF073C"/>
<path d="M184.731 154.87H186.934L188.586 146.613H186.66C183.631 146.613 182.254 144.335 182.805 140.919L185.007 128.96H191.891L193.544 120.702H186.657L188.034 112.73H179.223L173.992 140.636C172.618 148.891 175.92 154.87 184.731 154.87Z" fill="#FF073C"/>
<path d="M237.322 154.867H239.801L241.453 146.609H239.527C236.498 146.609 234.845 144.331 235.672 140.915L240.903 112.725H232.093L226.861 140.63C225.206 149.456 229.061 154.867 237.322 154.867Z" fill="#FF073C"/>
<path d="M175.921 113.012H167.111L165.734 121.269H174.269L175.921 113.012Z" fill="#FF073C"/>
<path d="M173.717 124.679H164.907L159.125 154.862H167.936L173.717 124.679Z" fill="#FF073C"/>
</svg>
