<svg width="32" height="76" viewBox="0 0 32 76" fill="none" xmlns="http://www.w3.org/2000/svg">
<path id="Vector" d="M1.03285 72.6489C2.51473 72.3251 3.98859 71.8531 5.5394 71.2062C5.55795 71.1976 5.60398 71.1462 5.6184 71.1C5.77298 70.5786 5.82474 70.0534 5.7771 69.4941C5.47345 65.9239 7.62218 62.1619 10.8857 60.549C10.9551 60.5142 11.0274 60.484 11.1108 60.4503L11.1882 60.4185C11.2617 60.3875 11.3513 60.4004 11.4106 60.4475C11.4747 60.4965 11.5065 60.5762 11.4935 60.6562L11.4042 61.2037C11.3249 61.6881 11.2473 62.1621 11.1729 62.6366L11.1541 62.7607C10.9445 64.1091 10.7279 65.5035 10.3059 66.8431C9.92503 68.0517 9.33741 69.0054 8.5201 69.7361C10.2468 68.7287 11.8558 67.5181 13.317 66.1257C13.3477 66.0965 13.3841 66.019 13.3894 65.9551L13.4285 64.9996C13.4288 64.9656 13.4292 64.8755 13.4098 64.8308C12.69 63.1718 12.5057 61.3043 12.8457 59.122C13.1737 57.0173 14.0819 55.0818 15.5454 53.369C15.7167 53.1685 15.8679 53.067 15.9947 53.067C16.0257 53.067 16.0536 53.0731 16.0756 53.0844C16.1429 53.1175 16.1885 53.1817 16.1974 53.2557L16.2366 53.5891C16.2668 53.8365 16.2959 54.0794 16.322 54.3227C16.3671 54.7514 16.4166 55.1795 16.4663 55.6077L16.4734 55.6695C16.597 56.7388 16.7253 57.8445 16.793 58.9516C16.8718 60.2432 16.8485 61.7515 16.077 63.1468C16.0728 63.1539 16.0692 63.1613 16.065 63.1684C17.1375 61.8415 18.1165 60.4135 18.9899 58.9004C19.067 58.7658 19.0737 58.6478 19.0593 58.4765C18.9972 57.7521 18.6569 57.1634 18.2985 56.6355C17.6062 55.6131 17.1872 54.4048 16.9396 52.7172C16.5936 50.357 16.943 47.9895 17.9777 45.6797C18.0061 45.616 18.0393 45.5546 18.0748 45.4887L18.1556 45.3378C18.1943 45.2641 18.277 45.2156 18.3642 45.2195C18.4513 45.224 18.528 45.2786 18.5596 45.3579C18.8106 45.9842 19.0533 46.5876 19.2944 47.1865L19.4486 47.5692C19.9629 48.8473 20.5398 50.3396 20.875 51.8792C21.1114 52.9657 21.1258 54.0144 20.9185 55.0127C21.7228 53.1187 22.3839 51.1172 22.8902 49.042C22.896 49.0188 22.8978 48.959 22.8477 48.821C22.6109 48.1798 22.1797 47.5984 21.6333 47.184C20.4372 46.2763 19.7586 45.0146 19.2528 43.9003C18.217 41.6213 17.936 39.2003 18.394 36.4982C18.3988 36.4699 18.4075 36.4418 18.4178 36.4112L18.4261 36.3868C18.446 36.3263 18.4913 36.2773 18.5513 36.2517C18.61 36.2275 18.6837 36.232 18.7293 36.2542C18.7751 36.2707 18.8445 36.2959 18.8896 36.3614C19.1488 36.704 19.4119 37.0497 19.6753 37.3953L19.7195 37.4535C20.3836 38.3261 21.0704 39.2279 21.7303 40.1263C22.495 41.1643 23.035 42.1733 23.3815 43.211C23.5486 43.7122 23.6579 44.1946 23.7094 44.6632C23.9295 42.9795 24.0543 41.2604 24.0815 39.527C24.0879 39.1132 24.0348 38.7845 23.7492 38.4244C23.447 38.0406 23.1646 37.8262 22.7753 37.6849C21.1757 37.1066 20.1495 35.8846 19.4344 34.8847C18.279 33.2671 17.6014 31.3849 17.3628 29.1304C17.3374 28.8984 17.323 28.6636 17.3081 28.4153L17.3044 28.3589C17.2973 28.2381 17.2898 28.1123 17.2801 27.9791C17.2742 27.8907 17.322 27.8078 17.402 27.7677C17.4794 27.7292 17.5785 27.7405 17.6459 27.7969L17.8357 27.9578C17.9071 28.0181 17.9683 28.0697 18.0317 28.12C18.3365 28.3623 18.6425 28.602 18.9491 28.8424L18.9812 28.8673C19.6542 29.3948 20.3504 29.9402 21.0152 30.5035C22.3051 31.592 23.1357 32.6755 23.6292 33.9138C23.7108 34.118 23.7822 34.3199 23.8436 34.5197C23.6407 32.552 23.3112 30.6143 22.8586 28.7343C22.8037 28.5043 22.773 28.4368 22.6601 28.4001C22.5891 28.3763 22.5229 28.3305 22.4746 28.2739C22.1464 27.9048 21.7143 27.8463 21.2957 27.838C19.8988 27.8055 18.7909 27.1161 17.8916 26.4458C15.6865 24.8026 14.1682 20.6335 14.1682 20.4921C14.1682 20.4184 14.2053 20.3498 14.2683 20.3083C14.3304 20.2678 14.4142 20.2621 14.4774 20.29C14.9368 20.4828 15.3961 20.6706 15.8718 20.8653C16.9183 21.2946 18.0004 21.7383 19.0396 22.2234C20.0854 22.7131 20.9119 23.3679 21.5027 24.1736C20.9396 22.5905 20.2867 21.0384 19.5557 19.5468C19.4717 19.3859 19.0769 19.2151 18.5108 19.2151C18.3267 19.2151 18.1483 19.2345 17.9942 19.2712C16.6641 19.5866 15.3453 19.3954 13.8856 18.6737C12.3923 17.9351 11.1534 16.7274 10.0982 14.9806C10.078 14.9469 10.0384 14.8438 10.0171 14.786C9.9903 14.7153 10.0011 14.6374 10.0455 14.5782C10.0867 14.522 10.1527 14.4885 10.2367 14.4885C10.2374 14.4885 10.2378 14.4885 10.2385 14.4885L10.7657 14.5214C11.0888 14.5415 11.4026 14.5612 11.7163 14.5771L12.0513 14.5939C13.0516 14.6437 14.0862 14.6949 15.0984 14.9335C16.2528 15.2081 17.1004 15.6298 17.7503 16.2552C16.9811 14.9883 16.1573 13.7829 15.2896 12.6538C15.2663 12.6239 15.1543 12.5782 15.0625 12.563C15.0167 12.5523 14.85 12.5177 14.6283 12.5177C14.3342 12.5177 14.0768 12.5768 13.8586 12.6955C12.472 13.3665 10.9148 13.4163 9.22405 12.8417C7.83721 12.3729 6.66266 11.5021 5.63306 10.1804C5.59963 10.1378 5.5694 10.0914 5.54192 10.0425C5.51054 9.98604 5.50848 9.92395 5.53596 9.86731C5.61566 9.7019 5.96053 9.62418 6.10572 9.59835C6.46205 9.53672 6.86578 9.46648 7.26608 9.41278C7.44951 9.3874 7.63317 9.36089 7.81729 9.33393L7.84088 9.3303C8.46468 9.23922 9.10955 9.14496 9.75923 9.11255C10.9464 9.05251 12.0005 9.29224 12.8631 9.8229C12.2831 9.21203 11.6904 8.63242 11.0886 8.08794C10.8983 7.91619 10.683 7.74308 10.3897 7.52578C10.367 7.50856 10.3093 7.4884 10.2385 7.48432C8.15942 7.40388 6.4293 6.49573 4.94995 4.70843C4.14408 3.73548 3.52624 2.5083 3.06067 0.956646L3.04464 0.903399C2.99495 0.740258 2.96747 0.65053 3.08174 0.545395C3.16991 0.464277 3.32517 0.488296 3.72867 0.646452C4.09508 0.785801 4.46377 0.921073 4.84231 1.05997C5.60283 1.33889 6.38946 1.62734 7.1486 1.95316C8.41728 2.49878 9.43038 3.32581 10.1593 4.41093C10.7144 5.2366 10.9338 6.06613 10.8305 6.94255C10.8312 6.9523 10.8399 6.97564 10.8413 6.97836C12.1656 8.10969 13.4315 9.38332 14.7313 10.8992C13.8646 9.58793 13.2996 8.0782 13.0161 6.32806C12.7303 4.56364 12.7122 2.99319 12.9605 1.52719C12.9763 1.43542 12.9976 1.34365 13.0248 1.22877L13.0653 1.05181C13.0837 0.975905 13.1414 0.914501 13.2172 0.890936C13.293 0.868731 13.3779 0.888444 13.4345 0.941691C13.5252 1.02621 13.614 1.10597 13.7008 1.18346L13.762 1.23806C13.9841 1.4361 14.1939 1.62303 14.3837 1.83443C16.2283 3.89341 17.3042 6.06817 17.6726 8.4831C17.8405 9.57456 17.7709 10.5038 17.4597 11.3231C17.3566 11.5946 17.1959 11.837 17.0358 12.0776C16.9625 12.1875 16.8892 12.2979 16.8221 12.4112C16.7727 12.4925 16.7685 12.5136 16.7688 12.5097C16.7992 12.8326 16.843 13.1924 16.9021 13.6243C16.9046 13.6297 16.9128 13.6424 16.9392 13.6769L16.9605 13.7061C17.9692 15.0935 18.8999 16.5561 19.7373 18.0699C19.408 16.9392 19.1458 15.5081 19.1644 13.8452C19.1868 11.8506 19.651 10.0717 20.584 8.40607C20.6208 8.34126 20.6877 8.29912 20.7814 8.29277C20.8494 8.29277 20.9149 8.32608 20.9577 8.38295C20.9856 8.42147 21.014 8.45773 21.0411 8.49217C21.1013 8.56921 21.1576 8.64216 21.208 8.72011C21.9509 9.87275 22.3493 11.1437 22.6138 12.1223C23.0973 13.9171 23.3194 15.4157 23.313 16.8389C23.3093 18.0486 23.0865 18.9785 22.6116 19.7654C22.4638 20.0104 22.2779 20.2247 22.091 20.4404C21.9919 20.5548 21.89 20.6724 21.7977 20.793C21.7331 20.8768 21.702 20.9622 21.7001 21.0098C21.688 21.2967 21.6944 21.5883 21.7006 21.8702L21.7049 22.065C21.7056 22.0986 21.7134 22.1371 21.7251 22.1665C22.3214 23.5961 22.8456 25.0818 23.2926 26.6076C23.2269 26.088 23.1898 25.585 23.1804 25.0942C23.1263 22.3086 23.9899 19.8209 25.7477 17.6994L26.1141 17.2578C26.1565 17.2059 26.2193 17.1765 26.2861 17.1765L26.3228 17.1796C26.4011 17.1926 26.467 17.2463 26.4943 17.3194C26.5277 17.4076 26.5605 17.4907 26.5923 17.5712C26.6537 17.7266 26.7116 17.8739 26.7606 18.0237C27.1378 19.1926 27.3228 20.4696 27.3604 22.1636L27.3611 22.1967C27.3892 23.4291 27.4279 25.1174 26.9163 26.7329C26.4128 28.3233 25.5247 29.127 25.3525 29.2713L25.3342 29.2876C24.8654 29.7016 24.5601 30.0802 24.4969 30.3261C24.4715 30.4253 24.4456 30.5248 24.4154 30.6231C24.2817 31.0607 24.3653 31.4776 24.4555 31.9278C24.5004 32.1551 24.5471 32.3898 24.5633 32.6307C24.6279 33.5946 24.7072 34.5748 24.7839 35.5226L24.7907 35.6103C24.8104 35.852 24.8301 36.0938 24.8496 36.3355C25.0452 34.1667 25.7711 32.1952 27.0201 30.4516C27.785 29.3848 28.6968 28.4722 29.731 27.7383C29.7757 27.7065 29.8226 27.6782 29.8854 27.6413C29.9158 27.6238 29.9511 27.603 29.9939 27.5765C30.0585 27.5382 30.1414 27.5348 30.208 27.567C30.2763 27.5998 30.3232 27.6667 30.331 27.7423C30.345 27.8794 30.3612 28.0122 30.3784 28.15C30.413 28.4321 30.4457 28.6985 30.4471 28.9722C30.4625 31.8095 29.8558 34.4683 28.6435 36.8737C28.3057 37.5448 27.8594 38.1253 27.3164 38.5998C26.778 39.0677 26.197 39.3437 25.5414 39.4429C25.527 39.4454 25.4926 39.466 25.4874 39.4701C25.4519 39.5406 25.415 39.6113 25.3781 39.6822C25.2471 39.9326 25.1118 40.1916 25.0445 40.4512C24.9884 40.6708 24.9884 40.9107 24.9884 41.165C24.9884 41.2581 24.9884 41.3519 24.9854 41.4439C24.9224 43.6418 24.8397 44.4072 24.4843 46.371C24.7012 45.7871 24.9735 45.2016 25.325 44.6383C26.7485 42.3586 28.5569 40.8113 30.8536 39.9083C30.9997 39.8501 31.1463 39.8082 31.3162 39.7592L31.3501 39.7493C31.419 39.7293 31.492 39.708 31.5701 39.6845C31.6407 39.6616 31.7211 39.6772 31.7785 39.7243C31.8358 39.7712 31.8658 39.8431 31.8582 39.9179C31.8413 40.0737 31.8296 40.2253 31.8188 40.3733C31.7952 40.6978 31.773 41.0041 31.6936 41.3073C30.9525 44.1393 29.726 46.395 27.9441 48.2034C27.1822 48.9765 26.3793 49.4197 25.4897 49.5586C25.2652 49.5932 24.9909 49.5975 24.5265 49.569L24.3927 49.5611C24.3724 49.5599 24.3545 49.5588 24.3382 49.5588C24.3016 49.5588 24.2986 49.5588 24.2732 49.596L23.651 50.4413C23.643 50.4524 23.6313 50.4925 23.6233 50.5202L23.6141 50.5506C22.9683 52.7167 22.1671 54.8031 21.2222 56.7832C21.6475 56.2025 22.1135 55.6723 22.6328 55.1736C25.0213 52.8805 29.1049 52.8141 29.5627 52.8141L29.6197 52.8146L29.6557 52.8212C29.7679 52.8606 29.8286 52.9793 29.794 53.091C29.7622 53.1964 29.7324 53.3029 29.6983 53.4279C29.633 53.6629 29.5652 53.9056 29.4702 54.1403C29.0177 55.2592 28.2842 56.3355 27.1614 57.5287C26.3899 58.3466 25.5201 59.1762 24.3891 59.7007C23.1504 60.2762 22.0319 60.4167 20.9197 60.1348C20.7305 60.0857 20.513 60.0234 20.3259 59.9033C20.1926 59.8188 20.1562 59.8215 20.0252 59.918C19.8699 60.0322 19.7048 60.1281 19.5445 60.221C19.4559 60.2724 19.3666 60.3243 19.2832 60.3764C19.2699 60.3875 19.2415 60.4335 19.231 60.4505C18.233 62.061 17.1336 63.5579 15.9464 64.9233C16.5886 64.461 17.2478 64.1266 17.9481 63.9039C20.0882 63.2216 22.3313 63.3084 24.5528 64.1583C24.8844 64.2854 25.2478 64.478 25.2721 64.4916C25.3229 64.5247 25.358 64.5782 25.369 64.6396C25.3786 64.6999 25.3628 64.7615 25.3257 64.8086C25.2563 64.8979 25.1892 64.9876 25.1228 65.0767L25.1081 65.0961C24.9581 65.2983 24.7882 65.5269 24.5977 65.7294C23.7396 66.6396 22.6814 67.2498 21.6655 67.7737C20.2686 68.4908 18.8401 68.8772 17.4194 68.9225C17.3525 68.9247 17.2856 68.9261 17.219 68.9261C15.9121 68.9261 14.8919 68.4999 14.1055 67.6282C14.0959 67.6214 14.0617 67.6085 14.043 67.6083C13.7425 67.6296 13.4569 67.6729 13.2435 67.708C13.2098 67.7139 13.1684 67.7338 13.1425 67.7569C11.8287 68.9077 10.4373 69.9179 8.98383 70.7775C9.20413 70.7129 9.43107 70.6568 9.66328 70.6117C11.2166 70.3162 12.8018 70.5015 14.5424 71.1858C15.7167 71.649 16.8089 72.3294 17.8813 73.2659C17.9697 73.3427 17.982 73.4748 17.9092 73.5663C17.5298 74.0442 17.036 74.3118 16.603 74.5103C15.5468 74.9958 14.3546 75.3067 12.957 75.4613C12.9529 75.4615 12.5038 75.5 11.8741 75.5C11.4195 75.5 10.9965 75.4798 10.6175 75.4402C10.2553 75.4026 9.89388 75.3412 9.54328 75.2578C7.93293 74.8699 6.84174 74.0723 6.21656 72.834C6.20534 72.8234 6.15725 72.7957 6.09633 72.781C5.80573 72.7096 5.54421 72.6593 5.29551 72.6265C5.23688 72.6172 5.16383 72.6328 5.07177 72.6695C3.95974 73.0934 2.78289 73.4467 1.57628 73.719C1.55933 73.7231 1.5417 73.7252 1.52406 73.7252C1.443 73.7252 1.36834 73.681 1.32895 73.6089C1.21376 73.3968 1.07339 73.1934 0.911939 73.0042C0.86133 72.9446 0.846217 72.8653 0.871178 72.7919C0.894995 72.7207 0.95545 72.6668 1.03285 72.6489Z" fill="#FF0037"/>
</svg>
