<svg width="32" height="76" viewBox="0 0 32 76" fill="none" xmlns="http://www.w3.org/2000/svg">
<path id="Vector" d="M31.6859 72.6489C30.204 72.3251 28.7302 71.8531 27.1794 71.2062C27.1608 71.1976 27.1148 71.1462 27.1003 71.1C26.9458 70.5786 26.894 70.0534 26.9416 69.4941C27.2453 65.9239 25.0966 62.1619 21.8331 60.549C21.7637 60.5142 21.6913 60.484 21.6079 60.4503L21.5305 60.4185C21.457 60.3875 21.3675 60.4004 21.3082 60.4475C21.2441 60.4965 21.2122 60.5762 21.2253 60.6562L21.3146 61.2037C21.3938 61.6881 21.4715 62.1621 21.5459 62.6366L21.5647 62.7607C21.7742 64.1091 21.9908 65.5035 22.4129 66.8431C22.7937 68.0517 23.3813 69.0054 24.1987 69.7361C22.472 68.7287 20.863 67.5181 19.4017 66.1257C19.371 66.0965 19.3346 66.019 19.3294 65.9551L19.2902 64.9996C19.29 64.9656 19.2895 64.8755 19.309 64.8308C20.0287 63.1718 20.2131 61.3043 19.873 59.122C19.5451 57.0173 18.6369 55.0818 17.1733 53.369C17.002 53.1685 16.8509 53.067 16.724 53.067C16.6931 53.067 16.6651 53.0731 16.6432 53.0844C16.5758 53.1175 16.5303 53.1817 16.5213 53.2557L16.4822 53.5891C16.4519 53.8365 16.4229 54.0794 16.3968 54.3227C16.3516 54.7514 16.3022 55.1795 16.2525 55.6077L16.2454 55.6695C16.1217 56.7388 15.9935 57.8445 15.9257 58.9516C15.8469 60.2432 15.8703 61.7515 16.6418 63.1468C16.6459 63.1539 16.6496 63.1613 16.6537 63.1684C15.5813 61.8415 14.6023 60.4135 13.7289 58.9004C13.6517 58.7658 13.6451 58.6478 13.6595 58.4765C13.7215 57.7521 14.0618 57.1634 14.4202 56.6355C15.1125 55.6131 15.5316 54.4048 15.7791 52.7172C16.1252 50.357 15.7757 47.9895 14.7411 45.6797C14.7127 45.616 14.6795 45.5546 14.644 45.4887L14.5631 45.3378C14.5244 45.2641 14.4418 45.2156 14.3545 45.2195C14.2675 45.224 14.1908 45.2786 14.1592 45.3579C13.9082 45.9842 13.6654 46.5876 13.4243 47.1865L13.2702 47.5692C12.7558 48.8473 12.179 50.3396 11.8437 51.8792C11.6074 52.9657 11.593 54.0144 11.8002 55.0127C10.996 53.1187 10.3348 51.1172 9.8285 49.042C9.82278 49.0188 9.82095 48.959 9.8711 48.821C10.1079 48.1798 10.5391 47.5984 11.0855 47.184C12.2816 46.2763 12.9601 45.0146 13.466 43.9003C14.5018 41.6213 14.7827 39.2003 14.3247 36.4982C14.3199 36.4699 14.3112 36.4418 14.3009 36.4112L14.2927 36.3868C14.2728 36.3263 14.2274 36.2773 14.1674 36.2517C14.1088 36.2275 14.0351 36.232 13.9895 36.2542C13.9437 36.2707 13.8743 36.2959 13.8292 36.3614C13.5699 36.704 13.3068 37.0497 13.0435 37.3953L12.9993 37.4535C12.3352 38.3261 11.6484 39.2279 10.9884 40.1263C10.2238 41.1643 9.68377 42.1733 9.33729 43.211C9.17012 43.7122 9.06089 44.1946 9.00936 44.6632C8.78929 42.9795 8.66448 41.2604 8.63723 39.527C8.63082 39.1132 8.68395 38.7845 8.96951 38.4244C9.2718 38.0406 9.55416 37.8262 9.94346 37.6849C11.543 37.1066 12.5692 35.8846 13.2844 34.8847C14.4397 33.2671 15.1173 31.3849 15.3559 29.1304C15.3814 28.8984 15.3958 28.6636 15.4107 28.4153L15.4143 28.3589C15.4214 28.2381 15.429 28.1123 15.4386 27.9791C15.4446 27.8907 15.3967 27.8078 15.3168 27.7677C15.2394 27.7292 15.1402 27.7405 15.0729 27.7969L14.8831 27.9578C14.8116 28.0181 14.7505 28.0697 14.687 28.12C14.3822 28.3623 14.0763 28.602 13.7696 28.8424L13.7376 28.8673C13.0645 29.3948 12.3684 29.9402 11.7036 30.5035C10.4136 31.592 9.58301 32.6755 9.08951 33.9138C9.00799 34.118 8.93654 34.3199 8.87516 34.5197C9.07806 32.552 9.4076 30.6143 9.8601 28.7343C9.91507 28.5043 9.94575 28.4368 10.0587 28.4001C10.1296 28.3763 10.1958 28.3305 10.2441 28.2739C10.5723 27.9048 11.0044 27.8463 11.423 27.838C12.82 27.8055 13.9279 27.1161 14.8272 26.4458C17.0322 24.8026 18.5505 20.6335 18.5505 20.4921C18.5505 20.4184 18.5134 20.3498 18.4505 20.3083C18.3884 20.2678 18.3046 20.2621 18.2414 20.29C17.782 20.4828 17.3226 20.6706 16.847 20.8653C15.8004 21.2946 14.7184 21.7383 13.6792 22.2234C12.6333 22.7131 11.8069 23.3679 11.216 24.1736C11.7791 22.5905 12.432 21.0384 13.163 19.5468C13.2471 19.3859 13.6419 19.2151 14.208 19.2151C14.3921 19.2151 14.5705 19.2345 14.7246 19.2712C16.0546 19.5866 17.3735 19.3954 18.8331 18.6737C20.3264 17.9351 21.5654 16.7274 22.6206 14.9806C22.6407 14.9469 22.6804 14.8438 22.7017 14.786C22.7285 14.7153 22.7177 14.6374 22.6733 14.5782C22.632 14.522 22.5661 14.4885 22.482 14.4885C22.4814 14.4885 22.4809 14.4885 22.4802 14.4885L21.9531 14.5214C21.6299 14.5415 21.3162 14.5612 21.0025 14.5771L20.6674 14.5939C19.6671 14.6437 18.6325 14.6949 17.6203 14.9335C16.4659 15.2081 15.6184 15.6298 14.9685 16.2552C15.7377 14.9883 16.5614 13.7829 17.4291 12.6538C17.4525 12.6239 17.5644 12.5782 17.6563 12.563C17.7021 12.5523 17.8688 12.5177 18.0905 12.5177C18.3845 12.5177 18.6419 12.5768 18.8601 12.6955C20.2468 13.3665 21.804 13.4163 23.4947 12.8417C24.8815 12.3729 26.0561 11.5021 27.0857 10.1804C27.1191 10.1378 27.1494 10.0914 27.1768 10.0425C27.2082 9.98604 27.2103 9.92395 27.1828 9.86731C27.1031 9.7019 26.7582 9.62418 26.613 9.59835C26.2567 9.53672 25.853 9.46648 25.4527 9.41278C25.2692 9.3874 25.0856 9.36089 24.9015 9.33393L24.8779 9.3303C24.2541 9.23922 23.6092 9.14496 22.9595 9.11255C21.7724 9.05251 20.7183 9.29224 19.8556 9.8229C20.4357 9.21203 21.0283 8.63242 21.6302 8.08794C21.8205 7.91619 22.0357 7.74308 22.3291 7.52578C22.3517 7.50856 22.4095 7.4884 22.4802 7.48432C24.5593 7.40388 26.2894 6.49573 27.7688 4.70843C28.5747 3.73548 29.1925 2.5083 29.6581 0.956646L29.6741 0.903399C29.7238 0.740258 29.7513 0.65053 29.637 0.545395C29.5488 0.464277 29.3936 0.488296 28.9901 0.646452C28.6237 0.785801 28.255 0.921073 27.8764 1.05997C27.1159 1.33889 26.3293 1.62734 25.5702 1.95316C24.3015 2.49878 23.2884 3.32581 22.5595 4.41093C22.0043 5.2366 21.785 6.06613 21.8882 6.94255C21.8876 6.9523 21.8789 6.97564 21.8775 6.97836C20.5532 8.10969 19.2872 9.38332 17.9874 10.8992C18.8542 9.58793 19.4191 8.0782 19.7026 6.32806C19.9884 4.56364 20.0065 2.99319 19.7583 1.52719C19.7425 1.43542 19.7212 1.34365 19.6939 1.22877L19.6534 1.05181C19.6351 0.975905 19.5774 0.914501 19.5016 0.890936C19.4258 0.868731 19.3408 0.888444 19.2843 0.941691C19.1936 1.02621 19.1047 1.10597 19.0179 1.18346L18.9568 1.23806C18.7346 1.4361 18.5249 1.62303 18.335 1.83443C16.4904 3.89341 15.4146 6.06817 15.0461 8.4831C14.8782 9.57456 14.9479 10.5038 15.2591 11.3231C15.3621 11.5946 15.5229 11.837 15.683 12.0776C15.7562 12.1875 15.8295 12.2979 15.8966 12.4112C15.9461 12.4925 15.9502 12.5136 15.95 12.5097C15.9195 12.8326 15.8758 13.1924 15.8167 13.6243C15.8142 13.6297 15.8059 13.6424 15.7796 13.6769L15.7583 13.7061C14.7495 15.0935 13.8189 16.5561 12.9814 18.0699C13.3107 16.9392 13.5729 15.5081 13.5544 13.8452C13.5319 11.8506 13.0677 10.0717 12.1348 8.40607C12.0979 8.34126 12.0311 8.29912 11.9374 8.29277C11.8694 8.29277 11.8039 8.32608 11.7611 8.38295C11.7331 8.42147 11.7047 8.45773 11.6777 8.49217C11.6175 8.56921 11.5611 8.64216 11.5108 8.72011C10.7679 9.87275 10.3694 11.1437 10.1049 12.1223C9.62148 13.9171 9.39935 15.4157 9.40576 16.8389C9.40943 18.0486 9.63225 18.9785 10.1072 19.7654C10.2549 20.0104 10.4409 20.2247 10.6277 20.4404C10.7269 20.5548 10.8288 20.6724 10.9211 20.793C10.9857 20.8768 11.0168 20.9622 11.0186 21.0098C11.0308 21.2967 11.0244 21.5883 11.0182 21.8702L11.0138 22.065C11.0131 22.0986 11.0053 22.1371 10.9937 22.1665C10.3973 23.5961 9.87316 25.0818 9.42614 26.6076C9.49187 26.088 9.52897 25.585 9.53836 25.0942C9.5924 22.3086 8.72883 19.8209 6.97101 17.6994L6.6046 17.2578C6.56224 17.2059 6.49949 17.1765 6.43262 17.1765L6.39598 17.1796C6.31766 17.1926 6.25171 17.2463 6.22446 17.3194C6.19102 17.4076 6.15828 17.4907 6.12644 17.5712C6.06507 17.7266 6.00713 17.8739 5.95813 18.0237C5.58096 19.1926 5.39593 20.4696 5.35837 22.1636L5.35768 22.1967C5.32951 23.4291 5.29081 25.1174 5.8024 26.7329C6.30598 28.3233 7.19405 29.127 7.36626 29.2713L7.38458 29.2876C7.85335 29.7016 8.15861 30.0802 8.22182 30.3261C8.24724 30.4253 8.27312 30.5248 8.30334 30.6231C8.43708 31.0607 8.3535 31.4776 8.26327 31.9278C8.21838 32.1551 8.17167 32.3898 8.15541 32.6307C8.09083 33.5946 8.01159 34.5748 7.93488 35.5226L7.92801 35.6103C7.90831 35.852 7.88862 36.0938 7.86915 36.3355C7.67359 34.1667 6.94765 32.1952 5.69867 30.4516C4.9338 29.3848 4.02191 28.4722 2.98773 27.7383C2.94308 27.7065 2.89613 27.6782 2.83338 27.6413C2.80293 27.6238 2.76766 27.603 2.72484 27.5765C2.66026 27.5382 2.57736 27.5348 2.51072 27.567C2.44248 27.5998 2.39553 27.6667 2.38775 27.7423C2.37378 27.8794 2.35752 28.0122 2.34034 28.15C2.30576 28.4321 2.27302 28.6985 2.27164 28.9722C2.2563 31.8095 2.86293 34.4683 4.07527 36.8737C4.41305 37.5448 4.85937 38.1253 5.40234 38.5998C5.94072 39.0677 6.5217 39.3437 7.17734 39.4429C7.19176 39.4454 7.22611 39.466 7.23138 39.4701C7.26688 39.5406 7.30375 39.6113 7.34062 39.6822C7.47161 39.9326 7.60695 40.1916 7.67427 40.4512C7.73038 40.6708 7.73038 40.9107 7.73038 41.165C7.73038 41.2581 7.73038 41.3519 7.73336 41.4439C7.79633 43.6418 7.879 44.4072 8.23441 46.371C8.01755 45.7871 7.74526 45.2016 7.39375 44.6383C5.97026 42.3586 4.16183 40.8113 1.86516 39.9083C1.71906 39.8501 1.5725 39.8082 1.40258 39.7592L1.36868 39.7493C1.29975 39.7293 1.2267 39.708 1.14861 39.6845C1.07808 39.6616 0.997699 39.6772 0.940219 39.7243C0.882968 39.7712 0.852969 39.8431 0.860526 39.9179C0.877472 40.0737 0.889152 40.2253 0.899915 40.3733C0.923502 40.6978 0.945715 41.0041 1.02518 41.3073C1.76623 44.1393 2.99277 46.395 4.77464 48.2034C5.53653 48.9765 6.33942 49.4197 7.22909 49.5586C7.45351 49.5932 7.72786 49.5975 8.19228 49.569L8.32602 49.5611C8.3464 49.5599 8.36426 49.5588 8.38052 49.5588C8.41716 49.5588 8.42014 49.5588 8.44556 49.596L9.06776 50.4413C9.07577 50.4524 9.08745 50.4925 9.09546 50.5202L9.10462 50.5506C9.75041 52.7167 10.5517 54.8031 11.4966 56.7832C11.0713 56.2025 10.6053 55.6723 10.0859 55.1736C7.6974 52.8805 3.61383 52.8141 3.15605 52.8141L3.09903 52.8146L3.06307 52.8212C2.95086 52.8606 2.89018 52.9793 2.92476 53.091C2.95659 53.1964 2.98636 53.3029 3.02048 53.4279C3.08575 53.6629 3.15353 53.9056 3.24857 54.1403C3.70108 55.2592 4.43457 56.3355 5.55737 57.5287C6.32888 58.3466 7.19864 59.1762 8.32968 59.7007C9.56836 60.2762 10.6868 60.4167 11.7991 60.1348C11.9882 60.0857 12.2058 60.0234 12.3929 59.9033C12.5262 59.8188 12.5626 59.8215 12.6936 59.918C12.8488 60.0322 13.0139 60.1281 13.1742 60.221C13.2629 60.2724 13.3522 60.3243 13.4355 60.3764C13.4488 60.3875 13.4772 60.4335 13.4877 60.4505C14.4857 62.061 15.5852 63.5579 16.7723 64.9233C16.1302 64.461 15.4709 64.1266 14.7706 63.9039C12.6306 63.2216 10.3875 63.3084 8.16594 64.1583C7.83435 64.2854 7.47092 64.478 7.44664 64.4916C7.39581 64.5247 7.36077 64.5782 7.34978 64.6396C7.34016 64.6999 7.35596 64.7615 7.39306 64.8086C7.46245 64.8979 7.52954 64.9876 7.59595 65.0767L7.61061 65.0961C7.76061 65.2983 7.93053 65.5269 8.12106 65.7294C8.97913 66.6396 10.0374 67.2498 11.0532 67.7737C12.4501 68.4908 13.8786 68.8772 15.2994 68.9225C15.3662 68.9247 15.4331 68.9261 15.4998 68.9261C16.8067 68.9261 17.8269 68.4999 18.6133 67.6282C18.6229 67.6214 18.657 67.6085 18.6758 67.6083C18.9762 67.6296 19.2618 67.6729 19.4752 67.708C19.5089 67.7139 19.5504 67.7338 19.5762 67.7569C20.89 68.9077 22.2814 69.9179 23.7349 70.7775C23.5146 70.7129 23.2877 70.6568 23.0555 70.6117C21.5021 70.3162 19.917 70.5015 18.1763 71.1858C17.002 71.649 15.9099 72.3294 14.8375 73.2659C14.7491 73.3427 14.7367 73.4748 14.8095 73.5663C15.189 74.0442 15.6827 74.3118 16.1158 74.5103C17.1719 74.9958 18.3641 75.3067 19.7617 75.4613C19.7658 75.4615 20.2149 75.5 20.8447 75.5C21.2992 75.5 21.7222 75.4798 22.1012 75.4402C22.4635 75.4026 22.8249 75.3412 23.1755 75.2578C24.7858 74.8699 25.877 74.0723 26.5022 72.834C26.5134 72.8234 26.5615 72.7957 26.6224 72.781C26.913 72.7096 27.1745 72.6593 27.4232 72.6265C27.4819 72.6172 27.5549 72.6328 27.647 72.6695C28.759 73.0934 29.9359 73.4467 31.1425 73.719C31.1594 73.7231 31.1771 73.7252 31.1947 73.7252C31.2758 73.7252 31.3504 73.681 31.3898 73.6089C31.505 73.3968 31.6454 73.1934 31.8068 73.0042C31.8574 72.9446 31.8725 72.8653 31.8476 72.7919C31.8238 72.7207 31.7633 72.6668 31.6859 72.6489Z" fill="#FF0037"/>
</svg>
