<svg width="32" height="32" viewBox="0 0 32 32" fill="none" xmlns="http://www.w3.org/2000/svg">
<path d="M23.8763 1.82813C22.7712 1.82789 21.685 2.11495 20.7243 2.66115C19.7635 3.20734 18.9613 3.9939 18.3963 4.94366C17.8312 5.89342 17.5228 6.97376 17.5012 8.07868C17.4796 9.1836 17.7457 10.2752 18.2732 11.2463L17.547 13.4256C17.4955 13.5798 17.4881 13.7452 17.5254 13.9034C17.5627 14.0616 17.6434 14.2062 17.7583 14.3212C17.8732 14.4361 18.0179 14.5167 18.176 14.554C18.3342 14.5914 18.4997 14.5839 18.6538 14.5325L20.8332 13.8062C21.6863 14.2692 22.6339 14.5313 23.6037 14.5724C24.5734 14.6135 25.5398 14.4327 26.429 14.0436C27.3183 13.6546 28.107 13.0676 28.735 12.3275C29.3629 11.5874 29.8136 10.7136 30.0526 9.77287C30.2916 8.83212 30.3126 7.84921 30.1141 6.8991C29.9155 5.94898 29.5026 5.05675 28.9069 4.29044C28.3112 3.52412 27.5483 2.90396 26.6765 2.47724C25.8047 2.05051 24.847 1.8285 23.8763 1.82813ZM23.8763 13.8281C22.8875 13.8284 21.9162 13.5679 21.0601 13.0731C21.003 13.0403 20.9384 13.0229 20.8726 13.0225C20.8322 13.0227 20.7922 13.0293 20.7538 13.0419L18.417 13.8206C18.3949 13.828 18.3713 13.829 18.3487 13.8237C18.3261 13.8184 18.3054 13.8069 18.289 13.7904C18.2726 13.774 18.2611 13.7534 18.2558 13.7308C18.2504 13.7082 18.2515 13.6845 18.2588 13.6625L19.0376 11.3281C19.0544 11.2777 19.0604 11.2242 19.055 11.1713C19.0496 11.1184 19.033 11.0673 19.0063 11.0212C18.3859 9.94943 18.1365 8.70281 18.2968 7.47478C18.4572 6.24675 19.0183 5.10598 19.8932 4.22943C20.7681 3.35288 21.9078 2.78956 23.1356 2.62687C24.3633 2.46418 25.6104 2.71121 26.6834 3.32964C27.7564 3.94807 28.5953 4.90333 29.0699 6.04721C29.5446 7.19109 29.6285 8.45964 29.3086 9.65607C28.9887 10.8525 28.2829 11.9099 27.3007 12.6643C26.3185 13.4186 25.1148 13.8277 23.8763 13.8281Z" fill="url(#paint0_linear_7561_92606)" stroke="url(#paint1_linear_7561_92606)" stroke-width="0.5"/>
<path d="M27.7363 22.849C27.5221 24.4831 26.7202 25.9832 25.4805 27.069C24.2407 28.1549 22.648 28.7521 21 28.749C11.2125 28.749 3.25001 20.7865 3.25001 10.999C3.24686 9.35159 3.84354 7.75933 4.9286 6.51968C6.01367 5.28003 7.5129 4.47778 9.14626 4.26278C9.52226 4.21709 9.90293 4.29462 10.2311 4.48373C10.5593 4.67283 10.8173 4.96331 10.9663 5.31153L13.6038 11.199C13.7202 11.4656 13.7684 11.7569 13.744 12.0468C13.7195 12.3366 13.6232 12.6158 13.4638 12.859C13.4477 12.8838 13.4302 12.9076 13.4113 12.9303L10.7775 16.0628C10.7615 16.0953 10.7532 16.131 10.7532 16.1672C10.7532 16.2034 10.7615 16.2391 10.7775 16.2715C11.735 18.2315 13.79 20.2715 15.7775 21.2278C15.8107 21.2429 15.8469 21.2501 15.8834 21.2488C15.9198 21.2475 15.9555 21.2377 15.9875 21.2203L19.0738 18.5953C19.0958 18.5761 19.1192 18.5586 19.1438 18.5428C19.3859 18.3813 19.6646 18.2828 19.9544 18.2562C20.2443 18.2296 20.5362 18.2756 20.8038 18.3903L26.7088 21.0365C27.0524 21.1888 27.3378 21.4477 27.5228 21.7748C27.7079 22.1019 27.7827 22.4798 27.7363 22.8528V22.849ZM26.25 22.664C26.2542 22.6118 26.2419 22.5595 26.2147 22.5146C26.1876 22.4698 26.147 22.4346 26.0988 22.414L20.1925 19.7678C20.1602 19.7553 20.1257 19.75 20.0911 19.7522C20.0566 19.7543 20.023 19.7639 19.9925 19.7803L16.9075 22.4053C16.885 22.424 16.8613 22.4415 16.8375 22.4578C16.5859 22.6256 16.295 22.7253 15.9934 22.7472C15.6917 22.7691 15.3895 22.7125 15.1163 22.5828C12.8213 21.474 10.5338 19.2078 9.42501 16.934C9.29461 16.6624 9.23656 16.3616 9.25648 16.061C9.27641 15.7603 9.37364 15.4699 9.53876 15.2178C9.55486 15.1927 9.57283 15.1689 9.59251 15.1465L12.2238 12.0103C12.2388 11.9775 12.2466 11.9419 12.2466 11.9059C12.2466 11.8699 12.2388 11.8343 12.2238 11.8015L9.59251 5.91278C9.57514 5.86549 9.54388 5.82455 9.50284 5.79533C9.4618 5.76611 9.41289 5.74997 9.36251 5.74903H9.33376C8.06244 5.91815 6.89613 6.54421 6.05263 7.51032C5.20913 8.47642 4.7461 9.71652 4.75001 10.999C4.75001 19.959 12.04 27.249 21 27.249C22.2827 27.2529 23.523 26.7897 24.4891 25.9459C25.4552 25.1022 26.0812 23.9356 26.25 22.664Z" fill="url(#paint2_linear_7561_92606)"/>
<defs>
<linearGradient id="paint0_linear_7561_92606" x1="25.0423" y1="-7.06578" x2="21.5011" y2="14.1826" gradientUnits="userSpaceOnUse">
<stop stop-color="#40CE5F"/>
<stop offset="1" stop-color="#153673"/>
</linearGradient>
<linearGradient id="paint1_linear_7561_92606" x1="25.0423" y1="-7.06578" x2="21.5011" y2="14.1826" gradientUnits="userSpaceOnUse">
<stop stop-color="#40CE5F"/>
<stop offset="1" stop-color="#153673"/>
</linearGradient>
<linearGradient id="paint2_linear_7561_92606" x1="17.7441" y1="-12.8396" x2="10.9405" y2="27.9893" gradientUnits="userSpaceOnUse">
<stop stop-color="#40CE5F"/>
<stop offset="1" stop-color="#153673"/>
</linearGradient>
</defs>
</svg>
