<svg width="58" height="58" viewBox="0 0 58 58" fill="none" xmlns="http://www.w3.org/2000/svg">
<path d="M29 57C13.5578 57 1 44.4422 1 29C1 13.5578 13.5578 1 29 1C44.4422 1 57 13.5578 57 29C57 44.4422 44.4422 57 29 57ZM29 1.88585C14.0468 1.88585 1.88585 14.0468 1.88585 29C1.88585 43.9532 14.0468 56.1141 29 56.1141C43.9532 56.1141 56.1141 43.9532 56.1141 29C56.1141 14.0468 43.9532 1.88585 29 1.88585Z" fill="#0E0E0E" stroke="#0E0E0E"/>
<path d="M11.3091 24.3738H11.8091V23.8738V19.8839V19.8768C11.8091 19.5311 12.0723 19.25 12.4359 19.25H47.4164C47.7498 19.25 48.0432 19.5435 48.0432 19.8768V38.1041C48.0432 38.4374 47.7497 38.7309 47.4164 38.7309H12.4359C12.1026 38.7309 11.8091 38.4374 11.8091 38.1041V34.1142V33.6142H11.3091H9.94531V24.3738H11.3091ZM46.7046 21.0107V20.5107H46.2046H13.5627H13.0627V21.0107V36.9844V37.4844H13.5627H46.2046H46.7046V36.9844V21.0107Z" fill="#0E0E0E" stroke="#0E0E0E"/>
<path d="M38.8955 35.0107V22.9922H43.8414V35.0107H38.8955Z" fill="#0E0E0E" stroke="#0E0E0E"/>
<path d="M31.2529 35.0107V22.9922H36.1988V35.0107H31.2529Z" fill="#0E0E0E" stroke="#0E0E0E"/>
<path d="M23.6172 35.0107V22.9922H28.563V35.0107H23.6172Z" fill="#0E0E0E" stroke="#0E0E0E"/>
<path d="M15.9746 35.0107V22.9922H20.9205V35.0107H15.9746Z" fill="#0E0E0E" stroke="#0E0E0E"/>
</svg>
