<svg width="32" height="32" viewBox="0 0 32 32" fill="none" xmlns="http://www.w3.org/2000/svg">
<g id="vuesax/twotone/volume-high">
<g id="Group 1973339897">
<rect id="Rectangle 293029805" x="8.66406" y="2.89453" width="15.1351" height="26.6667" rx="1.44144" stroke="white" stroke-width="1.2973"/>
<rect id="Rectangle 293029806" x="11.0469" y="5.17188" width="10.0901" height="10.8108" rx="0.720721" stroke="white"/>
<g id="Group 1973339896">
<rect id="Rectangle 293029807" x="10.8281" y="25.707" width="3.24324" height="1.44144" rx="0.720721" fill="white"/>
<rect id="Rectangle 293029810" x="10.8281" y="23.1836" width="3.24324" height="1.44144" rx="0.720721" fill="white"/>
<rect id="Rectangle 293029813" x="10.8281" y="20.6641" width="3.24324" height="1.44144" rx="0.720721" fill="white"/>
<rect id="Rectangle 293029816" x="10.8281" y="18.1406" width="3.24324" height="1.44144" rx="0.720721" fill="white"/>
<rect id="Rectangle 293029808" x="14.7891" y="25.707" width="3.24324" height="1.44144" rx="0.720721" fill="white"/>
<rect id="Rectangle 293029811" x="14.7891" y="23.1836" width="3.24324" height="1.44144" rx="0.720721" fill="white"/>
<rect id="Rectangle 293029814" x="14.7891" y="20.6641" width="3.24324" height="1.44144" rx="0.720721" fill="white"/>
<rect id="Rectangle 293029817" x="14.7891" y="18.1406" width="3.24324" height="1.44144" rx="0.720721" fill="white"/>
<rect id="Rectangle 293029809" x="18.7578" y="25.707" width="3.24324" height="1.44144" rx="0.720721" fill="white"/>
<rect id="Rectangle 293029812" x="18.7578" y="23.1836" width="3.24324" height="1.44144" rx="0.720721" fill="white"/>
<rect id="Rectangle 293029815" x="18.7578" y="20.6641" width="3.24324" height="1.44144" rx="0.720721" fill="white"/>
<rect id="Rectangle 293029818" x="18.7578" y="18.1406" width="3.24324" height="1.44144" rx="0.720721" fill="white"/>
</g>
</g>
</g>
</svg>
