<svg width="32" height="32" viewBox="0 0 32 32" fill="none" xmlns="http://www.w3.org/2000/svg">
<g id="Group">
<path id="Vector" d="M16 32C7.17591 32 0 24.8241 0 16C0 7.17591 7.17591 0 16 0C24.8241 0 32 7.17591 32 16C32 24.8241 24.8241 32 16 32ZM16 0.506201C7.45533 0.506201 0.506201 7.45533 0.506201 16C0.506201 24.5447 7.45533 31.4938 16 31.4938C24.5447 31.4938 31.4938 24.5447 31.4938 16C31.4938 7.45533 24.5447 0.506201 16 0.506201Z" fill="white"/>
<path id="Vector_2" d="M8.32031 3.78284C9.02494 3.36168 9.77817 3.00124 10.6002 2.79876C11.0093 2.70157 11.4466 2.63681 11.9002 2.7259C12.127 2.77044 12.3578 2.85952 12.5562 3.0134C12.6534 3.09035 12.7425 3.17945 12.8194 3.28069C12.8964 3.37788 12.9409 3.45478 13.0057 3.54388C13.929 4.92074 14.7632 6.3422 15.557 7.78791C17.1566 10.6712 18.5658 13.6558 19.8698 16.6808C20.5096 18.1994 21.1252 19.7302 21.6962 21.2771C21.9756 22.0546 22.2429 22.8362 22.498 23.6259C22.6235 24.0228 22.7491 24.4156 22.8625 24.8246C22.9151 25.0271 22.9718 25.2417 23.0123 25.4766C23.0447 25.6993 23.0771 25.9585 23.0366 26.2419C22.9961 26.5295 22.8625 26.8008 22.7005 27.0073C22.5425 27.2179 22.3603 27.3758 22.1822 27.5176C21.8217 27.797 21.4451 28.0116 21.0725 28.2019C20.3355 28.5826 19.5863 28.943 18.8169 29.2629C17.2821 29.8906 15.6825 30.3847 14.0465 30.5912C15.6218 30.1174 17.1282 29.4857 18.5618 28.7162C19.2826 28.3437 19.9872 27.9347 20.6716 27.5054C21.0118 27.2908 21.3398 27.0802 21.6152 26.8372C21.8946 26.5942 22.0728 26.3432 22.0849 26.1124C22.093 25.9909 22.0728 25.837 22.0363 25.6548C21.9999 25.4847 21.9392 25.3065 21.8784 25.1161C21.761 24.7355 21.6233 24.3548 21.4856 23.9701C21.2102 23.2047 20.9146 22.4434 20.6149 21.6861C20.0277 20.1635 19.4 18.6571 18.7562 17.1546C17.4846 14.1458 16.1361 11.1652 14.7349 8.20903C14.0222 6.73902 13.3135 5.26094 12.536 3.83143C12.4874 3.74639 12.4347 3.64515 12.3902 3.5763C12.3497 3.50746 12.297 3.44668 12.2404 3.38999C12.1229 3.28065 11.969 3.19967 11.799 3.14702C11.4507 3.04578 11.0498 3.05388 10.6569 3.09843C9.86727 3.20777 9.07759 3.45887 8.32031 3.77878V3.78284Z" fill="white"/>
</g>
</svg>
