<svg width="162" height="48" viewBox="0 0 162 48" fill="none" xmlns="http://www.w3.org/2000/svg">
<path d="M9.6 45.72C9.6 47.16 10.44 48 11.88 48V0C10.44 0 9.6 0.84 9.6 2.28V2.4C9.6 3.84 8.64 4.56 7.32 4.56H7.08C5.64 4.56 4.56 5.64 4.56 7.08V7.32C4.56 8.64 3.84 9.6 2.4 9.6H2.28C0.84 9.6 0 10.44 0 11.88V36.12C0 37.56 0.84 38.4 2.28 38.4H2.4C3.84 38.4 4.56 39.36 4.56 40.68V40.92C4.56 42.36 5.64 43.44 7.08 43.44H7.32C8.64 43.44 9.6 44.16 9.6 45.6V45.72Z" fill="white"/>
<rect width="138" height="48" transform="translate(11.8809)" fill="white"/>
<g clip-path="url(#clip0_7159_84729)">
<path d="M30.2143 30H25.3663V18.8H29.9423C32.5503 18.8 34.1903 19.768 34.1903 21.904C34.1903 23.032 33.5023 23.936 32.5663 24.28C33.5903 24.624 34.4303 25.584 34.4303 26.792C34.4303 28.944 32.9023 30 30.2143 30ZM27.5983 20.768V23.384H29.8863C30.9983 23.384 31.8623 23.152 31.8623 22.064C31.8623 21.008 30.9823 20.768 29.8783 20.768H27.5983ZM27.5983 28.032H30.1023C31.3343 28.032 32.1103 27.752 32.1103 26.68C32.1103 25.632 31.3343 25.344 30.1023 25.344H27.5983V28.032ZM41.3004 30.2C38.4524 30.2 36.4764 28.624 36.4764 25.528V18.8H38.7164V25.416C38.7164 27.256 39.7564 28.064 41.3004 28.064C42.8444 28.064 43.8844 27.256 43.8844 25.416V18.8H46.1244V25.528C46.1244 28.624 44.1484 30.2 41.3004 30.2ZM54.0219 30H51.7899V25.576L47.4779 18.8H50.1019L52.9179 23.552L55.7339 18.8H58.2779L54.0219 25.584V30ZM65.7619 30H63.5219V18.8H65.6099L71.2979 26.28V18.8H73.5379V30H71.4419L65.7619 22.52V30ZM81.5884 30.208C78.1404 30.208 75.7084 27.744 75.7084 24.4C75.7084 21.056 78.1404 18.592 81.5884 18.592C85.0364 18.592 87.4764 21.056 87.4764 24.4C87.4764 27.744 85.0364 30.208 81.5884 30.208ZM81.5884 28.064C83.6524 28.064 85.1404 26.576 85.1404 24.4C85.1404 22.224 83.6524 20.736 81.5884 20.736C79.5324 20.736 78.0364 22.224 78.0364 24.4C78.0364 26.576 79.5324 28.064 81.5884 28.064ZM94.3899 30H91.6859L88.3419 18.8H90.6619L93.0699 27.392L95.5739 18.8H98.0459L100.55 27.392L102.958 18.8H105.238L101.894 30H99.1899L96.7899 22L94.3899 30Z" fill="#1C1B1B"/>
<path d="M132.019 23.0415C131.639 22.8935 131.384 22.5284 131.384 22.0775V21.9789C131.384 21.3873 131.14 21.1409 130.556 21.1409H130.458C129.873 21.1409 129.435 20.6972 129.435 20.1056V20.007C129.435 19.4155 129.191 19.169 128.605 19.169H128.508C127.924 19.169 127.484 18.7253 127.484 18.1338V18.0352C127.484 17.4437 127.924 17 128.508 17H128.605C129.191 17 129.629 17.4437 129.629 18.0352V18.1338C129.629 18.7253 129.873 18.9719 130.458 18.9719H130.556C131.14 18.9719 131.579 19.4155 131.579 20.007V20.1056C131.579 20.6972 131.822 20.9436 132.408 20.9436H132.505C133.09 20.9436 133.529 21.3873 133.529 21.9789V22.0775C133.529 22.6198 133.821 23.0141 134.406 23.0141H134.454C134.966 23.0141 135.381 23.4334 135.381 23.9507V24.0493C135.381 24.5666 134.966 24.9859 134.454 24.9859H134.406C133.821 24.9859 133.529 25.3802 133.529 25.9225V26.0211C133.529 26.6127 133.09 27.0564 132.505 27.0564H132.408C131.822 27.0564 131.579 27.3028 131.579 27.8944V27.993C131.579 28.5845 131.14 29.0281 130.556 29.0281H130.458C129.873 29.0281 129.629 29.2747 129.629 29.8662V29.9648C129.629 30.5563 129.191 31 128.605 31H128.508C127.924 31 127.484 30.5563 127.484 29.9648V29.8662C127.484 29.2747 127.924 28.831 128.508 28.831H128.605C129.191 28.831 129.435 28.5845 129.435 27.993V27.8944C129.435 27.3028 129.873 26.8591 130.458 26.8591H130.556C131.14 26.8591 131.384 26.6127 131.384 26.0211V25.9225C131.384 25.4622 131.649 25.0916 132.043 24.9497H116.324C115.803 24.9497 115.381 24.5225 115.381 23.9956C115.381 23.4687 115.803 23.0415 116.324 23.0415H132.019Z" fill="#FF0037"/>
</g>
<path d="M152.16 45.72C152.16 47.16 151.32 48 149.88 48V0C151.32 0 152.16 0.84 152.16 2.28V2.4C152.16 3.84 153.12 4.56 154.44 4.56H154.68C156.12 4.56 157.2 5.64 157.2 7.08V7.32C157.2 8.64 157.92 9.6 159.36 9.6H159.48C160.92 9.6 161.76 10.44 161.76 11.88V36.12C161.76 37.56 160.92 38.4 159.48 38.4H159.36C157.92 38.4 157.2 39.36 157.2 40.68V40.92C157.2 42.36 156.12 43.44 154.68 43.44H154.44C153.12 43.44 152.16 44.16 152.16 45.6V45.72Z" fill="white"/>
<defs>
<clipPath id="clip0_7159_84729">
<rect width="114" height="24" fill="white" transform="translate(23.8809 12)"/>
</clipPath>
</defs>
</svg>
