<svg width="162" height="49" viewBox="0 0 162 49" fill="none" xmlns="http://www.w3.org/2000/svg">
<path d="M9.6 46.22C9.6 47.66 10.44 48.5 11.88 48.5V0.5C10.44 0.5 9.6 1.34 9.6 2.78V2.9C9.6 4.34 8.64 5.06 7.32 5.06H7.08C5.64 5.06 4.56 6.14 4.56 7.58V7.82C4.56 9.14 3.84 10.1 2.4 10.1H2.28C0.84 10.1 0 10.94 0 12.38V36.62C0 38.06 0.84 38.9 2.28 38.9H2.4C3.84 38.9 4.56 39.86 4.56 41.18V41.42C4.56 42.86 5.64 43.94 7.08 43.94H7.32C8.64 43.94 9.6 44.66 9.6 46.1V46.22Z" fill="#181818"/>
<rect width="138" height="48" transform="translate(11.8809 0.5)" fill="#181818"/>
<g clip-path="url(#clip0_7159_97247)">
<path d="M30.2143 30.5H25.3663V19.3H29.9423C32.5503 19.3 34.1903 20.268 34.1903 22.404C34.1903 23.532 33.5023 24.436 32.5663 24.78C33.5903 25.124 34.4303 26.084 34.4303 27.292C34.4303 29.444 32.9023 30.5 30.2143 30.5ZM27.5983 21.268V23.884H29.8863C30.9983 23.884 31.8623 23.652 31.8623 22.564C31.8623 21.508 30.9823 21.268 29.8783 21.268H27.5983ZM27.5983 28.532H30.1023C31.3343 28.532 32.1103 28.252 32.1103 27.18C32.1103 26.132 31.3343 25.844 30.1023 25.844H27.5983V28.532ZM41.3004 30.7C38.4524 30.7 36.4764 29.124 36.4764 26.028V19.3H38.7164V25.916C38.7164 27.756 39.7564 28.564 41.3004 28.564C42.8444 28.564 43.8844 27.756 43.8844 25.916V19.3H46.1244V26.028C46.1244 29.124 44.1484 30.7 41.3004 30.7ZM54.0219 30.5H51.7899V26.076L47.4779 19.3H50.1019L52.9179 24.052L55.7339 19.3H58.2779L54.0219 26.084V30.5ZM65.7619 30.5H63.5219V19.3H65.6099L71.2979 26.78V19.3H73.5379V30.5H71.4419L65.7619 23.02V30.5ZM81.5884 30.708C78.1404 30.708 75.7084 28.244 75.7084 24.9C75.7084 21.556 78.1404 19.092 81.5884 19.092C85.0364 19.092 87.4764 21.556 87.4764 24.9C87.4764 28.244 85.0364 30.708 81.5884 30.708ZM81.5884 28.564C83.6524 28.564 85.1404 27.076 85.1404 24.9C85.1404 22.724 83.6524 21.236 81.5884 21.236C79.5324 21.236 78.0364 22.724 78.0364 24.9C78.0364 27.076 79.5324 28.564 81.5884 28.564ZM94.3899 30.5H91.6859L88.3419 19.3H90.6619L93.0699 27.892L95.5739 19.3H98.0459L100.55 27.892L102.958 19.3H105.238L101.894 30.5H99.1899L96.7899 22.5L94.3899 30.5Z" fill="white"/>
<path d="M132.019 23.5415C131.639 23.3935 131.384 23.0284 131.384 22.5775V22.4789C131.384 21.8873 131.14 21.6409 130.556 21.6409H130.458C129.873 21.6409 129.435 21.1972 129.435 20.6056V20.507C129.435 19.9155 129.191 19.669 128.605 19.669H128.508C127.924 19.669 127.484 19.2253 127.484 18.6338V18.5352C127.484 17.9437 127.924 17.5 128.508 17.5H128.605C129.191 17.5 129.629 17.9437 129.629 18.5352V18.6338C129.629 19.2253 129.873 19.4719 130.458 19.4719H130.556C131.14 19.4719 131.579 19.9155 131.579 20.507V20.6056C131.579 21.1972 131.822 21.4436 132.408 21.4436H132.505C133.09 21.4436 133.529 21.8873 133.529 22.4789V22.5775C133.529 23.1198 133.821 23.5141 134.406 23.5141H134.454C134.966 23.5141 135.381 23.9334 135.381 24.4507V24.5493C135.381 25.0666 134.966 25.4859 134.454 25.4859H134.406C133.821 25.4859 133.529 25.8802 133.529 26.4225V26.5211C133.529 27.1127 133.09 27.5564 132.505 27.5564H132.408C131.822 27.5564 131.579 27.8028 131.579 28.3944V28.493C131.579 29.0845 131.14 29.5281 130.556 29.5281H130.458C129.873 29.5281 129.629 29.7747 129.629 30.3662V30.4648C129.629 31.0563 129.191 31.5 128.605 31.5H128.508C127.924 31.5 127.484 31.0563 127.484 30.4648V30.3662C127.484 29.7747 127.924 29.331 128.508 29.331H128.605C129.191 29.331 129.435 29.0845 129.435 28.493V28.3944C129.435 27.8028 129.873 27.3591 130.458 27.3591H130.556C131.14 27.3591 131.384 27.1127 131.384 26.5211V26.4225C131.384 25.9622 131.649 25.5916 132.043 25.4497H116.324C115.803 25.4497 115.381 25.0225 115.381 24.4956C115.381 23.9687 115.803 23.5415 116.324 23.5415H132.019Z" fill="#FF0037"/>
</g>
<path d="M152.16 46.22C152.16 47.66 151.32 48.5 149.88 48.5V0.5C151.32 0.5 152.16 1.34 152.16 2.78V2.9C152.16 4.34 153.12 5.06 154.44 5.06H154.68C156.12 5.06 157.2 6.14 157.2 7.58V7.82C157.2 9.14 157.92 10.1 159.36 10.1H159.48C160.92 10.1 161.76 10.94 161.76 12.38V36.62C161.76 38.06 160.92 38.9 159.48 38.9H159.36C157.92 38.9 157.2 39.86 157.2 41.18V41.42C157.2 42.86 156.12 43.94 154.68 43.94H154.44C153.12 43.94 152.16 44.66 152.16 46.1V46.22Z" fill="#181818"/>
<defs>
<clipPath id="clip0_7159_97247">
<rect width="114" height="24" fill="white" transform="translate(23.8809 12.5)"/>
</clipPath>
</defs>
</svg>
