<svg width="174" height="49" viewBox="0 0 174 49" fill="none" xmlns="http://www.w3.org/2000/svg">
<path d="M9.6 46.6038C9.6 48.0438 10.44 48.8838 11.88 48.8838V0.883789C10.44 0.883789 9.6 1.72379 9.6 3.16379V3.28379C9.6 4.72379 8.64 5.44379 7.32 5.44379H7.08C5.64 5.44379 4.56 6.52379 4.56 7.96379V8.20379C4.56 9.52379 3.84 10.4838 2.4 10.4838H2.28C0.84 10.4838 0 11.3238 0 12.7638V37.0038C0 38.4438 0.84 39.2838 2.28 39.2838H2.4C3.84 39.2838 4.56 40.2438 4.56 41.5638V41.8038C4.56 43.2438 5.64 44.3238 7.08 44.3238H7.32C8.64 44.3238 9.6 45.0438 9.6 46.4838V46.6038Z" fill="white"/>
<rect width="150" height="48" transform="translate(11.8799 0.883789)" fill="white"/>
<g clip-path="url(#clip0_1641_7011)">
<path d="M30.6784 31.0918C27.2304 31.0918 24.7984 28.6518 24.7984 25.2838C24.7984 21.9158 27.2304 19.4758 30.6784 19.4758C32.7424 19.4758 34.5664 20.4198 35.4784 21.9878L33.5584 23.1638C32.9264 22.1958 31.9104 21.6198 30.6624 21.6198C28.6304 21.6198 27.1264 23.1078 27.1264 25.2838C27.1344 27.5318 28.6864 28.9478 30.6624 28.9478C31.9024 28.9478 32.9104 28.3878 33.5824 27.4118L35.4064 28.7238C34.4144 30.1798 32.7264 31.0918 30.6784 31.0918ZM42.6821 31.0918C39.2341 31.0918 36.8021 28.6278 36.8021 25.2838C36.8021 21.9398 39.2341 19.4758 42.6821 19.4758C46.1301 19.4758 48.5701 21.9398 48.5701 25.2838C48.5701 28.6278 46.1301 31.0918 42.6821 31.0918ZM42.6821 28.9478C44.7461 28.9478 46.2341 27.4598 46.2341 25.2838C46.2341 23.1078 44.7461 21.6198 42.6821 21.6198C40.6261 21.6198 39.1301 23.1078 39.1301 25.2838C39.1301 27.4598 40.6261 28.9478 42.6821 28.9478ZM52.9645 30.8838H50.7325V19.6838H54.0045L56.9165 27.2438L59.8205 19.6838H63.0925V30.8838H60.8605V22.4278L58.0925 29.8038H55.7325L52.9645 22.4918V30.8838ZM68.0308 30.8838H65.7988V19.6838H68.0308V30.8838ZM72.98 30.8838H70.74V19.6838H72.828L78.516 27.1638V19.6838H80.756V30.8838H78.66L72.98 23.4038V30.8838ZM88.7825 31.0838C85.6785 31.0838 82.9265 28.8998 82.9265 25.2838C82.9265 21.8998 85.3985 19.4758 88.8385 19.4758C90.6145 19.4758 92.0945 20.1158 93.0865 21.1958L91.4785 22.7718C90.8465 22.0438 89.9185 21.5958 88.7745 21.5958C86.7265 21.5958 85.2385 23.0998 85.2385 25.2838C85.2385 27.5718 86.7985 29.0038 88.7345 29.0038C90.5585 29.0038 91.6225 28.1238 91.9185 26.5318H89.0705V24.6678H94.2225C94.2465 24.8838 94.2545 25.0918 94.2545 25.2998C94.2545 28.6918 91.9585 31.0838 88.7825 31.0838ZM104.741 31.0838C103.045 31.0838 101.221 30.5878 100.021 29.6198L101.181 27.8198C101.989 28.4678 103.309 29.0278 104.749 29.0278C105.989 29.0278 106.949 28.5398 106.949 27.6758C106.949 26.8998 106.133 26.6118 104.573 26.3638L103.861 26.2518C101.885 25.9398 100.445 25.0678 100.445 23.0438C100.445 20.7078 102.525 19.4918 104.909 19.4918C106.477 19.4918 107.781 19.8438 109.189 20.6838L108.133 22.5078C107.253 21.9638 106.181 21.5558 104.957 21.5558C103.701 21.5558 102.813 22.0518 102.813 22.8998C102.813 23.7238 103.781 23.9718 105.125 24.1958L105.757 24.2998C107.757 24.6278 109.325 25.4838 109.325 27.4358C109.325 29.9078 107.149 31.0838 104.741 31.0838ZM116.802 31.0918C113.354 31.0918 110.922 28.6278 110.922 25.2838C110.922 21.9398 113.354 19.4758 116.802 19.4758C120.25 19.4758 122.69 21.9398 122.69 25.2838C122.69 28.6278 120.25 31.0918 116.802 31.0918ZM116.802 28.9478C118.866 28.9478 120.354 27.4598 120.354 25.2838C120.354 23.1078 118.866 21.6198 116.802 21.6198C114.746 21.6198 113.25 23.1078 113.25 25.2838C113.25 27.4598 114.746 28.9478 116.802 28.9478ZM130.197 31.0918C126.749 31.0918 124.317 28.6278 124.317 25.2838C124.317 21.9398 126.749 19.4758 130.197 19.4758C133.645 19.4758 136.085 21.9398 136.085 25.2838C136.085 28.6278 133.645 31.0918 130.197 31.0918ZM130.197 28.9478C132.261 28.9478 133.749 27.4598 133.749 25.2838C133.749 23.1078 132.261 21.6198 130.197 21.6198C128.141 21.6198 126.645 23.1078 126.645 25.2838C126.645 27.4598 128.141 28.9478 130.197 28.9478ZM140.487 30.8838H138.247V19.6838H140.335L146.023 27.1638V19.6838H148.263V30.8838H146.167L140.487 23.4038V30.8838Z" fill="#1C1B1B"/>
</g>
<path d="M164.16 46.6038C164.16 48.0438 163.32 48.8838 161.88 48.8838V0.883789C163.32 0.883789 164.16 1.72379 164.16 3.16379V3.28379C164.16 4.72379 165.12 5.44379 166.44 5.44379H166.68C168.12 5.44379 169.2 6.52379 169.2 7.96379V8.20379C169.2 9.52379 169.92 10.4838 171.36 10.4838H171.48C172.92 10.4838 173.76 11.3238 173.76 12.7638V37.0038C173.76 38.4438 172.92 39.2838 171.48 39.2838H171.36C169.92 39.2838 169.2 40.2438 169.2 41.5638V41.8038C169.2 43.2438 168.12 44.3238 166.68 44.3238H166.44C165.12 44.3238 164.16 45.0438 164.16 46.4838V46.6038Z" fill="white"/>
<defs>
<clipPath id="clip0_1641_7011">
<rect width="126" height="20" fill="white" transform="translate(23.8799 14.8838)"/>
</clipPath>
</defs>
</svg>
