<svg width="294" height="178" viewBox="0 0 294 178" fill="none" xmlns="http://www.w3.org/2000/svg">
<mask id="mask0_7159_79355" style="mask-type:alpha" maskUnits="userSpaceOnUse" x="0" y="0" width="294" height="178">
<rect x="0.835938" y="0.101562" width="293.164" height="177.537" fill="url(#paint0_linear_7159_79355)"/>
</mask>
<g mask="url(#mask0_7159_79355)">
<path d="M492.891 4.84375H-39.1758V295.789H492.891V4.84375Z" fill="#E9E5DC"/>
<path d="M327.515 116.485C308.046 116.485 290.825 107.276 289.206 96.4686C287.663 86.1991 300.916 78.2129 318.674 78.2129C336.432 78.2129 353.369 86.1991 356.575 96.4686C359.944 107.276 346.98 116.485 327.515 116.485Z" fill="#B3D98E"/>
<path d="M173.062 30.9679L133.835 63.2609L100.089 62.7234L3.62988 76.8222L20.8999 48.6041C21.3433 48.5683 77.5916 41.7237 81.9013 41.5189C88.326 41.4882 158.701 25.3673 165.13 23.7598L173.062 30.9679Z" fill="#B3D98E"/>
<path d="M165.135 23.7598H165.131L173.063 30.9679L165.135 23.7598Z" fill="#B3D98E"/>
<path d="M3.62988 76.8196L20.9043 48.6016L3.62988 76.8196Z" fill="#B3D98E"/>
<path d="M232.03 52.7606L234.447 64.6324L336.094 58.1103L300.543 41.4058L264.358 24.4043L232.03 52.7606Z" fill="#B3D98E"/>
<path d="M194.07 54.5311H213.557L213.899 44.8555H194.922L194.07 54.5311Z" fill="#94D3F6"/>
<path d="M61.3686 29.8173L65.3768 21.3652H47.6191L43.1719 29.8173H61.3686Z" fill="#94D3F6"/>
<path d="M228.923 147.098C223.496 147.098 219.045 149.934 218.978 153.476C218.912 157.075 223.377 160.029 228.955 160.029C234.532 160.029 238.98 157.07 238.895 153.476C238.811 149.934 234.346 147.098 228.919 147.098H228.923Z" fill="#FFAB00"/>
<path d="M250.303 15.4275C254.169 15.4275 257.175 14.0043 257.015 12.2637C256.86 10.5385 253.659 9.15625 249.864 9.15625C246.068 9.15625 243.062 10.5385 243.146 12.2637C243.231 14.0043 246.436 15.4275 250.303 15.4275Z" fill="#32526E"/>
<path d="M60.5734 129.76C83.1419 127.226 97.725 124.108 118.56 123.181C139.266 122.26 149.872 123.483 181.672 123.176C207.938 122.92 224.867 106.881 214.008 94.1133L205.491 84.0998C200.702 78.4685 190.885 74.8388 179.632 74.4447C152.51 73.4976 104.535 71.7826 101.875 71.4345C98.1728 70.9532 36.7324 80.035 29.82 82.0572C25.4881 83.3268 -10.1249 97.615 -39.1758 109.482V143.28C-27.2575 139.271 -17.0329 136.271 -10.6614 135.217C12.7362 131.352 37.7433 132.309 60.5734 129.76Z" fill="#94D3F6"/>
<path d="M486.409 4.84238L492.891 12.9361V0.117188H-39.1758V12.9361L-32.6979 4.84238H42.2615L16.2523 46.207C-2.1129 48.4084 -21.755 50.7889 -39.1758 52.9032V55.9134C-20.9303 53.6813 -2.52969 51.439 14.2393 49.4118L-4.04608 78.4848L-39.1758 93.0955V97.1705L-0.343781 80.8601L99.8 66.0907L228.649 68.1692L240.971 134.122L126.665 129.218L118.799 147.637C-51.2093 154.241 -32.086 152.834 -39.1758 155.337V160.38L-34.3207 158.644L19.9679 156.514L9.45955 197.869L-39.1758 205.067V211.077L7.89438 204.038L2.98606 223.353L7.66825 222.898L12.4702 203.352L95.1976 190.978L84.1794 295.787H94.5237L103.875 189.929L183.459 182.997L199.722 295.787H204.928L187.649 182.628L249.031 177.284C261.109 241.937 255.762 214.906 272.482 295.787H282.84L268.319 230.822L345.575 223.491L386.154 270.682L344.746 295.787H354.212L389.28 274.322L407.738 295.787H419.129L396.432 269.945L451.598 236.182L488.825 295.787H492.891V293.965L454.999 234.099L478.498 219.718L492.891 238.005V226.087L438.288 158.199C438.478 158.173 486.32 152.649 486.542 152.624L492.891 154.093V149.332L484.595 147.428L484.28 147.463L462.709 124.431L492.891 117.878V112.754L458.652 120.1L422.361 81.3516L457.996 74.9626L454.999 72.3517L419.798 78.6127L394.897 53.2513L469.032 36.8949L492.891 61.642V55.084L471.125 32.8966L455.393 26.6817L492.891 17.3183V15.6289L452.831 25.5759L425.935 15.2194L433.916 4.84238H486.409ZM95.6854 185.116L13.9821 197.203L24.016 156.356L97.4456 153.468L95.6854 185.116ZM373.73 4.84238H391.661L419.111 15.5112L409.614 27.552L369.23 8.37988L373.73 4.84238ZM407.268 29.9018L384.571 45.6644L352.971 21.1681L366.636 10.4225L407.268 29.9018ZM327.077 119.849C352.079 120.279 368.046 107.768 360.938 94.0579L398.414 87.3157L425.31 118.554L395.5 129.11L324.212 134.117L327.077 119.849ZM289.207 96.4692C287.664 86.1997 300.917 78.2134 318.675 78.2134C336.432 78.2134 353.37 86.1997 356.575 96.4692C359.945 107.276 346.98 116.486 327.516 116.486C308.051 116.486 290.825 107.276 289.207 96.4692ZM359.027 91.0938C351.131 80.9113 332.291 74.6247 314.551 75.5309L308.397 63.4798L372.302 56.9884L395.988 84.4949L359.027 91.0938ZM334.614 35.6048L359.103 44.1439L371.469 54.6694L339.886 57.8485L318.839 48.0142L334.614 35.6048ZM314.019 45.7616L264.652 22.6937L274.047 14.4822L329.471 33.8079L314.019 45.7616ZM336.064 34.4632L351.428 22.3814L370.023 36.9L358.46 42.2395L336.064 34.4632ZM362.978 44.6507L373.593 39.6849L386.34 51.4186L374.151 54.0806L362.978 44.6507ZM354.997 4.84238L362.353 8.36964L349.392 18.3934L331.91 4.84238H354.997ZM328.961 4.84238L347.85 19.5913L330.925 32.6816L275.333 13.361L285.079 4.84238H328.961ZM47.693 4.84238H144.325L162.615 21.4701C150.834 24.3728 88.6045 38.1338 82.8315 38.574C79.7411 38.6969 53.8117 41.7173 22.8499 45.4186L47.693 4.84238ZM100.088 62.7222L3.62898 76.821L20.899 48.6029C21.3424 48.5671 77.5907 41.7224 81.9004 41.5177C88.3251 41.4869 158.7 25.366 165.129 23.7585L173.061 30.9666L133.835 63.2597L100.088 62.7222ZM137.355 63.316L176.409 30.9154L167.736 23.093C173.802 21.7722 200.303 17.0419 218.504 13.8576L228.015 64.7597L137.355 63.316ZM223.386 10.3252C214.553 11.8559 174.059 18.8695 165.209 20.82L147.486 4.84238H281.935L261.61 22.4531L260.342 22.1152L230.95 47.4664L223.386 10.3252ZM232.027 52.7598C232.027 52.7598 264.351 24.4087 264.355 24.4036C267.53 25.8933 333.586 56.9373 336.641 58.3707L234.444 64.6317L232.027 52.7598ZM235.131 68.0105L303.528 63.7819L309.598 75.9814C292.257 78.2595 280.716 87.6485 284.383 98.8753H241.418L235.131 68.0105ZM104.243 184.123L105.444 153.156L124.723 152.398L124.914 151.938L239.135 172.502L104.243 184.123ZM125.951 149.414L132.212 134.153L241.866 138.909L247.905 171.243L125.951 149.414ZM248.65 134.383L242.052 101.988H285.788C290.914 110.803 304.876 117.873 321.277 119.512L318.094 134.383H248.65ZM249.617 139.129H317.97L326.026 164.014L256.103 170.987L249.617 139.129ZM257.23 176.516L327.76 169.4L332.703 184.676L259.788 189.094L257.23 176.516ZM260.391 192.048L333.643 187.579L338.516 202.635L263.823 208.906L260.391 192.048ZM267.592 227.408L264.47 212.09L339.527 205.753L344.196 220.184L267.592 227.408ZM335.696 168.596L405.029 161.608L426.059 195.284L347.034 201.918L335.696 168.596ZM393.279 266.361L353.587 221.172L348.093 205.031L427.934 198.284L449.253 232.425L393.279 266.361ZM475.82 216.314L452.64 230.372L408.869 161.224L430.719 159.018L475.82 216.314ZM478.649 148.103C418.384 154.984 450.241 151.625 333.869 163.231L325.569 138.858L399.416 133.621L434.896 120.889L378.647 56.84L389.599 54.4236L478.649 148.103ZM464.962 34.243L391.608 50.2667L389.329 48.1985L412.655 32.4819L424.192 17.4873C455.34 29.5895 446.308 25.8421 464.962 34.243ZM420.88 13.2689L398.999 4.84238H427.526L420.88 13.2689Z" fill="white"/>
<path d="M321.277 119.514L318.094 134.386H248.65L242.053 101.99H285.789C290.914 110.806 304.877 117.876 321.277 119.514Z" fill="#B3D98E"/>
<path d="M284.383 98.8746H241.419L235.132 68.0099L303.529 63.7812L309.599 75.9807C292.258 78.2589 280.717 87.6478 284.383 98.8746Z" fill="#B3D98E"/>
</g>
<path d="M228.71 125.225C230.323 125.225 231.701 124.651 232.846 123.503C233.991 122.354 234.563 120.974 234.563 119.361C234.563 117.749 233.989 116.37 232.84 115.226C231.692 114.081 230.312 113.509 228.699 113.509C227.087 113.509 225.708 114.083 224.564 115.231C223.419 116.38 222.847 117.76 222.847 119.372C222.847 120.985 223.421 122.363 224.569 123.508C225.717 124.653 227.098 125.225 228.71 125.225ZM228.705 156.479C220.549 149.411 214.434 142.835 210.358 136.748C206.282 130.661 204.244 125.073 204.244 119.984C204.244 112.505 206.663 106.451 211.501 101.821C216.339 97.1902 222.074 94.875 228.705 94.875C235.336 94.875 241.07 97.1902 245.908 101.821C250.746 106.451 253.166 112.505 253.166 119.984C253.166 125.073 251.128 130.661 247.052 136.748C242.976 142.835 236.86 149.411 228.705 156.479Z" fill="#FF0037"/>
<path d="M231.907 118.258C230.475 118.258 229.235 119.245 228.853 120.431H234.102C234.102 119.147 233.243 118.258 231.907 118.258Z" fill="white"/>
<path d="M228.66 106.602C216.253 106.602 206.136 111.935 206.136 119.934C206.136 125.07 210.335 129.613 216.634 132.181L215.966 135.934C234.386 137.514 251.279 131.49 251.279 120.132C251.184 110.552 238.777 106.602 228.66 106.602Z" fill="white"/>
<path d="M230.819 127.71C233.396 127.71 235.495 126.426 236.45 124.055H233.3C232.727 124.846 232.06 125.24 231.01 125.24C229.673 125.24 228.623 124.253 228.528 122.969H236.736C237.977 119.018 235.972 115.957 231.964 115.957C228.719 115.957 226.428 117.834 225.855 120.994C225.189 124.846 227.288 127.71 230.819 127.71ZM231.965 118.426C233.396 118.426 234.255 119.315 234.255 120.599H229.006C229.292 119.414 230.438 118.426 231.965 118.426Z" fill="#FF073C"/>
<path d="M223.375 127.713H224.138L224.711 124.849H224.043C222.993 124.849 222.516 124.059 222.707 122.874L223.471 118.727H225.857L226.43 115.863H224.043L224.52 113.098H221.465L219.652 122.776C219.176 125.639 220.321 127.713 223.375 127.713Z" fill="#FF073C"/>
<path d="M241.604 127.71H242.464L243.037 124.846H242.369C241.319 124.846 240.746 124.056 241.032 122.871L242.846 113.094H239.792L237.978 122.772C237.405 125.834 238.741 127.71 241.604 127.71Z" fill="#FF073C"/>
<path d="M220.319 113.195H217.265L216.788 116.059H219.747L220.319 113.195Z" fill="#FF073C"/>
<path d="M219.556 117.242H216.502L214.498 127.711H217.552L219.556 117.242Z" fill="#FF073C"/>
<defs>
<linearGradient id="paint0_linear_7159_79355" x1="294" y1="196.998" x2="174.11" y2="48.0122" gradientUnits="userSpaceOnUse">
<stop stop-color="#D9D9D9"/>
<stop offset="0.770342" stop-color="#D9D9D9" stop-opacity="0.1"/>
<stop offset="1" stop-color="#D9D9D9" stop-opacity="0"/>
</linearGradient>
</defs>
</svg>
