<svg width="1260" height="261" viewBox="0 0 1260 261" fill="none" xmlns="http://www.w3.org/2000/svg">
<mask id="mask0_7159_80601" style="mask-type:alpha" maskUnits="userSpaceOnUse" x="0" y="0" width="1260" height="342">
<rect y="0.339844" width="1260" height="341" fill="url(#paint0_linear_7159_80601)"/>
</mask>
<g mask="url(#mask0_7159_80601)">
<path d="M1407.98 -5.63672H273V414.617H1407.98V-5.63672Z" fill="#E9E5DC"/>
<path d="M1055.21 155.626C1013.67 155.626 976.939 142.323 973.487 126.713C970.196 111.879 998.466 100.344 1036.35 100.344C1074.23 100.344 1110.36 111.879 1117.19 126.713C1124.38 142.323 1096.73 155.626 1055.21 155.626Z" fill="#B3D98E"/>
<path d="M725.736 32.0972L642.06 78.7428L570.074 77.9664L364.312 98.3313L401.152 57.5719C402.098 57.5201 522.084 47.6334 531.277 47.3377C544.982 47.2933 695.101 24.0075 708.815 21.6855L725.736 32.0972Z" fill="#B3D98E"/>
<path d="M708.823 21.6855H708.813L725.734 32.0972L708.823 21.6855Z" fill="#B3D98E"/>
<path d="M364.312 98.3317L401.161 57.5723L364.312 98.3317Z" fill="#B3D98E"/>
<path d="M851.522 63.5782L856.677 80.7265L1073.5 71.3056L997.67 47.1768L920.482 22.6191L851.522 63.5782Z" fill="#B3D98E"/>
<path d="M770.547 66.1361H812.115L812.844 52.1602H772.363L770.547 66.1361Z" fill="#94D3F6"/>
<path d="M487.475 30.443L496.025 18.2344H458.146L448.659 30.443H487.475Z" fill="#94D3F6"/>
<path d="M840.451 199.84C828.875 199.84 819.379 203.936 819.237 209.054C819.095 214.252 828.619 218.519 840.518 218.519C852.416 218.519 861.903 214.245 861.723 209.054C861.543 203.936 852.019 199.84 840.442 199.84H840.451Z" fill="#FFAB00"/>
<path d="M890.501 9.65613C898.748 9.65613 905.161 7.60041 904.82 5.08622C904.489 2.59422 897.66 0.597656 889.564 0.597656C881.468 0.597656 875.055 2.59422 875.235 5.08622C875.415 7.60041 882.253 9.65613 890.501 9.65613Z" fill="#32526E"/>
<path d="M330.226 88.7656C320.626 88.7656 310.213 91.5756 306.922 95.0881C303.592 98.6375 308.813 101.551 318.631 101.551C328.448 101.551 338.956 98.6375 342.068 95.0881C345.142 91.583 339.826 88.7656 330.226 88.7656Z" fill="#FFAB00"/>
<path d="M1394.15 -5.63566L1407.98 6.05532V-12.4609H273V6.05532L286.818 -5.63566H446.717L391.236 54.1133C352.061 57.293 310.161 60.7315 273 63.7855V68.1336C311.92 64.9095 351.171 61.6706 386.942 58.7423L347.937 100.737L273 121.841V127.727L355.834 104.168L569.456 82.8342L844.309 85.8364L870.593 181.102L626.762 174.018L609.984 200.624C247.331 210.163 288.124 208.129 273 211.745V219.029L283.357 216.522L399.162 213.446L376.746 273.18L273 283.577V292.259L373.408 282.091L362.937 309.991L372.925 309.333L383.168 281.1L559.638 263.227L536.135 414.618H558.2L578.148 261.711L747.912 251.699L782.604 414.618H793.708L756.849 251.166L887.788 243.446C913.552 336.834 902.145 297.79 937.812 414.618H959.906L928.931 320.78L1093.73 310.191L1180.29 378.355L1091.96 414.618H1112.15L1186.96 383.612L1226.33 414.618H1250.63L1202.21 377.29L1319.89 328.522L1399.3 414.618H1407.98V411.986L1327.15 325.512L1377.27 304.741L1407.98 331.155V313.94L1291.5 215.879C1291.91 215.842 1393.96 207.863 1394.43 207.826L1407.98 209.949V203.072L1390.28 200.321L1389.61 200.372L1343.59 167.104L1407.98 157.639V150.237L1334.94 160.848L1257.53 104.878L1333.54 95.6491L1327.15 91.8779L1252.06 100.922L1198.94 64.2883L1357.08 40.6624L1407.98 76.4082V66.9356L1361.55 34.8871L1327.99 25.91L1407.98 12.3852V9.94491L1322.52 24.3128L1265.15 9.35334L1282.17 -5.63566H1394.15ZM560.678 254.76L386.394 272.219L407.797 213.217L564.433 209.046L560.678 254.76ZM1153.79 -5.63566H1192.04L1250.59 9.77483L1230.33 27.1671L1144.19 -0.525941L1153.79 -5.63566ZM1225.33 30.5613L1176.91 53.3294L1109.51 17.9459L1138.66 2.42453L1225.33 30.5613ZM1054.27 160.486C1107.6 161.107 1141.66 143.034 1126.5 123.231L1206.44 113.492L1263.81 158.615L1200.23 173.863L1048.16 181.095L1054.27 160.486ZM973.488 126.714C970.196 111.88 998.467 100.345 1036.35 100.345C1074.23 100.345 1110.36 111.88 1117.19 126.714C1124.38 142.324 1096.73 155.627 1055.21 155.627C1013.68 155.627 976.94 142.324 973.488 126.714ZM1122.43 118.95C1105.58 104.242 1065.39 95.1611 1027.55 96.4699L1014.42 79.0629L1150.74 69.6864L1201.27 109.418L1122.43 118.95ZM1070.35 38.7989L1122.59 51.1332L1148.96 66.3367L1081.59 70.9287L1036.7 56.7236L1070.35 38.7989ZM1026.42 53.4699L921.109 20.1496L941.151 8.28851L1059.38 36.2034L1026.42 53.4699ZM1073.44 37.1499L1106.21 19.6985L1145.88 40.6698L1121.21 48.3824L1073.44 37.1499ZM1130.85 51.8653L1153.5 44.6925L1180.69 61.641L1154.69 65.4863L1130.85 51.8653ZM1113.83 -5.63566L1129.52 -0.54073L1101.87 13.938L1064.58 -5.63566H1113.83ZM1058.29 -5.63566L1098.58 15.6684L1062.48 34.5766L943.893 6.66907L964.682 -5.63566H1058.29ZM458.304 -5.63566H664.434L703.449 18.3822C678.319 22.575 545.574 42.4519 533.259 43.0878C526.667 43.2653 471.356 47.6281 405.31 52.9745L458.304 -5.63566ZM570.07 77.9685L364.309 98.3334L401.148 57.574C402.094 57.5222 522.08 47.6355 531.273 47.3398C544.978 47.2954 695.097 24.0096 708.812 21.6876L725.732 32.0993L642.056 78.7449L570.07 77.9685ZM649.566 78.8263L732.873 32.0254L714.373 20.7263C727.312 18.8185 783.843 11.9858 822.669 7.38636L842.956 80.9116L649.566 78.8263ZM833.082 2.28403C814.241 4.49504 727.86 14.6257 708.982 17.4431L671.178 -5.63566H957.977L914.621 19.802L911.916 19.314L849.218 55.9324L833.082 2.28403ZM851.516 63.5785C851.516 63.5785 920.466 22.6268 920.475 22.6194C927.247 24.7712 1068.15 69.6125 1074.67 71.683L856.671 80.7267L851.516 63.5785ZM858.137 85.6072L1004.04 79.4992L1016.99 97.1207C979.995 100.411 955.376 113.973 963.198 130.19H871.548L858.137 85.6072ZM578.933 253.326L581.496 208.595L622.62 207.501L623.026 206.835L866.677 236.54L578.933 253.326ZM625.24 203.19L638.595 181.146L872.503 188.016L885.385 234.721L625.24 203.19ZM886.974 181.479L872.901 134.686H966.196C977.129 147.419 1006.91 157.631 1041.9 159.998L1035.11 181.479H886.974ZM889.036 188.334H1034.84L1052.03 224.279L902.874 234.351L889.036 188.334ZM905.276 242.337L1055.73 232.059L1066.27 254.124L910.733 260.506L905.276 242.337ZM912.02 264.773L1068.28 258.317L1078.67 280.065L919.34 289.123L912.02 264.773ZM927.38 315.848L920.721 293.723L1080.83 284.568L1090.79 305.414L927.38 315.848ZM1072.66 230.898L1220.55 220.804L1265.41 269.446L1096.84 279.03L1072.66 230.898ZM1195.49 372.114L1110.82 306.841L1099.1 283.525L1269.41 273.779L1314.89 323.094L1195.49 372.114ZM1371.56 299.823L1322.11 320.129L1228.74 220.249L1275.35 217.062L1371.56 299.823ZM1377.6 201.297C1249.04 211.235 1317 206.384 1068.76 223.148L1051.05 187.942L1208.58 180.377L1284.26 161.987L1164.28 69.472L1187.64 65.9817L1377.6 201.297ZM1348.4 36.8319L1191.92 59.9772L1187.06 56.9898L1236.82 34.2882L1261.43 12.6292C1327.87 30.1102 1308.61 24.6973 1348.4 36.8319ZM1254.37 6.53597L1207.69 -5.63566H1268.54L1254.37 6.53597Z" fill="white"/>
<path d="M1221.36 65.2797L1262.37 97.6166L1392.59 80.7271L1351.69 47.7617L1221.36 65.2797Z" fill="#B3D98E"/>
<path d="M1041.9 159.996L1035.11 181.477H886.976L872.902 134.684H966.197C977.131 147.417 1006.91 157.629 1041.9 159.996Z" fill="#B3D98E"/>
<path d="M963.197 130.189H871.547L858.136 85.606L1004.04 79.498L1016.99 97.1195C979.994 100.41 955.375 113.972 963.197 130.189Z" fill="#B3D98E"/>
<path d="M1201.26 109.419L1122.42 118.951C1105.57 104.243 1065.38 95.1621 1027.54 96.471L1014.41 79.0639L1150.73 69.6875L1201.26 109.419Z" fill="#B3D98E"/>
<path d="M1263.81 158.616L1200.22 173.864L1048.16 181.096L1054.27 160.487C1107.6 161.108 1141.66 143.036 1126.5 123.233L1206.44 113.494L1263.81 158.616Z" fill="#B3D98E"/>
</g>
<path d="M839.997 125.328C844.185 125.328 847.766 123.837 850.738 120.855C853.711 117.873 855.198 114.287 855.198 110.099C855.198 105.911 853.706 102.331 850.724 99.3579C847.742 96.3851 844.157 94.8987 839.968 94.8987C835.78 94.8987 832.2 96.3899 829.227 99.3722C826.254 102.355 824.768 105.94 824.768 110.128C824.768 114.316 826.259 117.896 829.241 120.869C832.224 123.842 835.809 125.328 839.997 125.328ZM839.983 206.502C818.801 188.147 802.917 171.065 792.331 155.257C781.745 139.448 776.452 124.935 776.452 111.716C776.452 92.2927 782.735 76.5679 795.301 64.5415C807.867 52.5151 822.761 46.502 839.983 46.502C857.205 46.502 872.099 52.5151 884.664 64.5415C897.23 76.5679 903.513 92.2927 903.513 111.716C903.513 124.935 898.22 139.448 887.635 155.257C877.049 171.065 861.165 188.147 839.983 206.502Z" fill="#FF0037"/>
<path d="M848.297 104.232C844.579 104.232 841.357 106.797 840.364 109.876H853.998C853.998 106.542 851.768 104.232 848.297 104.232Z" fill="white"/>
<path d="M839.867 73.959C807.641 73.959 781.365 87.8113 781.365 108.588C781.365 121.925 792.271 133.725 808.632 140.394L806.897 150.142C854.739 154.246 898.615 138.599 898.615 109.1C898.366 84.2196 866.143 73.959 839.867 73.959Z" fill="white"/>
<path d="M845.473 128.792C852.166 128.792 857.618 125.458 860.099 119.301H851.917C850.43 121.353 848.695 122.378 845.968 122.378C842.497 122.378 839.77 119.814 839.523 116.479H860.841C864.063 106.219 858.857 98.2676 848.446 98.2676C840.019 98.2676 834.069 103.142 832.581 111.35C830.849 121.353 836.301 128.792 845.473 128.792ZM848.449 104.679C852.166 104.679 854.398 106.988 854.398 110.323H840.765C841.507 107.246 844.482 104.679 848.449 104.679Z" fill="#FF073C"/>
<path d="M826.139 128.799H828.122L829.61 121.36H827.875C825.148 121.36 823.909 119.308 824.404 116.231L826.387 105.458H832.585L834.073 98.0191H827.873L829.112 90.8379H821.18L816.469 115.976C815.232 123.412 818.206 128.799 826.139 128.799Z" fill="#FF073C"/>
<path d="M873.486 128.793H875.718L877.206 121.354H875.471C872.744 121.354 871.256 119.302 872 116.225L876.71 90.8301H868.778L864.068 115.968C862.578 123.919 866.049 128.793 873.486 128.793Z" fill="#FF073C"/>
<path d="M818.204 91.0879H810.271L809.032 98.5265H816.716L818.204 91.0879Z" fill="#FF073C"/>
<path d="M816.223 101.602H808.29L803.085 128.791H811.018L816.223 101.602Z" fill="#FF073C"/>
<defs>
<linearGradient id="paint0_linear_7159_80601" x1="977.5" y1="228.84" x2="676.653" y2="-106.17" gradientUnits="userSpaceOnUse">
<stop stop-color="#D9D9D9"/>
<stop offset="0.684989" stop-color="#D9D9D9" stop-opacity="0.1"/>
<stop offset="0.818378" stop-color="#D9D9D9" stop-opacity="0.05"/>
<stop offset="1" stop-color="#D9D9D9" stop-opacity="0"/>
</linearGradient>
</defs>
</svg>
