<svg xmlns="http://www.w3.org/2000/svg" width="32" height="33" viewBox="0 0 32 33" fill="none">
  <path d="M10.667 25.8334H17.3337C21.1043 25.8334 22.991 25.8334 24.1617 24.6614C25.3323 23.4894 25.3337 21.604 25.3337 17.8334C25.3337 15.348 25.3337 13.6827 24.999 12.5M7.33366 9.88402C5.65633 9.97735 4.59766 10.2454 3.83899 11.004C2.66699 12.1774 2.66699 14.0614 2.66699 17.8334C2.66699 20.824 2.66699 22.6294 3.25233 23.8334M25.3337 14.5L26.703 14.728C27.611 14.88 28.0657 14.9547 28.4097 15.176C28.7491 15.3923 29.0154 15.706 29.1737 16.076C29.3337 16.452 29.3337 16.912 29.3337 17.8334C29.3337 18.7534 29.3337 19.2147 29.1737 19.5907C29.0157 19.9605 28.7499 20.2742 28.411 20.4907C28.0657 20.7107 27.611 20.7867 26.7043 20.9387L25.3337 21.1667" stroke="url(#paint0_linear_1594_6678)" stroke-linecap="round" stroke-linejoin="round"/>
  <path d="M6.71057 27.1667C6.0599 19.9667 11.9999 18.5 14.6666 15.1667M14.7119 21.6134C18.1052 20.6667 20.2812 18.396 21.0879 14.964C22.0026 11.0773 20.3639 5.78402 16.1372 5.83335C16.1372 5.83335 16.5666 7.51335 16.1906 8.33468C14.8039 11.368 9.9999 11.1574 8.4439 15.0014C7.5159 17.1547 8.07724 19.5587 9.82124 20.9374C10.9172 21.804 13.0826 22.0694 14.7119 21.6134Z" stroke="url(#paint1_linear_1594_6678)" stroke-linecap="round" stroke-linejoin="round"/>
  <defs>
    <linearGradient id="paint0_linear_1594_6678" x1="20.204" y1="25.8333" x2="11.0941" y2="11.636" gradientUnits="userSpaceOnUse">
      <stop stop-color="#15D582"/>
      <stop offset="1" stop-color="#106DE7"/>
    </linearGradient>
    <linearGradient id="paint1_linear_1594_6678" x1="16.3102" y1="27.1667" x2="4.12961" y2="19.3582" gradientUnits="userSpaceOnUse">
      <stop stop-color="#15D582"/>
      <stop offset="1" stop-color="#106DE7"/>
    </linearGradient>
  </defs>
</svg>