<svg width="32" height="32" viewBox="0 0 32 32" fill="none" xmlns="http://www.w3.org/2000/svg">
<path d="M27.7363 22.849C27.5221 24.4831 26.7202 25.9832 25.4805 27.069C24.2407 28.1549 22.648 28.7521 21 28.749C11.2125 28.749 3.25001 20.7865 3.25001 10.999C3.24686 9.35159 3.84354 7.75933 4.9286 6.51968C6.01367 5.28003 7.5129 4.47778 9.14626 4.26278C9.52226 4.21709 9.90293 4.29462 10.2311 4.48373C10.5593 4.67283 10.8173 4.96331 10.9663 5.31153L13.6038 11.199C13.7202 11.4656 13.7684 11.7569 13.744 12.0468C13.7195 12.3366 13.6232 12.6158 13.4638 12.859C13.4477 12.8838 13.4302 12.9076 13.4113 12.9303L10.7775 16.0628C10.7615 16.0953 10.7532 16.131 10.7532 16.1672C10.7532 16.2034 10.7615 16.2391 10.7775 16.2715C11.735 18.2315 13.79 20.2715 15.7775 21.2278C15.8107 21.2429 15.8469 21.2501 15.8834 21.2488C15.9198 21.2475 15.9555 21.2377 15.9875 21.2203L19.0738 18.5953C19.0958 18.5761 19.1192 18.5586 19.1438 18.5428C19.3859 18.3813 19.6646 18.2828 19.9544 18.2562C20.2443 18.2296 20.5362 18.2756 20.8038 18.3903L26.7088 21.0365C27.0524 21.1888 27.3378 21.4477 27.5228 21.7748C27.7079 22.1019 27.7827 22.4798 27.7363 22.8528V22.849ZM26.25 22.664C26.2542 22.6118 26.2419 22.5595 26.2147 22.5146C26.1876 22.4698 26.147 22.4346 26.0988 22.414L20.1925 19.7678C20.1602 19.7553 20.1257 19.75 20.0911 19.7522C20.0566 19.7543 20.023 19.7639 19.9925 19.7803L16.9075 22.4053C16.885 22.424 16.8613 22.4415 16.8375 22.4578C16.5859 22.6256 16.295 22.7253 15.9934 22.7472C15.6917 22.7691 15.3895 22.7125 15.1163 22.5828C12.8213 21.474 10.5338 19.2078 9.42501 16.934C9.29461 16.6624 9.23656 16.3616 9.25648 16.061C9.27641 15.7603 9.37364 15.4699 9.53876 15.2178C9.55486 15.1927 9.57283 15.1689 9.59251 15.1465L12.2238 12.0103C12.2388 11.9775 12.2466 11.9419 12.2466 11.9059C12.2466 11.8699 12.2388 11.8343 12.2238 11.8015L9.59251 5.91278C9.57514 5.86549 9.54388 5.82455 9.50284 5.79533C9.4618 5.76611 9.41289 5.74997 9.36251 5.74903H9.33376C8.06244 5.91815 6.89613 6.54421 6.05263 7.51032C5.20913 8.47642 4.7461 9.71652 4.75001 10.999C4.75001 19.959 12.04 27.249 21 27.249C22.2827 27.2529 23.523 26.7897 24.4891 25.9459C25.4552 25.1022 26.0812 23.9356 26.25 22.664Z" fill="url(#paint0_linear_1466_6656)"/>
<defs>
<linearGradient id="paint0_linear_1466_6656" x1="19.3619" y1="28.749" x2="4.00638" y2="14.4356" gradientUnits="userSpaceOnUse">
<stop stop-color="#15D582"/>
<stop offset="1" stop-color="#106DE7"/>
</linearGradient>
</defs>
</svg>
