<svg xmlns="http://www.w3.org/2000/svg" width="32" height="33" viewBox="0 0 32 33" fill="none">
  <path d="M8.64435 5.37744C8.40937 5.11777 8.12554 4.90693 7.80908 4.75695C7.49262 4.60697 7.14972 4.52079 6.79995 4.50333C6.45018 4.48588 6.1004 4.53748 5.77058 4.6552C5.44075 4.77292 5.13735 4.95446 4.87768 5.18944C4.61801 5.42441 4.40717 5.70824 4.25719 6.0247C4.10721 6.34116 4.02103 6.68407 4.00358 7.03383C3.98612 7.3836 4.03772 7.73338 4.15545 8.0632C4.27317 8.39303 4.4547 8.69643 4.68968 8.9561C5.16424 9.48052 5.82769 9.79495 6.53408 9.8302C7.24046 9.86546 7.93192 9.61866 8.45635 9.1441C8.98077 8.66954 9.29519 8.00609 9.33045 7.2997C9.3657 6.59332 9.11891 5.90186 8.64435 5.37744ZM8.64435 5.37744C10.8247 3.93132 13.384 3.16219 16.0003 3.16677C16.9159 3.16855 17.8048 3.25744 18.667 3.43344M27.1377 9.16677C28.5743 11.3423 29.3381 13.893 29.3337 16.5001C29.3319 17.4157 29.243 18.3045 29.067 19.1668M23.3563 27.6228C21.176 29.0689 18.6167 29.838 16.0003 29.8334C15.0848 29.8317 14.1959 29.7428 13.3337 29.5668M23.3563 27.6228C23.5913 27.8824 23.8751 28.0933 24.1916 28.2433C24.5081 28.3932 24.851 28.4794 25.2007 28.4969C25.5505 28.5143 25.9003 28.4627 26.2301 28.345C26.5599 28.2273 26.8633 28.0457 27.123 27.8108C27.3827 27.5758 27.5935 27.292 27.7435 26.9755C27.8935 26.659 27.9797 26.3161 27.9971 25.9664C28.0146 25.6166 27.963 25.2668 27.8452 24.937C27.7275 24.6072 27.546 24.3038 27.311 24.0441C26.8365 23.5197 26.173 23.2053 25.4666 23.17C24.7602 23.1347 24.0688 23.3815 23.5443 23.8561C23.0199 24.3307 22.7055 24.9941 22.6702 25.7005C22.635 26.4069 22.8818 27.0983 23.3563 27.6228ZM4.87768 23.8561C3.43157 21.6757 2.66243 19.1164 2.66701 16.5001C2.66879 15.5845 2.75768 14.6957 2.93368 13.8334M4.87768 23.8561C4.35326 24.3307 4.03883 24.9941 4.00358 25.7005C3.96832 26.4069 4.21512 27.0983 4.68968 27.6228C5.16424 28.1472 5.82769 28.4616 6.53408 28.4969C7.24046 28.5321 7.93192 28.2853 8.45635 27.8108C8.71601 27.5758 8.92685 27.292 9.07683 26.9755C9.22681 26.659 9.31299 26.3161 9.33045 25.9664C9.34791 25.6166 9.2963 25.2668 9.17858 24.937C9.06086 24.6072 8.87932 24.3038 8.64435 24.0441C8.40937 23.7844 8.12554 23.5736 7.80908 23.4236C7.49262 23.2736 7.14972 23.1875 6.79995 23.17C6.09356 23.1347 5.4021 23.3815 4.87768 23.8561ZM10.667 14.4708C12.199 13.2241 14.027 12.5001 15.9937 12.5001C17.9643 12.5001 19.799 13.2294 21.3337 14.4828M18.899 17.8334C18.0299 17.2809 17.0223 16.9851 15.9923 16.9801C14.9677 16.9852 13.9652 17.2781 13.099 17.8254M16.0003 21.8334H16.0083M28.0003 7.16677C28.0003 7.87401 27.7194 8.55229 27.2193 9.05239C26.7192 9.55248 26.0409 9.83344 25.3337 9.83344C24.6264 9.83344 23.9482 9.55248 23.4481 9.05239C22.948 8.55229 22.667 7.87401 22.667 7.16677C22.667 6.45952 22.948 5.78125 23.4481 5.28115C23.9482 4.78105 24.6264 4.5001 25.3337 4.5001C26.0409 4.5001 26.7192 4.78105 27.2193 5.28115C27.7194 5.78125 28.0003 6.45952 28.0003 7.16677Z" stroke="url(#paint0_linear_1470_6586)" stroke-width="2" stroke-linecap="round" stroke-linejoin="round"/>
  <defs>
    <linearGradient id="paint0_linear_1470_6586" x1="20.2041" y1="29.8335" x2="3.48987" y2="14.254" gradientUnits="userSpaceOnUse">
      <stop stop-color="#15D582"/>
      <stop offset="1" stop-color="#106DE7"/>
    </linearGradient>
  </defs>
</svg>