<svg xmlns="http://www.w3.org/2000/svg" width="33" height="33" viewBox="0 0 33 33" fill="none">
  <path d="M10.5 16.5001H18.5M10.5 11.1667H14.5M11.8333 27.1667C13.2333 28.3267 14.92 29.0654 16.852 29.1921C18.3733 29.2921 19.9627 29.2921 21.4827 29.1921C22.0258 29.1545 22.56 29.034 23.0667 28.8347C23.6133 28.6121 23.8853 28.5014 24.0253 28.5187C24.164 28.5347 24.3653 28.6814 24.768 28.9747C25.4787 29.4921 26.3733 29.8627 27.7013 29.8321C28.372 29.8161 28.708 29.8067 28.8573 29.5547C29.008 29.3014 28.8213 28.9521 28.4467 28.2521C27.9267 27.2814 27.5987 26.1707 28.0973 25.2801C28.9547 24.0081 29.684 22.5027 29.7907 20.8761C29.848 20.0027 29.848 19.0974 29.7907 18.2227C29.7211 17.1673 29.4647 16.1325 29.0333 15.1667" stroke="url(#paint0_linear_1594_6609)" stroke-width="2" stroke-linecap="round" stroke-linejoin="round"/>
  <path d="M16.9597 23.8161C21.701 23.5041 25.477 19.7094 25.7863 14.9454C25.8477 14.0134 25.8477 13.0481 25.7863 12.1161C25.477 7.35341 21.701 3.55875 16.9597 3.24675C15.3423 3.14008 13.653 3.14008 12.0397 3.24675C7.29833 3.55875 3.52233 7.35341 3.21299 12.1161C3.15166 13.0494 3.15166 14.0134 3.21299 14.9454C3.32499 16.6814 4.09966 18.2867 5.01166 19.6441C5.54099 20.5934 5.19166 21.7774 4.63966 22.8134C4.24233 23.5601 4.04366 23.9334 4.20366 24.2027C4.36366 24.4721 4.71966 24.4814 5.43299 24.4974C6.84233 24.5321 7.79299 24.1361 8.54766 23.5841C8.97566 23.2721 9.19033 23.1161 9.33833 23.0974C9.48499 23.0801 9.77566 23.1974 10.3557 23.4347C10.8783 23.6481 11.4837 23.7787 12.0397 23.8161C13.653 23.9227 15.3423 23.9227 16.9597 23.8161Z" stroke="url(#paint1_linear_1594_6609)" stroke-width="2" stroke-linecap="round" stroke-linejoin="round"/>
  <defs>
    <linearGradient id="paint0_linear_1594_6609" x1="23.2146" y1="29.8339" x2="11.4927" y2="18.5177" gradientUnits="userSpaceOnUse">
      <stop stop-color="#15D582"/>
      <stop offset="1" stop-color="#106DE7"/>
    </linearGradient>
    <linearGradient id="paint1_linear_1594_6609" x1="18.0726" y1="24.4995" x2="4.66919" y2="11.2257" gradientUnits="userSpaceOnUse">
      <stop stop-color="#15D582"/>
      <stop offset="1" stop-color="#106DE7"/>
    </linearGradient>
  </defs>
</svg>