<svg width="32" height="32" viewBox="0 0 32 32" fill="none" xmlns="http://www.w3.org/2000/svg">
<path d="M9.75 6C9.75 6.34612 9.64736 6.68446 9.45507 6.97225C9.26278 7.26004 8.98947 7.48434 8.6697 7.61679C8.34993 7.74924 7.99806 7.7839 7.65859 7.71638C7.31913 7.64885 7.00731 7.48218 6.76256 7.23744C6.51782 6.9927 6.35115 6.68088 6.28363 6.34141C6.2161 6.00194 6.25076 5.65008 6.38321 5.33031C6.51566 5.01053 6.73997 4.73722 7.02775 4.54493C7.31554 4.35264 7.65388 4.25 8 4.25C8.46413 4.25 8.90925 4.43438 9.23744 4.76256C9.56563 5.09075 9.75 5.53587 9.75 6ZM16 4.25C15.6539 4.25 15.3155 4.35264 15.0278 4.54493C14.74 4.73722 14.5157 5.01053 14.3832 5.33031C14.2508 5.65008 14.2161 6.00194 14.2836 6.34141C14.3512 6.68088 14.5178 6.9927 14.7626 7.23744C15.0073 7.48218 15.3191 7.64885 15.6586 7.71638C15.9981 7.7839 16.3499 7.74924 16.6697 7.61679C16.9895 7.48434 17.2628 7.26004 17.4551 6.97225C17.6474 6.68446 17.75 6.34612 17.75 6C17.75 5.53587 17.5656 5.09075 17.2374 4.76256C16.9092 4.43438 16.4641 4.25 16 4.25ZM24 7.75C24.3461 7.75 24.6845 7.64737 24.9722 7.45507C25.26 7.26278 25.4843 6.98947 25.6168 6.6697C25.7492 6.34993 25.7839 5.99806 25.7164 5.65859C25.6488 5.31913 25.4822 5.00731 25.2374 4.76256C24.9927 4.51782 24.6809 4.35115 24.3414 4.28363C24.0019 4.2161 23.6501 4.25076 23.3303 4.38321C23.0105 4.51566 22.7372 4.73997 22.5449 5.02775C22.3526 5.31554 22.25 5.65388 22.25 6C22.25 6.46413 22.4344 6.90925 22.7626 7.23744C23.0908 7.56563 23.5359 7.75 24 7.75ZM8 11.25C7.65388 11.25 7.31554 11.3526 7.02775 11.5449C6.73997 11.7372 6.51566 12.0105 6.38321 12.3303C6.25076 12.6501 6.2161 13.0019 6.28363 13.3414C6.35115 13.6809 6.51782 13.9927 6.76256 14.2374C7.00731 14.4822 7.31913 14.6489 7.65859 14.7164C7.99806 14.7839 8.34993 14.7492 8.6697 14.6168C8.98947 14.4843 9.26278 14.26 9.45507 13.9722C9.64736 13.6845 9.75 13.3461 9.75 13C9.75 12.5359 9.56563 12.0908 9.23744 11.7626C8.90925 11.4344 8.46413 11.25 8 11.25ZM16 11.25C15.6539 11.25 15.3155 11.3526 15.0278 11.5449C14.74 11.7372 14.5157 12.0105 14.3832 12.3303C14.2508 12.6501 14.2161 13.0019 14.2836 13.3414C14.3512 13.6809 14.5178 13.9927 14.7626 14.2374C15.0073 14.4822 15.3191 14.6489 15.6586 14.7164C15.9981 14.7839 16.3499 14.7492 16.6697 14.6168C16.9895 14.4843 17.2628 14.26 17.4551 13.9722C17.6474 13.6845 17.75 13.3461 17.75 13C17.75 12.5359 17.5656 12.0908 17.2374 11.7626C16.9092 11.4344 16.4641 11.25 16 11.25ZM24 11.25C23.6539 11.25 23.3155 11.3526 23.0278 11.5449C22.74 11.7372 22.5157 12.0105 22.3832 12.3303C22.2508 12.6501 22.2161 13.0019 22.2836 13.3414C22.3512 13.6809 22.5178 13.9927 22.7626 14.2374C23.0073 14.4822 23.3191 14.6489 23.6586 14.7164C23.9981 14.7839 24.3499 14.7492 24.6697 14.6168C24.9895 14.4843 25.2628 14.26 25.4551 13.9722C25.6474 13.6845 25.75 13.3461 25.75 13C25.75 12.5359 25.5656 12.0908 25.2374 11.7626C24.9092 11.4344 24.4641 11.25 24 11.25ZM8 18.25C7.65388 18.25 7.31554 18.3526 7.02775 18.5449C6.73997 18.7372 6.51566 19.0105 6.38321 19.3303C6.25076 19.6501 6.2161 20.0019 6.28363 20.3414C6.35115 20.6809 6.51782 20.9927 6.76256 21.2374C7.00731 21.4822 7.31913 21.6488 7.65859 21.7164C7.99806 21.7839 8.34993 21.7492 8.6697 21.6168C8.98947 21.4843 9.26278 21.26 9.45507 20.9722C9.64736 20.6845 9.75 20.3461 9.75 20C9.75 19.5359 9.56563 19.0908 9.23744 18.7626C8.90925 18.4344 8.46413 18.25 8 18.25ZM16 18.25C15.6539 18.25 15.3155 18.3526 15.0278 18.5449C14.74 18.7372 14.5157 19.0105 14.3832 19.3303C14.2508 19.6501 14.2161 20.0019 14.2836 20.3414C14.3512 20.6809 14.5178 20.9927 14.7626 21.2374C15.0073 21.4822 15.3191 21.6488 15.6586 21.7164C15.9981 21.7839 16.3499 21.7492 16.6697 21.6168C16.9895 21.4843 17.2628 21.26 17.4551 20.9722C17.6474 20.6845 17.75 20.3461 17.75 20C17.75 19.5359 17.5656 19.0908 17.2374 18.7626C16.9092 18.4344 16.4641 18.25 16 18.25ZM16 25.25C15.6539 25.25 15.3155 25.3526 15.0278 25.5449C14.74 25.7372 14.5157 26.0105 14.3832 26.3303C14.2508 26.6501 14.2161 27.0019 14.2836 27.3414C14.3512 27.6809 14.5178 27.9927 14.7626 28.2374C15.0073 28.4822 15.3191 28.6488 15.6586 28.7164C15.9981 28.7839 16.3499 28.7492 16.6697 28.6168C16.9895 28.4843 17.2628 28.26 17.4551 27.9722C17.6474 27.6845 17.75 27.3461 17.75 27C17.75 26.5359 17.5656 26.0908 17.2374 25.7626C16.9092 25.4344 16.4641 25.25 16 25.25ZM24 18.25C23.6539 18.25 23.3155 18.3526 23.0278 18.5449C22.74 18.7372 22.5157 19.0105 22.3832 19.3303C22.2508 19.6501 22.2161 20.0019 22.2836 20.3414C22.3512 20.6809 22.5178 20.9927 22.7626 21.2374C23.0073 21.4822 23.3191 21.6488 23.6586 21.7164C23.9981 21.7839 24.3499 21.7492 24.6697 21.6168C24.9895 21.4843 25.2628 21.26 25.4551 20.9722C25.6474 20.6845 25.75 20.3461 25.75 20C25.75 19.5359 25.5656 19.0908 25.2374 18.7626C24.9092 18.4344 24.4641 18.25 24 18.25Z" fill="url(#paint0_linear_1466_6662)"/>
<defs>
<linearGradient id="paint0_linear_1466_6662" x1="19.074" y1="28.75" x2="4.34139" y2="17.8202" gradientUnits="userSpaceOnUse">
<stop stop-color="#15D582"/>
<stop offset="1" stop-color="#106DE7"/>
</linearGradient>
</defs>
</svg>
