<svg xmlns="http://www.w3.org/2000/svg" width="33" height="33" viewBox="0 0 33 33" fill="none">
  <path d="M5.83301 13.8334C5.83301 8.80542 5.83301 6.29075 7.39567 4.72941C8.95834 3.16808 11.4717 3.16675 16.4997 3.16675H18.4997C23.5277 3.16675 26.0423 3.16675 27.6037 4.72941C29.165 6.29208 29.1663 8.80542 29.1663 13.8334V19.1667C29.1663 24.1947 29.1663 26.7094 27.6037 28.2707C26.041 29.8321 23.5277 29.8334 18.4997 29.8334H16.4997C11.4717 29.8334 8.95701 29.8334 7.39567 28.2707C5.83434 26.7081 5.83301 24.1947 5.83301 19.1667V13.8334Z" stroke="url(#paint0_linear_1594_6600)" stroke-width="2" stroke-linecap="round" stroke-linejoin="round"/>
  <path d="M13.5663 16.4653C12.997 15.4733 12.7223 14.664 12.557 13.8427C12.3117 12.6293 12.873 11.4427 13.801 10.6853C14.1943 10.3653 14.6437 10.4747 14.8757 10.892L15.3997 11.832C15.8143 12.576 16.0223 12.9493 15.981 13.344C15.941 13.7387 15.661 14.06 15.101 14.704L13.5663 16.4653ZM13.5663 16.4653C14.7665 18.5218 16.4778 20.2332 18.5343 21.4333M18.5343 21.4333C19.5263 22.0027 20.3357 22.2773 21.157 22.4427C22.3703 22.688 23.557 22.1267 24.3143 21.1987C24.6343 20.8053 24.525 20.356 24.1077 20.124L23.169 19.6C22.4223 19.1853 22.0503 18.9773 21.6557 19.0187C21.261 19.0587 20.9397 19.3387 20.2957 19.8987L18.5343 21.4333ZM7.16634 8.5H3.83301M7.16634 16.5H3.83301M7.16634 24.5H3.83301" stroke="url(#paint1_linear_1594_6600)" stroke-width="2" stroke-linecap="round" stroke-linejoin="round"/>
  <defs>
    <linearGradient id="paint0_linear_1594_6600" x1="21.1779" y1="29.8334" x2="4.7646" y2="16.4468" gradientUnits="userSpaceOnUse">
      <stop stop-color="#15D582"/>
      <stop offset="1" stop-color="#106DE7"/>
    </linearGradient>
    <linearGradient id="paint1_linear_1594_6600" x1="17.4245" y1="24.5" x2="7.54196" y2="12.6015" gradientUnits="userSpaceOnUse">
      <stop stop-color="#15D582"/>
      <stop offset="1" stop-color="#106DE7"/>
    </linearGradient>
  </defs>
</svg>