<svg width="32" height="32" viewBox="0 0 32 32" fill="none" xmlns="http://www.w3.org/2000/svg">
<path d="M28.4035 8.1L27.6635 7.67375C27.7753 7.23153 27.7753 6.76847 27.6635 6.32625L28.4035 5.9C28.5759 5.80054 28.7017 5.63668 28.7533 5.44445C28.8049 5.25223 28.778 5.04739 28.6785 4.875C28.5791 4.70261 28.4152 4.57679 28.223 4.52522C28.0308 4.47364 27.8259 4.50054 27.6535 4.6L26.9123 5.02875C26.5857 4.71114 26.1854 4.47963 25.7473 4.355V3.5C25.7473 3.30109 25.6683 3.11032 25.5276 2.96967C25.387 2.82902 25.1962 2.75 24.9973 2.75C24.7984 2.75 24.6076 2.82902 24.4669 2.96967C24.3263 3.11032 24.2473 3.30109 24.2473 3.5V4.355C23.8091 4.47963 23.4088 4.71114 23.0823 5.02875L22.341 4.6C22.1686 4.50054 21.9638 4.47364 21.7716 4.52522C21.5793 4.57679 21.4155 4.70261 21.316 4.875C21.2166 5.04739 21.1897 5.25223 21.2412 5.44445C21.2928 5.63668 21.4186 5.80054 21.591 5.9L22.331 6.32625C22.2193 6.76847 22.2193 7.23153 22.331 7.67375L21.591 8.1C21.4186 8.19946 21.2928 8.36332 21.2412 8.55555C21.1897 8.74777 21.2166 8.95261 21.316 9.125C21.4155 9.29739 21.5793 9.42321 21.7716 9.47478C21.9638 9.52636 22.1686 9.49946 22.341 9.4L23.0823 8.97125C23.4088 9.28885 23.8091 9.52037 24.2473 9.645V10.5C24.2473 10.6989 24.3263 10.8897 24.4669 11.0303C24.6076 11.171 24.7984 11.25 24.9973 11.25C25.1962 11.25 25.387 11.171 25.5276 11.0303C25.6683 10.8897 25.7473 10.6989 25.7473 10.5V9.645C26.1854 9.52037 26.5857 9.28885 26.9123 8.97125L27.6535 9.4C27.8259 9.49946 28.0308 9.52636 28.223 9.47478C28.4152 9.42321 28.5791 9.29739 28.6785 9.125C28.778 8.95261 28.8049 8.74777 28.7533 8.55555C28.7017 8.36332 28.5759 8.19946 28.4035 8.1ZM24.9973 8.25C24.7501 8.25 24.5084 8.17669 24.3028 8.03934C24.0973 7.90199 23.937 7.70676 23.8424 7.47835C23.7478 7.24995 23.7231 6.99861 23.7713 6.75614C23.8195 6.51366 23.9386 6.29093 24.1134 6.11612C24.2882 5.9413 24.5109 5.82225 24.7534 5.77402C24.9959 5.72579 25.2472 5.75054 25.4756 5.84515C25.704 5.93976 25.8993 6.09998 26.0366 6.30554C26.174 6.5111 26.2473 6.75277 26.2473 7C26.2473 7.33152 26.1156 7.64946 25.8812 7.88388C25.6467 8.1183 25.3288 8.25 24.9973 8.25ZM27.7073 13.26C27.5112 13.293 27.3363 13.4026 27.221 13.5646C27.1056 13.7265 27.0594 13.9277 27.0923 14.1237C27.1953 14.7439 27.2471 15.3714 27.2473 16C27.2494 18.8652 26.1539 21.6225 24.186 23.705C23.0076 21.8727 21.2462 20.4908 19.186 19.7825C20.2133 19.0983 20.9932 18.1016 21.4103 16.9399C21.8274 15.7783 21.8596 14.5132 21.5022 13.3318C21.1447 12.1504 20.4166 11.1153 19.4255 10.3797C18.4344 9.64404 17.2328 9.24686 15.9985 9.24686C14.7642 9.24686 13.5627 9.64404 12.5716 10.3797C11.5804 11.1153 10.8523 12.1504 10.4949 13.3318C10.1375 14.5132 10.1697 15.7783 10.5868 16.9399C11.0039 18.1016 11.7837 19.0983 12.811 19.7825C10.7509 20.4908 8.98944 21.8727 7.81103 23.705C6.30516 22.107 5.30012 20.1031 4.91993 17.9406C4.53974 15.7781 4.80105 13.5515 5.67161 11.5358C6.54217 9.52005 7.98387 7.80331 9.8188 6.59744C11.6537 5.39156 13.8016 4.74933 15.9973 4.75C16.6255 4.75018 17.2526 4.80202 17.8723 4.905C17.9702 4.92347 18.0709 4.92222 18.1684 4.90133C18.2658 4.88045 18.3582 4.84034 18.4399 4.78336C18.5217 4.72638 18.5913 4.65367 18.6447 4.56947C18.6981 4.48528 18.7341 4.39129 18.7507 4.293C18.7673 4.19472 18.7642 4.0941 18.7415 3.99705C18.7188 3.89999 18.6769 3.80844 18.6184 3.72774C18.5599 3.64704 18.4859 3.57881 18.4007 3.52704C18.3155 3.47528 18.2209 3.44101 18.1223 3.42625C16.002 3.06697 13.8253 3.24983 11.7947 3.95782C9.76403 4.66581 7.94548 5.87591 6.50818 7.47555C5.07088 9.07519 4.06154 11.0124 3.57407 13.1069C3.0866 15.2015 3.13684 17.3853 3.7201 19.4552C4.30337 21.5251 5.40072 23.4138 6.91005 24.9457C8.41938 26.4775 10.2917 27.6027 12.3527 28.2166C14.4137 28.8304 16.5965 28.913 18.6981 28.4566C20.7996 28.0002 22.7515 27.0197 24.3723 25.6063C24.4535 25.7763 24.5823 25.6063 24.6648 25.3425C26.2158 23.905 27.385 22.1042 28.0669 20.1023C28.7488 18.1005 28.922 15.9605 28.571 13.875C28.538 13.6789 28.4284 13.504 28.2665 13.3887C28.1045 13.2734 27.9034 13.2271 27.7073 13.26ZM11.7473 15C11.7473 14.1594 11.9965 13.3377 12.4635 12.6388C12.9305 11.9399 13.5943 11.3952 14.3709 11.0735C15.1475 10.7518 16.002 10.6677 16.8264 10.8317C17.6508 10.9956 18.4081 11.4004 19.0025 11.9948C19.5969 12.5892 20.0016 13.3464 20.1656 14.1709C20.3296 14.9953 20.2454 15.8498 19.9238 16.6264C19.6021 17.403 19.0574 18.0668 18.3585 18.5337C17.6595 19.0007 16.8378 19.25 15.9973 19.25C14.8701 19.25 13.7891 18.8022 12.9921 18.0052C12.195 17.2082 11.7473 16.1272 11.7473 15ZM8.92728 24.75C9.66077 23.5303 10.6973 22.5212 11.9362 21.8206C13.175 21.12 14.574 20.7518 15.9973 20.7518C17.4205 20.7518 18.8195 21.12 20.0584 21.8206C21.2972 22.5212 22.3338 23.5303 23.0673 24.75C21.0677 26.3714 18.5716 27.2563 15.9973 27.2563C13.4229 27.2563 10.9268 26.3714 8.92728 24.75Z" fill="url(#paint0_linear_1466_6667)"/>
<defs>
<linearGradient id="paint0_linear_1466_6667" x1="20.0362" y1="28.7471" x2="3.76469" y2="13.8488" gradientUnits="userSpaceOnUse">
<stop stop-color="#15D582"/>
<stop offset="1" stop-color="#106DE7"/>
</linearGradient>
</defs>
</svg>
