<svg width="360" height="521" viewBox="0 0 360 521" fill="none" xmlns="http://www.w3.org/2000/svg">
<g clip-path="url(#clip0_15081_50271)">
<rect width="360" height="521" fill="#404796"/>
<g opacity="0.4">
<path opacity="0.2" d="M231.199 216.751L231.681 216.995C237.474 219.917 242.318 217.515 244.997 212.205L245.484 211.239C248.407 205.446 254.943 203.292 260.735 206.214L261.701 206.701C267.011 209.379 272.334 208.43 275.256 202.637L275.5 202.154C278.422 196.361 283.506 194.686 289.298 197.608L435.209 271.21C441.002 274.132 442.676 279.216 439.754 285.01L439.51 285.493C436.588 291.286 438.988 296.131 444.298 298.809L445.263 299.296C451.056 302.218 453.208 308.755 450.286 314.548L449.799 315.514C447.12 320.825 448.068 326.148 453.86 329.07L454.343 329.313C460.136 332.235 461.81 337.319 458.887 343.113L339.43 579.926C336.508 585.72 331.424 587.395 325.631 584.473L325.149 584.23C319.356 581.308 314.512 583.709 311.833 589.02L311.346 589.985C308.423 595.779 301.887 597.932 296.095 595.01L295.129 594.523C289.819 591.845 284.496 592.794 281.574 598.587L281.33 599.07C278.408 604.864 273.324 606.539 267.532 603.617L121.621 530.014C115.828 527.092 114.154 522.008 117.076 516.214L117.32 515.732C120.242 509.938 117.842 505.093 112.532 502.415L111.567 501.928C105.774 499.006 103.622 492.469 106.544 486.676L107.031 485.71C109.71 480.4 108.762 475.076 102.97 472.154L102.487 471.911C96.6944 468.989 95.0202 463.905 97.9426 458.111L217.4 221.298C220.322 215.504 225.406 213.829 231.199 216.751Z" fill="white"/>
<path opacity="0.2" fill-rule="evenodd" clip-rule="evenodd" d="M179.402 51.2122L180.353 51.6916C185.658 54.3676 190.327 54.5239 194.212 52.9867C198.138 51.433 201.537 48.0394 204.026 43.1057L204.984 41.2057C211.204 28.8746 225.205 24.2656 237.539 30.4871L239.439 31.4458C244.375 33.9355 249.127 34.6455 253.209 33.5628C257.247 32.4916 260.909 29.5923 263.584 24.2893L264.063 23.3393C267.102 17.3134 271.382 13.2174 276.618 11.4934C281.855 9.76943 287.731 10.5216 293.759 13.562L580.997 158.455C587.025 161.496 591.122 165.775 592.848 171.011C594.573 176.247 593.823 182.123 590.783 188.149L590.304 189.099C587.629 194.402 587.473 199.07 589.012 202.954C590.567 206.88 593.962 210.28 598.898 212.769L600.798 213.728C613.132 219.949 617.746 233.949 611.526 246.28L610.567 248.18C608.078 253.113 607.369 257.864 608.453 261.945C609.526 265.983 612.427 269.645 617.732 272.321L618.682 272.8C624.709 275.841 628.807 280.12 630.532 285.356C632.258 290.592 631.507 296.468 628.467 302.494L414.005 727.646C410.966 733.672 406.686 737.768 401.45 739.492C396.213 741.216 390.337 740.464 384.309 737.423L383.359 736.944C378.054 734.268 373.385 734.112 369.5 735.649C365.574 737.203 362.175 740.596 359.686 745.53L358.728 747.43C352.507 759.761 338.506 764.37 326.173 758.149L324.272 757.19C319.337 754.7 314.585 753.99 310.503 755.073C306.465 756.144 302.803 759.043 300.128 764.346L299.649 765.296C296.609 771.322 292.33 775.418 287.094 777.142C281.857 778.866 275.981 778.114 269.953 775.074L-17.2856 630.18C-23.3129 627.14 -27.4105 622.861 -29.136 617.625C-30.8616 612.389 -30.1107 606.513 -27.0711 600.487L-26.5919 599.537C-23.9169 594.234 -23.7616 589.566 -25.3 585.682C-26.8549 581.756 -30.2502 578.356 -35.1857 575.866L-37.0863 574.908C-49.42 568.686 -54.034 554.687 -47.8138 542.356L-46.8554 540.456C-44.3667 535.522 -43.6577 530.772 -44.7415 526.691C-45.8139 522.653 -48.7147 518.991 -54.0197 516.315L-54.97 515.835C-60.9974 512.795 -65.0949 508.516 -66.8204 503.28C-68.546 498.044 -67.7951 492.168 -64.7554 486.142L149.707 60.9896C152.746 54.9637 157.026 50.8677 162.262 49.1436C167.498 47.4196 173.375 48.1718 179.402 51.2122ZM178.552 52.898L179.502 53.3774C190.905 59.1294 200.44 54.4057 205.712 43.9561L206.67 42.0561C212.42 30.6565 225.285 26.4208 236.689 32.1729L238.589 33.1316C249.042 38.4044 259.519 36.5393 265.269 25.1396L265.749 24.1897C271.499 12.79 281.505 9.49564 292.908 15.2477L580.147 160.141C591.55 165.893 594.847 175.899 589.097 187.298L588.618 188.248C582.868 199.648 587.594 209.182 598.047 214.455L599.948 215.414C611.351 221.166 615.59 234.03 609.84 245.429L608.881 247.329C603.61 257.779 605.478 268.255 616.881 274.007L617.831 274.486C629.234 280.238 632.532 290.243 626.781 301.643L412.319 726.796C406.569 738.195 396.563 741.49 385.16 735.738L384.21 735.258C372.806 729.506 363.271 734.23 358 744.68L357.042 746.579C351.291 757.979 338.426 762.215 327.023 756.463L325.123 755.504C314.67 750.231 304.193 752.096 298.442 763.496L297.963 764.446C292.213 775.846 282.207 779.14 270.804 773.388L-16.4352 628.494C-27.8383 622.742 -31.1357 612.737 -25.3853 601.337L-24.9061 600.388C-19.1558 588.988 -23.8826 579.453 -34.3354 574.181L-36.2359 573.222C-47.639 567.47 -51.8784 554.606 -46.128 543.206L-45.1696 541.306C-39.8985 530.857 -41.7663 520.381 -53.1693 514.629L-54.1197 514.149C-65.5227 508.397 -68.82 498.392 -63.0696 486.992L151.392 61.84C157.143 50.4403 167.149 47.1459 178.552 52.898ZM186.696 86.34L185.828 85.9022C180.296 83.1117 174.885 82.413 170.052 84.0044C165.219 85.5957 161.282 89.3729 158.492 94.9039L-35.6932 479.858C-38.4832 485.389 -39.181 490.801 -37.5886 495.633C-35.9961 500.466 -32.2179 504.403 -26.6859 507.193L-25.8182 507.631C-21.0085 510.057 -18.396 513.367 -17.4309 517.002C-16.4543 520.679 -17.0896 524.976 -19.3496 529.456L-20.2247 531.191C-25.9457 542.532 -21.7004 555.415 -10.3574 561.136L-8.62186 562.012C-4.14042 564.273 -1.07488 567.351 0.326213 570.889C1.71081 574.385 1.57761 578.599 -0.847853 583.407L-1.28542 584.274C-4.07547 589.805 -4.77327 595.217 -3.1808 600.049C-1.58841 604.882 2.18981 608.819 7.72179 611.609L270.005 743.915C275.537 746.705 280.949 747.404 285.782 745.812C290.615 744.221 294.552 740.444 297.342 734.913L297.78 734.045C300.205 729.237 303.515 726.626 307.15 725.661C310.828 724.686 315.125 725.322 319.607 727.582L321.342 728.458C332.685 734.179 345.568 729.937 351.289 718.596L352.165 716.861C354.425 712.381 357.503 709.317 361.041 707.916C364.537 706.532 368.752 706.666 373.561 709.092L374.429 709.53C379.961 712.321 385.373 713.019 390.206 711.428C395.039 709.837 398.976 706.059 401.766 700.528L595.951 315.574C598.741 310.043 599.439 304.632 597.846 299.799C596.254 294.967 592.475 291.03 586.943 288.239L586.076 287.801C581.266 285.375 578.654 282.065 577.688 278.431C576.712 274.753 577.347 270.456 579.607 265.976L580.482 264.241C586.203 252.9 581.958 240.018 570.615 234.296L568.879 233.421C564.398 231.16 561.332 228.082 559.931 224.544C558.547 221.048 558.68 216.834 561.105 212.025L561.543 211.158C564.333 205.627 565.031 200.216 563.438 195.383C561.846 190.551 558.068 186.613 552.536 183.823L290.252 51.5177C284.72 48.7272 279.308 48.0285 274.475 49.6199C269.642 51.2112 265.705 54.9884 262.915 60.5194L262.478 61.3869C260.052 66.1952 256.742 68.8067 253.108 69.7711C249.43 70.7468 245.132 70.111 240.651 67.8504L238.915 66.9749C227.572 61.2531 214.689 65.4949 208.968 76.8363L208.093 78.5713C205.833 83.0515 202.755 86.1159 199.217 87.5161C195.72 88.9 191.506 88.7661 186.696 86.34ZM185.846 88.0257L184.978 87.588C174.566 82.3356 165.429 85.3443 160.177 95.7543L-34.0074 480.709C-39.2586 491.119 -36.2479 500.255 -25.8355 505.508L-24.9678 505.945C-14.5554 511.198 -12.8502 520.764 -17.6638 530.307L-18.5389 532.041C-23.7901 542.451 -19.9194 554.198 -9.507 559.451L-7.77148 560.326C1.7732 565.141 6.08915 573.847 0.837933 584.257L0.400364 585.125C-4.85082 595.535 -1.84018 604.671 8.57216 609.924L270.856 742.229C281.268 747.481 290.405 744.473 295.656 734.063L296.094 733.195C301.345 722.785 310.912 721.082 320.457 725.896L322.192 726.772C332.605 732.024 344.353 728.156 349.604 717.746L350.479 716.011C355.292 706.468 363.999 702.154 374.412 707.407L375.28 707.844C385.692 713.097 394.829 710.088 400.08 699.678L594.265 314.724C599.516 304.313 596.505 295.177 586.093 289.925L585.225 289.487C574.813 284.235 573.108 274.668 577.921 265.126L578.796 263.391C584.048 252.981 580.177 241.234 569.764 235.982L568.029 235.106C558.484 230.292 554.168 221.585 559.42 211.175L559.857 210.308C565.108 199.898 562.098 190.761 551.685 185.509L289.402 53.2035C278.989 47.9511 269.852 50.9598 264.601 61.3698L264.163 62.2373C258.912 72.6473 249.345 74.3508 239.8 69.5362L238.065 68.6607C227.653 63.4083 215.905 67.2766 210.654 77.6867L209.779 79.4216C204.965 88.9642 196.258 93.2781 185.846 88.0257ZM196.512 113.071L197.294 113.466C201.587 115.631 205.329 115.741 208.423 114.515C211.558 113.273 214.303 110.548 216.327 106.537L217.116 104.972C222.32 94.6554 234.042 90.789 244.355 95.9914L245.919 96.7801C249.927 98.8022 253.752 99.3602 257.011 98.4941C260.227 97.6395 263.171 95.3251 265.339 91.028L265.734 90.2458C268.265 85.2267 271.848 81.7788 276.261 80.3235C280.675 78.8681 285.604 79.5099 290.62 82.0406L526.93 201.244C531.947 203.774 535.393 207.357 536.845 211.771C538.298 216.186 537.654 221.116 535.122 226.135L534.728 226.917C532.56 231.214 532.449 234.958 533.673 238.052C534.913 241.188 537.635 243.932 541.643 245.954L543.207 246.743C553.52 251.945 557.377 263.67 552.173 273.987L551.384 275.552C549.36 279.563 548.801 283.39 549.665 286.65C550.518 289.866 552.83 292.81 557.123 294.976L557.905 295.371C562.922 297.901 566.367 301.484 567.82 305.898C569.273 310.313 568.629 315.243 566.097 320.262L386.862 675.579C384.331 680.598 380.748 684.046 376.335 685.501C371.921 686.956 366.992 686.315 361.975 683.784L361.194 683.39C356.9 681.224 353.158 681.114 350.065 682.34C346.929 683.582 344.184 686.307 342.161 690.318L341.372 691.883C336.167 702.2 324.445 706.066 314.132 700.864L312.568 700.075C308.56 698.053 304.735 697.495 301.477 698.361C298.261 699.216 295.316 701.53 293.148 705.827L292.754 706.609C290.222 711.628 286.64 715.076 282.226 716.532C277.812 717.987 272.884 717.345 267.867 714.814L31.5571 595.611C26.5403 593.081 23.0949 589.498 21.6421 585.084C20.1894 580.669 20.8334 575.739 23.3652 570.72L23.7598 569.938C25.9274 565.641 26.0386 561.897 24.8148 558.803C23.5745 555.667 20.8527 552.923 16.8442 550.901L15.2806 550.112C4.96732 544.91 1.11018 533.185 6.31436 522.868L7.10351 521.304C9.12706 517.292 9.68679 513.465 8.82253 510.205C7.96981 506.989 5.6579 504.045 1.36431 501.879L0.5825 501.484C-4.43429 498.954 -7.87971 495.371 -9.33247 490.957C-10.7852 486.542 -10.1412 481.612 -7.60941 476.593L171.625 121.276C174.157 116.257 177.739 112.809 182.153 111.354C186.567 109.899 191.495 110.541 196.512 113.071ZM195.662 114.757L196.443 115.151C205.825 119.884 213.672 115.992 218.012 107.387L218.802 105.823C223.537 96.4359 234.124 92.9449 243.505 97.6772L245.069 98.4659C253.668 102.804 262.29 101.265 267.025 91.8784L267.419 91.0961C272.154 81.7094 280.389 78.9942 289.77 83.7264L526.08 202.93C535.461 207.662 538.172 215.898 533.436 225.285L533.042 226.067C528.307 235.454 532.193 243.302 540.793 247.64L542.356 248.428C551.738 253.161 555.222 263.75 550.487 273.137L549.698 274.701C545.358 283.306 546.892 291.93 556.273 296.662L557.055 297.056C566.436 301.789 569.146 310.025 564.411 319.412L385.177 674.728C380.442 684.115 372.207 686.83 362.826 682.098L362.044 681.704C352.663 676.972 344.815 680.863 340.475 689.468L339.686 691.032C334.951 700.419 324.364 703.91 314.982 699.178L313.419 698.389C304.819 694.051 296.198 695.59 291.463 704.977L291.068 705.759C286.333 715.146 278.099 717.861 268.717 713.129L32.4075 593.926C23.0262 589.193 20.316 580.957 25.051 571.57L25.4456 570.788C30.1806 561.401 26.294 553.553 17.6945 549.215L16.1309 548.427C6.74968 543.694 3.26512 533.105 8.00014 523.718L8.7893 522.154C13.1297 513.549 11.5959 504.925 2.21468 500.193L1.43287 499.799C-7.94832 495.066 -10.6587 486.83 -5.92362 477.444L173.311 122.127C178.046 112.74 186.28 110.025 195.662 114.757ZM207.753 136.22L207.045 135.864C202.474 133.557 197.964 132.962 193.913 134.295C189.863 135.629 186.59 138.787 184.284 143.357L19.1034 470.814C16.798 475.384 16.2038 479.893 17.5387 483.943C18.8735 487.993 22.0327 491.266 26.6043 493.572L27.3119 493.929C31.1613 495.871 33.2151 498.497 33.9726 501.349C34.7415 504.244 34.2499 507.659 32.4342 511.258L31.7206 512.673C26.9688 522.093 30.5009 532.807 39.923 537.56L41.3383 538.274C44.9395 540.091 47.3659 542.545 48.4691 545.33C49.5558 548.074 49.4659 551.405 47.5251 555.253L47.1683 555.96C44.8629 560.53 44.2687 565.04 45.6036 569.089C46.9383 573.139 50.0977 576.412 54.6692 578.718L268.57 686.618C273.142 688.924 277.652 689.519 281.702 688.186C285.752 686.853 289.026 683.695 291.331 679.125L291.688 678.417C293.629 674.57 296.255 672.518 299.107 671.761C302.003 670.993 305.419 671.486 309.02 673.302L310.435 674.016C319.857 678.769 330.573 675.242 335.325 665.822L336.039 664.407C337.854 660.808 340.308 658.383 343.094 657.281C345.837 656.195 349.17 656.286 353.02 658.228L353.727 658.585C358.299 660.891 362.809 661.486 366.859 660.153C370.909 658.819 374.183 655.662 376.488 651.091L541.669 323.634C543.974 319.064 544.569 314.555 543.234 310.505C541.899 306.455 538.74 303.182 534.168 300.876L533.461 300.519C529.611 298.577 527.557 295.951 526.8 293.099C526.031 290.204 526.523 286.789 528.338 283.19L529.052 281.775C533.804 272.355 530.271 261.641 520.849 256.888L519.434 256.174C515.833 254.358 513.407 251.903 512.303 249.118C511.217 246.375 511.307 243.043 513.247 239.195L513.604 238.488C515.91 233.918 516.504 229.408 515.169 225.359C513.834 221.309 510.675 218.036 506.103 215.73L292.202 107.83C287.63 105.524 283.12 104.929 279.07 106.262C275.02 107.595 271.747 110.753 269.441 115.323L269.084 116.031C267.144 119.878 264.517 121.931 261.665 122.687C258.77 123.455 255.354 122.963 251.753 121.146L250.337 120.432C240.915 115.679 230.199 119.206 225.447 128.626L224.734 130.041C222.918 133.64 220.464 136.065 217.679 137.167C214.935 138.253 211.602 138.162 207.753 136.22ZM206.902 137.906L206.195 137.549C197.703 133.266 190.252 135.719 185.97 144.207L20.7892 471.664C16.5073 480.152 18.963 487.603 27.4546 491.886L28.1623 492.243C36.6539 496.527 38.0451 504.328 34.12 512.109L33.4064 513.523C29.1245 522.012 32.2817 531.591 40.7734 535.874L42.1887 536.588C49.9727 540.515 53.4928 547.615 49.2109 556.103L48.8541 556.81C44.5722 565.299 47.0279 572.749 55.5196 577.033L269.421 684.932C277.912 689.216 285.364 686.763 289.646 678.274L290.002 677.567C294.284 669.078 302.086 667.69 309.87 671.616L311.286 672.33C319.777 676.614 329.357 673.46 333.639 664.971L334.353 663.557C338.278 655.776 345.378 652.258 353.87 656.542L354.578 656.899C363.069 661.182 370.52 658.729 374.802 650.241L539.983 322.784C544.265 314.296 541.809 306.845 533.318 302.562L532.61 302.205C524.119 297.921 522.727 290.121 526.652 282.34L527.366 280.925C531.648 272.436 528.491 262.857 519.999 258.574L518.584 257.86C510.8 253.933 507.28 246.834 511.562 238.345L511.918 237.638C516.2 229.149 513.745 221.699 505.253 217.415L291.352 109.516C282.86 105.232 275.409 107.685 271.127 116.174L270.77 116.881C266.488 125.37 258.686 126.758 250.902 122.832L249.487 122.118C240.995 117.834 231.415 120.988 227.133 129.477L226.42 130.891C222.495 138.672 215.394 142.19 206.902 137.906ZM212.646 160.594L213.291 160.92C216.766 162.672 219.755 162.745 222.207 161.774C224.701 160.786 226.914 158.606 228.559 155.345L229.21 154.054C233.588 145.375 243.462 142.118 252.138 146.494L253.429 147.145C256.686 148.789 259.759 149.224 262.351 148.536C264.9 147.858 267.262 146.02 269.016 142.542L269.342 141.897C271.46 137.697 274.477 134.777 278.223 133.541C281.969 132.306 286.129 132.859 290.327 134.977L485.385 233.371C489.583 235.489 492.501 238.505 493.734 242.253C494.967 246 494.411 250.161 492.292 254.361L491.966 255.006C490.212 258.484 490.138 261.476 491.108 263.928C492.094 266.422 494.271 268.635 497.529 270.278L498.819 270.929C507.495 275.305 510.743 285.182 506.366 293.861L505.714 295.153C504.069 298.413 503.632 301.488 504.319 304.081C504.995 306.63 506.83 308.991 510.305 310.744L510.951 311.07C515.149 313.187 518.066 316.204 519.299 319.951C520.532 323.698 519.976 327.859 517.858 332.059L366.533 632.048C364.414 636.248 361.398 639.168 357.652 640.404C353.905 641.639 349.745 641.085 345.547 638.968L344.902 638.642C341.427 636.889 338.437 636.817 335.985 637.788C333.492 638.776 331.279 640.956 329.634 644.216L328.982 645.508C324.605 654.186 314.73 657.444 306.055 653.068L304.764 652.417C301.506 650.773 298.433 650.338 295.842 651.026C293.293 651.704 290.931 653.542 289.177 657.02L288.851 657.665C286.732 661.865 283.716 664.785 279.97 666.021C276.223 667.256 272.063 666.702 267.865 664.585L72.8078 566.191C68.6098 564.073 65.6921 561.057 64.4591 557.309C63.2262 553.562 63.782 549.401 65.9006 545.201L66.2262 544.556C67.9807 541.077 68.055 538.086 67.0851 535.633C66.0988 533.14 63.9219 530.927 60.6641 529.284L59.3734 528.633C50.6978 524.257 47.4493 514.379 51.8271 505.701L52.4785 504.409C54.1233 501.149 54.5607 498.073 53.8734 495.481C53.1977 492.932 51.3622 490.57 47.8875 488.818L47.2421 488.492C43.0442 486.374 40.1265 483.358 38.8935 479.611C37.6605 475.864 38.2163 471.702 40.3349 467.502L191.66 167.514C193.779 163.314 196.795 160.394 200.541 159.158C204.288 157.923 208.448 158.477 212.646 160.594ZM211.795 162.28L212.441 162.605C220.184 166.512 226.662 163.299 230.245 156.196L230.896 154.904C234.805 147.156 243.544 144.274 251.287 148.18L252.578 148.831C259.676 152.412 266.793 151.141 270.702 143.393L271.028 142.747C274.936 134.998 281.733 132.757 289.477 136.663L484.535 235.057C492.278 238.963 494.515 245.762 490.606 253.51L490.281 254.156C486.372 261.905 489.58 268.383 496.678 271.964L497.969 272.615C505.712 276.521 508.588 285.262 504.68 293.011L504.028 294.302C500.445 301.405 501.711 308.524 509.455 312.43L510.1 312.756C517.844 316.662 520.081 323.46 516.172 331.209L364.847 631.198C360.938 638.947 354.141 641.188 346.397 637.282L345.752 636.956C338.009 633.05 331.531 636.263 327.948 643.366L327.297 644.657C323.388 652.406 314.649 655.288 306.905 651.382L305.614 650.731C298.516 647.15 291.4 648.421 287.491 656.169L287.165 656.815C283.256 664.564 276.459 666.805 268.716 662.899L73.6581 564.505C65.9146 560.599 63.6776 553.8 67.5863 546.052L67.912 545.406C71.8207 537.657 68.6127 531.179 61.5145 527.598L60.2238 526.947C52.4802 523.041 49.6042 514.3 53.5129 506.551L54.1643 505.26C57.7473 498.157 56.4814 491.038 48.7378 487.132L48.0925 486.806C40.349 482.9 38.1119 476.102 42.0206 468.353L193.346 168.364C197.254 160.615 204.052 158.374 211.795 162.28ZM59.9515 463.188L59.9406 463.209C57.9915 467.073 57.4729 470.919 58.6172 474.393C59.7616 477.867 62.4646 480.652 66.3287 482.601L66.9184 482.899C70.0599 484.483 71.7017 486.606 72.3059 488.882C72.9215 491.202 72.535 493.968 71.0458 496.921L70.4509 498.1C66.4118 506.107 69.416 515.227 77.4234 519.266L78.6028 519.861C81.5552 521.35 83.5104 523.346 84.3937 525.577C85.2606 527.766 85.2021 530.449 83.6174 533.591L83.32 534.18C81.3709 538.045 80.8523 541.891 81.9966 545.364C83.141 548.838 85.8439 551.623 89.708 553.572L267.959 643.489C271.823 645.438 275.669 645.956 279.143 644.812C282.617 643.668 285.402 640.965 287.351 637.101L287.649 636.511C289.233 633.37 291.356 631.728 293.632 631.124C295.952 630.509 298.719 630.895 301.671 632.384L302.85 632.979C310.858 637.019 319.977 634.015 324.017 626.007L324.611 624.828C326.101 621.876 328.096 619.921 330.327 619.038C332.517 618.171 335.2 618.229 338.342 619.814L338.931 620.111C342.795 622.061 346.641 622.579 350.115 621.435C353.583 620.293 356.364 617.598 358.312 613.746L505.428 339.696L505.44 339.674L505.451 339.653C507.4 335.789 507.918 331.943 506.774 328.469C505.63 324.995 502.927 322.21 499.063 320.261L498.473 319.964C495.331 318.379 493.69 316.256 493.085 313.98C492.47 311.66 492.856 308.894 494.345 305.942L494.94 304.762C498.979 296.755 495.975 287.635 487.968 283.596L486.788 283.001C483.836 281.512 481.881 279.516 480.998 277.285C480.131 275.096 480.189 272.413 481.774 269.271L482.071 268.682C484.02 264.818 484.539 260.972 483.395 257.498C482.25 254.024 479.547 251.239 475.683 249.29L297.432 159.374C293.568 157.424 289.722 156.906 286.248 158.05C282.774 159.194 279.989 161.897 278.04 165.761L277.743 166.351C276.158 169.492 274.035 171.134 271.759 171.738C269.44 172.354 266.673 171.967 263.721 170.478L262.541 169.883C254.534 165.844 245.414 168.848 241.375 176.855L240.78 178.034C239.291 180.986 237.295 182.941 235.064 183.825C232.875 184.691 230.191 184.633 227.05 183.048L226.46 182.751C222.596 180.802 218.75 180.283 215.276 181.427C211.809 182.569 209.028 185.264 207.079 189.116L59.9628 463.167L59.9515 463.188ZM208.754 189.989L61.6264 464.06C58.057 471.136 60.1027 477.346 67.179 480.915L67.7688 481.213C74.8451 484.782 76.0036 491.285 72.7316 497.771L72.1367 498.95C68.5673 506.026 71.1974 514.011 78.2738 517.58L79.4532 518.175C85.9399 521.447 88.8727 527.365 85.3032 534.441L85.0058 535.031C81.4363 542.107 83.4821 548.317 90.5584 551.887L268.809 641.803C275.886 645.372 282.096 643.327 285.665 636.251L285.963 635.661C289.532 628.585 296.035 627.427 302.521 630.699L303.701 631.294C310.777 634.863 318.761 632.233 322.331 625.157L322.926 623.978C326.198 617.491 332.116 614.559 339.192 618.128L339.782 618.426C346.858 621.995 353.068 619.95 356.637 612.874L503.765 338.803C507.334 331.726 505.289 325.516 498.212 321.947L497.623 321.649C490.546 318.08 489.388 311.578 492.66 305.091L493.255 303.912C496.824 296.836 494.194 288.851 487.117 285.282L485.938 284.687C479.451 281.415 476.519 275.497 480.088 268.421L480.385 267.831C483.955 260.755 481.909 254.545 474.833 250.976L296.582 161.059C289.505 157.49 283.295 159.535 279.726 166.611L279.429 167.201C275.859 174.277 269.357 175.436 262.87 172.163L261.691 171.569C254.614 167.999 246.63 170.629 243.061 177.705L242.466 178.884C239.194 185.371 233.276 188.304 226.199 184.734L225.61 184.436C218.533 180.867 212.323 182.912 208.754 189.989ZM226.195 199.903L225.663 199.635C222.148 197.862 218.629 197.381 215.439 198.432C212.25 199.482 209.706 201.961 207.932 205.477L79.0309 461.012C77.2575 464.528 76.7762 468.047 77.8268 471.237C78.8773 474.427 81.3554 476.971 84.8708 478.744L85.4024 479.012C88.1951 480.421 89.6339 482.296 90.1625 484.288C90.7027 486.324 90.3681 488.771 89.0399 491.404L88.5036 492.467C84.816 499.777 87.5602 508.111 94.8703 511.798L95.9335 512.335C98.566 513.662 100.289 515.431 101.064 517.389C101.823 519.306 101.78 521.669 100.371 524.462L100.103 524.994C98.3291 528.51 97.8478 532.029 98.8984 535.219C99.949 538.408 102.427 540.953 105.942 542.726L266.623 623.779C270.138 625.552 273.657 626.033 276.847 624.982C280.037 623.931 282.581 621.453 284.354 617.937L284.622 617.406C286.031 614.612 287.907 613.173 289.899 612.644C291.934 612.104 294.381 612.438 297.013 613.766L298.076 614.303C305.386 617.99 313.72 615.244 317.407 607.934L317.943 606.871C319.272 604.238 321.041 602.514 322.999 601.739C324.915 600.98 327.278 601.023 330.071 602.432L330.602 602.7C334.118 604.473 337.637 604.954 340.827 603.903C344.016 602.852 346.56 600.374 348.334 596.858L477.235 341.323C479.008 337.807 479.49 334.288 478.439 331.098C477.389 327.908 474.91 325.364 471.395 323.591L470.863 323.323C468.071 321.914 466.632 320.039 466.103 318.047C465.563 316.011 465.898 313.564 467.226 310.931L467.762 309.868C471.45 302.558 468.706 294.224 461.396 290.537L460.332 290C457.7 288.672 455.977 286.903 455.202 284.945C454.443 283.029 454.486 280.666 455.895 277.872L456.163 277.341C457.937 273.825 458.418 270.306 457.367 267.116C456.317 263.926 453.839 261.382 450.323 259.609L289.643 178.556C286.127 176.783 282.609 176.302 279.419 177.352C276.229 178.403 273.685 180.882 271.912 184.398L271.643 184.929C270.234 187.722 268.359 189.162 266.367 189.69C264.332 190.231 261.885 189.896 259.253 188.568L258.189 188.032C250.879 184.345 242.546 187.09 238.859 194.401L238.322 195.464C236.994 198.097 235.225 199.82 233.267 200.596C231.351 201.355 228.988 201.312 226.195 199.903ZM225.345 201.589L224.813 201.321C218.434 198.103 212.836 199.947 209.618 206.327L80.7167 461.863C77.4986 468.242 79.3424 473.84 85.7212 477.058L86.2528 477.326C92.6316 480.544 93.6756 486.406 90.7257 492.254L90.1894 493.317C86.9713 499.697 89.3418 506.895 95.7206 510.112L96.7838 510.649C102.631 513.598 105.275 518.933 102.056 525.313L101.788 525.844C98.5702 532.224 100.414 537.822 106.793 541.04L267.473 622.093C273.852 625.311 279.45 623.466 282.669 617.087L282.937 616.555C286.155 610.176 292.016 609.131 297.864 612.081L298.927 612.617C305.306 615.835 312.503 613.463 315.721 607.084L316.258 606.02C319.208 600.172 324.542 597.528 330.921 600.746L331.453 601.014C337.832 604.232 343.43 602.387 346.648 596.008L475.549 340.472C478.767 334.093 476.923 328.494 470.545 325.277L470.013 325.008C463.634 321.791 462.59 315.929 465.54 310.081L466.076 309.018C469.295 302.638 466.924 295.44 460.545 292.222L459.482 291.686C453.635 288.736 450.991 283.402 454.209 277.022L454.478 276.49C457.696 270.111 455.852 264.512 449.473 261.295L288.792 180.242C282.414 177.024 276.815 178.868 273.597 185.248L273.329 185.78C270.111 192.159 264.25 193.204 258.402 190.254L257.339 189.718C250.96 186.5 243.763 188.872 240.544 195.251L240.008 196.314C237.058 202.162 231.723 204.807 225.345 201.589Z" fill="url(#paint0_radial_15081_50271)"/>
</g>
<g opacity="0.05">
<rect x="-29.9836" y="4.96875" width="111.803" height="104.471" rx="52.2357" fill="#F8F6F3"/>
<rect x="104.925" y="4.96875" width="111.803" height="104.471" rx="52.2357" fill="#F8F6F3"/>
</g>
</g>
<defs>
<radialGradient id="paint0_radial_15081_50271" cx="0" cy="0" r="1" gradientUnits="userSpaceOnUse" gradientTransform="translate(281.856 394.318) rotate(115.964) scale(345.335 268.095)">
<stop stop-color="white"/>
<stop offset="1" stop-color="white" stop-opacity="0.08"/>
</radialGradient>
<clipPath id="clip0_15081_50271">
<rect width="360" height="521" fill="white"/>
</clipPath>
</defs>
</svg>
