<svg width="32" height="32" viewBox="0 0 32 32" fill="none" xmlns="http://www.w3.org/2000/svg">
<g clip-path="url(#clip0_7561_74603)">
<rect x="0.570312" y="0.570312" width="30.8571" height="30.8571" rx="5.5" fill="#F8F6F3"/>
<path d="M9.97148 7C9.71515 7.00827 9.49098 7.26734 9.485 7.48649V12.8378H6.56608C6.30291 12.8442 6.08557 13.1052 6.07959 13.3243V22.8108C6.07959 24.0152 7.06438 25 8.26878 25H23.3499C24.5543 25 25.539 24.0152 25.539 22.8108V7.48649C25.539 7.23177 25.3073 7.00002 25.0526 7H9.97148ZM10.458 7.97297H24.5661V22.8108C24.5661 23.493 24.0321 24.027 23.3499 24.027H10.0323C10.2784 23.6731 10.458 23.2722 10.458 22.8108V7.97297ZM12.4039 9.43243C12.1464 9.43316 11.9234 9.69978 11.9174 9.91892V13.3243C11.9175 13.579 12.1492 13.8108 12.4039 13.8108H17.2688C17.5235 13.8108 17.7552 13.579 17.7553 13.3243V9.91892C17.7552 9.6642 17.5235 9.43246 17.2688 9.43243H12.4039ZM19.2147 9.91892C18.946 9.91892 18.7282 10.1367 18.7282 10.4054C18.7282 10.6741 18.946 10.8919 19.2147 10.8919H22.6201C22.8888 10.8919 23.1066 10.6741 23.1066 10.4054C23.1066 10.1367 22.8888 9.91892 22.6201 9.91892H19.2147ZM12.8904 10.4054H16.7823V12.8378H12.8904V10.4054ZM19.2147 12.3514C18.946 12.3514 18.7282 12.5692 18.7282 12.8378C18.7282 13.1065 18.946 13.3243 19.2147 13.3243H22.6201C22.8888 13.3243 23.1066 13.1065 23.1066 12.8378C23.1066 12.5692 22.8888 12.3514 22.6201 12.3514H19.2147ZM7.05256 13.8108H9.485V22.8108C9.485 23.493 8.95098 24.027 8.26878 24.027C7.58658 24.027 7.05256 23.493 7.05256 22.8108V13.8108ZM12.4039 15.2703C12.1352 15.2703 11.9174 15.4881 11.9174 15.7568C11.9174 16.0254 12.1352 16.2432 12.4039 16.2432H22.6201C22.8888 16.2432 23.1066 16.0254 23.1066 15.7568C23.1066 15.4881 22.8888 15.2703 22.6201 15.2703H12.4039ZM12.4039 17.9459C12.1352 17.9459 11.9174 18.1637 11.9174 18.4324C11.9174 18.7011 12.1352 18.9189 12.4039 18.9189H22.6201C22.8888 18.9189 23.1066 18.7011 23.1066 18.4324C23.1066 18.1637 22.8888 17.9459 22.6201 17.9459H12.4039ZM12.4039 20.6216C12.1352 20.6216 11.9174 20.8394 11.9174 21.1081C11.9174 21.3768 12.1352 21.5946 12.4039 21.5946H22.6201C22.8888 21.5946 23.1066 21.3768 23.1066 21.1081C23.1066 20.8394 22.8888 20.6216 22.6201 20.6216H12.4039Z" fill="black" stroke="black" stroke-width="0.5"/>
</g>
<defs>
<clipPath id="clip0_7561_74603">
<rect width="32" height="32" fill="white"/>
</clipPath>
</defs>
</svg>
