<svg width="48" height="44" viewBox="0 0 48 44" fill="none" xmlns="http://www.w3.org/2000/svg">
<mask id="mask0_7561_74495" style="mask-type:alpha" maskUnits="userSpaceOnUse" x="0" y="0" width="48" height="44">
<path d="M37.9645 41.1099L37.9645 40.9912C37.9645 39.5668 38.9136 38.8546 40.2186 38.8546L40.4559 38.8546C41.8795 38.8546 42.9473 37.7863 42.9473 36.3619L42.9473 36.1245C42.9473 34.8187 43.6591 33.8691 45.0828 33.8691L45.2014 33.8691C46.6251 33.8691 47.4556 33.0382 47.4556 31.6138L47.4556 12.3842C47.4556 10.9598 46.6251 10.1289 45.2014 10.1289L45.0828 10.1289C43.6591 10.1289 42.9473 9.1793 42.9473 7.87358L42.9473 7.63618C42.9473 6.21177 41.8795 5.14346 40.4559 5.14346L40.2186 5.14346C38.9136 5.14346 37.9645 4.43125 37.9645 3.00684L37.9645 2.88813C37.9645 1.46372 37.134 0.632812 35.7103 0.632812L11.7453 0.632811C10.3217 0.632811 9.49119 1.46372 9.49119 2.88813L9.49119 3.00683C9.49119 4.43125 8.54209 5.14345 7.23706 5.14345L6.99979 5.14345C5.57612 5.14345 4.50837 6.21176 4.50837 7.63618L4.50837 7.87358C4.50837 9.17929 3.79654 10.1289 2.37287 10.1289L2.25424 10.1289C0.830574 10.1289 0.000102545 10.9598 0.000102483 12.3842L0.000101643 31.6138C0.00010158 33.0382 0.830573 33.8691 2.25424 33.8691L2.37287 33.8691C3.79654 33.8691 4.50837 34.8187 4.50837 36.1245L4.50837 36.3619C4.50837 37.7863 5.57612 38.8546 6.99978 38.8546L7.23706 38.8546C8.54209 38.8546 9.49119 39.5668 9.49119 40.9912L9.49119 41.1099C9.49119 42.5343 10.3217 43.3652 11.7453 43.3652L35.7103 43.3652C37.134 43.3652 37.9645 42.5343 37.9645 41.1099Z" fill="white"/>
</mask>
<g mask="url(#mask0_7561_74495)">
<path d="M34.3456 27.3465L28.2115 28.2852C27.8769 33.9445 26.4545 39.0269 24.083 43.0003L-71.1833 39.4L-69.7183 0.632813L25.6658 4.2375C29.2802 11.0575 32.2654 18.9393 34.3456 27.3465Z" fill="#FF073C"/>
<path d="M18.8594 12.8242C18.5427 12.8242 18.2682 13.0427 18.1836 13.305H19.3451C19.3451 13.021 19.1551 12.8242 18.8594 12.8242Z" fill="#FF073C"/>
<path d="M18.1402 10.2461C15.3948 10.2461 13.1562 11.4262 13.1562 13.1962C13.1562 14.3325 14.0854 15.3378 15.4792 15.9059L15.3314 16.7364C19.4072 17.086 23.1451 15.753 23.1451 13.2399C23.1239 11.1202 20.3787 10.2461 18.1402 10.2461Z" fill="black"/>
</g>
<path d="M37.9645 40.9912L37.9645 41.1099C37.9645 42.5343 37.134 43.3652 35.7103 43.3652L11.7453 43.3652C10.3217 43.3652 9.49119 42.5343 9.49119 41.1099L9.49119 40.9912C9.49119 39.5668 8.54209 38.8546 7.23706 38.8546L6.99978 38.8546C5.57612 38.8546 4.50837 37.7863 4.50837 36.3619L4.50837 36.1245C4.50837 34.8187 3.79654 33.8691 2.37287 33.8691L2.25424 33.8691C0.830573 33.8691 0.00010158 33.0382 0.000101643 31.6138L0.000102483 12.3842C0.000102545 10.9598 0.830574 10.1289 2.25424 10.1289L2.37287 10.1289C3.79654 10.1289 4.50837 9.17929 4.50837 7.87358L4.50837 7.63618C4.50837 6.21177 5.57612 5.14346 6.99979 5.14346L7.23706 5.14346C8.54209 5.14346 9.4912 4.43125 9.4912 3.00683L9.4912 2.88813C9.4912 1.46372 10.3217 0.632811 11.7453 0.632811L35.7103 0.632812C37.134 0.632812 37.9645 1.46372 37.9645 2.88813L37.9645 3.00684C37.9645 4.43125 38.9136 5.14346 40.2186 5.14346L40.4559 5.14346C41.8795 5.14346 42.9473 6.21177 42.9473 7.63618L42.9473 7.87358C42.9473 9.1793 43.6591 10.1289 45.0828 10.1289L45.2014 10.1289C46.6251 10.1289 47.4556 10.9598 47.4556 12.3842L47.4556 31.6138C47.4556 33.0382 46.6251 33.8691 45.2014 33.8691L45.0828 33.8691C43.6591 33.8691 42.9473 34.8187 42.9473 36.1245L42.9473 36.3619C42.9473 37.7863 41.8795 38.8546 40.4559 38.8546L40.2186 38.8546C38.9136 38.8546 37.9645 39.5668 37.9645 40.9912ZM35.5917 38.6172C37.0154 38.6172 37.7272 37.6676 37.7272 36.3619L37.7272 36.1245C37.7272 34.7 38.7949 33.6317 40.2186 33.6317L40.4559 33.6317C41.7609 33.6317 42.71 32.9195 42.71 31.4951L42.71 12.5029C42.71 11.0785 41.7609 10.3663 40.4559 10.3663L40.2186 10.3663C38.7949 10.3663 37.7272 9.298 37.7272 7.87358L37.7272 7.63618C37.7272 6.33047 37.0154 5.38086 35.5917 5.38086L11.864 5.38086C10.4403 5.38086 9.72847 6.33047 9.72847 7.63618L9.72847 7.87358C9.72847 9.29799 8.66072 10.3663 7.23706 10.3663L6.99979 10.3663C5.69476 10.3663 4.74565 11.0785 4.74565 12.5029L4.74565 31.4951C4.74565 32.9195 5.69476 33.6317 6.99978 33.6317L7.23706 33.6317C8.66072 33.6317 9.72847 34.7 9.72847 36.1245L9.72847 36.3619C9.72847 37.6676 10.4403 38.6172 11.864 38.6172L35.5917 38.6172Z" fill="white"/>
</svg>
