<svg width="32" height="32" viewBox="0 0 32 32" fill="none" xmlns="http://www.w3.org/2000/svg">
<g clip-path="url(#clip0_7561_74616)">
<g clip-path="url(#clip1_7561_74616)">
<rect x="0.571289" y="0.570312" width="30.8571" height="30.8571" rx="5.5" fill="#F8F6F3"/>
<path d="M26.2639 9.07634L23.8564 6.66016L18.8345 11.7001L16.4102 11.7169L7.00879 21.152L7.04745 21.4325C7.36701 23.7514 9.17846 25.6172 11.5444 25.9456L11.8239 25.9844L21.2253 16.5493L21.242 14.1163L26.2639 9.07634ZM19.8736 12.268L20.6867 11.452L21.4892 12.2574L20.6761 13.0734L19.8736 12.268ZM24.6589 9.07634L22.2917 11.452L21.4892 10.6467L23.8564 8.27096L24.6589 9.07634ZM20.0936 16.0742L11.4286 24.7703C9.82211 24.4358 8.55183 23.1609 8.2185 21.5487L16.8835 12.8527L18.8377 12.8391L19.0713 13.0736L16.2456 15.909L17.0481 16.7144L19.8738 13.879L20.107 14.113L20.0936 16.0742Z" fill="black" stroke="black" stroke-width="0.5"/>
<path d="M11.5461 11.8495C12.8736 10.5173 12.8736 8.34949 11.5461 7.01721C10.2155 5.68186 8.06173 5.68167 6.73099 7.01721C5.40347 8.34949 5.40347 10.5173 6.73099 11.8495C8.06154 13.1849 10.2153 13.1851 11.5461 11.8495ZM10.7436 11.0442C9.82218 11.9688 8.2934 11.9331 7.42189 10.9228C8.80506 9.76461 9.79214 10.1884 11.3644 8.99139C11.5052 9.71157 11.2984 10.4873 10.7436 11.0442ZM9.1385 7.15647C9.787 7.15647 10.4123 7.43066 10.8551 7.94397C9.47198 9.10217 8.4849 8.67839 6.91265 9.87536C6.63615 8.46176 7.7099 7.15647 9.1385 7.15647Z" fill="black" stroke="black" stroke-width="0.5"/>
</g>
</g>
<defs>
<clipPath id="clip0_7561_74616">
<rect width="32" height="32" fill="white"/>
</clipPath>
<clipPath id="clip1_7561_74616">
<rect width="32" height="32" fill="white"/>
</clipPath>
</defs>
</svg>
