<svg width="696" height="333" viewBox="0 0 696 333" fill="none" xmlns="http://www.w3.org/2000/svg">
<path d="M638 104.429H640.9C675.7 104.429 696 84.4286 696 50.1429V-184.143C696 -218.429 675.7 -238.429 640.9 -238.429H638C603.2 -238.429 585.8 -261.286 585.8 -292.714V-298.429C585.8 -332.714 559.7 -358.429 524.9 -358.429H519.1C487.2 -358.429 464 -375.571 464 -409.857V-412.714C464 -447 443.7 -467 408.9 -467H287.1C252.3 -467 232 -447 232 -412.714V-409.857C232 -375.571 208.8 -358.429 176.9 -358.429H171.1C136.3 -358.429 110.2 -332.714 110.2 -298.429V-292.714C110.2 -261.286 92.8 -238.429 58 -238.429H55.1C20.3 -238.429 0 -218.429 0 -184.143V50.1429C0 84.4286 20.3 104.429 55.1 104.429H58C92.8 104.429 110.2 127.286 110.2 158.714V164.429C110.2 198.714 136.3 224.429 171.1 224.429H176.9C208.8 224.429 232 241.571 232 275.857V278.714C232 313 252.3 333 287.1 333H408.9C443.7 333 464 313 464 278.714V275.857C464 241.571 487.2 224.429 519.1 224.429H524.9C559.7 224.429 585.8 198.714 585.8 164.429V158.714C585.8 127.286 603.2 104.429 638 104.429ZM580 -181.286V47.2857C580 81.5714 556.8 98.7143 524.9 98.7143H519.1C484.3 98.7143 458.2 124.429 458.2 158.714V164.429C458.2 195.857 440.8 218.714 406 218.714H290C255.2 218.714 237.8 195.857 237.8 164.429V158.714C237.8 124.429 211.7 98.7143 176.9 98.7143H171.1C139.2 98.7143 116 81.5714 116 47.2857V-181.286C116 -215.571 139.2 -232.714 171.1 -232.714H176.9C211.7 -232.714 237.8 -258.429 237.8 -292.714V-298.429C237.8 -329.857 255.2 -352.714 290 -352.714H406C440.8 -352.714 458.2 -329.857 458.2 -298.429V-292.714C458.2 -258.429 484.3 -232.714 519.1 -232.714H524.9C556.8 -232.714 580 -215.571 580 -181.286Z" fill="#212121"/>
</svg>
