<svg width="54" height="54" viewBox="0 0 54 54" fill="none" xmlns="http://www.w3.org/2000/svg">
<rect width="54" height="54" rx="8" fill="#404796"/>
<path d="M34.8763 12.8281C33.7712 12.8279 32.685 13.115 31.7243 13.6611C30.7635 14.2073 29.9613 14.9939 29.3963 15.9437C28.8312 16.8934 28.5228 17.9738 28.5012 19.0787C28.4796 20.1836 28.7457 21.2752 29.2732 22.2463L28.547 24.4256C28.4955 24.5798 28.4881 24.7452 28.5254 24.9034C28.5627 25.0616 28.6434 25.2062 28.7583 25.3212C28.8732 25.4361 29.0179 25.5167 29.176 25.554C29.3342 25.5914 29.4997 25.5839 29.6538 25.5325L31.8332 24.8062C32.6863 25.2692 33.6339 25.5313 34.6037 25.5724C35.5734 25.6135 36.5398 25.4327 37.429 25.0436C38.3183 24.6546 39.107 24.0676 39.735 23.3275C40.3629 22.5874 40.8136 21.7136 41.0526 20.7729C41.2916 19.8321 41.3126 18.8492 41.1141 17.8991C40.9155 16.949 40.5026 16.0568 39.9069 15.2904C39.3112 14.5241 38.5483 13.904 37.6765 13.4772C36.8047 13.0505 35.847 12.8285 34.8763 12.8281ZM34.8763 24.8281C33.8875 24.8284 32.9162 24.5679 32.0601 24.0731C32.003 24.0403 31.9384 24.0229 31.8726 24.0225C31.8322 24.0227 31.7922 24.0293 31.7538 24.0419L29.417 24.8206C29.3949 24.828 29.3713 24.829 29.3487 24.8237C29.3261 24.8184 29.3054 24.8069 29.289 24.7904C29.2726 24.774 29.2611 24.7534 29.2558 24.7308C29.2504 24.7082 29.2515 24.6845 29.2588 24.6625L30.0376 22.3281C30.0544 22.2777 30.0604 22.2242 30.055 22.1713C30.0496 22.1184 30.033 22.0673 30.0063 22.0212C29.3859 20.9494 29.1365 19.7028 29.2968 18.4748C29.4572 17.2468 30.0183 16.106 30.8932 15.2294C31.7681 14.3529 32.9078 13.7896 34.1356 13.6269C35.3633 13.4642 36.6104 13.7112 37.6834 14.3296C38.7564 14.9481 39.5953 15.9033 40.0699 17.0472C40.5446 18.1911 40.6285 19.4596 40.3086 20.6561C39.9887 21.8525 39.2829 22.9099 38.3007 23.6643C37.3185 24.4186 36.1148 24.8277 34.8763 24.8281Z" fill="white" stroke="white" stroke-width="0.5"/>
<path d="M38.7363 33.849C38.5221 35.4831 37.7202 36.9832 36.4805 38.069C35.2407 39.1549 33.648 39.7521 32 39.749C22.2125 39.749 14.25 31.7865 14.25 21.999C14.2469 20.3516 14.8435 18.7593 15.9286 17.5197C17.0137 16.28 18.5129 15.4778 20.1463 15.2628C20.5223 15.2171 20.9029 15.2946 21.2311 15.4837C21.5593 15.6728 21.8173 15.9633 21.9663 16.3115L24.6038 22.199C24.7202 22.4656 24.7684 22.7569 24.744 23.0468C24.7195 23.3366 24.6232 23.6158 24.4638 23.859C24.4477 23.8838 24.4302 23.9076 24.4113 23.9303L21.7775 27.0628C21.7615 27.0953 21.7532 27.131 21.7532 27.1672C21.7532 27.2034 21.7615 27.2391 21.7775 27.2715C22.735 29.2315 24.79 31.2715 26.7775 32.2278C26.8107 32.2429 26.8469 32.2501 26.8834 32.2488C26.9198 32.2475 26.9555 32.2377 26.9875 32.2203L30.0738 29.5953C30.0958 29.5761 30.1192 29.5586 30.1438 29.5428C30.3859 29.3813 30.6646 29.2828 30.9544 29.2562C31.2443 29.2296 31.5362 29.2756 31.8038 29.3903L37.7088 32.0365C38.0524 32.1888 38.3378 32.4477 38.5228 32.7748C38.7079 33.1019 38.7827 33.4798 38.7363 33.8528V33.849ZM37.25 33.664C37.2542 33.6118 37.2419 33.5595 37.2147 33.5146C37.1876 33.4698 37.147 33.4346 37.0988 33.414L31.1925 30.7678C31.1602 30.7553 31.1257 30.75 31.0911 30.7522C31.0566 30.7543 31.023 30.7639 30.9925 30.7803L27.9075 33.4053C27.885 33.424 27.8613 33.4415 27.8375 33.4578C27.5859 33.6256 27.295 33.7253 26.9934 33.7472C26.6917 33.7691 26.3895 33.7125 26.1163 33.5828C23.8213 32.474 21.5338 30.2078 20.425 27.934C20.2946 27.6624 20.2366 27.3616 20.2565 27.061C20.2764 26.7603 20.3736 26.4699 20.5388 26.2178C20.5549 26.1927 20.5728 26.1689 20.5925 26.1465L23.2238 23.0103C23.2388 22.9775 23.2466 22.9419 23.2466 22.9059C23.2466 22.8699 23.2388 22.8343 23.2238 22.8015L20.5925 16.9128C20.5751 16.8655 20.5439 16.8246 20.5028 16.7953C20.4618 16.7661 20.4129 16.75 20.3625 16.749H20.3338C19.0624 16.9181 17.8961 17.5442 17.0526 18.5103C16.2091 19.4764 15.7461 20.7165 15.75 21.999C15.75 30.959 23.04 38.249 32 38.249C33.2827 38.2529 34.523 37.7897 35.4891 36.9459C36.4552 36.1022 37.0812 34.9356 37.25 33.664Z" fill="white"/>
</svg>
