<svg width="54" height="54" viewBox="0 0 54 54" fill="none" xmlns="http://www.w3.org/2000/svg">
<rect width="54" height="54" rx="8" fill="#404796"/>
<path d="M30.8888 28.7663C31.6768 28.1625 32.2559 27.3269 32.5447 26.3771C32.8334 25.4272 32.8173 24.4107 32.4985 23.4705C32.1797 22.5303 31.5744 21.7136 30.7675 21.1351C29.9606 20.5567 28.9928 20.2456 28 20.2456C27.0072 20.2456 26.0394 20.5567 25.2325 21.1351C24.4256 21.7136 23.8203 22.5303 23.5015 23.4705C23.1827 24.4107 23.1666 25.4272 23.4553 26.3771C23.7441 27.3269 24.3232 28.1625 25.1112 28.7663C23.6325 29.3185 22.3441 30.2849 21.4 31.55C21.2807 31.7091 21.2294 31.9092 21.2575 32.1061C21.2857 32.303 21.3909 32.4807 21.55 32.6C21.7091 32.7193 21.9092 32.7706 22.1061 32.7425C22.303 32.7143 22.4807 32.6091 22.6 32.45C23.2287 31.6117 24.044 30.9313 24.9813 30.4626C25.9186 29.994 26.9521 29.75 28 29.75C29.0479 29.75 30.0814 29.994 31.0187 30.4626C31.956 30.9313 32.7713 31.6117 33.4 32.45C33.5193 32.6091 33.697 32.7143 33.8939 32.7425C34.0908 32.7706 34.2909 32.7193 34.45 32.6C34.6091 32.4807 34.7143 32.303 34.7425 32.1061C34.7706 31.9092 34.7193 31.7091 34.6 31.55C33.6559 30.2849 32.3675 29.3185 30.8888 28.7663ZM24.75 25C24.75 24.3572 24.9406 23.7289 25.2977 23.1944C25.6548 22.6599 26.1624 22.2434 26.7563 21.9974C27.3501 21.7514 28.0036 21.687 28.634 21.8124C29.2645 21.9378 29.8436 22.2474 30.2981 22.7019C30.7526 23.1564 31.0621 23.7355 31.1876 24.366C31.313 24.9964 31.2486 25.6499 31.0026 26.2437C30.7566 26.8376 30.3401 27.3452 29.8056 27.7023C29.2711 28.0594 28.6428 28.25 28 28.25C27.138 28.25 26.3114 27.9076 25.7019 27.2981C25.0924 26.6886 24.75 25.862 24.75 25ZM37 14.25H19C18.5359 14.25 18.0908 14.4344 17.7626 14.7626C17.4344 15.0908 17.25 15.5359 17.25 16V19.25H15C14.8011 19.25 14.6103 19.329 14.4697 19.4697C14.329 19.6103 14.25 19.8011 14.25 20C14.25 20.1989 14.329 20.3897 14.4697 20.5303C14.6103 20.671 14.8011 20.75 15 20.75H17.25V26.25H15C14.8011 26.25 14.6103 26.329 14.4697 26.4697C14.329 26.6103 14.25 26.8011 14.25 27C14.25 27.1989 14.329 27.3897 14.4697 27.5303C14.6103 27.671 14.8011 27.75 15 27.75H17.25V33.25H15C14.8011 33.25 14.6103 33.329 14.4697 33.4697C14.329 33.6103 14.25 33.8011 14.25 34C14.25 34.1989 14.329 34.3897 14.4697 34.5303C14.6103 34.671 14.8011 34.75 15 34.75H17.25V38C17.25 38.4641 17.4344 38.9092 17.7626 39.2374C18.0908 39.5656 18.5359 39.75 19 39.75H37C37.4641 39.75 37.9092 39.5656 38.2374 39.2374C38.5656 38.9092 38.75 38.4641 38.75 38V16C38.75 15.5359 38.5656 15.0908 38.2374 14.7626C37.9092 14.4344 37.4641 14.25 37 14.25ZM37.25 38C37.25 38.0663 37.2237 38.1299 37.1768 38.1768C37.1299 38.2237 37.0663 38.25 37 38.25H19C18.9337 38.25 18.8701 38.2237 18.8232 38.1768C18.7763 38.1299 18.75 38.0663 18.75 38V16C18.75 15.9337 18.7763 15.8701 18.8232 15.8232C18.8701 15.7763 18.9337 15.75 19 15.75H37C37.0663 15.75 37.1299 15.7763 37.1768 15.8232C37.2237 15.8701 37.25 15.9337 37.25 16V38Z" fill="white"/>
</svg>
