<svg width="54" height="54" viewBox="0 0 54 54" fill="none" xmlns="http://www.w3.org/2000/svg">
<rect width="54" height="54" rx="8" fill="#404796"/>
<path d="M27 14.25C24.4783 14.25 22.0132 14.9978 19.9165 16.3988C17.8198 17.7998 16.1856 19.791 15.2205 22.1208C14.2555 24.4505 14.003 27.0141 14.495 29.4874C14.987 31.9607 16.2013 34.2325 17.9844 36.0156C19.7675 37.7987 22.0393 39.0131 24.5126 39.505C26.9859 39.997 29.5495 39.7445 31.8792 38.7795C34.209 37.8144 36.2003 36.1802 37.6012 34.0835C39.0022 31.9868 39.75 29.5217 39.75 27C39.746 23.6197 38.4015 20.379 36.0112 17.9888C33.621 15.5985 30.3803 14.254 27 14.25ZM27 38.25C24.775 38.25 22.5999 37.5902 20.7498 36.354C18.8998 35.1179 17.4578 33.3609 16.6064 31.3052C15.7549 29.2495 15.5321 26.9875 15.9662 24.8052C16.4003 22.6229 17.4717 20.6184 19.0451 19.045C20.6184 17.4717 22.623 16.4002 24.8052 15.9662C26.9875 15.5321 29.2495 15.7549 31.3052 16.6064C33.3609 17.4578 35.1179 18.8998 36.354 20.7498C37.5902 22.5999 38.25 24.775 38.25 27C38.2467 29.9827 37.0604 32.8422 34.9513 34.9513C32.8422 37.0604 29.9827 38.2467 27 38.25ZM34.75 27C34.75 27.1989 34.671 27.3897 34.5303 27.5303C34.3897 27.671 34.1989 27.75 34 27.75H27C26.8011 27.75 26.6103 27.671 26.4697 27.5303C26.329 27.3897 26.25 27.1989 26.25 27V20C26.25 19.8011 26.329 19.6103 26.4697 19.4697C26.6103 19.329 26.8011 19.25 27 19.25C27.1989 19.25 27.3897 19.329 27.5303 19.4697C27.671 19.6103 27.75 19.8011 27.75 20V26.25H34C34.1989 26.25 34.3897 26.329 34.5303 26.4697C34.671 26.6103 34.75 26.8011 34.75 27Z" fill="white"/>
</svg>
