<svg width="56" height="56" viewBox="0 0 56 56" fill="none" xmlns="http://www.w3.org/2000/svg">
<g id="rupee-sign-svgrepo-com 1">
<path id="Vector" d="M37.0682 19.7878H33.5982C33.3408 18.3257 32.7033 16.9964 31.7925 15.909H37.0681C37.8589 15.909 38.4999 15.2578 38.4999 14.4545C38.5 13.6512 37.859 13 37.0682 13H25.6136H18.9318C18.1411 13 17.5 13.6512 17.5 14.4546C17.5 14.4547 17.5 14.4549 17.5 14.4551C17.5 14.4552 17.5 14.4554 17.5 14.4556C17.5 15.2589 18.1411 15.9101 18.9318 15.9101H25.6136C25.6291 15.9101 25.6445 15.9098 25.6598 15.9094C28.0382 15.9302 30.0428 17.5665 30.6637 19.7879H18.9318C18.1411 19.7879 17.5 20.4391 17.5 21.2425C17.5 22.0458 18.1411 22.697 18.9318 22.697H30.6637C30.0387 24.9328 28.0121 26.5758 25.6136 26.5758H18.9318C18.1411 26.5758 17.5 27.227 17.5 28.0303C17.5 28.0305 17.5 28.0307 17.5 28.0308C17.5 28.031 17.5 28.0312 17.5 28.0314C17.5 28.8347 18.1411 29.4859 18.9318 29.4859H25.6136C25.6291 29.4859 25.6445 29.4856 25.6598 29.4852C28.5336 29.5103 30.8636 31.8931 30.8636 34.8182V43.5454C30.8636 44.3488 31.5048 45 32.2954 45C33.0863 45 33.7273 44.3488 33.7273 43.5454V34.8181C33.7273 32.0053 32.3324 29.5182 30.2091 28.0302C31.9577 26.8048 33.2101 24.9015 33.5983 22.6969H37.0682C37.859 22.6969 38.5 22.0457 38.5 21.2424C38.5 20.4391 37.859 19.7878 37.0682 19.7878Z" fill="#FF0037"/>
<path id="Vector_2" d="M21.5052 51.3346H35.5052C47.1719 51.3346 51.8385 46.668 51.8385 35.0013V21.0013C51.8385 9.33464 47.1719 4.66797 35.5052 4.66797H21.5052C9.83854 4.66797 5.17188 9.33464 5.17188 21.0013V35.0013C5.17188 46.668 9.83854 51.3346 21.5052 51.3346Z" stroke="#FF0037" stroke-width="2" stroke-linecap="round" stroke-linejoin="round"/>
</g>
</svg>
