<svg width="32" height="32" viewBox="0 0 32 32" fill="none" xmlns="http://www.w3.org/2000/svg">
<g clip-path="url(#clip0_7561_74633)">
<rect x="0.570312" y="0.570312" width="30.8571" height="30.8571" rx="5.5" fill="#F8F6F3"/>
<g clip-path="url(#clip1_7561_74633)">
<path d="M21.1505 20.0671L21.1216 20.1025L21.1542 20.1344L25.7294 24.6234C25.7296 24.6236 25.7297 24.6237 25.7299 24.6239C25.8723 24.7716 25.9511 24.9693 25.9493 25.1744C25.9475 25.3798 25.8651 25.5763 25.7199 25.7215C25.5747 25.8668 25.3782 25.9492 25.1728 25.9509C24.9674 25.9527 24.7696 25.8738 24.6218 25.7311C24.6218 25.7311 24.6218 25.7311 24.6218 25.7311L20.0459 21.2414L20.0139 21.21L19.9792 21.2384C18.3313 22.5858 16.2286 23.2483 14.1059 23.0888C11.9833 22.9293 10.0031 21.96 8.57504 20.3815C7.14698 18.803 6.38025 16.736 6.43345 14.608C6.48666 12.4801 7.35573 10.454 8.8609 8.94879C10.3661 7.44362 12.3922 6.57455 14.5201 6.52134C16.6481 6.46814 18.7151 7.23487 20.2936 8.66294C21.8722 10.091 22.8414 12.0712 23.0009 14.1938C23.1604 16.3165 22.4979 18.4192 21.1505 20.0671ZM14.7409 21.5454H14.7409C16.5217 21.5434 18.2289 20.8351 19.4881 19.576C20.7472 18.3168 21.4555 16.6096 21.4575 14.8288V14.8288C21.4575 13.5003 21.0636 12.2017 20.3256 11.0972C19.5875 9.99263 18.5385 9.13173 17.3112 8.62337C16.0839 8.115 14.7334 7.98198 13.4305 8.24115C12.1276 8.50031 10.9308 9.14001 9.99147 10.0794C9.05212 11.0187 8.41242 12.2155 8.15326 13.5184C7.89409 14.8213 8.02711 16.1718 8.53548 17.3991C9.04384 18.6264 9.90474 19.6754 11.0093 20.4135C12.1138 21.1515 13.4124 21.5454 14.7409 21.5454Z" fill="black" stroke="white" stroke-width="0.1"/>
<path d="M13.4724 18.5938H11.9276L10.0172 12.1953H11.3426L12.7183 17.1038L14.1488 12.1953H15.561L16.9915 17.1038L18.3672 12.1953H19.6697L17.7593 18.5938H16.2146L14.8435 14.0234L13.4724 18.5938Z" fill="black"/>
</g>
</g>
<defs>
<clipPath id="clip0_7561_74633">
<rect width="32" height="32" fill="white"/>
</clipPath>
<clipPath id="clip1_7561_74633">
<rect width="20" height="20" fill="white" transform="translate(6 6)"/>
</clipPath>
</defs>
</svg>
