<svg width="32" height="32" viewBox="0 0 32 32" fill="none" xmlns="http://www.w3.org/2000/svg">
<g clip-path="url(#clip0_7561_74609)">
<rect x="0.570312" y="0.570312" width="30.8571" height="30.8571" rx="5.5" fill="#F8F6F3"/>
<path d="M13.0736 25C11.7206 25 10.409 24.2732 9.72175 22.9982C8.78795 21.26 9.36195 19.0728 11.0288 18.018C11.0386 18.012 11.0486 18.006 11.0588 18.0008C11.1934 17.931 11.3248 17.8592 11.4566 17.7846C11.3592 17.7288 11.2622 17.6736 11.1638 17.6186C10.1398 17.0274 9.51115 16.1958 9.34075 15.211C9.11775 13.8934 9.11835 12.2282 11.118 11.0256C12.6554 10.1066 14.2308 9.20696 15.7546 8.33676C16.26 8.04816 16.7658 7.75936 17.2716 7.46915C18.3274 6.86755 19.631 6.84335 20.7588 7.40335C21.8972 7.96856 22.6726 9.03376 22.8334 10.2528C23.0666 11.8066 22.2894 13.3618 20.898 14.1158C20.8082 14.1666 20.721 14.2166 20.6354 14.266C20.7172 14.3148 20.7986 14.3626 20.8808 14.409C22.0238 15.0522 22.7454 16.1458 22.8606 17.4088C22.9742 18.6576 22.47 19.8476 21.4774 20.6738C21.1606 20.9312 20.8124 21.1274 20.4758 21.317C20.3784 21.3718 20.2808 21.4268 20.1848 21.483C18.624 22.3924 16.7714 23.4674 14.8632 24.547C14.2934 24.8542 13.6792 25 13.0736 25ZM11.4424 18.7032C10.1398 19.538 9.69315 21.2544 10.4264 22.619C11.2118 24.0758 13.0282 24.6272 14.4766 23.8466C16.3736 22.7732 18.2234 21.6996 19.7818 20.7916C19.8812 20.7336 19.9822 20.6768 20.0832 20.6196C20.405 20.4384 20.709 20.2672 20.9696 20.0554C21.7532 19.4034 22.1532 18.4638 22.064 17.481C21.9732 16.4842 21.3988 15.6182 20.488 15.1056C20.3412 15.0226 20.1982 14.9366 20.0498 14.8472C19.9242 14.7716 19.7944 14.6934 19.6548 14.6128C19.5328 14.5424 19.4568 14.413 19.4546 14.272C19.4526 14.131 19.525 13.9994 19.6448 13.9256C19.9244 13.7534 20.1994 13.5914 20.5106 13.4154C21.6132 12.818 22.2258 11.5932 22.0414 10.3642C21.9144 9.40256 21.3024 8.56616 20.403 8.11956C19.514 7.67816 18.4914 7.69456 17.6688 8.16336C17.1636 8.45336 16.6574 8.74236 16.1514 9.03116C14.6312 9.89936 13.059 10.7972 11.5294 11.7114C10.2602 12.4748 9.85415 13.4496 10.1294 15.0756C10.2594 15.828 10.7406 16.4498 11.5592 16.9224C11.8496 17.0852 12.1328 17.2502 12.4512 17.439C12.5724 17.5108 12.647 17.6412 12.6474 17.782C12.6478 17.923 12.574 18.0538 12.4532 18.1262C12.1042 18.3362 11.7866 18.5244 11.4424 18.7032Z" fill="black" stroke="black" stroke-width="0.6"/>
<path d="M14.3845 19C14.3184 19 14.2523 18.9819 14.193 18.9456C14.0742 18.873 14.001 18.7387 14.001 18.5935V13.4063C14.001 13.261 14.074 13.1269 14.1927 13.0544C14.3113 12.9819 14.4575 12.9819 14.576 13.0544L18.8091 15.6421C18.9278 15.7146 19.0008 15.8485 19.001 15.9938C19.0012 16.139 18.9281 16.2729 18.8099 16.3459L14.5768 18.9453C14.5172 18.9819 14.4508 19 14.3845 19ZM14.7679 14.1098V17.8887L17.8515 15.995L14.7679 14.1098Z" fill="black" stroke="black" stroke-width="0.6"/>
</g>
<defs>
<clipPath id="clip0_7561_74609">
<rect width="32" height="32" fill="white"/>
</clipPath>
</defs>
</svg>
