<svg width="32" height="33" viewBox="0 0 32 33" fill="none" xmlns="http://www.w3.org/2000/svg">
<g id="AddressBook">
<path id="Vector" d="M19.8888 18.6725C20.6768 18.0687 21.2559 17.2332 21.5447 16.2833C21.8334 15.3334 21.8173 14.317 21.4985 13.3767C21.1797 12.4365 20.5744 11.6198 19.7675 11.0414C18.9606 10.4629 17.9928 10.1519 17 10.1519C16.0072 10.1519 15.0394 10.4629 14.2325 11.0414C13.4256 11.6198 12.8203 12.4365 12.5015 13.3767C12.1827 14.317 12.1666 15.3334 12.4553 16.2833C12.7441 17.2332 13.3232 18.0687 14.1112 18.6725C12.6325 19.2248 11.3441 20.1912 10.4 21.4562C10.2807 21.6154 10.2294 21.8154 10.2575 22.0123C10.2857 22.2092 10.3909 22.3869 10.55 22.5063C10.7091 22.6256 10.9092 22.6768 11.1061 22.6487C11.303 22.6206 11.4807 22.5154 11.6 22.3563C12.2287 21.5179 13.044 20.8375 13.9813 20.3689C14.9186 19.9002 15.9521 19.6562 17 19.6562C18.0479 19.6562 19.0814 19.9002 20.0187 20.3689C20.956 20.8375 21.7713 21.5179 22.4 22.3563C22.5193 22.5154 22.697 22.6206 22.8939 22.6487C23.0908 22.6768 23.2909 22.6256 23.45 22.5063C23.6091 22.3869 23.7143 22.2092 23.7425 22.0123C23.7706 21.8154 23.7193 21.6154 23.6 21.4562C22.6559 20.1912 21.3675 19.2248 19.8888 18.6725ZM13.75 14.9062C13.75 14.2635 13.9406 13.6351 14.2977 13.1006C14.6548 12.5662 15.1624 12.1496 15.7563 11.9036C16.3501 11.6577 17.0036 11.5933 17.634 11.7187C18.2645 11.8441 18.8436 12.1536 19.2981 12.6082C19.7526 13.0627 20.0621 13.6418 20.1876 14.2722C20.313 14.9026 20.2486 15.5561 20.0026 16.15C19.7566 16.7438 19.3401 17.2514 18.8056 17.6085C18.2711 17.9656 17.6428 18.1562 17 18.1562C16.138 18.1562 15.3114 17.8138 14.7019 17.2043C14.0924 16.5949 13.75 15.7682 13.75 14.9062ZM26 4.15625H8C7.53587 4.15625 7.09075 4.34062 6.76256 4.66881C6.43437 4.997 6.25 5.44212 6.25 5.90625V9.15625H4C3.80109 9.15625 3.61032 9.23527 3.46967 9.37592C3.32902 9.51657 3.25 9.70734 3.25 9.90625C3.25 10.1052 3.32902 10.2959 3.46967 10.4366C3.61032 10.5772 3.80109 10.6562 4 10.6562H6.25V16.1562H4C3.80109 16.1562 3.61032 16.2353 3.46967 16.3759C3.32902 16.5166 3.25 16.7073 3.25 16.9062C3.25 17.1052 3.32902 17.2959 3.46967 17.4366C3.61032 17.5772 3.80109 17.6562 4 17.6562H6.25V23.1562H4C3.80109 23.1562 3.61032 23.2353 3.46967 23.3759C3.32902 23.5166 3.25 23.7073 3.25 23.9062C3.25 24.1052 3.32902 24.2959 3.46967 24.4366C3.61032 24.5772 3.80109 24.6562 4 24.6562H6.25V27.9062C6.25 28.3704 6.43437 28.8155 6.76256 29.1437C7.09075 29.4719 7.53587 29.6562 8 29.6562H26C26.4641 29.6562 26.9092 29.4719 27.2374 29.1437C27.5656 28.8155 27.75 28.3704 27.75 27.9062V5.90625C27.75 5.44212 27.5656 4.997 27.2374 4.66881C26.9092 4.34062 26.4641 4.15625 26 4.15625ZM26.25 27.9062C26.25 27.9726 26.2237 28.0361 26.1768 28.083C26.1299 28.1299 26.0663 28.1562 26 28.1562H8C7.9337 28.1562 7.87011 28.1299 7.82322 28.083C7.77634 28.0361 7.75 27.9726 7.75 27.9062V5.90625C7.75 5.83995 7.77634 5.77636 7.82322 5.72947C7.87011 5.68259 7.9337 5.65625 8 5.65625H26C26.0663 5.65625 26.1299 5.68259 26.1768 5.72947C26.2237 5.77636 26.25 5.83995 26.25 5.90625V27.9062Z" fill="url(#paint0_linear_7561_93934)"/>
</g>
<defs>
<linearGradient id="paint0_linear_7561_93934" x1="2.63569" y1="23.7985" x2="29.9352" y2="16.5565" gradientUnits="userSpaceOnUse">
<stop stop-color="#FF998F"/>
<stop offset="1" stop-color="#FFF7E8"/>
</linearGradient>
</defs>
</svg>
