<svg width="32" height="33" viewBox="0 0 32 33" fill="none" xmlns="http://www.w3.org/2000/svg">
<g id="BookOpenText">
<path id="Vector" d="M29 7.15625H20C19.2027 7.15684 18.4184 7.3581 17.7194 7.74148C17.0204 8.12486 16.4291 8.67803 16 9.35C15.5709 8.67803 14.9796 8.12486 14.2806 7.74148C13.5816 7.3581 12.7973 7.15684 12 7.15625H3C2.80109 7.15625 2.61032 7.23527 2.46967 7.37592C2.32902 7.51657 2.25 7.70734 2.25 7.90625V25.9062C2.25 26.1052 2.32902 26.2959 2.46967 26.4366C2.61032 26.5772 2.80109 26.6562 3 26.6562H12C12.862 26.6562 13.6886 26.9987 14.2981 27.6082C14.9076 28.2176 15.25 29.0443 15.25 29.9062C15.25 30.1052 15.329 30.2959 15.4697 30.4366C15.6103 30.5772 15.8011 30.6562 16 30.6562C16.1989 30.6562 16.3897 30.5772 16.5303 30.4366C16.671 30.2959 16.75 30.1052 16.75 29.9062C16.75 29.0443 17.0924 28.2176 17.7019 27.6082C18.3114 26.9987 19.138 26.6562 20 26.6562H29C29.1989 26.6562 29.3897 26.5772 29.5303 26.4366C29.671 26.2959 29.75 26.1052 29.75 25.9062V7.90625C29.75 7.70734 29.671 7.51657 29.5303 7.37592C29.3897 7.23527 29.1989 7.15625 29 7.15625ZM12 25.1562H3.75V8.65625H12C12.862 8.65625 13.6886 8.99866 14.2981 9.60815C14.9076 10.2176 15.25 11.0443 15.25 11.9062V26.445C14.3709 25.6163 13.2081 25.1553 12 25.1562ZM28.25 25.1562H20C18.7917 25.1557 17.629 25.6172 16.75 26.4463V11.9062C16.75 11.0443 17.0924 10.2176 17.7019 9.60815C18.3114 8.99866 19.138 8.65625 20 8.65625H28.25V25.1562ZM20 12.1562H25C25.1989 12.1562 25.3897 12.2353 25.5303 12.3759C25.671 12.5166 25.75 12.7073 25.75 12.9062C25.75 13.1052 25.671 13.2959 25.5303 13.4366C25.3897 13.5772 25.1989 13.6562 25 13.6562H20C19.8011 13.6562 19.6103 13.5772 19.4697 13.4366C19.329 13.2959 19.25 13.1052 19.25 12.9062C19.25 12.7073 19.329 12.5166 19.4697 12.3759C19.6103 12.2353 19.8011 12.1562 20 12.1562ZM25.75 16.9062C25.75 17.1052 25.671 17.2959 25.5303 17.4366C25.3897 17.5772 25.1989 17.6562 25 17.6562H20C19.8011 17.6562 19.6103 17.5772 19.4697 17.4366C19.329 17.2959 19.25 17.1052 19.25 16.9062C19.25 16.7073 19.329 16.5166 19.4697 16.3759C19.6103 16.2353 19.8011 16.1562 20 16.1562H25C25.1989 16.1562 25.3897 16.2353 25.5303 16.3759C25.671 16.5166 25.75 16.7073 25.75 16.9062ZM25.75 20.9062C25.75 21.1052 25.671 21.2959 25.5303 21.4366C25.3897 21.5772 25.1989 21.6562 25 21.6562H20C19.8011 21.6562 19.6103 21.5772 19.4697 21.4366C19.329 21.2959 19.25 21.1052 19.25 20.9062C19.25 20.7073 19.329 20.5166 19.4697 20.3759C19.6103 20.2353 19.8011 20.1562 20 20.1562H25C25.1989 20.1562 25.3897 20.2353 25.5303 20.3759C25.671 20.5166 25.75 20.7073 25.75 20.9062Z" fill="url(#paint0_linear_7561_93939)"/>
</g>
<defs>
<linearGradient id="paint0_linear_7561_93939" x1="1.56046" y1="25.258" x2="31.2588" y2="15.6623" gradientUnits="userSpaceOnUse">
<stop stop-color="#FF998F"/>
<stop offset="1" stop-color="#FFF7E8"/>
</linearGradient>
</defs>
</svg>
