<svg width="17" height="17" viewBox="0 0 17 17" fill="none" xmlns="http://www.w3.org/2000/svg">
<g id="ChatCircle">
<path id="Vector" d="M8.87634 1.73438C7.77121 1.73414 6.68499 2.0212 5.72427 2.5674C4.76354 3.11359 3.96131 3.90015 3.39627 4.84991C2.83122 5.79967 2.52279 6.88001 2.50121 7.98493C2.47964 9.08985 2.74568 10.1814 3.27321 11.1525L2.54696 13.3319C2.49555 13.486 2.48809 13.6515 2.52542 13.8097C2.56274 13.9678 2.64339 14.1125 2.7583 14.2274C2.87322 14.3423 3.01787 14.423 3.17605 14.4603C3.33422 14.4976 3.49967 14.4902 3.65384 14.4388L5.83321 13.7125C6.68633 14.1755 7.63389 14.4375 8.60366 14.4786C9.57343 14.5198 10.5398 14.3389 11.429 13.9499C12.3183 13.5609 13.107 12.9739 13.735 12.2338C14.3629 11.4936 14.8136 10.6199 15.0526 9.67912C15.2916 8.73837 15.3126 7.75546 15.1141 6.80535C14.9155 5.85523 14.5026 4.963 13.9069 4.19669C13.3112 3.43037 12.5483 2.81021 11.6765 2.38349C10.8047 1.95676 9.84698 1.73475 8.87634 1.73438ZM8.87634 13.7344C7.88755 13.7346 6.91616 13.4742 6.06009 12.9794C6.00302 12.9466 5.93841 12.9291 5.87259 12.9288C5.83224 12.929 5.79217 12.9355 5.75384 12.9481L3.41696 13.7269C3.39494 13.7342 3.3713 13.7353 3.34871 13.73C3.32611 13.7246 3.30545 13.7131 3.28903 13.6967C3.27261 13.6803 3.26109 13.6596 3.25576 13.637C3.25043 13.6144 3.25149 13.5908 3.25884 13.5688L4.03759 11.2344C4.05444 11.1839 4.06037 11.1305 4.05498 11.0776C4.04959 11.0247 4.03301 10.9735 4.00634 10.9275C3.38587 9.85568 3.13647 8.60906 3.29683 7.38103C3.45719 6.153 4.01834 5.01223 4.89323 4.13568C5.76812 3.25913 6.90783 2.69581 8.13555 2.53312C9.36327 2.37043 10.6104 2.61746 11.6834 3.23589C12.7564 3.85432 13.5953 4.80958 14.0699 5.95346C14.5446 7.09734 14.6285 8.36589 14.3086 9.56232C13.9887 10.7587 13.2829 11.8162 12.3007 12.5705C11.3185 13.3249 10.1148 13.734 8.87634 13.7344Z" fill="url(#paint0_linear_7561_93951)" stroke="url(#paint1_linear_7561_93951)" stroke-width="0.5"/>
</g>
<defs>
<linearGradient id="paint0_linear_7561_93951" x1="2.18033" y1="11.5555" x2="16.3088" y2="7.65488" gradientUnits="userSpaceOnUse">
<stop stop-color="#FF998F"/>
<stop offset="1" stop-color="#FFF7E8"/>
</linearGradient>
<linearGradient id="paint1_linear_7561_93951" x1="2.18033" y1="11.5555" x2="16.3088" y2="7.65488" gradientUnits="userSpaceOnUse">
<stop stop-color="#FF998F"/>
<stop offset="1" stop-color="#FFF7E8"/>
</linearGradient>
</defs>
</svg>
