<svg width="32" height="33" viewBox="0 0 32 33" fill="none" xmlns="http://www.w3.org/2000/svg">
<g id="Clock">
<path id="Vector" d="M16 4.15625C13.4783 4.15625 11.0132 4.90402 8.91648 6.30501C6.81976 7.706 5.18556 9.69728 4.22054 12.027C3.25552 14.3568 3.00303 16.9204 3.49499 19.3937C3.98696 21.8669 5.20127 24.1387 6.98439 25.9219C8.76751 27.705 11.0393 28.9193 13.5126 29.4113C15.9859 29.9032 18.5495 29.6507 20.8792 28.6857C23.209 27.7207 25.2003 26.0865 26.6012 23.9898C28.0022 21.893 28.75 19.428 28.75 16.9062C28.746 13.526 27.4015 10.2853 25.0112 7.89502C22.621 5.50479 19.3803 4.16022 16 4.15625ZM16 28.1562C13.775 28.1562 11.5999 27.4964 9.74984 26.2603C7.89979 25.0241 6.45785 23.2671 5.60636 21.2114C4.75488 19.1558 4.53209 16.8938 4.96617 14.7115C5.40025 12.5292 6.47171 10.5246 8.04505 8.9513C9.6184 7.37796 11.623 6.3065 13.8052 5.87242C15.9875 5.43833 18.2495 5.66112 20.3052 6.51261C22.3609 7.36409 24.1179 8.80603 25.354 10.6561C26.5902 12.5061 27.25 14.6812 27.25 16.9062C27.2467 19.8889 26.0604 22.7485 23.9513 24.8575C21.8422 26.9666 18.9827 28.1529 16 28.1562ZM23.75 16.9062C23.75 17.1052 23.671 17.2959 23.5303 17.4366C23.3897 17.5772 23.1989 17.6562 23 17.6562H16C15.8011 17.6562 15.6103 17.5772 15.4697 17.4366C15.329 17.2959 15.25 17.1052 15.25 16.9062V9.90625C15.25 9.70734 15.329 9.51657 15.4697 9.37592C15.6103 9.23527 15.8011 9.15625 16 9.15625C16.1989 9.15625 16.3897 9.23527 16.5303 9.37592C16.671 9.51657 16.75 9.70734 16.75 9.90625V16.1562H23C23.1989 16.1562 23.3897 16.2353 23.5303 16.3759C23.671 16.5166 23.75 16.7073 23.75 16.9062Z" fill="url(#paint0_linear_7561_93944)"/>
</g>
<defs>
<linearGradient id="paint0_linear_7561_93944" x1="2.61061" y1="23.7985" x2="30.8696" y2="15.996" gradientUnits="userSpaceOnUse">
<stop stop-color="#FF998F"/>
<stop offset="1" stop-color="#FFF7E8"/>
</linearGradient>
</defs>
</svg>
