<svg width="32" height="33" viewBox="0 0 32 33" fill="none" xmlns="http://www.w3.org/2000/svg">
<g id="Numpad">
<path id="Vector" d="M9.75 6.90625C9.75 7.25237 9.64736 7.59071 9.45507 7.8785C9.26278 8.16629 8.98947 8.39059 8.6697 8.52304C8.34993 8.65549 7.99806 8.69015 7.65859 8.62263C7.31913 8.5551 7.00731 8.38843 6.76256 8.14369C6.51782 7.89895 6.35115 7.58713 6.28363 7.24766C6.2161 6.90819 6.25076 6.55633 6.38321 6.23656C6.51566 5.91678 6.73997 5.64347 7.02775 5.45118C7.31554 5.25889 7.65388 5.15625 8 5.15625C8.46413 5.15625 8.90925 5.34063 9.23744 5.66881C9.56563 5.997 9.75 6.44212 9.75 6.90625ZM16 5.15625C15.6539 5.15625 15.3155 5.25889 15.0278 5.45118C14.74 5.64347 14.5157 5.91678 14.3832 6.23656C14.2508 6.55633 14.2161 6.90819 14.2836 7.24766C14.3512 7.58713 14.5178 7.89895 14.7626 8.14369C15.0073 8.38843 15.3191 8.5551 15.6586 8.62263C15.9981 8.69015 16.3499 8.65549 16.6697 8.52304C16.9895 8.39059 17.2628 8.16629 17.4551 7.8785C17.6474 7.59071 17.75 7.25237 17.75 6.90625C17.75 6.44212 17.5656 5.997 17.2374 5.66881C16.9092 5.34063 16.4641 5.15625 16 5.15625ZM24 8.65625C24.3461 8.65625 24.6845 8.55362 24.9722 8.36132C25.26 8.16903 25.4843 7.89572 25.6168 7.57595C25.7492 7.25618 25.7839 6.90431 25.7164 6.56484C25.6488 6.22538 25.4822 5.91356 25.2374 5.66881C24.9927 5.42407 24.6809 5.2574 24.3414 5.18988C24.0019 5.12235 23.6501 5.15701 23.3303 5.28946C23.0105 5.42191 22.7372 5.64622 22.5449 5.934C22.3526 6.22179 22.25 6.56013 22.25 6.90625C22.25 7.37038 22.4344 7.8155 22.7626 8.14369C23.0908 8.47188 23.5359 8.65625 24 8.65625ZM8 12.1563C7.65388 12.1563 7.31554 12.2589 7.02775 12.4512C6.73997 12.6435 6.51566 12.9168 6.38321 13.2366C6.25076 13.5563 6.2161 13.9082 6.28363 14.2477C6.35115 14.5871 6.51782 14.8989 6.76256 15.1437C7.00731 15.3884 7.31913 15.5551 7.65859 15.6226C7.99806 15.6901 8.34993 15.6555 8.6697 15.523C8.98947 15.3906 9.26278 15.1663 9.45507 14.8785C9.64736 14.5907 9.75 14.2524 9.75 13.9063C9.75 13.4421 9.56563 12.997 9.23744 12.6688C8.90925 12.3406 8.46413 12.1563 8 12.1563ZM16 12.1563C15.6539 12.1563 15.3155 12.2589 15.0278 12.4512C14.74 12.6435 14.5157 12.9168 14.3832 13.2366C14.2508 13.5563 14.2161 13.9082 14.2836 14.2477C14.3512 14.5871 14.5178 14.8989 14.7626 15.1437C15.0073 15.3884 15.3191 15.5551 15.6586 15.6226C15.9981 15.6901 16.3499 15.6555 16.6697 15.523C16.9895 15.3906 17.2628 15.1663 17.4551 14.8785C17.6474 14.5907 17.75 14.2524 17.75 13.9063C17.75 13.4421 17.5656 12.997 17.2374 12.6688C16.9092 12.3406 16.4641 12.1563 16 12.1563ZM24 12.1563C23.6539 12.1563 23.3155 12.2589 23.0278 12.4512C22.74 12.6435 22.5157 12.9168 22.3832 13.2366C22.2508 13.5563 22.2161 13.9082 22.2836 14.2477C22.3512 14.5871 22.5178 14.8989 22.7626 15.1437C23.0073 15.3884 23.3191 15.5551 23.6586 15.6226C23.9981 15.6901 24.3499 15.6555 24.6697 15.523C24.9895 15.3906 25.2628 15.1663 25.4551 14.8785C25.6474 14.5907 25.75 14.2524 25.75 13.9063C25.75 13.4421 25.5656 12.997 25.2374 12.6688C24.9092 12.3406 24.4641 12.1563 24 12.1563ZM8 19.1563C7.65388 19.1563 7.31554 19.2589 7.02775 19.4512C6.73997 19.6435 6.51566 19.9168 6.38321 20.2366C6.25076 20.5563 6.2161 20.9082 6.28363 21.2477C6.35115 21.5871 6.51782 21.8989 6.76256 22.1437C7.00731 22.3884 7.31913 22.5551 7.65859 22.6226C7.99806 22.6901 8.34993 22.6555 8.6697 22.523C8.98947 22.3906 9.26278 22.1663 9.45507 21.8785C9.64736 21.5907 9.75 21.2524 9.75 20.9063C9.75 20.4421 9.56563 19.997 9.23744 19.6688C8.90925 19.3406 8.46413 19.1563 8 19.1563ZM16 19.1563C15.6539 19.1563 15.3155 19.2589 15.0278 19.4512C14.74 19.6435 14.5157 19.9168 14.3832 20.2366C14.2508 20.5563 14.2161 20.9082 14.2836 21.2477C14.3512 21.5871 14.5178 21.8989 14.7626 22.1437C15.0073 22.3884 15.3191 22.5551 15.6586 22.6226C15.9981 22.6901 16.3499 22.6555 16.6697 22.523C16.9895 22.3906 17.2628 22.1663 17.4551 21.8785C17.6474 21.5907 17.75 21.2524 17.75 20.9063C17.75 20.4421 17.5656 19.997 17.2374 19.6688C16.9092 19.3406 16.4641 19.1563 16 19.1563ZM16 26.1562C15.6539 26.1562 15.3155 26.2589 15.0278 26.4512C14.74 26.6435 14.5157 26.9168 14.3832 27.2366C14.2508 27.5563 14.2161 27.9082 14.2836 28.2477C14.3512 28.5871 14.5178 28.8989 14.7626 29.1437C15.0073 29.3884 15.3191 29.5551 15.6586 29.6226C15.9981 29.6901 16.3499 29.6555 16.6697 29.523C16.9895 29.3906 17.2628 29.1663 17.4551 28.8785C17.6474 28.5907 17.75 28.2524 17.75 27.9062C17.75 27.4421 17.5656 26.997 17.2374 26.6688C16.9092 26.3406 16.4641 26.1562 16 26.1562ZM24 19.1563C23.6539 19.1563 23.3155 19.2589 23.0278 19.4512C22.74 19.6435 22.5157 19.9168 22.3832 20.2366C22.2508 20.5563 22.2161 20.9082 22.2836 21.2477C22.3512 21.5871 22.5178 21.8989 22.7626 22.1437C23.0073 22.3884 23.3191 22.5551 23.6586 22.6226C23.9981 22.6901 24.3499 22.6555 24.6697 22.523C24.9895 22.3906 25.2628 22.1663 25.4551 21.8785C25.6474 21.5907 25.75 21.2524 25.75 20.9063C25.75 20.4421 25.5656 19.997 25.2374 19.6688C24.9092 19.3406 24.4641 19.1563 24 19.1563Z" fill="url(#paint0_linear_7561_93959)"/>
</g>
<defs>
<linearGradient id="paint0_linear_7561_93959" x1="5.76106" y1="24.0282" x2="27.9469" y2="19.1527" gradientUnits="userSpaceOnUse">
<stop stop-color="#FF998F"/>
<stop offset="1" stop-color="#FFF7E8"/>
</linearGradient>
</defs>
</svg>
