<svg width="32" height="33" viewBox="0 0 32 33" fill="none" xmlns="http://www.w3.org/2000/svg">
<g id="PhoneCall">
<path id="Vector" d="M27.7363 23.7553C27.5221 25.3893 26.7202 26.8895 25.4805 27.9753C24.2407 29.0611 22.648 29.6583 21 29.6553C11.2125 29.6553 3.25001 21.6928 3.25001 11.9053C3.24686 10.2578 3.84354 8.66558 4.9286 7.42593C6.01367 6.18628 7.5129 5.38403 9.14626 5.16903C9.52226 5.12334 9.90293 5.20087 10.2311 5.38998C10.5593 5.57908 10.8173 5.86956 10.9663 6.21778L13.6038 12.1053C13.7202 12.3718 13.7684 12.6632 13.744 12.953C13.7195 13.2428 13.6232 13.522 13.4638 13.7653C13.4477 13.79 13.4302 13.8138 13.4113 13.8365L10.7775 16.969C10.7615 17.0015 10.7532 17.0372 10.7532 17.0734C10.7532 17.1096 10.7615 17.1453 10.7775 17.1778C11.735 19.1378 13.79 21.1778 15.7775 22.134C15.8107 22.1492 15.8469 22.1564 15.8834 22.1551C15.9198 22.1538 15.9555 22.144 15.9875 22.1265L19.0738 19.5015C19.0958 19.4824 19.1192 19.4648 19.1438 19.449C19.3859 19.2876 19.6646 19.1891 19.9544 19.1624C20.2443 19.1358 20.5362 19.1819 20.8038 19.2965L26.7088 21.9428C27.0524 22.0951 27.3378 22.3539 27.5228 22.681C27.7079 23.0081 27.7827 23.3861 27.7363 23.759V23.7553ZM26.25 23.5703C26.2542 23.518 26.2419 23.4658 26.2147 23.4209C26.1876 23.376 26.147 23.3408 26.0988 23.3203L20.1925 20.674C20.1602 20.6616 20.1257 20.6563 20.0911 20.6584C20.0566 20.6606 20.023 20.6702 19.9925 20.6865L16.9075 23.3115C16.885 23.3303 16.8613 23.3478 16.8375 23.364C16.5859 23.5318 16.295 23.6316 15.9934 23.6535C15.6917 23.6754 15.3895 23.6187 15.1163 23.489C12.8213 22.3803 10.5338 20.114 9.42501 17.8403C9.29461 17.5686 9.23656 17.2679 9.25648 16.9672C9.27641 16.6665 9.37364 16.3761 9.53876 16.124C9.55486 16.099 9.57283 16.0751 9.59251 16.0528L12.2238 12.9165C12.2388 12.8838 12.2466 12.8482 12.2466 12.8122C12.2466 12.7761 12.2388 12.7405 12.2238 12.7078L9.59251 6.81903C9.57514 6.77174 9.54388 6.7308 9.50284 6.70158C9.4618 6.67236 9.41289 6.65622 9.36251 6.65528H9.33376C8.06244 6.8244 6.89613 7.45046 6.05263 8.41657C5.20913 9.38267 4.7461 10.6228 4.75001 11.9053C4.75001 20.8653 12.04 28.1553 21 28.1553C22.2827 28.1592 23.523 27.696 24.4891 26.8522C25.4552 26.0084 26.0812 24.8418 26.25 23.5703Z" fill="url(#paint0_linear_7561_93953)"/>
</g>
<defs>
<linearGradient id="paint0_linear_7561_93953" x1="2.63569" y1="24.0275" x2="29.7861" y2="16.5309" gradientUnits="userSpaceOnUse">
<stop stop-color="#FF998F"/>
<stop offset="1" stop-color="#FFF7E8"/>
</linearGradient>
</defs>
</svg>
