<svg width="32" height="33" viewBox="0 0 32 33" fill="none" xmlns="http://www.w3.org/2000/svg">
<g id="UserCircleGear">
<path id="Vector" d="M28.4035 9.00625L27.6635 8.58C27.7753 8.13778 27.7753 7.67472 27.6635 7.2325L28.4035 6.80625C28.5759 6.70679 28.7017 6.54293 28.7533 6.3507C28.8049 6.15848 28.778 5.95364 28.6785 5.78125C28.5791 5.60886 28.4152 5.48304 28.223 5.43147C28.0308 5.37989 27.8259 5.40679 27.6535 5.50625L26.9123 5.935C26.5857 5.61739 26.1854 5.38588 25.7473 5.26125V4.40625C25.7473 4.20734 25.6683 4.01657 25.5276 3.87592C25.387 3.73527 25.1962 3.65625 24.9973 3.65625C24.7984 3.65625 24.6076 3.73527 24.4669 3.87592C24.3263 4.01657 24.2473 4.20734 24.2473 4.40625V5.26125C23.8091 5.38588 23.4088 5.61739 23.0823 5.935L22.341 5.50625C22.1686 5.40679 21.9638 5.37989 21.7716 5.43147C21.5793 5.48304 21.4155 5.60886 21.316 5.78125C21.2166 5.95364 21.1897 6.15848 21.2412 6.3507C21.2928 6.54293 21.4186 6.70679 21.591 6.80625L22.331 7.2325C22.2193 7.67472 22.2193 8.13778 22.331 8.58L21.591 9.00625C21.4186 9.10571 21.2928 9.26957 21.2412 9.4618C21.1897 9.65402 21.2166 9.85886 21.316 10.0312C21.4155 10.2036 21.5793 10.3295 21.7716 10.381C21.9638 10.4326 22.1686 10.4057 22.341 10.3062L23.0823 9.8775C23.4088 10.1951 23.8091 10.4266 24.2473 10.5513V11.4062C24.2473 11.6052 24.3263 11.7959 24.4669 11.9366C24.6076 12.0772 24.7984 12.1562 24.9973 12.1562C25.1962 12.1562 25.387 12.0772 25.5276 11.9366C25.6683 11.7959 25.7473 11.6052 25.7473 11.4062V10.5513C26.1854 10.4266 26.5857 10.1951 26.9123 9.8775L27.6535 10.3062C27.8259 10.4057 28.0308 10.4326 28.223 10.381C28.4152 10.3295 28.5791 10.2036 28.6785 10.0312C28.778 9.85886 28.8049 9.65402 28.7533 9.4618C28.7017 9.26957 28.5759 9.10571 28.4035 9.00625ZM24.9973 9.15625C24.7501 9.15625 24.5084 9.08294 24.3028 8.94559C24.0973 8.80824 23.937 8.61301 23.8424 8.3846C23.7478 8.1562 23.7231 7.90486 23.7713 7.66239C23.8195 7.41991 23.9386 7.19718 24.1134 7.02237C24.2882 6.84755 24.5109 6.7285 24.7534 6.68027C24.9959 6.63204 25.2472 6.65679 25.4756 6.7514C25.704 6.84601 25.8993 7.00623 26.0366 7.21179C26.174 7.41735 26.2473 7.65902 26.2473 7.90625C26.2473 8.23777 26.1156 8.55571 25.8812 8.79013C25.6467 9.02455 25.3288 9.15625 24.9973 9.15625ZM27.7073 14.1663C27.5112 14.1993 27.3363 14.3088 27.221 14.4708C27.1056 14.6328 27.0594 14.8339 27.0923 15.03C27.1953 15.6501 27.2471 16.2776 27.2473 16.9062C27.2494 19.7715 26.1539 22.5287 24.186 24.6112C23.0076 22.7789 21.2462 21.3971 19.186 20.6887C20.2133 20.0045 20.9932 19.0079 21.4103 17.8462C21.8274 16.6845 21.8596 15.4194 21.5022 14.238C21.1447 13.0566 20.4166 12.0216 19.4255 11.2859C18.4344 10.5503 17.2328 10.1531 15.9985 10.1531C14.7642 10.1531 13.5627 10.5503 12.5716 11.2859C11.5804 12.0216 10.8523 13.0566 10.4949 14.238C10.1375 15.4194 10.1697 16.6845 10.5868 17.8462C11.0039 19.0079 11.7837 20.0045 12.811 20.6887C10.7509 21.3971 8.98944 22.7789 7.81103 24.6112C6.30516 23.0133 5.30012 21.0094 4.91993 18.8469C4.53974 16.6843 4.80105 14.4578 5.67161 12.442C6.54217 10.4263 7.98387 8.70956 9.8188 7.50369C11.6537 6.29781 13.8016 5.65558 15.9973 5.65625C16.6255 5.65643 17.2526 5.70827 17.8723 5.81125C17.9702 5.82972 18.0709 5.82847 18.1684 5.80758C18.2658 5.7867 18.3582 5.74659 18.4399 5.68961C18.5217 5.63263 18.5913 5.55992 18.6447 5.47572C18.6981 5.39153 18.7341 5.29754 18.7507 5.19925C18.7673 5.10097 18.7642 5.00035 18.7415 4.9033C18.7188 4.80624 18.6769 4.71469 18.6184 4.63399C18.5599 4.55329 18.4859 4.48506 18.4007 4.43329C18.3155 4.38153 18.2209 4.34726 18.1223 4.3325C16.002 3.97322 13.8253 4.15608 11.7947 4.86407C9.76403 5.57206 7.94548 6.78216 6.50818 8.3818C5.07088 9.98144 4.06154 11.9186 3.57407 14.0132C3.0866 16.1077 3.13684 18.2915 3.7201 20.3614C4.30337 22.4313 5.40072 24.32 6.91005 25.8519C8.41938 27.3838 10.2917 28.509 12.3527 29.1228C14.4137 29.7367 16.5965 29.8193 18.6981 29.3629C20.7996 28.9065 22.7515 27.9259 24.3723 26.5125C24.4535 26.6825 24.5823 26.5125 24.6648 26.2488C26.2158 24.8112 27.385 23.0104 28.0669 21.0086C28.7488 19.0067 28.922 16.8667 28.571 14.7812C28.538 14.5852 28.4284 14.4103 28.2665 14.2949C28.1045 14.1796 27.9034 14.1333 27.7073 14.1663ZM11.7473 15.9062C11.7473 15.0657 11.9965 14.244 12.4635 13.5451C12.9305 12.8462 13.5943 12.3014 14.3709 11.9798C15.1475 11.6581 16.002 11.5739 16.8264 11.7379C17.6508 11.9019 18.4081 12.3067 19.0025 12.901C19.5969 13.4954 20.0016 14.2527 20.1656 15.0771C20.3296 15.9015 20.2454 16.7561 19.9238 17.5327C19.6021 18.3092 19.0574 18.973 18.3585 19.44C17.6595 19.907 16.8378 20.1562 15.9973 20.1562C14.8701 20.1562 13.7891 19.7085 12.9921 18.9115C12.195 18.1144 11.7473 17.0334 11.7473 15.9062ZM8.92728 25.6562C9.66077 24.4366 10.6973 23.4274 11.9362 22.7268C13.175 22.0262 14.574 21.658 15.9973 21.658C17.4205 21.658 18.8195 22.0262 20.0584 22.7268C21.2972 23.4274 22.3338 24.4366 23.0673 25.6562C21.0677 27.2777 18.5716 28.1625 15.9973 28.1625C13.4229 28.1625 10.9268 27.2777 8.92728 25.6562Z" fill="url(#paint0_linear_7561_93964)"/>
</g>
<defs>
<linearGradient id="paint0_linear_7561_93964" x1="2.60188" y1="23.6814" x2="30.9722" y2="15.9868" gradientUnits="userSpaceOnUse">
<stop stop-color="#FF998F"/>
<stop offset="1" stop-color="#FFF7E8"/>
</linearGradient>
</defs>
</svg>
