<svg width="1440" height="680" viewBox="0 0 1440 680" fill="none" xmlns="http://www.w3.org/2000/svg">
<g clip-path="url(#clip0_15081_50233)">
<rect width="1440" height="680" fill="#0C92A4"/>
<g opacity="0.4">
<path opacity="0.2" d="M1069.91 -170.163L1071.04 -169.594C1084.57 -162.77 1095.88 -168.378 1102.14 -180.781L1103.28 -183.036C1110.1 -196.567 1125.37 -201.597 1138.89 -194.772L1141.15 -193.635C1153.55 -187.38 1165.98 -189.595 1172.81 -203.126L1173.38 -204.254C1180.2 -217.784 1192.07 -221.696 1205.6 -214.872L1546.37 -42.9748C1559.9 -36.1506 1563.81 -24.2771 1556.99 -10.7466L1556.42 -9.61899C1549.59 3.91154 1555.2 15.2262 1567.6 21.4816L1569.85 22.619C1583.38 29.4431 1588.41 44.7091 1581.58 58.2397L1580.45 60.4948C1574.19 72.8977 1576.4 85.3302 1589.93 92.1543L1591.06 92.723C1604.59 99.5471 1608.5 111.421 1601.67 124.951L1322.68 678.023C1315.86 691.553 1303.99 695.465 1290.46 688.641L1289.33 688.072C1275.8 681.248 1264.49 686.857 1258.23 699.26L1257.09 701.515C1250.27 715.045 1235 720.075 1221.47 713.251L1219.22 712.114C1206.82 705.858 1194.39 708.074 1187.56 721.605L1186.99 722.732C1180.17 736.263 1168.3 740.175 1154.77 733.351L813.996 561.453C800.468 554.629 796.558 542.756 803.383 529.225L803.952 528.098C810.777 514.567 805.171 503.253 792.77 496.997L790.515 495.86C776.987 489.036 771.96 473.769 778.785 460.239L779.923 457.984C786.179 445.581 783.965 433.148 770.437 426.324L769.31 425.756C755.782 418.932 751.871 407.058 758.697 393.527L1037.69 -159.544C1044.51 -173.075 1056.38 -176.987 1069.91 -170.163Z" fill="white"/>
<path opacity="0.2" fill-rule="evenodd" clip-rule="evenodd" d="M948.945 -556.775L951.164 -555.656C963.554 -549.406 974.459 -549.041 983.531 -552.631C992.701 -556.26 1000.64 -564.186 1006.45 -575.708L1008.69 -580.145C1023.22 -608.944 1055.92 -619.709 1084.72 -605.178L1089.16 -602.939C1100.69 -597.125 1111.78 -595.467 1121.32 -597.995C1130.75 -600.497 1139.3 -607.268 1145.55 -619.653L1146.67 -621.872C1153.77 -635.945 1163.76 -645.511 1175.99 -649.538C1188.22 -653.564 1201.94 -651.807 1216.02 -644.707L1886.86 -306.312C1900.93 -299.211 1910.5 -289.217 1914.53 -276.989C1918.56 -264.761 1916.81 -251.038 1909.71 -236.965L1908.59 -234.746C1902.35 -222.361 1901.98 -211.458 1905.58 -202.387C1909.21 -193.218 1917.14 -185.278 1928.66 -179.464L1933.1 -177.225C1961.91 -162.694 1972.68 -130 1958.16 -101.201L1955.92 -96.7638C1950.11 -85.2412 1948.45 -74.1459 1950.98 -64.6152C1953.49 -55.1854 1960.26 -46.6319 1972.65 -40.3821L1974.87 -39.2626C1988.95 -32.1619 1998.52 -22.168 2002.55 -9.93977C2006.58 2.28851 2004.82 16.0114 1997.72 30.0847L1496.85 1023.02C1489.75 1037.09 1479.76 1046.66 1467.53 1050.68C1455.3 1054.71 1441.58 1052.95 1427.5 1045.85L1425.28 1044.73C1412.89 1038.48 1401.98 1038.12 1392.91 1041.71C1383.74 1045.34 1375.8 1053.26 1369.99 1064.78L1367.75 1069.22C1353.23 1098.02 1320.53 1108.78 1291.72 1094.25L1287.28 1092.02C1275.76 1086.2 1264.66 1084.54 1255.13 1087.07C1245.7 1089.57 1237.14 1096.34 1230.9 1108.73L1229.78 1110.95C1222.68 1125.02 1212.68 1134.59 1200.45 1138.61C1188.23 1142.64 1174.5 1140.88 1160.42 1133.78L489.585 795.388C475.509 788.287 465.939 778.293 461.909 766.065C457.879 753.836 459.633 740.113 466.732 726.04L467.851 723.822C474.098 711.437 474.461 700.534 470.868 691.463C467.237 682.294 459.307 674.354 447.78 668.539L443.342 666.3C414.537 651.77 403.761 619.075 418.288 590.276L420.526 585.839C426.338 574.317 427.994 563.222 425.463 553.691C422.959 544.261 416.184 535.708 403.794 529.458L401.575 528.338C387.498 521.238 377.928 511.243 373.898 499.015C369.868 486.787 371.622 473.064 378.721 458.991L879.591 -533.941C886.69 -548.014 896.684 -557.58 908.914 -561.607C921.143 -565.633 934.868 -563.876 948.945 -556.775ZM946.959 -552.838L949.178 -551.719C975.809 -538.285 998.078 -549.317 1010.39 -573.722L1012.63 -578.159C1026.06 -604.783 1056.1 -614.675 1082.73 -601.241L1087.17 -599.002C1111.59 -586.688 1136.05 -591.044 1149.48 -617.667L1150.6 -619.886C1164.03 -646.509 1187.4 -654.203 1214.03 -640.769L1884.87 -302.375C1911.5 -288.941 1919.2 -265.574 1905.77 -238.951L1904.66 -236.732C1891.23 -210.109 1902.27 -187.841 1926.68 -175.526L1931.12 -173.287C1957.75 -159.854 1967.65 -129.811 1954.22 -103.187L1951.98 -98.7498C1939.67 -74.3449 1944.03 -49.8789 1970.66 -36.445L1972.88 -35.3255C1999.51 -21.8916 2007.22 1.47507 1993.79 28.0987L1492.92 1021.03C1479.49 1047.65 1456.12 1055.35 1429.49 1041.91L1427.27 1040.79C1400.63 1027.36 1378.37 1038.39 1366.05 1062.8L1363.82 1067.23C1350.39 1093.86 1320.34 1103.75 1293.71 1090.32L1289.27 1088.08C1264.86 1075.76 1240.39 1080.12 1226.96 1106.74L1225.84 1108.96C1212.41 1135.58 1189.04 1143.28 1162.41 1129.85L491.572 791.451C464.94 778.017 457.239 754.65 470.669 728.026L471.788 725.808C485.218 699.184 474.179 676.917 449.766 664.602L445.328 662.363C418.696 648.929 408.795 618.886 422.225 592.262L424.463 587.826C436.774 563.421 432.411 538.954 405.78 525.521L403.561 524.401C376.929 510.967 369.228 487.6 382.658 460.977L883.528 -531.955C896.958 -558.578 920.327 -566.272 946.959 -552.838ZM966.007 -474.736L963.981 -475.758C951.061 -482.275 938.422 -483.907 927.135 -480.191C915.848 -476.474 906.652 -467.653 900.136 -454.735L446.623 444.315C440.107 457.233 438.478 469.871 442.197 481.157C445.916 492.443 454.74 501.638 467.66 508.155L469.686 509.177C480.919 514.844 487.02 522.574 489.274 531.062C491.555 539.651 490.071 549.686 484.793 560.149L482.749 564.201C469.388 590.689 479.303 620.775 505.794 634.138L509.848 636.182C520.314 641.462 527.473 648.651 530.745 656.914C533.979 665.079 533.668 674.92 528.004 686.15L526.982 688.176C520.466 701.093 518.836 713.731 522.555 725.018C526.274 736.304 535.098 745.499 548.018 752.016L1160.57 1061.01C1173.49 1067.53 1186.13 1069.16 1197.42 1065.44C1208.71 1061.73 1217.9 1052.91 1224.42 1039.99L1225.44 1037.96C1231.1 1026.73 1238.83 1020.63 1247.32 1018.38C1255.91 1016.1 1265.95 1017.59 1276.42 1022.87L1280.47 1024.91C1306.96 1038.27 1337.05 1028.37 1350.41 1001.88L1352.45 997.828C1357.73 987.365 1364.92 980.208 1373.18 976.938C1381.35 973.706 1391.19 974.018 1402.43 979.685L1404.45 980.707C1417.37 987.224 1430.01 988.856 1441.3 985.139C1452.59 981.423 1461.78 972.601 1468.3 959.684L1921.81 60.6334C1928.33 47.7158 1929.96 35.078 1926.24 23.7918C1922.52 12.5056 1913.69 3.31064 1900.77 -3.20656L1898.75 -4.22879C1887.51 -9.895 1881.41 -17.6255 1879.16 -26.1135C1876.88 -34.7024 1878.36 -44.7371 1883.64 -55.2004L1885.68 -59.2525C1899.04 -85.74 1889.13 -115.826 1862.64 -129.189L1858.59 -131.233C1848.12 -136.513 1840.96 -143.702 1837.69 -151.965C1834.45 -160.13 1834.76 -169.972 1840.43 -181.201L1841.45 -183.227C1847.97 -196.145 1849.6 -208.783 1845.88 -220.069C1842.16 -231.355 1833.33 -240.55 1820.41 -247.067L1207.86 -556.062C1194.94 -562.579 1182.3 -564.211 1171.01 -560.495C1159.73 -556.778 1150.53 -547.956 1144.01 -535.039L1142.99 -533.013C1137.33 -521.783 1129.6 -515.684 1121.11 -513.432C1112.52 -511.153 1102.48 -512.638 1092.02 -517.918L1087.96 -519.962C1061.47 -533.326 1031.38 -523.419 1018.02 -496.931L1015.98 -492.879C1010.7 -482.416 1003.51 -475.259 995.249 -471.989C987.083 -468.757 977.24 -469.07 966.007 -474.736ZM964.021 -470.799L961.995 -471.821C937.677 -484.088 916.337 -477.061 904.073 -452.749L450.56 446.301C438.296 470.614 445.328 491.951 469.646 504.218L471.672 505.24C495.99 517.507 499.972 539.849 488.73 562.135L486.687 566.187C474.423 590.499 483.463 617.934 507.78 630.201L511.834 632.245C534.125 643.49 544.205 663.824 531.941 688.136L530.919 690.162C518.655 714.474 525.686 735.812 550.004 748.079L1162.56 1057.07C1186.88 1069.34 1208.22 1062.31 1220.48 1038L1221.5 1035.98C1233.77 1011.66 1256.11 1007.69 1278.4 1018.93L1282.45 1020.97C1306.77 1033.24 1334.21 1024.21 1346.47 999.894L1348.52 995.842C1359.76 973.556 1380.09 963.481 1404.41 975.747L1406.44 976.77C1430.76 989.036 1452.1 982.01 1464.36 957.698L1917.87 58.6474C1930.14 34.335 1923.1 12.9973 1898.79 0.730552L1896.76 -0.291676C1872.44 -12.5584 1868.46 -34.9002 1879.7 -57.1864L1881.75 -61.2385C1894.01 -85.5508 1884.97 -112.985 1860.65 -125.252L1856.6 -127.296C1834.31 -138.541 1824.23 -158.875 1836.49 -183.187L1837.51 -185.213C1849.78 -209.526 1842.75 -230.863 1818.43 -243.13L1205.87 -552.125C1181.56 -564.392 1160.22 -557.365 1147.95 -533.053L1146.93 -531.027C1134.67 -506.715 1112.32 -502.736 1090.03 -513.981L1085.98 -516.025C1061.66 -528.292 1034.22 -519.258 1021.96 -494.945L1019.92 -490.893C1008.67 -468.607 988.339 -458.532 964.021 -470.799ZM988.928 -412.306L990.754 -411.385C1000.78 -406.327 1009.52 -406.071 1016.75 -408.934C1024.07 -411.835 1030.48 -418.198 1035.2 -427.567L1037.05 -431.221C1049.2 -455.316 1076.58 -464.346 1100.67 -452.196L1104.32 -450.354C1113.68 -445.631 1122.61 -444.328 1130.22 -446.35C1137.73 -448.346 1144.61 -453.752 1149.67 -463.787L1150.59 -465.614C1156.51 -477.336 1164.87 -485.389 1175.18 -488.787C1185.49 -492.187 1197 -490.687 1208.72 -484.777L1760.61 -206.382C1772.33 -200.471 1780.37 -192.105 1783.77 -181.795C1787.16 -171.485 1785.66 -159.971 1779.74 -148.249L1778.82 -146.422C1773.76 -136.386 1773.5 -127.643 1776.36 -120.417C1779.25 -113.094 1785.61 -106.685 1794.97 -101.962L1798.62 -100.12C1822.71 -87.9702 1831.72 -60.5863 1819.56 -36.4914L1817.72 -32.8377C1813 -23.4689 1811.69 -14.5314 1813.71 -6.91799C1815.7 0.593887 1821.1 7.46966 1831.13 12.528L1832.95 13.4489C1844.67 19.3592 1852.71 27.7256 1856.11 38.0361C1859.5 48.3461 1858 59.86 1852.08 71.5818L1433.49 901.414C1427.57 913.136 1419.21 921.188 1408.9 924.587C1398.59 927.986 1387.08 926.487 1375.36 920.577L1373.54 919.656C1363.51 914.598 1354.77 914.342 1347.55 917.205C1340.22 920.106 1333.81 926.469 1329.09 935.838L1327.24 939.492C1315.09 963.586 1287.71 972.616 1263.63 960.466L1259.97 958.624C1250.61 953.902 1241.68 952.599 1234.07 954.622C1226.56 956.617 1219.68 962.023 1214.62 972.058L1213.7 973.885C1207.79 985.607 1199.42 993.66 1189.11 997.058C1178.8 1000.46 1167.29 998.958 1155.58 993.048L603.681 714.652C591.964 708.742 583.918 700.376 580.525 690.065C577.132 679.755 578.636 668.242 584.549 656.52L585.47 654.693C590.533 644.657 590.793 635.914 587.934 628.688C585.038 621.364 578.681 614.956 569.319 610.233L565.667 608.391C541.581 596.241 532.573 568.857 544.727 544.762L546.57 541.109C551.296 531.74 552.603 522.802 550.585 515.189C548.593 507.677 543.194 500.801 533.166 495.743L531.341 494.822C519.624 488.912 511.577 480.545 508.184 470.235C504.792 459.925 506.296 448.411 512.209 436.689L930.806 -393.143C936.719 -404.865 945.084 -412.918 955.392 -416.317C965.701 -419.716 977.212 -418.217 988.928 -412.306ZM986.942 -408.369L988.768 -407.448C1010.68 -396.396 1029 -405.485 1039.14 -425.581L1040.98 -429.235C1052.04 -451.157 1076.77 -459.31 1098.68 -448.258L1102.33 -446.416C1122.41 -436.285 1142.55 -439.879 1153.61 -461.801L1154.53 -463.628C1165.59 -485.551 1184.82 -491.892 1206.73 -480.84L1758.62 -202.445C1780.53 -191.393 1786.86 -172.157 1775.81 -150.235L1774.88 -148.408C1763.83 -126.485 1772.9 -108.156 1792.99 -98.0251L1796.64 -96.1831C1818.55 -85.1311 1826.69 -60.4001 1815.63 -38.4774L1813.78 -34.8237C1803.65 -14.728 1807.23 5.41309 1829.14 16.4651L1830.97 17.3861C1852.87 28.438 1859.2 47.6731 1848.15 69.5958L1429.55 899.428C1418.49 921.351 1399.26 927.692 1377.35 916.64L1375.52 915.719C1353.61 904.667 1335.29 913.756 1325.15 933.852L1323.31 937.506C1312.25 959.428 1287.52 967.581 1265.61 956.529L1261.96 954.687C1241.88 944.556 1221.74 948.15 1210.68 970.072L1209.76 971.899C1198.7 993.822 1179.47 1000.16 1157.56 989.111L605.667 710.715C583.757 699.663 577.427 680.428 588.486 658.506L589.408 656.679C600.466 634.756 591.389 616.427 571.305 606.296L567.653 604.454C545.744 593.402 537.606 568.671 548.664 546.748L550.507 543.095C560.644 522.999 557.062 502.858 535.152 491.806L533.327 490.885C511.417 479.833 505.087 460.598 516.146 438.675L934.743 -391.157C945.801 -413.08 965.033 -419.421 986.942 -408.369ZM1015.16 -358.243L1013.51 -359.077C1002.83 -364.462 992.3 -365.853 982.841 -362.739C973.382 -359.625 965.737 -352.25 960.352 -341.576L574.577 423.19C569.193 433.864 567.805 444.395 570.923 453.853C574.04 463.311 581.418 470.956 592.095 476.341L593.748 477.175C602.738 481.71 607.535 487.844 609.304 494.504C611.1 501.265 609.951 509.241 605.711 517.647L604.044 520.951C592.946 542.951 601.196 567.974 623.201 579.074L626.506 580.742C634.917 584.984 640.583 590.717 643.16 597.221C645.698 603.628 645.488 611.409 640.955 620.395L640.122 622.047C634.738 632.721 633.35 643.252 636.467 652.71C639.585 662.168 646.963 669.813 657.64 675.198L1157.2 927.194C1167.88 932.58 1178.41 933.971 1187.87 930.857C1197.33 927.743 1204.97 920.368 1210.36 909.694L1211.19 908.042C1215.72 899.056 1221.86 894.263 1228.52 892.496C1235.28 890.703 1243.26 891.853 1251.67 896.096L1254.97 897.763C1276.98 908.863 1302.01 900.626 1313.1 878.626L1314.77 875.322C1319.01 866.915 1324.74 861.252 1331.25 858.678C1337.65 856.143 1345.44 856.355 1354.43 860.89L1356.08 861.723C1366.76 867.109 1377.29 868.5 1386.75 865.386C1396.21 862.272 1403.85 854.897 1409.24 844.223L1795.01 79.4569C1800.4 68.7831 1801.79 58.2516 1798.67 48.7936C1795.55 39.3358 1788.17 31.691 1777.5 26.3053L1775.84 25.4716C1766.85 20.9367 1762.06 14.8026 1760.29 8.14238C1758.49 1.38146 1759.64 -6.59388 1763.88 -15.0001L1765.55 -18.3042C1776.64 -40.3046 1768.4 -65.3272 1746.39 -76.4273L1743.09 -78.0946C1734.67 -82.3371 1729.01 -88.0698 1726.43 -94.5743C1723.89 -100.981 1724.1 -108.763 1728.64 -117.748L1729.47 -119.4C1734.85 -130.074 1736.24 -140.605 1733.12 -150.063C1730.01 -159.521 1722.63 -167.166 1711.95 -172.552L1212.39 -424.548C1201.71 -429.933 1191.18 -431.324 1181.72 -428.21C1172.26 -425.096 1164.62 -417.721 1159.23 -407.047L1158.4 -405.395C1153.87 -396.41 1147.73 -391.616 1141.07 -389.85C1134.31 -388.056 1126.33 -389.206 1117.92 -393.449L1114.62 -395.116C1092.61 -406.216 1067.59 -397.979 1056.49 -375.979L1054.82 -372.675C1050.58 -364.269 1044.85 -358.605 1038.34 -356.031C1031.94 -353.496 1024.15 -353.708 1015.16 -358.243ZM1013.18 -354.306L1011.52 -355.14C991.692 -365.143 974.29 -359.415 964.289 -339.59L578.514 425.176C568.514 445 574.249 462.4 594.081 472.404L595.734 473.238C615.566 483.242 618.815 501.46 609.648 519.633L607.981 522.937C597.981 542.762 605.355 565.133 625.187 575.137L628.492 576.804C646.671 585.975 654.893 602.556 644.892 622.381L644.059 624.033C634.059 643.857 639.794 661.257 659.626 671.261L1159.19 923.257C1179.02 933.261 1196.42 927.533 1206.42 907.708L1207.25 906.056C1217.25 886.231 1235.48 882.988 1253.65 892.159L1256.96 893.826C1276.79 903.83 1299.17 896.464 1309.17 876.64L1310.83 873.336C1320 855.163 1336.58 846.949 1356.41 856.953L1358.07 857.786C1377.9 867.79 1395.3 862.061 1405.3 842.237L1791.08 77.4709C1801.08 57.6463 1795.34 40.2464 1775.51 30.2424L1773.86 29.4088C1754.03 19.4048 1750.78 1.1864 1759.94 -16.9861L1761.61 -20.2902C1771.61 -40.1149 1764.24 -62.4863 1744.4 -72.4902L1741.1 -74.1576C1722.92 -83.3278 1714.7 -99.9094 1724.7 -119.734L1725.53 -121.386C1735.53 -141.211 1729.8 -158.611 1709.97 -168.615L1210.41 -420.611C1190.57 -430.614 1173.17 -424.886 1163.17 -405.061L1162.34 -403.409C1152.34 -383.584 1134.12 -380.342 1115.94 -389.512L1112.63 -391.179C1092.8 -401.183 1070.42 -393.818 1060.42 -373.993L1058.76 -370.689C1049.59 -352.516 1033.01 -344.302 1013.18 -354.306ZM1026.59 -301.317L1028.1 -300.556C1036.21 -296.463 1043.2 -296.293 1048.92 -298.562C1054.75 -300.869 1059.92 -305.959 1063.76 -313.575L1065.28 -316.591C1075.5 -336.859 1098.56 -344.467 1118.83 -334.247L1121.84 -332.726C1129.45 -328.888 1136.63 -327.87 1142.68 -329.479C1148.63 -331.061 1154.15 -335.353 1158.24 -343.476L1159 -344.984C1163.95 -354.793 1171 -361.613 1179.75 -364.498C1188.5 -367.383 1198.21 -366.09 1208.02 -361.144L1663.57 -131.348C1673.37 -126.402 1680.19 -119.358 1683.07 -110.606C1685.94 -101.855 1684.65 -92.1364 1679.7 -82.3275L1678.94 -80.8194C1674.84 -72.6966 1674.67 -65.7093 1676.93 -59.9821C1679.24 -54.1583 1684.32 -48.9912 1691.93 -45.1532L1694.94 -43.6327C1715.2 -33.412 1722.79 -10.3443 1712.57 9.92449L1711.05 12.9407C1707.2 20.5559 1706.18 27.738 1707.79 33.7931C1709.37 39.7467 1713.65 45.2612 1721.77 49.3548L1723.28 50.115C1733.08 55.0607 1739.89 62.1055 1742.77 70.8573C1745.65 79.6085 1744.35 89.3267 1739.41 99.1356L1385.99 799.751C1381.04 809.56 1374 816.379 1365.25 819.265C1356.5 822.15 1346.78 820.857 1336.98 815.911L1335.47 815.151C1327.36 811.057 1320.38 810.887 1314.65 813.156C1308.83 815.464 1303.66 820.554 1299.82 828.169L1298.29 831.185C1288.07 851.454 1265.01 859.062 1244.75 848.842L1241.73 847.321C1234.12 843.483 1226.95 842.465 1220.89 844.074C1214.94 845.656 1209.43 849.948 1205.33 858.071L1204.57 859.579C1199.62 869.388 1192.58 876.207 1183.83 879.092C1175.08 881.978 1165.36 880.685 1155.56 875.739L700.005 645.943C690.201 640.997 683.387 633.952 680.507 625.2C677.628 616.449 678.926 606.731 683.874 596.922L684.634 595.414C688.732 587.291 688.905 580.304 686.64 574.577C684.337 568.753 679.253 563.586 671.644 559.748L668.63 558.228C648.368 548.007 640.781 524.939 651.006 504.67L652.527 501.654C656.368 494.039 657.39 486.857 655.785 480.801C654.207 474.848 649.92 469.333 641.805 465.24L640.297 464.48C630.493 459.534 623.679 452.489 620.799 443.737C617.92 434.986 619.218 425.268 624.166 415.459L977.581 -285.156C982.529 -294.965 989.573 -301.785 998.323 -304.67C1007.07 -307.556 1016.79 -306.262 1026.59 -301.317ZM1024.61 -297.379L1026.11 -296.619C1044.2 -287.497 1059.33 -295 1067.69 -311.589L1069.22 -314.605C1078.34 -332.702 1098.75 -339.432 1116.84 -330.31L1119.85 -328.789C1136.43 -320.427 1153.05 -323.393 1162.18 -341.49L1162.94 -342.998C1172.07 -361.095 1187.95 -366.33 1206.03 -357.207L1661.58 -127.411C1679.67 -118.288 1684.89 -102.41 1675.76 -84.3135L1675 -82.8054C1665.87 -64.7086 1673.36 -49.5785 1689.94 -41.216L1692.96 -39.6956C1711.04 -30.573 1717.76 -10.1584 1708.63 7.93848L1707.11 10.9546C1698.74 27.5433 1701.7 44.1693 1719.78 53.2919L1721.29 54.0521C1739.37 63.1748 1744.6 79.0527 1735.47 97.1496L1382.05 797.765C1372.93 815.862 1357.05 821.097 1338.97 811.974L1337.46 811.214C1319.37 802.091 1304.25 809.595 1295.88 826.183L1294.36 829.199C1285.23 847.296 1264.82 854.027 1246.73 844.904L1243.72 843.384C1227.14 835.022 1210.52 837.988 1201.39 856.085L1200.63 857.593C1191.5 875.69 1175.63 880.925 1157.54 871.802L701.991 642.006C683.906 632.883 678.682 617.005 687.811 598.908L688.571 597.4C697.7 579.303 690.208 564.173 673.63 555.811L670.616 554.29C652.531 545.168 645.814 524.753 654.943 506.656L656.464 503.64C664.832 487.051 661.875 470.425 643.791 461.303L642.283 460.543C624.199 451.42 618.974 435.542 628.103 417.445L981.518 -283.17C990.647 -301.267 1006.52 -306.502 1024.61 -297.379ZM669.987 405.381L669.962 405.431C665.41 414.455 664.199 423.438 666.871 431.551C669.544 439.664 675.857 446.168 684.881 450.72L686.258 451.415C693.595 455.116 697.43 460.075 698.841 465.39C700.279 470.807 699.376 477.269 695.898 484.163L694.509 486.918C685.075 505.618 692.092 526.917 710.793 536.35L713.547 537.74C720.442 541.218 725.009 545.878 727.072 551.089C729.096 556.202 728.96 562.469 725.259 569.806L724.564 571.183C720.012 580.207 718.801 589.189 721.473 597.302C724.146 605.416 730.458 611.92 739.483 616.472L1155.78 826.469C1164.81 831.021 1173.79 832.232 1181.9 829.56C1190.02 826.887 1196.52 820.575 1201.07 811.551L1201.77 810.174C1205.47 802.837 1210.43 799.003 1215.74 797.592C1221.16 796.154 1227.62 797.057 1234.52 800.535L1237.27 801.925C1255.97 811.358 1277.27 804.343 1286.7 785.642L1288.09 782.888C1291.57 775.993 1296.23 771.427 1301.44 769.364C1306.56 767.34 1312.82 767.476 1320.16 771.177L1321.54 771.872C1330.56 776.424 1339.54 777.636 1347.66 774.963C1355.75 772.296 1362.25 766.002 1366.8 757.006L1710.39 116.969L1710.41 116.919L1710.44 116.869C1714.99 107.845 1716.2 98.8625 1713.53 90.7494C1710.86 82.6363 1704.54 76.1323 1695.52 71.5801L1694.14 70.8854C1686.8 67.1843 1682.97 62.2255 1681.56 56.9101C1680.12 51.4936 1681.02 45.032 1684.5 38.1371L1685.89 35.3829C1695.32 16.6822 1688.31 -4.61668 1669.61 -14.0501L1666.85 -15.4395C1659.96 -18.9177 1655.39 -23.5778 1653.33 -28.7884C1651.3 -33.9019 1651.44 -40.1685 1655.14 -47.5052L1655.84 -48.8824C1660.39 -57.9066 1661.6 -66.8891 1658.93 -75.0021C1656.25 -83.1151 1649.94 -89.6192 1640.92 -94.1715L1224.62 -304.168C1215.59 -308.72 1206.61 -309.932 1198.5 -307.259C1190.38 -304.587 1183.88 -298.275 1179.33 -289.25L1178.63 -287.873C1174.93 -280.536 1169.97 -276.702 1164.66 -275.291C1159.24 -273.854 1152.78 -274.757 1145.88 -278.235L1143.13 -279.624C1124.43 -289.058 1103.13 -282.042 1093.7 -263.341L1092.31 -260.587C1088.83 -253.692 1084.17 -249.126 1078.96 -247.063C1073.84 -245.039 1067.58 -245.176 1060.24 -248.877L1058.86 -249.571C1049.84 -254.124 1040.86 -255.335 1032.74 -252.663C1024.65 -249.996 1018.15 -243.702 1013.6 -234.706L670.014 405.332L669.987 405.381ZM1017.51 -232.668L673.899 407.417C665.563 423.943 670.341 438.447 686.867 446.783L688.244 447.478C704.771 455.815 707.477 471 699.835 486.149L698.446 488.904C690.109 505.43 696.252 524.077 712.779 532.413L715.533 533.803C730.683 541.445 737.532 555.266 729.196 571.792L728.501 573.169C720.165 589.695 724.942 604.198 741.469 612.535L1157.77 822.531C1174.3 830.868 1188.8 826.091 1197.14 809.565L1197.83 808.188C1206.17 791.662 1221.35 788.956 1236.5 796.598L1239.26 797.988C1255.78 806.324 1274.43 800.182 1282.77 783.656L1284.16 780.902C1291.8 765.753 1305.62 758.904 1322.15 767.24L1323.52 767.935C1340.05 776.271 1354.55 771.494 1362.89 754.968L1706.5 114.883C1714.84 98.357 1710.06 83.8538 1693.53 75.5172L1692.16 74.8225C1675.63 66.4858 1672.92 51.3001 1680.56 36.1512L1681.95 33.3969C1690.29 16.8707 1684.15 -1.77634 1667.62 -10.113L1664.87 -11.5024C1649.72 -19.1443 1642.87 -32.9651 1651.2 -49.4912L1651.9 -50.8684C1660.24 -67.3945 1655.46 -81.8977 1638.93 -90.2344L1222.63 -300.231C1206.1 -308.568 1191.6 -303.79 1183.26 -287.264L1182.57 -285.887C1174.23 -269.361 1159.05 -266.656 1143.9 -274.298L1141.14 -275.687C1124.62 -284.024 1105.97 -277.882 1097.63 -261.355L1096.24 -258.601C1088.6 -243.452 1074.78 -236.603 1058.25 -244.94L1056.88 -245.634C1040.35 -253.971 1025.85 -249.194 1017.51 -232.668ZM1058.24 -209.513L1056.99 -210.139C1048.78 -214.281 1040.57 -215.404 1033.12 -212.95C1025.67 -210.495 1019.73 -204.707 1015.58 -196.496L714.538 400.3C710.397 408.51 709.273 416.729 711.726 424.179C714.18 431.629 719.967 437.57 728.177 441.712L729.419 442.338C735.941 445.628 739.301 450.007 740.536 454.66C741.798 459.414 741.016 465.129 737.914 471.278L736.662 473.761C728.049 490.834 734.458 510.297 751.531 518.909L754.014 520.161C760.162 523.263 764.186 527.394 765.996 531.967C767.768 536.443 767.668 541.962 764.377 548.486L763.751 549.727C759.609 557.938 758.485 566.157 760.938 573.606C763.392 581.056 769.18 586.998 777.39 591.14L1152.65 780.436C1160.86 784.578 1169.08 785.701 1176.53 783.247C1183.98 780.793 1189.92 775.004 1194.07 766.793L1194.69 765.552C1197.98 759.029 1202.36 755.667 1207.01 754.432C1211.77 753.17 1217.48 753.951 1223.63 757.052L1226.11 758.305C1243.19 766.917 1262.65 760.504 1271.26 743.431L1272.51 740.948C1275.61 734.799 1279.75 730.774 1284.32 728.963C1288.79 727.191 1294.31 727.291 1300.84 730.581L1302.08 731.207C1310.29 735.348 1318.5 736.472 1325.95 734.017C1333.4 731.563 1339.35 725.775 1343.49 717.564L1644.53 120.768C1648.67 112.557 1649.8 104.339 1647.34 96.8889C1644.89 89.4389 1639.1 83.4973 1630.89 79.3558L1629.65 78.7296C1623.13 75.4395 1619.77 71.0602 1618.53 66.4078C1617.27 61.6541 1618.05 55.9391 1621.16 49.7899L1622.41 47.3067C1631.02 30.2333 1624.61 10.7706 1607.54 2.15865L1605.06 0.906173C1598.91 -2.19525 1594.88 -6.32658 1593.07 -10.8994C1591.3 -15.375 1591.4 -20.8947 1594.69 -27.4182L1595.32 -28.6598C1599.46 -36.8705 1600.59 -45.0889 1598.13 -52.5389C1595.68 -59.9888 1589.89 -65.9305 1581.68 -70.072L1206.42 -259.369C1198.21 -263.51 1189.99 -264.634 1182.54 -262.179C1175.09 -259.725 1169.15 -253.937 1165.01 -245.726L1164.38 -244.484C1161.09 -237.961 1156.71 -234.6 1152.06 -233.365C1147.3 -232.102 1141.59 -232.883 1135.44 -235.985L1132.96 -237.237C1115.89 -245.849 1096.42 -239.437 1087.81 -222.363L1086.56 -219.88C1083.46 -213.731 1079.33 -209.706 1074.75 -207.895C1070.28 -206.123 1064.76 -206.223 1058.24 -209.513ZM1056.25 -205.576L1055.01 -206.202C1040.11 -213.717 1027.04 -209.41 1019.52 -194.51L718.476 402.286C710.96 417.185 715.266 430.26 730.163 437.775L731.405 438.401C746.302 445.916 748.741 459.606 741.851 473.264L740.599 475.747C733.083 490.646 738.619 507.457 753.517 514.972L756 516.224C769.656 523.113 775.83 535.573 768.314 550.472L767.688 551.713C760.172 566.613 764.478 579.688 779.376 587.202L1154.64 776.499C1169.54 784.014 1182.61 779.707 1190.13 764.807L1190.75 763.566C1198.27 748.667 1211.96 746.227 1225.62 753.115L1228.1 754.368C1243 761.883 1259.81 756.344 1267.32 741.445L1268.57 738.962C1275.46 725.304 1287.92 719.129 1302.82 726.644L1304.06 727.27C1318.96 734.785 1332.03 730.477 1339.55 715.578L1640.6 118.782C1648.11 103.883 1643.81 90.8078 1628.91 83.293L1627.67 82.6667C1612.77 75.1518 1610.33 61.4615 1617.22 47.8039L1618.47 45.3206C1625.99 30.4213 1620.45 13.6106 1605.55 6.09577L1603.07 4.84329C1589.41 -2.04533 1583.24 -14.5048 1590.76 -29.4042L1591.38 -30.6458C1598.9 -45.5451 1594.59 -58.62 1579.7 -66.1349L1204.43 -255.432C1189.53 -262.947 1176.46 -258.639 1168.94 -243.74L1168.32 -242.498C1160.8 -227.599 1147.11 -225.159 1133.46 -232.048L1130.97 -233.3C1116.07 -240.815 1099.26 -235.277 1091.75 -220.377L1090.5 -217.894C1083.61 -204.237 1071.15 -198.061 1056.25 -205.576Z" fill="url(#paint0_radial_15081_50233)"/>
</g>
<g opacity="0.05">
<rect x="-93.8037" y="-80.0312" width="166.998" height="156.048" rx="78.0238" fill="#F8F6F3"/>
<rect x="100.571" y="-80.0312" width="166.998" height="156.048" rx="78.0238" fill="#F8F6F3"/>
<rect x="-93.8037" y="103.395" width="166.998" height="156.048" rx="78.0238" fill="#F8F6F3"/>
<rect x="100.571" y="103.395" width="166.998" height="156.048" rx="78.0238" fill="#F8F6F3"/>
<rect x="-93.8037" y="286.816" width="166.998" height="156.048" rx="78.0238" fill="#F8F6F3"/>
<rect x="100.571" y="286.816" width="166.998" height="156.048" rx="78.0238" fill="#F8F6F3"/>
</g>
</g>
<defs>
<radialGradient id="paint0_radial_15081_50233" cx="0" cy="0" r="1" gradientUnits="userSpaceOnUse" gradientTransform="translate(1188.22 244.538) rotate(115.964) scale(806.52 626.129)">
<stop stop-color="white"/>
<stop offset="1" stop-color="white" stop-opacity="0.08"/>
</radialGradient>
<clipPath id="clip0_15081_50233">
<rect width="1440" height="680" fill="white"/>
</clipPath>
</defs>
</svg>
