<svg width="55" height="55" viewBox="0 0 55 55" fill="none" xmlns="http://www.w3.org/2000/svg">
<rect x="1" width="54" height="54" rx="8" fill="#13A6BD"/>
<path d="M21.75 17C21.75 17.3461 21.6474 17.6845 21.4551 17.9722C21.2628 18.26 20.9895 18.4843 20.6697 18.6168C20.3499 18.7492 19.9981 18.7839 19.6586 18.7164C19.3191 18.6489 19.0073 18.4822 18.7626 18.2374C18.5178 17.9927 18.3512 17.6809 18.2836 17.3414C18.2161 17.0019 18.2508 16.6501 18.3832 16.3303C18.5157 16.0105 18.74 15.7372 19.0278 15.5449C19.3155 15.3526 19.6539 15.25 20 15.25C20.4641 15.25 20.9092 15.4344 21.2374 15.7626C21.5656 16.0908 21.75 16.5359 21.75 17ZM28 15.25C27.6539 15.25 27.3155 15.3526 27.0278 15.5449C26.74 15.7372 26.5157 16.0105 26.3832 16.3303C26.2508 16.6501 26.2161 17.0019 26.2836 17.3414C26.3512 17.6809 26.5178 17.9927 26.7626 18.2374C27.0073 18.4822 27.3191 18.6489 27.6586 18.7164C27.9981 18.7839 28.3499 18.7492 28.6697 18.6168C28.9895 18.4843 29.2628 18.26 29.4551 17.9722C29.6474 17.6845 29.75 17.3461 29.75 17C29.75 16.5359 29.5656 16.0908 29.2374 15.7626C28.9092 15.4344 28.4641 15.25 28 15.25ZM36 18.75C36.3461 18.75 36.6845 18.6474 36.9722 18.4551C37.26 18.2628 37.4843 17.9895 37.6168 17.6697C37.7492 17.3499 37.7839 16.9981 37.7164 16.6586C37.6488 16.3191 37.4822 16.0073 37.2374 15.7626C36.9927 15.5178 36.6809 15.3512 36.3414 15.2836C36.0019 15.2161 35.6501 15.2508 35.3303 15.3832C35.0105 15.5157 34.7372 15.74 34.5449 16.0278C34.3526 16.3155 34.25 16.6539 34.25 17C34.25 17.4641 34.4344 17.9092 34.7626 18.2374C35.0908 18.5656 35.5359 18.75 36 18.75ZM20 22.25C19.6539 22.25 19.3155 22.3526 19.0278 22.5449C18.74 22.7372 18.5157 23.0105 18.3832 23.3303C18.2508 23.6501 18.2161 24.0019 18.2836 24.3414C18.3512 24.6809 18.5178 24.9927 18.7626 25.2374C19.0073 25.4822 19.3191 25.6489 19.6586 25.7164C19.9981 25.7839 20.3499 25.7492 20.6697 25.6168C20.9895 25.4843 21.2628 25.26 21.4551 24.9722C21.6474 24.6845 21.75 24.3461 21.75 24C21.75 23.5359 21.5656 23.0908 21.2374 22.7626C20.9092 22.4344 20.4641 22.25 20 22.25ZM28 22.25C27.6539 22.25 27.3155 22.3526 27.0278 22.5449C26.74 22.7372 26.5157 23.0105 26.3832 23.3303C26.2508 23.6501 26.2161 24.0019 26.2836 24.3414C26.3512 24.6809 26.5178 24.9927 26.7626 25.2374C27.0073 25.4822 27.3191 25.6489 27.6586 25.7164C27.9981 25.7839 28.3499 25.7492 28.6697 25.6168C28.9895 25.4843 29.2628 25.26 29.4551 24.9722C29.6474 24.6845 29.75 24.3461 29.75 24C29.75 23.5359 29.5656 23.0908 29.2374 22.7626C28.9092 22.4344 28.4641 22.25 28 22.25ZM36 22.25C35.6539 22.25 35.3155 22.3526 35.0278 22.5449C34.74 22.7372 34.5157 23.0105 34.3832 23.3303C34.2508 23.6501 34.2161 24.0019 34.2836 24.3414C34.3512 24.6809 34.5178 24.9927 34.7626 25.2374C35.0073 25.4822 35.3191 25.6489 35.6586 25.7164C35.9981 25.7839 36.3499 25.7492 36.6697 25.6168C36.9895 25.4843 37.2628 25.26 37.4551 24.9722C37.6474 24.6845 37.75 24.3461 37.75 24C37.75 23.5359 37.5656 23.0908 37.2374 22.7626C36.9092 22.4344 36.4641 22.25 36 22.25ZM20 29.25C19.6539 29.25 19.3155 29.3526 19.0278 29.5449C18.74 29.7372 18.5157 30.0105 18.3832 30.3303C18.2508 30.6501 18.2161 31.0019 18.2836 31.3414C18.3512 31.6809 18.5178 31.9927 18.7626 32.2374C19.0073 32.4822 19.3191 32.6488 19.6586 32.7164C19.9981 32.7839 20.3499 32.7492 20.6697 32.6168C20.9895 32.4843 21.2628 32.26 21.4551 31.9722C21.6474 31.6845 21.75 31.3461 21.75 31C21.75 30.5359 21.5656 30.0908 21.2374 29.7626C20.9092 29.4344 20.4641 29.25 20 29.25ZM28 29.25C27.6539 29.25 27.3155 29.3526 27.0278 29.5449C26.74 29.7372 26.5157 30.0105 26.3832 30.3303C26.2508 30.6501 26.2161 31.0019 26.2836 31.3414C26.3512 31.6809 26.5178 31.9927 26.7626 32.2374C27.0073 32.4822 27.3191 32.6488 27.6586 32.7164C27.9981 32.7839 28.3499 32.7492 28.6697 32.6168C28.9895 32.4843 29.2628 32.26 29.4551 31.9722C29.6474 31.6845 29.75 31.3461 29.75 31C29.75 30.5359 29.5656 30.0908 29.2374 29.7626C28.9092 29.4344 28.4641 29.25 28 29.25ZM28 36.25C27.6539 36.25 27.3155 36.3526 27.0278 36.5449C26.74 36.7372 26.5157 37.0105 26.3832 37.3303C26.2508 37.6501 26.2161 38.0019 26.2836 38.3414C26.3512 38.6809 26.5178 38.9927 26.7626 39.2374C27.0073 39.4822 27.3191 39.6488 27.6586 39.7164C27.9981 39.7839 28.3499 39.7492 28.6697 39.6168C28.9895 39.4843 29.2628 39.26 29.4551 38.9722C29.6474 38.6845 29.75 38.3461 29.75 38C29.75 37.5359 29.5656 37.0908 29.2374 36.7626C28.9092 36.4344 28.4641 36.25 28 36.25ZM36 29.25C35.6539 29.25 35.3155 29.3526 35.0278 29.5449C34.74 29.7372 34.5157 30.0105 34.3832 30.3303C34.2508 30.6501 34.2161 31.0019 34.2836 31.3414C34.3512 31.6809 34.5178 31.9927 34.7626 32.2374C35.0073 32.4822 35.3191 32.6488 35.6586 32.7164C35.9981 32.7839 36.3499 32.7492 36.6697 32.6168C36.9895 32.4843 37.2628 32.26 37.4551 31.9722C37.6474 31.6845 37.75 31.3461 37.75 31C37.75 30.5359 37.5656 30.0908 37.2374 29.7626C36.9092 29.4344 36.4641 29.25 36 29.25Z" fill="white"/>
</svg>
