<svg width="54" height="54" viewBox="0 0 54 54" fill="none" xmlns="http://www.w3.org/2000/svg">
<rect width="54" height="54" rx="8" fill="#13A6BD"/>
<path d="M40 17.25H31C30.2027 17.2506 29.4184 17.4518 28.7194 17.8352C28.0204 18.2186 27.4291 18.7718 27 19.4438C26.5709 18.7718 25.9796 18.2186 25.2806 17.8352C24.5816 17.4518 23.7973 17.2506 23 17.25H14C13.8011 17.25 13.6103 17.329 13.4697 17.4697C13.329 17.6103 13.25 17.8011 13.25 18V36C13.25 36.1989 13.329 36.3897 13.4697 36.5303C13.6103 36.671 13.8011 36.75 14 36.75H23C23.862 36.75 24.6886 37.0924 25.2981 37.7019C25.9076 38.3114 26.25 39.138 26.25 40C26.25 40.1989 26.329 40.3897 26.4697 40.5303C26.6103 40.671 26.8011 40.75 27 40.75C27.1989 40.75 27.3897 40.671 27.5303 40.5303C27.671 40.3897 27.75 40.1989 27.75 40C27.75 39.138 28.0924 38.3114 28.7019 37.7019C29.3114 37.0924 30.138 36.75 31 36.75H40C40.1989 36.75 40.3897 36.671 40.5303 36.5303C40.671 36.3897 40.75 36.1989 40.75 36V18C40.75 17.8011 40.671 17.6103 40.5303 17.4697C40.3897 17.329 40.1989 17.25 40 17.25ZM23 35.25H14.75V18.75H23C23.862 18.75 24.6886 19.0924 25.2981 19.7019C25.9076 20.3114 26.25 21.138 26.25 22V36.5387C25.3709 35.7101 24.2081 35.249 23 35.25ZM39.25 35.25H31C29.7917 35.2495 28.629 35.711 27.75 36.54V22C27.75 21.138 28.0924 20.3114 28.7019 19.7019C29.3114 19.0924 30.138 18.75 31 18.75H39.25V35.25ZM31 22.25H36C36.1989 22.25 36.3897 22.329 36.5303 22.4697C36.671 22.6103 36.75 22.8011 36.75 23C36.75 23.1989 36.671 23.3897 36.5303 23.5303C36.3897 23.671 36.1989 23.75 36 23.75H31C30.8011 23.75 30.6103 23.671 30.4697 23.5303C30.329 23.3897 30.25 23.1989 30.25 23C30.25 22.8011 30.329 22.6103 30.4697 22.4697C30.6103 22.329 30.8011 22.25 31 22.25ZM36.75 27C36.75 27.1989 36.671 27.3897 36.5303 27.5303C36.3897 27.671 36.1989 27.75 36 27.75H31C30.8011 27.75 30.6103 27.671 30.4697 27.5303C30.329 27.3897 30.25 27.1989 30.25 27C30.25 26.8011 30.329 26.6103 30.4697 26.4697C30.6103 26.329 30.8011 26.25 31 26.25H36C36.1989 26.25 36.3897 26.329 36.5303 26.4697C36.671 26.6103 36.75 26.8011 36.75 27ZM36.75 31C36.75 31.1989 36.671 31.3897 36.5303 31.5303C36.3897 31.671 36.1989 31.75 36 31.75H31C30.8011 31.75 30.6103 31.671 30.4697 31.5303C30.329 31.3897 30.25 31.1989 30.25 31C30.25 30.8011 30.329 30.6103 30.4697 30.4697C30.6103 30.329 30.8011 30.25 31 30.25H36C36.1989 30.25 36.3897 30.329 36.5303 30.4697C36.671 30.6103 36.75 30.8011 36.75 31Z" fill="white"/>
</svg>
