<svg width="54" height="54" viewBox="0 0 54 54" fill="none" xmlns="http://www.w3.org/2000/svg">
<rect width="54" height="54" rx="8" fill="#13A6BD"/>
<path d="M39.4035 19.1L38.6635 18.6737C38.7753 18.2315 38.7753 17.7685 38.6635 17.3263L39.4035 16.9C39.5759 16.8005 39.7017 16.6367 39.7533 16.4445C39.8049 16.2522 39.778 16.0474 39.6785 15.875C39.5791 15.7026 39.4152 15.5768 39.223 15.5252C39.0308 15.4736 38.8259 15.5005 38.6535 15.6L37.9123 16.0287C37.5857 15.7111 37.1854 15.4796 36.7473 15.355V14.5C36.7473 14.3011 36.6683 14.1103 36.5276 13.9697C36.387 13.829 36.1962 13.75 35.9973 13.75C35.7984 13.75 35.6076 13.829 35.4669 13.9697C35.3263 14.1103 35.2473 14.3011 35.2473 14.5V15.355C34.8091 15.4796 34.4088 15.7111 34.0823 16.0287L33.341 15.6C33.1686 15.5005 32.9638 15.4736 32.7716 15.5252C32.5793 15.5768 32.4155 15.7026 32.316 15.875C32.2166 16.0474 32.1897 16.2522 32.2412 16.4445C32.2928 16.6367 32.4186 16.8005 32.591 16.9L33.331 17.3263C33.2193 17.7685 33.2193 18.2315 33.331 18.6737L32.591 19.1C32.4186 19.1995 32.2928 19.3633 32.2412 19.5555C32.1897 19.7478 32.2166 19.9526 32.316 20.125C32.4155 20.2974 32.5793 20.4232 32.7716 20.4748C32.9638 20.5264 33.1686 20.4995 33.341 20.4L34.0823 19.9712C34.4088 20.2889 34.8091 20.5204 35.2473 20.645V21.5C35.2473 21.6989 35.3263 21.8897 35.4669 22.0303C35.6076 22.171 35.7984 22.25 35.9973 22.25C36.1962 22.25 36.387 22.171 36.5276 22.0303C36.6683 21.8897 36.7473 21.6989 36.7473 21.5V20.645C37.1854 20.5204 37.5857 20.2889 37.9123 19.9712L38.6535 20.4C38.8259 20.4995 39.0308 20.5264 39.223 20.4748C39.4152 20.4232 39.5791 20.2974 39.6785 20.125C39.778 19.9526 39.8049 19.7478 39.7533 19.5555C39.7017 19.3633 39.5759 19.1995 39.4035 19.1ZM35.9973 19.25C35.7501 19.25 35.5084 19.1767 35.3028 19.0393C35.0973 18.902 34.937 18.7068 34.8424 18.4784C34.7478 18.2499 34.7231 17.9986 34.7713 17.7561C34.8195 17.5137 34.9386 17.2909 35.1134 17.1161C35.2882 16.9413 35.5109 16.8222 35.7534 16.774C35.9959 16.7258 36.2472 16.7505 36.4756 16.8452C36.704 16.9398 36.8993 17.1 37.0366 17.3055C37.174 17.5111 37.2473 17.7528 37.2473 18C37.2473 18.3315 37.1156 18.6495 36.8812 18.8839C36.6467 19.1183 36.3288 19.25 35.9973 19.25ZM38.7073 24.26C38.5112 24.293 38.3363 24.4026 38.221 24.5646C38.1056 24.7265 38.0594 24.9277 38.0923 25.1237C38.1953 25.7439 38.2471 26.3714 38.2473 27C38.2494 29.8652 37.1539 32.6225 35.186 34.705C34.0076 32.8727 32.2462 31.4908 30.186 30.7825C31.2133 30.0983 31.9932 29.1016 32.4103 27.9399C32.8274 26.7783 32.8596 25.5132 32.5022 24.3318C32.1447 23.1504 31.4166 22.1153 30.4255 21.3797C29.4344 20.644 28.2328 20.2469 26.9985 20.2469C25.7642 20.2469 24.5627 20.644 23.5716 21.3797C22.5804 22.1153 21.8523 23.1504 21.4949 24.3318C21.1375 25.5132 21.1697 26.7783 21.5868 27.9399C22.0039 29.1016 22.7837 30.0983 23.811 30.7825C21.7509 31.4908 19.9894 32.8727 18.811 34.705C17.3052 33.107 16.3001 31.1031 15.9199 28.9406C15.5397 26.7781 15.8011 24.5515 16.6716 22.5358C17.5422 20.5201 18.9839 18.8033 20.8188 17.5974C22.6537 16.3916 24.8016 15.7493 26.9973 15.75C27.6255 15.7502 28.2526 15.802 28.8723 15.905C28.9702 15.9235 29.0709 15.9222 29.1684 15.9013C29.2658 15.8804 29.3582 15.8403 29.4399 15.7834C29.5217 15.7264 29.5913 15.6537 29.6447 15.5695C29.6981 15.4853 29.7341 15.3913 29.7507 15.293C29.7673 15.1947 29.7642 15.0941 29.7415 14.997C29.7188 14.9 29.6769 14.8084 29.6184 14.7277C29.5599 14.647 29.4859 14.5788 29.4007 14.527C29.3155 14.4753 29.2209 14.441 29.1223 14.4262C27.002 14.067 24.8253 14.2498 22.7947 14.9578C20.764 15.6658 18.9455 16.8759 17.5082 18.4756C16.0709 20.0752 15.0615 22.0124 14.5741 24.1069C14.0866 26.2015 14.1368 28.3853 14.7201 30.4552C15.3034 32.5251 16.4007 34.4138 17.9101 35.9457C19.4194 37.4775 21.2917 38.6027 23.3527 39.2166C25.4137 39.8304 27.5965 39.913 29.6981 39.4566C31.7996 39.0002 33.7515 38.0197 35.3723 36.6063C35.4535 36.7763 35.5823 36.6063 35.6648 36.3425C37.2158 34.905 38.385 33.1042 39.0669 31.1023C39.7488 29.1005 39.922 26.9605 39.571 24.875C39.538 24.6789 39.4284 24.504 39.2665 24.3887C39.1045 24.2734 38.9034 24.2271 38.7073 24.26ZM22.7473 26C22.7473 25.1594 22.9965 24.3377 23.4635 23.6388C23.9305 22.9399 24.5943 22.3952 25.3709 22.0735C26.1475 21.7518 27.002 21.6677 27.8264 21.8317C28.6508 21.9956 29.4081 22.4004 30.0025 22.9948C30.5969 23.5892 31.0016 24.3464 31.1656 25.1709C31.3296 25.9953 31.2454 26.8498 30.9238 27.6264C30.6021 28.403 30.0574 29.0668 29.3585 29.5337C28.6595 30.0007 27.8378 30.25 26.9973 30.25C25.8701 30.25 24.7891 29.8022 23.9921 29.0052C23.195 28.2082 22.7473 27.1272 22.7473 26ZM19.9273 35.75C20.6608 34.5303 21.6973 33.5212 22.9362 32.8206C24.175 32.12 25.574 31.7518 26.9973 31.7518C28.4205 31.7518 29.8195 32.12 31.0584 32.8206C32.2972 33.5212 33.3338 34.5303 34.0673 35.75C32.0677 37.3714 29.5716 38.2563 26.9973 38.2563C24.4229 38.2563 21.9268 37.3714 19.9273 35.75Z" fill="white"/>
</svg>
