<svg width="74" height="48" viewBox="0 0 74 48" fill="none" xmlns="http://www.w3.org/2000/svg">
<path d="M41.8163 18.9124C39.4937 18.9124 37.4805 20.5146 36.8604 22.4384H45.3778C45.3778 20.3552 43.9848 18.9124 41.8163 18.9124Z" fill="#FF073C"/>
<path d="M36.5493 0C16.4162 0 0 8.65437 0 21.6345C0 29.9673 6.81372 37.3396 17.035 41.5059L15.9514 47.5962C45.841 50.1603 73.2527 40.3847 73.2527 21.9547C73.0973 6.41038 52.9655 0 36.5493 0Z" fill="#FF073C"/>
<path d="M40.0531 34.2556C44.2348 34.2556 47.641 32.1724 49.1907 28.3262H44.0794C43.1498 29.6083 42.0662 30.2486 40.3625 30.2486C38.1939 30.2486 36.4901 28.6464 36.3361 26.5632H49.6542C51.6673 20.1528 48.4152 15.1853 41.9109 15.1853C36.6455 15.1853 32.9286 18.2304 31.999 23.3587C30.9168 29.6083 34.3229 34.2556 40.0531 34.2556ZM41.9122 19.1909C44.2348 19.1909 45.6292 20.6338 45.6292 22.717H37.1117C37.5751 20.7946 39.4343 19.1909 41.9122 19.1909Z" fill="#F8F6F3"/>
<path d="M27.9744 34.257H29.2134L30.1429 29.6097H29.0593C27.3556 29.6097 26.5814 28.3276 26.8908 26.4052L28.1298 19.6747H32.0021L32.9317 15.0273H29.058L29.8322 10.5408H24.8762L21.9335 26.2458C21.1607 30.8918 23.0184 34.257 27.9744 34.257Z" fill="#F8F6F3"/>
<path d="M57.555 34.2558H58.9494L59.8789 29.6084H58.7953C57.0916 29.6084 56.162 28.3263 56.6268 26.4039L59.5695 10.5381H54.6136L51.6709 26.2431C50.7399 31.2107 52.9085 34.2558 57.555 34.2558Z" fill="#F8F6F3"/>
<path d="M23.0177 10.6997H18.0618L17.2876 15.3471H22.0881L23.0177 10.6997Z" fill="#F8F6F3"/>
<path d="M21.7789 17.2661H16.823L13.5708 34.2533H18.5267L21.7789 17.2661Z" fill="#F8F6F3"/>
</svg>
