<svg xmlns="http://www.w3.org/2000/svg" xmlns:xlink="http://www.w3.org/1999/xlink" width="100" zoomAndPan="magnify" viewBox="0 0 75 74.999997" height="100" preserveAspectRatio="xMidYMid meet" version="1.0"><defs><clipPath id="422e35ead4"><path d="M 2.714844 14 L 72.464844 14 L 72.464844 61 L 2.714844 61 Z M 2.714844 14 " clip-rule="nonzero"/></clipPath></defs><rect x="-7.5" width="90" fill="#ffffff" y="-7.5" height="89.999996" fill-opacity="1"/><rect x="-7.5" width="90" fill="#ffffff" y="-7.5" height="89.999996" fill-opacity="1"/><path fill="#ff073c" d="M 42.53125 32.753906 C 40.320312 32.753906 38.402344 34.28125 37.8125 36.117188 L 45.921875 36.117188 C 45.921875 34.132812 44.597656 32.753906 42.53125 32.753906 Z M 42.53125 32.753906 " fill-opacity="1" fill-rule="nonzero"/><g clip-path="url(#422e35ead4)"><path fill="#ff073c" d="M 37.515625 14.710938 C 18.347656 14.710938 2.714844 22.96875 2.714844 35.351562 C 2.714844 43.300781 9.203125 50.335938 18.9375 54.3125 L 17.902344 60.121094 C 46.363281 62.566406 72.464844 53.242188 72.464844 35.65625 C 72.316406 20.824219 53.148438 14.710938 37.515625 14.710938 Z M 37.515625 14.710938 " fill-opacity="1" fill-rule="nonzero"/></g><path fill="#f8f6f3" d="M 40.851562 47.394531 C 44.835938 47.394531 48.078125 45.40625 49.554688 41.734375 L 44.6875 41.734375 C 43.800781 42.960938 42.769531 43.570312 41.148438 43.570312 C 39.082031 43.570312 37.460938 42.042969 37.3125 40.054688 L 49.996094 40.054688 C 51.910156 33.9375 48.816406 29.199219 42.621094 29.199219 C 37.609375 29.199219 34.070312 32.105469 33.183594 36.996094 C 32.152344 42.960938 35.398438 47.394531 40.851562 47.394531 Z M 42.625 33.019531 C 44.835938 33.019531 46.164062 34.398438 46.164062 36.382812 L 38.050781 36.382812 C 38.492188 34.550781 40.265625 33.019531 42.625 33.019531 Z M 42.625 33.019531 " fill-opacity="1" fill-rule="nonzero"/><path fill="#f8f6f3" d="M 29.351562 47.394531 L 30.53125 47.394531 L 31.417969 42.960938 L 30.386719 42.960938 C 28.761719 42.960938 28.027344 41.738281 28.320312 39.902344 L 29.5 33.480469 L 33.1875 33.480469 L 34.074219 29.046875 L 30.382812 29.046875 L 31.121094 24.765625 L 26.402344 24.765625 L 23.601562 39.75 C 22.863281 44.183594 24.632812 47.394531 29.351562 47.394531 Z M 29.351562 47.394531 " fill-opacity="1" fill-rule="nonzero"/><path fill="#f8f6f3" d="M 57.515625 47.394531 L 58.84375 47.394531 L 59.730469 42.960938 L 58.699219 42.960938 C 57.078125 42.960938 56.191406 41.738281 56.632812 39.902344 L 59.4375 24.765625 L 54.71875 24.765625 L 51.914062 39.75 C 51.027344 44.488281 53.09375 47.394531 57.515625 47.394531 Z M 57.515625 47.394531 " fill-opacity="1" fill-rule="nonzero"/><path fill="#f8f6f3" d="M 24.632812 24.917969 L 19.914062 24.917969 L 19.175781 29.351562 L 23.746094 29.351562 Z M 24.632812 24.917969 " fill-opacity="1" fill-rule="nonzero"/><path fill="#f8f6f3" d="M 23.453125 31.183594 L 18.734375 31.183594 L 15.636719 47.390625 L 20.355469 47.390625 Z M 23.453125 31.183594 " fill-opacity="1" fill-rule="nonzero"/></svg>