<svg width="1369" height="581" viewBox="0 0 1369 581" fill="none" xmlns="http://www.w3.org/2000/svg">
<g style="mix-blend-mode:soft-light" opacity="0.2">
<path d="M136.844 560.578C72.5479 560.578 20.4258 508.456 20.4258 444.16V427.821C20.4258 363.525 72.5479 311.403 136.844 311.403C201.14 311.403 253.262 363.525 253.262 427.821V444.16C253.262 508.456 201.14 560.578 136.844 560.578Z" fill="white"/>
<rect x="20.4258" y="270.555" width="249.175" height="232.836" rx="116.418" transform="rotate(-90 20.4258 270.555)" fill="white"/>
<rect x="294.109" y="560.578" width="249.175" height="232.836" rx="116.418" transform="rotate(-90 294.109 560.578)" fill="white"/>
<rect x="294.109" y="270.555" width="249.175" height="232.836" rx="116.418" transform="rotate(-90 294.109 270.555)" fill="white"/>
<rect x="567.793" y="560.578" width="249.175" height="232.836" rx="116.418" transform="rotate(-90 567.793 560.578)" fill="white"/>
<rect x="567.793" y="270.555" width="249.175" height="232.836" rx="116.418" transform="rotate(-90 567.793 270.555)" fill="white"/>
<rect x="841.477" y="560.578" width="249.175" height="232.836" rx="116.418" transform="rotate(-90 841.477 560.578)" fill="white"/>
<rect x="841.477" y="270.555" width="249.175" height="232.836" rx="116.418" transform="rotate(-90 841.477 270.555)" fill="white"/>
<rect x="1115.16" y="560.578" width="249.175" height="232.836" rx="116.418" transform="rotate(-90 1115.16 560.578)" fill="white"/>
<rect x="1115.16" y="270.555" width="249.175" height="232.836" rx="116.418" transform="rotate(-90 1115.16 270.555)" fill="white"/>
</g>
</svg>
