<svg width="1244" height="800" viewBox="0 0 1244 800" fill="none" xmlns="http://www.w3.org/2000/svg">
<g opacity="0.8">
<path opacity="0.08" d="M886.238 1229.35H885.093C871.348 1229.35 864.476 1238.52 864.476 1251.12V1253.41C864.476 1267.16 854.168 1277.47 840.423 1277.47H838.132C825.533 1277.47 816.371 1284.34 816.371 1298.09V1299.23C816.371 1312.98 808.353 1321 794.609 1321L448.391 1321C434.647 1321 426.629 1312.98 426.629 1299.23V1298.09C426.629 1284.34 417.466 1277.47 404.867 1277.47H402.577C388.832 1277.47 378.524 1267.16 378.524 1253.41V1251.12C378.524 1238.52 371.652 1229.35 357.907 1229.35H356.762C343.018 1229.35 335 1221.34 335 1207.59L335 228.411C335 214.664 343.018 206.645 356.762 206.645H357.907C371.652 206.645 378.524 197.48 378.524 184.879V182.588C378.524 168.842 388.832 158.531 402.577 158.531H404.867C417.466 158.531 426.629 151.658 426.629 137.911V136.766C426.629 123.019 434.647 115 448.391 115H794.609C808.353 115 816.371 123.019 816.371 136.766V137.911C816.371 151.658 825.533 158.531 838.132 158.531H840.423C854.168 158.531 864.476 168.842 864.476 182.588V184.879C864.476 197.48 871.348 206.645 885.093 206.645H886.238C899.982 206.645 908 214.664 908 228.411L908 1207.59C908 1221.34 899.982 1229.35 886.238 1229.35Z" fill="white"/>
<path opacity="0.2" fill-rule="evenodd" clip-rule="evenodd" d="M1193.06 2162.35H1190.59C1176.7 2162.35 1166.75 2166.94 1160.22 2174.28C1153.63 2181.7 1150.12 2192.39 1150.12 2205.29V2210.23C1150.12 2242.09 1126.09 2266.11 1094.23 2266.11H1089.29C1076.39 2266.11 1065.7 2269.63 1058.29 2276.22C1050.94 2282.75 1046.35 2292.7 1046.35 2306.59V2309.06C1046.35 2324.65 1041.79 2337.51 1032.82 2346.48C1023.86 2355.44 1011 2360 995.407 2360H248.593C232.996 2360 220.137 2355.44 211.176 2346.48C202.215 2337.51 197.651 2324.65 197.651 2309.06V2306.59C197.651 2292.7 193.058 2282.75 185.714 2276.22C178.298 2269.63 167.607 2266.11 154.709 2266.11H149.768C117.911 2266.11 93.8842 2242.09 93.8842 2210.23V2205.29C93.8842 2192.39 90.3683 2181.7 83.7767 2174.28C77.2481 2166.94 67.2953 2162.35 53.4127 2162.35H50.9421C35.3449 2162.35 22.4859 2157.78 13.5247 2148.82C4.56362 2139.86 0 2127 0 2111.41V-0.405029C0 -16.0024 4.56362 -28.8616 13.5248 -37.8225C22.4859 -46.7837 35.3449 -51.3474 50.9421 -51.3474H53.4127C67.2953 -51.3474 77.248 -55.9399 83.7767 -63.2849C90.3683 -70.7007 93.8842 -81.3921 93.8842 -94.2903V-99.2314C93.8842 -131.088 117.911 -155.115 149.768 -155.115H154.709C167.607 -155.115 178.298 -158.631 185.714 -165.223C193.058 -171.751 197.651 -181.704 197.651 -195.587V-198.058C197.651 -213.655 202.215 -226.514 211.176 -235.475C220.137 -244.436 232.996 -249 248.593 -249H995.407C1011 -249 1023.86 -244.436 1032.82 -235.475C1041.79 -226.514 1046.35 -213.655 1046.35 -198.058V-195.587C1046.35 -181.704 1050.94 -171.751 1058.29 -165.223C1065.7 -158.631 1076.39 -155.115 1089.29 -155.115H1094.23C1126.09 -155.115 1150.12 -131.088 1150.12 -99.2314V-94.2903C1150.12 -81.3921 1153.63 -70.7007 1160.22 -63.2849C1166.75 -55.9399 1176.7 -51.3474 1190.59 -51.3474H1193.06C1208.66 -51.3474 1221.51 -46.7837 1230.48 -37.8225C1239.44 -28.8616 1244 -16.0024 1244 -0.405029V2111.41C1244 2127 1239.44 2139.86 1230.48 2148.82C1221.51 2157.78 1208.66 2162.35 1193.06 2162.35ZM1193.06 2158.35H1190.59C1160.94 2158.35 1146.12 2178.11 1146.12 2205.29V2210.23C1146.12 2239.88 1123.88 2262.11 1094.23 2262.11H1089.29C1062.11 2262.11 1042.35 2276.94 1042.35 2306.59V2309.06C1042.35 2338.71 1025.05 2356 995.407 2356H248.593C218.945 2356 201.651 2338.71 201.651 2309.06V2306.59C201.651 2276.94 181.886 2262.11 154.709 2262.11H149.768C120.12 2262.11 97.8842 2239.88 97.8842 2210.23V2205.29C97.8842 2178.11 83.0604 2158.35 53.4127 2158.35H50.9421C21.2945 2158.35 4 2141.05 4 2111.41V-0.405029C4 -30.053 21.2945 -47.3474 50.9421 -47.3474H53.4127C83.0604 -47.3474 97.8842 -67.113 97.8842 -94.2903V-99.2314C97.8842 -128.879 120.12 -151.115 149.768 -151.115H154.709C181.886 -151.115 201.651 -165.939 201.651 -195.587V-198.058C201.651 -227.706 218.945 -245 248.593 -245H995.407C1025.05 -245 1042.35 -227.706 1042.35 -198.058V-195.587C1042.35 -165.939 1062.11 -151.115 1089.29 -151.115H1094.23C1123.88 -151.115 1146.12 -128.879 1146.12 -99.2314V-94.2903C1146.12 -67.113 1160.94 -47.3474 1190.59 -47.3474H1193.06C1222.71 -47.3474 1240 -30.053 1240 -0.405029V2111.41C1240 2141.05 1222.71 2158.35 1193.06 2158.35ZM1140.9 2012.67H1143.16C1157.46 2012.67 1169.29 2008.49 1177.55 2000.23C1185.81 1991.97 1190 1980.14 1190 1965.85V39.1541C1190 24.856 1185.81 13.0254 1177.55 4.76831C1169.29 -3.48901 1157.46 -7.67334 1143.16 -7.67334H1140.9C1128.32 -7.67334 1119.34 -11.833 1113.45 -18.447C1107.51 -25.1318 1104.32 -34.7944 1104.32 -46.5012V-51.0093C1104.32 -80.2683 1082.23 -102.345 1052.97 -102.345H1048.46C1036.75 -102.345 1027.08 -105.536 1020.4 -111.479C1013.78 -117.357 1009.62 -126.336 1009.62 -138.918V-141.172C1009.62 -155.47 1005.43 -167.301 997.174 -175.558C988.914 -183.815 977.081 -188 962.779 -188H281.221C266.919 -188 255.086 -183.816 246.826 -175.558C238.566 -167.301 234.38 -155.47 234.38 -141.172V-138.918C234.38 -126.336 230.22 -117.357 223.604 -111.479C216.917 -105.536 207.251 -102.345 195.54 -102.345H191.031C161.766 -102.345 139.681 -80.2683 139.681 -51.0093V-46.5012C139.681 -34.7944 136.489 -25.1318 130.545 -18.447C124.664 -11.833 115.683 -7.67334 103.095 -7.67334H100.84C86.5388 -7.67334 74.7054 -3.48901 66.4458 4.76831C58.186 13.0254 54 24.856 54 39.1541V1965.85C54 1980.14 58.186 1991.97 66.4458 2000.23C74.7054 2008.49 86.5388 2012.67 100.84 2012.67H103.095C115.683 2012.67 124.664 2016.83 130.545 2023.45C136.489 2030.13 139.681 2039.79 139.681 2051.5V2056.01C139.681 2085.27 161.766 2107.34 191.031 2107.34H195.54C207.251 2107.34 216.917 2110.54 223.604 2116.48C230.22 2122.36 234.38 2131.34 234.38 2143.92V2146.17C234.38 2160.47 238.566 2172.3 246.826 2180.56C255.086 2188.82 266.919 2193 281.221 2193H962.779C977.081 2193 988.914 2188.82 997.174 2180.56C1005.43 2172.3 1009.62 2160.47 1009.62 2146.17V2143.92C1009.62 2131.34 1013.78 2122.36 1020.4 2116.48C1027.08 2110.54 1036.75 2107.34 1048.46 2107.34H1052.97C1082.23 2107.34 1104.32 2085.27 1104.32 2056.01V2051.5C1104.32 2039.79 1107.51 2030.13 1113.45 2023.45C1119.34 2016.83 1128.32 2012.67 1140.9 2012.67ZM1140.9 2008.67H1143.16C1170.22 2008.67 1186 1992.89 1186 1965.85V39.1541C1186 12.1052 1170.22 -3.67334 1143.16 -3.67334H1140.9C1113.85 -3.67334 1100.32 -21.7063 1100.32 -46.5012V-51.0093C1100.32 -78.0581 1080.03 -98.345 1052.97 -98.345H1048.46C1023.66 -98.345 1005.62 -111.87 1005.62 -138.918V-141.172C1005.62 -168.221 989.836 -184 962.779 -184H281.221C254.164 -184 238.38 -168.221 238.38 -141.172V-138.918C238.38 -111.87 220.342 -98.345 195.54 -98.345H191.031C163.974 -98.345 143.681 -78.0581 143.681 -51.0093V-46.5012C143.681 -21.7063 130.152 -3.67334 103.095 -3.67334H100.84C73.7833 -3.67334 58 12.1052 58 39.1541V1965.85C58 1992.89 73.7833 2008.67 100.84 2008.67H103.095C130.152 2008.67 143.681 2026.71 143.681 2051.5V2056.01C143.681 2083.06 163.974 2103.34 191.031 2103.34H195.54C220.342 2103.34 238.38 2116.87 238.38 2143.92V2146.17C238.38 2173.22 254.164 2189 281.221 2189H962.779C989.836 2189 1005.62 2173.22 1005.62 2146.17V2143.92C1005.62 2116.87 1023.66 2103.34 1048.46 2103.34H1052.97C1080.03 2103.34 1100.32 2083.06 1100.32 2056.01V2051.5C1100.32 2026.71 1113.85 2008.67 1140.9 2008.67ZM1097.88 1881.33H1095.82C1084.41 1881.33 1076.31 1885.1 1071.02 1891.05C1065.66 1897.07 1062.76 1905.81 1062.76 1916.44V1920.55C1062.76 1947.46 1042.44 1967.78 1015.53 1967.78H1011.41C1000.78 1967.78 992.04 1970.68 986.014 1976.03C980.06 1981.33 976.291 1989.42 976.291 2000.83V2002.89C976.291 2016.01 972.448 2026.92 964.825 2034.54C957.202 2042.16 946.299 2046 933.172 2046H310.828C297.701 2046 286.798 2042.16 279.175 2034.54C271.552 2026.92 267.709 2016.01 267.709 2002.89V2000.83C267.709 1989.42 263.94 1981.33 257.986 1976.03C251.96 1970.68 243.224 1967.78 232.591 1967.78H228.473C201.558 1967.78 181.237 1947.46 181.237 1920.55V1916.44C181.237 1905.81 178.339 1897.07 172.983 1891.05C167.689 1885.1 159.59 1881.33 148.177 1881.33H146.118C132.992 1881.33 122.089 1877.49 114.466 1869.86C106.843 1862.24 103 1851.34 103 1838.22V78.7821C103 65.6581 106.843 54.7571 114.466 47.1357C122.089 39.5144 132.992 35.6724 146.118 35.6724H148.177C159.59 35.6724 167.689 31.9042 172.983 25.9506C178.339 19.9263 181.237 11.193 181.237 0.5625V-3.55408C181.237 -30.4648 201.558 -50.7808 228.473 -50.7808H232.591C243.224 -50.7808 251.96 -53.6785 257.986 -59.0334C263.94 -64.3257 267.709 -72.4231 267.709 -83.832V-85.8904C267.709 -99.0144 271.552 -109.916 279.175 -117.537C286.798 -125.158 297.701 -129 310.828 -129H933.172C946.299 -129 957.202 -125.158 964.825 -117.537C972.448 -109.916 976.291 -99.0144 976.291 -85.8904V-83.832C976.291 -72.4231 980.06 -64.3257 986.014 -59.0334C992.04 -53.6785 1000.78 -50.7808 1011.41 -50.7808H1015.53C1042.44 -50.7808 1062.76 -30.4648 1062.76 -3.55408V0.5625C1062.76 11.193 1065.66 19.9263 1071.02 25.9506C1076.31 31.9042 1084.41 35.6724 1095.82 35.6724H1097.88C1111.01 35.6724 1121.91 39.5144 1129.53 47.1357C1137.16 54.7571 1141 65.6581 1141 78.7821V1838.22C1141 1851.34 1137.16 1862.24 1129.53 1869.86C1121.91 1877.49 1111.01 1881.33 1097.88 1881.33ZM1097.88 1877.33H1095.82C1071.12 1877.33 1058.76 1893.79 1058.76 1916.44V1920.55C1058.76 1945.25 1040.23 1963.78 1015.53 1963.78H1011.41C988.762 1963.78 972.291 1976.13 972.291 2000.83V2002.89C972.291 2027.59 957.879 2042 933.172 2042H310.828C286.121 2042 271.709 2027.59 271.709 2002.89V2000.83C271.709 1976.13 255.238 1963.78 232.591 1963.78H228.473C203.767 1963.78 185.237 1945.25 185.237 1920.55V1916.44C185.237 1893.79 172.884 1877.33 148.177 1877.33H146.118C121.412 1877.33 107 1862.92 107 1838.22V78.7821C107 54.0813 121.412 39.6724 146.118 39.6724H148.177C172.884 39.6724 185.237 23.205 185.237 0.5625V-3.55408C185.237 -28.2549 203.767 -46.7808 228.473 -46.7808H232.591C255.238 -46.7808 271.709 -59.1313 271.709 -83.832V-85.8904C271.709 -110.591 286.121 -125 310.828 -125H933.172C957.879 -125 972.291 -110.591 972.291 -85.8904V-83.832C972.291 -59.1313 988.762 -46.7808 1011.41 -46.7808H1015.53C1040.23 -46.7808 1058.76 -28.2549 1058.76 -3.55408V0.5625C1058.76 23.205 1071.12 39.6724 1095.82 39.6724H1097.88C1122.59 39.6724 1137 54.0813 1137 78.7821V1838.22C1137 1862.92 1122.59 1877.33 1097.88 1877.33ZM1049.9 1737.51H1051.76C1063.66 1737.51 1073.59 1734.03 1080.55 1727.06C1087.51 1720.1 1091 1710.16 1091 1698.25V111.752C1091 99.8427 1087.51 89.9031 1080.55 82.9391C1073.59 75.9749 1063.66 72.4863 1051.76 72.4863H1049.9C1039.71 72.4863 1032.53 69.1235 1027.85 63.8533C1023.1 58.5118 1020.51 50.7393 1020.51 41.2207V37.5087C1020.51 13.0288 1002.03 -5.46912 977.556 -5.46912H973.846C964.335 -5.46912 956.568 -8.06287 951.231 -12.8104C945.964 -17.4951 942.602 -24.6826 942.602 -34.8787V-36.7345C942.602 -48.6437 939.116 -58.5833 932.156 -65.5472C925.196 -72.5115 915.261 -76.0001 903.357 -76.0001H342.643C330.739 -76.0001 320.804 -72.5115 313.844 -65.5472C306.884 -58.5833 303.398 -48.6437 303.398 -36.7345V-34.8787C303.398 -24.6826 300.036 -17.4951 294.769 -12.8104C289.431 -8.06287 281.665 -5.46912 272.154 -5.46912H268.444C243.973 -5.46912 225.489 13.0288 225.489 37.5087V41.2207C225.489 50.7393 222.896 58.5118 218.151 63.8533C213.469 69.1235 206.287 72.4863 196.1 72.4863H194.245C182.341 72.4863 172.406 75.9749 165.446 82.9391C158.486 89.9031 155 99.8427 155 111.752V1698.25C155 1710.16 158.486 1720.1 165.446 1727.06C172.406 1734.03 182.341 1737.51 194.245 1737.51H196.1C206.287 1737.51 213.469 1740.88 218.151 1746.15C222.896 1751.49 225.489 1759.26 225.489 1768.78V1772.49C225.489 1796.97 243.973 1815.47 268.444 1815.47H272.154C281.665 1815.47 289.432 1818.06 294.769 1822.81C300.036 1827.49 303.398 1834.68 303.398 1844.88V1846.73C303.398 1858.64 306.884 1868.58 313.844 1875.55C320.804 1882.51 330.739 1886 342.643 1886H903.357C915.261 1886 925.196 1882.51 932.156 1875.55C939.116 1868.58 942.602 1858.64 942.602 1846.73V1844.88C942.602 1834.68 945.964 1827.49 951.231 1822.81C956.568 1818.06 964.335 1815.47 973.846 1815.47H977.556C1002.03 1815.47 1020.51 1796.97 1020.51 1772.49V1768.78C1020.51 1759.26 1023.1 1751.49 1027.85 1746.15C1032.53 1740.88 1039.71 1737.51 1049.9 1737.51ZM1049.9 1733.51H1051.76C1074.02 1733.51 1087 1720.52 1087 1698.25V111.752C1087 89.4789 1074.02 76.4863 1051.76 76.4863H1049.9C1027.64 76.4863 1016.51 61.6376 1016.51 41.2207V37.5087C1016.51 15.2357 999.816 -1.46912 977.556 -1.46912H973.846C953.442 -1.46912 938.602 -12.6057 938.602 -34.8787V-36.7345C938.602 -59.0074 925.617 -72.0001 903.357 -72.0001H342.643C320.383 -72.0001 307.398 -59.0074 307.398 -36.7345V-34.8787C307.398 -12.6057 292.558 -1.46912 272.154 -1.46912H268.444C246.184 -1.46912 229.489 15.2357 229.489 37.5087V41.2207C229.489 61.6376 218.359 76.4863 196.1 76.4863H194.245C171.985 76.4863 159 89.4789 159 111.752V1698.25C159 1720.52 171.985 1733.51 194.245 1733.51H196.1C218.359 1733.51 229.489 1748.36 229.489 1768.78V1772.49C229.489 1794.76 246.184 1811.47 268.444 1811.47H272.154C292.558 1811.47 307.398 1822.61 307.398 1844.88V1846.73C307.398 1869.01 320.383 1882 342.643 1882H903.357C925.617 1882 938.602 1869.01 938.602 1846.73V1844.88C938.602 1822.61 953.442 1811.47 973.846 1811.47H977.556C999.816 1811.47 1016.51 1794.76 1016.51 1772.49V1768.78C1016.51 1748.36 1027.64 1733.51 1049.9 1733.51ZM1010.1 1618.72H1008.42C999.285 1618.72 992.894 1621.73 988.74 1626.4C984.524 1631.15 982.195 1638.07 982.195 1646.61V1649.97C982.195 1672.32 965.291 1689.22 942.935 1689.22H939.576C931.032 1689.22 924.1 1691.55 919.356 1695.76C914.683 1699.91 911.674 1706.3 911.674 1715.43V1717.11C911.674 1727.95 908.495 1737.05 902.107 1743.44C895.718 1749.82 886.619 1753 875.772 1753H368.228C357.381 1753 348.282 1749.82 341.893 1743.44C335.505 1737.05 332.326 1727.95 332.326 1717.11V1715.43C332.326 1706.3 329.317 1699.91 324.644 1695.76C319.9 1691.55 312.968 1689.22 304.423 1689.22H301.065C278.709 1689.22 261.805 1672.32 261.805 1649.97V1646.61C261.805 1638.07 259.476 1631.15 255.26 1626.4C251.106 1621.73 244.715 1618.72 235.581 1618.72H233.902C223.055 1618.72 213.956 1615.55 207.567 1609.16C201.179 1602.77 198 1593.68 198 1582.83V148.167C198 137.322 201.179 128.226 207.567 121.839C213.956 115.453 223.055 112.276 233.902 112.276H235.581C244.715 112.276 251.106 109.268 255.26 104.596C259.476 99.8542 261.805 92.926 261.805 84.3854V81.0286C261.805 58.6765 278.709 41.781 301.065 41.781H304.423C312.968 41.781 319.9 39.4532 324.644 35.2378C329.317 31.0856 332.326 24.6979 332.326 15.5688V13.8905C332.326 3.04602 335.504 -6.05029 341.893 -12.4368C348.282 -18.823 357.381 -22 368.228 -22H875.772C886.619 -22 895.718 -18.823 902.107 -12.4368C908.495 -6.05029 911.674 3.04602 911.674 13.8905V15.5688C911.674 24.6979 914.683 31.0856 919.356 35.2378C924.1 39.4532 931.032 41.781 939.576 41.781H942.935C965.291 41.781 982.195 58.6765 982.195 81.0286V84.3854C982.195 92.926 984.524 99.8542 988.74 104.596C992.894 109.268 999.285 112.276 1008.42 112.276H1010.1C1020.94 112.276 1030.04 115.453 1036.43 121.839C1042.82 128.226 1046 137.322 1046 148.167V1582.83C1046 1593.68 1042.82 1602.77 1036.43 1609.16C1030.04 1615.55 1020.94 1618.72 1010.1 1618.72ZM1010.1 1614.72H1008.42C988.27 1614.72 978.195 1628.15 978.195 1646.61V1649.97C978.195 1670.11 963.084 1685.22 942.935 1685.22H939.576C921.107 1685.22 907.674 1695.29 907.674 1715.43V1717.11C907.674 1737.25 895.921 1749 875.772 1749H368.228C348.079 1749 336.326 1737.25 336.326 1717.11V1715.43C336.326 1695.29 322.893 1685.22 304.423 1685.22H301.065C280.916 1685.22 265.805 1670.11 265.805 1649.97V1646.61C265.805 1628.15 255.73 1614.72 235.581 1614.72H233.902C213.754 1614.72 202 1602.97 202 1582.83V148.167C202 128.025 213.754 116.276 233.902 116.276H235.581C255.73 116.276 265.805 102.848 265.805 84.3854V81.0286C265.805 60.8871 280.916 45.781 301.065 45.781H304.423C322.893 45.781 336.326 35.7102 336.326 15.5688V13.8905C336.326 -6.25085 348.079 -18 368.228 -18H875.772C895.921 -18 907.674 -6.25085 907.674 13.8905V15.5688C907.674 35.7102 921.107 45.781 939.576 45.781H942.935C963.084 45.781 978.195 60.8871 978.195 81.0286V84.3854C978.195 102.848 988.27 116.276 1008.42 116.276H1010.1C1030.25 116.276 1042 128.025 1042 148.167V1582.83C1042 1602.97 1030.25 1614.72 1010.1 1614.72ZM974.377 1517.43H975.908C985.869 1517.43 994.266 1514.5 1000.17 1508.59C1006.08 1502.68 1009 1494.28 1009 1484.32V174.685C1009 164.719 1006.08 156.318 1000.17 150.407C994.266 144.495 985.869 141.573 975.908 141.573H974.377C966.132 141.573 960.407 138.859 956.697 134.682C952.923 130.433 950.816 124.199 950.816 116.462V113.398C950.816 92.8052 935.247 77.2223 914.662 77.2223H911.599C903.869 77.2223 897.641 75.1145 893.396 71.3387C889.222 67.6257 886.508 61.8959 886.508 53.6432V52.1112C886.508 42.1455 883.589 33.7445 877.681 27.8334C871.773 21.9218 863.377 19 853.416 19H390.584C380.623 19 372.227 21.9218 366.319 27.8334C360.411 33.7445 357.492 42.1455 357.492 52.1112V53.6432C357.492 61.8959 354.778 67.6257 350.604 71.3387C346.359 75.1145 340.131 77.2223 332.4 77.2223H329.338C308.753 77.2223 293.184 92.8052 293.184 113.398V116.462C293.184 124.199 291.077 130.433 287.303 134.682C283.593 138.859 277.868 141.573 269.623 141.573H268.092C258.131 141.573 249.734 144.495 243.826 150.407C237.919 156.318 235 164.719 235 174.685V1484.32C235 1494.28 237.919 1502.68 243.826 1508.59C249.734 1514.5 258.131 1517.43 268.092 1517.43H269.623C277.868 1517.43 283.593 1520.14 287.303 1524.32C291.077 1528.57 293.184 1534.8 293.184 1542.54V1545.6C293.184 1566.19 308.753 1581.78 329.338 1581.78H332.4C340.131 1581.78 346.359 1583.89 350.604 1587.66C354.778 1591.37 357.492 1597.1 357.492 1605.36V1606.89C357.492 1616.85 360.411 1625.26 366.319 1631.17C372.227 1637.08 380.623 1640 390.584 1640H853.416C863.377 1640 871.773 1637.08 877.681 1631.17C883.589 1625.26 886.508 1616.85 886.508 1606.89V1605.36C886.508 1597.1 889.222 1591.37 893.396 1587.66C897.641 1583.89 903.869 1581.78 911.599 1581.78H914.662C935.247 1581.78 950.816 1566.19 950.816 1545.6V1542.54C950.816 1534.8 952.923 1528.57 956.697 1524.32C960.407 1520.14 966.132 1517.43 974.377 1517.43ZM974.377 1513.43H975.908C994.282 1513.43 1005 1502.7 1005 1484.32V174.685C1005 156.299 994.282 145.573 975.908 145.573H974.377C956.003 145.573 946.816 133.316 946.816 116.462V113.398C946.816 95.0118 933.036 81.2223 914.662 81.2223H911.599C894.757 81.2223 882.508 72.0292 882.508 53.6432V52.1112C882.508 33.7251 871.789 23 853.416 23H390.584C372.21 23 361.492 33.7251 361.492 52.1112V53.6432C361.492 72.0292 349.243 81.2223 332.4 81.2223H329.338C310.964 81.2223 297.184 95.0118 297.184 113.398V116.462C297.184 133.316 287.997 145.573 269.623 145.573H268.092C249.718 145.573 239 156.299 239 174.685V1484.32C239 1502.7 249.718 1513.43 268.092 1513.43H269.623C287.997 1513.43 297.184 1525.68 297.184 1542.54V1545.6C297.184 1563.99 310.964 1577.78 329.338 1577.78H332.4C349.243 1577.78 361.492 1586.97 361.492 1605.36V1606.89C361.492 1625.27 372.21 1636 390.584 1636H853.416C871.789 1636 882.508 1625.27 882.508 1606.89V1605.36C882.508 1586.97 894.757 1577.78 911.599 1577.78H914.662C933.036 1577.78 946.816 1563.99 946.816 1545.6V1542.54C946.816 1525.68 956.003 1513.43 974.377 1513.43ZM945.415 1428.07H944.015C936.561 1428.07 931.43 1430.51 928.115 1434.24C924.738 1438.04 922.829 1443.64 922.829 1450.65V1453.45C922.829 1472.45 908.445 1486.83 889.446 1486.83H886.647C879.642 1486.83 874.04 1488.74 870.24 1492.12C866.511 1495.43 864.062 1500.56 864.062 1508.02V1509.42C864.062 1518.58 861.373 1526.35 855.894 1531.83C850.415 1537.31 842.645 1540 833.476 1540H410.524C401.355 1540 393.585 1537.31 388.106 1531.83C382.627 1526.35 379.938 1518.58 379.938 1509.42V1508.02C379.938 1500.56 377.489 1495.43 373.76 1492.12C369.96 1488.74 364.358 1486.83 357.353 1486.83H354.554C335.555 1486.83 321.171 1472.45 321.171 1453.45V1450.65C321.171 1443.64 319.262 1438.04 315.885 1434.24C312.57 1430.51 307.439 1428.07 299.985 1428.07H298.585C289.417 1428.07 281.647 1425.38 276.168 1419.9C270.689 1414.42 268 1406.65 268 1397.48V201.519C268 192.351 270.689 184.581 276.168 179.102C281.647 173.623 289.417 170.935 298.585 170.935H299.985C307.439 170.935 312.57 168.485 315.885 164.756C319.262 160.957 321.171 155.355 321.171 148.35V145.552C321.171 126.552 335.555 112.169 354.554 112.169H357.353C364.358 112.169 369.96 110.26 373.76 106.883C377.489 103.569 379.938 98.4374 379.938 90.9835V89.5845C379.938 80.416 382.627 72.6464 388.106 67.1675C393.585 61.6886 401.355 59 410.524 59H833.476C842.645 59 850.415 61.6886 855.894 67.1675C861.373 72.6464 864.062 80.416 864.062 89.5845V90.9835C864.062 98.4374 866.511 103.569 870.24 106.883C874.04 110.26 879.642 112.169 886.647 112.169H889.446C908.445 112.169 922.829 126.552 922.829 145.552V148.35C922.829 155.355 924.738 160.957 928.115 164.756C931.43 168.485 936.561 170.935 944.015 170.935H945.415C954.583 170.935 962.353 173.623 967.832 179.102C973.311 184.581 976 192.351 976 201.519V1397.48C976 1406.65 973.311 1414.42 967.832 1419.9C962.353 1425.38 954.583 1428.07 945.415 1428.07ZM945.415 1424.07H944.015C927.225 1424.07 918.829 1435.26 918.829 1450.65V1453.45C918.829 1470.24 906.236 1482.83 889.446 1482.83H886.647C871.255 1482.83 860.062 1491.23 860.062 1508.02V1509.42C860.062 1526.21 850.267 1536 833.476 1536H410.524C393.733 1536 383.938 1526.21 383.938 1509.42V1508.02C383.938 1491.23 372.744 1482.83 357.353 1482.83H354.554C337.764 1482.83 325.171 1470.24 325.171 1453.45V1450.65C325.171 1435.26 316.775 1424.07 299.985 1424.07H298.585C281.795 1424.07 272 1414.27 272 1397.48V201.519C272 184.729 281.795 174.935 298.585 174.935H299.985C316.775 174.935 325.171 163.741 325.171 148.35V145.552C325.171 128.762 337.764 116.169 354.554 116.169H357.353C372.744 116.169 383.938 107.774 383.938 90.9835V89.5845C383.938 72.7943 393.733 63 410.524 63H833.476C850.267 63 860.062 72.7943 860.062 89.5845V90.9835C860.062 107.774 871.255 116.169 886.647 116.169H889.446C906.236 116.169 918.829 128.762 918.829 145.552V148.35C918.829 163.741 927.225 174.935 944.015 174.935H945.415C962.205 174.935 972 184.729 972 201.519V1397.48C972 1414.27 962.205 1424.07 945.415 1424.07ZM914.035 1330.08H912.774C906.147 1330.08 901.637 1332.26 898.736 1335.52C895.772 1338.86 894.07 1343.8 894.07 1350.05V1352.57C894.07 1369.92 880.928 1383.06 863.583 1383.06H861.06C854.814 1383.06 849.867 1384.77 846.533 1387.73C843.27 1390.63 841.096 1395.14 841.096 1401.77V1403.03C841.096 1411.37 838.648 1418.49 833.618 1423.52C828.587 1428.55 821.472 1431 813.131 1431H431.869C423.528 1431 416.413 1428.55 411.382 1423.52C406.352 1418.49 403.904 1411.37 403.904 1403.03V1401.77C403.904 1395.14 401.73 1390.63 398.467 1387.73C395.133 1384.77 390.186 1383.06 383.94 1383.06H381.417C364.072 1383.06 350.93 1369.92 350.93 1352.57V1350.05C350.93 1343.8 349.228 1338.86 346.264 1335.52C343.363 1332.26 338.853 1330.08 332.226 1330.08H330.965C322.624 1330.08 315.509 1327.64 310.478 1322.6C305.447 1317.57 303 1310.46 303 1302.12V223.884C303 215.542 305.447 208.426 310.478 203.395C315.509 198.364 322.623 195.916 330.965 195.916H332.226C338.853 195.916 343.363 193.742 346.264 190.478C349.228 187.144 350.93 182.196 350.93 175.948V173.426C350.93 156.079 364.072 142.935 381.417 142.935H383.94C390.186 142.935 395.133 141.233 398.467 138.269C401.73 135.368 403.904 130.857 403.904 124.229V122.968C403.904 114.626 406.352 107.51 411.382 102.479C416.413 97.4476 423.528 95 431.869 95H813.131C821.472 95 828.587 97.4476 833.618 102.479C838.648 107.51 841.096 114.626 841.096 122.968V124.229C841.096 130.857 843.27 135.368 846.533 138.269C849.867 141.233 854.814 142.935 861.06 142.935H863.583C880.928 142.935 894.07 156.08 894.07 173.426V175.948C894.07 182.196 895.772 187.144 898.736 190.478C901.637 193.742 906.147 195.916 912.774 195.916H914.035C922.377 195.916 929.491 198.364 934.522 203.395C939.553 208.426 942 215.542 942 223.884V1302.12C942 1310.46 939.553 1317.57 934.522 1322.6C929.491 1327.64 922.376 1330.08 914.035 1330.08ZM914.035 1326.08H912.774C897.638 1326.08 890.07 1336.18 890.07 1350.05V1352.57C890.07 1367.71 878.719 1379.06 863.583 1379.06H861.06C847.186 1379.06 837.096 1386.63 837.096 1401.77V1403.03C837.096 1418.17 828.267 1427 813.131 1427H431.869C416.733 1427 407.904 1418.17 407.904 1403.03V1401.77C407.904 1386.63 397.814 1379.06 383.94 1379.06H381.417C366.281 1379.06 354.93 1367.71 354.93 1352.57V1350.05C354.93 1336.18 347.362 1326.08 332.226 1326.08H330.965C315.829 1326.08 307 1317.25 307 1302.12V223.884C307 208.746 315.829 199.916 330.965 199.916H332.226C347.362 199.916 354.93 189.824 354.93 175.948V173.426C354.93 158.288 366.281 146.935 381.417 146.935H383.94C397.814 146.935 407.904 139.366 407.904 124.229V122.968C407.904 107.83 416.733 99 431.869 99H813.131C828.267 99 837.096 107.83 837.096 122.968V124.229C837.096 139.366 847.186 146.935 861.06 146.935H863.583C878.719 146.935 890.07 158.288 890.07 173.426V175.948C890.07 189.824 897.638 199.916 912.774 199.916H914.035C929.171 199.916 938 208.746 938 223.884V1302.12C938 1317.25 929.171 1326.08 914.035 1326.08Z" fill="url(#paint0_radial_14849_125118)"/>
</g>
<defs>
<radialGradient id="paint0_radial_14849_125118" cx="0" cy="0" r="1" gradientUnits="userSpaceOnUse" gradientTransform="translate(622 1055.5) rotate(-90.4938) scale(1304.5 622)">
<stop stop-color="white"/>
<stop offset="1" stop-color="white" stop-opacity="0.08"/>
</radialGradient>
</defs>
</svg>
