<svg width="40" height="40" viewBox="0 0 40 40" fill="none" xmlns="http://www.w3.org/2000/svg">
<path d="M34.1667 15.834C36.6667 15.834 36.6667 16.6673 36.6667 18.334V21.6673C36.6667 23.334 36.6667 24.1673 34.1667 24.1673" stroke="url(#paint0_linear_7159_64417)" stroke-width="1.5" stroke-linecap="round" stroke-linejoin="round"/>
<path d="M10.6333 16.666C11.1833 18.8493 11.1833 21.1493 10.6333 23.3327" stroke="url(#paint1_linear_7159_64417)" stroke-width="1.5" stroke-linecap="round" stroke-linejoin="round"/>
<path d="M16.4666 16.666C17.0166 18.8493 17.0166 21.1493 16.4666 23.3327" stroke="url(#paint2_linear_7159_64417)" stroke-width="1.5" stroke-linecap="round" stroke-linejoin="round"/>
<path d="M22.3 16.666C22.85 18.8493 22.85 21.1493 22.3 23.3327" stroke="url(#paint3_linear_7159_64417)" stroke-width="1.5" stroke-linecap="round" stroke-linejoin="round"/>
<path d="M21.6666 31.6673H11.6666C4.99992 31.6673 3.33325 30.0007 3.33325 23.334V16.6673C3.33325 10.0007 4.99992 8.33398 11.6666 8.33398H21.6666C28.3333 8.33398 29.9999 10.0007 29.9999 16.6673V23.334C29.9999 30.0007 28.3333 31.6673 21.6666 31.6673Z" stroke="url(#paint4_linear_7159_64417)" stroke-width="1.5" stroke-linecap="round" stroke-linejoin="round"/>
<defs>
<linearGradient id="paint0_linear_7159_64417" x1="34.1499" y1="24.1673" x2="35.8468" y2="24.3311" gradientUnits="userSpaceOnUse">
<stop stop-color="#CA86FF"/>
<stop offset="1" stop-color="#85E2FD"/>
</linearGradient>
<linearGradient id="paint1_linear_7159_64417" x1="10.6305" y1="23.3327" x2="10.913" y2="23.3383" gradientUnits="userSpaceOnUse">
<stop stop-color="#CA86FF"/>
<stop offset="1" stop-color="#85E2FD"/>
</linearGradient>
<linearGradient id="paint2_linear_7159_64417" x1="16.4638" y1="23.3327" x2="16.7463" y2="23.3383" gradientUnits="userSpaceOnUse">
<stop stop-color="#CA86FF"/>
<stop offset="1" stop-color="#85E2FD"/>
</linearGradient>
<linearGradient id="paint3_linear_7159_64417" x1="22.2973" y1="23.3327" x2="22.5798" y2="23.3383" gradientUnits="userSpaceOnUse">
<stop stop-color="#CA86FF"/>
<stop offset="1" stop-color="#85E2FD"/>
</linearGradient>
<linearGradient id="paint4_linear_7159_64417" x1="3.15398" y1="31.6673" x2="19.2481" y2="37.5834" gradientUnits="userSpaceOnUse">
<stop stop-color="#CA86FF"/>
<stop offset="1" stop-color="#85E2FD"/>
</linearGradient>
</defs>
</svg>
