<svg width="44" height="43" viewBox="0 0 44 43" fill="none" xmlns="http://www.w3.org/2000/svg">
<path d="M22 42.6875C10.4184 42.6875 1 33.2691 1 21.6875C1 10.1059 10.4237 0.6875 22 0.6875C33.5763 0.6875 43 10.1059 43 21.6875C43 33.2691 33.5816 42.6875 22 42.6875ZM22 1.35189C10.7851 1.35189 1.66439 10.4726 1.66439 21.6875C1.66439 32.9024 10.7851 42.0231 22 42.0231C33.2149 42.0231 42.3356 32.9024 42.3356 21.6875C42.3356 10.4726 33.2149 1.35189 22 1.35189Z" fill="#CECCD5" stroke="#CECCD5" stroke-width="0.5"/>
<path d="M21.9999 30.9689C16.8815 30.9689 12.7197 26.8072 12.7197 21.6887C12.7197 17.5057 15.542 13.8277 19.5815 12.7381L20.501 12.4883L19.9323 13.2537C18.864 14.6994 18.2953 16.4055 18.2953 18.1861C18.2953 22.7677 22.0212 26.4883 26.5975 26.4883C27.602 26.4883 28.6013 26.3023 29.5633 25.9302L30.4563 25.59L29.9673 26.4139C28.2983 29.2203 25.2421 30.9636 21.9893 30.9636L21.9999 30.9689ZM18.864 13.6736C15.5952 14.9492 13.3841 18.1223 13.3841 21.6887C13.3841 26.4404 17.2482 30.3045 21.9999 30.3045C24.7053 30.3045 27.2619 29.0023 28.883 26.8603C28.1389 27.057 27.3735 27.158 26.6081 27.158C21.6651 27.158 17.6362 23.1344 17.6362 18.1914C17.6362 16.5915 18.0561 15.0448 18.864 13.6736Z" fill="#CECCD5" stroke="#CECCD5" stroke-width="0.5"/>
<path d="M27.8891 14.6504C28.1602 15.0438 28.5004 15.3892 28.899 15.6603C28.5057 15.9314 28.1602 16.2715 27.8891 16.6702C27.6181 16.2769 27.2779 15.9314 26.8793 15.6603C27.2726 15.3892 27.6181 15.0491 27.8891 14.6504ZM27.8891 12.8008L27.8732 12.8167C27.7244 14.305 26.5391 15.4902 25.0509 15.639L25.0349 15.655L25.0509 15.6709C26.5391 15.8198 27.7244 17.005 27.8732 18.4933L27.8891 18.5092L27.9051 18.4933C28.0539 17.005 29.2392 15.8198 30.7274 15.6709L30.7433 15.655L30.7274 15.639C29.2392 15.4902 28.0539 14.305 27.9051 12.8167L27.8891 12.8008Z" fill="#CECCD5" stroke="#CECCD5" stroke-width="0.5"/>
<path d="M22.6433 18.3297C22.8559 18.638 23.1216 18.9037 23.4299 19.1163C23.1216 19.3289 22.8559 19.5947 22.6433 19.903C22.4306 19.5947 22.1649 19.3289 21.8566 19.1163C22.1649 18.9037 22.4306 18.638 22.6433 18.3297ZM22.6433 16.8574L22.6326 16.8681C22.5157 18.048 21.5749 18.9835 20.4003 19.1004L20.3896 19.111L20.4003 19.1217C21.5802 19.2386 22.5157 20.1794 22.6326 21.354L22.6433 21.3646L22.6539 21.354C22.7708 20.1741 23.7116 19.2386 24.8862 19.1217L24.8969 19.111L24.8862 19.1004C23.7063 18.9835 22.7708 18.0427 22.6539 16.8681L22.6433 16.8574Z" fill="#CECCD5" stroke="#CECCD5" stroke-width="0.5"/>
<path d="M26.4967 22.6187C26.6615 22.8579 26.8688 23.0705 27.1133 23.2352C26.8741 23.4 26.6615 23.6073 26.4967 23.8518C26.3319 23.6126 26.1246 23.4 25.8801 23.2352C26.1193 23.0705 26.3319 22.8632 26.4967 22.6187ZM26.4967 21.5078L26.4861 21.5184C26.3957 22.422 25.6782 23.1342 24.7799 23.2246L24.7693 23.2352L24.7799 23.2459C25.6835 23.3362 26.3957 24.0538 26.4861 24.952L26.4967 24.9626L26.5073 24.952C26.5977 24.0484 27.3152 23.3362 28.2135 23.2459L28.2241 23.2352L28.2135 23.2246C27.3099 23.1342 26.5977 22.4167 26.5073 21.5184L26.4967 21.5078Z" fill="#CECCD5" stroke="#CECCD5" stroke-width="0.5"/>
</svg>
