<svg width="44" height="43" viewBox="0 0 44 43" fill="none" xmlns="http://www.w3.org/2000/svg">
<path d="M1 21.6875C1 10.1059 10.4184 0.6875 22 0.6875C33.5816 0.6875 43 10.1059 43 21.6875C43 33.2691 33.5816 42.6875 22 42.6875C10.4184 42.6875 1 33.2691 1 21.6875ZM42.3356 21.6875C42.3356 10.4726 33.2149 1.35189 22 1.35189C10.7851 1.35189 1.66439 10.4726 1.66439 21.6875C1.66439 32.9024 10.7851 42.0231 22 42.0231C33.2149 42.0231 42.3356 32.9024 42.3356 21.6875Z" fill="#CECCD5" stroke="#CECCD5" stroke-width="0.5"/>
<path d="M13.3362 17.5616C14.8829 14.3247 18.1782 12.0818 21.9998 12.0818C25.8214 12.0818 29.1167 14.33 30.6634 17.5616H31.3597C29.7705 13.9686 26.1722 11.4492 21.9998 11.4492C17.8274 11.4492 14.2291 13.9686 12.6399 17.5616H13.3362Z" fill="#CECCD5" stroke="#CECCD5" stroke-width="0.7"/>
<path d="M30.0521 26.9062C28.3353 29.5425 25.3695 31.2965 21.9997 31.2965C18.6299 31.2965 15.6588 29.5479 13.9473 26.9062H13.2085C14.9944 29.904 18.2632 31.9237 21.9997 31.9237C25.7362 31.9237 29.005 29.904 30.7909 26.9062H30.0521Z" fill="#CECCD5" stroke="#CECCD5" stroke-width="0.7"/>
<path d="M8.37716 15.4517C8.26023 15.4517 8.16455 15.356 8.16455 15.2391V12.4274C8.16455 12.3105 8.26023 12.2148 8.37716 12.2148H11.1889C11.3058 12.2148 11.4015 12.3105 11.4015 12.4274C11.4015 12.5443 11.3058 12.64 11.1889 12.64H8.58445V15.2444C8.58445 15.3614 8.48877 15.457 8.37184 15.457L8.37716 15.4517Z" fill="#CECCD5" stroke="#CECCD5" stroke-width="0.7"/>
<path d="M35.6171 15.4517C35.734 15.4517 35.8297 15.356 35.8297 15.2391V12.4274C35.8297 12.3105 35.734 12.2148 35.6171 12.2148H32.8054C32.6884 12.2148 32.5928 12.3105 32.5928 12.4274C32.5928 12.5443 32.6884 12.64 32.8054 12.64H35.4098V15.2444C35.4098 15.3614 35.5055 15.457 35.6224 15.457L35.6171 15.4517Z" fill="#CECCD5" stroke="#CECCD5" stroke-width="0.7"/>
<path d="M8.37716 27.9272C8.26023 27.9272 8.16455 28.0229 8.16455 28.1398V30.9515C8.16455 31.0685 8.26023 31.1641 8.37716 31.1641H11.1889C11.3058 31.1641 11.4015 31.0685 11.4015 30.9515C11.4015 30.8346 11.3058 30.7389 11.1889 30.7389H8.58445V28.1345C8.58445 28.0176 8.48877 27.9219 8.37184 27.9219L8.37716 27.9272Z" fill="#CECCD5" stroke="#CECCD5" stroke-width="0.7"/>
<path d="M35.6171 27.9272C35.734 27.9272 35.8297 28.0229 35.8297 28.1398V30.9515C35.8297 31.0685 35.734 31.1641 35.6171 31.1641H32.8054C32.6884 31.1641 32.5928 31.0685 32.5928 30.9515C32.5928 30.8346 32.6884 30.7389 32.8054 30.7389H35.4098V28.1345C35.4098 28.0176 35.5055 27.9219 35.6224 27.9219L35.6171 27.9272Z" fill="#CECCD5" stroke="#CECCD5" stroke-width="0.7"/>
</svg>
