<svg width="432" height="477" viewBox="0 0 432 477" fill="none" xmlns="http://www.w3.org/2000/svg">
<mask id="path-1-outside-1_12183_26017" maskUnits="userSpaceOnUse" x="41" y="1.00002" width="160" height="474" fill="black">
<rect fill="white" x="41" y="1.00002" width="160" height="474"/>
<path d="M57.648 369.732L83.772 383.508C79.404 391.236 73.944 402.912 73.944 417.444C73.944 426.012 76.296 432.564 81.588 432.564C88.224 432.564 88.896 420.552 91.248 408.54L92.004 404.76C96.708 380.484 108.384 368.136 126.444 368.136C156.18 368.136 167.184 393.252 167.184 418.284C167.184 439.368 162.144 458.52 152.568 471.96L126.528 456.336C132.156 447.012 138.624 435.756 138.624 417.864C138.624 409.296 136.272 402.996 130.476 402.996C124.344 402.996 123.252 410.304 120.732 424.92L119.976 429.372C115.356 456.42 103.68 467.676 82.848 467.088C60.336 466.5 45.3 447.6 45.3 419.376C45.3 404.004 46.896 390.144 57.648 369.732ZM43.872 325.929L88.308 325.929C82.428 321.225 79.488 314.253 79.488 304.845C79.488 287.625 91.668 275.109 110.82 275.109L165 275.109L165 305.013L120.228 305.013C111.912 305.013 107.46 308.961 107.46 315.513C107.46 321.309 111.24 325.929 120.396 325.929L165 325.929L165 355.833L43.872 355.833L43.872 325.929ZM81.756 175.328L165 175.328L165 204.056L157.692 204.056C163.236 209.012 167.184 216.236 167.184 226.736C167.184 248.996 147.444 264.62 123.252 264.62C99.228 264.62 79.488 248.996 79.488 226.652C79.488 216.236 83.52 209.012 89.232 204.056L81.756 204.056L81.756 175.328ZM107.292 219.008C107.292 227.576 114.012 233.792 123.336 233.792C132.66 233.792 139.38 227.576 139.38 219.008C139.38 210.44 132.66 204.224 123.336 204.224C114.012 204.224 107.292 210.44 107.292 219.008ZM79.488 110.11C79.488 106.834 80.076 103.81 80.328 102.634L110.232 104.314C109.308 107.758 108.3 112.63 108.3 117.418C108.3 125.734 111.24 130.774 120.396 130.774L165 130.774L165 160.762L81.756 160.762L81.756 132.202L90.156 132.202C82.764 127.582 79.488 120.274 79.488 110.11ZM79.488 41.9286C79.488 19.5846 99.228 3.96058 123.252 3.96058C147.444 3.96058 167.184 19.5846 167.184 41.8446C167.184 51.5046 163.908 58.3926 159.036 63.2646L198.6 63.2646L198.6 93.1686L81.756 93.1686L81.756 64.5246L89.232 64.5246C83.52 59.5686 79.488 52.4286 79.488 41.9286ZM107.292 49.5726C107.292 58.1406 114.012 64.3566 123.336 64.3566C132.66 64.3566 139.38 58.1406 139.38 49.5726C139.38 41.0046 132.66 34.7886 123.336 34.7886C114.012 34.7886 107.292 41.0046 107.292 49.5726Z"/>
</mask>
<path d="M57.648 369.732L58.5809 367.963L56.811 367.03L55.8785 368.8L57.648 369.732ZM83.772 383.508L85.5131 384.492L86.5264 382.699L84.7049 381.739L83.772 383.508ZM91.248 408.54L89.2868 408.148L89.2853 408.156L91.248 408.54ZM92.004 404.76L93.9652 405.152L93.9675 405.14L92.004 404.76ZM152.568 471.96L151.539 473.675L153.124 474.626L154.197 473.121L152.568 471.96ZM126.528 456.336L124.816 455.302L123.779 457.019L125.499 458.051L126.528 456.336ZM120.732 424.92L118.761 424.58L118.76 424.585L120.732 424.92ZM119.976 429.372L121.947 429.709L121.948 429.707L119.976 429.372ZM82.848 467.088L82.9044 465.089L82.9002 465.089L82.848 467.088ZM56.7151 371.501L82.8391 385.277L84.7049 381.739L58.5809 367.963L56.7151 371.501ZM82.0309 382.524C77.5942 390.373 71.944 402.408 71.944 417.444L75.944 417.444C75.944 403.416 81.2138 392.099 85.5131 384.492L82.0309 382.524ZM71.944 417.444C71.944 421.862 72.5433 425.971 73.9654 429.055C75.4136 432.195 77.8963 434.564 81.588 434.564L81.588 430.564C79.9877 430.564 78.6483 429.657 77.5976 427.379C76.5207 425.045 75.944 421.594 75.944 417.444L71.944 417.444ZM81.588 434.564C83.971 434.564 85.8003 433.438 87.1384 431.736C88.4123 430.115 89.2781 427.941 89.947 425.608C91.2672 421.003 92.0777 414.711 93.2107 408.924L89.2853 408.156C88.0663 414.381 87.3648 420.101 86.102 424.505C85.4794 426.677 84.786 428.256 83.9939 429.263C83.2662 430.189 82.523 430.564 81.588 430.564L81.588 434.564ZM93.2092 408.932L93.9651 405.152L90.0428 404.368L89.2868 408.148L93.2092 408.932ZM93.9675 405.14C96.2786 393.213 100.26 384.463 105.672 378.716C111.029 373.026 117.922 370.136 126.444 370.136L126.444 366.136C116.906 366.136 108.931 369.42 102.759 375.973C96.6424 382.469 92.4334 392.031 90.0405 404.38L93.9675 405.14ZM126.444 370.136C140.652 370.136 150.221 376.089 156.317 384.956C162.481 393.922 165.184 406.016 165.184 418.284L169.184 418.284C169.184 405.52 166.385 392.54 159.613 382.69C152.773 372.741 141.972 366.136 126.444 366.136L126.444 370.136ZM165.184 418.284C165.184 439.09 160.205 457.795 150.939 470.799L154.197 473.121C164.083 459.245 169.184 439.646 169.184 418.284L165.184 418.284ZM153.597 470.245L127.557 454.621L125.499 458.051L151.539 473.675L153.597 470.245ZM128.24 457.37C133.915 447.968 140.624 436.321 140.624 417.864L136.624 417.864C136.624 435.191 130.397 446.056 124.816 455.302L128.24 457.37ZM140.624 417.864C140.624 413.452 140.027 409.376 138.515 406.328C136.946 403.164 134.3 400.996 130.476 400.996L130.476 404.996C132.448 404.996 133.876 405.978 134.932 408.106C136.045 410.35 136.624 413.708 136.624 417.864L140.624 417.864ZM130.476 400.996C128.495 400.996 126.782 401.606 125.375 402.887C124.032 404.109 123.102 405.819 122.374 407.782C120.938 411.656 120.003 417.378 118.761 424.58L122.703 425.26C123.981 417.846 124.852 412.606 126.125 409.172C126.752 407.481 127.402 406.451 128.067 405.846C128.667 405.299 129.391 404.996 130.476 404.996L130.476 400.996ZM118.76 424.585L118.004 429.037L121.948 429.707L122.704 425.255L118.76 424.585ZM118.005 429.035C115.726 442.377 111.756 451.481 106.075 457.182C100.462 462.814 92.9268 465.372 82.9044 465.089L82.7916 469.087C93.6012 469.392 102.32 466.616 108.908 460.005C115.428 453.463 119.606 443.415 121.947 429.709L118.005 429.035ZM82.9002 465.089C72.2399 464.81 63.4081 460.218 57.2018 452.356C50.9685 444.46 47.3 433.148 47.3 419.376L43.3 419.376C43.3 433.828 47.1495 446.078 54.0622 454.835C61.0018 463.626 70.9441 468.778 82.7958 469.087L82.9002 465.089ZM47.3 419.376C47.3 404.253 48.8487 390.728 59.4175 370.664L55.8785 368.8C44.9433 389.56 43.3 403.755 43.3 419.376L47.3 419.376ZM43.872 325.929L43.872 323.929L41.872 323.929L41.872 325.929L43.872 325.929ZM88.308 325.929L88.308 327.929L94.0095 327.929L89.5574 324.367L88.308 325.929ZM165 275.109L167 275.109L167 273.109L165 273.109L165 275.109ZM165 305.013L165 307.013L167 307.013L167 305.013L165 305.013ZM165 325.929L167 325.929L167 323.929L165 323.929L165 325.929ZM165 355.833L165 357.833L167 357.833L167 355.833L165 355.833ZM43.872 355.833L41.872 355.833L41.872 357.833L43.872 357.833L43.872 355.833ZM43.872 327.929L88.308 327.929L88.308 323.929L43.872 323.929L43.872 327.929ZM89.5574 324.367C84.2636 320.132 81.488 313.804 81.488 304.845L77.488 304.845C77.488 314.701 80.5924 322.317 87.0586 327.49L89.5574 324.367ZM81.488 304.845C81.488 296.72 84.3523 289.822 89.3653 284.954C94.3798 280.085 101.688 277.109 110.82 277.109L110.82 273.109C100.8 273.109 92.4421 276.391 86.5787 282.084C80.7137 287.779 77.488 295.75 77.488 304.845L81.488 304.845ZM110.82 277.109L165 277.109L165 273.109L110.82 273.109L110.82 277.109ZM163 275.109L163 305.013L167 305.013L167 275.109L163 275.109ZM165 303.013L120.228 303.013L120.228 307.013L165 307.013L165 303.013ZM120.228 303.013C115.783 303.013 112.072 304.065 109.44 306.273C106.758 308.524 105.46 311.754 105.46 315.513L109.46 315.513C109.46 312.719 110.388 310.699 112.011 309.338C113.684 307.934 116.357 307.013 120.228 307.013L120.228 303.013ZM105.46 315.513C105.46 318.856 106.563 322.048 109.157 324.381C111.727 326.692 115.501 327.929 120.396 327.929L120.396 323.929C116.135 323.929 113.441 322.855 111.832 321.407C110.247 319.981 109.46 317.965 109.46 315.513L105.46 315.513ZM120.396 327.929L165 327.929L165 323.929L120.396 323.929L120.396 327.929ZM163 325.929L163 355.833L167 355.833L167 325.929L163 325.929ZM165 353.833L43.872 353.833L43.872 357.833L165 357.833L165 353.833ZM45.872 355.833L45.872 325.929L41.872 325.929L41.872 355.833L45.872 355.833ZM81.756 175.328L81.756 173.328L79.756 173.328L79.756 175.328L81.756 175.328ZM165 175.328L167 175.328L167 173.328L165 173.328L165 175.328ZM165 204.056L165 206.056L167 206.056L167 204.056L165 204.056ZM157.692 204.056L157.692 202.056L152.454 202.056L156.359 205.548L157.692 204.056ZM89.232 204.056L90.5427 205.567L94.5888 202.056L89.232 202.056L89.232 204.056ZM81.756 204.056L79.756 204.056L79.756 206.056L81.756 206.056L81.756 204.056ZM81.756 177.328L165 177.328L165 173.328L81.756 173.328L81.756 177.328ZM163 175.328L163 204.056L167 204.056L167 175.328L163 175.328ZM165 202.056L157.692 202.056L157.692 206.056L165 206.056L165 202.056ZM156.359 205.548C161.482 210.127 165.184 216.811 165.184 226.736L169.184 226.736C169.184 215.662 164.99 207.897 159.025 202.565L156.359 205.548ZM165.184 226.736C165.184 247.58 146.679 262.62 123.252 262.62L123.252 266.62C148.209 266.62 169.184 250.413 169.184 226.736L165.184 226.736ZM123.252 262.62C100.001 262.62 81.488 247.587 81.488 226.652L77.488 226.652C77.488 250.406 98.4549 266.62 123.252 266.62L123.252 262.62ZM81.488 226.652C81.488 216.83 85.2581 210.152 90.5427 205.567L87.9213 202.546C81.7819 207.873 77.488 215.643 77.488 226.652L81.488 226.652ZM89.232 202.056L81.756 202.056L81.756 206.056L89.232 206.056L89.232 202.056ZM83.756 204.056L83.756 175.328L79.756 175.328L79.756 204.056L83.756 204.056ZM105.292 219.008C105.292 228.83 113.062 235.792 123.336 235.792L123.336 231.792C114.962 231.792 109.292 226.323 109.292 219.008L105.292 219.008ZM123.336 235.792C133.61 235.792 141.38 228.83 141.38 219.008L137.38 219.008C137.38 226.323 131.71 231.792 123.336 231.792L123.336 235.792ZM141.38 219.008C141.38 209.187 133.61 202.224 123.336 202.224L123.336 206.224C131.71 206.224 137.38 211.694 137.38 219.008L141.38 219.008ZM123.336 202.224C113.062 202.224 105.292 209.187 105.292 219.008L109.292 219.008C109.292 211.694 114.962 206.224 123.336 206.224L123.336 202.224ZM80.328 102.634L80.4402 100.637L78.7311 100.541L78.3724 102.215L80.328 102.634ZM110.232 104.314L112.164 104.833L112.801 102.456L110.344 102.317L110.232 104.314ZM165 130.774L167 130.774L167 128.774L165 128.774L165 130.774ZM165 160.762L165 162.762L167 162.762L167 160.762L165 160.762ZM81.756 160.762L79.756 160.762L79.756 162.762L81.756 162.762L81.756 160.762ZM81.756 132.202L81.756 130.202L79.756 130.202L79.756 132.202L81.756 132.202ZM90.156 132.202L90.156 134.202L97.1296 134.202L91.216 130.506L90.156 132.202ZM81.488 110.11C81.488 107.044 82.0421 104.18 82.2836 103.053L78.3724 102.215C78.1098 103.44 77.488 106.625 77.488 110.11L81.488 110.11ZM80.2158 104.631L110.12 106.311L110.344 102.317L80.4402 100.637L80.2158 104.631ZM108.3 103.796C107.355 107.319 106.3 112.382 106.3 117.418L110.3 117.418C110.3 112.879 111.261 108.198 112.164 104.833L108.3 103.796ZM106.3 117.418C106.3 121.741 107.05 125.647 109.366 128.481C111.754 131.402 115.456 132.774 120.396 132.774L120.396 128.774C116.18 128.774 113.834 127.626 112.463 125.949C111.02 124.184 110.3 121.412 110.3 117.418L106.3 117.418ZM120.396 132.774L165 132.774L165 128.774L120.396 128.774L120.396 132.774ZM163 130.774L163 160.762L167 160.762L167 130.774L163 130.774ZM165 158.762L81.756 158.762L81.756 162.762L165 162.762L165 158.762ZM83.756 160.762L83.756 132.202L79.756 132.202L79.756 160.762L83.756 160.762ZM81.756 134.202L90.156 134.202L90.156 130.202L81.756 130.202L81.756 134.202ZM91.216 130.506C84.5628 126.348 81.488 119.788 81.488 110.11L77.488 110.11C77.488 120.76 80.9652 128.817 89.096 133.898L91.216 130.506ZM159.036 63.2646L157.622 61.8504L154.208 65.2646L159.036 65.2646L159.036 63.2646ZM198.6 63.2646L200.6 63.2646L200.6 61.2646L198.6 61.2646L198.6 63.2646ZM198.6 93.1686L198.6 95.1686L200.6 95.1686L200.6 93.1686L198.6 93.1686ZM81.756 93.1686L79.756 93.1686L79.756 95.1686L81.756 95.1686L81.756 93.1686ZM81.756 64.5246L81.756 62.5246L79.756 62.5246L79.756 64.5246L81.756 64.5246ZM89.232 64.5246L89.232 66.5246L94.5888 66.5246L90.5427 63.0139L89.232 64.5246ZM81.488 41.9286C81.488 20.9938 100.001 5.96059 123.252 5.96059L123.252 1.96059C98.4549 1.9606 77.488 18.1753 77.488 41.9286L81.488 41.9286ZM123.252 5.96059C146.679 5.96059 165.184 21.0009 165.184 41.8446L169.184 41.8446C169.184 18.1682 148.209 1.96059 123.252 1.96059L123.252 5.96059ZM165.184 41.8446C165.184 51.0008 162.1 57.3718 157.622 61.8504L160.45 64.6788C165.716 59.4133 169.184 52.0084 169.184 41.8446L165.184 41.8446ZM159.036 65.2646L198.6 65.2646L198.6 61.2646L159.036 61.2646L159.036 65.2646ZM196.6 63.2646L196.6 93.1686L200.6 93.1686L200.6 63.2646L196.6 63.2646ZM198.6 91.1686L81.756 91.1686L81.756 95.1686L198.6 95.1686L198.6 91.1686ZM83.756 93.1686L83.756 64.5246L79.756 64.5246L79.756 93.1686L83.756 93.1686ZM81.756 66.5246L89.232 66.5246L89.232 62.5246L81.756 62.5246L81.756 66.5246ZM90.5427 63.0139C85.2557 58.4267 81.488 51.8321 81.488 41.9286L77.488 41.9286C77.488 53.025 81.7843 60.7105 87.9213 66.0352L90.5427 63.0139ZM105.292 49.5726C105.292 59.394 113.062 66.3566 123.336 66.3566L123.336 62.3566C114.962 62.3566 109.292 56.8872 109.292 49.5726L105.292 49.5726ZM123.336 66.3566C133.61 66.3566 141.38 59.394 141.38 49.5726L137.38 49.5726C137.38 56.8872 131.71 62.3566 123.336 62.3566L123.336 66.3566ZM141.38 49.5726C141.38 39.7512 133.61 32.7886 123.336 32.7886L123.336 36.7886C131.71 36.7886 137.38 42.258 137.38 49.5726L141.38 49.5726ZM123.336 32.7886C113.062 32.7886 105.292 39.7512 105.292 49.5726L109.292 49.5726C109.292 42.258 114.962 36.7886 123.336 36.7886L123.336 32.7886Z" fill="url(#paint0_linear_12183_26017)" mask="url(#path-1-outside-1_12183_26017)"/>
<mask id="path-3-outside-2_12183_26017" maskUnits="userSpaceOnUse" x="275" y="10" width="125" height="461" fill="black">
<rect fill="white" x="275" y="10" width="125" height="461"/>
<path d="M323.852 381.744L352.244 381.744L352.244 436.68L395 436.68L395 468.6L277.4 468.6L277.4 377.544L305.792 377.544L305.792 436.68L323.852 436.68L323.852 381.744ZM309.488 326.065C309.488 299.941 328.052 280.705 353.336 280.705C378.62 280.705 397.184 299.941 397.184 326.065C397.184 352.189 378.62 371.425 353.336 371.425C328.052 371.425 309.488 352.189 309.488 326.065ZM337.292 326.065C337.292 334.633 344.012 340.849 353.336 340.849C362.66 340.849 369.38 334.633 369.38 326.065C369.38 317.497 362.66 311.281 353.336 311.281C344.012 311.281 337.292 317.497 337.292 326.065ZM309.488 228.284C309.488 211.652 317.216 199.136 329.648 190.904L345.104 215.432C339.812 218.96 337.292 223.076 337.292 228.956C337.292 236.264 342.92 243.068 353.336 243.068C363.836 243.068 369.38 236.516 369.38 229.208C369.38 223.58 366.86 219.044 361.484 215.432L377.192 190.82C389.456 198.968 397.184 211.652 397.184 228.284C397.184 254.912 379.04 273.644 353.336 273.644C327.632 273.644 309.488 254.912 309.488 228.284ZM311.756 101.027L359.216 101.027C385.088 101.027 397.184 118.583 397.184 141.851C397.184 165.119 385.088 182.675 359.132 182.675L311.756 182.675L311.756 152.771L356.612 152.771C364.928 152.771 369.38 148.403 369.38 141.851C369.38 135.299 364.928 130.931 356.612 130.931L311.756 130.931L311.756 101.027ZM315.956 15.3505L339.308 22.4905C335.78 31.9825 333.176 42.9025 333.176 50.5465C333.176 56.3425 334.352 57.7705 336.284 57.7705C339.308 57.7705 339.476 52.0585 340.736 44.4985L341.576 39.4585C344.516 21.7345 353.252 12.9145 367.112 12.9145C386.348 12.9145 397.184 27.2785 397.184 51.6385C397.184 68.1865 394.244 82.8025 389.204 91.2025L365.852 81.6265C370.892 72.3865 373.412 62.2225 373.412 51.4705C373.412 44.9185 372.32 42.8185 369.884 42.8185C367.196 42.8185 366.692 46.2625 365.264 55.5025L364.76 58.7785C361.568 79.3585 353.336 88.5985 337.88 88.5985C319.568 88.5985 309.488 75.2425 309.488 51.9745C309.488 38.2825 310.832 30.9745 315.956 15.3505Z"/>
</mask>
<path d="M323.852 381.744L323.852 379.744L321.852 379.744L321.852 381.744L323.852 381.744ZM352.244 381.744L354.244 381.744L354.244 379.744L352.244 379.744L352.244 381.744ZM352.244 436.68L350.244 436.68L350.244 438.68L352.244 438.68L352.244 436.68ZM395 436.68L397 436.68L397 434.68L395 434.68L395 436.68ZM395 468.6L395 470.6L397 470.6L397 468.6L395 468.6ZM277.4 468.6L275.4 468.6L275.4 470.6L277.4 470.6L277.4 468.6ZM277.4 377.544L277.4 375.544L275.4 375.544L275.4 377.544L277.4 377.544ZM305.792 377.544L307.792 377.544L307.792 375.544L305.792 375.544L305.792 377.544ZM305.792 436.68L303.792 436.68L303.792 438.68L305.792 438.68L305.792 436.68ZM323.852 436.68L323.852 438.68L325.852 438.68L325.852 436.68L323.852 436.68ZM323.852 383.744L352.244 383.744L352.244 379.744L323.852 379.744L323.852 383.744ZM350.244 381.744L350.244 436.68L354.244 436.68L354.244 381.744L350.244 381.744ZM352.244 438.68L395 438.68L395 434.68L352.244 434.68L352.244 438.68ZM393 436.68L393 468.6L397 468.6L397 436.68L393 436.68ZM395 466.6L277.4 466.6L277.4 470.6L395 470.6L395 466.6ZM279.4 468.6L279.4 377.544L275.4 377.544L275.4 468.6L279.4 468.6ZM277.4 379.544L305.792 379.544L305.792 375.544L277.4 375.544L277.4 379.544ZM303.792 377.544L303.792 436.68L307.792 436.68L307.792 377.544L303.792 377.544ZM305.792 438.68L323.852 438.68L323.852 434.68L305.792 434.68L305.792 438.68ZM325.852 436.68L325.852 381.744L321.852 381.744L321.852 436.68L325.852 436.68ZM311.488 326.065C311.488 300.98 329.221 282.705 353.336 282.705L353.336 278.705C326.883 278.705 307.488 298.902 307.488 326.065L311.488 326.065ZM353.336 282.705C377.451 282.705 395.184 300.98 395.184 326.065L399.184 326.065C399.184 298.902 379.789 278.705 353.336 278.705L353.336 282.705ZM395.184 326.065C395.184 351.15 377.451 369.425 353.336 369.425L353.336 373.425C379.789 373.425 399.184 353.228 399.184 326.065L395.184 326.065ZM353.336 369.425C329.221 369.425 311.488 351.15 311.488 326.065L307.488 326.065C307.488 353.228 326.883 373.425 353.336 373.425L353.336 369.425ZM335.292 326.065C335.292 335.887 343.062 342.849 353.336 342.849L353.336 338.849C344.962 338.849 339.292 333.38 339.292 326.065L335.292 326.065ZM353.336 342.849C363.61 342.849 371.38 335.887 371.38 326.065L367.38 326.065C367.38 333.38 361.71 338.849 353.336 338.849L353.336 342.849ZM371.38 326.065C371.38 316.244 363.61 309.281 353.336 309.281L353.336 313.281C361.71 313.281 367.38 318.751 367.38 326.065L371.38 326.065ZM353.336 309.281C343.062 309.281 335.292 316.244 335.292 326.065L339.292 326.065C339.292 318.751 344.962 313.281 353.336 313.281L353.336 309.281ZM329.648 190.904L331.34 189.838L330.249 188.107L328.544 189.236L329.648 190.904ZM345.104 215.432L346.213 217.096L347.835 216.015L346.796 214.366L345.104 215.432ZM361.484 215.432L359.798 214.356L358.747 216.003L360.369 217.092L361.484 215.432ZM377.192 190.82L378.299 189.154L376.602 188.027L375.506 189.744L377.192 190.82ZM311.488 228.284C311.488 212.373 318.837 200.461 330.752 192.571L328.544 189.236C315.595 197.81 307.488 210.931 307.488 228.284L311.488 228.284ZM327.956 191.97L343.412 216.498L346.796 214.366L331.34 189.838L327.956 191.97ZM343.995 213.768C341.175 215.647 338.974 217.763 337.488 220.301C335.992 222.855 335.292 225.713 335.292 228.956L339.292 228.956C339.292 226.318 339.852 224.179 340.939 222.323C342.036 220.451 343.741 218.744 346.213 217.096L343.995 213.768ZM335.292 228.956C335.292 233.127 336.902 237.183 340.019 240.191C343.147 243.21 347.678 245.068 353.336 245.068L353.336 241.068C348.578 241.068 345.087 239.524 342.797 237.313C340.496 235.093 339.292 232.092 339.292 228.956L335.292 228.956ZM353.336 245.068C359.011 245.068 363.542 243.289 366.67 240.332C369.793 237.379 371.38 233.376 371.38 229.208L367.38 229.208C367.38 232.348 366.195 235.275 363.921 237.425C361.652 239.571 358.161 241.068 353.336 241.068L353.336 245.068ZM371.38 229.208C371.38 222.833 368.457 217.708 362.599 213.772L360.369 217.092C365.263 220.38 367.38 224.327 367.38 229.208L371.38 229.208ZM363.17 216.508L378.878 191.896L375.506 189.744L359.798 214.356L363.17 216.508ZM376.085 192.486C387.824 200.285 395.184 212.36 395.184 228.284L399.184 228.284C399.184 210.944 391.088 197.651 378.299 189.154L376.085 192.486ZM395.184 228.284C395.184 241.136 390.812 251.959 383.461 259.559C376.115 267.154 365.685 271.644 353.336 271.644L353.336 275.644C366.691 275.644 378.185 270.768 386.337 262.34C394.484 253.916 399.184 242.06 399.184 228.284L395.184 228.284ZM353.336 271.644C340.987 271.644 330.557 267.154 323.211 259.559C315.86 251.959 311.488 241.136 311.488 228.284L307.488 228.284C307.488 242.06 312.188 253.916 320.335 262.34C328.487 270.768 339.98 275.644 353.336 275.644L353.336 271.644ZM311.756 101.027L311.756 99.0265L309.756 99.0265L309.756 101.027L311.756 101.027ZM311.756 182.675L309.756 182.675L309.756 184.675L311.756 184.675L311.756 182.675ZM311.756 152.771L311.756 150.771L309.756 150.771L309.756 152.771L311.756 152.771ZM311.756 130.931L309.756 130.931L309.756 132.931L311.756 132.931L311.756 130.931ZM311.756 103.027L359.216 103.027L359.216 99.0265L311.756 99.0265L311.756 103.027ZM359.216 103.027C371.667 103.027 380.565 107.23 386.384 114.015C392.243 120.847 395.184 130.538 395.184 141.851L399.184 141.851C399.184 129.895 396.077 119.174 389.42 111.411C382.722 103.601 372.637 99.0265 359.216 99.0265L359.216 103.027ZM395.184 141.851C395.184 153.163 392.243 162.853 386.374 169.685C380.546 176.469 371.627 180.675 359.132 180.675L359.132 184.675C372.593 184.675 382.7 180.102 389.409 172.291C396.077 164.528 399.184 153.806 399.184 141.851L395.184 141.851ZM359.132 180.675L311.756 180.675L311.756 184.675L359.132 184.675L359.132 180.675ZM313.756 182.675L313.756 152.771L309.756 152.771L309.756 182.675L313.756 182.675ZM311.756 154.771L356.612 154.771L356.612 150.771L311.756 150.771L311.756 154.771ZM356.612 154.771C361.104 154.771 364.822 153.589 367.442 151.263C370.09 148.912 371.38 145.601 371.38 141.851L367.38 141.851C367.38 144.652 366.444 146.801 364.787 148.272C363.102 149.768 360.436 150.771 356.612 150.771L356.612 154.771ZM371.38 141.851C371.38 138.1 370.09 134.789 367.442 132.438C364.822 130.112 361.104 128.931 356.612 128.931L356.612 132.931C360.436 132.931 363.102 133.933 364.787 135.429C366.444 136.9 367.38 139.049 367.38 141.851L371.38 141.851ZM356.612 128.931L311.756 128.931L311.756 132.931L356.612 132.931L356.612 128.931ZM313.756 130.931L313.756 101.027L309.756 101.027L309.756 130.931L313.756 130.931ZM315.956 15.3505L316.541 13.4379L314.666 12.8648L314.056 14.7272L315.956 15.3505ZM339.308 22.4905L341.183 23.1872L341.922 21.1983L339.893 20.5779L339.308 22.4905ZM340.736 44.4985L342.709 44.8273L340.736 44.4985ZM341.576 39.4585L343.549 39.7873L343.549 39.7857L341.576 39.4585ZM389.204 91.2024L388.445 93.0529L390.035 93.7048L390.919 92.2314L389.204 91.2024ZM365.852 81.6265L364.096 80.6687L363.027 82.6295L365.093 83.4769L365.852 81.6265ZM365.264 55.5025L363.287 55.197L363.287 55.1984L365.264 55.5025ZM364.76 58.7785L366.736 59.085L366.737 59.0826L364.76 58.7785ZM315.371 17.2631L338.723 24.403L339.893 20.5779L316.541 13.4379L315.371 17.2631ZM337.433 21.7937C333.867 31.3878 331.176 42.5629 331.176 50.5465L335.176 50.5465C335.176 43.242 337.693 32.5771 341.183 23.1872L337.433 21.7937ZM331.176 50.5465C331.176 53.4852 331.458 55.6947 332.213 57.2194C332.617 58.0355 333.188 58.7217 333.97 59.1811C334.743 59.6351 335.556 59.7705 336.284 59.7705L336.284 55.7705C336.164 55.7705 336.09 55.7592 336.048 55.7495C336.01 55.7407 335.997 55.7328 335.997 55.7324C335.995 55.7315 335.992 55.7294 335.986 55.7246C335.98 55.7197 335.969 55.7098 335.953 55.6919C335.922 55.6562 335.866 55.5821 335.798 55.4445C335.482 54.8062 335.176 53.4037 335.176 50.5465L331.176 50.5465ZM336.284 59.7705C337.819 59.7705 338.958 58.9829 339.713 57.912C340.397 56.9421 340.811 55.6912 341.115 54.4424C341.713 51.9831 342.11 48.417 342.709 44.8273L338.763 44.1697C338.101 48.1399 337.785 51.2099 337.228 53.4965C336.955 54.6207 336.681 55.2703 336.443 55.6076C336.34 55.755 336.283 55.7834 336.293 55.7777C336.316 55.7644 336.33 55.7705 336.284 55.7705L336.284 59.7705ZM342.709 44.8273L343.549 39.7873L339.603 39.1297L338.763 44.1697L342.709 44.8273ZM343.549 39.7857C344.98 31.1586 347.782 24.959 351.685 20.9318C355.54 16.9538 360.643 14.9145 367.112 14.9145L367.112 10.9145C359.72 10.9145 353.526 13.2851 348.813 18.1481C344.148 22.9619 341.112 30.0343 339.603 39.1312L343.549 39.7857ZM367.112 14.9145C376.178 14.9144 383.082 18.2694 387.777 24.3622C392.528 30.528 395.184 39.7193 395.184 51.6384L399.184 51.6384C399.184 39.1977 396.422 29.0269 390.946 21.9207C385.414 14.7415 377.282 10.9145 367.112 10.9145L367.112 14.9145ZM395.184 51.6384C395.184 68.0466 392.254 82.2316 387.489 90.1734L390.919 92.2314C396.234 83.3733 399.184 68.3263 399.184 51.6384L395.184 51.6384ZM389.963 89.352L366.611 79.776L365.093 83.4769L388.445 93.0529L389.963 89.352ZM367.608 82.5842C372.814 73.0391 375.412 62.5441 375.412 51.4704L371.412 51.4704C371.412 61.9009 368.97 71.7338 364.096 80.6687L367.608 82.5842ZM375.412 51.4704C375.412 48.1753 375.152 45.6493 374.399 43.8979C374.002 42.9742 373.424 42.1576 372.579 41.5894C371.728 41.0167 370.787 40.8185 369.884 40.8185L369.884 44.8185C370.199 44.8185 370.308 44.8827 370.347 44.9085C370.392 44.9388 370.543 45.0568 370.724 45.477C371.126 46.4137 371.412 48.2136 371.412 51.4704L375.412 51.4704ZM369.884 40.8185C368.709 40.8185 367.638 41.2266 366.785 42.1175C366.022 42.9141 365.548 43.9801 365.195 45.0899C364.495 47.2931 363.988 50.6658 363.287 55.197L367.241 55.8079C367.968 51.0991 368.427 48.1298 369.008 46.301C369.295 45.3948 369.541 45.0223 369.673 44.8844C369.715 44.8409 369.715 44.8185 369.884 44.8185L369.884 40.8185ZM363.287 55.1984L362.783 58.4744L366.737 59.0826L367.241 55.8066L363.287 55.1984ZM362.784 58.4719C361.213 68.6007 358.443 75.6063 354.432 80.0689C350.5 84.4431 345.168 86.5985 337.88 86.5985L337.88 90.5985C346.048 90.5985 352.56 88.1338 357.406 82.743C362.173 77.4406 365.115 69.5362 366.736 59.085L362.784 58.4719ZM337.88 86.5985C329.262 86.5985 322.784 83.4856 318.402 77.792C313.959 72.0205 311.488 63.3587 311.488 51.9744L307.488 51.9744C307.488 63.8583 310.057 73.5084 315.232 80.2319C320.467 87.0333 328.186 90.5985 337.88 90.5985L337.88 86.5985ZM311.488 51.9744C311.488 38.5389 312.783 31.444 317.856 15.9737L314.056 14.7272C308.881 30.5049 307.488 38.026 307.488 51.9744L311.488 51.9744Z" fill="url(#paint1_linear_12183_26017)" mask="url(#path-3-outside-2_12183_26017)"/>
<defs>
<linearGradient id="paint0_linear_12183_26017" x1="202" y1="480.207" x2="359.4" y2="272.971" gradientUnits="userSpaceOnUse">
<stop stop-color="#CA86FF"/>
<stop offset="1" stop-color="#85E2FD"/>
</linearGradient>
<linearGradient id="paint1_linear_12183_26017" x1="432" y1="480.146" x2="585.617" y2="274.002" gradientUnits="userSpaceOnUse">
<stop stop-color="#CA86FF"/>
<stop offset="1" stop-color="#85E2FD"/>
</linearGradient>
</defs>
</svg>
