<svg width="116" height="129" viewBox="0 0 116 129" fill="none" xmlns="http://www.w3.org/2000/svg">
<mask id="path-1-outside-1_7159_64821" maskUnits="userSpaceOnUse" x="9.99999" y="-0.999995" width="49" height="129" fill="black">
<rect fill="white" x="9.99999" y="-0.999995" width="49" height="129"/>
<path d="M13.4 94.752L47 94.752L47 103.632L28.112 117.48L47 117.48L47 126.6L13.4 126.6L13.4 117.72L32.288 103.872L13.4 103.872L13.4 94.752ZM23.216 81.7118L47 81.7118L47 90.2558L23.216 90.2558L23.216 81.7118ZM11.36 86.0078C11.36 83.2478 13.496 81.1118 16.256 81.1118C19.016 81.1118 21.152 83.2478 21.152 86.0078C21.152 88.7678 19.016 90.9038 16.256 90.9038C13.496 90.9038 11.36 88.7678 11.36 86.0078ZM22.568 67.8086C22.568 64.8806 23.696 62.8406 25.304 61.4726L23.216 61.4726L23.216 53.2646L44.456 53.2646C52.424 53.2646 57.08 58.4966 57.08 66.2006C57.08 70.3526 56.048 74.4566 53.96 77.4326L47.24 74.4086C48.968 72.1286 49.664 69.7286 49.664 66.9686C49.664 64.5926 48.368 61.5926 44.864 61.5926L43.784 61.5926C45.32 62.9606 46.376 64.9526 46.376 67.8086C46.376 74.2406 41.048 78.6326 34.472 78.6326C27.896 78.6326 22.568 74.2406 22.568 67.8086ZM30.32 65.6726C30.32 68.0246 32.048 69.7766 34.472 69.7766C36.896 69.7766 38.624 68.0246 38.624 65.6726C38.624 63.3206 36.896 61.6646 34.472 61.6646C32.048 61.6646 30.32 63.3206 30.32 65.6726ZM12.392 40.5555L25.088 40.5555C23.408 39.2115 22.568 37.2195 22.568 34.5315C22.568 29.6115 26.048 26.0355 31.52 26.0355L47 26.0355L47 34.5795L34.208 34.5795C31.832 34.5795 30.56 35.7075 30.56 37.5795C30.56 39.2355 31.64 40.5555 34.256 40.5555L47 40.5555L47 49.0995L12.392 49.0995L12.392 40.5555ZM23.216 3.06525L30.752 3.06525L30.752 10.7933L36.32 10.7933C38.888 10.7933 39.68 9.44925 39.68 7.60125C39.68 6.28125 38.864 4.84125 38.24 3.73725L44.864 0.881255C46.52 3.25725 47.624 5.63326 47.624 9.80925C47.624 16.5773 43.472 19.3373 37.64 19.3373L30.752 19.3373L30.752 23.6573L23.216 23.6573L23.216 19.3373L16.4 19.3373L16.4 10.7933L23.216 10.7933L23.216 3.06525Z"/>
</mask>
<path d="M13.4 94.752L13.4 93.752L12.4 93.752L12.4 94.752L13.4 94.752ZM47 94.752L48 94.752L48 93.752L47 93.752L47 94.752ZM47 103.632L47.5913 104.438L48 104.139L48 103.632L47 103.632ZM28.112 117.48L27.5207 116.674L25.0568 118.48L28.112 118.48L28.112 117.48ZM47 117.48L48 117.48L48 116.48L47 116.48L47 117.48ZM47 126.6L47 127.6L48 127.6L48 126.6L47 126.6ZM13.4 126.6L12.4 126.6L12.4 127.6L13.4 127.6L13.4 126.6ZM13.4 117.72L12.8087 116.914L12.4 117.213L12.4 117.72L13.4 117.72ZM32.288 103.872L32.8793 104.678L35.3432 102.872L32.288 102.872L32.288 103.872ZM13.4 103.872L12.4 103.872L12.4 104.872L13.4 104.872L13.4 103.872ZM13.4 95.752L47 95.752L47 93.752L13.4 93.752L13.4 95.752ZM46 94.752L46 103.632L48 103.632L48 94.752L46 94.752ZM46.4087 102.826L27.5207 116.674L28.7033 118.286L47.5913 104.438L46.4087 102.826ZM28.112 118.48L47 118.48L47 116.48L28.112 116.48L28.112 118.48ZM46 117.48L46 126.6L48 126.6L48 117.48L46 117.48ZM47 125.6L13.4 125.6L13.4 127.6L47 127.6L47 125.6ZM14.4 126.6L14.4 117.72L12.4 117.72L12.4 126.6L14.4 126.6ZM13.9913 118.526L32.8793 104.678L31.6967 103.066L12.8087 116.914L13.9913 118.526ZM32.288 102.872L13.4 102.872L13.4 104.872L32.288 104.872L32.288 102.872ZM14.4 103.872L14.4 94.752L12.4 94.752L12.4 103.872L14.4 103.872ZM23.216 81.7118L23.216 80.7118L22.216 80.7118L22.216 81.7118L23.216 81.7118ZM47 81.7118L48 81.7118L48 80.7118L47 80.7118L47 81.7118ZM47 90.2557L47 91.2557L48 91.2557L48 90.2557L47 90.2557ZM23.216 90.2558L22.216 90.2558L22.216 91.2558L23.216 91.2557L23.216 90.2558ZM23.216 82.7118L47 82.7118L47 80.7118L23.216 80.7118L23.216 82.7118ZM46 81.7118L46 90.2557L48 90.2557L48 81.7118L46 81.7118ZM47 89.2557L23.216 89.2558L23.216 91.2557L47 91.2557L47 89.2557ZM24.216 90.2557L24.216 81.7118L22.216 81.7118L22.216 90.2558L24.216 90.2557ZM12.36 86.0078C12.36 83.8 14.0483 82.1117 16.256 82.1117L16.256 80.1117C12.9437 80.1118 10.36 82.6955 10.36 86.0078L12.36 86.0078ZM16.256 82.1117C18.4637 82.1117 20.152 83.8 20.152 86.0078L22.152 86.0078C22.152 82.6955 19.5683 80.1117 16.256 80.1117L16.256 82.1117ZM20.152 86.0078C20.152 88.2155 18.4637 89.9038 16.256 89.9038L16.256 91.9038C19.5683 91.9038 22.152 89.32 22.152 86.0078L20.152 86.0078ZM16.256 89.9038C14.0483 89.9038 12.36 88.2155 12.36 86.0078L10.36 86.0078C10.36 89.32 12.9437 91.9038 16.256 91.9038L16.256 89.9038ZM25.304 61.4726L25.952 62.2343L28.0227 60.4726L25.304 60.4726L25.304 61.4726ZM23.216 61.4726L22.216 61.4726L22.216 62.4726L23.216 62.4726L23.216 61.4726ZM23.216 53.2646L23.216 52.2646L22.216 52.2646L22.216 53.2646L23.216 53.2646ZM53.96 77.4326L53.5496 78.3445L54.3037 78.6839L54.7786 78.007L53.96 77.4326ZM47.24 74.4086L46.443 73.8046L45.6846 74.8053L46.8296 75.3205L47.24 74.4086ZM43.784 61.5926L43.784 60.5926L41.1576 60.5926L43.1189 62.3394L43.784 61.5926ZM23.568 67.8086C23.568 65.1728 24.5681 63.4116 25.952 62.2343L24.656 60.711C22.8239 62.2696 21.568 64.5885 21.568 67.8086L23.568 67.8086ZM25.304 60.4726L23.216 60.4726L23.216 62.4726L25.304 62.4726L25.304 60.4726ZM24.216 61.4726L24.216 53.2646L22.216 53.2646L22.216 61.4726L24.216 61.4726ZM23.216 54.2646L44.456 54.2646L44.456 52.2646L23.216 52.2646L23.216 54.2646ZM44.456 54.2646C48.2132 54.2646 51.0904 55.492 53.0314 57.5328C54.979 59.5805 56.08 62.5484 56.08 66.2006L58.08 66.2006C58.08 62.1489 56.853 58.6488 54.4806 56.1545C52.1016 53.6532 48.6668 52.2646 44.456 52.2646L44.456 54.2646ZM56.08 66.2006C56.08 70.2089 55.0802 74.0949 53.1414 76.8583L54.7786 78.007C57.0158 74.8183 58.08 70.4963 58.08 66.2006L56.08 66.2006ZM54.3704 76.5207L47.6504 73.4967L46.8296 75.3205L53.5496 78.3445L54.3704 76.5207ZM48.037 75.0126C49.911 72.54 50.664 69.9219 50.664 66.9686L48.664 66.9686C48.664 69.5354 48.025 71.7172 46.443 73.8046L48.037 75.0126ZM50.664 66.9686C50.664 65.6218 50.3007 64.0573 49.3865 62.8012C48.4429 61.5046 46.9467 60.5926 44.864 60.5926L44.864 62.5926C46.2852 62.5926 47.1891 63.1807 47.7695 63.9781C48.3792 64.8159 48.664 65.9394 48.664 66.9686L50.664 66.9686ZM44.864 60.5926L43.784 60.5926L43.784 62.5926L44.864 62.5926L44.864 60.5926ZM43.1189 62.3394C44.4382 63.5144 45.376 65.233 45.376 67.8086L47.376 67.8086C47.376 64.6723 46.2018 62.4069 44.4491 60.8459L43.1189 62.3394ZM45.376 67.8086C45.376 73.575 40.6163 77.6326 34.472 77.6326L34.472 79.6326C41.4797 79.6326 47.376 74.9062 47.376 67.8086L45.376 67.8086ZM34.472 77.6326C28.3277 77.6326 23.568 73.575 23.568 67.8086L21.568 67.8086C21.568 74.9062 27.4643 79.6326 34.472 79.6326L34.472 77.6326ZM29.32 65.6726C29.32 68.5808 31.4996 70.7766 34.472 70.7766L34.472 68.7766C32.5964 68.7766 31.32 67.4685 31.32 65.6726L29.32 65.6726ZM34.472 70.7766C37.4444 70.7766 39.624 68.5808 39.624 65.6726L37.624 65.6726C37.624 67.4685 36.3476 68.7766 34.472 68.7766L34.472 70.7766ZM39.624 65.6726C39.624 64.2424 39.0936 62.9747 38.1507 62.0664C37.2106 61.1608 35.9153 60.6646 34.472 60.6646L34.472 62.6646C35.4526 62.6646 36.2334 62.9965 36.7632 63.5068C37.2903 64.0146 37.624 64.7509 37.624 65.6726L39.624 65.6726ZM34.472 60.6646C33.0286 60.6646 31.7334 61.1608 30.7932 62.0664C29.8503 62.9747 29.32 64.2424 29.32 65.6726L31.32 65.6726C31.32 64.7509 31.6537 64.0146 32.1807 63.5068C32.7106 62.9965 33.4913 62.6646 34.472 62.6646L34.472 60.6646ZM12.392 40.5555L12.392 39.5555L11.392 39.5555L11.392 40.5555L12.392 40.5555ZM25.088 40.5555L25.088 41.5555L27.9388 41.5555L25.7127 39.7746L25.088 40.5555ZM47 26.0355L48 26.0355L48 25.0355L47 25.0355L47 26.0355ZM47 34.5795L47 35.5795L48 35.5795L48 34.5795L47 34.5795ZM47 40.5555L48 40.5555L48 39.5555L47 39.5555L47 40.5555ZM47 49.0995L47 50.0995L48 50.0995L48 49.0995L47 49.0995ZM12.392 49.0995L11.392 49.0995L11.392 50.0995L12.392 50.0995L12.392 49.0995ZM12.392 41.5555L25.088 41.5555L25.088 39.5555L12.392 39.5555L12.392 41.5555ZM25.7127 39.7746C24.3258 38.6651 23.568 36.9953 23.568 34.5315L21.568 34.5315C21.568 37.4437 22.4902 39.7579 24.4633 41.3364L25.7127 39.7746ZM23.568 34.5315C23.568 32.314 24.3476 30.4581 25.6886 29.1559C27.0304 27.853 29.0061 27.0355 31.52 27.0355L31.52 25.0355C28.5619 25.0355 26.0616 26.006 24.2954 27.7211C22.5284 29.4369 21.568 31.829 21.568 34.5315L23.568 34.5315ZM31.52 27.0355L47 27.0355L47 25.0355L31.52 25.0355L31.52 27.0355ZM46 26.0355L46 34.5795L48 34.5795L48 26.0355L46 26.0355ZM47 33.5795L34.208 33.5795L34.208 35.5795L47 35.5795L47 33.5795ZM34.208 33.5795C32.8764 33.5795 31.7048 33.8944 30.8502 34.6114C29.9703 35.3497 29.56 36.4021 29.56 37.5795L31.56 37.5795C31.56 36.8849 31.7857 36.4373 32.1357 36.1436C32.5112 35.8286 33.1636 35.5795 34.208 35.5795L34.208 33.5795ZM29.56 37.5795C29.56 38.6303 29.9091 39.6681 30.7582 40.432C31.5953 41.1849 32.7893 41.5555 34.256 41.5555L34.256 39.5555C33.1067 39.5555 32.4527 39.2661 32.0958 38.945C31.7509 38.6349 31.56 38.1847 31.56 37.5795L29.56 37.5795ZM34.256 41.5555L47 41.5555L47 39.5555L34.256 39.5555L34.256 41.5555ZM46 40.5555L46 49.0995L48 49.0995L48 40.5555L46 40.5555ZM47 48.0995L12.392 48.0995L12.392 50.0995L47 50.0995L47 48.0995ZM13.392 49.0995L13.392 40.5555L11.392 40.5555L11.392 49.0995L13.392 49.0995ZM23.216 3.06525L23.216 2.06525L22.216 2.06525L22.216 3.06525L23.216 3.06525ZM30.752 3.06525L31.752 3.06525L31.752 2.06525L30.752 2.06525L30.752 3.06525ZM30.752 10.7933L29.752 10.7933L29.752 11.7933L30.752 11.7933L30.752 10.7933ZM38.24 3.73726L37.8441 2.81898L36.8215 3.25987L37.3694 4.22931L38.24 3.73726ZM44.864 0.881262L45.6844 0.309469L45.2176 -0.360208L44.4681 -0.0370273L44.864 0.881262ZM30.752 19.3373L30.752 18.3373L29.752 18.3373L29.752 19.3373L30.752 19.3373ZM30.752 23.6573L30.752 24.6573L31.752 24.6573L31.752 23.6573L30.752 23.6573ZM23.216 23.6573L22.216 23.6573L22.216 24.6573L23.216 24.6573L23.216 23.6573ZM23.216 19.3373L24.216 19.3373L24.216 18.3373L23.216 18.3373L23.216 19.3373ZM16.4 19.3373L15.4 19.3373L15.4 20.3373L16.4 20.3373L16.4 19.3373ZM16.4 10.7933L16.4 9.79326L15.4 9.79326L15.4 10.7933L16.4 10.7933ZM23.216 10.7933L23.216 11.7933L24.216 11.7933L24.216 10.7933L23.216 10.7933ZM23.216 4.06525L30.752 4.06525L30.752 2.06525L23.216 2.06525L23.216 4.06525ZM29.752 3.06525L29.752 10.7933L31.752 10.7933L31.752 3.06525L29.752 3.06525ZM30.752 11.7933L36.32 11.7933L36.32 9.79326L30.752 9.79326L30.752 11.7933ZM36.32 11.7933C37.7695 11.7933 38.9264 11.4113 39.7006 10.5655C40.4595 9.73639 40.68 8.64487 40.68 7.60126L38.68 7.60126C38.68 8.40564 38.5045 8.91011 38.2254 9.21506C37.9616 9.50322 37.4385 9.79326 36.32 9.79326L36.32 11.7933ZM40.68 7.60126C40.68 6.74826 40.4197 5.91514 40.1142 5.19685C39.8066 4.47371 39.4182 3.78955 39.1106 3.2452L37.3694 4.22931C37.6858 4.78896 38.0174 5.3768 38.2738 5.97966C38.5323 6.58736 38.68 7.13424 38.68 7.60126L40.68 7.60126ZM38.6359 4.65554L45.2599 1.79954L44.4681 -0.0370273L37.8441 2.81898L38.6359 4.65554ZM44.0436 1.45305C45.6035 3.69113 46.624 5.87131 46.624 9.80925L48.624 9.80925C48.624 5.39519 47.4365 2.82338 45.6844 0.309469L44.0436 1.45305ZM46.624 9.80925C46.624 12.9807 45.6594 15.0557 44.1629 16.3565C42.6417 17.6789 40.4155 18.3373 37.64 18.3373L37.64 20.3373C40.6965 20.3373 43.4623 19.6156 45.475 17.866C47.5126 16.0948 48.624 13.4058 48.624 9.80925L46.624 9.80925ZM37.64 18.3373L30.752 18.3373L30.752 20.3373L37.64 20.3373L37.64 18.3373ZM29.752 19.3373L29.752 23.6573L31.752 23.6573L31.752 19.3373L29.752 19.3373ZM30.752 22.6573L23.216 22.6573L23.216 24.6573L30.752 24.6573L30.752 22.6573ZM24.216 23.6573L24.216 19.3373L22.216 19.3373L22.216 23.6573L24.216 23.6573ZM23.216 18.3373L16.4 18.3373L16.4 20.3373L23.216 20.3373L23.216 18.3373ZM17.4 19.3373L17.4 10.7933L15.4 10.7933L15.4 19.3373L17.4 19.3373ZM16.4 11.7933L23.216 11.7933L23.216 9.79326L16.4 9.79326L16.4 11.7933ZM24.216 10.7933L24.216 3.06525L22.216 3.06525L22.216 10.7933L24.216 10.7933Z" fill="url(#paint0_linear_7159_64821)" mask="url(#path-1-outside-1_7159_64821)"/>
<mask id="path-3-outside-2_7159_64821" maskUnits="userSpaceOnUse" x="69" y="2.00001" width="38" height="126" fill="black">
<rect fill="white" x="69" y="2.00001" width="38" height="126"/>
<path d="M71.4 87.84L105 87.84L105 96.96L83.976 96.96L101.88 102.36L101.88 112.08L83.976 117.48L105 117.48L105 126.6L71.4 126.6L71.4 113.952L91.608 107.208L71.4 100.488L71.4 87.84ZM80.568 71.4851C80.568 64.0211 85.872 58.5251 93.096 58.5251C100.32 58.5251 105.624 64.0211 105.624 71.4851C105.624 78.9491 100.32 84.4451 93.096 84.4451C85.872 84.4451 80.568 78.9491 80.568 71.4851ZM88.512 71.4851C88.512 73.9331 90.432 75.7091 93.096 75.7091C95.76 75.7091 97.68 73.9331 97.68 71.4851C97.68 69.0371 95.76 67.2611 93.096 67.2611C90.432 67.2611 88.512 69.0371 88.512 71.4851ZM80.568 45.6596C80.568 42.9236 81.528 40.9796 82.944 39.5636L70.44 39.5636L70.44 31.0196L105 31.0196L105 39.2036L102.912 39.2036C104.496 40.6196 105.624 42.6836 105.624 45.6836C105.624 52.0436 99.984 56.5076 93.072 56.5076C86.208 56.5076 80.568 52.0436 80.568 45.6596ZM88.512 43.4756C88.512 45.9236 90.432 47.6996 93.096 47.6996C95.76 47.6996 97.68 45.9236 97.68 43.4756C97.68 41.0276 95.76 39.2516 93.096 39.2516C90.432 39.2516 88.512 41.0276 88.512 43.4756ZM80.568 15.5539C80.568 8.35388 85.656 3.40988 93.096 3.38588C93.912 3.38588 95.16 3.45788 95.64 3.55388L95.64 19.0819C97.56 18.5059 98.52 17.0659 98.52 14.8099C98.52 13.2739 97.872 11.6179 96.6 10.3219L101.496 4.46588C103.992 6.76988 105.624 10.5139 105.624 15.2179C105.624 22.8259 100.68 27.9139 93.312 27.9139C85.776 27.9139 80.568 22.8739 80.568 15.5539ZM87.744 15.5059C87.744 17.3299 88.632 18.5059 90.48 19.0579L90.48 11.9059C88.632 12.5299 87.744 13.7299 87.744 15.5059Z"/>
</mask>
<path d="M71.4 87.84L71.4 86.84L70.4 86.84L70.4 87.84L71.4 87.84ZM105 87.84L106 87.84L106 86.84L105 86.84L105 87.84ZM105 96.96L105 97.96L106 97.96L106 96.96L105 96.96ZM83.976 96.96L83.976 95.96L83.6872 97.9174L83.976 96.96ZM101.88 102.36L102.88 102.36L102.88 101.617L102.169 101.403L101.88 102.36ZM101.88 112.08L102.169 113.037L102.88 112.823L102.88 112.08L101.88 112.08ZM83.976 117.48L83.6872 116.523L83.976 118.48L83.976 117.48ZM105 117.48L106 117.48L106 116.48L105 116.48L105 117.48ZM105 126.6L105 127.6L106 127.6L106 126.6L105 126.6ZM71.4 126.6L70.4 126.6L70.4 127.6L71.4 127.6L71.4 126.6ZM71.4 113.952L71.0834 113.003L70.4 113.232L70.4 113.952L71.4 113.952ZM91.608 107.208L91.9246 108.157L94.772 107.206L91.9235 106.259L91.608 107.208ZM71.4 100.488L70.4 100.488L70.4 101.209L71.0844 101.437L71.4 100.488ZM71.4 88.84L105 88.84L105 86.84L71.4 86.84L71.4 88.84ZM104 87.84L104 96.96L106 96.96L106 87.84L104 87.84ZM105 95.96L83.976 95.96L83.976 97.96L105 97.96L105 95.96ZM83.6872 97.9174L101.591 103.317L102.169 101.403L84.2648 96.0026L83.6872 97.9174ZM100.88 102.36L100.88 112.08L102.88 112.08L102.88 102.36L100.88 102.36ZM101.591 111.123L83.6872 116.523L84.2648 118.437L102.169 113.037L101.591 111.123ZM83.976 118.48L105 118.48L105 116.48L83.976 116.48L83.976 118.48ZM104 117.48L104 126.6L106 126.6L106 117.48L104 117.48ZM105 125.6L71.4 125.6L71.4 127.6L105 127.6L105 125.6ZM72.4 126.6L72.4 113.952L70.4 113.952L70.4 126.6L72.4 126.6ZM71.7166 114.901L91.9246 108.157L91.2914 106.259L71.0834 113.003L71.7166 114.901ZM91.9235 106.259L71.7155 99.5391L71.0844 101.437L91.2924 108.157L91.9235 106.259ZM72.4 100.488L72.4 87.84L70.4 87.84L70.4 100.488L72.4 100.488ZM81.568 71.4851C81.568 64.5407 86.4564 59.5251 93.096 59.5251L93.096 57.5251C85.2876 57.5251 79.568 63.5015 79.568 71.4851L81.568 71.4851ZM93.096 59.5251C99.7356 59.5251 104.624 64.5407 104.624 71.4851L106.624 71.4851C106.624 63.5015 100.904 57.5251 93.096 57.5251L93.096 59.5251ZM104.624 71.4851C104.624 78.4295 99.7356 83.4451 93.096 83.4451L93.096 85.4451C100.904 85.4451 106.624 79.4687 106.624 71.4851L104.624 71.4851ZM93.096 83.4451C86.4564 83.4451 81.568 78.4295 81.568 71.4851L79.568 71.4851C79.568 79.4687 85.2876 85.4451 93.096 85.4451L93.096 83.4451ZM87.512 71.4851C87.512 74.5598 89.9572 76.7091 93.096 76.7091L93.096 74.7091C90.9068 74.7091 89.512 73.3064 89.512 71.4851L87.512 71.4851ZM93.096 76.7091C96.2348 76.7091 98.68 74.5598 98.68 71.4851L96.68 71.4851C96.68 73.3064 95.2852 74.7091 93.096 74.7091L93.096 76.7091ZM98.68 71.4851C98.68 68.4104 96.2348 66.2611 93.096 66.2611L93.096 68.2611C95.2852 68.2611 96.68 69.6638 96.68 71.4851L98.68 71.4851ZM93.096 66.2611C89.9572 66.2611 87.512 68.4104 87.512 71.4851L89.512 71.4851C89.512 69.6638 90.9068 68.2611 93.096 68.2611L93.096 66.2611ZM82.944 39.5636L83.6511 40.2707L85.3582 38.5636L82.944 38.5636L82.944 39.5636ZM70.44 39.5636L69.44 39.5636L69.44 40.5636L70.44 40.5636L70.44 39.5636ZM70.44 31.0196L70.44 30.0196L69.44 30.0196L69.44 31.0196L70.44 31.0196ZM105 31.0196L106 31.0196L106 30.0196L105 30.0196L105 31.0196ZM105 39.2036L105 40.2036L106 40.2036L106 39.2036L105 39.2036ZM102.912 39.2036L102.912 38.2036L100.293 38.2036L102.246 39.9492L102.912 39.2036ZM81.568 45.6596C81.568 43.1897 82.422 41.4998 83.6511 40.2707L82.2369 38.8565C80.634 40.4594 79.568 42.6575 79.568 45.6596L81.568 45.6596ZM82.944 38.5636L70.44 38.5636L70.44 40.5636L82.944 40.5636L82.944 38.5636ZM71.44 39.5636L71.44 31.0196L69.44 31.0196L69.44 39.5636L71.44 39.5636ZM70.44 32.0196L105 32.0196L105 30.0196L70.44 30.0196L70.44 32.0196ZM104 31.0196L104 39.2036L106 39.2036L106 31.0196L104 31.0196ZM105 38.2036L102.912 38.2036L102.912 40.2036L105 40.2036L105 38.2036ZM102.246 39.9492C103.619 41.1771 104.624 42.9708 104.624 45.6836L106.624 45.6836C106.624 42.3965 105.373 40.0621 103.578 38.4581L102.246 39.9492ZM104.624 45.6836C104.624 51.3355 99.6017 55.5076 93.072 55.5076L93.072 57.5076C100.366 57.5076 106.624 52.7518 106.624 45.6836L104.624 45.6836ZM93.072 55.5076C86.5945 55.5076 81.568 51.339 81.568 45.6596L79.568 45.6596C79.568 52.7482 85.8215 57.5076 93.072 57.5076L93.072 55.5076ZM87.512 43.4756C87.512 46.5503 89.9572 48.6996 93.096 48.6996L93.096 46.6996C90.9068 46.6996 89.512 45.2969 89.512 43.4756L87.512 43.4756ZM93.096 48.6996C96.2348 48.6996 98.68 46.5503 98.68 43.4756L96.68 43.4756C96.68 45.2969 95.2852 46.6996 93.096 46.6996L93.096 48.6996ZM98.68 43.4756C98.68 40.4009 96.2348 38.2516 93.096 38.2516L93.096 40.2516C95.2852 40.2516 96.68 41.6543 96.68 43.4756L98.68 43.4756ZM93.096 38.2516C89.9572 38.2516 87.512 40.4009 87.512 43.4756L89.512 43.4756C89.512 41.6543 90.9068 40.2516 93.096 40.2516L93.096 38.2516ZM93.096 3.38588L93.096 2.38588L93.0928 2.38589L93.096 3.38588ZM95.64 3.55388L96.64 3.55388L96.64 2.73408L95.8361 2.5733L95.64 3.55388ZM95.64 19.0819L94.64 19.0819L94.64 20.4259L95.9273 20.0397L95.64 19.0819ZM96.6 10.3219L95.8328 9.68046L95.2516 10.3756L95.8863 11.0223L96.6 10.3219ZM101.496 4.46588L102.174 3.73108L101.402 3.01867L100.729 3.82446L101.496 4.46588ZM90.48 19.0579L90.1938 20.016L91.48 20.4002L91.48 19.0579L90.48 19.0579ZM90.48 11.9059L91.48 11.9059L91.48 10.5127L90.1601 10.9584L90.48 11.9059ZM81.568 15.5539C81.568 12.1977 82.7488 9.42923 84.7388 7.49618C86.7313 5.56064 89.6034 4.39715 93.0992 4.38588L93.0928 2.38589C89.1486 2.39861 85.7567 3.71911 83.3452 6.06158C80.9312 8.40653 79.568 11.7101 79.568 15.5539L81.568 15.5539ZM93.096 4.38588C93.9022 4.38588 95.0667 4.45903 95.4439 4.53446L95.8361 2.5733C95.2533 2.45673 93.9218 2.38588 93.096 2.38588L93.096 4.38588ZM94.64 3.55388L94.64 19.0819L96.64 19.0819L96.64 3.55388L94.64 3.55388ZM95.9273 20.0397C97.0727 19.6961 98.0011 19.0692 98.6299 18.1338C99.2508 17.2102 99.52 16.075 99.52 14.8099L97.52 14.8099C97.52 15.8008 97.3092 16.5135 96.9701 17.018C96.6389 17.5106 96.1273 17.8917 95.3526 18.1241L95.9273 20.0397ZM99.52 14.8099C99.52 13.0007 98.7612 11.0962 97.3137 9.62141L95.8863 11.0223C96.9828 12.1395 97.52 13.5471 97.52 14.8099L99.52 14.8099ZM97.3672 10.9633L102.263 5.1073L100.729 3.82446L95.8328 9.68046L97.3672 10.9633ZM100.818 5.20068C103.073 7.2827 104.624 10.7408 104.624 15.2179L106.624 15.2179C106.624 10.2869 104.911 6.25706 102.174 3.73108L100.818 5.20068ZM104.624 15.2179C104.624 18.8023 103.463 21.7133 101.513 23.7225C99.5663 25.7291 96.7582 26.9139 93.312 26.9139L93.312 28.9139C97.2337 28.9139 100.582 27.5546 102.949 25.1153C105.313 22.6785 106.624 19.2414 106.624 15.2179L104.624 15.2179ZM93.312 26.9139C89.7705 26.9139 86.8448 25.7331 84.81 23.7608C82.7776 21.791 81.568 18.9683 81.568 15.5539L79.568 15.5539C79.568 19.4594 80.9624 22.8168 83.418 25.1969C85.8712 27.5747 89.3175 28.9139 93.312 28.9139L93.312 26.9139ZM86.744 15.5059C86.744 16.5833 87.0088 17.5628 87.6253 18.3672C88.2391 19.168 89.1264 19.6972 90.1938 20.016L90.7662 18.0997C89.9856 17.8665 89.5049 17.5318 89.2127 17.1505C88.9232 16.7729 88.744 16.2524 88.744 15.5059L86.744 15.5059ZM91.48 19.0579L91.48 11.9059L89.48 11.9059L89.48 19.0579L91.48 19.0579ZM90.1601 10.9584C89.0995 11.3165 88.2253 11.8708 87.6209 12.6713C87.0121 13.4776 86.744 14.4454 86.744 15.5059L88.744 15.5059C88.744 14.7904 88.9198 14.2701 89.2171 13.8764C89.5187 13.4769 90.0124 13.1192 90.7999 12.8533L90.1601 10.9584Z" fill="url(#paint1_linear_7159_64821)" mask="url(#path-3-outside-2_7159_64821)"/>
<defs>
<linearGradient id="paint0_linear_7159_64821" x1="58" y1="129.867" x2="99.8198" y2="71.4086" gradientUnits="userSpaceOnUse">
<stop stop-color="#CA86FF"/>
<stop offset="1" stop-color="#85E2FD"/>
</linearGradient>
<linearGradient id="paint1_linear_7159_64821" x1="116" y1="129.854" x2="156.96" y2="71.6958" gradientUnits="userSpaceOnUse">
<stop stop-color="#CA86FF"/>
<stop offset="1" stop-color="#85E2FD"/>
</linearGradient>
</defs>
</svg>
