<svg width="49" height="49" viewBox="0 0 49 49" fill="none" xmlns="http://www.w3.org/2000/svg">
<path d="M24.3434 48.6868C10.9179 48.6868 0 37.7689 0 24.3434C0 10.9179 10.9179 0 24.3434 0C37.7689 0 48.6868 10.9179 48.6868 24.3434C48.6868 37.7689 37.7689 48.6868 24.3434 48.6868ZM24.3434 0.770165C11.343 0.770165 0.770165 11.343 0.770165 24.3434C0.770165 37.3438 11.343 47.9166 24.3434 47.9166C37.3438 47.9166 47.9166 37.3438 47.9166 24.3434C47.9166 11.343 37.3438 0.770165 24.3434 0.770165Z" fill="white"/>
<path d="M22.236 29.1059L22.5564 29.5434C22.8337 29.8699 22.8829 29.8761 23.3081 29.8638H24.1029C24.5404 29.8638 24.5526 29.8145 24.8299 29.5249C24.9531 29.4017 25.0579 29.2599 25.175 29.1306L24.4541 28.5452L23.6839 29.1614L22.9137 28.5452L22.2298 29.1059H22.236ZM8.78586 13.105C6.69718 16.7217 6.1796 21.472 7.30096 25.6741C9.91953 34.2568 14.6761 37.319 17.5411 38.6498C18.4221 39.0565 19.1861 39.4261 20.0549 39.8513C16.66 39.2351 13.7642 37.8365 11.2381 35.2795C8.78585 32.7965 7.06681 29.5372 6.11796 25.939C5.66203 24.2508 5.4587 22.4825 5.49566 20.7265C5.26769 21.9033 5.15067 23.1171 5.15067 24.3617C5.15067 29.6728 7.30097 34.4786 10.7698 37.9536C13.3206 40.5105 16.5861 42.3466 20.2459 43.1414C21.5336 40.3873 20.5971 35.8587 18.7241 32.661C16.2596 30.5846 14.3926 27.9106 13.376 24.8423C12.877 23.3389 12.5874 21.7863 12.5443 20.2028C12.5443 19.981 12.5443 19.7592 12.5443 19.5312C12.5443 19.254 12.5689 18.9829 12.5689 18.7056H12.6244C13.6102 18.5762 14.9472 18.6748 16.3088 18.8966C17.9539 19.1616 19.6359 19.5928 20.7881 20.0118C21.1147 20.1289 21.3981 20.2459 21.626 20.3568C21.8478 20.4677 22.0203 20.5725 22.1312 20.6649L22.3099 20.8189C20.4985 20.4924 18.6748 20.2213 16.8387 20.0981C15.7666 20.0241 14.75 20.0056 13.8443 20.0611C13.8751 21.5583 14.1462 23.0124 14.6145 24.4356C15.9268 28.4158 18.798 31.6259 22.4455 33.6407C23.5915 34.2691 23.7024 34.2629 24.8422 33.6283C26.8077 32.5378 28.4589 31.1453 29.913 29.4386C29.4201 31.3363 26.8817 34.0226 25.175 34.9345C24.1091 35.5014 23.2218 35.5322 22.1497 34.9653C21.7184 34.7373 21.2933 34.4909 20.8744 34.2321C21.4905 35.8217 21.9649 37.7441 22.0265 39.6787C22.0758 41.2129 21.8602 42.5191 21.2687 43.8623C21.2133 43.9793 21.0099 44.4291 20.9545 44.5462C16.6662 43.8315 12.8338 41.7797 9.88869 38.8285C6.1919 35.1255 3.8999 30.0055 3.8999 24.3555C3.8999 13.9552 11.657 5.34785 21.7061 4.05397L21.663 4.08477C18.9335 5.3232 16.087 7.10384 14.1462 9.30343C11.5831 12.2177 10.0982 16.1918 10.0982 20.0241C10.4125 28.5883 14.2448 32.433 16.6908 34.2691C17.4425 34.8298 18.0894 35.335 18.8288 35.9142C15.6742 34.6388 13.222 32.7288 11.4229 29.8145C9.6792 26.9864 8.85365 23.5854 8.87213 20.0241C8.87213 16.1055 10.3077 12.076 12.7969 8.99537C11.2566 10.1537 9.90105 11.54 8.77353 13.105H8.78586ZM24.8361 3.87531C25.3228 3.90611 26.5613 4.01086 27.0419 4.07247C36.9924 5.38484 44.7864 13.9121 44.7864 24.3555C44.7864 34.799 36.8014 43.6713 26.4196 44.7187C26.1177 44.7495 25.5631 44.7865 25.2612 44.805C25.3352 44.7249 25.4153 44.6016 25.4769 44.5031C26.1361 43.5173 26.82 42.5438 27.4423 41.5333C29.2784 38.5389 30.6216 35.3165 30.942 31.7861C31.3055 27.7936 30.2519 24.0413 27.3129 21.2133C24.1152 18.1388 19.0136 16.8942 14.7376 16.3828C14.4049 16.3458 13.6779 16.278 13.1542 16.2349L12.723 16.198L13.0371 16.0993C15.2983 15.3785 18.1141 15.5449 20.8066 16.2842C23.6778 17.079 26.4195 18.5269 28.2186 20.2829C31.4533 23.3944 32.6425 27.5163 32.242 31.9093C31.9154 35.5137 30.03 40.3565 27.7504 43.277C28.7978 43.0921 29.8144 42.8149 30.7941 42.4698C31.5396 41.2253 32.2235 39.9683 32.7903 38.5882C33.5667 36.7028 34.1273 34.5895 34.3676 31.9709C34.879 26.3703 33.1909 21.1825 28.5884 17.7075C24.2878 14.4605 19.2477 13.7272 14.0537 13.0988L14.3433 13.0064C16.395 12.3533 19.0691 12.5073 21.7 13.1481C24.6143 13.8566 27.4731 15.169 29.377 16.6723C34.3368 20.4184 36.2161 26.0376 35.6615 32.088C35.5753 33.2402 35.1563 35.6308 34.4354 37.8119C33.9117 39.3953 33.1662 40.8617 32.6425 41.6997C33.8809 41.1082 35.0392 40.3873 36.1113 39.5493C37.0848 37.2142 37.6763 35.0701 37.9412 32.316C39.2659 18.7549 29.4571 10.7513 16.6354 9.71006C27.5286 8.0157 37.855 16.2411 39.1858 27.0788C39.4076 28.8656 39.4138 30.6709 39.2412 32.4392C39.0995 33.8748 38.8099 35.9758 38.1507 37.7194C39.4507 36.3763 40.5536 34.8421 41.4162 33.1601C41.6811 31.4164 41.792 29.5803 41.4901 27.0234C41.1882 24.4541 40.4304 21.8848 39.3522 19.6113C37.5284 15.7605 35.2548 13.1296 32.5254 11.121C29.3461 8.77973 25.5323 7.34413 20.8127 6.61094C23.8995 6.2351 26.8262 6.82659 29.531 8.0034C37.9597 11.6694 42.8641 20.7635 42.8826 29.3647C43.3693 27.6765 43.5418 26.2039 43.5418 24.3555C43.5418 19.6483 41.8105 15.4401 39.0009 12.0575C34.5525 6.7095 28.9149 4.88576 24.8422 3.86914L24.8361 3.87531ZM22.9199 27.2021C23.2095 27.2021 23.4806 27.467 23.6901 27.6518C23.8996 27.4732 24.1706 27.2021 24.4602 27.2021C24.7745 27.2021 25.0333 27.4917 25.2612 27.6827C25.7788 28.114 26.3271 28.6561 26.8323 29.1244L25.446 30.6154C25.2612 30.8249 25.1565 30.9358 25.0148 30.9913C24.8731 31.0529 24.7129 31.0529 24.3986 31.0591H22.8952C22.3715 31.0591 22.3654 31.0591 21.9649 30.6463C21.4967 30.178 21.0222 29.6235 20.5663 29.1306C21.0839 28.6561 21.663 28.0647 22.199 27.6272C22.4146 27.4547 22.618 27.2082 22.9199 27.2082V27.2021Z" fill="white"/>
</svg>
