<svg xmlns="http://www.w3.org/2000/svg" width="37" height="36" viewBox="0 0 37 36" fill="none">
  <path d="M10.7578 33H25.7578C26.9513 33 28.0959 32.5259 28.9398 31.682C29.7837 30.8381 30.2578 29.6935 30.2578 28.5V7.5C30.2578 6.30652 29.7837 5.16193 28.9398 4.31802C28.0959 3.4741 26.9513 3 25.7578 3H10.7578C9.56434 3 8.41975 3.4741 7.57583 4.31802C6.73192 5.16193 6.25781 6.30652 6.25781 7.5V28.5C6.25781 29.6935 6.73192 30.8381 7.57583 31.682C8.41975 32.5259 9.56434 33 10.7578 33ZM9.25781 7.5C9.25781 7.10217 9.41585 6.72064 9.69715 6.43934C9.97846 6.15803 10.36 6 10.7578 6H25.7578C26.1556 6 26.5372 6.15803 26.8185 6.43934C27.0998 6.72064 27.2578 7.10217 27.2578 7.5V28.5C27.2578 28.8978 27.0998 29.2794 26.8185 29.5607C26.5372 29.842 26.1556 30 25.7578 30H10.7578C10.36 30 9.97846 29.842 9.69715 29.5607C9.41585 29.2794 9.25781 28.8978 9.25781 28.5V7.5Z" fill="url(#paint0_linear_642_2704)"/>
  <path d="M18.2578 9C17.0152 9 16.0078 10.0074 16.0078 11.25C16.0078 12.4926 17.0152 13.5 18.2578 13.5C19.5005 13.5 20.5078 12.4926 20.5078 11.25C20.5078 10.0074 19.5005 9 18.2578 9Z" fill="white"/>
  <path d="M14.5078 27H22.0078C22.4056 27 22.7872 26.842 23.0685 26.5607C23.3498 26.2794 23.5078 25.8978 23.5078 25.5C23.5078 25.1022 23.3498 24.7206 23.0685 24.4393C22.7872 24.158 22.4056 24 22.0078 24H14.5078C14.11 24 13.7285 24.158 13.4472 24.4393C13.1658 24.7206 13.0078 25.1022 13.0078 25.5C13.0078 25.8978 13.1658 26.2794 13.4472 26.5607C13.7285 26.842 14.11 27 14.5078 27Z" fill="white"/>
  <defs>
    <linearGradient id="paint0_linear_642_2704" x1="18.2578" y1="33" x2="18.2578" y2="3" gradientUnits="userSpaceOnUse">
      <stop stop-color="#FFA1A4"/>
      <stop offset="1" stop-color="#EC1F26"/>
    </linearGradient>
  </defs>
</svg>