<svg width="33" height="32" viewBox="0 0 33 32" fill="none" xmlns="http://www.w3.org/2000/svg">
<path d="M27.833 12.666C29.833 12.666 29.833 13.3327 29.833 14.666V17.3327C29.833 18.666 29.833 19.3327 27.833 19.3327" stroke="#FF0037" stroke-width="2.13333" stroke-linecap="round" stroke-linejoin="round"/>
<path d="M9.00684 13.333C9.44684 15.0797 9.44684 16.9197 9.00684 18.6663" stroke="#FF0037" stroke-width="2.13333" stroke-linecap="round" stroke-linejoin="round"/>
<path d="M13.6738 13.333C14.1138 15.0797 14.1138 16.9197 13.6738 18.6663" stroke="#FF0037" stroke-width="2.13333" stroke-linecap="round" stroke-linejoin="round"/>
<path d="M18.3398 13.333C18.7798 15.0797 18.7798 16.9197 18.3398 18.6663" stroke="#FF0037" stroke-width="2.13333" stroke-linecap="round" stroke-linejoin="round"/>
<path d="M17.8327 25.3327H9.83268C4.49935 25.3327 3.16602 23.9993 3.16602 18.666V13.3327C3.16602 7.99935 4.49935 6.66602 9.83268 6.66602H17.8327C23.166 6.66602 24.4993 7.99935 24.4993 13.3327V18.666C24.4993 23.9993 23.166 25.3327 17.8327 25.3327Z" stroke="#FF0037" stroke-width="2.13333" stroke-linecap="round" stroke-linejoin="round"/>
</svg>
