<svg width="33" height="32" viewBox="0 0 33 32" fill="none" xmlns="http://www.w3.org/2000/svg">
<path d="M29.7927 24.4396C29.7927 24.9196 29.686 25.4129 29.4593 25.8929C29.2327 26.3729 28.9394 26.8263 28.5527 27.2529C27.8994 27.9729 27.1793 28.4929 26.366 28.8263C25.566 29.1596 24.6994 29.3329 23.766 29.3329C22.406 29.3329 20.9527 29.0129 19.4193 28.3596C17.886 27.7063 16.3527 26.8263 14.8327 25.7196C13.2993 24.5996 11.846 23.3596 10.4593 21.9863C9.08602 20.5996 7.84602 19.1463 6.73935 17.6263C5.64602 16.1063 4.76602 14.5863 4.12602 13.0796C3.48602 11.5596 3.16602 10.1063 3.16602 8.71959C3.16602 7.81293 3.32602 6.94626 3.64602 6.14626C3.96602 5.33293 4.47268 4.58626 5.17935 3.91959C6.03268 3.07959 6.96602 2.66626 7.95268 2.66626C8.32602 2.66626 8.69935 2.74626 9.03268 2.90626C9.37935 3.06626 9.68602 3.30626 9.92602 3.65293L13.0193 8.01293C13.2593 8.34626 13.4327 8.65293 13.5527 8.94626C13.6727 9.22626 13.7393 9.50626 13.7393 9.75959C13.7393 10.0796 13.646 10.3996 13.4593 10.7063C13.286 11.0129 13.0327 11.3329 12.7127 11.6529L11.6993 12.7063C11.5527 12.8529 11.486 13.0263 11.486 13.2396C11.486 13.3463 11.4993 13.4396 11.526 13.5463C11.566 13.6529 11.606 13.7329 11.6327 13.8129C11.8727 14.2529 12.286 14.8263 12.8727 15.5196C13.4727 16.2129 14.1127 16.9196 14.806 17.6263C15.526 18.3329 16.2193 18.9863 16.926 19.5863C17.6193 20.1729 18.1927 20.5729 18.646 20.8129C18.7127 20.8396 18.7927 20.8796 18.886 20.9196C18.9927 20.9596 19.0993 20.9729 19.2193 20.9729C19.446 20.9729 19.6193 20.8929 19.766 20.7463L20.7793 19.7463C21.1127 19.4129 21.4327 19.1596 21.7393 18.9996C22.046 18.8129 22.3527 18.7196 22.686 18.7196C22.9393 18.7196 23.206 18.7729 23.4993 18.8929C23.7927 19.0129 24.0994 19.1863 24.4327 19.4129L28.846 22.5463C29.1927 22.7863 29.4327 23.0663 29.5793 23.3996C29.7127 23.7329 29.7927 24.0663 29.7927 24.4396Z" stroke="white" stroke-width="2.13333" stroke-miterlimit="10"/>
</svg>
