<svg width="33" height="32" viewBox="0 0 33 32" fill="none" xmlns="http://www.w3.org/2000/svg">
<path d="M9.51421 29.3327H23.4875C27.1675 29.3327 28.6342 27.0793 28.8075 24.3327L29.5009 13.3193C29.6875 10.4393 27.3942 7.99935 24.5009 7.99935C23.6875 7.99935 22.9409 7.53268 22.5675 6.81268L21.6075 4.87935C20.9942 3.66602 19.3942 2.66602 18.0342 2.66602H14.9809C13.6075 2.66602 12.0075 3.66602 11.3942 4.87935L10.4342 6.81268C10.0609 7.53268 9.31421 7.99935 8.50087 7.99935C5.60754 7.99935 3.31421 10.4393 3.50087 13.3193L4.19421 24.3327C4.35421 27.0793 5.83421 29.3327 9.51421 29.3327Z" stroke="#FF0037" stroke-width="2.13333" stroke-linecap="round" stroke-linejoin="round"/>
<path d="M14.501 10.666H18.501" stroke="#FF0037" stroke-width="2.13333" stroke-linecap="round" stroke-linejoin="round"/>
<path d="M16.5003 23.9997C18.887 23.9997 20.8337 22.053 20.8337 19.6663C20.8337 17.2797 18.887 15.333 16.5003 15.333C14.1137 15.333 12.167 17.2797 12.167 19.6663C12.167 22.053 14.1137 23.9997 16.5003 23.9997Z" stroke="#FF0037" stroke-width="2.13333" stroke-linecap="round" stroke-linejoin="round"/>
</svg>
