<svg width="24" height="24" viewBox="0 0 24 24" fill="none" xmlns="http://www.w3.org/2000/svg">
<path d="M18.1384 11.0415C17.7581 10.8935 17.5031 10.5284 17.5031 10.0775V9.9789C17.5031 9.38733 17.2591 9.14088 16.6747 9.14088H16.5774C15.9922 9.14088 15.5537 8.69718 15.5537 8.10561V8.00703C15.5537 7.41547 15.3097 7.16902 14.7245 7.16902H14.6272C14.0427 7.16902 13.6035 6.72532 13.6035 6.13385V6.03517C13.6035 5.4437 14.0427 5 14.6272 5H14.7245C15.3097 5 15.7482 5.4437 15.7482 6.03517V6.13385C15.7482 6.72532 15.9922 6.97186 16.5774 6.97186H16.6747C17.2591 6.97186 17.6984 7.41547 17.6984 8.00703V8.10561C17.6984 8.69718 17.9416 8.94363 18.5268 8.94363H18.6241C19.2093 8.94363 19.6478 9.38733 19.6478 9.9789V10.0775C19.6478 10.6198 19.9404 11.0141 20.5249 11.0141H20.5736C21.0851 11.0141 21.5 11.4334 21.5 11.9507V12.0493C21.5 12.5666 21.0851 12.9859 20.5736 12.9859H20.5249C19.9404 12.9859 19.6478 13.3802 19.6478 13.9225V14.0211C19.6478 14.6127 19.2093 15.0564 18.6241 15.0564H18.5268C17.9416 15.0564 17.6984 15.3028 17.6984 15.8944V15.993C17.6984 16.5845 17.2591 17.0281 16.6747 17.0281H16.5774C15.9922 17.0281 15.7482 17.2747 15.7482 17.8662V17.9648C15.7482 18.5563 15.3097 19 14.7245 19H14.6272C14.0427 19 13.6035 18.5563 13.6035 17.9648V17.8662C13.6035 17.2747 14.0427 16.831 14.6272 16.831H14.7245C15.3097 16.831 15.5537 16.5845 15.5537 15.993V15.8944C15.5537 15.3028 15.9922 14.8591 16.5774 14.8591H16.6747C17.2591 14.8591 17.5031 14.6127 17.5031 14.0211V13.9225C17.5031 13.4622 17.7684 13.0916 18.162 12.9497H2.4434C1.92232 12.9497 1.5 12.5225 1.5 11.9956C1.5 11.4687 1.92232 11.0415 2.4434 11.0415H18.1384Z" fill="#FF0037"/>
</svg>
