<svg width="32" height="32" viewBox="0 0 32 32" fill="none" xmlns="http://www.w3.org/2000/svg">
<path d="M18.2675 14.2617C17.2529 14.2617 16.3735 14.9616 16.1025 15.8021H19.8234C19.8234 14.892 19.2148 14.2617 18.2675 14.2617Z" fill="#FF073C"/>
<path d="M15.9664 6C7.17131 6 0 9.78061 0 15.4509C0 19.091 2.97653 22.3116 7.44164 24.1316L6.96827 26.7921C20.0254 27.9122 32 23.6418 32 15.5908C31.9321 8.80034 23.1377 6 15.9664 6Z" fill="#FF073C"/>
<path d="M17.4972 20.9646C19.324 20.9646 20.8119 20.0545 21.4889 18.3743H19.2561C18.85 18.9344 18.3766 19.2141 17.6324 19.2141C16.685 19.2141 15.9408 18.5142 15.8735 17.6042H21.6914C22.5708 14.8038 21.1501 12.6338 18.3088 12.6338C16.0086 12.6338 14.3849 13.964 13.9788 16.2043C13.5061 18.9344 14.994 20.9646 17.4972 20.9646ZM18.3094 14.3836C19.324 14.3836 19.9331 15.0139 19.9331 15.9239H16.2123C16.4147 15.0842 17.2269 14.3836 18.3094 14.3836Z" fill="#F8F6F3"/>
<path d="M12.2205 20.9653H12.7617L13.1678 18.9351H12.6945C11.9502 18.9351 11.612 18.3751 11.7471 17.5353L12.2884 14.5951H13.98L14.3861 12.5649H12.6939L13.0321 10.605H10.8671L9.58156 17.4656C9.24396 19.4952 10.0555 20.9653 12.2205 20.9653Z" fill="#F8F6F3"/>
<path d="M25.1425 20.9647H25.7516L26.1577 18.9345H25.6843C24.9401 18.9345 24.534 18.3745 24.737 17.5347L26.0225 10.6038H23.8576L22.572 17.4644C22.1654 19.6345 23.1127 20.9647 25.1425 20.9647Z" fill="#F8F6F3"/>
<path d="M10.0554 10.6743H7.89045L7.55225 12.7045H9.64934L10.0554 10.6743Z" fill="#F8F6F3"/>
<path d="M9.51437 13.5427H7.3494L5.92871 20.9635H8.09368L9.51437 13.5427Z" fill="#F8F6F3"/>
</svg>
