<svg width="33" height="33" viewBox="0 0 33 33" fill="none" xmlns="http://www.w3.org/2000/svg">
<path d="M16.5 21.5938C18.7091 21.5938 20.5 19.8029 20.5 17.5938C20.5 15.3846 18.7091 13.5938 16.5 13.5938C14.2909 13.5938 12.5 15.3846 12.5 17.5938C12.5 19.8029 14.2909 21.5938 16.5 21.5938Z" stroke="white" stroke-width="2"/>
<path d="M13.5377 28.2579H19.463C23.6243 28.2579 25.7057 28.2579 27.2003 27.2779C27.8452 26.8552 28.4007 26.3097 28.835 25.6725C29.8337 24.2059 29.8337 22.1619 29.8337 18.0765C29.8337 13.9899 29.8337 11.9472 28.835 10.4805C28.4007 9.84336 27.8453 9.29788 27.2003 8.87521C26.2403 8.24454 25.0377 8.01921 23.1963 7.93921C22.3177 7.93921 21.5617 7.28587 21.3897 6.43921C21.2582 5.81903 20.9167 5.26326 20.4228 4.86581C19.9289 4.46836 19.3129 4.25362 18.679 4.25787H14.3217C13.0043 4.25787 11.8697 5.17121 11.611 6.43921C11.439 7.28587 10.683 7.93921 9.80433 7.93921C7.96433 8.01921 6.76166 8.24587 5.80033 8.87521C5.15582 9.29796 4.60082 9.84344 4.16699 10.4805C3.16699 11.9472 3.16699 13.9899 3.16699 18.0765C3.16699 22.1619 3.16699 24.2045 4.16566 25.6725C4.59766 26.3072 5.15233 26.8525 5.80033 27.2779C7.29499 28.2579 9.37632 28.2579 13.5377 28.2579Z" stroke="white" stroke-width="2"/>
<path d="M25.8333 13.5938H24.5" stroke="white" stroke-width="2" stroke-linecap="round"/>
</svg>
