<svg width="33" height="33" viewBox="0 0 33 33" fill="none" xmlns="http://www.w3.org/2000/svg">
<path d="M9.83366 30.0938H23.167C24.2279 30.0938 25.2453 29.6723 25.9954 28.9222C26.7456 28.172 27.167 27.1546 27.167 26.0938V7.42708C27.167 6.36622 26.7456 5.3488 25.9954 4.59866C25.2453 3.84851 24.2279 3.42709 23.167 3.42709H9.83366C8.77279 3.42709 7.75538 3.84851 7.00523 4.59866C6.25508 5.3488 5.83366 6.36622 5.83366 7.42708V26.0938C5.83366 27.1546 6.25508 28.172 7.00523 28.9222C7.75538 29.6723 8.77279 30.0938 9.83366 30.0938ZM8.50032 7.42708C8.50032 7.07346 8.6408 6.73432 8.89085 6.48427C9.1409 6.23423 9.48004 6.09375 9.83366 6.09375H23.167C23.5206 6.09375 23.8598 6.23423 24.1098 6.48427C24.3598 6.73432 24.5003 7.07346 24.5003 7.42708V26.0938C24.5003 26.4474 24.3598 26.7865 24.1098 27.0366C23.8598 27.2866 23.5206 27.4271 23.167 27.4271H9.83366C9.48004 27.4271 9.1409 27.2866 8.89085 27.0366C8.6408 26.7865 8.50032 26.4474 8.50032 26.0938V7.42708Z" fill="white"/>
<path d="M16.5 8.75781C15.3954 8.75781 14.5 9.65324 14.5 10.7578C14.5 11.8624 15.3954 12.7578 16.5 12.7578C17.6046 12.7578 18.5 11.8624 18.5 10.7578C18.5 9.65324 17.6046 8.75781 16.5 8.75781Z" fill="white"/>
<path d="M13.167 24.7578H19.8337C20.1873 24.7578 20.5264 24.6173 20.7765 24.3673C21.0265 24.1172 21.167 23.7781 21.167 23.4245C21.167 23.0709 21.0265 22.7317 20.7765 22.4817C20.5264 22.2316 20.1873 22.0911 19.8337 22.0911H13.167C12.8134 22.0911 12.4742 22.2316 12.2242 22.4817C11.9741 22.7317 11.8337 23.0709 11.8337 23.4245C11.8337 23.7781 11.9741 24.1172 12.2242 24.3673C12.4742 24.6173 12.8134 24.7578 13.167 24.7578Z" fill="white"/>
</svg>
