<svg width="34" height="33" viewBox="0 0 34 33" fill="none" xmlns="http://www.w3.org/2000/svg">
<g id="Group">
<path id="Vector" d="M17 32.5C8.17591 32.5 1 25.3241 1 16.5C1 7.67591 8.17591 0.5 17 0.5C25.8241 0.5 33 7.67591 33 16.5C33 25.3241 25.8241 32.5 17 32.5ZM17 1.0062C8.45533 1.0062 1.5062 7.95533 1.5062 16.5C1.5062 25.0447 8.45533 31.9938 17 31.9938C25.5447 31.9938 32.4938 25.0447 32.4938 16.5C32.4938 7.95533 25.5447 1.0062 17 1.0062Z" fill="white" stroke="white" stroke-width="0.5"/>
<g id="Group_2">
<path id="Vector_2" d="M6.89315 13.8185H7.14315V13.5685V11.2886V11.2845C7.14315 11.0681 7.30868 10.8906 7.53705 10.8906H27.5259C27.7361 10.8906 27.9198 11.0743 27.9198 11.2845V21.7001C27.9198 21.9103 27.7361 22.094 27.5259 22.094H7.53705C7.32685 22.094 7.14315 21.9103 7.14315 21.7001V19.4202V19.1702H6.89315H6.07812V13.8185H6.89315ZM27.0834 11.9325V11.6825H26.8334H8.18095H7.93095V11.9325V21.0603V21.3103H8.18095H26.8334H27.0834V21.0603V11.9325Z" fill="white" stroke="white" stroke-width="0.5"/>
<path id="Vector_3" d="M22.625 19.9704V13.0312H25.5226V19.9704H22.625Z" fill="white" stroke="white" stroke-width="0.5"/>
<path id="Vector_4" d="M18.25 19.9704V13.0312H21.1476V19.9704H18.25Z" fill="white" stroke="white" stroke-width="0.5"/>
<path id="Vector_5" d="M13.8906 19.9704V13.0312H16.7883V19.9704H13.8906Z" fill="white" stroke="white" stroke-width="0.5"/>
<path id="Vector_6" d="M9.52344 19.9704V13.0312H12.4211V19.9704H9.52344Z" fill="white" stroke="white" stroke-width="0.5"/>
</g>
</g>
</svg>
