<svg width="32" height="33" viewBox="0 0 32 33" fill="none" xmlns="http://www.w3.org/2000/svg">
<g id="vuesax/twotone/profile">
<g id="vuesax/twotone/profile_2">
<g id="profile">
<path id="Vector" d="M16.4856 15.0837C16.361 15.0712 16.2116 15.0712 16.0747 15.0837C13.1112 14.984 10.7578 12.556 10.7578 9.56758C10.7578 6.51694 13.2232 4.03906 16.2863 4.03906C19.337 4.03906 21.8149 6.51694 21.8149 9.56758C21.8024 12.556 19.449 14.984 16.4856 15.0837Z" stroke="white" stroke-width="1.33333" stroke-linecap="round" stroke-linejoin="round"/>
<path id="Vector_2" d="M10.26 19.6777C7.24668 21.6949 7.24668 24.9821 10.26 26.9868C13.6842 29.2779 19.2998 29.2779 22.724 26.9868C25.7373 24.9697 25.7373 21.6824 22.724 19.6777C19.3123 17.3991 13.6966 17.3991 10.26 19.6777Z" stroke="white" stroke-width="1.33333" stroke-linecap="round" stroke-linejoin="round"/>
</g>
</g>
</g>
</svg>
