<svg width="32" height="33" viewBox="0 0 32 33" fill="none" xmlns="http://www.w3.org/2000/svg">
<g id="Frame 1973341145">
<g id="Group">
<g id="Group_2">
<path id="Vector" d="M6.96017 26.1004L6.79894 26.2205H6.97229C8.25352 27.9403 9.8805 28.9834 11.949 29.3165L11.949 29.3165C13.2623 29.5275 14.5304 29.4357 15.628 28.5458C16.4194 27.9061 16.7412 27.0247 16.625 26.2049C16.5087 25.385 15.9552 24.6338 15.0119 24.2528C14.8394 24.1804 14.7513 24.1041 14.7031 24.0155C14.6535 23.9244 14.6399 23.8097 14.6399 23.645V23.6272V23.6094V23.5916V23.5738V23.556V23.5382V23.5204V23.5026V23.4848V23.467V23.4492V23.4314V23.4135V23.3957V23.3779V23.3601V23.3423V23.3245V23.3067V23.2889V23.2711V23.2533V23.2355V23.2177V23.1999V23.1821V23.1643V23.1464V23.1286V23.1108V23.093V23.0752V23.0574V23.0396V23.0218V23.004V22.9862V22.9684V22.9506V22.9327V22.9149V22.8971V22.8793V22.8615V22.8437V22.8259V22.8081V22.7903V22.7725V22.7547V22.7368V22.719V22.7012V22.6834V22.6656V22.6478V22.63V22.6122V22.5944V22.5765V22.5587V22.5409V22.5231V22.5053V22.4875V22.4697V22.4519V22.4341V22.4162V22.3984V22.3806V22.3628V22.345V22.3272V22.3094V22.2916V22.2737V22.2559V22.2381V22.2203V22.2025V22.1847V22.1669V22.1491V22.1312V22.1134V22.0956V22.0778V22.06V22.0422V22.0244V22.0065V21.9887V21.9709V21.9531V21.9353V21.9175V21.8997V21.8818V21.864V21.8462V21.8284V21.8106V21.7928V21.775V21.7571V21.7393V21.7215V21.7037V21.6859V21.6681V21.6502V21.6324V21.6146V21.5968V21.579V21.5612V21.5433V21.5255V21.5077V21.4899V21.4721V21.4543V21.4364V21.4186V21.4008V21.383V21.3652V21.3474V21.3295V21.3117V21.2939V21.2761V21.2583V21.2405V21.2226V21.2048V21.187V21.1692V21.1514V21.1336V21.1157V21.0979V21.0801V21.0623V21.0445V21.0266V21.0088V20.991V20.9732V20.9554V20.9376V20.9197V20.9019V20.8841V20.8663V20.8485V20.8306V20.8128V20.795V20.7772V20.7594V20.7416V20.7237V20.7059V20.6881V20.6703V20.6525V20.6346V20.6168V20.599V20.5812V20.5634V20.5455V20.5277V20.5099V20.4921V20.4743V20.4564V20.4386V20.4208V20.403V20.3852V20.3673V20.3495V20.3317V20.3139V20.2961V20.2782V20.2604V20.2426V20.2248V20.207V20.1891V20.1713V20.1535V20.1357V20.1179V20.1V20.0822V20.0644V20.0466V20.0288V20.0109V19.9931V19.9753V19.9575V19.9397V19.9218V19.904V19.8862V19.8684V19.8506V19.8327V19.8149V19.7971V19.7793V19.7615V19.7436V19.7258V19.708V19.6902V19.6724V19.6545V19.6367V19.6189V19.6011V19.5832V19.5654V19.5476V19.5298V19.512V19.4941V19.4763V19.4585V19.4407V19.4229V19.405V19.3872V19.3694V19.3516V19.3338V19.3159V19.2981V19.2803V19.2625V19.2446V19.2268V19.209V19.1912V19.1734V19.1555V19.1377V19.1199V19.1021V19.0843V19.0664V19.0486V19.0308V19.013V18.9952V18.9773V18.9595V18.9417V18.9239V18.906V18.8882V18.8704V18.8526V18.8348V18.8169V18.7991V18.7813V18.7635V18.7457V18.7278V18.71V18.6922V18.6744V18.6566V18.6387V18.6209V18.6031V18.5853V18.5674V18.5496V18.5318V18.514V18.4962V18.4783V18.4605V18.4427V18.4249V18.4071V18.3892V18.3714V18.3536V18.3358V18.318V18.3001V18.2823V18.2645V18.2467V18.2289V18.211V18.1932V18.1754V18.1576V18.1398V18.1219V18.1041V18.0863V18.0685V18.0507V18.0328V18.015V17.9972V17.9794V17.9616V17.9437V17.9259V17.9081V17.8903V17.8725V17.8546V17.8368V17.819V17.8012V17.7834V17.7655V17.7477V17.7299V17.7121V17.6943V17.6764V17.6586V17.6408V17.623V17.6052V17.5873V17.5695V17.5517V17.5339V17.5161V17.4982V17.4804V17.4626V17.4448V17.427V17.4091V17.3913V17.3735V17.3557V17.3379V17.3201V17.3022V17.2844V17.2666V17.2488V17.231V17.2131V17.1953V17.1775V17.1597V17.1419V17.1241V17.1062V17.0884V17.0706V17.0528V17.035V17.0171V16.9993V16.9815V16.9637V16.9459V16.9281V16.9102V16.8924V16.8746V16.8568V16.839V16.8212V16.8033V16.7855V16.7677V16.7499V16.7321V16.7143V16.6964V16.6786V16.6608V16.643V16.6252V16.6074V16.5895V16.5717V16.5539V16.5361V16.5183V16.5005V16.4826V16.4648V16.447V16.4292V16.4114V16.3936V16.3758V16.3579V16.3401V16.3223V16.3045V16.2867V16.2689V16.251V16.2332V16.2154V16.1976V16.1798V16.162V16.1442V16.1263V16.1085V16.0907V16.0729V16.0551V16.0373V16.0195V16.0017V15.9838V15.966V15.9482V15.9304V15.9126V15.8948V15.877V15.8591V15.8413V15.8235V15.8057V15.7879V15.7701V15.7523V15.7345V15.7167V15.6988V15.681V15.6632V15.6454V15.6276V15.6098V15.592V15.5742V15.5563V15.5385V15.5207V15.5029V15.4851V15.4673V15.4495V15.4317V15.4139V15.3961V15.3782V15.3604V15.3426V15.3248V15.307V15.2892V15.2714V15.2536V15.2358V15.218V15.2002V15.1823V15.1645V15.1467V15.1289V15.1111V15.0933V15.0755V15.0577V15.0399V15.0221V15.0043V14.9865V14.9686V14.9508V14.933V14.9152V14.8974V14.8796V14.8618V14.844V14.8262V14.8084V14.7906V14.7728V14.755V14.7372V14.7194V14.7016V14.6837V14.6659V14.6481V14.6303V14.6125V14.5947V14.5769V14.5591V14.5413V14.5235V13.9414V13.8747H14.5732H13.3333H13.2667V13.9414V24.0271C12.6823 24.2939 12.1514 24.5395 11.5703 24.8129L11.4943 24.8487L11.5463 24.9146C11.7154 25.1287 11.8573 25.3107 11.9713 25.4569C12.0341 25.5374 12.0884 25.6071 12.1342 25.6653L12.1629 25.7019L12.2071 25.6876C12.3995 25.6255 12.5812 25.5596 12.7548 25.4966C12.8341 25.4678 12.9118 25.4396 12.9881 25.4127C13.2325 25.3264 13.4645 25.2521 13.701 25.2065L13.7011 25.2065C14.2967 25.0906 14.8685 25.4211 15.1305 25.9506L15.1903 25.921L15.1305 25.9506C15.3987 26.4926 15.3294 27.1215 14.8503 27.5292C14.5115 27.8163 14.0793 28.0764 13.6639 28.1607C12.1924 28.4411 10.8835 27.933 9.68636 27.1118C9.23832 26.8025 8.83023 26.4432 8.40461 26.0684C8.20855 25.8958 8.00876 25.7198 7.79963 25.544L7.75853 25.5095L7.71601 25.5423C7.59924 25.6323 7.46619 25.7294 7.31746 25.8378C7.20694 25.9184 7.08776 26.0053 6.96017 26.1004Z" fill="white" stroke="white" stroke-width="0.133333"/>
<path id="Vector_2" d="M6.39966 15.6716L6.50999 15.7672V15.6474C7.22866 15.2219 7.93009 15.0516 8.55275 15.12C9.18344 15.1892 9.73902 15.5036 10.1563 16.0571C10.8976 17.0476 10.763 18.4358 9.83781 19.3099L9.83767 19.31C9.37813 19.7468 8.8294 19.973 8.2001 19.9844L8.19986 19.9844C7.14425 20.0072 6.30949 19.5688 5.76965 18.8244L5.72948 18.769L5.67515 18.8106C5.64183 18.8361 5.60886 18.8614 5.57621 18.8864C5.34074 19.0668 5.12234 19.2341 4.91292 19.3925L4.8604 19.4322L4.89945 19.4852C6.36949 21.4806 8.94017 21.8409 10.6899 20.3226C12.3719 18.8656 12.456 16.3986 10.8788 14.8748L10.8787 14.8747C10.157 14.1798 9.13951 13.8387 8.16069 13.8476C7.18229 13.8564 6.23255 14.2153 5.65222 14.9332L5.61198 14.983L5.66008 15.0252L5.66528 15.0298C5.90219 15.2378 6.13943 15.4461 6.39966 15.6716Z" fill="white" stroke="white" stroke-width="0.133333"/>
</g>
<path id="Vector_3" d="M23.7854 29.83V29.8966H23.852H25.0919H25.1586V29.83V20.0391V19.9724H25.0919H23.852H23.7854V20.0391V24.2741H19.5878V20.0391V19.9724H19.5211H18.2812H18.2146V20.0391V29.83V29.8966H18.2812H19.5211H19.5878V29.83V25.496H23.7854V29.83Z" fill="white" stroke="white" stroke-width="0.133333"/>
<path id="Vector_4" d="M26.6999 8.36328V8.29661H26.6333H22.3198H22.2532V8.36328V9.57987V9.64654H22.3198H23.8016V13.8848H19.5691V12.275V12.2081L19.5022 12.2083C17.8706 12.2143 16.5487 13.5362 16.5427 15.1678L16.5425 15.2347H16.6094H18.2192V19.429V19.4957H18.2858H19.5024H19.5691V19.429V15.2347H23.8016V19.429V19.4957H23.8682H25.0849H25.1515V19.429V9.65236H26.6333H26.6999V9.58569V8.3691V8.36328Z" fill="white" stroke="white" stroke-width="0.133333"/>
<path id="Vector_5" d="M15.8503 3.10322H11.5992L11.5052 3.05609V3.16406V4.38065V4.44732H11.5718H13.2806V6.80537H7.35156H7.28465L7.2849 6.87228C7.29085 8.50387 8.61277 9.82579 10.2444 9.83174L10.3113 9.83199V9.76508V8.1553H13.2864V13.3275V13.3942H13.3531H14.5697H14.6363V13.3275V4.45314H15.8503H15.917V4.38647V3.16988V3.10322H15.8503Z" fill="white" stroke="white" stroke-width="0.133333"/>
</g>
</g>
</svg>
