<svg width="32" height="33" viewBox="0 0 32 33" fill="none" xmlns="http://www.w3.org/2000/svg">
<g id="vuesax/twotone/setting-2">
<g id="vuesax/twotone/setting-2_2">
<path id="Vector" fill-rule="evenodd" clip-rule="evenodd" d="M5.8018 5.14995C5.8018 4.05478 6.68861 3.16797 7.78378 3.16797H25.4414C26.5366 3.16797 27.4234 4.05478 27.4234 5.14995V27.8527C27.4234 28.9478 26.5366 29.8346 25.4414 29.8346H7.78378C6.68861 29.8346 5.8018 28.9478 5.8018 27.8527V25.15H4.54054C4.24212 25.15 4 24.9078 4 24.6094C4 24.311 4.24212 24.0689 4.54054 24.0689H5.8018V19.7445H4.54054C4.24212 19.7445 4 19.5024 4 19.204C4 18.9056 4.24212 18.6635 4.54054 18.6635H5.8018V14.3391H4.54054C4.24212 14.3391 4 14.097 4 13.7986C4 13.5002 4.24212 13.2581 4.54054 13.2581H5.8018V8.93373H4.54054C4.24212 8.93373 4 8.69162 4 8.39319C4 8.09477 4.24212 7.85265 4.54054 7.85265H5.8018V5.14995ZM6.88288 25.15H8.14414C8.44257 25.15 8.68468 24.9078 8.68468 24.6094C8.68468 24.311 8.44257 24.0689 8.14414 24.0689H6.88288V19.7445H8.14414C8.44257 19.7445 8.68468 19.5024 8.68468 19.204C8.68468 18.9056 8.44257 18.6635 8.14414 18.6635H6.88288V14.3391H8.14414C8.44257 14.3391 8.68468 14.097 8.68468 13.7986C8.68468 13.5002 8.44257 13.2581 8.14414 13.2581H6.88288V8.93373H8.14414C8.44257 8.93373 8.68468 8.69162 8.68468 8.39319C8.68468 8.09477 8.44257 7.85265 8.14414 7.85265H6.88288V5.14995C6.88288 4.65305 7.28688 4.24905 7.78378 4.24905H25.4414C25.9383 4.24905 26.3423 4.65305 26.3423 5.14995V27.8527C26.3423 28.3496 25.9383 28.7536 25.4414 28.7536H7.78378C7.28688 28.7536 6.88288 28.3496 6.88288 27.8527V25.15ZM17.1532 10.3752C16.058 10.3752 15.1712 11.262 15.1712 12.3572C15.1712 13.4523 16.058 14.3391 17.1532 14.3391C18.2483 14.3391 19.1351 13.4523 19.1351 12.3572C19.1351 11.262 18.2483 10.3752 17.1532 10.3752ZM14.0901 12.3572C14.0901 10.6652 15.4612 9.29409 17.1532 9.29409C18.8452 9.29409 20.2162 10.6652 20.2162 12.3572C20.2162 14.0492 18.8452 15.4202 17.1532 15.4202C15.4612 15.4202 14.0901 14.0492 14.0901 12.3572ZM13.9634 18.755L16.8505 17.7246C17.0462 17.6542 17.2601 17.6542 17.4558 17.7246L20.3429 18.755C21.1312 19.0365 21.6576 19.784 21.6576 20.6216V21.7266C21.6576 22.025 21.4155 22.2671 21.1171 22.2671H13.1892C12.8907 22.2671 12.6486 22.025 12.6486 21.7266V20.6216C12.6486 19.784 13.1751 19.0365 13.9634 18.755ZM17.8203 16.7054C17.3882 16.552 16.918 16.552 16.4859 16.7054L13.6002 17.7373C12.3812 18.1722 11.5675 19.3265 11.5675 20.6216V21.7266C11.5675 22.6218 12.2939 23.3482 13.1892 23.3482H21.1171C22.0124 23.3482 22.7387 22.6218 22.7387 21.7266V20.6216C22.7387 19.3265 21.9251 18.1722 20.7061 17.7373L17.8203 16.7054Z" fill="#F2F2F2" stroke="#F2F2F2" stroke-width="0.4"/>
</g>
</g>
</svg>
