<svg width="62" height="63" viewBox="0 0 62 63" fill="none" xmlns="http://www.w3.org/2000/svg">
<g id="vuesax/twotone/volume-high">
<g id="Group 1973339897">
<rect id="Rectangle 293029805" x="17" y="5.5" width="28.9459" height="51" rx="2.16216" stroke="white" stroke-width="1.94595"/>
<rect id="Rectangle 293029806" x="21.5625" y="9.85156" width="19.2973" height="20.6757" rx="1.08108" stroke="white" stroke-width="1.5"/>
<g id="Group 1973339896">
<rect id="Rectangle 293029807" x="21.1328" y="49.1328" width="6.2027" height="2.75676" rx="1.08108" fill="white"/>
<rect id="Rectangle 293029810" x="21.1328" y="44.3086" width="6.2027" height="2.75676" rx="1.08108" fill="white"/>
<rect id="Rectangle 293029813" x="21.1328" y="39.4844" width="6.2027" height="2.75676" rx="1.08108" fill="white"/>
<rect id="Rectangle 293029816" x="21.1328" y="34.6602" width="6.2027" height="2.75676" rx="1.08108" fill="white"/>
<rect id="Rectangle 293029808" x="28.7109" y="49.1328" width="6.2027" height="2.75676" rx="1.08108" fill="white"/>
<rect id="Rectangle 293029811" x="28.7109" y="44.3086" width="6.2027" height="2.75676" rx="1.08108" fill="white"/>
<rect id="Rectangle 293029814" x="28.7109" y="39.4844" width="6.2027" height="2.75676" rx="1.08108" fill="white"/>
<rect id="Rectangle 293029817" x="28.7109" y="34.6602" width="6.2027" height="2.75676" rx="1.08108" fill="white"/>
<rect id="Rectangle 293029809" x="36.2969" y="49.1328" width="6.2027" height="2.75676" rx="1.08108" fill="white"/>
<rect id="Rectangle 293029812" x="36.2969" y="44.3086" width="6.2027" height="2.75676" rx="1.08108" fill="white"/>
<rect id="Rectangle 293029815" x="36.2969" y="39.4844" width="6.2027" height="2.75676" rx="1.08108" fill="white"/>
<rect id="Rectangle 293029818" x="36.2969" y="34.6602" width="6.2027" height="2.75676" rx="1.08108" fill="white"/>
</g>
</g>
</g>
</svg>
