<svg width="62" height="63" viewBox="0 0 62 63" fill="none" xmlns="http://www.w3.org/2000/svg">
<g id="vuesax/twotone/profile">
<g id="Group 1973340089">
<path id="Vector" d="M48.4197 27.8059C48.4197 27.2471 48.4197 26.7019 48.4197 26.1431C48.4197 23.458 48.4197 20.7592 48.4197 18.0741C48.4197 15.6207 48.4197 13.1809 48.4197 10.7275C48.4197 10.3458 48.447 9.96416 48.3789 9.59615C47.9563 7.31992 46.0753 5.71162 43.84 5.72525C41.7819 5.72525 39.7238 5.72525 37.6656 5.72525C35.1168 5.72525 32.5679 5.72525 30.0191 5.72525C28.7788 5.72525 27.5384 5.62981 26.2981 5.77974C24.9487 5.9433 23.9265 6.65207 23.1632 7.74248C22.3727 8.86014 22.2636 10.1413 22.3863 11.4635C22.4272 11.9541 22.727 12.1995 23.1632 12.1859C23.613 12.1723 23.9129 11.8724 23.9265 11.3953C23.9265 11.0001 23.9265 10.5911 23.9265 10.1959C23.9674 8.62841 25.2895 7.27902 26.8842 7.27902C32.4998 7.25176 38.1154 7.27902 43.7309 7.27902C44.4125 7.27902 45.0395 7.48348 45.5847 7.89239C46.457 8.533 46.8386 9.419 46.8386 10.4958C46.8386 19.5189 46.8386 28.5283 46.8386 37.5515C46.8386 40.1003 46.8386 42.6491 46.8386 45.1979C46.8386 45.893 46.6478 46.52 46.2253 47.0789C45.7619 47.6786 45.1621 48.0602 44.4397 48.2374C43.9491 48.3601 43.6629 48.8099 43.7992 49.2324C43.9355 49.6822 44.3716 49.9003 44.8623 49.7504C44.944 49.7231 45.0395 49.7095 45.1212 49.6823C46.4297 49.2597 47.3975 48.4419 47.9836 47.2016C48.3516 46.411 48.4061 45.5796 48.4061 44.7072C48.3925 39.078 48.4061 33.4488 48.4061 27.8196L48.4197 27.8059Z" fill="white" stroke="white" stroke-width="0.2"/>
<path id="Vector_2" d="M30.3097 8.83585C30.2688 8.42695 29.9826 8.18164 29.5464 8.18164C29.1511 8.18164 28.824 8.45418 28.7695 8.80857C28.5923 10.3079 29.6418 11.5074 31.1548 11.521C32.5859 11.521 34.0171 11.521 35.4346 11.521C36.8249 11.521 38.2288 11.521 39.6191 11.521C39.9462 11.521 40.246 11.4801 40.5459 11.3574C41.5818 10.9212 42.1133 9.89897 41.977 8.80857C41.9362 8.44055 41.6363 8.19527 41.2683 8.18164C40.7503 8.15438 40.4641 8.41334 40.4368 8.94492C40.3823 9.77635 40.1779 9.9808 39.3192 9.96717C38.5831 9.96717 37.8335 9.93989 37.0975 9.93989C35.1075 9.93989 33.1174 9.93989 31.1138 9.93989C30.6231 9.93989 30.3369 9.65366 30.2961 9.17661C30.2961 9.06756 30.2961 8.95854 30.2961 8.8495L30.3097 8.83585Z" fill="white"/>
<path id="Vector_3" d="M42.2324 42.8778C42.2324 42.8778 42.2324 42.837 42.2324 42.8233C42.2324 42.7824 42.2324 42.7552 42.2324 42.7143C42.3006 42.6189 42.2734 42.4962 42.2734 42.3872C42.2734 36.7443 42.2734 31.1015 42.2734 25.445C42.2734 25.3359 42.3142 25.2269 42.2188 25.1315C42.2188 24.9543 42.2188 24.7771 42.2188 24.5999C42.2461 24.4227 42.2461 24.2455 42.2188 24.0547V23.7276C42.2324 23.2778 42.2597 22.8416 42.2188 22.3918C42.2188 22.201 42.2188 21.9966 42.2188 21.8058C42.2597 21.6422 42.2461 21.4786 42.2188 21.3287C42.2188 21.1106 42.2188 20.8925 42.2188 20.6744C42.2188 19.5977 42.2733 18.5209 42.2188 17.4578C42.0961 15.2497 40.4606 13.5187 38.2661 13.2052C37.3802 13.0825 36.4942 13.1234 35.6082 13.1779C34.8177 13.2188 34.2452 13.9139 34.2316 14.7045C34.2316 14.8953 34.2316 15.0862 34.2316 15.2633C34.2316 16.1084 34.0135 16.3401 33.1412 16.3401C31.6828 16.3401 30.2243 16.3401 28.7523 16.3401C27.4847 16.3401 26.2308 16.3401 24.9632 16.3401C24.3907 16.3401 24.1181 16.0402 24.1045 15.4814C24.1045 15.2224 24.1045 14.9771 24.1045 14.7181C24.0772 14.3092 23.9681 13.9549 23.6683 13.6414C23.1912 13.1507 22.6188 13.137 22.0055 13.1915C21.2967 13.1507 20.5743 13.137 19.8655 13.2733C18.8024 13.4778 17.9164 14.0093 17.2349 14.8544C16.6352 15.5768 16.2536 16.3946 16.2127 17.3623C16.1173 17.853 16.1717 18.3437 16.1717 18.8344V18.9162C16.1717 18.9162 16.1717 18.9979 16.1717 19.0525C16.1717 26.1946 16.1717 33.3368 16.1717 40.4926C16.1717 44.5271 16.1717 48.5616 16.1717 52.5961C16.1717 52.7869 16.1444 52.9913 16.2262 53.1822C16.2262 53.2912 16.2263 53.4003 16.2535 53.5093C16.6488 55.7311 18.5434 57.3393 20.7924 57.353C22.8914 57.353 25.0041 57.353 27.1031 57.353C30.6469 57.353 34.1907 57.3666 37.7345 57.353C40.3243 57.3393 42.3415 55.1721 42.2324 52.5824C42.3142 52.487 42.2734 52.3644 42.2734 52.269C42.2734 49.3658 42.2734 46.4626 42.2734 43.5458C42.2734 43.3413 42.3415 43.1232 42.2324 42.9324V42.8778ZM40.6105 43.9955C40.5696 44.1863 40.5832 44.3636 40.5832 44.5544C40.5832 47.2259 40.5832 49.8974 40.5832 52.5689C40.5832 53.5366 40.2425 54.368 39.4656 54.9813C38.8386 55.472 38.1162 55.6765 37.3256 55.6765C33.9181 55.6765 30.497 55.6765 27.0894 55.6765C25.0858 55.6765 23.0822 55.6765 21.0785 55.6765C19.0476 55.6765 17.8346 54.1772 17.8482 52.4462C17.8891 47.5666 17.8619 42.7007 17.8619 37.8211C17.8619 37.6167 17.8618 37.3986 17.8346 37.1941C17.8346 37.1532 17.8074 37.1259 17.8074 37.085C17.9164 36.9215 17.8619 36.7307 17.8619 36.5399C17.8619 30.3927 17.8619 24.2592 17.8619 18.112C17.8619 17.9484 17.8618 17.7849 17.8346 17.6213C17.8346 17.5941 17.8073 17.5532 17.7937 17.5259C17.7937 17.4986 17.7665 17.485 17.7392 17.485C17.9164 16.0266 19.034 14.9089 20.397 14.7317C20.397 14.759 20.4243 14.7863 20.4924 14.8135C20.8877 14.868 21.283 14.8407 21.6919 14.8544C22.5097 14.8544 22.4279 14.7863 22.4415 15.5768C22.4688 16.9126 23.5047 17.9757 24.8268 17.9757C27.7573 17.9893 30.6741 17.9757 33.6046 17.9757C34.5314 17.9757 35.3902 17.3214 35.7173 16.4627C35.8809 16.0402 35.8672 15.6176 35.8672 15.1815C35.8672 15.0043 35.8808 14.8408 36.1126 14.8272C36.944 14.7454 37.7754 14.7318 38.5796 14.9907C39.8199 15.3996 40.5695 16.5036 40.5832 17.8394C40.5832 18.7798 40.5832 19.7203 40.5832 20.6608C40.5832 20.8107 40.5696 20.9743 40.6514 21.1106C40.6514 21.1106 40.6786 21.1379 40.6922 21.1379C40.5423 21.4514 40.5287 21.7649 40.6786 22.0784C40.665 22.1193 40.6377 22.1601 40.6241 22.1874C40.5832 22.7189 40.5832 23.2641 40.6241 23.7957C40.6377 23.8366 40.6513 23.8639 40.6786 23.9048C40.5423 24.2183 40.5423 24.5317 40.7059 24.8316C40.6786 24.8452 40.6514 24.8861 40.6377 24.927C40.5832 25.1178 40.5968 25.3223 40.5968 25.5268C40.5968 31.3468 40.5968 37.1532 40.5968 42.9732C40.5968 43.1641 40.5968 43.3549 40.6241 43.5321C40.6241 43.6003 40.665 43.6548 40.7195 43.682C40.7195 43.7366 40.7195 43.7911 40.7195 43.8319C40.6786 43.8592 40.6514 43.9001 40.6241 43.9683L40.6105 43.9955Z" fill="white" stroke="white" stroke-width="0.2"/>
<path id="Vector_4" d="M36.3789 27.739C36.7333 28.0661 37.2103 28.0662 37.5238 27.7663C37.8373 27.4528 37.8101 26.9621 37.4693 26.6077C36.229 25.3674 34.975 24.1134 33.7347 22.8731C33.1622 22.3006 32.5897 21.7281 32.0173 21.1557C31.7719 20.9103 31.4721 20.8013 31.1449 20.9513C30.8451 21.0876 30.6543 21.3192 30.6406 21.6736C30.6406 21.8644 30.7088 22.0553 30.8451 22.2052C31.1859 22.546 31.5403 22.8867 31.881 23.2411C33.135 24.4951 34.3753 25.749 35.6293 27.003C35.8746 27.2484 36.1199 27.5073 36.3789 27.7527V27.739Z" fill="white"/>
<path id="Vector_5" d="M36.8881 23.9616C37.2561 24.316 37.7467 24.3297 38.033 24.0162C38.3601 23.6482 38.3328 23.1711 37.9512 22.8031C37.6377 22.5032 37.3379 22.1898 37.038 21.8899C36.6155 21.481 36.2066 21.0584 35.7841 20.6632C35.5387 20.4315 35.2525 20.4042 34.9527 20.5541C34.6528 20.6904 34.5028 20.9357 34.5165 21.3174C34.5165 21.4673 34.5846 21.6582 34.7345 21.8081C35.4569 22.5305 36.1657 23.2529 36.9017 23.9616H36.8881Z" fill="white"/>
<path id="Vector_6" d="M36.3256 44.7493C36.0666 44.4767 35.7395 44.5449 35.4805 44.5312C35.3033 44.5312 35.1671 44.5312 35.0308 44.5312C34.5537 44.5312 34.2266 44.8447 34.2266 45.2672C34.2266 45.7307 34.5537 46.0578 35.0443 46.0715C35.3033 46.0715 35.5486 46.0715 35.8076 46.0715C36.162 46.0715 36.3937 45.867 36.5164 45.5671C36.6391 45.2673 36.5709 44.9946 36.3392 44.7493H36.3256Z" fill="white"/>
<path id="Vector_7" d="M22.6423 21.5107C22.9285 21.7424 23.2284 21.7152 23.5147 21.5789C23.8418 21.4153 23.9781 21.1155 23.9235 20.7611C23.9235 20.284 23.6782 19.9024 23.3375 19.8206C22.9422 19.7116 22.6014 19.8887 22.397 20.2976C22.2198 20.6656 22.3697 21.279 22.6423 21.5244V21.5107Z" fill="white"/>
<path id="Vector_8" d="M38.1292 48.4563C37.8157 48.1974 37.0933 48.2383 36.8071 48.5381C36.6844 48.6608 36.589 48.8108 36.5753 49.0016C36.5208 49.5332 36.9162 49.9284 37.5022 49.8738C37.9384 49.8738 38.1564 49.7784 38.3064 49.5331C38.5381 49.1515 38.4699 48.7426 38.1292 48.47V48.4563Z" fill="white"/>
<path id="Vector_9" d="M24.0504 46.9453C23.6142 46.9453 23.2734 47.2997 23.2734 47.7222C23.2734 48.1857 23.8186 48.7308 24.2821 48.7308C24.7182 48.7308 25.059 48.3765 25.0453 47.9539C25.0453 47.4769 24.5001 46.9453 24.0367 46.9453H24.0504Z" fill="white"/>
<path id="Vector_10" d="M23.1401 31.922C23.658 31.922 23.9306 31.5949 23.9306 30.9952C23.9306 30.4091 23.6444 30.0547 23.1401 30.0547C22.663 30.0547 22.3496 30.4227 22.3359 31.0225C22.3359 31.5813 22.6357 31.922 23.1264 31.922H23.1401Z" fill="white"/>
<path id="Vector_11" d="M23.6693 23.4063C23.4103 23.1882 23.0014 23.1473 22.7425 23.3109C22.4017 23.5153 22.2654 23.9379 22.3881 24.4695C22.4699 24.8375 22.688 25.0283 23.0287 25.0828C23.4785 25.1509 24.0101 24.7557 23.9283 24.1696C23.9283 23.8834 23.901 23.6108 23.6693 23.42V23.4063Z" fill="white"/>
<path id="Vector_12" d="M23.6249 26.8066C23.3659 26.6022 23.0661 26.5885 22.7798 26.7112C22.4255 26.8748 22.3438 27.2019 22.3438 27.5699C22.3438 27.9379 22.4391 28.2514 22.7935 28.4286C23.3659 28.7148 23.9384 28.2923 23.9384 27.5426C23.9521 27.27 23.8839 26.9975 23.6385 26.8066H23.6249Z" fill="white"/>
<path id="Vector_13" d="M23.0357 38.7661C23.6082 38.8206 23.9354 38.4799 23.9354 37.812C23.9354 37.3758 23.7173 37.035 23.3765 36.926C23.0357 36.817 22.6541 36.9669 22.4633 37.2804C22.2452 37.6212 22.3406 38.289 22.6269 38.5753C22.7495 38.6843 22.8722 38.7525 23.0357 38.7661Z" fill="white"/>
<path id="Vector_14" d="M27.2452 48.2949C26.6727 48.2949 26.3047 48.6084 26.3047 49.0855C26.3047 49.5761 26.6318 49.8623 27.2179 49.8623C27.8449 49.8623 28.1856 49.5761 28.172 49.0582C28.172 48.5811 27.804 48.2812 27.2452 48.2812V48.2949Z" fill="white"/>
<path id="Vector_15" d="M30.6937 48.3046C30.1213 48.2638 29.7396 48.5499 29.6987 49.027C29.6579 49.5041 29.985 49.8312 30.5166 49.8721C31.13 49.9129 31.5252 49.654 31.5661 49.1769C31.607 48.6453 31.3071 48.3592 30.6802 48.3183L30.6937 48.3046Z" fill="white"/>
<path id="Vector_16" d="M33.3564 48.5406C33.1247 48.8132 33.0702 49.1131 33.2065 49.4266C33.37 49.7946 33.6971 49.8763 34.106 49.8627C34.2968 49.8627 34.5149 49.8491 34.7194 49.6856C35.0601 49.3993 35.1147 48.8678 34.8285 48.5679C34.4741 48.1999 33.6562 48.1862 33.3564 48.527V48.5406Z" fill="white"/>
<path id="Vector_17" d="M22.6356 35.1651C22.731 35.2469 22.8264 35.3014 22.9491 35.315C23.6033 35.3832 23.9168 35.097 23.9305 34.4291C23.9305 33.9248 23.7533 33.6249 23.3717 33.5158C23.0037 33.4068 22.6356 33.5568 22.4584 33.8702C22.2403 34.2655 22.3221 34.8653 22.6356 35.1651Z" fill="white"/>
<path id="Vector_18" d="M22.4042 41.6971C22.854 42.3104 23.2901 42.3922 23.7399 41.956C24.0125 41.6289 23.958 41.2473 23.9035 40.8793C23.8489 40.5249 23.5764 40.3613 23.2629 40.2932C22.9494 40.225 22.6767 40.3341 22.5268 40.6067C22.3496 40.9338 22.2679 41.3018 22.4042 41.6834V41.6971Z" fill="white"/>
<path id="Vector_19" d="M23.8481 45.1457C23.9707 44.805 24.0116 44.4778 23.7935 44.1507C23.7935 44.0008 23.6709 43.9463 23.5755 43.8781C23.2347 43.6737 22.8258 43.6873 22.594 43.919C22.3351 44.1643 22.2261 44.8595 22.4169 45.1866C22.5123 45.3365 22.5804 45.541 22.7985 45.5546C23.2756 45.7182 23.5482 45.6228 23.8617 45.1457H23.8481Z" fill="white"/>
</g>
</g>
</svg>
