<svg width="32" height="33" viewBox="0 0 32 33" fill="none" xmlns="http://www.w3.org/2000/svg">
<g id="vuesax/twotone/messages">
<g id="vuesax/twotone/messages_2">
<g id="messages">
<g id="Group">
<path id="Vector" d="M23.9452 14.8685V20.1932C23.9452 20.5393 23.9319 20.8721 23.8919 21.1916C23.5857 24.7857 21.469 26.5695 17.5685 26.5695H17.036C16.7032 26.5695 16.3837 26.7292 16.184 26.9954L14.5865 29.1253C13.881 30.0705 12.7361 30.0705 12.0305 29.1253L10.433 26.9954C10.2599 26.7691 9.87391 26.5695 9.58104 26.5695H9.04855C4.80188 26.5695 2.67188 25.5179 2.67188 20.1932V14.8685C2.67188 10.9682 4.46907 8.85161 8.05011 8.54545C8.36961 8.50551 8.70242 8.49219 9.04855 8.49219H17.5685C21.8152 8.49219 23.9452 10.6221 23.9452 14.8685Z" stroke="white" stroke-width="1.71155" stroke-miterlimit="10" stroke-linecap="round" stroke-linejoin="round"/>
</g>
<path id="Vector_2" d="M29.2669 9.54429V14.869C29.2669 18.7826 27.4697 20.8859 23.8887 21.192C23.9286 20.8725 23.9419 20.5398 23.9419 20.1936V14.869C23.9419 10.6225 21.8119 8.49265 17.5653 8.49265H9.04531C8.69918 8.49265 8.36637 8.50597 8.04688 8.54591C8.35306 4.96506 10.4697 3.16797 14.3703 3.16797H22.8902C27.1369 3.16797 29.2669 5.29785 29.2669 9.54429Z" stroke="white" stroke-width="1.71155" stroke-miterlimit="10" stroke-linecap="round" stroke-linejoin="round"/>
<path id="Vector_3" d="M17.9721 18.1421H17.9841" stroke="white" stroke-width="1.71155" stroke-linecap="round" stroke-linejoin="round"/>
<path id="Vector_4" d="M13.3159 18.1421H13.3279" stroke="white" stroke-width="1.71155" stroke-linecap="round" stroke-linejoin="round"/>
<path id="Vector_5" d="M8.65182 18.1421H8.6638" stroke="white" stroke-width="1.71155" stroke-linecap="round" stroke-linejoin="round"/>
</g>
</g>
</g>
</svg>
