<svg width="1015" height="486" viewBox="0 0 1015 486" fill="none" xmlns="http://www.w3.org/2000/svg">
<g style="mix-blend-mode:soft-light" filter="url(#filter0_d_7159_63378)">
<path d="M111.667 221V222.5H112.707L113.072 221.526L111.667 221ZM83.0219 221L81.6241 220.456L80.8283 222.5H83.0219V221ZM136.67 83.189V81.689H135.644L135.272 82.6449L136.67 83.189ZM170.138 83.189L171.536 82.6449L171.164 81.689H170.138V83.189ZM223.786 221V222.5H225.98L225.184 220.456L223.786 221ZM194.452 221L193.047 221.526L193.412 222.5H194.452V221ZM182.443 188.91L183.848 188.384L183.483 187.41H182.443V188.91ZM123.676 188.91V187.41H122.636L122.271 188.384L123.676 188.91ZM153.109 110.357L154.514 109.833L153.112 106.079L151.704 109.831L153.109 110.357ZM133.126 163.612L131.722 163.085L130.961 165.112H133.126V163.612ZM172.993 163.612V165.112H175.154L174.398 163.087L172.993 163.612ZM111.667 219.5H83.0219V222.5H111.667V219.5ZM84.4197 221.544L138.068 83.7332L135.272 82.6449L81.6241 220.456L84.4197 221.544ZM136.67 84.689H170.138V81.689H136.67V84.689ZM168.74 83.7332L222.388 221.544L225.184 220.456L171.536 82.6449L168.74 83.7332ZM223.786 219.5H194.452V222.5H223.786V219.5ZM195.857 220.474L183.848 188.384L181.038 189.435L193.047 221.526L195.857 220.474ZM182.443 187.41H123.676V190.41H182.443V187.41ZM122.271 188.384L110.262 220.474L113.072 221.526L125.081 189.435L122.271 188.384ZM151.704 109.831L131.722 163.085L134.53 164.139L154.513 110.884L151.704 109.831ZM133.126 165.112H172.993V162.112H133.126V165.112ZM174.398 163.087L154.514 109.833L151.703 110.882L171.588 164.136L174.398 163.087ZM259.189 221V222.5H260.689V221H259.189ZM231.725 221H230.225V222.5H231.725V221ZM231.725 83.189V81.689H230.225V83.189H231.725ZM271.986 83.189L273.386 82.6499L273.016 81.689H271.986V83.189ZM307.817 176.211L306.417 176.751L307.819 180.39L309.217 176.749L307.817 176.211ZM343.549 83.189V81.689H342.519L342.149 82.6512L343.549 83.189ZM383.81 83.189H385.31V81.689H383.81V83.189ZM383.81 221V222.5H385.31V221H383.81ZM356.346 221H354.846V222.5H356.346V221ZM356.346 116.953H357.846L354.942 116.426L356.346 116.953ZM322.287 207.711V209.211H323.326L323.691 208.238L322.287 207.711ZM293.248 207.711L291.845 208.242L292.212 209.211H293.248V207.711ZM259.189 117.74L260.592 117.209L257.689 117.74H259.189ZM259.189 219.5H231.725V222.5H259.189V219.5ZM233.225 221V83.189H230.225V221H233.225ZM231.725 84.689H271.986V81.689H231.725V84.689ZM270.586 83.7282L306.417 176.751L309.217 175.672L273.386 82.6499L270.586 83.7282ZM309.217 176.749L344.949 83.7269L342.149 82.6512L306.417 175.674L309.217 176.749ZM343.549 84.689H383.81V81.689H343.549V84.689ZM382.31 83.189V221H385.31V83.189H382.31ZM383.81 219.5H356.346V222.5H383.81V219.5ZM357.846 221V116.953H354.846V221H357.846ZM354.942 116.426L320.883 207.184L323.691 208.238L357.75 117.48L354.942 116.426ZM322.287 206.211H293.248V209.211H322.287V206.211ZM294.651 207.18L260.592 117.209L257.786 118.271L291.845 208.242L294.651 207.18ZM257.689 117.74V221H260.689V117.74H257.689ZM471.052 222.059C429.448 222.059 400.201 192.406 400.201 152.095H397.201C397.201 194.076 427.804 225.059 471.052 225.059V222.059ZM400.201 152.095C400.201 111.783 429.448 82.1297 471.052 82.1297V79.1297C427.804 79.1297 397.201 110.113 397.201 152.095H400.201ZM471.052 82.1297C512.659 82.1297 542.001 111.786 542.001 152.095H545.001C545.001 110.11 514.297 79.1297 471.052 79.1297V82.1297ZM542.001 152.095C542.001 192.403 512.659 222.059 471.052 222.059V225.059C514.297 225.059 545.001 194.079 545.001 152.095H542.001ZM471.052 198.678C484.122 198.678 495.445 193.961 503.501 185.726C511.555 177.492 516.258 165.831 516.258 152.095H513.258C513.258 165.132 508.806 176.013 501.356 183.628C493.908 191.242 483.379 195.678 471.052 195.678V198.678ZM516.258 152.095C516.258 138.358 511.555 126.697 503.501 118.463C495.445 110.228 484.122 105.511 471.052 105.511V108.511C483.379 108.511 493.908 112.947 501.356 120.561C508.806 128.176 513.258 139.057 513.258 152.095H516.258ZM471.052 105.511C458.03 105.511 446.708 110.229 438.641 118.462C430.575 126.695 425.846 138.355 425.846 152.095H428.846C428.846 139.059 433.322 128.178 440.784 120.562C448.245 112.947 458.776 108.511 471.052 108.511V105.511ZM425.846 152.095C425.846 165.834 430.575 177.494 438.641 185.727C446.708 193.96 458.03 198.678 471.052 198.678V195.678C458.776 195.678 448.245 191.242 440.784 183.627C433.322 176.011 428.846 165.13 428.846 152.095H425.846ZM658.603 221V222.5H660.103V221H658.603ZM558.296 221H556.796V222.5H558.296V221ZM558.296 83.189V81.689H556.796V83.189H558.296ZM585.76 83.189H587.26V81.689H585.76V83.189ZM585.76 195.308H584.26V196.808H585.76V195.308ZM658.603 195.308H660.103V193.808H658.603V195.308ZM658.603 219.5H558.296V222.5H658.603V219.5ZM559.796 221V83.189H556.796V221H559.796ZM558.296 84.689H585.76V81.689H558.296V84.689ZM584.26 83.189V195.308H587.26V83.189H584.26ZM585.76 196.808H658.603V193.808H585.76V196.808ZM657.103 195.308V221H660.103V195.308H657.103ZM770.617 221V222.5H772.117V221H770.617ZM667.653 221H666.153V222.5H667.653V221ZM667.653 83.189V81.689H666.153V83.189H667.653ZM769.83 83.189H771.33V81.689H769.83V83.189ZM769.83 108.389V109.889H771.33V108.389H769.83ZM695.116 108.389V106.889H693.616V108.389H695.116ZM695.116 138.904H693.616V140.404H695.116V138.904ZM766.384 138.904H767.884V137.404H766.384V138.904ZM766.384 164.104V165.604H767.884V164.104H766.384ZM695.116 164.104V162.604H693.616V164.104H695.116ZM695.116 195.8H693.616V197.3H695.116V195.8ZM770.617 195.8H772.117V194.3H770.617V195.8ZM770.617 219.5H667.653V222.5H770.617V219.5ZM669.153 221V83.189H666.153V221H669.153ZM667.653 84.689H769.83V81.689H667.653V84.689ZM768.33 83.189V108.389H771.33V83.189H768.33ZM769.83 106.889H695.116V109.889H769.83V106.889ZM693.616 108.389V138.904H696.616V108.389H693.616ZM695.116 140.404H766.384V137.404H695.116V140.404ZM764.884 138.904V164.104H767.884V138.904H764.884ZM766.384 162.604H695.116V165.604H766.384V162.604ZM693.616 164.104V195.8H696.616V164.104H693.616ZM695.116 197.3H770.617V194.3H695.116V197.3ZM769.117 195.8V221H772.117V195.8H769.117ZM788.929 221H787.429V222.5H788.929V221ZM788.929 83.189V81.689H787.429V83.189H788.929ZM816.393 108.881V107.381H814.893V108.881H816.393ZM816.393 195.308H814.893V196.808H816.393V195.308ZM845.727 219.5H788.929V222.5H845.727V219.5ZM790.429 221V83.189H787.429V221H790.429ZM788.929 84.689H845.727V81.689H788.929V84.689ZM845.727 84.689C866.965 84.689 884.46 91.4238 896.637 103.145C908.808 114.861 915.79 131.679 915.79 152.095H918.79C918.79 130.97 911.549 113.335 898.717 100.984C885.891 88.637 867.605 81.689 845.727 81.689V84.689ZM915.79 152.095C915.79 172.51 908.808 189.328 896.637 201.044C884.46 212.765 866.965 219.5 845.727 219.5V222.5C867.605 222.5 885.891 215.552 898.717 203.205C911.549 190.854 918.79 173.219 918.79 152.095H915.79ZM814.893 108.881V195.308H817.893V108.881H814.893ZM816.393 196.808H845.432V193.808H816.393V196.808ZM845.432 196.808C860.276 196.808 871.487 192.143 878.977 184.1C886.45 176.074 890.047 164.867 890.047 152.095H887.047C887.047 164.325 883.606 174.725 876.781 182.055C869.973 189.367 859.626 193.808 845.432 193.808V196.808ZM890.047 152.095C890.047 139.178 886.451 127.968 878.974 119.976C871.481 111.967 860.269 107.381 845.432 107.381V110.381C859.634 110.381 869.979 114.752 876.784 122.026C883.604 129.316 887.047 139.713 887.047 152.095H890.047ZM845.432 107.381H816.393V110.381H845.432V107.381Z" fill="white"/>
<path d="M141.964 403.209H80.2482V253.465H141.964C188.813 253.465 219.724 283.2 219.724 328.337C219.724 373.474 188.813 403.209 141.964 403.209ZM110.09 281.381V375.292H141.643C173.197 375.292 188.492 355.505 188.492 328.337C188.492 300.848 173.197 281.381 141.643 281.381H110.09ZM265.684 403.209H235.842V253.465H265.684V403.209ZM345.332 405.883C322.657 405.883 298.27 399.251 282.226 386.309L297.735 362.243C308.538 370.907 326.187 378.394 345.439 378.394C362.018 378.394 374.853 371.87 374.853 360.318C374.853 349.943 363.943 346.092 343.086 342.776L333.567 341.279C307.148 337.108 287.895 325.449 287.895 298.388C287.895 267.156 315.704 250.898 347.579 250.898C368.543 250.898 385.977 255.604 404.802 266.835L390.684 291.222C378.918 283.948 364.585 278.493 348.22 278.493C331.428 278.493 319.555 285.125 319.555 296.463C319.555 307.48 332.497 310.795 350.467 313.79L358.916 315.181C385.656 319.566 406.621 331.011 406.621 357.109C406.621 390.16 377.527 405.883 345.332 405.883ZM452.99 403.209H423.148V253.465H484.222C519.947 253.465 538.986 272.076 538.986 301.062C538.986 329.834 519.947 348.445 484.436 348.445H452.99V403.209ZM452.99 280.953V321.17H483.687C499.945 321.17 508.395 314.539 508.395 301.062C508.395 287.692 499.945 280.953 483.687 280.953H452.99ZM662.665 403.209H553.673V253.465H583.514V375.292H662.665V403.209ZM691.997 403.209H660.872L719.165 253.465H755.532L813.825 403.209H781.951L768.902 368.34H705.046L691.997 403.209ZM737.027 282.986L715.315 340.851H758.633L737.027 282.986ZM877.286 403.209H847.444V344.06L789.792 253.465H824.875L862.525 316.999L900.175 253.465H934.189L877.286 344.167V403.209Z" fill="white"/>
</g>
<defs>
<filter id="filter0_d_7159_63378" x="0.248291" y="0.628906" width="1013.94" height="485.254" filterUnits="userSpaceOnUse" color-interpolation-filters="sRGB">
<feFlood flood-opacity="0" result="BackgroundImageFix"/>
<feColorMatrix in="SourceAlpha" type="matrix" values="0 0 0 0 0 0 0 0 0 0 0 0 0 0 0 0 0 0 127 0" result="hardAlpha"/>
<feOffset/>
<feGaussianBlur stdDeviation="40"/>
<feComposite in2="hardAlpha" operator="out"/>
<feColorMatrix type="matrix" values="0 0 0 0 0 0 0 0 0 0 0 0 0 0 0 0 0 0 1 0"/>
<feBlend mode="normal" in2="BackgroundImageFix" result="effect1_dropShadow_7159_63378"/>
<feBlend mode="normal" in="SourceGraphic" in2="effect1_dropShadow_7159_63378" result="shape"/>
</filter>
</defs>
</svg>
