<svg width="213" height="52" viewBox="0 0 213 52" fill="none" xmlns="http://www.w3.org/2000/svg">
<path d="M37.2717 1.15781V11.4823L18.4385 51H2.70256L21.6782 13.2979H0.459664V1.15781H37.2717ZM42.85 35.5133C47.229 35.5133 51.0028 39.2871 51.0028 43.6661C51.0028 48.1163 47.229 51.9256 42.85 51.9256C38.3998 51.9256 34.5904 48.1163 34.5904 43.6661C34.5904 39.2871 38.3998 35.5133 42.85 35.5133ZM56.9988 51L68.783 34.5521C56.9988 34.4453 50.8398 27.0045 50.8398 17.9617C50.8398 7.6729 59.4197 0.232168 70.7766 0.232168C82.0623 0.232168 90.7135 7.49489 90.7135 17.4989C90.7135 22.3407 88.7554 27.1114 85.5157 31.9532L72.7347 51H56.9988ZM70.7766 23.7292C74.3368 23.7292 76.8645 21.2015 76.8645 17.8193C76.8645 14.3304 74.3368 11.8383 70.7766 11.8383C67.2165 11.8383 64.6532 14.3304 64.6532 17.8193C64.6532 21.2015 67.2165 23.7292 70.7766 23.7292ZM137.853 14.7576C146.006 14.7576 151.025 19.9198 151.025 28.037V51H138.351V32.0244C138.351 28.4998 136.678 26.6129 133.901 26.6129C131.444 26.6129 129.486 28.215 129.486 32.0956V51H116.812V32.0244C116.812 28.4998 115.139 26.6129 112.362 26.6129C109.906 26.6129 107.947 28.215 107.947 32.0956V51H95.2733V15.7188H107.342V19.3502C109.336 16.2885 112.469 14.7576 116.883 14.7576C121.405 14.7576 125.143 16.7513 127.35 20.2046C129.486 16.5733 133.011 14.7576 137.853 14.7576ZM199.599 14.7576C207.752 14.7576 212.772 19.9198 212.772 28.037V51H200.098V32.0244C200.098 28.4998 198.424 26.6129 195.647 26.6129C193.191 26.6129 191.233 28.215 191.233 32.0956V51H178.559V32.0244C178.559 28.4998 176.885 26.6129 174.109 26.6129C171.652 26.6129 169.694 28.215 169.694 32.0956V51H157.02V15.7188H169.089V19.3502C171.082 16.2885 174.215 14.7576 178.63 14.7576C183.151 14.7576 186.889 16.7513 189.097 20.2046C191.233 16.5733 194.757 14.7576 199.599 14.7576Z" fill="url(#paint0_linear_7159_63555)"/>
<defs>
<linearGradient id="paint0_linear_7159_63555" x1="108" y1="51" x2="108" y2="-39" gradientUnits="userSpaceOnUse">
<stop stop-color="white"/>
<stop offset="1" stop-color="white" stop-opacity="0"/>
</linearGradient>
</defs>
</svg>
