<svg width="40" height="40" viewBox="0 0 40 40" fill="none" xmlns="http://www.w3.org/2000/svg">
<path d="M14.9987 36.6654H24.9987C33.332 36.6654 36.6654 33.332 36.6654 24.9987V14.9987C36.6654 6.66536 33.332 3.33203 24.9987 3.33203H14.9987C6.66536 3.33203 3.33203 6.66536 3.33203 14.9987V24.9987C3.33203 33.332 6.66536 36.6654 14.9987 36.6654Z" stroke="url(#paint0_linear_7159_64404)" stroke-width="1.5" stroke-linecap="round" stroke-linejoin="round"/>
<path d="M14.1654 19.9987C17.387 19.9987 19.9987 17.387 19.9987 14.1654C19.9987 10.9437 17.387 8.33203 14.1654 8.33203C10.9437 8.33203 8.33203 10.9437 8.33203 14.1654C8.33203 17.387 10.9437 19.9987 14.1654 19.9987Z" stroke="url(#paint1_linear_7159_64404)" stroke-width="1.5" stroke-linecap="round" stroke-linejoin="round"/>
<path d="M25.8333 31.6667C29.055 31.6667 31.6667 29.055 31.6667 25.8333C31.6667 22.6117 29.055 20 25.8333 20C22.6117 20 20 22.6117 20 25.8333C20 29.055 22.6117 31.6667 25.8333 31.6667Z" stroke="url(#paint2_linear_7159_64404)" stroke-width="1.5" stroke-linecap="round" stroke-linejoin="round"/>
<defs>
<linearGradient id="paint0_linear_7159_64404" x1="3.10794" y1="36.6654" x2="23.803" y2="43.3218" gradientUnits="userSpaceOnUse">
<stop stop-color="#CA86FF"/>
<stop offset="1" stop-color="#85E2FD"/>
</linearGradient>
<linearGradient id="paint1_linear_7159_64404" x1="8.2536" y1="19.9987" x2="15.4969" y2="22.3284" gradientUnits="userSpaceOnUse">
<stop stop-color="#CA86FF"/>
<stop offset="1" stop-color="#85E2FD"/>
</linearGradient>
<linearGradient id="paint2_linear_7159_64404" x1="19.9216" y1="31.6667" x2="27.1648" y2="33.9964" gradientUnits="userSpaceOnUse">
<stop stop-color="#CA86FF"/>
<stop offset="1" stop-color="#85E2FD"/>
</linearGradient>
</defs>
</svg>
