<svg width="44" height="43" viewBox="0 0 44 43" fill="none" xmlns="http://www.w3.org/2000/svg">
<path d="M1 21.6875C1 10.1059 10.4184 0.6875 22 0.6875C33.5816 0.6875 43 10.1059 43 21.6875C43 33.2691 33.5816 42.6875 22 42.6875C10.4184 42.6875 1 33.2691 1 21.6875ZM42.3356 21.6875C42.3356 10.4726 33.2149 1.35189 22 1.35189C10.7851 1.35189 1.66439 10.4726 1.66439 21.6875C1.66439 32.9024 10.7851 42.0231 22 42.0231C33.2149 42.0231 42.3356 32.9024 42.3356 21.6875Z" fill="#CECCD5" stroke="#CECCD5" stroke-width="0.5"/>
<path fill-rule="evenodd" clip-rule="evenodd" d="M16.6369 12.2743V9.1543H18.0719V12.2743H16.6369ZM7.99448 22.3517H4.87451V20.9166H7.99448V22.3517ZM10.2268 15.5218L8.02106 13.316L9.03624 12.3008L11.242 14.5066L10.2268 15.5218ZM17.3544 13.7412C15.1752 13.7412 13.2033 14.6235 11.7735 16.0533C10.3438 17.4831 9.46145 19.455 9.46145 21.6342C9.46145 23.8134 10.3438 25.7853 11.7735 27.215C13.2033 28.6448 15.1752 29.5271 17.3544 29.5271C19.0712 29.5271 20.6657 28.9796 21.9626 28.0442C23.2595 28.9796 24.8487 29.5271 26.5708 29.5271C28.75 29.5271 30.7219 28.6448 32.1517 27.215C33.5814 25.7853 34.4637 23.8134 34.4637 21.6342C34.4637 19.455 33.5814 17.4831 32.1517 16.0533C30.7219 14.6235 28.75 13.7412 26.5708 13.7412C24.854 13.7412 23.2595 14.2887 21.9626 15.2241C20.6657 14.2887 19.0765 13.7412 17.3544 13.7412ZM31.1312 17.0685C32.3005 18.2378 33.0233 19.8536 33.0233 21.6342C33.0233 23.4147 32.3005 25.0305 31.1312 26.1998C29.9618 27.3692 28.346 28.092 26.5655 28.092C24.7849 28.092 23.1691 27.3692 21.9998 26.1998C20.8305 25.0305 20.1076 23.4147 20.1076 21.6342C20.1076 19.8536 20.8305 18.2378 21.9998 17.0685C23.1691 15.8992 24.7849 15.1763 26.5655 15.1763C28.346 15.1763 29.9618 15.8992 31.1312 17.0685ZM23.5518 16.7495C24.6148 18.0943 25.2473 19.7898 25.2473 21.6342C25.2473 23.4785 24.6148 25.1793 23.5518 26.5187C23.1744 26.2849 22.8236 26.0032 22.5101 25.6896C21.9785 25.1581 21.5533 24.5256 21.261 23.8293C20.9793 23.1543 20.8305 22.4155 20.8305 21.6342C20.8305 20.8528 20.9846 20.1087 21.261 19.439C21.548 18.7427 21.9785 18.1102 22.5101 17.5787C22.8236 17.2651 23.1744 16.9834 23.5518 16.7495Z" fill="#CECCD5"/>
</svg>
