<svg width="32" height="32" viewBox="0 0 32 32" fill="none" xmlns="http://www.w3.org/2000/svg">
<path d="M16 32C7.17591 32 0 24.8241 0 16C0 7.1759 7.17591 0 16 0C24.8241 0 32 7.1759 32 16C32 24.8241 24.8241 32 16 32ZM16 0.506201C7.45533 0.506201 0.506201 7.45532 0.506201 16C0.506201 24.5447 7.45533 31.4938 16 31.4938C24.5447 31.4938 31.4938 24.5447 31.4938 16C31.4938 7.45532 24.5447 0.506201 16 0.506201Z" fill="white"/>
<path d="M27.3066 9.65808C28.3878 11.5857 28.9629 13.7725 28.9629 15.9998C28.9629 18.227 28.4364 20.2316 27.4402 22.0985L23.338 15.7082L19.6852 10.0185L27.3106 9.65808H27.3066ZM19.9201 22.2038L16.4375 28.9504C20.8272 28.8006 24.889 26.4072 27.1446 22.6168L23.0221 16.1941L19.9201 22.2038ZM16.1621 3.04102L12.6632 9.82006L19.418 9.50014L27.0069 9.14378C24.6744 5.41004 20.5721 3.09366 16.1661 3.04102H16.1621ZM12.5903 22.4994L5.00136 22.8557C7.33394 26.5895 11.4362 28.9059 15.8422 28.9585L19.341 22.1795L12.5863 22.4994H12.5903ZM4.85963 9.3827L8.98213 15.8054L12.0841 9.79576L15.5668 3.04912C11.173 3.19895 7.11526 5.59227 4.85963 9.3827ZM4.56807 9.90105C3.57186 11.7679 3.04541 13.8697 3.04541 15.9998C3.04541 18.1299 3.6164 20.4138 4.7017 22.3414L12.3271 21.981L8.67436 16.2913L4.57211 9.90105H4.56807Z" fill="white"/>
</svg>
