<svg width="44" height="43" viewBox="0 0 44 43" fill="none" xmlns="http://www.w3.org/2000/svg">
<path d="M22 42.6875C10.4184 42.6875 1 33.2691 1 21.6875C1 10.1059 10.4237 0.6875 22 0.6875C33.5763 0.6875 43 10.1059 43 21.6875C43 33.2691 33.5816 42.6875 22 42.6875ZM22 1.35189C10.7851 1.35189 1.66439 10.4726 1.66439 21.6875C1.66439 32.9024 10.7851 42.0231 22 42.0231C33.2149 42.0231 42.3356 32.9024 42.3356 21.6875C42.3356 10.4726 33.2149 1.35189 22 1.35189Z" fill="#CECCD5" stroke="#CECCD5" stroke-width="0.5"/>
<path d="M31.193 22.8199C31.193 27.82 27.135 31.8781 22.1351 31.8781C17.1351 31.8781 13.0771 27.82 13.0771 22.8199C13.0771 17.8198 17.1351 13.7617 22.1351 13.7617C27.135 13.7617 31.193 17.8198 31.193 22.8199Z" stroke="#CECCD5" stroke-width="1.2" stroke-linecap="round" stroke-linejoin="round"/>
<path d="M22.135 17.3867V22.5628" stroke="#CECCD5" stroke-width="1.2" stroke-linecap="round" stroke-linejoin="round"/>
<path d="M19.0295 11.1758H25.2407" stroke="#CECCD5" stroke-width="1.2" stroke-miterlimit="10" stroke-linecap="round" stroke-linejoin="round"/>
</svg>
