<svg width="116" height="127" viewBox="0 0 116 127" fill="none" xmlns="http://www.w3.org/2000/svg">
<mask id="path-1-outside-1_7159_64827" maskUnits="userSpaceOnUse" x="12" y="48" width="37" height="78" fill="black">
<rect fill="white" x="12" y="48" width="37" height="78"/>
<path d="M36.416 109.504L36.416 115.48L47 115.48L47 124.6L13.4 124.6L13.4 109.624C13.4 101.08 18.104 96.592 25.016 96.592C31.784 96.592 36.416 101.08 36.416 109.504ZM21.584 109.72L21.584 115.48L28.424 115.48L28.424 109.72C28.424 107.464 27.2 105.808 25.016 105.808C22.832 105.808 21.584 107.464 21.584 109.72ZM22.568 78.8931C22.568 77.9571 22.736 77.0931 22.808 76.7571L31.352 77.2371C31.088 78.2211 30.8 79.6131 30.8 80.9811C30.8 83.3571 31.64 84.7971 34.256 84.7971L47 84.7971L47 93.3651L23.216 93.3651L23.216 85.2051L25.616 85.2051C23.504 83.8851 22.568 81.7971 22.568 78.8931ZM22.568 62.6414C22.568 55.1774 27.872 49.6814 35.096 49.6814C42.32 49.6814 47.624 55.1774 47.624 62.6414C47.624 70.1054 42.32 75.6014 35.096 75.6014C27.872 75.6014 22.568 70.1054 22.568 62.6414ZM30.512 62.6414C30.512 65.0894 32.432 66.8654 35.096 66.8654C37.76 66.8654 39.68 65.0894 39.68 62.6414C39.68 60.1934 37.76 58.4174 35.096 58.4174C32.432 58.4174 30.512 60.1934 30.512 62.6414Z"/>
</mask>
<path d="M36.416 115.48L35.416 115.48L35.416 116.48L36.416 116.48L36.416 115.48ZM47 115.48L48 115.48L48 114.48L47 114.48L47 115.48ZM47 124.6L47 125.6L48 125.6L48 124.6L47 124.6ZM13.4 124.6L12.4 124.6L12.4 125.6L13.4 125.6L13.4 124.6ZM21.584 115.48L20.584 115.48L20.584 116.48L21.584 116.48L21.584 115.48ZM28.424 115.48L28.424 116.48L29.424 116.48L29.424 115.48L28.424 115.48ZM35.416 109.504L35.416 115.48L37.416 115.48L37.416 109.504L35.416 109.504ZM36.416 116.48L47 116.48L47 114.48L36.416 114.48L36.416 116.48ZM46 115.48L46 124.6L48 124.6L48 115.48L46 115.48ZM47 123.6L13.4 123.6L13.4 125.6L47 125.6L47 123.6ZM14.4 124.6L14.4 109.624L12.4 109.624L12.4 124.6L14.4 124.6ZM14.4 109.624C14.4 105.531 15.5247 102.543 17.3477 100.586C19.1638 98.636 21.782 97.592 25.016 97.592L25.016 95.592C21.3379 95.592 18.1482 96.792 15.8843 99.2224C13.6273 101.645 12.4 105.173 12.4 109.624L14.4 109.624ZM25.016 97.592C28.1718 97.592 30.736 98.632 32.5186 100.567C34.309 102.51 35.416 105.471 35.416 109.504L37.416 109.504C37.416 105.113 36.207 101.618 33.9894 99.2114C31.7639 96.796 28.6282 95.592 25.016 95.592L25.016 97.592ZM20.584 109.72L20.584 115.48L22.584 115.48L22.584 109.72L20.584 109.72ZM21.584 116.48L28.424 116.48L28.424 114.48L21.584 114.48L21.584 116.48ZM29.424 115.48L29.424 109.72L27.424 109.72L27.424 115.48L29.424 115.48ZM29.424 109.72C29.424 108.421 29.0718 107.197 28.3078 106.278C27.5255 105.338 26.3837 104.808 25.016 104.808L25.016 106.808C25.8323 106.808 26.3945 107.106 26.7702 107.558C27.1642 108.031 27.424 108.763 27.424 109.72L29.424 109.72ZM25.016 104.808C23.6492 104.808 22.5033 105.337 21.7155 106.275C20.9446 107.192 20.584 108.416 20.584 109.72L22.584 109.72C22.584 108.768 22.8474 108.036 23.2465 107.561C23.6287 107.107 24.1988 106.808 25.016 106.808L25.016 104.808ZM22.808 76.7571L22.8641 75.7587L22.0095 75.7107L21.8302 76.5476L22.808 76.7571ZM31.352 77.2371L32.3178 77.4963L32.6367 76.3077L31.4081 76.2387L31.352 77.2371ZM47 84.7971L48 84.7971L48 83.7971L47 83.7971L47 84.7971ZM47 93.3651L47 94.3651L48 94.3651L48 93.3651L47 93.3651ZM23.216 93.3651L22.216 93.3651L22.216 94.3651L23.216 94.3651L23.216 93.3651ZM23.216 85.2051L23.216 84.2051L22.216 84.2051L22.216 85.2051L23.216 85.2051ZM25.616 85.2051L25.616 86.2051L29.1028 86.2051L26.146 84.3571L25.616 85.2051ZM23.568 78.8931C23.568 78.0617 23.7191 77.2781 23.7858 76.9667L21.8302 76.5476C21.7529 76.9082 21.568 77.8525 21.568 78.8931L23.568 78.8931ZM22.7519 77.7556L31.2959 78.2356L31.4081 76.2387L22.8641 75.7587L22.7519 77.7556ZM30.3862 76.978C30.1116 78.0014 29.8 79.4888 29.8 80.9811L31.8 80.9811C31.8 79.7375 32.0644 78.4408 32.3178 77.4963L30.3862 76.978ZM29.8 80.9811C29.8 82.2513 30.0174 83.4889 30.7727 84.413C31.564 85.3811 32.7671 85.7971 34.256 85.7971L34.256 83.7971C33.1289 83.7971 32.604 83.4931 32.3213 83.1473C32.0026 82.7573 31.8 82.087 31.8 80.9811L29.8 80.9811ZM34.256 85.7971L47 85.7971L47 83.7971L34.256 83.7971L34.256 85.7971ZM46 84.7971L46 93.3651L48 93.3651L48 84.7971L46 84.7971ZM47 92.3651L23.216 92.3651L23.216 94.3651L47 94.3651L47 92.3651ZM24.216 93.3651L24.216 85.2051L22.216 85.2051L22.216 93.3651L24.216 93.3651ZM23.216 86.2051L25.616 86.2051L25.616 84.2051L23.216 84.2051L23.216 86.2051ZM26.146 84.3571C24.4034 83.268 23.568 81.5542 23.568 78.8931L21.568 78.8931C21.568 82.0401 22.6046 84.5022 25.086 86.0531L26.146 84.3571ZM23.568 62.6414C23.568 55.697 28.4564 50.6814 35.096 50.6814L35.096 48.6814C27.2876 48.6814 21.568 54.6578 21.568 62.6414L23.568 62.6414ZM35.096 50.6814C41.7356 50.6814 46.624 55.697 46.624 62.6414L48.624 62.6414C48.624 54.6578 42.9044 48.6814 35.096 48.6814L35.096 50.6814ZM46.624 62.6414C46.624 69.5858 41.7356 74.6014 35.096 74.6014L35.096 76.6014C42.9044 76.6014 48.624 70.625 48.624 62.6414L46.624 62.6414ZM35.096 74.6014C28.4564 74.6014 23.568 69.5858 23.568 62.6414L21.568 62.6414C21.568 70.625 27.2876 76.6014 35.096 76.6014L35.096 74.6014ZM29.512 62.6414C29.512 65.7161 31.9572 67.8654 35.096 67.8654L35.096 65.8654C32.9068 65.8654 31.512 64.4627 31.512 62.6414L29.512 62.6414ZM35.096 67.8654C38.2348 67.8654 40.68 65.7161 40.68 62.6414L38.68 62.6414C38.68 64.4627 37.2852 65.8654 35.096 65.8654L35.096 67.8654ZM40.68 62.6414C40.68 59.5667 38.2348 57.4174 35.096 57.4174L35.096 59.4174C37.2852 59.4174 38.68 60.8201 38.68 62.6414L40.68 62.6414ZM35.096 57.4174C31.9572 57.4174 29.512 59.5667 29.512 62.6414L31.512 62.6414C31.512 60.8201 32.9068 59.4174 35.096 59.4174L35.096 57.4174Z" fill="url(#paint0_linear_7159_64827)" mask="url(#path-1-outside-1_7159_64827)"/>
<mask id="path-3-outside-2_7159_64827" maskUnits="userSpaceOnUse" x="69" y="5.42793e-06" width="38" height="126" fill="black">
<rect fill="white" x="69" y="5.42793e-06" width="38" height="126"/>
<path d="M71.4 85.84L105 85.84L105 94.96L83.976 94.96L101.88 100.36L101.88 110.08L83.976 115.48L105 115.48L105 124.6L71.4 124.6L71.4 111.952L91.608 105.208L71.4 98.488L71.4 85.84ZM80.568 69.4851C80.568 62.0211 85.872 56.5251 93.096 56.5251C100.32 56.5251 105.624 62.0211 105.624 69.4851C105.624 76.9491 100.32 82.4451 93.096 82.4451C85.872 82.4451 80.568 76.9491 80.568 69.4851ZM88.512 69.4851C88.512 71.9331 90.432 73.7091 93.096 73.7091C95.76 73.7091 97.68 71.9331 97.68 69.4851C97.68 67.0371 95.76 65.2611 93.096 65.2611C90.432 65.2611 88.512 67.0371 88.512 69.4851ZM80.568 43.6596C80.568 40.9236 81.528 38.9796 82.944 37.5636L70.44 37.5636L70.44 29.0196L105 29.0196L105 37.2036L102.912 37.2036C104.496 38.6196 105.624 40.6836 105.624 43.6836C105.624 50.0436 99.984 54.5076 93.072 54.5076C86.208 54.5076 80.568 50.0436 80.568 43.6596ZM88.512 41.4756C88.512 43.9236 90.432 45.6996 93.096 45.6996C95.76 45.6996 97.68 43.9236 97.68 41.4756C97.68 39.0276 95.76 37.2516 93.096 37.2516C90.432 37.2516 88.512 39.0276 88.512 41.4756ZM80.568 13.5539C80.568 6.35388 85.656 1.40988 93.096 1.38588C93.912 1.38588 95.16 1.45788 95.64 1.55388L95.64 17.0819C97.56 16.5059 98.52 15.0659 98.52 12.8099C98.52 11.2739 97.872 9.61788 96.6 8.32188L101.496 2.46588C103.992 4.76988 105.624 8.51388 105.624 13.2179C105.624 20.8259 100.68 25.9139 93.312 25.9139C85.776 25.9139 80.568 20.8739 80.568 13.5539ZM87.744 13.5059C87.744 15.3299 88.632 16.5059 90.48 17.0579L90.48 9.90588C88.632 10.5299 87.744 11.7299 87.744 13.5059Z"/>
</mask>
<path d="M71.4 85.84L71.4 84.84L70.4 84.84L70.4 85.84L71.4 85.84ZM105 85.84L106 85.84L106 84.84L105 84.84L105 85.84ZM105 94.96L105 95.96L106 95.96L106 94.96L105 94.96ZM83.976 94.96L83.976 93.96L83.6872 95.9174L83.976 94.96ZM101.88 100.36L102.88 100.36L102.88 99.6171L102.169 99.4026L101.88 100.36ZM101.88 110.08L102.169 111.037L102.88 110.823L102.88 110.08L101.88 110.08ZM83.976 115.48L83.6872 114.523L83.976 116.48L83.976 115.48ZM105 115.48L106 115.48L106 114.48L105 114.48L105 115.48ZM105 124.6L105 125.6L106 125.6L106 124.6L105 124.6ZM71.4 124.6L70.4 124.6L70.4 125.6L71.4 125.6L71.4 124.6ZM71.4 111.952L71.0834 111.003L70.4 111.232L70.4 111.952L71.4 111.952ZM91.608 105.208L91.9246 106.157L94.772 105.206L91.9235 104.259L91.608 105.208ZM71.4 98.488L70.4 98.488L70.4 99.2093L71.0844 99.4369L71.4 98.488ZM71.4 86.84L105 86.84L105 84.84L71.4 84.84L71.4 86.84ZM104 85.84L104 94.96L106 94.96L106 85.84L104 85.84ZM105 93.96L83.976 93.96L83.976 95.96L105 95.96L105 93.96ZM83.6872 95.9174L101.591 101.317L102.169 99.4026L84.2648 94.0026L83.6872 95.9174ZM100.88 100.36L100.88 110.08L102.88 110.08L102.88 100.36L100.88 100.36ZM101.591 109.123L83.6872 114.523L84.2648 116.437L102.169 111.037L101.591 109.123ZM83.976 116.48L105 116.48L105 114.48L83.976 114.48L83.976 116.48ZM104 115.48L104 124.6L106 124.6L106 115.48L104 115.48ZM105 123.6L71.4 123.6L71.4 125.6L105 125.6L105 123.6ZM72.4 124.6L72.4 111.952L70.4 111.952L70.4 124.6L72.4 124.6ZM71.7166 112.901L91.9246 106.157L91.2914 104.259L71.0834 111.003L71.7166 112.901ZM91.9235 104.259L71.7155 97.5391L71.0844 99.4369L91.2924 106.157L91.9235 104.259ZM72.4 98.488L72.4 85.84L70.4 85.84L70.4 98.488L72.4 98.488ZM81.568 69.4851C81.568 62.5407 86.4564 57.5251 93.096 57.5251L93.096 55.5251C85.2876 55.5251 79.568 61.5015 79.568 69.4851L81.568 69.4851ZM93.096 57.5251C99.7356 57.5251 104.624 62.5407 104.624 69.4851L106.624 69.4851C106.624 61.5015 100.904 55.5251 93.096 55.5251L93.096 57.5251ZM104.624 69.4851C104.624 76.4295 99.7356 81.4451 93.096 81.4451L93.096 83.4451C100.904 83.4451 106.624 77.4687 106.624 69.4851L104.624 69.4851ZM93.096 81.4451C86.4564 81.4451 81.568 76.4295 81.568 69.4851L79.568 69.4851C79.568 77.4687 85.2876 83.4451 93.096 83.4451L93.096 81.4451ZM87.512 69.4851C87.512 72.5598 89.9572 74.7091 93.096 74.7091L93.096 72.7091C90.9068 72.7091 89.512 71.3064 89.512 69.4851L87.512 69.4851ZM93.096 74.7091C96.2348 74.7091 98.68 72.5598 98.68 69.4851L96.68 69.4851C96.68 71.3064 95.2852 72.7091 93.096 72.7091L93.096 74.7091ZM98.68 69.4851C98.68 66.4104 96.2348 64.2611 93.096 64.2611L93.096 66.2611C95.2852 66.2611 96.68 67.6638 96.68 69.4851L98.68 69.4851ZM93.096 64.2611C89.9572 64.2611 87.512 66.4104 87.512 69.4851L89.512 69.4851C89.512 67.6638 90.9068 66.2611 93.096 66.2611L93.096 64.2611ZM82.944 37.5636L83.6511 38.2707L85.3582 36.5636L82.944 36.5636L82.944 37.5636ZM70.44 37.5636L69.44 37.5636L69.44 38.5636L70.44 38.5636L70.44 37.5636ZM70.44 29.0196L70.44 28.0196L69.44 28.0196L69.44 29.0196L70.44 29.0196ZM105 29.0196L106 29.0196L106 28.0196L105 28.0196L105 29.0196ZM105 37.2036L105 38.2036L106 38.2036L106 37.2036L105 37.2036ZM102.912 37.2036L102.912 36.2036L100.293 36.2036L102.246 37.9492L102.912 37.2036ZM81.568 43.6596C81.568 41.1897 82.422 39.4998 83.6511 38.2707L82.2369 36.8565C80.634 38.4594 79.568 40.6575 79.568 43.6596L81.568 43.6596ZM82.944 36.5636L70.44 36.5636L70.44 38.5636L82.944 38.5636L82.944 36.5636ZM71.44 37.5636L71.44 29.0196L69.44 29.0196L69.44 37.5636L71.44 37.5636ZM70.44 30.0196L105 30.0196L105 28.0196L70.44 28.0196L70.44 30.0196ZM104 29.0196L104 37.2036L106 37.2036L106 29.0196L104 29.0196ZM105 36.2036L102.912 36.2036L102.912 38.2036L105 38.2036L105 36.2036ZM102.246 37.9492C103.619 39.1771 104.624 40.9708 104.624 43.6836L106.624 43.6836C106.624 40.3965 105.373 38.0621 103.578 36.4581L102.246 37.9492ZM104.624 43.6836C104.624 49.3355 99.6017 53.5076 93.072 53.5076L93.072 55.5076C100.366 55.5076 106.624 50.7518 106.624 43.6836L104.624 43.6836ZM93.072 53.5076C86.5945 53.5076 81.568 49.339 81.568 43.6596L79.568 43.6596C79.568 50.7482 85.8215 55.5076 93.072 55.5076L93.072 53.5076ZM87.512 41.4756C87.512 44.5503 89.9572 46.6996 93.096 46.6996L93.096 44.6996C90.9068 44.6996 89.512 43.2969 89.512 41.4756L87.512 41.4756ZM93.096 46.6996C96.2348 46.6996 98.68 44.5503 98.68 41.4756L96.68 41.4756C96.68 43.2969 95.2852 44.6996 93.096 44.6996L93.096 46.6996ZM98.68 41.4756C98.68 38.4009 96.2348 36.2516 93.096 36.2516L93.096 38.2516C95.2852 38.2516 96.68 39.6543 96.68 41.4756L98.68 41.4756ZM93.096 36.2516C89.9572 36.2516 87.512 38.4009 87.512 41.4756L89.512 41.4756C89.512 39.6543 90.9068 38.2516 93.096 38.2516L93.096 36.2516ZM93.096 1.38588L93.096 0.385878L93.0928 0.385886L93.096 1.38588ZM95.64 1.55388L96.64 1.55388L96.64 0.734076L95.8361 0.573301L95.64 1.55388ZM95.64 17.0819L94.64 17.0819L94.64 18.4259L95.9273 18.0397L95.64 17.0819ZM96.6 8.32188L95.8328 7.68046L95.2516 8.37565L95.8863 9.02234L96.6 8.32188ZM101.496 2.46588L102.174 1.73108L101.402 1.01867L100.729 1.82446L101.496 2.46588ZM90.48 17.0579L90.1938 18.016L91.48 18.4002L91.48 17.0579L90.48 17.0579ZM90.48 9.90588L91.48 9.90588L91.48 8.51275L90.1601 8.95843L90.48 9.90588ZM81.568 13.5539C81.568 10.1977 82.7488 7.42923 84.7388 5.49618C86.7313 3.56064 89.6034 2.39715 93.0992 2.38588L93.0928 0.385886C89.1486 0.398612 85.7567 1.71911 83.3452 4.06158C80.9312 6.40653 79.568 9.71005 79.568 13.5539L81.568 13.5539ZM93.096 2.38588C93.9022 2.38588 95.0667 2.45903 95.4439 2.53446L95.8361 0.573301C95.2533 0.456732 93.9218 0.385878 93.096 0.385878L93.096 2.38588ZM94.64 1.55388L94.64 17.0819L96.64 17.0819L96.64 1.55388L94.64 1.55388ZM95.9273 18.0397C97.0727 17.6961 98.0011 17.0692 98.6299 16.1338C99.2508 15.2102 99.52 14.075 99.52 12.8099L97.52 12.8099C97.52 13.8008 97.3092 14.5135 96.9701 15.018C96.6389 15.5106 96.1273 15.8917 95.3526 16.1241L95.9273 18.0397ZM99.52 12.8099C99.52 11.0007 98.7612 9.09621 97.3137 7.62141L95.8863 9.02234C96.9828 10.1395 97.52 11.5471 97.52 12.8099L99.52 12.8099ZM97.3672 8.9633L102.263 3.1073L100.729 1.82446L95.8328 7.68046L97.3672 8.9633ZM100.818 3.20068C103.073 5.2827 104.624 8.74084 104.624 13.2179L106.624 13.2179C106.624 8.28692 104.911 4.25706 102.174 1.73108L100.818 3.20068ZM104.624 13.2179C104.624 16.8023 103.463 19.7133 101.513 21.7225C99.5663 23.7291 96.7582 24.9139 93.312 24.9139L93.312 26.9139C97.2337 26.9139 100.582 25.5546 102.949 23.1153C105.313 20.6785 106.624 17.2414 106.624 13.2179L104.624 13.2179ZM93.312 24.9139C89.7705 24.9139 86.8448 23.7331 84.81 21.7608C82.7776 19.791 81.568 16.9683 81.568 13.5539L79.568 13.5539C79.568 17.4594 80.9624 20.8168 83.418 23.1969C85.8712 25.5747 89.3175 26.9139 93.312 26.9139L93.312 24.9139ZM86.744 13.5059C86.744 14.5833 87.0088 15.5628 87.6253 16.3672C88.2391 17.168 89.1264 17.6972 90.1938 18.016L90.7662 16.0997C89.9856 15.8665 89.5049 15.5318 89.2127 15.1505C88.9232 14.7729 88.744 14.2524 88.744 13.5059L86.744 13.5059ZM91.48 17.0579L91.48 9.90588L89.48 9.90588L89.48 17.0579L91.48 17.0579ZM90.1601 8.95843C89.0995 9.31653 88.2253 9.87085 87.6209 10.6713C87.0121 11.4776 86.744 12.4454 86.744 13.5059L88.744 13.5059C88.744 12.7904 88.9198 12.2701 89.2171 11.8764C89.5187 11.4769 90.0124 11.1192 90.7999 10.8533L90.1601 8.95843Z" fill="url(#paint1_linear_7159_64827)" mask="url(#path-3-outside-2_7159_64827)"/>
<defs>
<linearGradient id="paint0_linear_7159_64827" x1="58" y1="127.531" x2="77.8925" y2="82.1245" gradientUnits="userSpaceOnUse">
<stop stop-color="#CA86FF"/>
<stop offset="1" stop-color="#85E2FD"/>
</linearGradient>
<linearGradient id="paint1_linear_7159_64827" x1="116" y1="127.854" x2="156.96" y2="69.6958" gradientUnits="userSpaceOnUse">
<stop stop-color="#CA86FF"/>
<stop offset="1" stop-color="#85E2FD"/>
</linearGradient>
</defs>
</svg>
