<svg width="361" height="472" viewBox="0 0 361 472" fill="none" xmlns="http://www.w3.org/2000/svg">
<mask id="path-1-outside-1_7159_63510" maskUnits="userSpaceOnUse" x="-2.00002" y="-1.99999" width="365" height="476" fill="black">
<rect fill="white" x="-2.00002" y="-1.99999" width="365" height="476"/>
<path d="M7.39998 372.536L36.8 372.536L36.8 405.968L125 405.968L125 437.888L36.8 437.888L36.8 471.32L7.39999 471.32L7.39998 372.536ZM41.756 333.577L125 333.577L125 363.481L41.756 363.481L41.756 333.577ZM0.259991 348.613C0.259991 338.953 7.73599 331.477 17.396 331.477C27.056 331.477 34.532 338.953 34.532 348.613C34.532 358.273 27.056 365.749 17.396 365.749C7.73599 365.749 0.259991 358.273 0.259991 348.613ZM39.488 218.556C39.488 199.32 51.668 187.476 70.82 187.476L125 187.476L125 217.38L80.228 217.38C71.912 217.38 67.46 221.328 67.46 227.88C67.46 233.676 71.24 238.296 80.396 238.296L125 238.296L125 268.2L80.228 268.2C71.912 268.2 67.46 272.148 67.46 278.7C67.46 284.496 71.24 289.116 80.396 289.116L125 289.116L125 319.02L41.756 319.02L41.756 290.544L50.324 290.544C43.1 285.84 39.488 278.448 39.488 268.032C39.488 257.364 44.192 248.544 52.34 243.336C43.772 238.296 39.488 229.98 39.488 218.556ZM39.488 133.853C39.488 108.653 57.296 91.3486 83.336 91.2646C86.192 91.2646 90.56 91.5166 92.24 91.8526L92.24 146.201C98.96 144.185 102.32 139.145 102.32 131.249C102.32 125.873 100.052 120.077 95.6 115.541L112.736 95.0446C121.472 103.109 127.184 116.213 127.184 132.677C127.184 159.305 109.88 177.113 84.092 177.113C57.716 177.113 39.488 159.473 39.488 133.853ZM64.604 133.685C64.604 140.069 67.712 144.185 74.18 146.117L74.18 121.085C67.712 123.269 64.604 127.469 64.604 133.685ZM297.6 376.064L327 376.064L327 464.6L209.4 464.6L209.4 432.68L297.6 432.68L297.6 376.064ZM243.756 280.758L327 280.758L327 309.486L319.692 309.486C325.236 314.442 329.184 321.666 329.184 332.166C329.184 354.426 309.444 370.05 285.252 370.05C261.228 370.05 241.488 354.426 241.488 332.082C241.488 321.666 245.52 314.442 251.232 309.486L243.756 309.486L243.756 280.758ZM269.292 324.438C269.292 333.006 276.012 339.222 285.336 339.222C294.66 339.222 301.38 333.006 301.38 324.438C301.38 315.87 294.66 309.654 285.336 309.654C276.012 309.654 269.292 315.87 269.292 324.438ZM241.488 214.952C241.488 192.608 261.228 176.984 285.252 176.984C309.444 176.984 329.184 192.608 329.184 214.868C329.184 224.528 325.908 231.416 321.036 236.288L360.6 236.288L360.6 266.192L243.756 266.192L243.756 237.548L251.232 237.548C245.52 232.592 241.488 225.452 241.488 214.952ZM269.292 222.596C269.292 231.164 276.012 237.38 285.336 237.38C294.66 237.38 301.38 231.164 301.38 222.596C301.38 214.028 294.66 207.812 285.336 207.812C276.012 207.812 269.292 214.028 269.292 222.596ZM247.956 95.5145L271.308 102.655C267.78 112.147 265.176 123.067 265.176 130.711C265.176 136.507 266.352 137.935 268.284 137.935C271.308 137.935 271.476 132.223 272.736 124.663L273.576 119.623C276.516 101.899 285.252 93.0785 299.112 93.0785C318.348 93.0785 329.184 107.443 329.184 131.803C329.184 148.351 326.244 162.967 321.204 171.367L297.852 161.791C302.892 152.551 305.412 142.387 305.412 131.635C305.412 125.083 304.32 122.983 301.884 122.983C299.196 122.983 298.692 126.427 297.264 135.667L296.76 138.943C293.568 159.523 285.336 168.763 269.88 168.763C251.568 168.763 241.488 155.407 241.488 132.139C241.488 118.447 242.832 111.139 247.956 95.5145ZM241.488 43.4542C241.488 18.2542 259.296 0.950196 285.336 0.866201C288.192 0.8662 292.56 1.11819 294.24 1.4542L294.24 55.8022C300.96 53.7862 304.32 48.7462 304.32 40.8502C304.32 35.4742 302.052 29.6782 297.6 25.1422L314.736 4.6462C323.472 12.7102 329.184 25.8142 329.184 42.2782C329.184 68.9062 311.88 86.7142 286.092 86.7142C259.716 86.7142 241.488 69.0742 241.488 43.4542ZM266.604 43.2862C266.604 49.6702 269.712 53.7862 276.18 55.7182L276.18 30.6862C269.712 32.8702 266.604 37.0702 266.604 43.2862Z"/>
</mask>
<path d="M7.39999 372.536L7.39999 370.536L5.39999 370.536L5.39999 372.536L7.39999 372.536ZM36.8 372.536L38.8 372.536L38.8 370.536L36.8 370.536L36.8 372.536ZM36.8 405.968L34.8 405.968L34.8 407.968L36.8 407.968L36.8 405.968ZM125 405.968L127 405.968L127 403.968L125 403.968L125 405.968ZM125 437.888L125 439.888L127 439.888L127 437.888L125 437.888ZM36.8 437.888L36.8 435.888L34.8 435.888L34.8 437.888L36.8 437.888ZM36.8 471.32L36.8 473.32L38.8 473.32L38.8 471.32L36.8 471.32ZM7.39999 471.32L5.39999 471.32L5.39999 473.32L7.39999 473.32L7.39999 471.32ZM7.39999 374.536L36.8 374.536L36.8 370.536L7.39999 370.536L7.39999 374.536ZM34.8 372.536L34.8 405.968L38.8 405.968L38.8 372.536L34.8 372.536ZM36.8 407.968L125 407.968L125 403.968L36.8 403.968L36.8 407.968ZM123 405.968L123 437.888L127 437.888L127 405.968L123 405.968ZM125 435.888L36.8 435.888L36.8 439.888L125 439.888L125 435.888ZM34.8 437.888L34.8 471.32L38.8 471.32L38.8 437.888L34.8 437.888ZM36.8 469.32L7.39999 469.32L7.39999 473.32L36.8 473.32L36.8 469.32ZM9.39999 471.32L9.39999 372.536L5.39999 372.536L5.39999 471.32L9.39999 471.32ZM41.756 333.577L41.756 331.577L39.756 331.577L39.756 333.577L41.756 333.577ZM125 333.577L127 333.577L127 331.577L125 331.577L125 333.577ZM125 363.481L125 365.481L127 365.481L127 363.481L125 363.481ZM41.756 363.481L39.756 363.481L39.756 365.481L41.756 365.481L41.756 363.481ZM41.756 335.577L125 335.577L125 331.577L41.756 331.577L41.756 335.577ZM123 333.577L123 363.481L127 363.481L127 333.577L123 333.577ZM125 361.481L41.756 361.481L41.756 365.481L125 365.481L125 361.481ZM43.756 363.481L43.756 333.577L39.756 333.577L39.756 363.481L43.756 363.481ZM2.25999 348.613C2.25999 340.058 8.84056 333.477 17.396 333.477L17.396 329.477C6.63142 329.477 -1.74001 337.849 -1.74001 348.613L2.25999 348.613ZM17.396 333.477C25.9514 333.477 32.532 340.058 32.532 348.613L36.532 348.613C36.532 337.849 28.1606 329.477 17.396 329.477L17.396 333.477ZM32.532 348.613C32.532 357.168 25.9514 363.749 17.396 363.749L17.396 367.749C28.1606 367.749 36.532 359.378 36.532 348.613L32.532 348.613ZM17.396 363.749C8.84056 363.749 2.25999 357.169 2.25999 348.613L-1.74001 348.613C-1.74001 359.378 6.63142 367.749 17.396 367.749L17.396 363.749ZM125 187.476L127 187.476L127 185.476L125 185.476L125 187.476ZM125 217.38L125 219.38L127 219.38L127 217.38L125 217.38ZM125 238.296L127 238.296L127 236.296L125 236.296L125 238.296ZM125 268.2L125 270.2L127 270.2L127 268.2L125 268.2ZM125 289.116L127 289.116L127 287.116L125 287.116L125 289.116ZM125 319.02L125 321.02L127 321.02L127 319.02L125 319.02ZM41.756 319.02L39.756 319.02L39.756 321.02L41.756 321.02L41.756 319.02ZM41.756 290.544L41.756 288.544L39.756 288.544L39.756 290.544L41.756 290.544ZM50.324 290.544L50.324 292.544L57.0606 292.544L51.4153 288.868L50.324 290.544ZM52.34 243.336L53.4171 245.021L56.1643 243.265L53.354 241.612L52.34 243.336ZM41.488 218.556C41.488 209.368 44.3874 202.148 49.3765 197.226C54.3692 192.301 61.659 189.476 70.82 189.476L70.82 185.476C60.829 185.476 52.4527 188.573 46.5674 194.379C40.6785 200.188 37.488 208.508 37.488 218.556L41.488 218.556ZM70.82 189.476L125 189.476L125 185.476L70.82 185.476L70.82 189.476ZM123 187.476L123 217.38L127 217.38L127 187.476L123 187.476ZM125 215.38L80.228 215.38L80.228 219.38L125 219.38L125 215.38ZM80.228 215.38C75.7828 215.38 72.0716 216.433 69.44 218.641C66.7576 220.892 65.46 224.121 65.46 227.88L69.46 227.88C69.46 225.087 70.3884 223.067 72.011 221.705C73.6843 220.301 76.3572 219.38 80.228 219.38L80.228 215.38ZM65.46 227.88C65.46 231.224 66.5631 234.415 69.157 236.749C71.7266 239.06 75.5006 240.296 80.396 240.296L80.396 236.296C76.1354 236.296 73.4414 235.222 71.832 233.775C70.2469 232.349 69.46 230.333 69.46 227.88L65.46 227.88ZM80.396 240.296L125 240.296L125 236.296L80.396 236.296L80.396 240.296ZM123 238.296L123 268.2L127 268.2L127 238.296L123 238.296ZM125 266.2L80.228 266.2L80.228 270.2L125 270.2L125 266.2ZM80.228 266.2C75.7828 266.2 72.0716 267.253 69.44 269.461C66.7576 271.712 65.46 274.941 65.46 278.7L69.46 278.7C69.46 275.907 70.3884 273.887 72.011 272.525C73.6843 271.121 76.3572 270.2 80.228 270.2L80.228 266.2ZM65.46 278.7C65.46 282.044 66.5631 285.235 69.157 287.569C71.7266 289.88 75.5006 291.116 80.396 291.116L80.396 287.116C76.1354 287.116 73.4414 286.042 71.832 284.595C70.2469 283.169 69.46 281.153 69.46 278.7L65.46 278.7ZM80.396 291.116L125 291.116L125 287.116L80.396 287.116L80.396 291.116ZM123 289.116L123 319.02L127 319.02L127 289.116L123 289.116ZM125 317.02L41.756 317.02L41.756 321.02L125 321.02L125 317.02ZM43.756 319.02L43.756 290.544L39.756 290.544L39.756 319.02L43.756 319.02ZM41.756 292.544L50.324 292.544L50.324 288.544L41.756 288.544L41.756 292.544ZM51.4153 288.868C44.8718 284.607 41.488 277.92 41.488 268.032L37.488 268.032C37.488 278.977 41.3282 287.073 49.2326 292.22L51.4153 288.868ZM41.488 268.032C41.488 257.989 45.8907 249.832 53.4171 245.021L51.2629 241.651C42.4932 247.256 37.488 256.739 37.488 268.032L41.488 268.032ZM53.354 241.612C45.5034 236.994 41.488 229.404 41.488 218.556L37.488 218.556C37.488 230.556 42.0405 239.598 51.3259 245.06L53.354 241.612ZM83.336 91.2646L83.336 89.2646L83.3295 89.2647L83.336 91.2646ZM92.24 91.8526L94.24 91.8526L94.24 90.213L92.6322 89.8915L92.24 91.8526ZM92.24 146.201L90.24 146.201L90.24 148.889L92.8147 148.116L92.24 146.201ZM95.6 115.541L94.0656 114.258L92.9032 115.648L94.1726 116.942L95.6 115.541ZM112.736 95.0446L114.093 93.575L112.549 92.1502L111.202 93.7618L112.736 95.0446ZM74.18 146.117L73.6076 148.033L76.18 148.801L76.18 146.117L74.18 146.117ZM74.18 121.085L76.18 121.085L76.18 118.298L73.5401 119.19L74.18 121.085ZM41.488 133.853C41.488 121.74 45.7575 111.649 53.0405 104.575C60.3286 97.4952 70.7707 93.3052 83.3424 93.2646L83.3295 89.2647C69.8612 89.3081 58.3794 93.8121 50.2534 101.706C42.1224 109.604 37.488 120.765 37.488 133.853L41.488 133.853ZM83.336 93.2646C86.1724 93.2646 90.3734 93.5189 91.8477 93.8138L92.6322 89.8915C90.7465 89.5143 86.2115 89.2646 83.336 89.2646L83.336 93.2646ZM90.24 91.8526L90.24 146.201L94.24 146.201L94.24 91.8526L90.24 91.8526ZM92.8147 148.116C96.5453 146.997 99.4821 144.987 101.46 142.045C103.422 139.127 104.32 135.471 104.32 131.249L100.32 131.249C100.32 134.922 99.5384 137.734 98.1402 139.814C96.7578 141.87 94.6546 143.388 91.6653 144.285L92.8147 148.116ZM104.32 131.249C104.32 125.326 101.83 119.033 97.0273 114.14L94.1726 116.942C98.2736 121.12 100.32 126.419 100.32 131.249L104.32 131.249ZM97.1344 116.823L114.27 96.3275L111.202 93.7618L94.0656 114.258L97.1344 116.823ZM111.379 96.5142C119.634 104.134 125.184 116.667 125.184 132.677L129.184 132.677C129.184 115.759 123.31 102.083 114.093 93.575L111.379 96.5142ZM125.184 132.677C125.184 145.552 121.008 156.134 113.873 163.487C106.744 170.835 96.5105 175.113 84.092 175.113L84.092 179.113C97.4615 179.113 108.774 174.486 116.744 166.273C124.708 158.065 129.184 146.43 129.184 132.677L125.184 132.677ZM84.092 175.113C71.357 175.113 60.7266 170.861 53.2909 163.654C45.8602 156.452 41.488 146.172 41.488 133.853L37.488 133.853C37.488 147.154 42.2297 158.503 50.507 166.526C58.7794 174.544 70.4509 179.113 84.092 179.113L84.092 175.113ZM62.604 133.685C62.604 137.208 63.4665 140.292 65.3791 142.787C67.2862 145.275 70.0869 146.981 73.6076 148.033L74.7524 144.2C71.8051 143.32 69.8178 142.002 68.5538 140.353C67.2954 138.712 66.604 136.546 66.604 133.685L62.604 133.685ZM76.18 146.117L76.18 121.085L72.18 121.085L72.18 146.117L76.18 146.117ZM73.5401 119.19C70.0331 120.374 67.2585 122.167 65.3703 124.668C63.4733 127.18 62.604 130.232 62.604 133.685L66.604 133.685C66.604 130.922 67.2887 128.765 68.5626 127.078C69.8454 125.379 71.8589 123.979 74.8198 122.98L73.5401 119.19ZM297.6 376.064L297.6 374.064L295.6 374.064L295.6 376.064L297.6 376.064ZM327 376.064L329 376.064L329 374.064L327 374.064L327 376.064ZM327 464.6L327 466.6L329 466.6L329 464.6L327 464.6ZM209.4 464.6L207.4 464.6L207.4 466.6L209.4 466.6L209.4 464.6ZM209.4 432.68L209.4 430.68L207.4 430.68L207.4 432.68L209.4 432.68ZM297.6 432.68L297.6 434.68L299.6 434.68L299.6 432.68L297.6 432.68ZM297.6 378.064L327 378.064L327 374.064L297.6 374.064L297.6 378.064ZM325 376.064L325 464.6L329 464.6L329 376.064L325 376.064ZM327 462.6L209.4 462.6L209.4 466.6L327 466.6L327 462.6ZM211.4 464.6L211.4 432.68L207.4 432.68L207.4 464.6L211.4 464.6ZM209.4 434.68L297.6 434.68L297.6 430.68L209.4 430.68L209.4 434.68ZM299.6 432.68L299.6 376.064L295.6 376.064L295.6 432.68L299.6 432.68ZM243.756 280.758L243.756 278.758L241.756 278.758L241.756 280.758L243.756 280.758ZM327 280.758L329 280.758L329 278.758L327 278.758L327 280.758ZM327 309.486L327 311.486L329 311.486L329 309.486L327 309.486ZM319.692 309.486L319.692 307.486L314.454 307.486L318.359 310.977L319.692 309.486ZM251.232 309.486L252.543 310.997L256.589 307.486L251.232 307.486L251.232 309.486ZM243.756 309.486L241.756 309.486L241.756 311.486L243.756 311.486L243.756 309.486ZM243.756 282.758L327 282.758L327 278.758L243.756 278.758L243.756 282.758ZM325 280.758L325 309.486L329 309.486L329 280.758L325 280.758ZM327 307.486L319.692 307.486L319.692 311.486L327 311.486L327 307.486ZM318.359 310.977C323.482 315.557 327.184 322.24 327.184 332.166L331.184 332.166C331.184 321.092 326.99 313.327 321.025 307.995L318.359 310.977ZM327.184 332.166C327.184 353.01 308.679 368.05 285.252 368.05L285.252 372.05C310.209 372.05 331.184 355.842 331.184 332.166L327.184 332.166ZM285.252 368.05C262.001 368.05 243.488 353.017 243.488 332.082L239.488 332.082C239.488 355.835 260.455 372.05 285.252 372.05L285.252 368.05ZM243.488 332.082C243.488 322.259 247.258 315.582 252.543 310.997L249.921 307.975C243.782 313.302 239.488 321.073 239.488 332.082L243.488 332.082ZM251.232 307.486L243.756 307.486L243.756 311.486L251.232 311.486L251.232 307.486ZM245.756 309.486L245.756 280.758L241.756 280.758L241.756 309.486L245.756 309.486ZM267.292 324.438C267.292 334.26 275.062 341.222 285.336 341.222L285.336 337.222C276.962 337.222 271.292 331.753 271.292 324.438L267.292 324.438ZM285.336 341.222C295.61 341.222 303.38 334.26 303.38 324.438L299.38 324.438C299.38 331.753 293.71 337.222 285.336 337.222L285.336 341.222ZM303.38 324.438C303.38 314.617 295.61 307.654 285.336 307.654L285.336 311.654C293.71 311.654 299.38 317.124 299.38 324.438L303.38 324.438ZM285.336 307.654C275.062 307.654 267.292 314.617 267.292 324.438L271.292 324.438C271.292 317.124 276.962 311.654 285.336 311.654L285.336 307.654ZM321.036 236.288L319.622 234.874L316.208 238.288L321.036 238.288L321.036 236.288ZM360.6 236.288L362.6 236.288L362.6 234.288L360.6 234.288L360.6 236.288ZM360.6 266.192L360.6 268.192L362.6 268.192L362.6 266.192L360.6 266.192ZM243.756 266.192L241.756 266.192L241.756 268.192L243.756 268.192L243.756 266.192ZM243.756 237.548L243.756 235.548L241.756 235.548L241.756 237.548L243.756 237.548ZM251.232 237.548L251.232 239.548L256.589 239.548L252.543 236.037L251.232 237.548ZM243.488 214.952C243.488 194.017 262.001 178.984 285.252 178.984L285.252 174.984C260.455 174.984 239.488 191.199 239.488 214.952L243.488 214.952ZM285.252 178.984C308.679 178.984 327.184 194.024 327.184 214.868L331.184 214.868C331.184 191.192 310.209 174.984 285.252 174.984L285.252 178.984ZM327.184 214.868C327.184 224.024 324.1 230.395 319.622 234.874L322.45 237.702C327.716 232.437 331.184 225.032 331.184 214.868L327.184 214.868ZM321.036 238.288L360.6 238.288L360.6 234.288L321.036 234.288L321.036 238.288ZM358.6 236.288L358.6 266.192L362.6 266.192L362.6 236.288L358.6 236.288ZM360.6 264.192L243.756 264.192L243.756 268.192L360.6 268.192L360.6 264.192ZM245.756 266.192L245.756 237.548L241.756 237.548L241.756 266.192L245.756 266.192ZM243.756 239.548L251.232 239.548L251.232 235.548L243.756 235.548L243.756 239.548ZM252.543 236.037C247.256 231.45 243.488 224.856 243.488 214.952L239.488 214.952C239.488 226.048 243.784 233.734 249.921 239.059L252.543 236.037ZM267.292 222.596C267.292 232.417 275.062 239.38 285.336 239.38L285.336 235.38C276.962 235.38 271.292 229.911 271.292 222.596L267.292 222.596ZM285.336 239.38C295.61 239.38 303.38 232.417 303.38 222.596L299.38 222.596C299.38 229.911 293.71 235.38 285.336 235.38L285.336 239.38ZM303.38 222.596C303.38 212.775 295.61 205.812 285.336 205.812L285.336 209.812C293.71 209.812 299.38 215.281 299.38 222.596L303.38 222.596ZM285.336 205.812C275.062 205.812 267.292 212.775 267.292 222.596L271.292 222.596C271.292 215.281 276.962 209.812 285.336 209.812L285.336 205.812ZM247.956 95.5145L248.541 93.6019L246.666 93.0288L246.056 94.8912L247.956 95.5145ZM271.308 102.655L273.183 103.351L273.922 101.362L271.893 100.742L271.308 102.655ZM272.736 124.663L274.709 124.991L272.736 124.663ZM273.576 119.623L275.549 119.951L275.549 119.95L273.576 119.623ZM321.204 171.366L320.445 173.217L322.035 173.869L322.919 172.395L321.204 171.366ZM297.852 161.791L296.096 160.833L295.027 162.794L297.093 163.641L297.852 161.791ZM297.264 135.667L295.287 135.361L295.287 135.362L297.264 135.667ZM296.76 138.943L298.736 139.249L298.737 139.247L296.76 138.943ZM247.371 97.4271L270.723 104.567L271.893 100.742L248.541 93.6019L247.371 97.4271ZM269.433 101.958C265.867 111.552 263.176 122.727 263.176 130.711L267.176 130.711C267.176 123.406 269.693 112.741 273.183 103.351L269.433 101.958ZM263.176 130.711C263.176 133.649 263.458 135.859 264.213 137.383C264.617 138.2 265.188 138.886 265.97 139.345C266.743 139.799 267.556 139.935 268.284 139.935L268.284 135.935C268.164 135.935 268.09 135.923 268.048 135.914C268.01 135.905 267.997 135.897 267.997 135.896C267.995 135.896 267.992 135.893 267.986 135.889C267.98 135.884 267.969 135.874 267.953 135.856C267.922 135.82 267.866 135.746 267.798 135.609C267.482 134.97 267.176 133.568 267.176 130.711L263.176 130.711ZM268.284 139.935C269.819 139.935 270.958 139.147 271.713 138.076C272.397 137.106 272.811 135.855 273.115 134.606C273.713 132.147 274.11 128.581 274.709 124.991L270.763 124.334C270.101 128.304 269.785 131.374 269.228 133.661C268.955 134.785 268.681 135.434 268.443 135.772C268.34 135.919 268.283 135.947 268.293 135.942C268.316 135.928 268.33 135.935 268.284 135.935L268.284 139.935ZM274.709 124.991L275.549 119.951L271.603 119.294L270.763 124.334L274.709 124.991ZM275.549 119.95C276.98 111.323 279.782 105.123 283.685 101.096C287.54 97.1179 292.643 95.0785 299.112 95.0785L299.112 91.0785C291.72 91.0785 285.526 93.4491 280.813 98.3121C276.148 103.126 273.112 110.198 271.603 119.295L275.549 119.95ZM299.112 95.0785C308.178 95.0785 315.082 98.4334 319.777 104.526C324.528 110.692 327.184 119.883 327.184 131.802L331.184 131.802C331.184 119.362 328.422 109.191 322.946 102.085C317.414 94.9056 309.282 91.0785 299.112 91.0785L299.112 95.0785ZM327.184 131.802C327.184 148.211 324.254 162.396 319.489 170.337L322.919 172.395C328.234 163.537 331.184 148.49 331.184 131.802L327.184 131.802ZM321.963 169.516L298.611 159.94L297.093 163.641L320.445 173.217L321.963 169.516ZM299.608 162.748C304.814 153.203 307.412 142.708 307.412 131.634L303.412 131.634C303.412 142.065 300.97 151.898 296.096 160.833L299.608 162.748ZM307.412 131.634C307.412 128.339 307.152 125.813 306.399 124.062C306.002 123.138 305.424 122.322 304.579 121.753C303.728 121.181 302.787 120.983 301.884 120.983L301.884 124.983C302.199 124.983 302.308 125.047 302.347 125.073C302.392 125.103 302.543 125.221 302.724 125.641C303.126 126.578 303.412 128.378 303.412 131.634L307.412 131.634ZM301.884 120.983C300.709 120.983 299.638 121.391 298.785 122.282C298.021 123.078 297.548 124.144 297.195 125.254C296.495 127.457 295.988 130.83 295.287 135.361L299.241 135.972C299.968 131.263 300.427 128.294 301.008 126.465C301.295 125.559 301.541 125.186 301.673 125.048C301.715 125.005 301.715 124.983 301.884 124.983L301.884 120.983ZM295.287 135.362L294.783 138.638L298.737 139.247L299.241 135.971L295.287 135.362ZM294.784 138.636C293.213 148.765 290.443 155.77 286.432 160.233C282.5 164.607 277.168 166.763 269.88 166.763L269.88 170.763C278.048 170.763 284.56 168.298 289.406 162.907C294.173 157.605 297.115 149.7 298.736 139.249L294.784 138.636ZM269.88 166.763C261.262 166.763 254.784 163.65 250.402 157.956C245.959 152.185 243.488 143.523 243.488 132.138L239.488 132.138C239.488 144.022 242.057 153.672 247.232 160.396C252.467 167.197 260.186 170.763 269.88 170.763L269.88 166.763ZM243.488 132.138C243.488 118.703 244.783 111.608 249.856 96.1378L246.056 94.8912C240.881 110.669 239.488 118.19 239.488 132.138L243.488 132.138ZM285.336 0.866194L285.336 -1.13381L285.33 -1.13378L285.336 0.866194ZM294.24 1.45421L296.24 1.45421L296.24 -0.185411L294.632 -0.506975L294.24 1.45421ZM294.24 55.8022L292.24 55.8022L292.24 58.4902L294.815 57.7178L294.24 55.8022ZM297.6 25.1422L296.066 23.8594L294.903 25.2497L296.173 26.5431L297.6 25.1422ZM314.736 4.64619L316.093 3.17659L314.549 1.75178L313.202 3.36335L314.736 4.64619ZM276.18 55.7182L275.608 57.6345L278.18 58.4029L278.18 55.7182L276.18 55.7182ZM276.18 30.6862L278.18 30.6862L278.18 27.8999L275.54 28.7913L276.18 30.6862ZM243.488 43.4542C243.488 31.3419 247.758 21.2509 255.04 14.1763C262.329 7.09672 272.771 2.90675 285.342 2.86619L285.33 -1.13378C271.861 -1.09035 260.379 3.41368 252.253 11.3071C244.122 19.2055 239.488 30.3665 239.488 43.4542L243.488 43.4542ZM285.336 2.86619C288.172 2.86619 292.373 3.1205 293.848 3.41536L294.632 -0.506975C292.747 -0.884111 288.212 -1.13381 285.336 -1.13381L285.336 2.86619ZM292.24 1.45421L292.24 55.8022L296.24 55.8022L296.24 1.45421L292.24 1.45421ZM294.815 57.7178C298.545 56.5986 301.482 54.5888 303.46 51.647C305.422 48.7289 306.32 45.0724 306.32 40.8502L302.32 40.8502C302.32 44.524 301.538 47.3355 300.14 49.4154C298.758 51.4716 296.655 52.9898 293.665 53.8865L294.815 57.7178ZM306.32 40.8502C306.32 34.9278 303.83 28.6349 299.027 23.7413L296.173 26.5431C300.274 30.7215 302.32 36.0206 302.32 40.8502L306.32 40.8502ZM299.134 26.425L316.27 5.92903L313.202 3.36335L296.066 23.8594L299.134 26.425ZM313.379 6.1158C321.634 13.7358 327.184 26.2681 327.184 42.2782L331.184 42.2782C331.184 25.3603 325.309 11.6846 316.093 3.17659L313.379 6.1158ZM327.184 42.2782C327.184 55.1531 323.008 65.736 315.873 73.0889C308.743 80.4367 298.51 84.7142 286.092 84.7142L286.092 88.7142C299.461 88.7142 310.774 84.0877 318.744 75.8744C326.708 67.6664 331.184 56.0313 331.184 42.2782L327.184 42.2782ZM286.092 84.7142C273.357 84.7142 262.727 80.4626 255.291 73.2556C247.86 66.0533 243.488 55.7731 243.488 43.4542L239.488 43.4542C239.488 56.7553 244.23 68.1051 252.507 76.1278C260.779 84.1458 272.451 88.7142 286.092 88.7142L286.092 84.7142ZM264.604 43.2862C264.604 46.8091 265.467 49.8931 267.379 52.3884C269.286 54.8764 272.087 56.5829 275.608 57.6345L276.752 53.8019C273.805 52.9215 271.818 51.604 270.554 49.955C269.295 48.3132 268.604 46.1473 268.604 43.2862L264.604 43.2862ZM278.18 55.7182L278.18 30.6862L274.18 30.6862L274.18 55.7182L278.18 55.7182ZM275.54 28.7913C272.033 29.9755 269.259 31.7681 267.37 34.2691C265.473 36.7817 264.604 39.8332 264.604 43.2862L268.604 43.2862C268.604 40.5232 269.289 38.3667 270.563 36.6793C271.845 34.9803 273.859 33.5809 276.82 32.5811L275.54 28.7913Z" fill="url(#paint0_linear_7159_63510)" mask="url(#path-1-outside-1_7159_63510)"/>
<defs>
<linearGradient id="paint0_linear_7159_63510" x1="364" y1="476.2" x2="472.061" y2="191.052" gradientUnits="userSpaceOnUse">
<stop stop-color="#CA86FF"/>
<stop offset="1" stop-color="#85E2FD"/>
</linearGradient>
</defs>
</svg>
