<svg xmlns="http://www.w3.org/2000/svg" width="27" height="26" viewBox="0 0 27 26" fill="none">
  <path d="M13.3945 5.04443C13.3945 5.04443 15.1551 8.84149 16.8441 10.4423C19.211 12.6856 23.9999 13.0444 23.9999 13.0444C23.9999 13.0444 19.211 13.4033 16.8441 15.6466C15.1551 17.2474 13.3945 21.0444 13.3945 21.0444C13.3945 21.0444 11.6339 17.2474 9.94487 15.6466C7.57794 13.4033 2.78906 13.0444 2.78906 13.0444C2.78906 13.0444 7.57794 12.6856 9.94487 10.4423C11.6339 8.84149 13.3945 5.04443 13.3945 5.04443Z" fill="black"/>
  <g filter="url(#filter0_d_743_4798)">
    <path d="M16.869 17.5952L16.869 17.5667C16.869 17.2251 17.0965 17.0543 17.4094 17.0543L17.4663 17.0543C17.8076 17.0543 18.0636 16.7982 18.0636 16.4566L18.0636 16.3997C18.0636 16.0866 18.2343 15.8589 18.5756 15.8589L18.6041 15.8589C18.9454 15.8589 19.1445 15.6596 19.1445 15.318L19.1445 10.7069C19.1445 10.3653 18.9454 10.166 18.6041 10.166L18.5756 10.166C18.2343 10.166 18.0636 9.93833 18.0636 9.62522L18.0636 9.5683C18.0636 9.22673 17.8076 8.97055 17.4663 8.97055L17.4094 8.97055C17.0965 8.97055 16.869 8.79977 16.869 8.4582L16.869 8.42973C16.869 8.08816 16.6699 7.88892 16.3285 7.88892L10.5828 7.88892C10.2414 7.88892 10.0423 8.08816 10.0423 8.42973L10.0423 8.4582C10.0423 8.79977 9.81475 8.97055 9.50186 8.97055L9.44498 8.97055C9.10364 8.97055 8.84764 9.22673 8.84764 9.5683L8.84764 9.62522C8.84764 9.93833 8.67698 10.166 8.33564 10.166L8.3072 10.166C7.96586 10.166 7.76675 10.3653 7.76675 10.7069L7.76675 15.318C7.76675 15.6596 7.96586 15.8589 8.3072 15.8589L8.33564 15.8589C8.67697 15.8589 8.84764 16.0866 8.84764 16.3997L8.84764 16.4566C8.84764 16.7982 9.10364 17.0543 9.44498 17.0543L9.50186 17.0543C9.81475 17.0543 10.0423 17.2251 10.0423 17.5667L10.0423 17.5952C10.0423 17.9367 10.2414 18.136 10.5828 18.136L16.3285 18.136C16.6699 18.136 16.869 17.9367 16.869 17.5952Z" stroke="black" stroke-width="0.611901" shape-rendering="crispEdges"/>
  </g>
  <defs>
    <filter id="filter0_d_743_4798" x="0.349826" y="0.471897" width="26.212" height="25.0811" filterUnits="userSpaceOnUse" color-interpolation-filters="sRGB">
      <feFlood flood-opacity="0" result="BackgroundImageFix"/>
      <feColorMatrix in="SourceAlpha" type="matrix" values="0 0 0 0 0 0 0 0 0 0 0 0 0 0 0 0 0 0 127 0" result="hardAlpha"/>
      <feOffset/>
      <feGaussianBlur stdDeviation="3.55556"/>
      <feComposite in2="hardAlpha" operator="out"/>
      <feColorMatrix type="matrix" values="0 0 0 0 1 0 0 0 0 0.027451 0 0 0 0 0.235294 0 0 0 1 0"/>
      <feBlend mode="normal" in2="BackgroundImageFix" result="effect1_dropShadow_743_4798"/>
      <feBlend mode="normal" in="SourceGraphic" in2="effect1_dropShadow_743_4798" result="shape"/>
    </filter>
  </defs>
</svg>