<svg width="83" height="82" viewBox="0 0 83 82" fill="none" xmlns="http://www.w3.org/2000/svg">
<path d="M65.9314 76.7778L65.9314 76.5555C65.9314 75.3227 66.2967 74.4623 66.8522 73.9102C67.4093 73.3565 68.2156 73.0556 69.2078 73.0556L69.6053 73.0556C72.3176 73.0556 74.2792 70.7778 74.2792 67.8889L74.2792 67.4444C74.2792 66.296 74.5601 65.3629 75.065 64.7278C75.5574 64.1085 76.3017 63.7222 77.3569 63.7222L77.5556 63.7222C78.8616 63.7222 79.9524 63.2925 80.7109 62.4444C81.4625 61.6042 81.832 60.4156 81.832 59L81.832 23C81.832 21.5844 81.4625 20.3958 80.7109 19.5556C79.9524 18.7075 78.8616 18.2778 77.5556 18.2778L77.3569 18.2778C76.3017 18.2778 75.5574 17.8915 75.065 17.2722C74.5601 16.6371 74.2792 15.704 74.2792 14.5556L74.2792 14.1111C74.2792 11.2222 72.3176 8.94444 69.6053 8.94444L69.2078 8.94444C68.2156 8.94444 67.4093 8.64352 66.8522 8.0898C66.2967 7.53773 65.9314 6.67726 65.9314 5.44444L65.9314 5.22222C65.9314 3.80662 65.5619 2.61806 64.8103 1.77778C64.0518 0.929765 62.961 0.499999 61.655 0.499999L21.009 0.499997C19.703 0.499997 18.6122 0.929763 17.8538 1.77778C17.1022 2.61806 16.7327 3.80662 16.7327 5.22222L16.7327 5.44444C16.7327 6.67726 16.3674 7.53773 15.8119 8.0898C15.2547 8.64351 14.4485 8.94444 13.4563 8.94444L13.0587 8.94444C10.3465 8.94444 8.38483 11.2222 8.38483 14.1111L8.38483 14.5556C8.38483 15.704 8.10395 16.6371 7.59904 17.2722C7.10663 17.8915 6.3624 18.2778 5.30718 18.2778L5.10843 18.2778C3.80243 18.2778 2.71161 18.7075 1.95314 19.5556C1.20158 20.3958 0.83203 21.5844 0.83203 23L0.832029 59C0.832029 60.4156 1.20158 61.6042 1.95314 62.4444C2.71161 63.2925 3.80243 63.7222 5.10843 63.7222L5.30718 63.7222C6.3624 63.7222 7.10663 64.1085 7.59903 64.7278C8.10395 65.3629 8.38482 66.296 8.38482 67.4444L8.38482 67.8889C8.38482 70.7778 10.3465 73.0556 13.0587 73.0556L13.4562 73.0556C14.4485 73.0556 15.2547 73.3565 15.8119 73.9102C16.3674 74.4623 16.7326 75.3227 16.7326 76.5555L16.7326 76.7778C16.7326 78.1934 17.1022 79.3819 17.8538 80.2222C18.6122 81.0702 19.703 81.5 21.009 81.5L61.655 81.5C62.961 81.5 64.0518 81.0702 64.8103 80.2222C65.5618 79.3819 65.9314 78.1934 65.9314 76.7778Z" fill="url(#paint0_radial_7159_102182)" stroke="url(#paint1_radial_7159_102182)"/>
<path d="M36.2956 40.8466C35.9889 40.6032 35.5991 40.4894 35.2096 40.5296C34.82 40.5697 34.4616 40.7606 34.211 41.0614C33.9603 41.3622 33.8372 41.7491 33.8679 42.1395C33.8987 42.5299 34.0809 42.8928 34.3756 43.1506L40.3756 48.1506C40.5946 48.333 40.8611 48.4493 41.1438 48.4857C41.4264 48.5222 41.7136 48.4773 41.9718 48.3565C42.2299 48.2356 42.4482 48.0437 42.6012 47.8032C42.7542 47.5627 42.8355 47.2836 42.8356 46.9986L42.8356 43.2006L46.3756 46.1506C46.5262 46.2823 46.7015 46.3826 46.8914 46.4455C47.0812 46.5084 47.2818 46.5327 47.4812 46.517C47.6805 46.5013 47.8748 46.4459 48.0524 46.354C48.2301 46.2621 48.3876 46.1356 48.5156 45.9819C48.6437 45.8283 48.7397 45.6506 48.798 45.4593C48.8564 45.2679 48.8759 45.0669 48.8554 44.8679C48.8349 44.669 48.7748 44.4761 48.6787 44.3007C48.5825 44.1253 48.4523 43.9709 48.2956 43.8466L42.2956 38.8466C42.0766 38.6642 41.8102 38.548 41.5275 38.5115C41.2448 38.475 40.9576 38.5199 40.6995 38.6407C40.4414 38.7616 40.223 38.9535 40.07 39.194C39.917 39.4345 39.8357 39.7136 39.8356 39.9986L39.8356 43.7966L36.2956 40.8466Z" fill="#FF335F"/>
<path fill-rule="evenodd" clip-rule="evenodd" d="M23.832 45.112L23.832 41.8881C23.832 38.212 23.832 35.3 24.138 33.022C24.454 30.678 25.118 28.78 26.614 27.2821C28.112 25.786 30.01 25.122 32.354 24.806C33.38 24.668 34.536 24.592 35.834 24.55C35.834 23.826 35.844 23.16 35.918 22.606C36.014 21.894 36.238 21.1441 36.858 20.526C37.476 19.906 38.226 19.682 38.938 19.586C39.584 19.5 40.378 19.5 41.242 19.5L41.422 19.5C42.288 19.5 43.082 19.5 43.726 19.586C44.438 19.682 45.188 19.906 45.806 20.526C46.426 21.144 46.65 21.894 46.746 22.606C46.82 23.16 46.83 23.826 46.832 24.55C48.128 24.592 49.284 24.67 50.31 24.806C52.654 25.122 54.552 25.786 56.05 27.282C57.546 28.78 58.21 30.678 58.526 33.022C58.832 35.302 58.832 38.212 58.832 41.888L58.832 45.11C58.832 48.786 58.832 51.698 58.526 53.976C58.21 56.32 57.546 58.218 56.05 59.716C54.552 61.212 52.654 61.876 50.31 62.192C48.03 62.498 45.12 62.498 41.444 62.498L41.22 62.498C37.544 62.498 34.632 62.498 32.354 62.192C30.01 61.876 28.112 61.212 26.614 59.716C25.118 58.218 24.454 56.32 24.138 53.976C23.832 51.696 23.832 48.788 23.832 45.112ZM27.112 53.58C27.382 55.592 27.89 56.752 28.736 57.6C29.582 58.444 30.742 58.952 32.754 59.222C34.81 59.498 37.518 59.502 41.332 59.502C45.146 59.502 47.856 59.498 49.912 59.222C51.922 58.952 53.082 58.444 53.928 57.598C54.774 56.752 55.282 55.592 55.552 53.58C55.828 51.524 55.832 48.816 55.832 45.002L55.832 42.002C55.832 38.188 55.828 35.478 55.552 33.422C55.282 31.412 54.774 30.252 53.928 29.406C53.082 28.56 51.922 28.052 49.91 27.782C47.854 27.506 45.146 27.502 41.332 27.502C37.518 27.502 34.81 27.506 32.752 27.7821C30.742 28.052 29.582 28.56 28.736 29.406C27.89 30.252 27.382 31.412 27.112 33.424C26.836 35.478 26.832 38.188 26.832 42.0021L26.832 45C26.832 48.814 26.836 51.522 27.112 53.58ZM38.852 23.502L43.812 23.502C43.804 23.312 43.792 23.15 43.772 23.008C43.7595 22.8869 43.7313 22.7679 43.688 22.654L43.686 22.648L43.68 22.646C43.5662 22.6028 43.4472 22.5746 43.326 22.562C42.906 22.506 42.318 22.502 41.332 22.502C40.346 22.502 39.758 22.506 39.338 22.562C39.2169 22.5746 39.0979 22.6028 38.984 22.646L38.978 22.648L38.976 22.654C38.9328 22.7679 38.9046 22.8869 38.892 23.008C38.8716 23.1721 38.8582 23.3369 38.852 23.502Z" fill="#FF335F"/>
<defs>
<radialGradient id="paint0_radial_7159_102182" cx="0" cy="0" r="1" gradientUnits="userSpaceOnUse" gradientTransform="translate(41.332 93.8506) rotate(-90) scale(66.5961 63.5748)">
<stop stop-color="#FF335F" stop-opacity="0.3"/>
<stop offset="1" stop-color="#FF335F" stop-opacity="0"/>
</radialGradient>
<radialGradient id="paint1_radial_7159_102182" cx="0" cy="0" r="1" gradientUnits="userSpaceOnUse" gradientTransform="translate(41.332 1) rotate(90) scale(80 277.655)">
<stop stop-color="#FF335F" stop-opacity="0"/>
<stop offset="1" stop-color="#FF335F"/>
</radialGradient>
</defs>
</svg>
