<svg width="82" height="83" viewBox="0 0 82 83" fill="none" xmlns="http://www.w3.org/2000/svg">
<path d="M65.5994 77.2778L65.5994 77.0555C65.5994 75.8227 65.9647 74.9623 66.5202 74.4102C67.0773 73.8565 67.8836 73.5556 68.8758 73.5556L69.2733 73.5556C71.9855 73.5556 73.9472 71.2778 73.9472 68.3889L73.9472 67.9444C73.9472 66.796 74.2281 65.8629 74.733 65.2278C75.2254 64.6085 75.9696 64.2222 77.0248 64.2222L77.2236 64.2222C78.5296 64.2222 79.6204 63.7925 80.3789 62.9444C81.1304 62.1042 81.5 60.9156 81.5 59.5L81.5 23.5C81.5 22.0844 81.1304 20.8958 80.3789 20.0556C79.6204 19.2075 78.5296 18.7778 77.2236 18.7778L77.0248 18.7778C75.9696 18.7778 75.2254 18.3915 74.733 17.7722C74.2281 17.1371 73.9472 16.204 73.9472 15.0556L73.9472 14.6111C73.9472 11.7222 71.9855 9.44444 69.2733 9.44444L68.8758 9.44444C67.8836 9.44444 67.0773 9.14352 66.5202 8.5898C65.9647 8.03773 65.5994 7.17726 65.5994 5.94444L65.5994 5.72222C65.5994 4.30662 65.2298 3.11806 64.4783 2.27778C63.7198 1.42976 62.629 0.999999 61.323 0.999999L20.677 0.999997C19.371 0.999997 18.2802 1.42976 17.5217 2.27778C16.7702 3.11806 16.4006 4.30662 16.4006 5.72222L16.4006 5.94444C16.4006 7.17726 16.0353 8.03773 15.4798 8.5898C14.9227 9.14351 14.1164 9.44444 13.1242 9.44444L12.7267 9.44444C10.0145 9.44444 8.05279 11.7222 8.05279 14.6111L8.05279 15.0556C8.05279 16.204 7.77192 17.1371 7.26701 17.7722C6.7746 18.3915 6.03037 18.7778 4.97515 18.7778L4.7764 18.7778C3.4704 18.7778 2.37958 19.2075 1.62111 20.0556C0.869552 20.8958 0.499999 22.0844 0.499999 23.5L0.499997 59.5C0.499997 60.9156 0.86955 62.1042 1.62111 62.9444C2.37957 63.7925 3.4704 64.2222 4.77639 64.2222L4.97515 64.2222C6.03037 64.2222 6.77459 64.6085 7.267 65.2278C7.77192 65.8629 8.05279 66.796 8.05279 67.9444L8.05279 68.3889C8.05279 71.2778 10.0145 73.5556 12.7267 73.5556L13.1242 73.5556C14.1164 73.5556 14.9227 73.8565 15.4798 74.4102C16.0353 74.9623 16.4006 75.8227 16.4006 77.0555L16.4006 77.2778C16.4006 78.6934 16.7702 79.8819 17.5217 80.7222C18.2802 81.5702 19.371 82 20.677 82L61.323 82C62.629 82 63.7198 81.5702 64.4783 80.7222C65.2298 79.8819 65.5994 78.6934 65.5994 77.2778Z" fill="url(#paint0_radial_7159_102172)" stroke="url(#paint1_radial_7159_102172)"/>
<path d="M31 61.5H51C52.5913 61.5 54.1174 60.8679 55.2426 59.7426C56.3679 58.6174 57 57.0913 57 55.5V27.5C57 25.9087 56.3679 24.3826 55.2426 23.2574C54.1174 22.1321 52.5913 21.5 51 21.5H31C29.4087 21.5 27.8826 22.1321 26.7574 23.2574C25.6321 24.3826 25 25.9087 25 27.5V55.5C25 57.0913 25.6321 58.6174 26.7574 59.7426C27.8826 60.8679 29.4087 61.5 31 61.5ZM29 27.5C29 26.9696 29.2107 26.4609 29.5858 26.0858C29.9609 25.7107 30.4696 25.5 31 25.5H51C51.5304 25.5 52.0391 25.7107 52.4142 26.0858C52.7893 26.4609 53 26.9696 53 27.5V55.5C53 56.0304 52.7893 56.5391 52.4142 56.9142C52.0391 57.2893 51.5304 57.5 51 57.5H31C30.4696 57.5 29.9609 57.2893 29.5858 56.9142C29.2107 56.5391 29 56.0304 29 55.5V27.5Z" fill="#FF335F"/>
<path d="M41 29.5C39.3431 29.5 38 30.8431 38 32.5C38 34.1569 39.3431 35.5 41 35.5C42.6569 35.5 44 34.1569 44 32.5C44 30.8431 42.6569 29.5 41 29.5Z" fill="#FF335F"/>
<path d="M36 53.5H46C46.5304 53.5 47.0391 53.2893 47.4142 52.9142C47.7893 52.5391 48 52.0304 48 51.5C48 50.9696 47.7893 50.4609 47.4142 50.0858C47.0391 49.7107 46.5304 49.5 46 49.5H36C35.4696 49.5 34.9609 49.7107 34.5858 50.0858C34.2107 50.4609 34 50.9696 34 51.5C34 52.0304 34.2107 52.5391 34.5858 52.9142C34.9609 53.2893 35.4696 53.5 36 53.5Z" fill="#FF335F"/>
<defs>
<radialGradient id="paint0_radial_7159_102172" cx="0" cy="0" r="1" gradientUnits="userSpaceOnUse" gradientTransform="translate(41 94.3506) rotate(-90) scale(66.5961 63.5748)">
<stop stop-color="#FF335F" stop-opacity="0.3"/>
<stop offset="1" stop-color="#FF335F" stop-opacity="0"/>
</radialGradient>
<radialGradient id="paint1_radial_7159_102172" cx="0" cy="0" r="1" gradientUnits="userSpaceOnUse" gradientTransform="translate(41 1.5) rotate(90) scale(80 277.655)">
<stop stop-color="#FF335F" stop-opacity="0"/>
<stop offset="1" stop-color="#FF335F"/>
</radialGradient>
</defs>
</svg>
