<svg width="49" height="49" viewBox="0 0 49 49" fill="none" xmlns="http://www.w3.org/2000/svg">
<path d="M24.3434 48.9992C10.9179 48.9992 0 38.0814 0 24.6559C0 11.2304 10.9179 0.3125 24.3434 0.3125C37.7689 0.3125 48.6868 11.2304 48.6868 24.6559C48.6868 38.0814 37.7689 48.9992 24.3434 48.9992ZM24.3434 1.08267C11.343 1.08267 0.770165 11.6555 0.770165 24.6559C0.770165 37.6563 11.343 48.229 24.3434 48.229C37.3438 48.229 47.9166 37.6563 47.9166 24.6559C47.9166 11.6555 37.3438 1.08267 24.3434 1.08267Z" fill="#0E0E0E"/>
<path d="M24.3439 10.1761C25.7733 10.1761 26.9378 9.0116 26.9378 7.58217C26.9378 6.15275 25.7733 4.98828 24.3439 4.98828C22.9145 4.98828 21.75 6.15275 21.75 7.58217C21.75 9.0116 22.9145 10.1761 24.3439 10.1761ZM24.3439 6.30681C25.0463 6.30681 25.6193 6.87978 25.6193 7.58217C25.6193 8.28456 25.0463 8.85761 24.3439 8.85761C23.6415 8.85761 23.0685 8.28456 23.0685 7.58217C23.0685 6.87978 23.6415 6.30681 24.3439 6.30681Z" fill="#0E0E0E"/>
<path d="M24.3439 39.1289C22.9145 39.1289 21.75 40.2934 21.75 41.7228C21.75 43.1522 22.9145 44.3167 24.3439 44.3167C25.7733 44.3167 26.9378 43.1522 26.9378 41.7228C26.9378 40.2934 25.7733 39.1289 24.3439 39.1289ZM24.3439 42.9982C23.6415 42.9982 23.0685 42.4252 23.0685 41.7228C23.0685 41.0204 23.6415 40.4474 24.3439 40.4474C25.0463 40.4474 25.6193 41.0204 25.6193 41.7228C25.6193 42.4252 25.0463 42.9982 24.3439 42.9982Z" fill="#0E0E0E"/>
<path d="M7.27751 22.0605C5.84808 22.0605 4.68359 23.2251 4.68359 24.6545C4.68359 26.0839 5.84808 27.2484 7.27751 27.2484C8.70694 27.2484 9.87143 26.0839 9.87143 24.6545C9.87143 23.2251 8.70694 22.0605 7.27751 22.0605ZM7.27751 25.9299C6.57512 25.9299 6.00212 25.3569 6.00212 24.6545C6.00212 23.9521 6.57512 23.3791 7.27751 23.3791C7.9799 23.3791 8.5529 23.9521 8.5529 24.6545C8.5529 25.3569 7.9799 25.9299 7.27751 25.9299Z" fill="#0E0E0E"/>
<path d="M41.4181 22.0605C39.9887 22.0605 38.8242 23.2251 38.8242 24.6545C38.8242 26.0839 39.9887 27.2484 41.4181 27.2484C42.8476 27.2484 44.0121 26.0839 44.0121 24.6545C44.0121 23.2251 42.8476 22.0605 41.4181 22.0605ZM41.4181 25.9299C40.7157 25.9299 40.1427 25.3569 40.1427 24.6545C40.1427 23.9521 40.7157 23.3791 41.4181 23.3791C42.1205 23.3791 42.6935 23.9521 42.6935 24.6545C42.6935 25.3569 42.1205 25.9299 41.4181 25.9299Z" fill="#0E0E0E"/>
<path d="M12.2753 15.1798C12.9407 15.1798 13.6061 14.9271 14.1113 14.4218C15.1218 13.4114 15.1218 11.7663 14.1113 10.7559C13.1009 9.74543 11.4558 9.74543 10.4453 10.7559C9.43489 11.7663 9.43489 13.4114 10.4453 14.4218C10.9506 14.9271 11.616 15.1798 12.2814 15.1798H12.2753ZM11.3757 11.6863C11.6222 11.4398 11.9487 11.3166 12.2753 11.3166C12.6018 11.3166 12.9284 11.4398 13.1748 11.6863C13.6739 12.1853 13.6739 12.9925 13.1748 13.4916C12.6757 13.9906 11.8686 13.9906 11.3695 13.4916C10.8705 12.9925 10.8705 12.1853 11.3695 11.6863H11.3757Z" fill="#0E0E0E"/>
<path d="M34.1849 33.5592L30.2971 29.6714C31.3076 28.4761 31.9668 26.9666 32.1024 25.3154H37.5983C37.9618 25.3154 38.2575 25.0197 38.2575 24.6561C38.2575 24.2926 37.9618 23.9968 37.5983 23.9968H32.1024C31.9607 22.3456 31.3076 20.8361 30.2971 19.6408L34.1849 15.753C34.4437 15.4942 34.4437 15.0752 34.1849 14.8226C33.9261 14.5638 33.5071 14.5638 33.2545 14.8226L29.3667 18.7105C28.1714 17.7 26.6619 17.0407 25.0107 16.9052V11.4093C25.0107 11.0458 24.7149 10.75 24.3514 10.75C23.9879 10.75 23.6922 11.0458 23.6922 11.4093V16.9052C22.0409 17.0469 20.5314 17.7 19.3361 18.7105L15.4483 14.8226C15.1895 14.5638 14.7706 14.5638 14.5179 14.8226C14.2653 15.0814 14.2592 15.5004 14.5179 15.753L18.4057 19.6408C17.3953 20.8361 16.736 22.3456 16.6005 23.9968H11.1046C10.7411 23.9968 10.4453 24.2926 10.4453 24.6561C10.4453 25.0197 10.7411 25.3154 11.1046 25.3154H16.6005C16.7422 26.9666 17.3953 28.4761 18.4057 29.6714L14.5179 33.5592C14.2592 33.818 14.2592 34.237 14.5179 34.4896C14.6473 34.619 14.8137 34.6806 14.9862 34.6806C15.1587 34.6806 15.3251 34.619 15.4545 34.4896L19.3423 30.6018C20.5376 31.6122 22.0471 32.2715 23.6983 32.4071V37.903C23.6983 38.2665 23.9941 38.5622 24.3576 38.5622C24.7211 38.5622 25.0168 38.2665 25.0168 37.903V32.4071C26.6681 32.2654 28.1776 31.6122 29.3729 30.6018L33.2607 34.4896C33.3901 34.619 33.5564 34.6806 33.729 34.6806C33.9015 34.6806 34.0678 34.619 34.1972 34.4896C34.456 34.2308 34.456 33.8118 34.1972 33.5592H34.1849ZM28.9416 29.197C28.9416 29.197 28.9231 29.2155 28.9108 29.2216C28.8985 29.2278 28.8923 29.2401 28.8862 29.2525C27.7155 30.4046 26.1136 31.1194 24.3453 31.1194C20.7779 31.1194 17.882 28.2174 17.8759 24.6561C17.8759 21.0887 20.7779 18.1929 24.3453 18.1929C27.9127 18.1929 30.8146 21.0948 30.8146 24.6622C30.8146 26.4305 30.0999 28.0326 28.9478 29.2032L28.9416 29.197Z" fill="#0E0E0E"/>
<path d="M34.586 34.8887C33.5755 35.8992 33.5755 37.5442 34.586 38.5547C35.0912 39.0599 35.7566 39.3125 36.422 39.3125C37.0875 39.3125 37.7529 39.0599 38.2581 38.5547C39.2686 37.5442 39.2686 35.8992 38.2581 34.8887C37.2477 33.8782 35.6026 33.8782 34.5921 34.8887H34.586ZM37.3216 37.6243C36.8225 38.1234 36.0154 38.1234 35.5163 37.6243C35.0173 37.1252 35.0173 36.3181 35.5163 35.8191C35.7628 35.5726 36.0893 35.4493 36.4159 35.4493C36.7424 35.4493 37.069 35.5726 37.3154 35.8191C37.8145 36.3181 37.8145 37.1252 37.3154 37.6243H37.3216Z" fill="#0E0E0E"/>
<path d="M10.4375 34.8887C9.42707 35.8992 9.42707 37.5442 10.4375 38.5547C10.9428 39.0599 11.6082 39.3125 12.2736 39.3125C12.939 39.3125 13.6044 39.0599 14.1097 38.5547C15.1201 37.5442 15.1201 35.8992 14.1097 34.8887C13.0992 33.8782 11.4541 33.8782 10.4437 34.8887H10.4375ZM13.1732 37.6243C12.6741 38.1234 11.867 38.1234 11.3679 37.6243C10.8688 37.1252 10.8688 36.3181 11.3679 35.8191C11.867 35.32 12.6741 35.32 13.1732 35.8191C13.6722 36.3181 13.6722 37.1252 13.1732 37.6243Z" fill="#0E0E0E"/>
<path d="M36.4159 15.1798C37.0813 15.1798 37.7467 14.9271 38.252 14.4218C39.2624 13.4114 39.2624 11.7663 38.252 10.7559C37.2415 9.74543 35.5964 9.74543 34.586 10.7559C33.5755 11.7663 33.5755 13.4114 34.586 14.4218C35.0912 14.9271 35.7566 15.1798 36.422 15.1798H36.4159ZM35.5163 11.6863C35.7628 11.4398 36.0893 11.3166 36.4159 11.3166C36.7424 11.3166 37.069 11.4398 37.3154 11.6863C37.8145 12.1853 37.8145 12.9925 37.3154 13.4916C36.8164 13.9906 36.0092 13.9906 35.5102 13.4916C35.0111 12.9925 35.0111 12.1853 35.5102 11.6863H35.5163Z" fill="#0E0E0E"/>
<path d="M24.3458 20.668C22.1462 20.668 20.3594 22.4548 20.3594 24.6544C20.3594 26.854 22.1462 28.6408 24.3458 28.6408C26.5453 28.6408 28.3321 26.854 28.3321 24.6544C28.3321 22.4548 26.5453 20.668 24.3458 20.668ZM24.3458 27.3222C22.8732 27.3222 21.6779 26.127 21.6779 24.6544C21.6779 23.1818 22.8732 21.9865 24.3458 21.9865C25.8183 21.9865 27.0136 23.1818 27.0136 24.6544C27.0136 26.127 25.8183 27.3222 24.3458 27.3222Z" fill="#0E0E0E"/>
</svg>
