<svg width="48" height="48" viewBox="0 0 48 48" fill="none" xmlns="http://www.w3.org/2000/svg">
<rect width="48" height="48" rx="24" fill="url(#paint0_linear_7159_102713)"/>
<path d="M9 12H38.3333V36H9V12ZM11.6667 14.6667V33.3333H35.6667V14.6667H11.6667ZM17 18.6667V22.6667H19.6667V18.6667H22.3333V29.3333H19.6667V25.3333H17V29.3333H14.3333V18.6667H17ZM25 18.6667H30.3333C31.0406 18.6667 31.7189 18.9476 32.219 19.4477C32.719 19.9478 33 20.6261 33 21.3333V26.6667C33 27.3739 32.719 28.0522 32.219 28.5523C31.7189 29.0524 31.0406 29.3333 30.3333 29.3333H25V18.6667ZM27.6667 21.3333V26.6667H30.3333V21.3333H27.6667Z" fill="black"/>
<defs>
<linearGradient id="paint0_linear_7159_102713" x1="27.8625" y1="-14.55" x2="50.0711" y2="26.7285" gradientUnits="userSpaceOnUse">
<stop stop-color="#DCF7C1"/>
<stop offset="1" stop-color="#C0CDEE"/>
</linearGradient>
</defs>
</svg>
