<svg width="48" height="48" viewBox="0 0 48 48" fill="none" xmlns="http://www.w3.org/2000/svg">
<rect width="48" height="48" rx="24" fill="url(#paint0_linear_7159_102709)"/>
<path d="M31.17 16.83C31.383 17.04 31.5 17.3265 31.5 17.625V21.375C31.5 21.6734 31.3815 21.9595 31.1705 22.1705C30.9595 22.3815 30.6734 22.5 30.375 22.5C30.0766 22.5 29.7905 22.3815 29.5795 22.1705C29.3685 21.9595 29.25 21.6734 29.25 21.375V20.34L26.67 22.92C26.5662 23.0274 26.442 23.113 26.3047 23.1719C26.1674 23.2308 26.0198 23.2618 25.8704 23.263C25.721 23.2643 25.5729 23.2357 25.4347 23.1791C25.2965 23.1225 25.1709 23.0389 25.0653 22.9332C24.9597 22.8275 24.8762 22.7019 24.8197 22.5636C24.7632 22.4253 24.7349 22.2771 24.7362 22.1278C24.7376 21.9784 24.7687 21.8308 24.8277 21.6936C24.8867 21.5563 24.9725 21.4322 25.08 21.3285L27.66 18.75H26.625C26.3266 18.75 26.0405 18.6315 25.8295 18.4205C25.6185 18.2095 25.5 17.9234 25.5 17.625C25.5 17.3266 25.6185 17.0405 25.8295 16.8295C26.0405 16.6185 26.3266 16.5 26.625 16.5H30.375C30.6733 16.5003 30.9592 16.619 31.17 16.83ZM16.5 30.375C16.5 30.6734 16.6185 30.9595 16.8295 31.1705C17.0405 31.3815 17.3266 31.5 17.625 31.5H21.3765C21.6749 31.5 21.961 31.3815 22.172 31.1705C22.383 30.9595 22.5015 30.6734 22.5015 30.375C22.5015 30.0766 22.383 29.7905 22.172 29.5795C21.961 29.3685 21.6749 29.25 21.3765 29.25H20.3415L22.9215 26.67C23.1263 26.4577 23.2396 26.1735 23.2369 25.8785C23.2342 25.5836 23.1157 25.3014 22.9071 25.093C22.6984 24.8845 22.4162 24.7663 22.1212 24.7639C21.8262 24.7614 21.5421 24.875 21.33 25.08L18.75 27.657V26.622C18.75 26.3236 18.6315 26.0375 18.4205 25.8265C18.2095 25.6155 17.9234 25.497 17.625 25.497C17.3266 25.497 17.0405 25.6155 16.8295 25.8265C16.6185 26.0375 16.5 26.3236 16.5 26.622V30.375ZM9 16.125C9 15.031 9.4346 13.9818 10.2082 13.2082C10.9818 12.4346 12.031 12 13.125 12H34.875C35.969 12 37.0182 12.4346 37.7918 13.2082C38.5654 13.9818 39 15.031 39 16.125V31.875C39 32.4167 38.8933 32.9531 38.686 33.4536C38.4787 33.954 38.1749 34.4088 37.7918 34.7918C37.4088 35.1749 36.954 35.4787 36.4536 35.686C35.9531 35.8933 35.4167 36 34.875 36H13.125C12.5833 36 12.0469 35.8933 11.5464 35.686C11.046 35.4787 10.5912 35.1749 10.2082 34.7918C9.82514 34.4088 9.5213 33.954 9.314 33.4536C9.1067 32.9531 9 32.4167 9 31.875V16.125ZM13.125 14.25C12.09 14.25 11.25 15.09 11.25 16.125V31.875C11.25 32.91 12.09 33.75 13.125 33.75H34.875C35.91 33.75 36.75 32.91 36.75 31.875V16.125C36.75 15.09 35.91 14.25 34.875 14.25H13.125Z" fill="url(#paint1_linear_7159_102709)"/>
<defs>
<linearGradient id="paint0_linear_7159_102709" x1="27.8625" y1="-14.55" x2="50.0711" y2="26.7285" gradientUnits="userSpaceOnUse">
<stop stop-color="#DCF7C1"/>
<stop offset="1" stop-color="#C0CDEE"/>
</linearGradient>
<linearGradient id="paint1_linear_7159_102709" x1="12.1" y1="14.7305" x2="34.688" y2="23.5053" gradientUnits="userSpaceOnUse">
<stop stop-color="#021B08"/>
<stop offset="1" stop-color="#1D1703"/>
</linearGradient>
</defs>
</svg>
