<svg width="102" height="103" viewBox="0 0 102 103" fill="none" xmlns="http://www.w3.org/2000/svg">
<g filter="url(#filter0_d_7159_102934)">
<path d="M61.5185 69.4229L61.5185 69.3035C61.5185 67.8707 62.4667 67.1543 63.7704 67.1543L64.0074 67.1543C65.4296 67.1543 66.4963 66.0798 66.4963 64.647L66.4963 64.4082C66.4963 63.0948 67.2074 62.1397 68.6296 62.1397L68.7481 62.1397C70.1704 62.1397 71 61.3039 71 59.8711L71 43.5117C71 42.0789 70.1704 41.2432 68.7481 41.2432L68.6296 41.2432C67.2074 41.2432 66.4963 40.288 66.4963 38.9746L66.4963 38.7358C66.4963 37.3031 65.4296 36.2285 64.0074 36.2285L63.7704 36.2285C62.4667 36.2285 61.5185 35.5121 61.5185 34.0793L61.5185 33.9599C61.5185 32.5272 60.6889 31.6914 59.2667 31.6914L42.7333 31.6914C41.3111 31.6914 40.4815 32.5272 40.4815 33.9599L40.4815 34.0793C40.4815 35.5121 39.5333 36.2285 38.2296 36.2285L37.9926 36.2285C36.5704 36.2285 35.5037 37.3031 35.5037 38.7358L35.5037 38.9746C35.5037 40.288 34.7926 41.2432 33.3704 41.2432L33.2518 41.2432C31.8296 41.2432 31 42.0789 31 43.5117L31 59.8711C31 61.3039 31.8296 62.1397 33.2518 62.1397L33.3704 62.1397C34.7926 62.1397 35.5037 63.0948 35.5037 64.4082L35.5037 64.647C35.5037 66.0798 36.5704 67.1543 37.9926 67.1543L38.2296 67.1543C39.5333 67.1543 40.4815 67.8707 40.4815 69.3035L40.4815 69.4229C40.4815 70.8556 41.3111 71.6914 42.7333 71.6914L59.2667 71.6914C60.6889 71.6914 61.5185 70.8556 61.5185 69.4229Z" stroke="#181818" stroke-width="2"/>
<path d="M45.3803 51.6914C45.3803 50.6773 46.0563 50.1703 46.9859 50.1703H47.1549C48.169 50.1703 48.9296 49.4097 48.9296 48.3956V48.2266C48.9296 47.2125 49.3521 46.79 50.3662 46.79H50.5352C51.5493 46.79 52.3099 46.0294 52.3099 45.0154V44.8463C52.3099 43.8323 52.7324 43.4097 53.7465 43.4097H53.9155C54.9296 43.4097 55.6901 42.6492 55.6901 41.6351V41.4661C55.6901 40.452 54.9296 39.6914 53.9155 39.6914H53.7465C52.7324 39.6914 51.9718 40.452 51.9718 41.4661V41.6351C51.9718 42.6492 51.5493 43.0717 50.5352 43.0717H50.3662C49.3521 43.0717 48.5915 43.8323 48.5915 44.8463V45.0154C48.5915 46.0294 48.169 46.452 47.1549 46.452H46.9859C45.9718 46.452 45.2113 47.2125 45.2113 48.2266V48.3956C45.2113 49.3252 44.7042 50.0013 43.6901 50.0013H43.6056C42.7189 50.0013 42 50.7201 42 51.6069V51.7759C42 52.6627 42.7189 53.3815 43.6056 53.3815H43.6901C44.7042 53.3815 45.2113 54.0576 45.2113 54.9872V55.1562C45.2113 56.1703 45.9718 56.9308 46.9859 56.9308H47.1549C48.169 56.9308 48.5915 57.3534 48.5915 58.3675V58.5365C48.5915 59.5506 49.3521 60.3111 50.3662 60.3111H50.5352C51.5493 60.3111 51.9718 60.7337 51.9718 61.7477V61.9168C51.9718 62.9308 52.7324 63.6914 53.7465 63.6914H53.9155C54.9296 63.6914 55.6901 62.9308 55.6901 61.9168V61.7477C55.6901 60.7337 54.9296 59.9731 53.9155 59.9731H53.7465C52.7324 59.9731 52.3099 59.5506 52.3099 58.5365V58.3675C52.3099 57.3534 51.5493 56.5928 50.5352 56.5928H50.3662C49.3521 56.5928 48.9296 56.1703 48.9296 55.1562V54.9872C48.9296 53.9731 48.169 53.2125 47.1549 53.2125H46.9859C46.0563 53.2125 45.3803 52.7055 45.3803 51.6914Z" fill="#181818"/>
</g>
<defs>
<filter id="filter0_d_7159_102934" x="0" y="0.691406" width="102" height="102" filterUnits="userSpaceOnUse" color-interpolation-filters="sRGB">
<feFlood flood-opacity="0" result="BackgroundImageFix"/>
<feColorMatrix in="SourceAlpha" type="matrix" values="0 0 0 0 0 0 0 0 0 0 0 0 0 0 0 0 0 0 127 0" result="hardAlpha"/>
<feOffset/>
<feGaussianBlur stdDeviation="15"/>
<feComposite in2="hardAlpha" operator="out"/>
<feColorMatrix type="matrix" values="0 0 0 0 0 0 0 0 0 0 0 0 0 0 0 0 0 0 0.4 0"/>
<feBlend mode="normal" in2="BackgroundImageFix" result="effect1_dropShadow_7159_102934"/>
<feBlend mode="normal" in="SourceGraphic" in2="effect1_dropShadow_7159_102934" result="shape"/>
</filter>
</defs>
</svg>
