<svg width="48" height="48" viewBox="0 0 48 48" fill="none" xmlns="http://www.w3.org/2000/svg">
<mask id="mask0_7159_102801" style="mask-type:alpha" maskUnits="userSpaceOnUse" x="3" y="3" width="42" height="42">
<rect x="3" y="3" width="42" height="42" fill="#D9D9D9"/>
</mask>
<g mask="url(#mask0_7159_102801)">
<path d="M10 10L13.5 17H18.75L15.25 10H18.75L22.25 17H27.5L24 10H27.5L31 17H36.25L32.75 10H38C38.9625 10 39.7865 10.3427 40.4719 11.0281C41.1573 11.7135 41.5 12.5375 41.5 13.5V34.5C41.5 35.4625 41.1573 36.2865 40.4719 36.9719C39.7865 37.6573 38.9625 38 38 38H10C9.0375 38 8.21354 37.6573 7.52813 36.9719C6.84271 36.2865 6.5 35.4625 6.5 34.5V13.5C6.5 12.5375 6.84271 11.7135 7.52813 11.0281C8.21354 10.3427 9.0375 10 10 10ZM10 20.5V34.5H38V20.5H10Z" fill="#775BCC"/>
</g>
</svg>
