<svg width="48" height="48" viewBox="0 0 48 48" fill="none" xmlns="http://www.w3.org/2000/svg">
<rect width="48" height="48" rx="24" fill="url(#paint0_linear_7159_102717)"/>
<path d="M23.9935 29.2091C22.6137 29.2091 21.2904 28.661 20.3147 27.6853C19.339 26.7096 18.7909 25.3863 18.7909 24.0065C18.7909 22.6267 19.339 21.3034 20.3147 20.3277C21.2904 19.352 22.6137 18.8039 23.9935 18.8039C25.3733 18.8039 26.6966 19.352 27.6723 20.3277C28.648 21.3034 29.1961 22.6267 29.1961 24.0065C29.1961 25.3863 28.648 26.7096 27.6723 27.6853C26.6966 28.661 25.3733 29.2091 23.9935 29.2091ZM22.6928 12.3007C22.6928 11.9557 22.8299 11.6249 23.0738 11.381C23.3177 11.137 23.6485 11 23.9935 11C24.3385 11 24.6693 11.137 24.9132 11.381C25.1571 11.6249 25.2941 11.9557 25.2941 12.3007V14.902C25.2941 15.2469 25.1571 15.5777 24.9132 15.8217C24.6693 16.0656 24.3385 16.2026 23.9935 16.2026C23.6485 16.2026 23.3177 16.0656 23.0738 15.8217C22.8299 15.5777 22.6928 15.2469 22.6928 14.902V12.3007ZM31.3422 14.8239C31.4588 14.6878 31.6023 14.5772 31.7636 14.4991C31.925 14.421 32.1007 14.3772 32.2799 14.3702C32.459 14.3633 32.6376 14.3935 32.8045 14.4589C32.9714 14.5243 33.123 14.6235 33.2498 14.7502C33.3765 14.877 33.4757 15.0286 33.5411 15.1955C33.6065 15.3624 33.6367 15.541 33.6298 15.7201C33.6228 15.8993 33.579 16.075 33.5009 16.2364C33.4228 16.3977 33.3122 16.5412 33.1761 16.6578L31.3552 18.4787C31.2386 18.6149 31.0951 18.7255 30.9337 18.8035C30.7724 18.8816 30.5966 18.9255 30.4175 18.9324C30.2384 18.9393 30.0597 18.9091 29.8928 18.8438C29.7259 18.7784 29.5743 18.6792 29.4476 18.5524C29.3208 18.4257 29.2216 18.2741 29.1562 18.1072C29.0909 17.9403 29.0607 17.7616 29.0676 17.5825C29.0745 17.4034 29.1184 17.2276 29.1965 17.0663C29.2745 16.9049 29.3851 16.7614 29.5213 16.6448L31.3422 14.8239ZM35.6863 22.7059C36.0313 22.7059 36.3621 22.8429 36.606 23.0868C36.85 23.3307 36.987 23.6615 36.987 24.0065C36.987 24.3515 36.85 24.6823 36.606 24.9262C36.3621 25.1701 36.0313 25.3072 35.6863 25.3072H33.1111C32.7661 25.3072 32.4353 25.1701 32.1914 24.9262C31.9474 24.6823 31.8104 24.3515 31.8104 24.0065C31.8104 23.6615 31.9474 23.3307 32.1914 23.0868C32.4353 22.8429 32.7661 22.7059 33.1111 22.7059H35.6863ZM33.1761 31.3552C33.3122 31.4718 33.4228 31.6153 33.5009 31.7766C33.579 31.938 33.6228 32.1138 33.6298 32.2929C33.6367 32.472 33.6065 32.6506 33.5411 32.8175C33.4757 32.9844 33.3765 33.136 33.2498 33.2628C33.123 33.3895 32.9714 33.4887 32.8045 33.5541C32.6376 33.6195 32.459 33.6497 32.2799 33.6428C32.1007 33.6358 31.925 33.592 31.7636 33.5139C31.6023 33.4358 31.4588 33.3252 31.3422 33.1891L29.5213 31.3682C29.3851 31.2516 29.2745 31.1081 29.1965 30.9467C29.1184 30.7854 29.0745 30.6096 29.0676 30.4305C29.0607 30.2514 29.0909 30.0727 29.1562 29.9058C29.2216 29.7389 29.3208 29.5873 29.4476 29.4606C29.5743 29.3338 29.7259 29.2346 29.8928 29.1693C30.0597 29.1039 30.2384 29.0737 30.4175 29.0806C30.5966 29.0875 30.7724 29.1314 30.9337 29.2095C31.0951 29.2875 31.2386 29.3981 31.3552 29.5343L33.1761 31.3552ZM25.2941 35.6994C25.2941 36.0443 25.1571 36.3751 24.9132 36.619C24.6693 36.863 24.3385 37 23.9935 37C23.6485 37 23.3177 36.863 23.0738 36.619C22.8299 36.3751 22.6928 36.0443 22.6928 35.6994V33.1241C22.6928 32.7791 22.8299 32.4483 23.0738 32.2044C23.3177 31.9604 23.6485 31.8234 23.9935 31.8234C24.3385 31.8234 24.6693 31.9604 24.9132 32.2044C25.1571 32.4483 25.2941 32.7791 25.2941 33.1241V35.6994ZM16.6448 33.1891C16.5282 33.3252 16.3847 33.4358 16.2234 33.5139C16.062 33.592 15.8862 33.6358 15.7071 33.6428C15.528 33.6497 15.3494 33.6195 15.1825 33.5541C15.0156 33.4887 14.864 33.3895 14.7372 33.2628C14.6105 33.136 14.5113 32.9844 14.4459 32.8175C14.3805 32.6506 14.3503 32.472 14.3572 32.2929C14.3642 32.1138 14.408 31.938 14.4861 31.7766C14.5642 31.6153 14.6748 31.4718 14.8109 31.3552L16.6318 29.5343C16.7484 29.3981 16.8919 29.2875 17.0533 29.2095C17.2146 29.1314 17.3904 29.0875 17.5695 29.0806C17.7486 29.0737 17.9273 29.1039 18.0942 29.1693C18.2611 29.2346 18.4127 29.3338 18.5394 29.4606C18.6662 29.5873 18.7654 29.7389 18.8307 29.9058C18.8961 30.0727 18.9263 30.2514 18.9194 30.4305C18.9125 30.6096 18.8686 30.7854 18.7905 30.9467C18.7125 31.1081 18.6019 31.2516 18.4657 31.3682L16.6448 33.1891ZM12.3007 25.3072C11.9557 25.3072 11.6249 25.1701 11.381 24.9262C11.137 24.6823 11 24.3515 11 24.0065C11 23.6615 11.137 23.3307 11.381 23.0868C11.6249 22.8429 11.9557 22.7059 12.3007 22.7059H14.8759C15.2209 22.7059 15.5517 22.8429 15.7956 23.0868C16.0396 23.3307 16.1766 23.6615 16.1766 24.0065C16.1766 24.3515 16.0396 24.6823 15.7956 24.9262C15.5517 25.1701 15.2209 25.3072 14.8759 25.3072H12.3007ZM14.8109 16.6578C14.6748 16.5412 14.5642 16.3977 14.4861 16.2364C14.408 16.075 14.3642 15.8993 14.3572 15.7201C14.3503 15.541 14.3805 15.3624 14.4459 15.1955C14.5113 15.0286 14.6105 14.877 14.7372 14.7502C14.864 14.6235 15.0156 14.5243 15.1825 14.4589C15.3494 14.3935 15.528 14.3633 15.7071 14.3702C15.8862 14.3772 16.062 14.421 16.2234 14.4991C16.3847 14.5772 16.5282 14.6878 16.6448 14.8239L18.4657 16.6448C18.6019 16.7614 18.7125 16.9049 18.7905 17.0663C18.8686 17.2276 18.9125 17.4034 18.9194 17.5825C18.9263 17.7616 18.8961 17.9403 18.8307 18.1072C18.7654 18.2741 18.6662 18.4257 18.5394 18.5524C18.4127 18.6792 18.2611 18.7784 18.0942 18.8438C17.9273 18.9091 17.7486 18.9393 17.5695 18.9324C17.3904 18.9255 17.2146 18.8816 17.0533 18.8035C16.8919 18.7255 16.7484 18.6149 16.6318 18.4787L14.8109 16.6578Z" fill="black"/>
<defs>
<linearGradient id="paint0_linear_7159_102717" x1="27.8625" y1="-14.55" x2="50.0711" y2="26.7285" gradientUnits="userSpaceOnUse">
<stop stop-color="#DCF7C1"/>
<stop offset="1" stop-color="#C0CDEE"/>
</linearGradient>
</defs>
</svg>
