<svg width="49" height="49" viewBox="0 0 49 49" fill="none" xmlns="http://www.w3.org/2000/svg">
<path d="M32.667 14.742C33.5419 14.742 34.2566 15.4505 34.2566 16.3316V32.9795C34.2566 33.8544 33.548 34.5691 32.667 34.5691H16.0191C15.1442 34.5691 14.4295 33.8605 14.4295 32.9795V16.3316C14.4295 15.4567 15.138 14.742 16.0191 14.742H32.667ZM32.667 13.75H16.0191C14.5958 13.75 13.4375 14.9083 13.4375 16.3316V32.9795C13.4375 34.4027 14.5958 35.5611 16.0191 35.5611H32.667C34.0902 35.5611 35.2486 34.4027 35.2486 32.9795V16.3316C35.2486 14.9083 34.0902 13.75 32.667 13.75Z" fill="#0E0E0E"/>
<path d="M29.9639 19.0362V30.2683H18.7318V19.0362H29.9639ZM30.6232 18.377H18.0664V30.9337H30.6232V18.377Z" fill="#0E0E0E"/>
<path d="M17.1958 10.4417V12.82C17.1958 12.9124 17.1218 12.9863 17.0294 12.9863H16.0375C15.945 12.9863 15.8711 12.9124 15.8711 12.82V10.4417C15.8711 10.3247 15.9142 10.2199 15.9943 10.1398L16.0621 10.072C16.1484 9.98576 16.1977 9.86871 16.1977 9.74549V7.51509C16.1977 7.43499 16.2654 7.36719 16.3455 7.36719H16.7091C16.7892 7.36719 16.8569 7.43499 16.8569 7.51509V9.74549C16.8569 9.86871 16.9062 9.98576 16.9925 10.072L17.0602 10.1398C17.1403 10.2199 17.1835 10.3308 17.1835 10.4417H17.1958Z" fill="#0E0E0E"/>
<path d="M20.3208 10.4417V12.82C20.3208 12.9124 20.2468 12.9863 20.1544 12.9863H19.1625C19.07 12.9863 18.9961 12.9124 18.9961 12.82V10.4417C18.9961 10.3247 19.0392 10.2199 19.1193 10.1398L19.1871 10.072C19.2734 9.98576 19.3227 9.86871 19.3227 9.74549V7.51509C19.3227 7.43499 19.3904 7.36719 19.4705 7.36719H19.834C19.9141 7.36719 19.9819 7.43499 19.9819 7.51509V9.74549C19.9819 9.86871 20.0312 9.98576 20.1175 10.072L20.1852 10.1398C20.2653 10.2199 20.3085 10.3308 20.3085 10.4417H20.3208Z" fill="#0E0E0E"/>
<path d="M23.4419 10.4417V12.82C23.4419 12.9124 23.3679 12.9863 23.2755 12.9863H22.2836C22.1911 12.9863 22.1172 12.9124 22.1172 12.82V10.4417C22.1172 10.3247 22.1603 10.2199 22.2404 10.1398L22.3082 10.072C22.3944 9.98576 22.4438 9.86871 22.4438 9.74549V7.51509C22.4438 7.43499 22.5115 7.36719 22.5916 7.36719H22.9551C23.0352 7.36719 23.103 7.43499 23.103 7.51509V9.74549C23.103 9.86871 23.1523 9.98576 23.2386 10.072L23.3063 10.1398C23.3864 10.2199 23.4296 10.3308 23.4296 10.4417H23.4419Z" fill="#0E0E0E"/>
<path d="M26.5669 10.4417V12.82C26.5669 12.9124 26.4929 12.9863 26.4005 12.9863H25.4086C25.3161 12.9863 25.2422 12.9124 25.2422 12.82V10.4417C25.2422 10.3247 25.2853 10.2199 25.3654 10.1398L25.4332 10.072C25.5194 9.98576 25.5688 9.86871 25.5688 9.74549V7.51509C25.5688 7.43499 25.6365 7.36719 25.7166 7.36719H26.0801C26.1602 7.36719 26.228 7.43499 26.228 7.51509V9.74549C26.228 9.86871 26.2773 9.98576 26.3636 10.072L26.4313 10.1398C26.5114 10.2199 26.5546 10.3308 26.5546 10.4417H26.5669Z" fill="#0E0E0E"/>
<path d="M29.6918 10.4417V12.82C29.6918 12.9124 29.6179 12.9863 29.5255 12.9863H28.5336C28.4411 12.9863 28.3672 12.9124 28.3672 12.82V10.4417C28.3672 10.3247 28.4103 10.2199 28.4904 10.1398L28.5582 10.072C28.6444 9.98576 28.6937 9.86871 28.6937 9.74549V7.51509C28.6937 7.43499 28.7615 7.36719 28.8416 7.36719H29.2051C29.2852 7.36719 29.353 7.43499 29.353 7.51509V9.74549C29.353 9.86871 29.4023 9.98576 29.4886 10.072L29.5563 10.1398C29.6364 10.2199 29.6796 10.3308 29.6796 10.4417H29.6918Z" fill="#0E0E0E"/>
<path d="M32.8129 10.4417V12.82C32.8129 12.9124 32.739 12.9863 32.6466 12.9863H31.6546C31.5622 12.9863 31.4883 12.9124 31.4883 12.82V10.4417C31.4883 10.3247 31.5314 10.2199 31.6115 10.1398L31.6793 10.072C31.7655 9.98576 31.8148 9.86871 31.8148 9.74549V7.51509C31.8148 7.43499 31.8826 7.36719 31.9627 7.36719H32.3262C32.4063 7.36719 32.4741 7.43499 32.4741 7.51509V9.74549C32.4741 9.86871 32.5234 9.98576 32.6096 10.072L32.6774 10.1398C32.7575 10.2199 32.8006 10.3308 32.8006 10.4417H32.8129Z" fill="#0E0E0E"/>
<path d="M17.068 39.1786L17.0003 39.2464C16.914 39.3326 16.8647 39.4497 16.8647 39.5729V41.8033C16.8647 41.8834 16.7969 41.9512 16.7168 41.9512H16.3533C16.2732 41.9512 16.2055 41.8834 16.2055 41.8033V39.5729C16.2055 39.4497 16.1562 39.3326 16.0699 39.2464L16.0021 39.1786C15.922 39.0985 15.8789 38.9876 15.8789 38.8767V36.4984C15.8789 36.406 15.9529 36.332 16.0453 36.332H17.0372C17.1297 36.332 17.2036 36.406 17.2036 36.4984V38.8767C17.2036 38.9937 17.1605 39.0985 17.0804 39.1786H17.068Z" fill="#0E0E0E"/>
<path d="M20.193 39.1786L20.1253 39.2464C20.039 39.3326 19.9897 39.4497 19.9897 39.5729V41.8033C19.9897 41.8834 19.9219 41.9512 19.8418 41.9512H19.4783C19.3982 41.9512 19.3305 41.8834 19.3305 41.8033V39.5729C19.3305 39.4497 19.2812 39.3326 19.1949 39.2464L19.1271 39.1786C19.047 39.0985 19.0039 38.9876 19.0039 38.8767V36.4984C19.0039 36.406 19.0779 36.332 19.1703 36.332H20.1622C20.2547 36.332 20.3286 36.406 20.3286 36.4984V38.8767C20.3286 38.9937 20.2855 39.0985 20.2054 39.1786H20.193Z" fill="#0E0E0E"/>
<path d="M23.3141 39.1786L23.2464 39.2464C23.1601 39.3326 23.1108 39.4497 23.1108 39.5729V41.8033C23.1108 41.8834 23.043 41.9512 22.9629 41.9512H22.5994C22.5193 41.9512 22.4515 41.8834 22.4515 41.8033V39.5729C22.4515 39.4497 22.4023 39.3326 22.316 39.2464L22.2482 39.1786C22.1681 39.0985 22.125 38.9876 22.125 38.8767V36.4984C22.125 36.406 22.1989 36.332 22.2914 36.332H23.2833C23.3758 36.332 23.4497 36.406 23.4497 36.4984V38.8767C23.4497 38.9937 23.4066 39.0985 23.3265 39.1786H23.3141Z" fill="#0E0E0E"/>
<path d="M26.4391 39.1786L26.3714 39.2464C26.2851 39.3326 26.2358 39.4497 26.2358 39.5729V41.8033C26.2358 41.8834 26.168 41.9512 26.0879 41.9512H25.7244C25.6443 41.9512 25.5765 41.8834 25.5765 41.8033V39.5729C25.5765 39.4497 25.5273 39.3326 25.441 39.2464L25.3732 39.1786C25.2931 39.0985 25.25 38.9876 25.25 38.8767V36.4984C25.25 36.406 25.3239 36.332 25.4164 36.332H26.4083C26.5008 36.332 26.5747 36.406 26.5747 36.4984V38.8767C26.5747 38.9937 26.5316 39.0985 26.4515 39.1786H26.4391Z" fill="#0E0E0E"/>
<path d="M29.5641 39.1786L29.4964 39.2464C29.4101 39.3326 29.3608 39.4497 29.3608 39.5729V41.8033C29.3608 41.8834 29.293 41.9512 29.2129 41.9512H28.8494C28.7693 41.9512 28.7015 41.8834 28.7015 41.8033V39.5729C28.7015 39.4497 28.6523 39.3326 28.566 39.2464L28.4982 39.1786C28.4181 39.0985 28.375 38.9876 28.375 38.8767V36.4984C28.375 36.406 28.4489 36.332 28.5413 36.332H29.5333C29.6258 36.332 29.6997 36.406 29.6997 36.4984V38.8767C29.6997 38.9937 29.6566 39.0985 29.5765 39.1786H29.5641Z" fill="#0E0E0E"/>
<path d="M32.6931 39.1786L32.6253 39.2464C32.539 39.3326 32.4897 39.4497 32.4897 39.5729V41.8033C32.4897 41.8834 32.422 41.9512 32.3419 41.9512H31.9783C31.8982 41.9512 31.8305 41.8834 31.8305 41.8033V39.5729C31.8305 39.4497 31.7812 39.3326 31.6949 39.2464L31.6271 39.1786C31.547 39.0985 31.5039 38.9876 31.5039 38.8767V36.4984C31.5039 36.406 31.5779 36.332 31.6703 36.332H32.6622C32.7547 36.332 32.8286 36.406 32.8286 36.4984V38.8767C32.8286 38.9937 32.7855 39.0985 32.7054 39.1786H32.6931Z" fill="#0E0E0E"/>
<path d="M10.1292 31.8027H12.5075C12.5999 31.8027 12.6738 31.8767 12.6738 31.9691V32.9611C12.6738 33.0535 12.5999 33.1274 12.5075 33.1274H10.1292C10.0121 33.1274 9.90738 33.0843 9.82728 33.0042L9.75952 32.9364C9.67326 32.8501 9.55621 32.8009 9.43299 32.8009H7.20255C7.12246 32.8009 7.05469 32.7331 7.05469 32.653V32.2895C7.05469 32.2094 7.12246 32.1416 7.20255 32.1416H9.43299C9.55621 32.1416 9.67326 32.0923 9.75952 32.0061L9.82728 31.9383C9.90738 31.8582 10.0183 31.8151 10.1292 31.8151V31.8027Z" fill="#0E0E0E"/>
<path d="M10.1292 28.6797H12.5075C12.5999 28.6797 12.6738 28.7536 12.6738 28.8461V29.838C12.6738 29.9304 12.5999 30.0044 12.5075 30.0044H10.1292C10.0121 30.0044 9.90738 29.9612 9.82728 29.8812L9.75952 29.8134C9.67326 29.7271 9.55621 29.6778 9.43299 29.6778H7.20255C7.12246 29.6778 7.05469 29.6101 7.05469 29.53V29.1664C7.05469 29.0863 7.12246 29.0186 7.20255 29.0186H9.43299C9.55621 29.0186 9.67326 28.9693 9.75952 28.883L9.82728 28.8152C9.90738 28.7351 10.0183 28.692 10.1292 28.692V28.6797Z" fill="#0E0E0E"/>
<path d="M10.1292 25.5547H12.5075C12.5999 25.5547 12.6738 25.6286 12.6738 25.7211V26.713C12.6738 26.8054 12.5999 26.8794 12.5075 26.8794H10.1292C10.0121 26.8794 9.90738 26.8362 9.82728 26.7562L9.75952 26.6884C9.67326 26.6021 9.55621 26.5528 9.43299 26.5528H7.20255C7.12246 26.5528 7.05469 26.4851 7.05469 26.405V26.0414C7.05469 25.9613 7.12246 25.8936 7.20255 25.8936H9.43299C9.55621 25.8936 9.67326 25.8443 9.75952 25.758L9.82728 25.6903C9.90738 25.6102 10.0183 25.567 10.1292 25.567V25.5547Z" fill="#0E0E0E"/>
<path d="M10.1292 22.4316H12.5075C12.5999 22.4316 12.6738 22.5056 12.6738 22.598V23.59C12.6738 23.6824 12.5999 23.7563 12.5075 23.7563H10.1292C10.0121 23.7563 9.90738 23.7132 9.82728 23.6331L9.75952 23.5653C9.67326 23.4791 9.55621 23.4298 9.43299 23.4298H7.20255C7.12246 23.4298 7.05469 23.362 7.05469 23.2819V22.9184C7.05469 22.8383 7.12246 22.7705 7.20255 22.7705H9.43299C9.55621 22.7705 9.67326 22.7212 9.75952 22.635L9.82728 22.5672C9.90738 22.4871 10.0183 22.444 10.1292 22.444V22.4316Z" fill="#0E0E0E"/>
<path d="M10.1292 19.3066H12.5075C12.5999 19.3066 12.6738 19.3806 12.6738 19.473V20.465C12.6738 20.5574 12.5999 20.6313 12.5075 20.6313H10.1292C10.0121 20.6313 9.90738 20.5882 9.82728 20.5081L9.75952 20.4403C9.67326 20.3541 9.55621 20.3048 9.43299 20.3048H7.20255C7.12246 20.3048 7.05469 20.237 7.05469 20.1569V19.7934C7.05469 19.7133 7.12246 19.6455 7.20255 19.6455H9.43299C9.55621 19.6455 9.67326 19.5962 9.75952 19.51L9.82728 19.4422C9.90738 19.3621 10.0183 19.319 10.1292 19.319V19.3066Z" fill="#0E0E0E"/>
<path d="M10.1292 16.1836H12.5075C12.5999 16.1836 12.6738 16.2575 12.6738 16.35V17.3419C12.6738 17.4343 12.5999 17.5083 12.5075 17.5083H10.1292C10.0121 17.5083 9.90738 17.4652 9.82728 17.3851L9.75952 17.3173C9.67326 17.231 9.55621 17.1818 9.43299 17.1818H7.20255C7.12246 17.1818 7.05469 17.114 7.05469 17.0339V16.6704C7.05469 16.5903 7.12246 16.5225 7.20255 16.5225H9.43299C9.55621 16.5225 9.67326 16.4732 9.75952 16.3869L9.82728 16.3192C9.90738 16.2391 10.0183 16.1959 10.1292 16.1959V16.1836Z" fill="#0E0E0E"/>
<path d="M38.8661 31.9324L38.9338 32.0002C39.0201 32.0865 39.1372 32.1357 39.2604 32.1357H41.4908C41.5709 32.1357 41.6387 32.2035 41.6387 32.2836V32.6471C41.6387 32.7272 41.5709 32.795 41.4908 32.795H39.2604C39.1372 32.795 39.0201 32.8443 38.9338 32.9306L38.8661 32.9983C38.786 33.0784 38.6751 33.1216 38.5642 33.1216H36.1859C36.0935 33.1216 36.0195 33.0476 36.0195 32.9552V31.9632C36.0195 31.8708 36.0935 31.7969 36.1859 31.7969H38.5642C38.6812 31.7969 38.786 31.84 38.8661 31.9201V31.9324Z" fill="#0E0E0E"/>
<path d="M38.8661 28.8094L38.9338 28.8772C39.0201 28.9634 39.1372 29.0127 39.2604 29.0127H41.4908C41.5709 29.0127 41.6387 29.0805 41.6387 29.1606V29.5241C41.6387 29.6042 41.5709 29.672 41.4908 29.672H39.2604C39.1372 29.672 39.0201 29.7213 38.9338 29.8075L38.8661 29.8753C38.786 29.9554 38.6751 29.9985 38.5642 29.9985H36.1859C36.0935 29.9985 36.0195 29.9246 36.0195 29.8322V28.8402C36.0195 28.7478 36.0935 28.6738 36.1859 28.6738H38.5642C38.6812 28.6738 38.786 28.717 38.8661 28.7971V28.8094Z" fill="#0E0E0E"/>
<path d="M38.8661 25.6844L38.9338 25.7522C39.0201 25.8384 39.1372 25.8877 39.2604 25.8877H41.4908C41.5709 25.8877 41.6387 25.9555 41.6387 26.0356V26.3991C41.6387 26.4792 41.5709 26.547 41.4908 26.547H39.2604C39.1372 26.547 39.0201 26.5963 38.9338 26.6825L38.8661 26.7503C38.786 26.8304 38.6751 26.8735 38.5642 26.8735H36.1859C36.0935 26.8735 36.0195 26.7996 36.0195 26.7072V25.7152C36.0195 25.6228 36.0935 25.5488 36.1859 25.5488H38.5642C38.6812 25.5488 38.786 25.592 38.8661 25.6721V25.6844Z" fill="#0E0E0E"/>
<path d="M38.8661 22.5613L38.9338 22.6291C39.0201 22.7154 39.1372 22.7647 39.2604 22.7647H41.4908C41.5709 22.7647 41.6387 22.8325 41.6387 22.9125V23.276C41.6387 23.3561 41.5709 23.4239 41.4908 23.4239H39.2604C39.1372 23.4239 39.0201 23.4732 38.9338 23.5595L38.8661 23.6272C38.786 23.7073 38.6751 23.7505 38.5642 23.7505H36.1859C36.0935 23.7505 36.0195 23.6765 36.0195 23.5841V22.5921C36.0195 22.4997 36.0935 22.4258 36.1859 22.4258H38.5642C38.6812 22.4258 38.786 22.4689 38.8661 22.549V22.5613Z" fill="#0E0E0E"/>
<path d="M38.8661 19.4363L38.9338 19.5041C39.0201 19.5904 39.1372 19.6397 39.2604 19.6397H41.4908C41.5709 19.6397 41.6387 19.7075 41.6387 19.7875V20.151C41.6387 20.2311 41.5709 20.299 41.4908 20.299H39.2604C39.1372 20.299 39.0201 20.3482 38.9338 20.4345L38.8661 20.5022C38.786 20.5823 38.6751 20.6255 38.5642 20.6255H36.1859C36.0935 20.6255 36.0195 20.5515 36.0195 20.4591V19.4671C36.0195 19.3747 36.0935 19.3008 36.1859 19.3008H38.5642C38.6812 19.3008 38.786 19.3439 38.8661 19.424V19.4363Z" fill="#0E0E0E"/>
<path d="M38.8661 16.3133L38.9338 16.381C39.0201 16.4673 39.1372 16.5166 39.2604 16.5166H41.4908C41.5709 16.5166 41.6387 16.5844 41.6387 16.6645V17.028C41.6387 17.1081 41.5709 17.1759 41.4908 17.1759H39.2604C39.1372 17.1759 39.0201 17.2251 38.9338 17.3114L38.8661 17.3792C38.786 17.4593 38.6751 17.5024 38.5642 17.5024H36.1859C36.0935 17.5024 36.0195 17.4285 36.0195 17.3361V16.3441C36.0195 16.2516 36.0935 16.1777 36.1859 16.1777H38.5642C38.6812 16.1777 38.786 16.2208 38.8661 16.3009V16.3133Z" fill="#0E0E0E"/>
<path d="M24.3433 48.9992C10.9178 48.9992 0 38.0814 0 24.6558C0 11.2303 10.9178 0.3125 24.3433 0.3125C37.7689 0.3125 48.6867 11.2303 48.6867 24.6558C48.6867 38.0814 37.7689 48.9992 24.3433 48.9992ZM24.3433 1.08267C11.343 1.08267 0.770165 11.6555 0.770165 24.6558C0.770165 37.6562 11.343 48.2291 24.3433 48.2291C37.3437 48.2291 47.9166 37.6562 47.9166 24.6558C47.9166 11.6555 37.3437 1.08267 24.3433 1.08267Z" fill="#0E0E0E"/>
</svg>
