<svg width="48" height="48" viewBox="0 0 48 48" fill="none" xmlns="http://www.w3.org/2000/svg">
<mask id="mask0_7159_102783" style="mask-type:alpha" maskUnits="userSpaceOnUse" x="3" y="3" width="42" height="42">
<rect x="3" y="3" width="42" height="42" fill="#D9D9D9"/>
</mask>
<g mask="url(#mask0_7159_102783)">
<path d="M13.5 32.75H34.5L27.9375 24L22.6875 31L18.75 25.75L13.5 32.75ZM10 39.75C9.0375 39.75 8.21354 39.4073 7.52813 38.7219C6.84271 38.0365 6.5 37.2125 6.5 36.25V15.25C6.5 14.2875 6.84271 13.4635 7.52813 12.7781C8.21354 12.0927 9.0375 11.75 10 11.75H15.5125L18.75 8.25H29.25L32.4875 11.75H38C38.9625 11.75 39.7865 12.0927 40.4719 12.7781C41.1573 13.4635 41.5 14.2875 41.5 15.25V36.25C41.5 37.2125 41.1573 38.0365 40.4719 38.7219C39.7865 39.4073 38.9625 39.75 38 39.75H10ZM10 36.25H38V15.25H30.9125L27.7188 11.75H20.2812L17.0875 15.25H10V36.25Z" fill="#775BCC"/>
</g>
</svg>
