<svg width="83" height="83" viewBox="0 0 83 83" fill="none" xmlns="http://www.w3.org/2000/svg">
<path d="M66.2673 77.2778L66.2673 77.0555C66.2673 75.8227 66.6326 74.9623 67.1881 74.4102C67.7453 73.8565 68.5515 73.5556 69.5437 73.5556L69.9413 73.5556C72.6535 73.5556 74.6152 71.2778 74.6152 68.3889L74.6152 67.9444C74.6152 66.796 74.8961 65.8629 75.401 65.2278C75.8934 64.6085 76.6376 64.2222 77.6928 64.2222L77.8916 64.2222C79.1976 64.2222 80.2884 63.7925 81.0469 62.9444C81.7984 62.1042 82.168 60.9156 82.168 59.5L82.168 23.5C82.168 22.0844 81.7984 20.8958 81.0469 20.0556C80.2884 19.2075 79.1976 18.7778 77.8916 18.7778L77.6928 18.7778C76.6376 18.7778 75.8934 18.3915 75.401 17.7722C74.8961 17.1371 74.6152 16.204 74.6152 15.0556L74.6152 14.6111C74.6152 11.7222 72.6535 9.44444 69.9413 9.44444L69.5437 9.44444C68.5515 9.44444 67.7453 9.14352 67.1881 8.5898C66.6326 8.03773 66.2673 7.17726 66.2673 5.94444L66.2673 5.72222C66.2673 4.30662 65.8978 3.11806 65.1462 2.27778C64.3878 1.42976 63.2969 0.999999 61.9909 0.999999L21.345 0.999997C20.039 0.999997 18.9482 1.42976 18.1897 2.27778C17.4381 3.11806 17.0686 4.30662 17.0686 5.72222L17.0686 5.94444C17.0686 7.17726 16.7033 8.03773 16.1478 8.5898C15.5907 9.14351 14.7844 9.44444 13.7922 9.44444L13.3947 9.44444C10.6824 9.44444 8.72076 11.7222 8.72076 14.6111L8.72076 15.0556C8.72076 16.204 8.43989 17.1371 7.93497 17.7722C7.44257 18.3915 6.69834 18.7778 5.64312 18.7778L5.44437 18.7778C4.13837 18.7778 3.04755 19.2075 2.28908 20.0556C1.53752 20.8958 1.16797 22.0844 1.16797 23.5L1.16797 59.5C1.16797 60.9156 1.53752 62.1042 2.28908 62.9444C3.04754 63.7925 4.13836 64.2222 5.44436 64.2222L5.64312 64.2222C6.69834 64.2222 7.44256 64.6085 7.93497 65.2278C8.43989 65.8629 8.72076 66.796 8.72076 67.9444L8.72076 68.3889C8.72076 71.2778 10.6824 73.5556 13.3947 73.5556L13.7922 73.5556C14.7844 73.5556 15.5906 73.8565 16.1478 74.4102C16.7033 74.9623 17.0686 75.8227 17.0686 77.0555L17.0686 77.2778C17.0686 78.6934 17.4381 79.8819 18.1897 80.7222C18.9482 81.5702 20.039 82 21.345 82L61.9909 82C63.2969 82 64.3878 81.5702 65.1462 80.7222C65.8978 79.8819 66.2673 78.6934 66.2673 77.2778Z" fill="url(#paint0_radial_7159_102191)" stroke="url(#paint1_radial_7159_102191)"/>
<path d="M36.868 57.5H46.468C54.468 57.5 57.668 54.3 57.668 46.3V36.7C57.668 28.7 54.468 25.5 46.468 25.5H36.868C28.868 25.5 25.668 28.7 25.668 36.7V46.3C25.668 54.3 28.868 57.5 36.868 57.5Z" stroke="#FF0037" stroke-width="3" stroke-linecap="round" stroke-linejoin="round"/>
<path d="M38.668 51.5H44.668C49.668 51.5 51.668 49.5 51.668 44.5V38.5C51.668 33.5 49.668 31.5 44.668 31.5H38.668C33.668 31.5 31.668 33.5 31.668 38.5V44.5C31.668 49.5 33.668 51.5 38.668 51.5Z" stroke="#FF0037" stroke-width="3" stroke-linecap="round" stroke-linejoin="round"/>
<path d="M33.6875 25.5V21.5" stroke="#FF0037" stroke-width="3" stroke-linecap="round" stroke-linejoin="round"/>
<path d="M41.668 25.5V21.5" stroke="#FF0037" stroke-width="3" stroke-linecap="round" stroke-linejoin="round"/>
<path d="M49.668 25.5V21.5" stroke="#FF0037" stroke-width="3" stroke-linecap="round" stroke-linejoin="round"/>
<path d="M57.668 33.5H61.668" stroke="#FF0037" stroke-width="3" stroke-linecap="round" stroke-linejoin="round"/>
<path d="M57.668 41.5H61.668" stroke="#FF0037" stroke-width="3" stroke-linecap="round" stroke-linejoin="round"/>
<path d="M57.668 49.5H61.668" stroke="#FF0037" stroke-width="3" stroke-linecap="round" stroke-linejoin="round"/>
<path d="M49.668 57.5V61.5" stroke="#FF0037" stroke-width="3" stroke-linecap="round" stroke-linejoin="round"/>
<path d="M41.6875 57.5V61.5" stroke="#FF0037" stroke-width="3" stroke-linecap="round" stroke-linejoin="round"/>
<path d="M33.6875 57.5V61.5" stroke="#FF0037" stroke-width="3" stroke-linecap="round" stroke-linejoin="round"/>
<path d="M21.668 33.5H25.668" stroke="#FF0037" stroke-width="3" stroke-linecap="round" stroke-linejoin="round"/>
<path d="M21.668 41.5H25.668" stroke="#FF0037" stroke-width="3" stroke-linecap="round" stroke-linejoin="round"/>
<path d="M21.668 49.5H25.668" stroke="#FF0037" stroke-width="3" stroke-linecap="round" stroke-linejoin="round"/>
<path d="M41.6694 36.8984L39.7894 40.1784C39.3694 40.8984 39.7094 41.4984 40.5494 41.4984H42.7894C43.6294 41.4984 43.9694 42.0984 43.5494 42.8184L41.6694 46.0984" stroke="#FF0037" stroke-width="3" stroke-linecap="round" stroke-linejoin="round"/>
<defs>
<radialGradient id="paint0_radial_7159_102191" cx="0" cy="0" r="1" gradientUnits="userSpaceOnUse" gradientTransform="translate(41.668 94.3506) rotate(-90) scale(66.5961 63.5748)">
<stop stop-color="#FF335F" stop-opacity="0.3"/>
<stop offset="1" stop-color="#FF335F" stop-opacity="0"/>
</radialGradient>
<radialGradient id="paint1_radial_7159_102191" cx="0" cy="0" r="1" gradientUnits="userSpaceOnUse" gradientTransform="translate(41.668 1.5) rotate(90) scale(80 277.655)">
<stop stop-color="#FF335F" stop-opacity="0"/>
<stop offset="1" stop-color="#FF335F"/>
</radialGradient>
</defs>
</svg>
