<svg width="102" height="103" viewBox="0 0 102 103" fill="none" xmlns="http://www.w3.org/2000/svg">
<g filter="url(#filter0_d_7159_102938)">
<path d="M40.4815 69.4229L40.4815 69.3035C40.4815 67.8707 39.5333 67.1543 38.2296 67.1543L37.9926 67.1543C36.5704 67.1543 35.5037 66.0798 35.5037 64.647L35.5037 64.4082C35.5037 63.0948 34.7926 62.1397 33.3704 62.1397L33.2519 62.1397C31.8296 62.1397 31 61.3039 31 59.8711L31 43.5117C31 42.0789 31.8296 41.2432 33.2519 41.2432L33.3704 41.2432C34.7926 41.2432 35.5037 40.288 35.5037 38.9746L35.5037 38.7358C35.5037 37.3031 36.5704 36.2285 37.9926 36.2285L38.2296 36.2285C39.5333 36.2285 40.4815 35.5121 40.4815 34.0793L40.4815 33.9599C40.4815 32.5272 41.3111 31.6914 42.7333 31.6914L59.2667 31.6914C60.6889 31.6914 61.5185 32.5272 61.5185 33.9599L61.5185 34.0793C61.5185 35.5121 62.4667 36.2285 63.7704 36.2285L64.0074 36.2285C65.4296 36.2285 66.4963 37.3031 66.4963 38.7358L66.4963 38.9746C66.4963 40.288 67.2074 41.2432 68.6296 41.2432L68.7482 41.2432C70.1704 41.2432 71 42.0789 71 43.5117L71 59.8711C71 61.3039 70.1704 62.1397 68.7482 62.1397L68.6296 62.1397C67.2074 62.1397 66.4963 63.0948 66.4963 64.4082L66.4963 64.647C66.4963 66.0798 65.4296 67.1543 64.0074 67.1543L63.7704 67.1543C62.4667 67.1543 61.5185 67.8707 61.5185 69.3035L61.5185 69.4229C61.5185 70.8556 60.6889 71.6914 59.2667 71.6914L42.7333 71.6914C41.3111 71.6914 40.4815 70.8556 40.4815 69.4229Z" stroke="#181818" stroke-width="2"/>
<path d="M56.6197 51.6914C56.6197 50.6773 55.9437 50.1703 55.0141 50.1703H54.8451C53.831 50.1703 53.0704 49.4097 53.0704 48.3956V48.2266C53.0704 47.2125 52.6479 46.79 51.6338 46.79H51.4648C50.4507 46.79 49.6901 46.0294 49.6901 45.0154V44.8463C49.6901 43.8323 49.2676 43.4097 48.2535 43.4097H48.0845C47.0704 43.4097 46.3099 42.6492 46.3099 41.6351V41.4661C46.3099 40.452 47.0704 39.6914 48.0845 39.6914H48.2535C49.2676 39.6914 50.0282 40.452 50.0282 41.4661V41.6351C50.0282 42.6492 50.4507 43.0717 51.4648 43.0717H51.6338C52.6479 43.0717 53.4085 43.8323 53.4085 44.8463V45.0154C53.4085 46.0294 53.831 46.452 54.8451 46.452H55.0141C56.0282 46.452 56.7887 47.2125 56.7887 48.2266V48.3956C56.7887 49.3252 57.2958 50.0013 58.3099 50.0013H58.3944C59.2811 50.0013 60 50.7201 60 51.6069V51.7759C60 52.6627 59.2811 53.3815 58.3944 53.3815H58.3099C57.2958 53.3815 56.7887 54.0576 56.7887 54.9872V55.1562C56.7887 56.1703 56.0282 56.9308 55.0141 56.9308H54.8451C53.831 56.9308 53.4085 57.3534 53.4085 58.3675V58.5365C53.4085 59.5506 52.6479 60.3111 51.6338 60.3111H51.4648C50.4507 60.3111 50.0282 60.7337 50.0282 61.7477V61.9168C50.0282 62.9308 49.2676 63.6914 48.2535 63.6914H48.0845C47.0704 63.6914 46.3099 62.9308 46.3099 61.9168V61.7477C46.3099 60.7337 47.0704 59.9731 48.0845 59.9731H48.2535C49.2676 59.9731 49.6901 59.5506 49.6901 58.5365V58.3675C49.6901 57.3534 50.4507 56.5928 51.4648 56.5928H51.6338C52.6479 56.5928 53.0704 56.1703 53.0704 55.1562V54.9872C53.0704 53.9731 53.831 53.2125 54.8451 53.2125H55.0141C55.9437 53.2125 56.6197 52.7055 56.6197 51.6914Z" fill="#181818"/>
</g>
<defs>
<filter id="filter0_d_7159_102938" x="0" y="0.691406" width="102" height="102" filterUnits="userSpaceOnUse" color-interpolation-filters="sRGB">
<feFlood flood-opacity="0" result="BackgroundImageFix"/>
<feColorMatrix in="SourceAlpha" type="matrix" values="0 0 0 0 0 0 0 0 0 0 0 0 0 0 0 0 0 0 127 0" result="hardAlpha"/>
<feOffset/>
<feGaussianBlur stdDeviation="15"/>
<feComposite in2="hardAlpha" operator="out"/>
<feColorMatrix type="matrix" values="0 0 0 0 0 0 0 0 0 0 0 0 0 0 0 0 0 0 0.4 0"/>
<feBlend mode="normal" in2="BackgroundImageFix" result="effect1_dropShadow_7159_102938"/>
<feBlend mode="normal" in="SourceGraphic" in2="effect1_dropShadow_7159_102938" result="shape"/>
</filter>
</defs>
</svg>
