<svg width="74" height="71" viewBox="0 0 74 71" fill="none" xmlns="http://www.w3.org/2000/svg">
<path d="M36.8278 13.1934C36.8278 13.1934 41.7795 23.8726 46.5298 28.3748C53.1868 34.6841 66.6555 35.6934 66.6555 35.6934C66.6555 35.6934 53.1868 36.7027 46.5298 43.0119C41.7795 47.5141 36.8278 58.1934 36.8278 58.1934C36.8278 58.1934 31.8761 47.5141 27.1257 43.0119C20.4687 36.7027 7 35.6934 7 35.6934C7 35.6934 20.4687 34.6841 27.1257 28.3748C31.8761 23.8726 36.8278 13.1934 36.8278 13.1934Z" fill="#FF073C"/>
<g filter="url(#filter0_d_7159_102961)">
<path d="M46.6 48.4922L46.6 48.4121C46.6 47.4515 47.24 46.9711 48.12 46.9711L48.28 46.9711C49.24 46.9711 49.96 46.2506 49.96 45.29L49.96 45.1299C49.96 44.2493 50.44 43.6088 51.4 43.6088L51.48 43.6088C52.44 43.6088 53 43.0484 53 42.0878L53 29.1188C53 28.1582 52.44 27.5978 51.48 27.5978L51.4 27.5978C50.44 27.5978 49.96 26.9573 49.96 26.0767L49.96 25.9166C49.96 24.956 49.24 24.2355 48.28 24.2355L48.12 24.2355C47.24 24.2355 46.6 23.7551 46.6 22.7945L46.6 22.7144C46.6 21.7537 46.04 21.1934 45.08 21.1934L28.92 21.1934C27.96 21.1934 27.4 21.7537 27.4 22.7144L27.4 22.7945C27.4 23.7551 26.76 24.2355 25.88 24.2355L25.72 24.2355C24.76 24.2355 24.04 24.956 24.04 25.9166L24.04 26.0767C24.04 26.9573 23.56 27.5978 22.6 27.5978L22.52 27.5978C21.56 27.5978 21 28.1582 21 29.1188L21 42.0878C21 43.0484 21.56 43.6088 22.52 43.6088L22.6 43.6088C23.56 43.6088 24.04 44.2493 24.04 45.1299L24.04 45.29C24.04 46.2506 24.76 46.9711 25.72 46.9711L25.88 46.9711C26.76 46.9711 27.4 47.4515 27.4 48.4121L27.4 48.4922C27.4 49.4528 27.96 50.0132 28.92 50.0132L45.08 50.0132C46.04 50.0132 46.6 49.4528 46.6 48.4922Z" stroke="#FF0037" stroke-width="1.72097" shape-rendering="crispEdges"/>
</g>
<defs>
<filter id="filter0_d_7159_102961" x="0.140625" y="0.332031" width="73.7188" height="70.541" filterUnits="userSpaceOnUse" color-interpolation-filters="sRGB">
<feFlood flood-opacity="0" result="BackgroundImageFix"/>
<feColorMatrix in="SourceAlpha" type="matrix" values="0 0 0 0 0 0 0 0 0 0 0 0 0 0 0 0 0 0 127 0" result="hardAlpha"/>
<feOffset/>
<feGaussianBlur stdDeviation="10"/>
<feComposite in2="hardAlpha" operator="out"/>
<feColorMatrix type="matrix" values="0 0 0 0 1 0 0 0 0 0.027451 0 0 0 0 0.235294 0 0 0 1 0"/>
<feBlend mode="normal" in2="BackgroundImageFix" result="effect1_dropShadow_7159_102961"/>
<feBlend mode="normal" in="SourceGraphic" in2="effect1_dropShadow_7159_102961" result="shape"/>
</filter>
</defs>
</svg>
