<svg width="48" height="48" viewBox="0 0 48 48" fill="none" xmlns="http://www.w3.org/2000/svg">
<mask id="mask0_7159_102795" style="mask-type:alpha" maskUnits="userSpaceOnUse" x="3" y="3" width="42" height="42">
<rect x="3" y="3" width="42" height="42" fill="#D9D9D9"/>
</mask>
<g mask="url(#mask0_7159_102795)">
<path d="M17 39.75V36.25H20.5V32.75H10C9.0375 32.75 8.21354 32.4073 7.52813 31.7219C6.84271 31.0365 6.5 30.2125 6.5 29.25V11.75C6.5 10.7875 6.84271 9.96354 7.52813 9.27813C8.21354 8.59271 9.0375 8.25 10 8.25H38C38.9625 8.25 39.7865 8.59271 40.4719 9.27813C41.1573 9.96354 41.5 10.7875 41.5 11.75V29.25C41.5 30.2125 41.1573 31.0365 40.4719 31.7219C39.7865 32.4073 38.9625 32.75 38 32.75H27.5V36.25H31V39.75H17ZM10 29.25H38V11.75H10V29.25Z" fill="#775BCC"/>
</g>
</svg>
