<svg width="48" height="48" viewBox="0 0 48 48" fill="none" xmlns="http://www.w3.org/2000/svg">
<mask id="mask0_7159_102789" style="mask-type:alpha" maskUnits="userSpaceOnUse" x="3" y="3" width="42" height="42">
<rect x="3" y="3" width="42" height="42" fill="#D9D9D9"/>
</mask>
<g mask="url(#mask0_7159_102789)">
<path d="M24.0004 26.625L34.5004 19.625L24.0004 12.625V26.625ZM25.4442 36.25H35.0254C34.8504 36.95 34.5004 37.5552 33.9754 38.0656C33.4504 38.576 32.8088 38.875 32.0504 38.9625L12.9754 41.2813C12.0129 41.3979 11.1452 41.1646 10.3723 40.5813C9.59941 39.9979 9.15461 39.225 9.03795 38.2625L6.76295 19.1C6.64628 18.1375 6.8869 17.2771 7.48482 16.5188C8.08274 15.7604 8.86295 15.3229 9.82545 15.2063L11.7942 14.9875V18.4875L10.2192 18.6625L12.5817 37.825L25.4442 36.25ZM18.7942 32.75C17.8317 32.75 17.0077 32.4073 16.3223 31.7219C15.6369 31.0365 15.2942 30.2125 15.2942 29.25V10C15.2942 9.0375 15.6369 8.21354 16.3223 7.52813C17.0077 6.84271 17.8317 6.5 18.7942 6.5H38.0442C39.0067 6.5 39.8307 6.84271 40.5161 7.52813C41.2015 8.21354 41.5442 9.0375 41.5442 10V29.25C41.5442 30.2125 41.2015 31.0365 40.5161 31.7219C39.8307 32.4073 39.0067 32.75 38.0442 32.75H18.7942ZM18.7942 29.25H38.0442V10H18.7942V29.25Z" fill="#775BCC"/>
</g>
</svg>
