<svg xmlns="http://www.w3.org/2000/svg" width="195" height="34" viewBox="0 0 195 34" fill="none">
  <path d="M55.0226 27.2771C49.8667 31.0948 42.3887 33.1021 35.9734 33.1021C26.9604 33.1021 18.8133 29.7567 12.6735 24.2072C12.2012 23.7743 12.6342 23.1839 13.2245 23.5381C19.8366 27.3952 28.0231 29.7173 36.485 29.7173C42.1919 29.7173 48.4892 28.5366 54.2748 26.0964C55.1407 25.7028 55.8491 26.6474 55.0226 27.2771Z" fill="#B6B1B2"/>
  <path d="M57.1469 24.8328C56.5172 23.9669 52.8175 24.4392 51.1251 24.636C50.6528 24.6754 50.5741 24.2424 51.0071 23.9276C53.9589 21.8416 58.7999 22.4713 59.351 23.1404C59.902 23.8489 59.1935 28.6899 56.4385 31.012C56.0055 31.3662 55.612 31.1694 55.8087 30.6971C56.3991 29.1622 57.816 25.6593 57.1469 24.8328Z" fill="#B6B1B2"/>
  <path d="M51.2421 9.29234V7.28509C51.2421 6.97023 51.4783 6.77344 51.7538 6.77344H60.7667C61.0816 6.77344 61.3178 6.97023 61.3178 7.28509V9.01684C61.3178 9.29235 61.0422 9.68592 60.6093 10.2763L55.9651 16.9671C57.6968 16.9278 59.5073 17.1639 61.0816 18.0692C61.4752 18.2659 61.5539 18.5415 61.5933 18.8563V20.9816C61.5933 21.2965 61.239 21.6114 60.9242 21.4539C58.1298 19.9977 54.4301 19.8403 51.3996 21.4539C51.0847 21.6114 50.7305 21.2965 50.7305 21.021V18.9744C50.7305 18.6202 50.7305 18.0692 51.0847 17.5969L56.4767 9.804H51.7931C51.4783 9.804 51.2421 9.60721 51.2421 9.29234Z" fill="#B6B1B2"/>
  <path d="M18.3406 21.8808H15.5856C15.3494 21.8415 15.1133 21.6447 15.1133 21.4085V7.31841C15.1133 7.0429 15.3494 6.80675 15.6249 6.80675H18.1832C18.4587 6.80675 18.6949 7.0429 18.6949 7.27905V9.12887H18.7342C19.4033 7.35777 20.6628 6.53125 22.3551 6.53125C24.0869 6.53125 25.1495 7.35777 25.9367 9.12887C26.5664 7.35777 28.1014 6.53125 29.7151 6.53125C30.8564 6.53125 32.1159 7.00355 32.9031 8.06621C33.7689 9.24695 33.5721 10.9393 33.5721 12.4743V21.3692C33.5721 21.6447 33.336 21.8808 33.0605 21.8808H30.3054C30.0299 21.8415 29.8331 21.6447 29.8331 21.3692V13.8912C29.8331 13.3008 29.8725 11.8052 29.7544 11.2542C29.5183 10.3096 28.9279 10.0341 28.1407 10.0341C27.4717 10.0341 26.7632 10.5064 26.4877 11.1755C26.2122 11.9233 26.2122 13.104 26.2122 13.8912V21.3692C26.2122 21.6447 25.9761 21.8808 25.7006 21.8808H22.9455C22.67 21.8415 22.4732 21.6447 22.4732 21.3692V13.8912C22.4732 12.3169 22.7094 9.99475 20.7808 9.99475C18.8129 9.99475 18.8916 12.2775 18.8916 13.8912V21.3692C18.8916 21.6447 18.6555 21.8808 18.3406 21.8808Z" fill="#B6B1B2"/>
  <path fill-rule="evenodd" clip-rule="evenodd" d="M75.371 14.4422C75.371 18.7716 72.9308 22.1563 69.0737 22.1563C65.0592 22.1563 62.8945 18.6535 62.8945 14.3241C62.8945 9.91603 65.0986 6.53125 69.0737 6.53125C73.1669 6.53125 75.371 9.99474 75.371 14.4422ZM71.3171 14.4815C71.3171 13.3008 71.2384 11.8839 70.8842 10.7425C70.5693 9.7586 69.9789 9.40438 69.1131 9.40438C67.0665 9.40438 66.9484 12.1594 66.9484 13.8518C66.9484 15.5836 66.909 19.2439 69.0737 19.2439C71.199 19.2439 71.3171 16.292 71.3171 14.4815Z" fill="#B6B1B2"/>
  <path d="M80.6453 21.8808H77.8903C77.6148 21.8415 77.418 21.6447 77.418 21.3692V7.27905C77.418 7.00355 77.6541 6.80675 77.9296 6.80675H80.4879C80.724 6.80675 80.9208 7.00354 80.9602 7.20033V9.36502H81.0389C81.7867 7.43648 82.8494 6.53125 84.7385 6.53125C85.998 6.53125 87.1787 6.96419 87.9659 8.18428C88.6743 9.2863 88.6743 11.1755 88.6743 12.553V21.4085C88.635 21.684 88.4382 21.8808 88.1627 21.8808H85.4076C85.1321 21.8415 84.9353 21.6447 84.896 21.4085V13.7731C84.896 12.2381 85.0928 9.99475 83.2036 9.99475C82.5345 9.99475 81.9048 10.4277 81.5899 11.0968C81.2357 11.9626 81.157 12.8285 81.157 13.7731V21.3692C81.157 21.6447 80.9208 21.8808 80.6453 21.8808Z" fill="#B6B1B2"/>
  <path fill-rule="evenodd" clip-rule="evenodd" d="M48.9608 20.0322C48.3704 20.4651 47.3864 21.3704 46.8354 21.8427C46.6386 22.0001 46.4025 22.0001 46.1664 21.882C45.2611 21.1342 45.1037 20.78 44.592 20.0716C43.0964 21.6065 42.0338 22.0788 40.0659 22.0788C37.7831 22.0788 35.9727 20.6226 35.9727 17.7888C35.9727 15.5454 37.1928 14.0498 38.8852 13.302C40.3808 12.6329 42.4667 12.5148 44.0804 12.3574V12.0032C44.0804 11.3341 44.1197 10.5863 43.7262 9.99593C43.4113 9.48428 42.7422 9.28749 42.1912 9.28749C41.1285 9.28749 40.2233 9.83849 39.9872 10.9405C39.9478 11.1767 39.751 11.4128 39.5149 11.4522L36.8385 11.1373C36.6024 11.0979 36.3662 10.9405 36.445 10.5863C37.0353 7.35895 39.9478 6.375 42.5848 6.375C43.923 6.375 45.6547 6.72922 46.7174 7.75253C48.0555 9.01198 47.8981 10.665 47.8981 12.4755V16.7261C47.8981 18.0249 48.4491 18.576 48.9608 19.2844C49.1182 19.5205 49.1576 19.8354 48.9608 20.0322ZM44.0804 14.5614C42.0731 14.5614 39.9872 14.955 39.9872 17.3165C39.9872 18.4972 40.6169 19.2844 41.6402 19.2844C42.4274 19.2844 43.0964 18.8121 43.5687 18.0643C44.0804 17.1197 44.0804 16.2145 44.0804 15.1518V14.5614Z" fill="#B6B1B2"/>
  <path fill-rule="evenodd" clip-rule="evenodd" d="M12.9487 20.0322C12.3977 20.4651 11.4138 21.3704 10.8628 21.8427C10.666 22.0001 10.3905 22.0001 10.1937 21.882C9.28846 21.1342 9.13103 20.78 8.61938 20.0716C7.12378 21.6065 6.06111 22.0788 4.09322 22.0788C1.7711 22.0788 0 20.6226 0 17.7888C0 15.5454 1.22009 14.0498 2.91248 13.302C4.40808 12.6329 6.49405 12.5148 8.06837 12.3574V12.0032C8.06837 11.3341 8.14709 10.5863 7.75351 9.99593C7.39929 9.48428 6.76957 9.28749 6.21856 9.28749C5.15589 9.28749 4.25066 9.83849 4.01451 10.9405C3.97515 11.1767 3.77836 11.4128 3.54221 11.4522L0.865879 11.1373C0.629731 11.0979 0.393584 10.9405 0.4723 10.5863C1.06267 7.35895 3.97515 6.375 6.57277 6.375C7.91094 6.375 9.68205 6.72922 10.7447 7.75253C12.0829 9.01198 11.9255 10.665 11.9255 12.4755V16.7261C11.9255 18.0249 12.4765 18.576 12.9881 19.2844C13.1455 19.5205 13.1849 19.8354 12.9487 20.0322ZM8.06837 15.1518V14.5614C6.10047 14.5614 4.01451 14.955 4.01451 17.3165C4.01451 18.4972 4.60487 19.2844 5.66754 19.2844C6.45469 19.2844 7.12379 18.8121 7.55672 18.0643C8.10773 17.1197 8.06837 16.2145 8.06837 15.1518Z" fill="#B6B1B2"/>
  <path fill-rule="evenodd" clip-rule="evenodd" d="M101.07 19.2067C101.569 18.8393 101.818 18.367 101.818 17.7898C101.818 17.1863 101.66 16.7402 101.345 16.4516C101.057 16.163 100.519 15.8744 99.7318 15.5857L97.2523 14.6805C95.0745 13.8671 93.9856 12.5027 93.9856 10.5873C93.9856 9.32782 94.4841 8.30452 95.4812 7.51736C96.4782 6.75644 97.7508 6.37598 99.2989 6.37598C100.873 6.37598 102.343 6.67772 103.707 7.28121V9.32782C102.185 8.85553 100.781 8.61938 99.4957 8.61938C97.6327 8.61938 96.7013 9.24911 96.7013 10.5086C96.7013 11.0071 96.8587 11.4007 97.1735 11.6893C97.4884 11.9779 98.0919 12.2928 98.984 12.6339L101.267 13.5391C102.421 13.9852 103.261 14.5099 103.786 15.1134C104.284 15.7169 104.533 16.5041 104.533 17.4749C104.533 18.8656 104.009 19.9676 102.959 20.781C101.936 21.5944 100.506 22.0011 98.6691 22.0011C96.8587 22.0011 95.245 21.6337 93.8281 20.899V18.8524C95.6648 19.4559 97.2129 19.7577 98.4724 19.7577C99.7056 19.7577 100.571 19.574 101.07 19.2067ZM107.407 27.5505V6.80892H109.847L110.122 8.30452C111.592 7.01883 113.245 6.37598 115.081 6.37598C116.944 6.37598 118.414 7.05818 119.489 8.42259C120.592 9.787 121.143 11.6499 121.143 14.0114C121.143 16.3991 120.565 18.3014 119.411 19.7183C118.256 21.1614 116.774 21.883 114.963 21.883C113.127 21.883 111.579 21.3057 110.319 20.1512V27.5505H107.407ZM117.167 10.0363C116.511 9.14415 115.514 8.6981 114.176 8.6981C112.812 8.6981 111.513 9.14415 110.28 10.0363V18.144C111.539 19.0623 112.825 19.5346 114.137 19.5609C116.813 19.5609 118.151 17.7504 118.151 14.1295C118.151 12.2928 117.823 10.9284 117.167 10.0363ZM127.912 18.4982C128.699 19.2854 129.893 19.679 131.494 19.679C133.068 19.679 134.695 19.3772 136.374 18.7737V20.8597C134.905 21.6206 133.068 22.0011 130.864 22.0011C128.66 22.0011 126.941 21.332 125.708 19.9938C124.475 18.6819 123.858 16.7665 123.858 14.2476C123.858 11.7287 124.475 9.787 125.708 8.42259C126.941 7.05818 128.647 6.37598 130.825 6.37598C132.714 6.37598 134.17 6.88763 135.193 7.91094C136.19 8.96048 136.689 10.443 136.689 12.3584C136.689 13.2505 136.61 14.0639 136.453 14.7986H126.653C126.705 16.4778 127.125 17.7111 127.912 18.4982ZM133.934 12.1616C133.934 9.74764 132.858 8.54066 130.706 8.54066C128.214 8.54066 126.863 9.99691 126.653 12.9094H133.934C133.934 12.752 133.934 12.5027 133.934 12.1616ZM141.097 19.9151C139.89 18.6294 139.286 16.7402 139.286 14.2476C139.286 11.7549 139.903 9.83947 141.136 8.50131C142.37 7.16314 144.141 6.49405 146.45 6.49405C147.735 6.49405 148.955 6.75644 150.11 7.28121V9.32782C149.008 8.98672 147.919 8.81617 146.843 8.81617C145.216 8.81617 144.049 9.22287 143.34 10.0363C142.606 10.8759 142.238 12.2009 142.238 14.0114V14.405C142.238 16.163 142.606 17.4618 143.34 18.3014C144.075 19.1411 145.23 19.5609 146.804 19.5609C147.853 19.5609 148.995 19.3641 150.228 18.9705V21.0171C149.1 21.5944 147.801 21.883 146.332 21.883C144.023 21.883 142.278 21.227 141.097 19.9151ZM156.368 3.69964C156.053 4.01451 155.607 4.17194 155.03 4.17194C154.479 4.17194 154.033 4.01451 153.692 3.69964C153.377 3.38478 153.219 2.96496 153.219 2.44019C153.219 1.91542 153.377 1.48248 153.692 1.14138C154.033 0.826517 154.479 0.669083 155.03 0.669083C155.607 0.669083 156.053 0.826517 156.368 1.14138C156.683 1.48248 156.84 1.91542 156.84 2.44019C156.84 2.96496 156.683 3.38478 156.368 3.69964ZM153.573 21.5681V6.80892H156.447V21.5681H153.573ZM161.209 20.781C160.369 19.9938 159.949 18.918 159.949 17.5536C159.949 16.1892 160.461 15.1003 161.484 14.2869C162.481 13.4473 163.833 13.0275 165.538 13.0275C166.666 13.0275 167.9 13.198 169.238 13.5391V11.5712C169.238 10.4954 168.989 9.74764 168.49 9.32782C168.018 8.908 167.086 8.6981 165.696 8.6981C164.305 8.6981 162.731 8.99984 160.973 9.60333V7.55672C162.442 6.76956 164.2 6.37598 166.247 6.37598C168.32 6.37598 169.789 6.75644 170.655 7.51736C171.521 8.27828 171.954 9.4459 171.954 11.0202V21.5681H169.553L169.317 20.0725C167.847 21.332 166.247 21.9617 164.515 21.9617C163.124 21.9617 162.022 21.5681 161.209 20.781ZM165.223 19.7577C166.535 19.7577 167.873 19.2591 169.238 18.2621V15.3102C168.215 15.0478 167.178 14.9166 166.129 14.9166C163.951 14.9166 162.862 15.7563 162.862 17.4355C162.862 18.1965 163.059 18.7737 163.452 19.1673C163.872 19.5609 164.462 19.7577 165.223 19.7577ZM176.244 18.3014V0H179.117V18.1046C179.117 18.5507 179.209 18.8787 179.392 19.0886C179.576 19.2723 179.878 19.3641 180.297 19.3641C180.691 19.3641 181.098 19.3378 181.518 19.2854V21.3713C180.862 21.6075 180.088 21.7256 179.195 21.7256C178.303 21.7256 177.595 21.4238 177.07 20.8203C176.519 20.2431 176.244 19.4034 176.244 18.3014ZM190.727 19.2067C191.226 18.8393 191.475 18.367 191.475 17.7898C191.475 17.1863 191.331 16.7402 191.042 16.4516C190.727 16.163 190.176 15.8744 189.389 15.5857L186.949 14.6805C184.745 13.8671 183.643 12.5027 183.643 10.5873C183.643 9.32782 184.141 8.30452 185.138 7.51736C186.136 6.75644 187.421 6.37598 188.996 6.37598C190.544 6.37598 192.013 6.67772 193.404 7.28121V9.32782C191.882 8.85553 190.465 8.61938 189.153 8.61938C187.29 8.61938 186.372 9.24911 186.398 10.5086C186.398 11.0071 186.555 11.4007 186.87 11.6893C187.159 11.9779 187.762 12.2928 188.681 12.6339L190.924 13.5391C192.105 13.9852 192.944 14.5099 193.443 15.1134C193.968 15.7169 194.23 16.5041 194.23 17.4749C194.23 18.8656 193.705 19.9676 192.656 20.781C191.606 21.5944 190.176 22.0011 188.366 22.0011C186.555 22.0011 184.942 21.6337 183.525 20.899V18.8524C185.361 19.4559 186.896 19.7577 188.13 19.7577C189.389 19.7577 190.255 19.574 190.727 19.2067Z" fill="#B6B1B2"/>
</svg>