<svg width="212" height="48" viewBox="0 0 212 48" fill="none" xmlns="http://www.w3.org/2000/svg">
<path d="M9.6 45.72C9.6 47.16 10.44 48 11.88 48V0C10.44 0 9.6 0.84 9.6 2.28V2.4C9.6 3.84 8.64 4.56 7.32 4.56H7.08C5.64 4.56 4.56 5.64 4.56 7.08V7.32C4.56 8.64 3.84 9.6 2.4 9.6H2.28C0.84 9.6 0 10.44 0 11.88V36.12C0 37.56 0.84 38.4 2.28 38.4H2.4C3.84 38.4 4.56 39.36 4.56 40.68V40.92C4.56 42.36 5.64 43.44 7.08 43.44H7.32C8.64 43.44 9.6 44.16 9.6 45.6V45.72Z" fill="white"/>
<rect width="188" height="48" transform="translate(11.8799)" fill="white"/>
<g clip-path="url(#clip0_437_4482)">
<path d="M33.7161 30H25.3481V18.8H33.6521V20.848H27.5801V23.328H33.3721V25.376H27.5801V27.952H33.7161V30ZM37.7164 30H35.1404L38.9644 24.312L35.2444 18.8H37.8684L40.3324 22.64L42.8124 18.8H45.3884L41.6604 24.312L45.4924 30H42.8764L40.3004 26.008L37.7164 30ZM49.4001 30H47.1681V18.8H51.7361C54.4081 18.8 55.8321 20.192 55.8321 22.36C55.8321 24.512 54.4081 25.904 51.7521 25.904H49.4001V30ZM49.4001 20.856V23.864H51.6961C52.9121 23.864 53.5441 23.368 53.5441 22.36C53.5441 21.36 52.9121 20.856 51.6961 20.856H49.4001ZM66.0426 30H57.8906V18.8H60.1226V27.912H66.0426V30ZM72.629 30.208C69.181 30.208 66.749 27.744 66.749 24.4C66.749 21.056 69.181 18.592 72.629 18.592C76.077 18.592 78.517 21.056 78.517 24.4C78.517 27.744 76.077 30.208 72.629 30.208ZM72.629 28.064C74.693 28.064 76.181 26.576 76.181 24.4C76.181 22.224 74.693 20.736 72.629 20.736C70.573 20.736 69.077 22.224 69.077 24.4C69.077 26.576 70.573 28.064 72.629 28.064ZM82.9114 30H80.6794V18.8H85.4154C88.0874 18.8 89.5194 20.064 89.5194 22.208C89.5194 24.048 88.2394 25.304 86.0874 25.512L89.5354 30H86.8314L83.5674 25.544H82.9114V30ZM82.9114 20.856V23.6H85.3754C86.5914 23.6 87.2234 23.152 87.2234 22.208C87.2234 21.28 86.5594 20.856 85.3754 20.856H82.9114ZM100.082 30H91.7144V18.8H100.018V20.848H93.9464V23.328H99.7384V25.376H93.9464V27.952H100.082V30ZM108.876 30H106.644V18.8H109.916L112.828 26.36L115.732 18.8H119.004V30H116.772V21.544L114.004 28.92H111.644L108.876 21.608V30ZM127.054 30.208C123.606 30.208 121.174 27.744 121.174 24.4C121.174 21.056 123.606 18.592 127.054 18.592C130.502 18.592 132.942 21.056 132.942 24.4C132.942 27.744 130.502 30.208 127.054 30.208ZM127.054 28.064C129.118 28.064 130.606 26.576 130.606 24.4C130.606 22.224 129.118 20.736 127.054 20.736C124.998 20.736 123.502 22.224 123.502 24.4C123.502 26.576 124.998 28.064 127.054 28.064ZM137.336 30H135.104V18.8H139.84C142.512 18.8 143.944 20.064 143.944 22.208C143.944 24.048 142.664 25.304 140.512 25.512L143.96 30H141.256L137.992 25.544H137.336V30ZM137.336 20.856V23.6H139.8C141.016 23.6 141.648 23.152 141.648 22.208C141.648 21.28 140.984 20.856 139.8 20.856H137.336ZM154.507 30H146.139V18.8H154.443V20.848H148.371V23.328H154.163V25.376H148.371V27.952H154.507V30Z" fill="black"/>
<path d="M182.018 23.0415C181.638 22.8935 181.383 22.5284 181.383 22.0775V21.9789C181.383 21.3873 181.139 21.1409 180.555 21.1409H180.457C179.872 21.1409 179.434 20.6972 179.434 20.1056V20.007C179.434 19.4155 179.19 19.169 178.604 19.169H178.507C177.923 19.169 177.483 18.7253 177.483 18.1338V18.0352C177.483 17.4437 177.923 17 178.507 17H178.604C179.19 17 179.628 17.4437 179.628 18.0352V18.1338C179.628 18.7253 179.872 18.9719 180.457 18.9719H180.555C181.139 18.9719 181.578 19.4155 181.578 20.007V20.1056C181.578 20.6972 181.822 20.9436 182.407 20.9436H182.504C183.089 20.9436 183.528 21.3873 183.528 21.9789V22.0775C183.528 22.6198 183.82 23.0141 184.405 23.0141H184.453C184.965 23.0141 185.38 23.4334 185.38 23.9507V24.0493C185.38 24.5666 184.965 24.9859 184.453 24.9859H184.405C183.82 24.9859 183.528 25.3802 183.528 25.9225V26.0211C183.528 26.6127 183.089 27.0564 182.504 27.0564H182.407C181.822 27.0564 181.578 27.3028 181.578 27.8944V27.993C181.578 28.5845 181.139 29.0281 180.555 29.0281H180.457C179.872 29.0281 179.628 29.2747 179.628 29.8662V29.9648C179.628 30.5563 179.19 31 178.604 31H178.507C177.923 31 177.483 30.5563 177.483 29.9648V29.8662C177.483 29.2747 177.923 28.831 178.507 28.831H178.604C179.19 28.831 179.434 28.5845 179.434 27.993V27.8944C179.434 27.3028 179.872 26.8591 180.457 26.8591H180.555C181.139 26.8591 181.383 26.6127 181.383 26.0211V25.9225C181.383 25.4622 181.648 25.0916 182.042 24.9497H166.323C165.802 24.9497 165.38 24.5225 165.38 23.9956C165.38 23.4687 165.802 23.0415 166.323 23.0415H182.018Z" fill="#FF0037"/>
</g>
<path d="M202.16 45.72C202.16 47.16 201.32 48 199.88 48V0C201.32 0 202.16 0.84 202.16 2.28V2.4C202.16 3.84 203.12 4.56 204.44 4.56H204.68C206.12 4.56 207.2 5.64 207.2 7.08V7.32C207.2 8.64 207.92 9.6 209.36 9.6H209.48C210.92 9.6 211.76 10.44 211.76 11.88V36.12C211.76 37.56 210.92 38.4 209.48 38.4H209.36C207.92 38.4 207.2 39.36 207.2 40.68V40.92C207.2 42.36 206.12 43.44 204.68 43.44H204.44C203.12 43.44 202.16 44.16 202.16 45.6V45.72Z" fill="white"/>
<defs>
<clipPath id="clip0_437_4482">
<rect width="164" height="24" fill="white" transform="translate(23.8799 12)"/>
</clipPath>
</defs>
</svg>
