<svg width="82" height="83" viewBox="0 0 82 83" fill="none" xmlns="http://www.w3.org/2000/svg">
<path d="M65.5994 77.2778L65.5994 77.0555C65.5994 75.8227 65.9647 74.9623 66.5202 74.4102C67.0773 73.8565 67.8836 73.5556 68.8758 73.5556L69.2733 73.5556C71.9855 73.5556 73.9472 71.2778 73.9472 68.3889L73.9472 67.9444C73.9472 66.796 74.2281 65.8629 74.733 65.2278C75.2254 64.6085 75.9696 64.2222 77.0248 64.2222L77.2236 64.2222C78.5296 64.2222 79.6204 63.7925 80.3789 62.9444C81.1304 62.1042 81.5 60.9156 81.5 59.5L81.5 23.5C81.5 22.0844 81.1304 20.8958 80.3789 20.0556C79.6204 19.2075 78.5296 18.7778 77.2236 18.7778L77.0248 18.7778C75.9696 18.7778 75.2254 18.3915 74.733 17.7722C74.2281 17.1371 73.9472 16.204 73.9472 15.0556L73.9472 14.6111C73.9472 11.7222 71.9855 9.44444 69.2733 9.44444L68.8758 9.44444C67.8836 9.44444 67.0773 9.14352 66.5202 8.5898C65.9647 8.03773 65.5994 7.17726 65.5994 5.94444L65.5994 5.72222C65.5994 4.30662 65.2298 3.11806 64.4783 2.27778C63.7198 1.42976 62.629 0.999999 61.323 0.999999L20.677 0.999997C19.371 0.999997 18.2802 1.42976 17.5217 2.27778C16.7702 3.11806 16.4006 4.30662 16.4006 5.72222L16.4006 5.94444C16.4006 7.17726 16.0353 8.03773 15.4798 8.5898C14.9227 9.14351 14.1164 9.44444 13.1242 9.44444L12.7267 9.44444C10.0145 9.44444 8.05279 11.7222 8.05279 14.6111L8.05279 15.0556C8.05279 16.204 7.77192 17.1371 7.26701 17.7722C6.7746 18.3915 6.03037 18.7778 4.97515 18.7778L4.7764 18.7778C3.4704 18.7778 2.37958 19.2075 1.62111 20.0556C0.869552 20.8958 0.499999 22.0844 0.499999 23.5L0.499997 59.5C0.499997 60.9156 0.86955 62.1042 1.62111 62.9444C2.37957 63.7925 3.4704 64.2222 4.77639 64.2222L4.97515 64.2222C6.03037 64.2222 6.77459 64.6085 7.267 65.2278C7.77192 65.8629 8.05279 66.796 8.05279 67.9444L8.05279 68.3889C8.05279 71.2778 10.0145 73.5556 12.7267 73.5556L13.1242 73.5556C14.1164 73.5556 14.9227 73.8565 15.4798 74.4102C16.0353 74.9623 16.4006 75.8227 16.4006 77.0555L16.4006 77.2778C16.4006 78.6934 16.7702 79.8819 17.5217 80.7222C18.2802 81.5702 19.371 82 20.677 82L61.323 82C62.629 82 63.7198 81.5702 64.4783 80.7222C65.2298 79.8819 65.5994 78.6934 65.5994 77.2778Z" fill="url(#paint0_radial_7159_100364)" stroke="url(#paint1_radial_7159_100364)"/>
<path d="M36.2 58H45.8C53.8 58 57 54.8 57 46.8V37.2C57 29.2 53.8 26 45.8 26H36.2C28.2 26 25 29.2 25 37.2V46.8C25 54.8 28.2 58 36.2 58Z" stroke="#FF0037" stroke-width="3" stroke-linecap="round" stroke-linejoin="round"/>
<path d="M38 52H44C49 52 51 50 51 45V39C51 34 49 32 44 32H38C33 32 31 34 31 39V45C31 50 33 52 38 52Z" stroke="#FF0037" stroke-width="3" stroke-linecap="round" stroke-linejoin="round"/>
<path d="M33.0195 26V22" stroke="#FF0037" stroke-width="3" stroke-linecap="round" stroke-linejoin="round"/>
<path d="M41 26V22" stroke="#FF0037" stroke-width="3" stroke-linecap="round" stroke-linejoin="round"/>
<path d="M49 26V22" stroke="#FF0037" stroke-width="3" stroke-linecap="round" stroke-linejoin="round"/>
<path d="M57 34H61" stroke="#FF0037" stroke-width="3" stroke-linecap="round" stroke-linejoin="round"/>
<path d="M57 42H61" stroke="#FF0037" stroke-width="3" stroke-linecap="round" stroke-linejoin="round"/>
<path d="M57 50H61" stroke="#FF0037" stroke-width="3" stroke-linecap="round" stroke-linejoin="round"/>
<path d="M49 58V62" stroke="#FF0037" stroke-width="3" stroke-linecap="round" stroke-linejoin="round"/>
<path d="M41.0195 58V62" stroke="#FF0037" stroke-width="3" stroke-linecap="round" stroke-linejoin="round"/>
<path d="M33.0195 58V62" stroke="#FF0037" stroke-width="3" stroke-linecap="round" stroke-linejoin="round"/>
<path d="M21 34H25" stroke="#FF0037" stroke-width="3" stroke-linecap="round" stroke-linejoin="round"/>
<path d="M21 42H25" stroke="#FF0037" stroke-width="3" stroke-linecap="round" stroke-linejoin="round"/>
<path d="M21 50H25" stroke="#FF0037" stroke-width="3" stroke-linecap="round" stroke-linejoin="round"/>
<path d="M40.9975 37.3984L39.1175 40.6784C38.6975 41.3984 39.0375 41.9984 39.8775 41.9984H42.1175C42.9575 41.9984 43.2975 42.5984 42.8775 43.3184L40.9975 46.5984" stroke="#FF0037" stroke-width="3" stroke-linecap="round" stroke-linejoin="round"/>
<defs>
<radialGradient id="paint0_radial_7159_100364" cx="0" cy="0" r="1" gradientUnits="userSpaceOnUse" gradientTransform="translate(41 94.3506) rotate(-90) scale(66.5961 63.5748)">
<stop stop-color="#FF335F" stop-opacity="0.3"/>
<stop offset="1" stop-color="#FF335F" stop-opacity="0"/>
</radialGradient>
<radialGradient id="paint1_radial_7159_100364" cx="0" cy="0" r="1" gradientUnits="userSpaceOnUse" gradientTransform="translate(41 1.5) rotate(90) scale(80 277.655)">
<stop stop-color="#FF335F" stop-opacity="0"/>
<stop offset="1" stop-color="#FF335F"/>
</radialGradient>
</defs>
</svg>
