<svg width="83" height="82" viewBox="0 0 83 82" fill="none" xmlns="http://www.w3.org/2000/svg">
<path d="M66.2673 76.7778L66.2673 76.5555C66.2673 75.3227 66.6326 74.4623 67.1881 73.9102C67.7453 73.3565 68.5515 73.0556 69.5437 73.0556L69.9413 73.0556C72.6535 73.0556 74.6152 70.7778 74.6152 67.8889L74.6152 67.4444C74.6152 66.296 74.8961 65.3629 75.401 64.7278C75.8934 64.1085 76.6376 63.7222 77.6928 63.7222L77.8916 63.7222C79.1976 63.7222 80.2884 63.2925 81.0469 62.4444C81.7984 61.6042 82.168 60.4156 82.168 59L82.168 23C82.168 21.5844 81.7984 20.3958 81.0469 19.5556C80.2884 18.7075 79.1976 18.2778 77.8916 18.2778L77.6928 18.2778C76.6376 18.2778 75.8934 17.8915 75.401 17.2722C74.8961 16.6371 74.6152 15.704 74.6152 14.5556L74.6152 14.1111C74.6152 11.2222 72.6535 8.94444 69.9413 8.94444L69.5437 8.94444C68.5515 8.94444 67.7453 8.64352 67.1881 8.0898C66.6326 7.53773 66.2673 6.67726 66.2673 5.44444L66.2673 5.22222C66.2673 3.80662 65.8978 2.61806 65.1462 1.77778C64.3878 0.929765 63.2969 0.499999 61.9909 0.499999L21.345 0.499997C20.039 0.499997 18.9482 0.929763 18.1897 1.77778C17.4381 2.61806 17.0686 3.80662 17.0686 5.22222L17.0686 5.44444C17.0686 6.67726 16.7033 7.53773 16.1478 8.0898C15.5907 8.64351 14.7844 8.94444 13.7922 8.94444L13.3947 8.94444C10.6824 8.94444 8.72076 11.2222 8.72076 14.1111L8.72076 14.5556C8.72076 15.704 8.43989 16.6371 7.93497 17.2722C7.44257 17.8915 6.69834 18.2778 5.64312 18.2778L5.44437 18.2778C4.13837 18.2778 3.04755 18.7075 2.28908 19.5556C1.53752 20.3958 1.16797 21.5844 1.16797 23L1.16797 59C1.16797 60.4156 1.53752 61.6042 2.28908 62.4444C3.04754 63.2925 4.13836 63.7222 5.44436 63.7222L5.64312 63.7222C6.69834 63.7222 7.44256 64.1085 7.93497 64.7278C8.43989 65.3629 8.72076 66.296 8.72076 67.4444L8.72076 67.8889C8.72076 70.7778 10.6824 73.0556 13.3947 73.0556L13.7922 73.0556C14.7844 73.0556 15.5906 73.3565 16.1478 73.9102C16.7033 74.4623 17.0686 75.3227 17.0686 76.5555L17.0686 76.7778C17.0686 78.1934 17.4381 79.3819 18.1897 80.2222C18.9482 81.0702 20.039 81.5 21.345 81.5L61.9909 81.5C63.2969 81.5 64.3878 81.0702 65.1462 80.2222C65.8978 79.3819 66.2673 78.1934 66.2673 76.7778Z" fill="url(#paint0_radial_7159_100397)" stroke="url(#paint1_radial_7159_100397)"/>
<path d="M36.6316 40.8466C36.3248 40.6032 35.935 40.4894 35.5455 40.5296C35.156 40.5697 34.7976 40.7606 34.5469 41.0614C34.2962 41.3622 34.1731 41.7491 34.2039 42.1395C34.2346 42.5299 34.4168 42.8928 34.7116 43.1506L40.7116 48.1506C40.9306 48.333 41.197 48.4493 41.4797 48.4857C41.7624 48.5222 42.0496 48.4773 42.3077 48.3565C42.5658 48.2356 42.7842 48.0437 42.9372 47.8032C43.0901 47.5627 43.1715 47.2836 43.1716 46.9986L43.1716 43.2006L46.7116 46.1506C46.8621 46.2823 47.0375 46.3826 47.2273 46.4455C47.4172 46.5084 47.6177 46.5327 47.8171 46.517C48.0165 46.5013 48.2107 46.4459 48.3884 46.354C48.566 46.2621 48.7235 46.1356 48.8516 45.9819C48.9796 45.8283 49.0756 45.6506 49.134 45.4593C49.1923 45.2679 49.2118 45.0669 49.1913 44.8679C49.1708 44.669 49.1107 44.4761 49.0146 44.3007C48.9185 44.1253 48.7882 43.9709 48.6316 43.8466L42.6316 38.8466C42.4126 38.6642 42.1461 38.548 41.8634 38.5115C41.5808 38.475 41.2935 38.5199 41.0354 38.6407C40.7773 38.7616 40.559 38.9535 40.406 39.194C40.253 39.4345 40.1717 39.7136 40.1716 39.9986L40.1716 43.7966L36.6316 40.8466Z" fill="#FF335F"/>
<path fill-rule="evenodd" clip-rule="evenodd" d="M24.168 45.112L24.168 41.8881C24.168 38.212 24.168 35.3 24.474 33.022C24.79 30.678 25.454 28.78 26.95 27.2821C28.448 25.786 30.346 25.122 32.69 24.806C33.716 24.668 34.872 24.592 36.17 24.55C36.17 23.826 36.18 23.16 36.254 22.606C36.35 21.894 36.574 21.1441 37.194 20.526C37.812 19.906 38.562 19.682 39.274 19.586C39.92 19.5 40.714 19.5 41.578 19.5L41.758 19.5C42.624 19.5 43.418 19.5 44.062 19.586C44.774 19.682 45.524 19.906 46.142 20.526C46.762 21.144 46.986 21.894 47.082 22.606C47.156 23.16 47.166 23.826 47.168 24.55C48.464 24.592 49.62 24.67 50.646 24.806C52.99 25.122 54.888 25.786 56.386 27.282C57.882 28.78 58.546 30.678 58.862 33.022C59.168 35.302 59.168 38.212 59.168 41.888L59.168 45.11C59.168 48.786 59.168 51.698 58.862 53.976C58.546 56.32 57.882 58.218 56.386 59.716C54.888 61.212 52.99 61.876 50.646 62.192C48.366 62.498 45.456 62.498 41.78 62.498L41.556 62.498C37.88 62.498 34.968 62.498 32.69 62.192C30.346 61.876 28.448 61.212 26.95 59.716C25.454 58.218 24.79 56.32 24.474 53.976C24.168 51.696 24.168 48.788 24.168 45.112ZM27.448 53.58C27.718 55.592 28.226 56.752 29.072 57.6C29.918 58.444 31.078 58.952 33.09 59.222C35.146 59.498 37.854 59.502 41.668 59.502C45.482 59.502 48.192 59.498 50.248 59.222C52.258 58.952 53.418 58.444 54.264 57.598C55.11 56.752 55.618 55.592 55.888 53.58C56.164 51.524 56.168 48.816 56.168 45.002L56.168 42.002C56.168 38.188 56.164 35.478 55.888 33.422C55.618 31.412 55.11 30.252 54.264 29.406C53.418 28.56 52.258 28.052 50.246 27.782C48.19 27.506 45.482 27.502 41.668 27.502C37.854 27.502 35.146 27.506 33.088 27.7821C31.078 28.052 29.918 28.56 29.072 29.406C28.226 30.252 27.718 31.412 27.448 33.424C27.172 35.478 27.168 38.188 27.168 42.0021L27.168 45C27.168 48.814 27.172 51.522 27.448 53.58ZM39.188 23.502L44.148 23.502C44.14 23.312 44.128 23.15 44.108 23.008C44.0954 22.8869 44.0672 22.7679 44.024 22.654L44.022 22.648L44.016 22.646C43.9021 22.6028 43.7831 22.5746 43.662 22.562C43.242 22.506 42.654 22.502 41.668 22.502C40.682 22.502 40.094 22.506 39.674 22.562C39.5528 22.5746 39.4338 22.6028 39.32 22.646L39.314 22.648L39.312 22.654C39.2687 22.7679 39.2405 22.8869 39.228 23.008C39.2075 23.1721 39.1942 23.3369 39.188 23.502Z" fill="#FF335F"/>
<defs>
<radialGradient id="paint0_radial_7159_100397" cx="0" cy="0" r="1" gradientUnits="userSpaceOnUse" gradientTransform="translate(41.668 93.8506) rotate(-90) scale(66.5961 63.5748)">
<stop stop-color="#FF335F" stop-opacity="0.3"/>
<stop offset="1" stop-color="#FF335F" stop-opacity="0"/>
</radialGradient>
<radialGradient id="paint1_radial_7159_100397" cx="0" cy="0" r="1" gradientUnits="userSpaceOnUse" gradientTransform="translate(41.668 1) rotate(90) scale(80 277.655)">
<stop stop-color="#FF335F" stop-opacity="0"/>
<stop offset="1" stop-color="#FF335F"/>
</radialGradient>
</defs>
</svg>
