<svg width="83" height="83" viewBox="0 0 83 83" fill="none" xmlns="http://www.w3.org/2000/svg">
<path d="M65.9314 77.2778L65.9314 77.0555C65.9314 75.8227 66.2967 74.9623 66.8522 74.4102C67.4093 73.8565 68.2156 73.5556 69.2078 73.5556L69.6053 73.5556C72.3176 73.5556 74.2792 71.2778 74.2792 68.3889L74.2792 67.9444C74.2792 66.796 74.5601 65.8629 75.065 65.2278C75.5574 64.6085 76.3017 64.2222 77.3569 64.2222L77.5556 64.2222C78.8616 64.2222 79.9524 63.7925 80.7109 62.9444C81.4625 62.1042 81.832 60.9156 81.832 59.5L81.832 23.5C81.832 22.0844 81.4625 20.8958 80.7109 20.0556C79.9524 19.2075 78.8616 18.7778 77.5556 18.7778L77.3569 18.7778C76.3017 18.7778 75.5574 18.3915 75.065 17.7722C74.5601 17.1371 74.2792 16.204 74.2792 15.0556L74.2792 14.6111C74.2792 11.7222 72.3176 9.44444 69.6053 9.44444L69.2078 9.44444C68.2156 9.44444 67.4093 9.14352 66.8522 8.5898C66.2967 8.03773 65.9314 7.17726 65.9314 5.94444L65.9314 5.72222C65.9314 4.30662 65.5619 3.11806 64.8103 2.27778C64.0518 1.42976 62.961 0.999999 61.655 0.999999L21.009 0.999997C19.703 0.999997 18.6122 1.42976 17.8538 2.27778C17.1022 3.11806 16.7327 4.30662 16.7327 5.72222L16.7327 5.94444C16.7327 7.17726 16.3674 8.03773 15.8119 8.5898C15.2547 9.14351 14.4485 9.44444 13.4563 9.44444L13.0587 9.44444C10.3465 9.44444 8.38483 11.7222 8.38483 14.6111L8.38483 15.0556C8.38483 16.204 8.10395 17.1371 7.59904 17.7722C7.10663 18.3915 6.3624 18.7778 5.30718 18.7778L5.10843 18.7778C3.80243 18.7778 2.71161 19.2075 1.95314 20.0556C1.20158 20.8958 0.83203 22.0844 0.83203 23.5L0.832029 59.5C0.832029 60.9156 1.20158 62.1042 1.95314 62.9444C2.71161 63.7925 3.80243 64.2222 5.10843 64.2222L5.30718 64.2222C6.3624 64.2222 7.10663 64.6085 7.59903 65.2278C8.10395 65.8629 8.38482 66.796 8.38482 67.9444L8.38482 68.3889C8.38482 71.2778 10.3465 73.5556 13.0587 73.5556L13.4562 73.5556C14.4485 73.5556 15.2547 73.8565 15.8119 74.4102C16.3674 74.9623 16.7326 75.8227 16.7326 77.0555L16.7326 77.2778C16.7326 78.6934 17.1022 79.8819 17.8538 80.7222C18.6122 81.5702 19.703 82 21.009 82L61.655 82C62.961 82 64.0518 81.5702 64.8103 80.7222C65.5618 79.8819 65.9314 78.6934 65.9314 77.2778Z" fill="url(#paint0_radial_7159_100389)" stroke="url(#paint1_radial_7159_100389)"/>
<path d="M31.332 23.5H27.332C26.2712 23.5 25.2537 23.9214 24.5036 24.6716C23.7535 25.4217 23.332 26.4391 23.332 27.5V31.5M51.332 23.5H55.332C56.3929 23.5 57.4103 23.9214 58.1605 24.6716C58.9106 25.4217 59.332 26.4391 59.332 27.5V31.5M49.332 33.5V37.5M33.332 33.5V37.5M35.332 49.5C35.332 49.5 37.332 51.5 41.332 51.5C45.332 51.5 47.332 49.5 47.332 49.5M41.332 33.5V43.5H39.332M31.332 59.5H27.332C26.2712 59.5 25.2537 59.0786 24.5036 58.3284C23.7535 57.5783 23.332 56.5609 23.332 55.5V51.5M51.332 59.5H55.332C56.3929 59.5 57.4103 59.0786 58.1605 58.3284C58.9106 57.5783 59.332 56.5609 59.332 55.5V51.5" stroke="#FF0037" stroke-width="3.5" stroke-linecap="round" stroke-linejoin="round"/>
<defs>
<radialGradient id="paint0_radial_7159_100389" cx="0" cy="0" r="1" gradientUnits="userSpaceOnUse" gradientTransform="translate(41.332 94.3506) rotate(-90) scale(66.5961 63.5748)">
<stop stop-color="#FF335F" stop-opacity="0.3"/>
<stop offset="1" stop-color="#FF335F" stop-opacity="0"/>
</radialGradient>
<radialGradient id="paint1_radial_7159_100389" cx="0" cy="0" r="1" gradientUnits="userSpaceOnUse" gradientTransform="translate(41.332 1.5) rotate(90) scale(80 277.655)">
<stop stop-color="#FF335F" stop-opacity="0"/>
<stop offset="1" stop-color="#FF335F"/>
</radialGradient>
</defs>
</svg>
