<svg width="39" height="24" viewBox="0 0 39 24" fill="none" xmlns="http://www.w3.org/2000/svg">
<rect x="0.09375" y="0.347656" width="38.341" height="23.3053" rx="11.6527" fill="#F8F6F3"/>
<path d="M25.0738 17.7675C24.9173 17.9217 24.7154 18.0216 24.4978 18.0523C24.2803 18.083 24.0586 18.0429 23.8656 17.938L23.8536 17.9315L19.2653 15.3506L14.677 17.9315L14.665 17.938C14.472 18.0428 14.2503 18.0828 14.0328 18.0521C13.8153 18.0214 13.6134 17.9216 13.4568 17.7675L13.443 17.7537C13.2893 17.6028 13.187 17.4073 13.1507 17.1949C13.1144 16.9826 13.1459 16.7642 13.2408 16.5708L18.3259 5.48924C18.3274 5.48589 18.329 5.48266 18.331 5.47959C18.4163 5.30465 18.549 5.15717 18.714 5.05392C18.879 4.95068 19.0697 4.89582 19.2643 4.89558C19.459 4.89534 19.6498 4.94973 19.815 5.05257C19.9803 5.15541 20.1134 5.30256 20.1991 5.47729L20.2042 5.48694L25.2898 16.5708C25.3861 16.7672 25.4171 16.9893 25.3783 17.2046C25.3394 17.4199 25.2327 17.6171 25.0738 17.7675Z" fill="#6B6682"/>
</svg>
