<svg width="49" height="49" viewBox="0 0 49 49" fill="none" xmlns="http://www.w3.org/2000/svg">
<path d="M24.3434 48.6868C10.9179 48.6868 0 37.7689 0 24.3434C0 10.9179 10.9179 0 24.3434 0C37.7689 0 48.6868 10.9179 48.6868 24.3434C48.6868 37.7689 37.7689 48.6868 24.3434 48.6868ZM24.3434 0.770165C11.343 0.770165 0.770165 11.343 0.770165 24.3434C0.770165 37.3438 11.343 47.9166 24.3434 47.9166C37.3438 47.9166 47.9166 37.3438 47.9166 24.3434C47.9166 11.343 37.3438 0.770165 24.3434 0.770165Z" fill="#232323"/>
<path d="M37.6843 27.9716H37.5843V28.0716V29.6353C37.5843 31.1605 36.343 32.4018 34.8176 32.4018H10.9931C9.46786 32.4018 8.22656 31.1605 8.22656 29.6353V18.3626C8.22656 16.8374 9.46786 15.5961 10.9931 15.5961L34.8173 15.5961C36.3428 15.5961 37.5841 16.8372 37.5841 18.3626V19.9265V20.0265H37.6841H40.6936C41.0708 20.0265 41.3766 20.3323 41.3766 20.7095V27.2886C41.3766 27.6658 41.0708 27.9716 40.6936 27.9716H37.6843ZM40.0106 21.4923V21.3923H39.9106H37.6841H37.5841V21.4923V26.5055V26.6055H37.6841H39.9106H40.0106V26.5055V21.4923ZM9.59272 29.6353C9.59272 30.4077 10.2209 31.0359 10.9933 31.0359L34.8176 31.0357C35.5902 31.0357 36.2184 30.4075 36.2184 29.6351V27.2884V20.7093V18.3624C36.2184 17.59 35.5902 16.9618 34.8176 16.9618H10.9933C10.2209 16.9618 9.59272 17.59 9.59272 18.3624V29.6353Z" fill="#181818" stroke="#D3F3FF" stroke-width="0.2"/>
<path d="M26.583 28.6332L26.583 28.6332C26.5282 28.9093 26.7062 29.1779 26.9816 29.2333C27.2572 29.2887 27.5259 29.1102 27.5815 28.8346L27.9517 26.9982C27.9517 26.9981 27.9518 26.9981 27.9518 26.9981C27.985 26.8307 27.9332 26.6578 27.8124 26.5373L27.8124 26.5372C27.6918 26.4166 27.5189 26.3643 27.3516 26.3979L26.583 28.6332ZM26.583 28.6332L26.5996 28.5495L26.6262 28.4147L26.5192 28.5009C25.4977 29.3232 24.2372 29.771 22.9068 29.771C21.3647 29.771 19.9148 29.1704 18.8245 28.0799L18.8245 28.0799C17.7339 26.9895 17.1334 25.5397 17.1334 23.9975C17.1334 22.4551 17.7339 21.0055 18.8245 19.9149L18.7891 19.8796L18.8245 19.9149C19.9148 18.8244 21.3647 18.2238 22.9068 18.2238C24.4492 18.2238 25.8988 18.8243 26.9894 19.9149L26.9894 19.9149C28.1316 21.0569 28.7457 22.6387 28.675 24.2523C28.6625 24.5333 28.4248 24.7512 28.1437 24.7388C27.8632 24.7264 27.6489 24.495 27.6573 24.2072C27.7168 22.8772 27.2097 21.5756 26.2693 20.6352C25.3712 19.7371 24.1769 19.2423 22.9068 19.2423C21.6368 19.2423 20.4427 19.7371 19.5445 20.6352L19.5445 20.6352C18.6466 21.5336 18.1519 22.7277 18.1519 23.9977C18.1519 25.2678 18.6464 26.4621 19.5446 27.36C20.4427 28.2579 21.6368 28.7527 22.9068 28.7527C23.9113 28.7527 24.866 28.4388 25.6667 27.8651L25.8024 27.7678L25.6356 27.7745C25.3899 27.7842 25.1666 27.6164 25.1164 27.368L25.0674 27.3779M26.583 28.6332L27.3516 26.3979L25.5151 26.7681C25.2733 26.817 25.1062 27.0295 25.1062 27.2667C25.1062 27.2999 25.1096 27.3338 25.1164 27.3682L25.0674 27.3779M25.0674 27.3779C25.06 27.3405 25.0562 27.3034 25.0562 27.2667C25.0562 27.0061 25.2396 26.7728 25.5051 26.7191L26.234 20.6706C25.3452 19.7818 24.1636 19.2923 22.9068 19.2923C21.6501 19.2923 20.4687 19.7818 19.5799 20.6706C18.6914 21.5596 18.2019 22.741 18.2019 23.9977C18.2019 25.2545 18.6911 26.4361 19.5799 27.3247C20.4687 28.2132 21.6501 28.7027 22.9068 28.7027C23.872 28.7027 24.7905 28.4099 25.5684 27.8731C25.5919 27.8749 25.6156 27.8753 25.6396 27.8744L25.6376 27.8244L25.6085 27.7838C25.5907 27.7965 25.5728 27.8091 25.5549 27.8216C25.3193 27.7961 25.1169 27.6228 25.0674 27.3779Z" fill="#181818" stroke="#D3F3FF" stroke-width="0.1"/>
<path d="M26.1794 24.6913C26.3457 24.7152 26.504 24.6126 26.5501 24.451C26.5949 24.2891 26.5152 24.1186 26.3609 24.0515L22.461 22.3558C22.3575 22.3109 22.238 22.3212 22.1434 22.3829C22.0488 22.4449 21.9917 22.5505 21.9917 22.6636V23.5654L19.6243 23.2484C19.4589 23.226 19.3023 23.3289 19.2567 23.4896C19.2482 23.52 19.244 23.5506 19.244 23.5808C19.244 23.7106 19.3198 23.8327 19.4435 23.8875L23.3883 25.6382C23.4921 25.6843 23.6122 25.6747 23.7073 25.613C23.8026 25.551 23.8601 25.4452 23.8601 25.3315V24.3566L26.1794 24.6913Z" fill="#181818"/>
</svg>
