<svg width="722" height="80" viewBox="0 0 722 80" fill="none" xmlns="http://www.w3.org/2000/svg">
<g clip-path="url(#clip0_7159_65566)">
<path d="M757.805 5.05706L757.805 5.49219C757.805 8.10298 756.282 9.62594 753.671 9.62594L735.831 9.62594C733.22 9.62594 731.697 8.10298 731.697 5.49219L731.697 5.05706C731.697 2.44627 733.22 0.923312 735.831 0.923312L736.049 0.923312C738.551 0.923312 740.4 -0.925999 740.4 -3.42801L740.4 -3.64557C740.4 -6.25636 741.923 -7.77932 744.534 -7.77932L744.751 -7.77932C747.253 -7.77932 749.103 -9.62863 749.103 -12.1306L749.103 -29.5359C749.103 -32.0379 747.253 -33.8872 744.751 -33.8872L727.346 -33.8872C724.844 -33.8872 722.995 -32.0379 722.995 -29.5359L722.995 -20.6157C722.995 -18.0049 721.472 -16.482 718.861 -16.482L718.643 -16.482C716.141 -16.482 714.292 -14.6326 714.292 -12.1306L714.292 -3.21044C714.292 -0.599653 712.769 0.923311 710.158 0.923311L709.941 0.923311C707.439 0.923311 705.589 2.77262 705.589 5.27463L705.589 5.49219C705.589 8.10298 704.066 9.62594 701.456 9.62594L683.615 9.62594C681.004 9.62594 679.481 8.10298 679.481 5.49219L679.481 5.27462C679.481 2.77262 677.632 0.92331 675.13 0.92331L674.913 0.92331C672.302 0.923309 670.779 -0.599655 670.779 -3.21045L670.779 -21.0508C670.779 -23.6616 672.302 -25.1846 674.913 -25.1846L675.13 -25.1846C677.632 -25.1846 679.481 -27.0339 679.481 -29.5359C679.481 -32.0379 677.632 -33.8872 675.13 -33.8872L674.913 -33.8872C672.302 -33.8872 670.779 -35.4102 670.779 -38.021L670.779 -38.4561C670.779 -41.0669 672.302 -42.5898 674.913 -42.5898L692.753 -42.5898C695.364 -42.5898 696.887 -41.0669 696.887 -38.4561L696.887 -38.021C696.887 -35.4102 695.364 -33.8872 692.753 -33.8872L692.535 -33.8872C690.033 -33.8872 688.184 -32.0379 688.184 -29.5359L688.184 -29.3183C688.184 -26.7075 686.661 -25.1846 684.05 -25.1846L683.833 -25.1846C681.331 -25.1846 679.481 -23.3353 679.481 -20.8333L679.481 -3.42801C679.481 -0.926002 681.331 0.92331 683.833 0.92331L701.238 0.923311C703.74 0.923311 705.589 -0.926001 705.589 -3.42801L705.589 -12.3482C705.589 -14.959 707.112 -16.482 709.723 -16.482L709.941 -16.482C712.443 -16.482 714.292 -18.3313 714.292 -20.8333L714.292 -29.7535C714.292 -32.3643 715.815 -33.8872 718.426 -33.8872L718.643 -33.8872C721.145 -33.8872 722.995 -35.7365 722.995 -38.2385L722.995 -38.4561C722.995 -41.0669 724.518 -42.5898 727.128 -42.5898L744.969 -42.5898C747.58 -42.5898 749.103 -41.0669 749.103 -38.4561L749.103 -38.2385C749.103 -35.7365 750.952 -33.8872 753.454 -33.8872L753.671 -33.8872C756.282 -33.8872 757.805 -32.3643 757.805 -29.7535L757.805 -11.9131C757.805 -9.30228 756.282 -7.77932 753.671 -7.77932L753.454 -7.77932C750.952 -7.77932 749.103 -5.93001 749.103 -3.42801C749.103 -0.925999 750.952 0.923313 753.454 0.923313L753.671 0.923313C756.282 0.923313 757.805 2.44627 757.805 5.05706Z" fill="#111111"/>
<path d="M123.376 -51.6348H123.811C126.422 -51.6348 127.945 -50.1118 127.945 -47.501V-29.6606C127.945 -27.0498 126.422 -25.5269 123.811 -25.5269H123.376C120.765 -25.5269 119.242 -27.0498 119.242 -29.6606V-29.8782C119.242 -32.3802 117.393 -34.2295 114.891 -34.2295H114.673C112.062 -34.2295 110.54 -35.7525 110.54 -38.3632V-38.5808C110.54 -41.0828 108.69 -42.9321 106.188 -42.9321H88.783C86.2809 -42.9321 84.4316 -41.0828 84.4316 -38.5808V-21.1756C84.4316 -18.6735 86.2809 -16.8242 88.783 -16.8242H97.7031C100.314 -16.8242 101.837 -15.3013 101.837 -12.6905V-12.4729C101.837 -9.97092 103.686 -8.12161 106.188 -8.12161H115.108C117.719 -8.12161 119.242 -6.59865 119.242 -3.98786V-3.77029C119.242 -1.26828 121.091 0.581028 123.593 0.581028H123.811C126.422 0.581028 127.945 2.10398 127.945 4.71478V22.5552C127.945 25.166 126.422 26.6889 123.811 26.6889H123.593C121.091 26.6889 119.242 28.5382 119.242 31.0402V31.2578C119.242 33.8686 117.719 35.3916 115.108 35.3916H97.268C94.6572 35.3916 93.1343 33.8686 93.1343 31.2578V31.0402C93.1343 28.5382 91.285 26.6889 88.783 26.6889C86.2809 26.6889 84.4316 28.5382 84.4316 31.0402V31.2578C84.4316 33.8686 82.9087 35.3916 80.2979 35.3916H79.8628C77.252 35.3916 75.729 33.8686 75.729 31.2578V13.4174C75.729 10.8066 77.252 9.28366 79.8628 9.28366H80.2979C82.9087 9.28366 84.4316 10.8066 84.4316 13.4174V13.635C84.4316 16.137 86.2809 17.9863 88.783 17.9863H89.0005C91.6113 17.9863 93.1343 19.5093 93.1343 22.12V22.3376C93.1343 24.8396 94.9836 26.6889 97.4856 26.6889H114.891C117.393 26.6889 119.242 24.8396 119.242 22.3376V4.93234C119.242 2.43034 117.393 0.581028 114.891 0.581028H105.971C103.36 0.581028 101.837 -0.941936 101.837 -3.55273V-3.77029C101.837 -6.2723 99.9876 -8.12161 97.4856 -8.12161H88.5654C85.9546 -8.12161 84.4316 -9.64457 84.4316 -12.2554V-12.4729C84.4316 -14.9749 82.5823 -16.8242 80.0803 -16.8242H79.8628C77.252 -16.8242 75.729 -18.3472 75.729 -20.958V-38.7984C75.729 -41.4092 77.252 -42.9321 79.8628 -42.9321H80.0803C82.5823 -42.9321 84.4316 -44.7814 84.4316 -47.2834V-47.501C84.4316 -50.1118 85.9546 -51.6348 88.5654 -51.6348H106.406C109.017 -51.6348 110.54 -50.1118 110.54 -47.501V-47.2834C110.54 -44.7814 112.389 -42.9321 114.891 -42.9321C117.393 -42.9321 119.242 -44.7814 119.242 -47.2834V-47.501C119.242 -50.1118 120.765 -51.6348 123.376 -51.6348Z" fill="#111111"/>
<path d="M263.332 -34.0215H263.768C266.378 -34.0215 267.901 -32.4985 267.901 -29.8877V-12.0473C267.901 -9.43655 266.378 -7.91359 263.768 -7.91359H263.332C260.722 -7.91359 259.199 -9.43655 259.199 -12.0473V-12.2649C259.199 -14.7669 257.349 -16.6162 254.847 -16.6162H254.63C252.019 -16.6162 250.496 -18.1392 250.496 -20.75V-20.9675C250.496 -23.4695 248.647 -25.3189 246.145 -25.3189H228.739C226.237 -25.3189 224.388 -23.4695 224.388 -20.9675V-3.56227C224.388 -1.06027 226.237 0.789043 228.739 0.789043H237.66C240.27 0.789043 241.793 2.312 241.793 4.92279V5.14036C241.793 7.64236 243.643 9.49167 246.145 9.49167H255.065C257.676 9.49167 259.199 11.0146 259.199 13.6254V13.843C259.199 16.345 261.048 18.1943 263.55 18.1943H263.768C266.378 18.1943 267.901 19.7173 267.901 22.3281V40.1685C267.901 42.7792 266.378 44.3022 263.768 44.3022H263.55C261.048 44.3022 259.199 46.1515 259.199 48.6535V48.8711C259.199 51.4819 257.676 53.0048 255.065 53.0048H237.225C234.614 53.0048 233.091 51.4819 233.091 48.8711V48.6535C233.091 46.1515 231.241 44.3022 228.739 44.3022C226.237 44.3022 224.388 46.1515 224.388 48.6535V48.8711C224.388 51.4819 222.865 53.0048 220.254 53.0048H219.819C217.209 53.0048 215.686 51.4819 215.686 48.8711V31.0307C215.686 28.4199 217.209 26.8969 219.819 26.8969H220.254C222.865 26.8969 224.388 28.4199 224.388 31.0307V31.2483C224.388 33.7503 226.237 35.5996 228.739 35.5996H228.957C231.568 35.5996 233.091 37.1225 233.091 39.7333V39.9509C233.091 42.4529 234.94 44.3022 237.442 44.3022H254.847C257.349 44.3022 259.199 42.4529 259.199 39.9509V22.5456C259.199 20.0436 257.349 18.1943 254.847 18.1943H245.927C243.316 18.1943 241.793 16.6713 241.793 14.0606V13.843C241.793 11.341 239.944 9.49167 237.442 9.49167H228.522C225.911 9.49167 224.388 7.96871 224.388 5.35793V5.14036C224.388 2.63835 222.539 0.789043 220.037 0.789043H219.819C217.209 0.789043 215.686 -0.733917 215.686 -3.34471V-21.1851C215.686 -23.7959 217.209 -25.3189 219.819 -25.3189H220.037C222.539 -25.3189 224.388 -27.1682 224.388 -29.6702V-29.8877C224.388 -32.4985 225.911 -34.0215 228.522 -34.0215H246.362C248.973 -34.0215 250.496 -32.4985 250.496 -29.8877V-29.6702C250.496 -27.1682 252.345 -25.3189 254.847 -25.3189C257.349 -25.3189 259.199 -27.1682 259.199 -29.6702V-29.8877C259.199 -32.4985 260.722 -34.0215 263.332 -34.0215Z" fill="#111111"/>
<path d="M40.4126 56.9457L40.4126 57.3809C40.4126 59.9917 38.8896 61.5146 36.2788 61.5146L18.4385 61.5146C15.8277 61.5146 14.3047 59.9917 14.3047 57.3809L14.3047 56.9457C14.3047 54.3349 15.8277 52.812 18.4385 52.812L18.656 52.812C21.158 52.812 23.0073 50.9627 23.0073 48.4607L23.0073 48.2431C23.0073 45.6323 24.5303 44.1094 27.1411 44.1094L27.3586 44.1094C29.8607 44.1094 31.71 42.26 31.71 39.758L31.71 22.3528C31.71 19.8508 29.8607 18.0015 27.3586 18.0015L9.95339 18.0015C7.45138 18.0015 5.60207 19.8508 5.60207 22.3528L5.60207 31.273C5.60207 33.8838 4.07911 35.4067 1.46832 35.4067L1.25075 35.4067C-1.25125 35.4067 -3.10056 37.256 -3.10056 39.758L-3.10056 48.6782C-3.10056 51.289 -4.62352 52.812 -7.23431 52.812L-7.45188 52.812C-9.95389 52.812 -11.8032 54.6613 -11.8032 57.1633L-11.8032 57.3809C-11.8032 59.9917 -13.3262 61.5146 -15.9369 61.5146L-33.7773 61.5146C-36.3881 61.5146 -37.9111 59.9917 -37.9111 57.3809L-37.9111 57.1633C-37.9111 54.6613 -39.7604 52.812 -42.2624 52.812L-42.48 52.812C-45.0908 52.812 -46.6137 51.289 -46.6137 48.6782L-46.6137 30.8378C-46.6137 28.227 -45.0908 26.7041 -42.48 26.7041L-42.2624 26.7041C-39.7604 26.7041 -37.9111 24.8548 -37.9111 22.3528C-37.9111 19.8508 -39.7604 18.0015 -42.2624 18.0015L-42.48 18.0015C-45.0908 18.0015 -46.6137 16.4785 -46.6137 13.8677L-46.6137 13.4326C-46.6137 10.8218 -45.0908 9.29882 -42.48 9.29882L-24.6396 9.29883C-22.0288 9.29883 -20.5058 10.8218 -20.5058 13.4326L-20.5058 13.8677C-20.5058 16.4785 -22.0288 18.0015 -24.6396 18.0015L-24.8571 18.0015C-27.3592 18.0015 -29.2085 19.8508 -29.2085 22.3528L-29.2085 22.5703C-29.2085 25.1811 -30.7314 26.7041 -33.3422 26.7041L-33.5598 26.7041C-36.0618 26.7041 -37.9111 28.5534 -37.9111 31.0554L-37.9111 48.4607C-37.9111 50.9627 -36.0618 52.812 -33.5598 52.812L-16.1545 52.812C-13.6525 52.812 -11.8032 50.9627 -11.8032 48.4607L-11.8032 39.5405C-11.8032 36.9297 -10.2802 35.4067 -7.66944 35.4067L-7.45187 35.4067C-4.94987 35.4067 -3.10056 33.5574 -3.10056 31.0554L-3.10056 22.1352C-3.10056 19.5244 -1.5776 18.0015 1.03319 18.0015L1.25075 18.0015C3.75276 18.0015 5.60207 16.1521 5.60207 13.6501L5.60207 13.4326C5.60207 10.8218 7.12503 9.29883 9.73582 9.29883L27.5762 9.29883C30.187 9.29883 31.71 10.8218 31.71 13.4326L31.71 13.6501C31.71 16.1521 33.5593 18.0015 36.0613 18.0015L36.2788 18.0015C38.8896 18.0015 40.4126 19.5244 40.4126 22.1352L40.4126 39.9756C40.4126 42.5864 38.8896 44.1094 36.2788 44.1094L36.0613 44.1094C33.5593 44.1094 31.71 45.9587 31.71 48.4607C31.71 50.9627 33.5593 52.812 36.0613 52.812L36.2788 52.812C38.8896 52.812 40.4126 54.3349 40.4126 56.9457Z" fill="#111111"/>
<path d="M180.369 74.559L180.369 74.9941C180.369 77.6049 178.846 79.1279 176.235 79.1279L158.395 79.1279C155.784 79.1279 154.261 77.6049 154.261 74.9941L154.261 74.559C154.261 71.9482 155.784 70.4253 158.395 70.4253L158.612 70.4253C161.114 70.4253 162.963 68.576 162.963 66.0739L162.963 65.8564C162.963 63.2456 164.486 61.7226 167.097 61.7226L167.315 61.7226C169.817 61.7226 171.666 59.8733 171.666 57.3713L171.666 39.9661C171.666 37.464 169.817 35.6147 167.315 35.6147L149.909 35.6147C147.407 35.6147 145.558 37.464 145.558 39.9661L145.558 48.8862C145.558 51.497 144.035 53.02 141.424 53.02L141.207 53.02C138.705 53.02 136.855 54.8693 136.855 57.3713L136.855 66.2915C136.855 68.9023 135.333 70.4253 132.722 70.4253L132.504 70.4253C130.002 70.4253 128.153 72.2746 128.153 74.7766L128.153 74.9941C128.153 77.6049 126.63 79.1279 124.019 79.1279L106.179 79.1279C103.568 79.1279 102.045 77.6049 102.045 74.9941L102.045 74.7766C102.045 72.2746 100.196 70.4253 97.6936 70.4253L97.4761 70.4253C94.8653 70.4253 93.3423 68.9023 93.3423 66.2915L93.3423 48.4511C93.3423 45.8403 94.8653 44.3174 97.4761 44.3174L97.6936 44.3174C100.196 44.3174 102.045 42.4681 102.045 39.9661C102.045 37.464 100.196 35.6147 97.6936 35.6147L97.4761 35.6147C94.8653 35.6147 93.3423 34.0918 93.3423 31.481L93.3423 31.0459C93.3423 28.4351 94.8653 26.9121 97.4761 26.9121L115.316 26.9121C117.927 26.9121 119.45 28.4351 119.45 31.0459L119.45 31.481C119.45 34.0918 117.927 35.6147 115.316 35.6147L115.099 35.6147C112.597 35.6147 110.748 37.464 110.748 39.9661L110.748 40.1836C110.748 42.7944 109.225 44.3174 106.614 44.3174L106.396 44.3174C103.894 44.3174 102.045 46.1667 102.045 48.6687L102.045 66.0739C102.045 68.576 103.894 70.4253 106.396 70.4253L123.802 70.4253C126.304 70.4253 128.153 68.576 128.153 66.0739L128.153 57.1537C128.153 54.543 129.676 53.02 132.287 53.02L132.504 53.02C135.006 53.02 136.855 51.1707 136.855 48.6687L136.855 39.7485C136.855 37.1377 138.378 35.6147 140.989 35.6147L141.207 35.6147C143.709 35.6147 145.558 33.7654 145.558 31.2634L145.558 31.0459C145.558 28.4351 147.081 26.9121 149.692 26.9121L167.532 26.9121C170.143 26.9121 171.666 28.4351 171.666 31.0459L171.666 31.2634C171.666 33.7654 173.515 35.6147 176.017 35.6147L176.235 35.6147C178.846 35.6147 180.369 37.1377 180.369 39.7485L180.369 57.5889C180.369 60.1997 178.846 61.7226 176.235 61.7226L176.017 61.7226C173.515 61.7226 171.666 63.5719 171.666 66.0739C171.666 68.576 173.515 70.4253 176.017 70.4253L176.235 70.4253C178.846 70.4253 180.369 71.9482 180.369 74.559Z" fill="#111111"/>
<path d="M320.325 92.1723L320.325 92.6074C320.325 95.2182 318.802 96.7412 316.191 96.7412L298.351 96.7412C295.74 96.7412 294.217 95.2182 294.217 92.6074L294.217 92.1723C294.217 89.5615 295.74 88.0385 298.351 88.0385L298.569 88.0385C301.071 88.0385 302.92 86.1892 302.92 83.6872L302.92 83.4697C302.92 80.8589 304.443 79.3359 307.054 79.3359L307.271 79.3359C309.773 79.3359 311.623 77.4866 311.623 74.9846L311.623 57.5793C311.623 55.0773 309.773 53.228 307.271 53.228L289.866 53.228C287.364 53.228 285.515 55.0773 285.515 57.5793L285.515 66.4995C285.515 69.1103 283.992 70.6333 281.381 70.6333L281.163 70.6333C278.661 70.6333 276.812 72.4826 276.812 74.9846L276.812 83.9048C276.812 86.5156 275.289 88.0385 272.678 88.0385L272.461 88.0385C269.959 88.0385 268.109 89.8879 268.109 92.3899L268.109 92.6074C268.109 95.2182 266.586 96.7412 263.976 96.7412L246.135 96.7412C243.524 96.7412 242.002 95.2182 242.002 92.6074L242.002 92.3899C242.002 89.8879 240.152 88.0385 237.65 88.0385L237.433 88.0385C234.822 88.0385 233.299 86.5156 233.299 83.9048L233.299 66.0644C233.299 63.4536 234.822 61.9306 237.433 61.9306L237.65 61.9306C240.152 61.9306 242.002 60.0813 242.002 57.5793C242.002 55.0773 240.152 53.228 237.65 53.228L237.433 53.228C234.822 53.228 233.299 51.7051 233.299 49.0943L233.299 48.6591C233.299 46.0483 234.822 44.5254 237.433 44.5254L255.273 44.5254C257.884 44.5254 259.407 46.0483 259.407 48.6591L259.407 49.0943C259.407 51.7051 257.884 53.228 255.273 53.228L255.055 53.228C252.553 53.228 250.704 55.0773 250.704 57.5793L250.704 57.7969C250.704 60.4077 249.181 61.9306 246.57 61.9306L246.353 61.9306C243.851 61.9306 242.002 63.78 242.002 66.282L242.002 83.6872C242.002 86.1892 243.851 88.0385 246.353 88.0385L263.758 88.0385C266.26 88.0385 268.109 86.1892 268.109 83.6872L268.109 74.767C268.109 72.1562 269.632 70.6333 272.243 70.6333L272.461 70.6333C274.963 70.6333 276.812 68.784 276.812 66.282L276.812 57.3618C276.812 54.751 278.335 53.228 280.946 53.228L281.163 53.228C283.665 53.228 285.515 51.3787 285.515 48.8767L285.515 48.6591C285.515 46.0483 287.038 44.5254 289.648 44.5254L307.489 44.5254C310.1 44.5254 311.623 46.0484 311.623 48.6591L311.623 48.8767C311.623 51.3787 313.472 53.228 315.974 53.228L316.191 53.228C318.802 53.228 320.325 54.751 320.325 57.3618L320.325 75.2022C320.325 77.813 318.802 79.3359 316.191 79.3359L315.974 79.3359C313.472 79.3359 311.623 81.1852 311.623 83.6872C311.623 86.1892 313.472 88.0385 315.974 88.0385L316.191 88.0385C318.802 88.0385 320.325 89.5615 320.325 92.1723Z" fill="#111111"/>
<path d="M36.502 43.9609L36.0669 43.9609C33.4561 43.9609 31.9331 42.438 31.9331 39.8272L31.9331 21.9868C31.9331 19.376 33.4561 17.853 36.0669 17.853L36.502 17.853C39.1128 17.853 40.6358 19.376 40.6358 21.9868L40.6358 22.2044C40.6358 24.7064 42.4851 26.5557 44.9871 26.5557L45.2047 26.5557C47.8154 26.5557 49.3384 28.0786 49.3384 30.6894L49.3384 30.907C49.3384 33.409 51.1877 35.2583 53.6897 35.2583L71.095 35.2583C73.597 35.2583 75.4463 33.409 75.4463 30.907L75.4463 13.5017C75.4463 10.9997 73.597 9.15041 71.095 9.15041L62.1748 9.15041C59.564 9.15041 58.041 7.62745 58.041 5.01666L58.041 4.79909C58.041 2.29709 56.1917 0.447778 53.6897 0.447778L44.7695 0.447777C42.1587 0.447777 40.6358 -1.07518 40.6358 -3.68597L40.6358 -3.90354C40.6358 -6.40555 38.7865 -8.25486 36.2845 -8.25486L36.0669 -8.25486C33.4561 -8.25486 31.9331 -9.77782 31.9331 -12.3886L31.9331 -30.229C31.9331 -32.8398 33.4561 -34.3628 36.0669 -34.3628L36.2845 -34.3628C38.7865 -34.3628 40.6358 -36.2121 40.6358 -38.7141L40.6358 -38.9316C40.6358 -41.5424 42.1587 -43.0654 44.7695 -43.0654L62.6099 -43.0654C65.2207 -43.0654 66.7437 -41.5424 66.7437 -38.9316L66.7437 -38.7141C66.7437 -36.2121 68.593 -34.3628 71.095 -34.3628C73.597 -34.3628 75.4463 -36.2121 75.4463 -38.7141L75.4463 -38.9316C75.4463 -41.5424 76.9693 -43.0654 79.5801 -43.0654L80.0152 -43.0654C82.626 -43.0654 84.1489 -41.5424 84.1489 -38.9316L84.1489 -21.0912C84.1489 -18.4804 82.626 -16.9575 80.0152 -16.9575L79.5801 -16.9575C76.9693 -16.9575 75.4463 -18.4805 75.4463 -21.0912L75.4463 -21.3088C75.4463 -23.8108 73.597 -25.6601 71.095 -25.6601L70.8774 -25.6601C68.2666 -25.6601 66.7437 -27.1831 66.7437 -29.7939L66.7437 -30.0114C66.7437 -32.5134 64.8944 -34.3628 62.3924 -34.3628L44.9871 -34.3628C42.4851 -34.3628 40.6358 -32.5134 40.6358 -30.0114L40.6358 -12.6062C40.6358 -10.1042 42.4851 -8.25486 44.9871 -8.25486L53.9073 -8.25486C56.5181 -8.25486 58.041 -6.73189 58.041 -4.1211L58.041 -3.90354C58.041 -1.40153 59.8903 0.447778 62.3924 0.447779L71.3125 0.447779C73.9233 0.44778 75.4463 1.97074 75.4463 4.58153L75.4463 4.79909C75.4463 7.3011 77.2956 9.15041 79.7976 9.15041L80.0152 9.15041C82.626 9.15041 84.1489 10.6734 84.1489 13.2842L84.1489 31.1246C84.1489 33.7353 82.626 35.2583 80.0152 35.2583L79.7976 35.2583C77.2956 35.2583 75.4463 37.1076 75.4463 39.6096L75.4463 39.8272C75.4463 42.438 73.9233 43.9609 71.3125 43.9609L53.4722 43.9609C50.8614 43.9609 49.3384 42.438 49.3384 39.8272L49.3384 39.6096C49.3384 37.1076 47.4891 35.2583 44.9871 35.2583C42.4851 35.2583 40.6358 37.1076 40.6358 39.6096L40.6358 39.8272C40.6358 42.438 39.1128 43.9609 36.502 43.9609Z" fill="#111111"/>
<path d="M176.458 61.5742L176.023 61.5742C173.412 61.5742 171.889 60.0513 171.889 57.4405L171.889 39.6001C171.889 36.9893 173.412 35.4663 176.023 35.4663L176.458 35.4663C179.069 35.4663 180.592 36.9893 180.592 39.6001L180.592 39.8176C180.592 42.3196 182.441 44.1689 184.943 44.1689L185.161 44.1689C187.772 44.1689 189.294 45.6919 189.294 48.3027L189.294 48.5203C189.294 51.0223 191.144 52.8716 193.646 52.8716L211.051 52.8716C213.553 52.8716 215.402 51.0223 215.402 48.5203L215.402 31.115C215.402 28.613 213.553 26.7637 211.051 26.7637L202.131 26.7637C199.52 26.7637 197.997 25.2407 197.997 22.6299L197.997 22.4124C197.997 19.9104 196.148 18.0611 193.646 18.0611L184.726 18.0611C182.115 18.0611 180.592 16.5381 180.592 13.9273L180.592 13.7097C180.592 11.2077 178.743 9.35842 176.241 9.35842L176.023 9.35842C173.412 9.35842 171.889 7.83546 171.889 5.22467L171.889 -12.6157C171.889 -15.2265 173.412 -16.7495 176.023 -16.7495L176.241 -16.7495C178.743 -16.7495 180.592 -18.5988 180.592 -21.1008L180.592 -21.3184C180.592 -23.9291 182.115 -25.4521 184.726 -25.4521L202.566 -25.4521C205.177 -25.4521 206.7 -23.9291 206.7 -21.3184L206.7 -21.1008C206.7 -18.5988 208.549 -16.7495 211.051 -16.7495C213.553 -16.7495 215.402 -18.5988 215.402 -21.1008L215.402 -21.3184C215.402 -23.9291 216.925 -25.4521 219.536 -25.4521L219.971 -25.4521C222.582 -25.4521 224.105 -23.9291 224.105 -21.3184L224.105 -3.47796C224.105 -0.867168 222.582 0.655796 219.971 0.655796L219.536 0.655796C216.925 0.655795 215.402 -0.867169 215.402 -3.47796L215.402 -3.69553C215.402 -6.19753 213.553 -8.04684 211.051 -8.04684L210.833 -8.04684C208.223 -8.04684 206.7 -9.5698 206.7 -12.1806L206.7 -12.3982C206.7 -14.9002 204.85 -16.7495 202.348 -16.7495L184.943 -16.7495C182.441 -16.7495 180.592 -14.9002 180.592 -12.3982L180.592 5.00711C180.592 7.50911 182.441 9.35842 184.943 9.35842L193.863 9.35842C196.474 9.35842 197.997 10.8814 197.997 13.4922L197.997 13.7097C197.997 16.2117 199.846 18.0611 202.348 18.0611L211.269 18.0611C213.879 18.0611 215.402 19.584 215.402 22.1948L215.402 22.4124C215.402 24.9144 217.252 26.7637 219.754 26.7637L219.971 26.7637C222.582 26.7637 224.105 28.2867 224.105 30.8974L224.105 48.7378C224.105 51.3486 222.582 52.8716 219.971 52.8716L219.754 52.8716C217.252 52.8716 215.402 54.7209 215.402 57.2229L215.402 57.4405C215.402 60.0513 213.879 61.5742 211.269 61.5742L193.428 61.5742C190.817 61.5742 189.294 60.0513 189.294 57.4405L189.294 57.2229C189.294 54.7209 187.445 52.8716 184.943 52.8716C182.441 52.8716 180.592 54.7209 180.592 57.2229L180.592 57.4405C180.592 60.0513 179.069 61.5742 176.458 61.5742Z" fill="#111111"/>
<path d="M316.415 79.1875L315.979 79.1875C313.369 79.1875 311.846 77.6645 311.846 75.0537L311.846 57.2134C311.846 54.6026 313.369 53.0796 315.979 53.0796L316.415 53.0796C319.025 53.0796 320.548 54.6026 320.548 57.2134L320.548 57.4309C320.548 59.9329 322.398 61.7822 324.9 61.7822L325.117 61.7822C327.728 61.7822 329.251 63.3052 329.251 65.916L329.251 66.1335C329.251 68.6356 331.1 70.4849 333.602 70.4849L351.008 70.4849C353.51 70.4849 355.359 68.6356 355.359 66.1336L355.359 48.7283C355.359 46.2263 353.51 44.377 351.008 44.377L342.087 44.377C339.477 44.377 337.954 42.854 337.954 40.2432L337.954 40.0257C337.954 37.5236 336.104 35.6743 333.602 35.6743L324.682 35.6743C322.071 35.6743 320.548 34.1514 320.548 31.5406L320.548 31.323C320.548 28.821 318.699 26.9717 316.197 26.9717L315.979 26.9717C313.369 26.9717 311.846 25.4487 311.846 22.838L311.846 4.99755C311.846 2.38677 313.369 0.863803 315.979 0.863803L316.197 0.863803C318.699 0.863804 320.548 -0.9855 320.548 -3.48751L320.548 -3.70507C320.548 -6.31587 322.071 -7.83883 324.682 -7.83882L342.523 -7.83882C345.133 -7.83882 346.656 -6.31587 346.656 -3.70507L346.656 -3.4875C346.656 -0.985498 348.506 0.863806 351.008 0.863807C353.51 0.863807 355.359 -0.985497 355.359 -3.4875L355.359 -3.70507C355.359 -6.31587 356.882 -7.83882 359.493 -7.83882L359.928 -7.83882C362.539 -7.83882 364.062 -6.31586 364.062 -3.70507L364.062 14.1353C364.062 16.7461 362.539 18.2691 359.928 18.2691L359.493 18.2691C356.882 18.2691 355.359 16.7461 355.359 14.1353L355.359 13.9178C355.359 11.4157 353.51 9.56644 351.008 9.56644L350.79 9.56644C348.179 9.56644 346.656 8.04348 346.656 5.43269L346.656 5.21512C346.656 2.71312 344.807 0.863806 342.305 0.863806L324.9 0.863804C322.398 0.863804 320.548 2.71312 320.548 5.21512L320.548 22.6204C320.548 25.1224 322.398 26.9717 324.9 26.9717L333.82 26.9717C336.431 26.9717 337.954 28.4947 337.954 31.1055L337.954 31.323C337.954 33.825 339.803 35.6743 342.305 35.6743L351.225 35.6743C353.836 35.6743 355.359 37.1973 355.359 39.8081L355.359 40.0257C355.359 42.5277 357.208 44.377 359.71 44.377L359.928 44.377C362.539 44.377 364.062 45.8999 364.062 48.5107L364.062 66.3511C364.062 68.9619 362.539 70.4849 359.928 70.4849L359.71 70.4849C357.208 70.4849 355.359 72.3342 355.359 74.8362L355.359 75.0537C355.359 77.6645 353.836 79.1875 351.225 79.1875L333.385 79.1875C330.774 79.1875 329.251 77.6645 329.251 75.0537L329.251 74.8362C329.251 72.3342 327.402 70.4849 324.9 70.4849C322.398 70.4849 320.548 72.3342 320.548 74.8362L320.548 75.0537C320.548 77.6645 319.025 79.1875 316.415 79.1875Z" fill="#111111"/>
<path d="M259.481 -47.0668L259.481 -47.502C259.481 -50.1127 261.004 -51.6357 263.615 -51.6357L281.455 -51.6357C284.066 -51.6357 285.589 -50.1127 285.589 -47.502L285.589 -47.0668C285.589 -44.456 284.066 -42.9331 281.455 -42.9331L281.238 -42.9331C278.736 -42.9331 276.886 -41.0838 276.886 -38.5818L276.886 -38.3642C276.886 -35.7534 275.363 -34.2304 272.752 -34.2304L272.535 -34.2304C270.033 -34.2304 268.184 -32.3811 268.184 -29.8791L268.184 -12.4739C268.184 -9.97186 270.033 -8.12255 272.535 -8.12255L289.94 -8.12255C292.442 -8.12255 294.291 -9.97186 294.291 -12.4739L294.291 -21.3941C294.291 -24.0049 295.814 -25.5278 298.425 -25.5278L298.643 -25.5278C301.145 -25.5278 302.994 -27.3771 302.994 -29.8791L302.994 -38.7993C302.994 -41.4101 304.517 -42.9331 307.128 -42.9331L307.345 -42.9331C309.847 -42.9331 311.697 -44.7824 311.697 -47.2844L311.697 -47.502C311.697 -50.1127 313.22 -51.6357 315.83 -51.6357L333.671 -51.6357C336.282 -51.6357 337.805 -50.1128 337.805 -47.502L337.805 -47.2844C337.805 -44.7824 339.654 -42.9331 342.156 -42.9331L342.374 -42.9331C344.984 -42.9331 346.507 -41.4101 346.507 -38.7993L346.507 -20.9589C346.507 -18.3481 344.984 -16.8252 342.374 -16.8252L342.156 -16.8252C339.654 -16.8252 337.805 -14.9759 337.805 -12.4739C337.805 -9.97187 339.654 -8.12256 342.156 -8.12256L342.374 -8.12256C344.984 -8.12256 346.507 -6.5996 346.507 -3.98881L346.507 -3.55368C346.507 -0.942886 344.984 0.580074 342.374 0.580075L324.533 0.580075C321.922 0.580075 320.399 -0.942885 320.399 -3.55367L320.399 -3.98881C320.399 -6.5996 321.922 -8.12256 324.533 -8.12256L324.751 -8.12256C327.253 -8.12256 329.102 -9.97186 329.102 -12.4739L329.102 -12.6914C329.102 -15.3022 330.625 -16.8252 333.236 -16.8252L333.453 -16.8252C335.955 -16.8252 337.805 -18.6745 337.805 -21.1765L337.805 -38.5818C337.805 -41.0838 335.955 -42.9331 333.453 -42.9331L316.048 -42.9331C313.546 -42.9331 311.697 -41.0838 311.697 -38.5818L311.697 -29.6616C311.697 -27.0508 310.174 -25.5278 307.563 -25.5278L307.345 -25.5278C304.843 -25.5278 302.994 -23.6785 302.994 -21.1765L302.994 -12.2563C302.994 -9.64551 301.471 -8.12255 298.86 -8.12255L298.643 -8.12255C296.141 -8.12255 294.291 -6.27325 294.291 -3.77124L294.291 -3.55367C294.291 -0.942884 292.769 0.580077 290.158 0.580077L272.317 0.580078C269.707 0.580078 268.184 -0.942883 268.184 -3.55367L268.184 -3.77124C268.184 -6.27324 266.334 -8.12255 263.832 -8.12255L263.615 -8.12255C261.004 -8.12255 259.481 -9.64551 259.481 -12.2563L259.481 -30.0967C259.481 -32.7075 261.004 -34.2304 263.615 -34.2304L263.832 -34.2304C266.334 -34.2304 268.184 -36.0798 268.184 -38.5818C268.184 -41.0838 266.334 -42.9331 263.832 -42.9331L263.615 -42.9331C261.004 -42.9331 259.481 -44.456 259.481 -47.0668Z" fill="#111111"/>
<path d="M-37.5684 57.6636L-37.5684 57.2285C-37.5684 54.6177 -36.0454 53.0948 -33.4346 53.0948L-15.5942 53.0948C-12.9834 53.0948 -11.4605 54.6177 -11.4605 57.2285L-11.4605 57.6636C-11.4605 60.2744 -12.9834 61.7974 -15.5942 61.7974L-15.8118 61.7974C-18.3138 61.7974 -20.1631 63.6467 -20.1631 66.1487L-20.1631 66.3663C-20.1631 68.9771 -21.6861 70.5 -24.2968 70.5L-24.5144 70.5C-27.0164 70.5 -28.8657 72.3493 -28.8657 74.8513L-28.8657 92.2566C-28.8657 94.7586 -27.0164 96.6079 -24.5144 96.6079L-7.10915 96.6079C-4.60714 96.6079 -2.75783 94.7586 -2.75783 92.2566L-2.75783 83.3364C-2.75783 80.7256 -1.23487 79.2027 1.37591 79.2027L1.59349 79.2027C4.09549 79.2027 5.9448 77.3533 5.9448 74.8513L5.9448 65.9311C5.9448 63.3204 7.46776 61.7974 10.0785 61.7974L10.2961 61.7974C12.7981 61.7974 14.6474 59.9481 14.6474 57.4461L14.6474 57.2285C14.6474 54.6177 16.1704 53.0948 18.7812 53.0948L36.6216 53.0948C39.2324 53.0948 40.7553 54.6177 40.7553 57.2285L40.7553 57.4461C40.7553 59.9481 42.6046 61.7974 45.1066 61.7974L45.3242 61.7974C47.935 61.7974 49.458 63.3204 49.458 65.9311L49.458 83.7715C49.458 86.3823 47.935 87.9053 45.3242 87.9053L45.1066 87.9053C42.6046 87.9053 40.7553 89.7546 40.7553 92.2566C40.7553 94.7586 42.6046 96.6079 45.1066 96.6079L45.3242 96.6079C47.935 96.6079 49.458 98.1309 49.458 100.742L49.458 101.177C49.458 103.788 47.935 105.311 45.3242 105.311L27.4838 105.311C24.873 105.311 23.3501 103.788 23.3501 101.177L23.3501 100.742C23.3501 98.1309 24.873 96.6079 27.4838 96.6079L27.7014 96.6079C30.2034 96.6079 32.0527 94.7586 32.0527 92.2566L32.0527 92.039C32.0527 89.4282 33.5757 87.9053 36.1864 87.9053L36.404 87.9053C38.906 87.9053 40.7553 86.056 40.7553 83.554L40.7553 66.1487C40.7553 63.6467 38.906 61.7974 36.404 61.7974L18.9987 61.7974C16.4967 61.7974 14.6474 63.6467 14.6474 66.1487L14.6474 75.0689C14.6474 77.6797 13.1245 79.2027 10.5137 79.2027L10.2961 79.2027C7.79411 79.2027 5.9448 81.052 5.9448 83.554L5.9448 92.4742C5.9448 95.085 4.42184 96.6079 1.81105 96.6079L1.59349 96.6079C-0.908524 96.6079 -2.75783 98.4572 -2.75783 100.959L-2.75783 101.177C-2.75783 103.788 -4.28079 105.311 -6.89158 105.311L-24.732 105.311C-27.3428 105.311 -28.8657 103.788 -28.8657 101.177L-28.8657 100.959C-28.8657 98.4572 -30.715 96.6079 -33.217 96.6079L-33.4346 96.6079C-36.0454 96.6079 -37.5684 95.085 -37.5684 92.4742L-37.5684 74.6338C-37.5684 72.023 -36.0454 70.5 -33.4346 70.5L-33.217 70.5C-30.715 70.5 -28.8657 68.6507 -28.8657 66.1487C-28.8657 63.6467 -30.715 61.7974 -33.217 61.7974L-33.4346 61.7974C-36.0454 61.7974 -37.5684 60.2744 -37.5684 57.6636Z" fill="#111111"/>
<path d="M102.388 75.2769L102.388 74.8418C102.388 72.231 103.911 70.708 106.521 70.708L124.362 70.708C126.973 70.708 128.496 72.231 128.496 74.8418L128.496 75.2769C128.496 77.8877 126.973 79.4107 124.362 79.4107L124.144 79.4107C121.642 79.4107 119.793 81.26 119.793 83.762L119.793 83.9796C119.793 86.5903 118.27 88.1133 115.659 88.1133L115.442 88.1133C112.94 88.1133 111.09 89.9626 111.09 92.4646L111.09 109.87C111.09 112.372 112.94 114.221 115.442 114.221L132.847 114.221C135.349 114.221 137.198 112.372 137.198 109.87L137.198 100.95C137.198 98.3389 138.721 96.8159 141.332 96.8159L141.55 96.8159C144.052 96.8159 145.901 94.9666 145.901 92.4646L145.901 83.5444C145.901 80.9336 147.424 79.4107 150.035 79.4107L150.252 79.4107C152.754 79.4107 154.603 77.5614 154.603 75.0594L154.603 74.8418C154.603 72.231 156.126 70.708 158.737 70.708L176.578 70.708C179.188 70.708 180.711 72.231 180.711 74.8418L180.711 75.0594C180.711 77.5614 182.561 79.4107 185.063 79.4107L185.28 79.4107C187.891 79.4107 189.414 80.9336 189.414 83.5444L189.414 101.385C189.414 103.996 187.891 105.519 185.28 105.519L185.063 105.519C182.561 105.519 180.711 107.368 180.711 109.87C180.711 112.372 182.561 114.221 185.063 114.221L185.28 114.221C187.891 114.221 189.414 115.744 189.414 118.355L189.414 118.79C189.414 121.401 187.891 122.924 185.28 122.924L167.44 122.924C164.829 122.924 163.306 121.401 163.306 118.79L163.306 118.355C163.306 115.744 164.829 114.221 167.44 114.221L167.657 114.221C170.159 114.221 172.009 112.372 172.009 109.87L172.009 109.652C172.009 107.042 173.532 105.519 176.143 105.519L176.36 105.519C178.862 105.519 180.711 103.669 180.711 101.167L180.711 83.762C180.711 81.26 178.862 79.4107 176.36 79.4107L158.955 79.4107C156.453 79.4107 154.603 81.26 154.603 83.762L154.603 92.6822C154.603 95.293 153.081 96.8159 150.47 96.8159L150.252 96.8159C147.75 96.8159 145.901 98.6652 145.901 101.167L145.901 110.087C145.901 112.698 144.378 114.221 141.767 114.221L141.55 114.221C139.048 114.221 137.198 116.071 137.198 118.573L137.198 118.79C137.198 121.401 135.675 122.924 133.064 122.924L115.224 122.924C112.613 122.924 111.09 121.401 111.09 118.79L111.09 118.573C111.09 116.071 109.241 114.221 106.739 114.221L106.521 114.221C103.911 114.221 102.388 112.698 102.388 110.087L102.388 92.2471C102.388 89.6363 103.911 88.1133 106.521 88.1133L106.739 88.1133C109.241 88.1133 111.09 86.264 111.09 83.762C111.09 81.26 109.241 79.4107 106.739 79.4107L106.521 79.4107C103.911 79.4107 102.388 77.8877 102.388 75.2769Z" fill="#111111"/>
<path d="M403.286 -16.4062H403.721C406.332 -16.4062 407.855 -14.8833 407.855 -12.2725V5.56789C407.855 8.17868 406.332 9.70164 403.721 9.70164H403.286C400.675 9.70164 399.152 8.17868 399.152 5.56789V5.35032C399.152 2.84832 397.303 0.999016 394.801 0.999016H394.583C391.973 0.999016 390.45 -0.523948 390.45 -3.13473V-3.3523C390.45 -5.85431 388.6 -7.70362 386.098 -7.70362H368.693C366.191 -7.70362 364.342 -5.85431 364.342 -3.3523V14.053C364.342 16.555 366.191 18.4043 368.693 18.4043H377.613C380.224 18.4043 381.747 19.9272 381.747 22.538V22.7556C381.747 25.2576 383.596 27.1069 386.098 27.1069H395.019C397.629 27.1069 399.152 28.6299 399.152 31.2407V31.4582C399.152 33.9602 401.002 35.8095 403.504 35.8095H403.721C406.332 35.8095 407.855 37.3325 407.855 39.9433V57.7837C407.855 60.3945 406.332 61.9174 403.721 61.9174H403.504C401.002 61.9174 399.152 63.7667 399.152 66.2688V66.4863C399.152 69.0971 397.629 70.6201 395.019 70.6201H377.178C374.567 70.6201 373.044 69.0971 373.044 66.4863V66.2688C373.044 63.7667 371.195 61.9174 368.693 61.9174C366.191 61.9174 364.342 63.7667 364.342 66.2688V66.4863C364.342 69.0971 362.819 70.6201 360.208 70.6201H359.773C357.162 70.6201 355.639 69.0971 355.639 66.4863V48.6459C355.639 46.0351 357.162 44.5122 359.773 44.5122H360.208C362.819 44.5122 364.342 46.0351 364.342 48.6459V48.8635C364.342 51.3655 366.191 53.2148 368.693 53.2148H368.911C371.521 53.2148 373.044 54.7378 373.044 57.3486V57.5661C373.044 60.0681 374.894 61.9174 377.396 61.9174H394.801C397.303 61.9174 399.152 60.0681 399.152 57.5661V40.1609C399.152 37.6589 397.303 35.8095 394.801 35.8095H385.881C383.27 35.8095 381.747 34.2866 381.747 31.6758V31.4582C381.747 28.9562 379.898 27.1069 377.396 27.1069H368.476C365.865 27.1069 364.342 25.5839 364.342 22.9732V22.7556C364.342 20.2536 362.492 18.4043 359.99 18.4043H359.773C357.162 18.4043 355.639 16.8813 355.639 14.2705V-3.56986C355.639 -6.18066 357.162 -7.70362 359.773 -7.70362H359.99C362.492 -7.70362 364.342 -9.55293 364.342 -12.0549V-12.2725C364.342 -14.8833 365.865 -16.4062 368.476 -16.4062H386.316C388.927 -16.4062 390.45 -14.8833 390.45 -12.2725V-12.0549C390.45 -9.55293 392.299 -7.70362 394.801 -7.70362C397.303 -7.70362 399.152 -9.55293 399.152 -12.0549V-12.2725C399.152 -14.8833 400.675 -16.4062 403.286 -16.4062Z" fill="#111111"/>
<path d="M543.242 1.20703H543.677C546.288 1.20703 547.811 2.72999 547.811 5.34078V23.1812C547.811 25.792 546.288 27.3149 543.677 27.3149H543.242C540.631 27.3149 539.108 25.792 539.108 23.1812V22.9636C539.108 20.4616 537.259 18.6123 534.757 18.6123H534.539C531.929 18.6123 530.406 17.0893 530.406 14.4785V14.261C530.406 11.759 528.556 9.90966 526.054 9.90966H508.649C506.147 9.90966 504.298 11.759 504.298 14.261V31.6662C504.298 34.1682 506.147 36.0176 508.649 36.0176H517.569C520.18 36.0176 521.703 37.5405 521.703 40.1513V40.3689C521.703 42.8709 523.552 44.7202 526.054 44.7202H534.975C537.585 44.7202 539.108 46.2431 539.108 48.8539V49.0715C539.108 51.5735 540.958 53.4228 543.46 53.4228H543.677C546.288 53.4228 547.811 54.9458 547.811 57.5566V75.397C547.811 78.0078 546.288 79.5307 543.677 79.5307H543.46C540.958 79.5307 539.108 81.38 539.108 83.882V84.0996C539.108 86.7104 537.585 88.2334 534.975 88.2334H517.134C514.523 88.2334 513 86.7104 513 84.0996V83.882C513 81.38 511.151 79.5307 508.649 79.5307C506.147 79.5307 504.298 81.38 504.298 83.882V84.0996C504.298 86.7104 502.775 88.2334 500.164 88.2334H499.729C497.118 88.2334 495.595 86.7104 495.595 84.0996V66.2592C495.595 63.6484 497.118 62.1255 499.729 62.1255H500.164C502.775 62.1255 504.298 63.6484 504.298 66.2592V66.4768C504.298 68.9788 506.147 70.8281 508.649 70.8281H508.867C511.478 70.8281 513 72.3511 513 74.9618V75.1794C513 77.6814 514.85 79.5307 517.352 79.5307H534.757C537.259 79.5307 539.108 77.6814 539.108 75.1794V57.7741C539.108 55.2721 537.259 53.4228 534.757 53.4228H525.837C523.226 53.4228 521.703 51.8999 521.703 49.2891V49.0715C521.703 46.5695 519.854 44.7202 517.352 44.7202H508.432C505.821 44.7202 504.298 43.1972 504.298 40.5864V40.3689C504.298 37.8669 502.449 36.0176 499.947 36.0176H499.729C497.118 36.0176 495.595 34.4946 495.595 31.8838V14.0434C495.595 11.4326 497.118 9.90966 499.729 9.90966H499.947C502.449 9.90966 504.298 8.06036 504.298 5.55835V5.34078C504.298 2.72999 505.821 1.20703 508.432 1.20703H526.272C528.883 1.20703 530.406 2.72999 530.406 5.34078V5.55835C530.406 8.06036 532.255 9.90966 534.757 9.90966C537.259 9.90966 539.108 8.06036 539.108 5.55835V5.34078C539.108 2.72999 540.631 1.20703 543.242 1.20703Z" fill="#111111"/>
<path d="M683.198 18.8203H683.633C686.244 18.8203 687.767 20.3433 687.767 22.9541V40.7945C687.767 43.4052 686.244 44.9282 683.633 44.9282H683.198C680.587 44.9282 679.064 43.4052 679.064 40.7945V40.5769C679.064 38.0749 677.215 36.2256 674.713 36.2256H674.496C671.885 36.2256 670.362 34.7026 670.362 32.0918V31.8743C670.362 29.3723 668.512 27.5229 666.01 27.5229H648.605C646.103 27.5229 644.254 29.3723 644.254 31.8743V49.2795C644.254 51.7815 646.103 53.6308 648.605 53.6308H657.525C660.136 53.6308 661.659 55.1538 661.659 57.7646V57.9822C661.659 60.4842 663.508 62.3335 666.01 62.3335H674.931C677.541 62.3335 679.064 63.8564 679.064 66.4672V66.6848C679.064 69.1868 680.914 71.0361 683.416 71.0361H683.633C686.244 71.0361 687.767 72.5591 687.767 75.1699V93.0103C687.767 95.621 686.244 97.144 683.633 97.144H683.416C680.914 97.144 679.064 98.9933 679.064 101.495V101.713C679.064 104.324 677.541 105.847 674.931 105.847H657.09C654.479 105.847 652.957 104.324 652.957 101.713V101.495C652.957 98.9933 651.107 97.144 648.605 97.144C646.103 97.144 644.254 98.9933 644.254 101.495V101.713C644.254 104.324 642.731 105.847 640.12 105.847H639.685C637.074 105.847 635.551 104.324 635.551 101.713V83.8725C635.551 81.2617 637.074 79.7387 639.685 79.7387H640.12C642.731 79.7387 644.254 81.2617 644.254 83.8725V84.0901C644.254 86.5921 646.103 88.4414 648.605 88.4414H648.823C651.434 88.4414 652.957 89.9643 652.957 92.5751V92.7927C652.957 95.2947 654.806 97.144 657.308 97.144H674.713C677.215 97.144 679.064 95.2947 679.064 92.7927V75.3874C679.064 72.8854 677.215 71.0361 674.713 71.0361H665.793C663.182 71.0361 661.659 69.5131 661.659 66.9024V66.6848C661.659 64.1828 659.81 62.3335 657.308 62.3335H648.388C645.777 62.3335 644.254 60.8105 644.254 58.1997V57.9822C644.254 55.4801 642.405 53.6308 639.903 53.6308H639.685C637.074 53.6308 635.551 52.1079 635.551 49.4971V31.6567C635.551 29.0459 637.074 27.5229 639.685 27.5229H639.903C642.405 27.5229 644.254 25.6736 644.254 23.1716V22.9541C644.254 20.3433 645.777 18.8203 648.388 18.8203H666.228C668.839 18.8203 670.362 20.3433 670.362 22.9541V23.1716C670.362 25.6736 672.211 27.5229 674.713 27.5229C677.215 27.5229 679.064 25.6736 679.064 23.1716V22.9541C679.064 20.3433 680.587 18.8203 683.198 18.8203Z" fill="#111111"/>
<path d="M460.279 109.788L460.279 110.223C460.279 112.833 458.756 114.356 456.145 114.356L438.305 114.356C435.694 114.356 434.171 112.833 434.171 110.223L434.171 109.788C434.171 107.177 435.694 105.654 438.305 105.654L438.522 105.654C441.024 105.654 442.874 103.804 442.874 101.302L442.874 101.085C442.874 98.4741 444.397 96.9511 447.007 96.9511L447.225 96.9511C449.727 96.9511 451.576 95.1018 451.576 92.5998L451.576 75.1946C451.576 72.6926 449.727 70.8433 447.225 70.8433L429.82 70.8433C427.318 70.8433 425.468 72.6926 425.468 75.1946L425.468 84.1148C425.468 86.7256 423.945 88.2485 421.335 88.2485L421.117 88.2485C418.615 88.2485 416.766 90.0978 416.766 92.5998L416.766 101.52C416.766 104.131 415.243 105.654 412.632 105.654L412.414 105.654C409.912 105.654 408.063 107.503 408.063 110.005L408.063 110.223C408.063 112.833 406.54 114.356 403.929 114.356L386.089 114.356C383.478 114.356 381.955 112.833 381.955 110.223L381.955 110.005C381.955 107.503 380.106 105.654 377.604 105.654L377.386 105.654C374.775 105.654 373.252 104.131 373.252 101.52L373.252 83.6796C373.252 81.0688 374.775 79.5459 377.386 79.5459L377.604 79.5459C380.106 79.5459 381.955 77.6966 381.955 75.1946C381.955 72.6926 380.106 70.8433 377.604 70.8433L377.386 70.8433C374.775 70.8433 373.252 69.3203 373.252 66.7095L373.252 66.2744C373.252 63.6636 374.775 62.1406 377.386 62.1406L395.227 62.1406C397.837 62.1406 399.36 63.6636 399.36 66.2744L399.36 66.7095C399.36 69.3203 397.837 70.8433 395.227 70.8433L395.009 70.8433C392.507 70.8433 390.658 72.6926 390.658 75.1946L390.658 75.4121C390.658 78.0229 389.135 79.5459 386.524 79.5459L386.306 79.5459C383.804 79.5459 381.955 81.3952 381.955 83.8972L381.955 101.302C381.955 103.804 383.804 105.654 386.306 105.654L403.712 105.654C406.214 105.654 408.063 103.804 408.063 101.302L408.063 92.3823C408.063 89.7715 409.586 88.2485 412.197 88.2485L412.414 88.2485C414.916 88.2485 416.766 86.3992 416.766 83.8972L416.766 74.977C416.766 72.3662 418.289 70.8433 420.899 70.8433L421.117 70.8433C423.619 70.8433 425.468 68.9939 425.468 66.4919L425.468 66.2744C425.468 63.6636 426.991 62.1406 429.602 62.1406L447.442 62.1406C450.053 62.1406 451.576 63.6636 451.576 66.2744L451.576 66.4919C451.576 68.9939 453.425 70.8433 455.927 70.8433L456.145 70.8433C458.756 70.8433 460.279 72.3662 460.279 74.977L460.279 92.8174C460.279 95.4282 458.756 96.9511 456.145 96.9511L455.927 96.9511C453.425 96.9511 451.576 98.8005 451.576 101.302C451.576 103.804 453.425 105.654 455.927 105.654L456.145 105.654C458.756 105.654 460.279 107.177 460.279 109.788Z" fill="#111111"/>
<path d="M600.235 127.401L600.235 127.836C600.235 130.447 598.712 131.97 596.101 131.97L578.261 131.97C575.65 131.97 574.127 130.447 574.127 127.836L574.127 127.401C574.127 124.79 575.65 123.267 578.261 123.267L578.478 123.267C580.98 123.267 582.83 121.418 582.83 118.916L582.83 118.698C582.83 116.087 584.353 114.564 586.963 114.564L587.181 114.564C589.683 114.564 591.532 112.715 591.532 110.213L591.532 92.8079C591.532 90.3058 589.683 88.4565 587.181 88.4565L569.776 88.4565C567.274 88.4565 565.424 90.3058 565.424 92.8079L565.424 101.728C565.424 104.339 563.901 105.862 561.291 105.862L561.073 105.862C558.571 105.862 556.722 107.711 556.722 110.213L556.722 119.133C556.722 121.744 555.199 123.267 552.588 123.267L552.37 123.267C549.868 123.267 548.019 125.116 548.019 127.618L548.019 127.836C548.019 130.447 546.496 131.97 543.885 131.97L526.045 131.97C523.434 131.97 521.911 130.447 521.911 127.836L521.911 127.618C521.911 125.116 520.062 123.267 517.56 123.267L517.342 123.267C514.731 123.267 513.209 121.744 513.209 119.133L513.209 101.293C513.209 98.6821 514.731 97.1592 517.342 97.1592L517.56 97.1592C520.062 97.1592 521.911 95.3099 521.911 92.8079C521.911 90.3058 520.062 88.4565 517.56 88.4565L517.342 88.4565C514.731 88.4565 513.209 86.9336 513.209 84.3228L513.209 83.8877C513.209 81.2769 514.731 79.7539 517.342 79.7539L535.183 79.7539C537.793 79.7539 539.316 81.2769 539.316 83.8877L539.316 84.3228C539.316 86.9336 537.793 88.4565 535.183 88.4565L534.965 88.4565C532.463 88.4565 530.614 90.3058 530.614 92.8079L530.614 93.0254C530.614 95.6362 529.091 97.1592 526.48 97.1592L526.262 97.1592C523.76 97.1592 521.911 99.0085 521.911 101.51L521.911 118.916C521.911 121.418 523.76 123.267 526.262 123.267L543.668 123.267C546.17 123.267 548.019 121.418 548.019 118.916L548.019 109.996C548.019 107.385 549.542 105.862 552.153 105.862L552.37 105.862C554.872 105.862 556.722 104.012 556.722 101.51L556.722 92.5903C556.722 89.9795 558.245 88.4565 560.855 88.4565L561.073 88.4565C563.575 88.4565 565.424 86.6072 565.424 84.1052L565.424 83.8877C565.424 81.2769 566.947 79.7539 569.558 79.7539L587.398 79.7539C590.009 79.7539 591.532 81.2769 591.532 83.8877L591.532 84.1052C591.532 86.6072 593.382 88.4565 595.884 88.4565L596.101 88.4565C598.712 88.4565 600.235 89.9795 600.235 92.5903L600.235 110.431C600.235 113.041 598.712 114.564 596.101 114.564L595.884 114.564C593.382 114.564 591.532 116.414 591.532 118.916C591.532 121.418 593.382 123.267 595.884 123.267L596.101 123.267C598.712 123.267 600.235 124.79 600.235 127.401Z" fill="#111111"/>
<path d="M456.368 96.8027L455.933 96.8027C453.322 96.8027 451.799 95.2798 451.799 92.669L451.799 74.8286C451.799 72.2178 453.322 70.6948 455.933 70.6948L456.368 70.6948C458.979 70.6948 460.502 72.2178 460.502 74.8286L460.502 75.0462C460.502 77.5482 462.351 79.3975 464.853 79.3975L465.071 79.3975C467.682 79.3975 469.205 80.9204 469.205 83.5312L469.205 83.7488C469.205 86.2508 471.054 88.1001 473.556 88.1001L490.961 88.1001C493.463 88.1001 495.313 86.2508 495.313 83.7488L495.313 66.3435C495.313 63.8415 493.463 61.9922 490.961 61.9922L482.041 61.9922C479.43 61.9922 477.907 60.4692 477.907 57.8585L477.907 57.6409C477.907 55.1389 476.058 53.2896 473.556 53.2896L464.636 53.2896C462.025 53.2896 460.502 51.7666 460.502 49.1558L460.502 48.9383C460.502 46.4362 458.653 44.5869 456.151 44.5869L455.933 44.5869C453.322 44.5869 451.799 43.064 451.799 40.4532L451.799 22.6128C451.799 20.002 453.322 18.479 455.933 18.479L456.151 18.479C458.653 18.479 460.502 16.6297 460.502 14.1277L460.502 13.9102C460.502 11.2994 462.025 9.77641 464.636 9.77641L482.476 9.77641C485.087 9.77641 486.61 11.2994 486.61 13.9102L486.61 14.1277C486.61 16.6297 488.459 18.479 490.961 18.479C493.463 18.479 495.313 16.6297 495.313 14.1277L495.313 13.9102C495.313 11.2994 496.835 9.77641 499.446 9.77641L499.881 9.77641C502.492 9.77641 504.015 11.2994 504.015 13.9102L504.015 31.7506C504.015 34.3613 502.492 35.8843 499.881 35.8843L499.446 35.8843C496.835 35.8843 495.313 34.3613 495.313 31.7506L495.313 31.533C495.313 29.031 493.463 27.1817 490.961 27.1817L490.744 27.1817C488.133 27.1817 486.61 25.6587 486.61 23.0479L486.61 22.8304C486.61 20.3284 484.761 18.479 482.259 18.479L464.853 18.479C462.351 18.479 460.502 20.3284 460.502 22.8304L460.502 40.2356C460.502 42.7376 462.351 44.5869 464.853 44.5869L473.774 44.5869C476.384 44.5869 477.907 46.1099 477.907 48.7207L477.907 48.9383C477.907 51.4403 479.757 53.2896 482.259 53.2896L491.179 53.2896C493.79 53.2896 495.313 54.8125 495.313 57.4233L495.313 57.6409C495.313 60.1429 497.162 61.9922 499.664 61.9922L499.881 61.9922C502.492 61.9922 504.015 63.5152 504.015 66.126L504.015 83.9663C504.015 86.5771 502.492 88.1001 499.881 88.1001L499.664 88.1001C497.162 88.1001 495.313 89.9494 495.313 92.4514L495.313 92.669C495.313 95.2798 493.79 96.8027 491.179 96.8027L473.338 96.8027C470.728 96.8027 469.205 95.2798 469.205 92.669L469.205 92.4514C469.205 89.9494 467.355 88.1001 464.853 88.1001C462.351 88.1001 460.502 89.9494 460.502 92.4514L460.502 92.669C460.502 95.2798 458.979 96.8027 456.368 96.8027Z" fill="#111111"/>
<path d="M596.324 114.416L595.889 114.416C593.278 114.416 591.755 112.893 591.755 110.282L591.755 92.4419C591.755 89.8311 593.278 88.3081 595.889 88.3081L596.324 88.3081C598.935 88.3081 600.458 89.8311 600.458 92.4419L600.458 92.6594C600.458 95.1614 602.307 97.0107 604.809 97.0107L605.027 97.0107C607.638 97.0107 609.161 98.5337 609.161 101.144L609.161 101.362C609.161 103.864 611.01 105.713 613.512 105.713L630.917 105.713C633.419 105.713 635.269 103.864 635.269 101.362L635.269 83.9568C635.269 81.4548 633.419 79.6055 630.917 79.6055L621.997 79.6055C619.386 79.6055 617.863 78.0825 617.863 75.4717L617.863 75.2542C617.863 72.7522 616.014 70.9029 613.512 70.9029L604.592 70.9029C601.981 70.9029 600.458 69.3799 600.458 66.7691L600.458 66.5515C600.458 64.0495 598.609 62.2002 596.107 62.2002L595.889 62.2002C593.278 62.2002 591.755 60.6773 591.755 58.0665L591.755 40.2261C591.755 37.6153 593.278 36.0923 595.889 36.0923L596.107 36.0923C598.609 36.0923 600.458 34.243 600.458 31.741L600.458 31.5234C600.458 28.9126 601.981 27.3897 604.592 27.3897L622.432 27.3897C625.043 27.3897 626.566 28.9126 626.566 31.5234L626.566 31.741C626.566 34.243 628.415 36.0923 630.917 36.0923C633.419 36.0923 635.269 34.243 635.269 31.741L635.269 31.5234C635.269 28.9127 636.792 27.3897 639.402 27.3897L639.837 27.3897C642.448 27.3897 643.971 28.9127 643.971 31.5234L643.971 49.3638C643.971 51.9746 642.448 53.4976 639.837 53.4976L639.402 53.4976C636.792 53.4976 635.269 51.9746 635.269 49.3638L635.269 49.1463C635.269 46.6443 633.419 44.795 630.917 44.795L630.7 44.795C628.089 44.795 626.566 43.272 626.566 40.6612L626.566 40.4436C626.566 37.9416 624.717 36.0923 622.215 36.0923L604.809 36.0923C602.307 36.0923 600.458 37.9416 600.458 40.4436L600.458 57.8489C600.458 60.3509 602.307 62.2002 604.809 62.2002L613.73 62.2002C616.34 62.2002 617.863 63.7232 617.863 66.334L617.863 66.5515C617.863 69.0535 619.713 70.9029 622.215 70.9029L631.135 70.9029C633.746 70.9029 635.269 72.4258 635.269 75.0366L635.269 75.2542C635.269 77.7562 637.118 79.6055 639.62 79.6055L639.837 79.6055C642.448 79.6055 643.971 81.1284 643.971 83.7392L643.971 101.58C643.971 104.19 642.448 105.713 639.837 105.713L639.62 105.713C637.118 105.713 635.269 107.563 635.269 110.065L635.269 110.282C635.269 112.893 633.746 114.416 631.135 114.416L613.294 114.416C610.684 114.416 609.161 112.893 609.161 110.282L609.161 110.065C609.161 107.563 607.311 105.713 604.809 105.713C602.307 105.713 600.458 107.563 600.458 110.065L600.458 110.282C600.458 112.893 598.935 114.416 596.324 114.416Z" fill="#111111"/>
<path d="M399.435 -29.4516L399.435 -29.8867C399.435 -32.4975 400.958 -34.0205 403.569 -34.0205L421.409 -34.0205C424.02 -34.0205 425.543 -32.4975 425.543 -29.8867L425.543 -29.4516C425.543 -26.8408 424.02 -25.3178 421.409 -25.3178L421.192 -25.3178C418.69 -25.3178 416.84 -23.4685 416.84 -20.9665L416.84 -20.749C416.84 -18.1382 415.317 -16.6152 412.707 -16.6152L412.489 -16.6152C409.987 -16.6152 408.138 -14.7659 408.138 -12.2639L408.138 5.14136C408.138 7.64337 409.987 9.49268 412.489 9.49268L429.894 9.49268C432.396 9.49268 434.246 7.64337 434.246 5.14136L434.246 -3.77883C434.246 -6.38962 435.769 -7.91258 438.379 -7.91258L438.597 -7.91258C441.099 -7.91258 442.948 -9.76189 442.948 -12.2639L442.948 -21.1841C442.948 -23.7949 444.471 -25.3178 447.082 -25.3178L447.3 -25.3178C449.802 -25.3178 451.651 -27.1672 451.651 -29.6692L451.651 -29.8867C451.651 -32.4975 453.174 -34.0205 455.785 -34.0205L473.625 -34.0205C476.236 -34.0205 477.759 -32.4975 477.759 -29.8867L477.759 -29.6692C477.759 -27.1672 479.608 -25.3178 482.11 -25.3178L482.328 -25.3178C484.938 -25.3178 486.461 -23.7949 486.461 -21.1841L486.461 -3.3437C486.461 -0.732914 484.938 0.790049 482.328 0.790049L482.11 0.790049C479.608 0.790049 477.759 2.63936 477.759 5.14136C477.759 7.64337 479.608 9.49268 482.11 9.49268L482.328 9.49268C484.938 9.49268 486.461 11.0156 486.461 13.6264L486.461 14.0616C486.461 16.6723 484.938 18.1953 482.328 18.1953L464.487 18.1953C461.876 18.1953 460.353 16.6723 460.353 14.0616L460.353 13.6264C460.353 11.0156 461.876 9.49268 464.487 9.49268L464.705 9.49268C467.207 9.49268 469.056 7.64337 469.056 5.14136L469.056 4.9238C469.056 2.31301 470.579 0.790049 473.19 0.790049L473.407 0.790049C475.909 0.790049 477.759 -1.05926 477.759 -3.56127L477.759 -20.9665C477.759 -23.4685 475.909 -25.3178 473.407 -25.3178L456.002 -25.3178C453.5 -25.3178 451.651 -23.4685 451.651 -20.9665L451.651 -12.0463C451.651 -9.43554 450.128 -7.91258 447.517 -7.91258L447.3 -7.91258C444.798 -7.91258 442.948 -6.06327 442.948 -3.56127L442.948 5.35893C442.948 7.96972 441.425 9.49268 438.814 9.49268L438.597 9.49268C436.095 9.49268 434.246 11.342 434.246 13.844L434.246 14.0616C434.246 16.6724 432.723 18.1953 430.112 18.1953L412.271 18.1953C409.661 18.1953 408.138 16.6724 408.138 14.0616L408.138 13.844C408.138 11.342 406.288 9.49268 403.786 9.49268L403.569 9.49268C400.958 9.49268 399.435 7.96972 399.435 5.35893L399.435 -12.4815C399.435 -15.0923 400.958 -16.6152 403.569 -16.6152L403.786 -16.6152C406.288 -16.6152 408.138 -18.4645 408.138 -20.9665C408.138 -23.4685 406.288 -25.3178 403.786 -25.3178L403.569 -25.3178C400.958 -25.3178 399.435 -26.8408 399.435 -29.4516Z" fill="#111111"/>
<path d="M539.391 -11.8383L539.391 -12.2734C539.391 -14.8842 540.914 -16.4072 543.525 -16.4072L561.365 -16.4072C563.976 -16.4072 565.499 -14.8842 565.499 -12.2734L565.499 -11.8383C565.499 -9.22752 563.976 -7.70456 561.365 -7.70456L561.148 -7.70456C558.646 -7.70456 556.796 -5.85525 556.796 -3.35324L556.796 -3.13568C556.796 -0.524888 555.273 0.998069 552.663 0.998069L552.445 0.998069C549.943 0.998069 548.094 2.84738 548.094 5.34939L548.094 22.7546C548.094 25.2567 549.943 27.106 552.445 27.106L569.85 27.106C572.352 27.106 574.202 25.2567 574.202 22.7546L574.202 13.8345C574.202 11.2237 575.725 9.7007 578.335 9.7007L578.553 9.7007C581.055 9.7007 582.904 7.85139 582.904 5.34939L582.904 -3.57081C582.904 -6.1816 584.427 -7.70457 587.038 -7.70457L587.256 -7.70457C589.758 -7.70457 591.607 -9.55387 591.607 -12.0559L591.607 -12.2734C591.607 -14.8842 593.13 -16.4072 595.741 -16.4072L613.581 -16.4072C616.192 -16.4072 617.715 -14.8842 617.715 -12.2734L617.715 -12.0559C617.715 -9.55387 619.564 -7.70457 622.066 -7.70457L622.284 -7.70457C624.894 -7.70457 626.417 -6.1816 626.417 -3.57081L626.417 14.2696C626.417 16.8804 624.894 18.4033 622.284 18.4033L622.066 18.4033C619.564 18.4033 617.715 20.2526 617.715 22.7546C617.715 25.2567 619.564 27.106 622.066 27.106L622.284 27.106C624.894 27.106 626.417 28.6289 626.417 31.2397L626.417 31.6748C626.417 34.2856 624.894 35.8086 622.284 35.8086L604.443 35.8086C601.833 35.8086 600.31 34.2856 600.31 31.6748L600.31 31.2397C600.31 28.6289 601.833 27.106 604.443 27.106L604.661 27.106C607.163 27.106 609.012 25.2567 609.012 22.7546L609.012 22.5371C609.012 19.9263 610.535 18.4033 613.146 18.4033L613.363 18.4033C615.865 18.4033 617.715 16.554 617.715 14.052L617.715 -3.35324C617.715 -5.85525 615.865 -7.70457 613.363 -7.70457L595.958 -7.70457C593.456 -7.70457 591.607 -5.85525 591.607 -3.35324L591.607 5.56695C591.607 8.17774 590.084 9.7007 587.473 9.7007L587.256 9.7007C584.754 9.7007 582.904 11.55 582.904 14.052L582.904 22.9722C582.904 25.583 581.381 27.106 578.771 27.106L578.553 27.106C576.051 27.106 574.202 28.9553 574.202 31.4573L574.202 31.6748C574.202 34.2856 572.679 35.8086 570.068 35.8086L552.227 35.8086C549.617 35.8086 548.094 34.2856 548.094 31.6748L548.094 31.4573C548.094 28.9553 546.244 27.106 543.742 27.106L543.525 27.106C540.914 27.106 539.391 25.583 539.391 22.9722L539.391 5.13182C539.391 2.52103 540.914 0.99807 543.525 0.99807L543.742 0.99807C546.244 0.998069 548.094 -0.851239 548.094 -3.35324C548.094 -5.85525 546.244 -7.70456 543.742 -7.70456L543.525 -7.70456C540.914 -7.70456 539.391 -9.22752 539.391 -11.8383Z" fill="#111111"/>
<path d="M679.347 5.77497L679.347 5.33984C679.347 2.72905 680.87 1.20609 683.481 1.20609L701.321 1.20609C703.932 1.20609 705.455 2.72905 705.455 5.33984L705.455 5.77497C705.455 8.38576 703.932 9.90872 701.321 9.90872L701.104 9.90872C698.602 9.90872 696.752 11.758 696.752 14.26L696.752 14.4776C696.752 17.0884 695.229 18.6114 692.619 18.6114L692.401 18.6114C689.899 18.6114 688.05 20.4607 688.05 22.9627L688.05 40.3679C688.05 42.8699 689.899 44.7192 692.401 44.7192L709.806 44.7192C712.308 44.7192 714.158 42.8699 714.158 40.3679L714.158 31.4477C714.158 28.8369 715.681 27.314 718.291 27.314L718.509 27.314C721.011 27.314 722.86 25.4647 722.86 22.9627L722.86 14.0425C722.86 11.4317 724.383 9.90872 726.994 9.90872L727.212 9.90872C729.714 9.90872 731.563 8.05941 731.563 5.5574L731.563 5.33984C731.563 2.72905 733.086 1.20609 735.697 1.20609L753.537 1.20609C756.148 1.20609 757.671 2.72905 757.671 5.33984L757.671 5.5574C757.671 8.05941 759.52 9.90871 762.022 9.90871L762.24 9.90871C764.851 9.90871 766.373 11.4317 766.373 14.0425L766.373 31.8829C766.373 34.4936 764.851 36.0166 762.24 36.0166L762.022 36.0166C759.52 36.0166 757.671 37.8659 757.671 40.3679C757.671 42.8699 759.52 44.7192 762.022 44.7192L762.24 44.7192C764.851 44.7192 766.373 46.2422 766.373 48.853L766.373 49.2881C766.373 51.8989 764.851 53.4219 762.24 53.4219L744.399 53.4219C741.789 53.4219 740.266 51.8989 740.266 49.2881L740.266 48.853C740.266 46.2422 741.789 44.7192 744.399 44.7192L744.617 44.7192C747.119 44.7192 748.968 42.8699 748.968 40.3679L748.968 40.1504C748.968 37.5396 750.491 36.0166 753.102 36.0166L753.32 36.0166C755.822 36.0166 757.671 34.1673 757.671 31.6653L757.671 14.26C757.671 11.758 755.822 9.90871 753.32 9.90871L735.914 9.90872C733.412 9.90872 731.563 11.758 731.563 14.26L731.563 23.1802C731.563 25.791 730.04 27.314 727.429 27.314L727.212 27.314C724.71 27.314 722.86 29.1633 722.86 31.6653L722.86 40.5855C722.86 43.1963 721.337 44.7192 718.727 44.7192L718.509 44.7192C716.007 44.7192 714.158 46.5686 714.158 49.0706L714.158 49.2881C714.158 51.8989 712.635 53.4219 710.024 53.4219L692.184 53.4219C689.573 53.4219 688.05 51.8989 688.05 49.2881L688.05 49.0706C688.05 46.5686 686.2 44.7192 683.698 44.7192L683.481 44.7192C680.87 44.7192 679.347 43.1963 679.347 40.5855L679.347 22.7451C679.347 20.1343 680.87 18.6114 683.481 18.6114L683.698 18.6114C686.2 18.6114 688.05 16.762 688.05 14.26C688.05 11.758 686.2 9.90872 683.698 9.90872L683.481 9.90872C680.87 9.90872 679.347 8.38576 679.347 5.77497Z" fill="#111111"/>
</g>
<defs>
<clipPath id="clip0_7159_65566">
<rect width="750.717" height="586.483" fill="white" transform="translate(-29 -253)"/>
</clipPath>
</defs>
</svg>
