<svg width="50" height="50" viewBox="0 0 50 50" fill="none" xmlns="http://www.w3.org/2000/svg">
<path d="M37.6222 46.2778L37.6222 46.1345C37.6222 44.4152 38.76 43.5555 40.3244 43.5555L40.6089 43.5555C42.3156 43.5555 43.5956 42.266 43.5956 40.5467L43.5956 40.2601C43.5956 38.6841 44.4489 37.5379 46.1556 37.5379L46.2978 37.5379C48.0044 37.5379 49 36.535 49 34.8157L49 15.1843C49 13.465 48.0044 12.4621 46.2978 12.4621L46.1556 12.4621C44.4489 12.4621 43.5956 11.3159 43.5956 9.73985L43.5956 9.4533C43.5956 7.73398 42.3156 6.4445 40.6089 6.4445L40.3244 6.4445C38.76 6.4445 37.6222 5.58484 37.6222 3.86552L37.6222 3.72225C37.6222 2.00293 36.6267 1 34.92 0.999999L15.08 0.999999C13.3733 0.999999 12.3778 2.00293 12.3778 3.72225L12.3778 3.86552C12.3778 5.58484 11.24 6.44449 9.67555 6.44449L9.39111 6.44449C7.68444 6.44449 6.40444 7.73398 6.40444 9.45329L6.40444 9.73985C6.40444 11.3159 5.55111 12.4621 3.84444 12.4621L3.70222 12.4621C1.99555 12.4621 0.999999 13.465 0.999999 15.1843L0.999998 34.8156C0.999998 36.535 1.99555 37.5379 3.70222 37.5379L3.84444 37.5379C5.55111 37.5379 6.40444 38.6841 6.40444 40.2601L6.40444 40.5467C6.40444 42.266 7.68444 43.5555 9.39111 43.5555L9.67555 43.5555C11.24 43.5555 12.3778 44.4152 12.3778 46.1345L12.3778 46.2778C12.3778 47.9971 13.3733 49 15.08 49L34.92 49C36.6267 49 37.6222 47.9971 37.6222 46.2778Z" fill="white" fill-opacity="0.08" stroke="white" stroke-width="2"/>
<path d="M18.2565 24.9996C18.2565 23.7827 19.0678 23.1743 20.1833 23.1743H20.3861C21.603 23.1743 22.5157 22.2616 22.5157 21.0447V20.8419C22.5157 19.625 23.0227 19.1179 24.2396 19.1179H24.4424C25.6594 19.1179 26.572 18.2052 26.572 16.9883V16.7855C26.572 15.5686 27.0791 15.0616 28.296 15.0616H28.4988C29.7157 15.0616 30.6284 14.1489 30.6284 12.932V12.7292C30.6284 11.5123 29.7157 10.5996 28.4988 10.5996H28.296C27.0791 10.5996 26.1664 11.5123 26.1664 12.7292V12.932C26.1664 14.1489 25.6594 14.6559 24.4424 14.6559H24.2396C23.0227 14.6559 22.1101 15.5686 22.1101 16.7855V16.9883C22.1101 18.2052 21.603 18.7123 20.3861 18.7123H20.1833C18.9664 18.7123 18.0537 19.625 18.0537 20.8419V21.0447C18.0537 22.1602 17.4453 22.9714 16.2284 22.9714H16.127C15.0628 22.9714 14.2002 23.8341 14.2002 24.8982V25.101C14.2002 26.1651 15.0628 27.0278 16.127 27.0278H16.2284C17.4453 27.0278 18.0537 27.839 18.0537 28.9545V29.1574C18.0537 30.3743 18.9664 31.2869 20.1833 31.2869H20.3861C21.603 31.2869 22.1101 31.794 22.1101 33.0109V33.2137C22.1101 34.4306 23.0227 35.3433 24.2396 35.3433H24.4424C25.6594 35.3433 26.1664 35.8503 26.1664 37.0672V37.27C26.1664 38.4869 27.0791 39.3996 28.296 39.3996H28.4988C29.7157 39.3996 30.6284 38.4869 30.6284 37.27V37.0672C30.6284 35.8503 29.7157 34.9376 28.4988 34.9376H28.296C27.0791 34.9376 26.572 34.4306 26.572 33.2137V33.0109C26.572 31.794 25.6594 30.8813 24.4424 30.8813H24.2396C23.0227 30.8813 22.5157 30.3743 22.5157 29.1574V28.9545C22.5157 27.7376 21.603 26.825 20.3861 26.825H20.1833C19.0678 26.825 18.2565 26.2165 18.2565 24.9996Z" fill="white"/>
</svg>
