<svg width="45" height="401" viewBox="0 0 45 401" fill="none" xmlns="http://www.w3.org/2000/svg">
<mask id="path-1-outside-1_7159_65952" maskUnits="userSpaceOnUse" x="-1.81154" y="-2.99998" width="49" height="406" fill="black">
<rect fill="white" x="-1.81154" y="-2.99998" width="49" height="406"/>
<path d="M27.2985 385.07L27.2985 396.11L44.1885 396.11L44.1885 400.94L2.18847 400.94L2.18847 385.07C2.18847 375.65 6.89847 370.22 14.7585 370.22C22.6185 370.22 27.2985 375.65 27.2985 385.07ZM6.74847 385.22L6.74847 396.11L22.7685 396.11L22.7685 385.22C22.7685 378.74 20.0985 375.23 14.7585 375.23C9.41847 375.23 6.74847 378.74 6.74847 385.22ZM15.2085 350.122C15.2085 341.572 21.5685 335.152 29.9685 335.152C38.3985 335.152 44.7585 341.572 44.7585 350.122C44.7585 358.672 38.3985 365.062 29.9685 365.062C21.5685 365.062 15.2085 358.672 15.2085 350.122ZM19.4085 350.122C19.4085 356.032 23.8485 360.502 29.9685 360.502C36.1185 360.502 40.5585 356.032 40.5585 350.122C40.5585 344.242 36.1185 339.742 29.9685 339.742C23.8485 339.742 19.4085 344.242 19.4085 350.122ZM15.2085 313.939C15.2085 311.899 15.4785 310.219 16.1685 308.719L20.5785 309.799C19.8285 311.179 19.4385 313.069 19.4385 314.719C19.4385 319.159 22.9185 322.339 28.2885 322.339L44.1885 322.339L44.1885 326.809L15.7785 326.809L15.7785 322.369L19.7685 322.369C16.8585 320.419 15.2085 317.419 15.2085 313.939ZM15.7785 282.03L19.8285 282.03L19.8285 294.3L34.1685 294.3C38.6085 294.3 40.5585 291.96 40.5585 288.66C40.5585 286.47 39.7485 284.34 38.5485 282.69L41.9385 280.59C43.5585 282.72 44.7585 285.54 44.7585 289.02C44.7585 295.14 41.3985 298.77 34.2585 298.77L19.8285 298.77L19.8285 304.98L15.7785 304.98L15.7785 298.77L6.74847 298.77L6.74847 294.3L15.7785 294.3L15.7785 282.03ZM15.2085 261.263C15.2085 259.223 15.4785 257.543 16.1685 256.043L20.5785 257.123C19.8285 258.503 19.4385 260.393 19.4385 262.043C19.4385 266.483 22.9185 269.663 28.2885 269.663L44.1885 269.663L44.1885 274.133L15.7785 274.133L15.7785 269.693L19.7685 269.693C16.8585 267.743 15.2085 264.743 15.2085 261.263ZM15.7785 223.522L44.1885 223.522L44.1885 227.992L39.9585 227.992C42.8685 230.242 44.7585 233.692 44.7585 238.372C44.7585 246.352 38.5185 252.562 29.9685 252.562C21.4485 252.562 15.2085 246.352 15.2085 238.372C15.2085 233.692 17.1285 230.242 20.0085 227.992L15.7785 227.992L15.7785 223.522ZM19.4085 237.832C19.4085 243.922 24.1185 248.002 29.9685 248.002C35.8485 248.002 40.5585 243.862 40.5585 237.832C40.5585 231.922 35.9985 227.722 29.9685 227.722C23.9685 227.722 19.4085 231.922 19.4085 237.832ZM15.7785 208.52L44.1885 208.52L44.1885 213.02L15.7785 213.02L15.7785 208.52ZM2.51847 210.77C2.51847 209 3.89847 207.59 5.69846 207.59C7.49847 207.59 8.84846 209 8.84846 210.77C8.84846 212.57 7.49847 213.92 5.69846 213.92C3.89847 213.92 2.51847 212.57 2.51847 210.77ZM15.7785 178.73L19.8285 178.73L19.8285 191L34.1685 191C38.6085 191 40.5585 188.66 40.5585 185.36C40.5585 183.17 39.7485 181.04 38.5485 179.39L41.9385 177.29C43.5585 179.42 44.7585 182.24 44.7585 185.72C44.7585 191.84 41.3985 195.47 34.2585 195.47L19.8285 195.47L19.8285 201.68L15.7785 201.68L15.7785 195.47L6.74847 195.47L6.74847 191L15.7785 191L15.7785 178.73ZM2.18846 110.046L44.1885 110.046L44.1885 114.876L7.58846 114.876L39.5385 129.516L39.5385 134.586L7.82846 149.196L44.1885 149.196L44.1885 154.026L2.18846 154.026L2.18846 146.706L33.9285 132.036L2.18846 117.396L2.18846 110.046ZM15.2085 85.9817C15.2085 77.4317 21.5685 71.0117 29.9685 71.0117C38.3985 71.0117 44.7585 77.4317 44.7585 85.9817C44.7585 94.5317 38.3985 100.922 29.9685 100.922C21.5685 100.922 15.2085 94.5317 15.2085 85.9817ZM19.4085 85.9817C19.4085 91.8917 23.8485 96.3617 29.9685 96.3617C36.1185 96.3617 40.5585 91.8917 40.5585 85.9817C40.5585 80.1017 36.1185 75.6017 29.9685 75.6017C23.8485 75.6017 19.4085 80.1017 19.4085 85.9817ZM15.2085 50.638C15.2085 45.958 17.1285 42.508 20.0085 40.258L0.988458 40.258L0.988458 35.788L44.1885 35.788L44.1885 40.258L39.9585 40.258C42.8685 42.508 44.7585 45.958 44.7585 50.638C44.7585 58.618 38.5185 64.828 29.9685 64.828C21.4485 64.828 15.2085 58.618 15.2085 50.638ZM19.4085 50.098C19.4085 56.188 24.1185 60.268 29.9685 60.268C35.8485 60.268 40.5585 56.128 40.5585 50.098C40.5585 44.188 35.9985 39.988 29.9685 39.988C23.9685 39.988 19.4085 44.188 19.4085 50.098ZM15.2085 13.3452C15.2085 5.63518 21.2385 0.055178 29.8785 -0.00482164C30.4485 -0.00482167 31.0485 0.0251761 31.5585 0.0851753L31.5585 22.8552C37.6785 22.2252 40.8285 17.9352 40.8285 12.8052C40.8285 9.29518 39.4785 6.23518 37.2585 3.80518L40.3185 1.40518C43.7085 4.94518 44.7585 8.90518 44.7585 13.0752C44.7585 21.4752 38.7885 27.4452 29.9985 27.4452C21.2985 27.4452 15.2085 21.4452 15.2085 13.3452ZM19.1985 13.4352C19.1985 18.6852 22.7985 22.0752 27.9285 22.7952L27.9285 4.55518C22.6185 5.12518 19.1985 8.60518 19.1985 13.4352Z"/>
</mask>
<path d="M27.2985 396.11L25.2985 396.11L25.2985 398.11L27.2985 398.11L27.2985 396.11ZM44.1885 396.11L46.1885 396.11L46.1885 394.11L44.1885 394.11L44.1885 396.11ZM44.1885 400.94L44.1885 402.94L46.1885 402.94L46.1885 400.94L44.1885 400.94ZM2.18847 400.94L0.188473 400.94L0.188473 402.94L2.18847 402.94L2.18847 400.94ZM6.74847 396.11L4.74847 396.11L4.74847 398.11L6.74847 398.11L6.74847 396.11ZM22.7685 396.11L22.7685 398.11L24.7685 398.11L24.7685 396.11L22.7685 396.11ZM25.2985 385.07L25.2985 396.11L29.2985 396.11L29.2985 385.07L25.2985 385.07ZM27.2985 398.11L44.1885 398.11L44.1885 394.11L27.2985 394.11L27.2985 398.11ZM42.1885 396.11L42.1885 400.94L46.1885 400.94L46.1885 396.11L42.1885 396.11ZM44.1885 398.94L2.18847 398.94L2.18847 402.94L44.1885 402.94L44.1885 398.94ZM4.18847 400.94L4.18847 385.07L0.188472 385.07L0.188473 400.94L4.18847 400.94ZM4.18847 385.07C4.18847 380.67 5.28924 377.474 7.04829 375.41C8.77067 373.388 11.3193 372.22 14.7585 372.22L14.7585 368.22C10.3377 368.22 6.60128 369.767 4.00365 372.815C1.4427 375.821 0.188472 380.05 0.188472 385.07L4.18847 385.07ZM14.7585 372.22C18.1971 372.22 20.7368 373.388 22.4514 375.407C24.2038 377.471 25.2985 380.667 25.2985 385.07L29.2985 385.07C29.2985 380.053 28.0532 375.824 25.5005 372.818C22.9101 369.767 19.1798 368.22 14.7585 368.22L14.7585 372.22ZM4.74847 385.22L4.74847 396.11L8.74847 396.11L8.74847 385.22L4.74847 385.22ZM6.74847 398.11L22.7685 398.11L22.7685 394.11L6.74847 394.11L6.74847 398.11ZM24.7685 396.11L24.7685 385.22L20.7685 385.22L20.7685 396.11L24.7685 396.11ZM24.7685 385.22C24.7685 381.753 24.0616 378.737 22.3345 376.554C20.5416 374.288 17.9009 373.23 14.7585 373.23L14.7585 377.23C16.956 377.23 18.3204 377.927 19.1975 379.036C20.1403 380.228 20.7685 382.207 20.7685 385.22L24.7685 385.22ZM14.7585 373.23C11.616 373.23 8.97536 374.288 7.18246 376.554C5.45534 378.737 4.74847 381.753 4.74847 385.22L8.74847 385.22C8.74847 382.207 9.37661 380.228 10.3195 379.036C11.1966 377.927 12.5609 377.23 14.7585 377.23L14.7585 373.23ZM17.2085 350.122C17.2085 342.653 22.6969 337.152 29.9685 337.152L29.9685 333.152C20.44 333.152 13.2085 340.492 13.2085 350.122L17.2085 350.122ZM29.9685 337.152C37.2727 337.152 42.7585 342.656 42.7585 350.122L46.7585 350.122C46.7585 340.489 39.5243 333.152 29.9685 333.152L29.9685 337.152ZM42.7585 350.122C42.7585 357.584 37.278 363.062 29.9685 363.062L29.9685 367.062C39.519 367.062 46.7585 359.761 46.7585 350.122L42.7585 350.122ZM29.9685 363.062C22.6917 363.062 17.2085 357.586 17.2085 350.122L13.2085 350.122C13.2085 359.758 20.4453 367.062 29.9685 367.062L29.9685 363.062ZM17.4085 350.122C17.4085 357.156 22.7629 362.502 29.9685 362.502L29.9685 358.502C24.934 358.502 21.4085 354.909 21.4085 350.122L17.4085 350.122ZM29.9685 362.502C37.2003 362.502 42.5585 357.16 42.5585 350.122L38.5585 350.122C38.5585 354.905 35.0367 358.502 29.9685 358.502L29.9685 362.502ZM42.5585 350.122C42.5585 343.119 37.2041 337.742 29.9685 337.742L29.9685 341.742C35.0329 341.742 38.5585 345.366 38.5585 350.122L42.5585 350.122ZM29.9685 337.742C22.7591 337.742 17.4085 343.123 17.4085 350.122L21.4085 350.122C21.4085 345.362 24.9379 341.742 29.9685 341.742L29.9685 337.742ZM16.1685 308.719L16.6442 306.776L15.0412 306.383L14.3515 307.883L16.1685 308.719ZM20.5785 309.799L22.3357 310.754L23.575 308.473L21.0542 307.856L20.5785 309.799ZM44.1885 322.339L46.1885 322.339L46.1885 320.339L44.1885 320.339L44.1885 322.339ZM44.1885 326.809L44.1885 328.809L46.1885 328.809L46.1885 326.809L44.1885 326.809ZM15.7785 326.809L13.7785 326.809L13.7785 328.809L15.7785 328.809L15.7785 326.809ZM15.7785 322.369L15.7785 320.369L13.7785 320.369L13.7785 322.369L15.7785 322.369ZM19.7685 322.369L19.7685 324.369L26.3458 324.369L20.8818 320.707L19.7685 322.369ZM17.2085 313.939C17.2085 312.071 17.4567 310.704 17.9855 309.554L14.3515 307.883C13.5002 309.733 13.2085 311.726 13.2085 313.939L17.2085 313.939ZM15.6927 310.661L20.1027 311.741L21.0542 307.856L16.6442 306.776L15.6927 310.661ZM18.8212 308.844C17.8773 310.58 17.4385 312.816 17.4385 314.719L21.4385 314.719C21.4385 313.321 21.7797 311.777 22.3357 310.754L18.8212 308.844ZM17.4385 314.719C17.4385 317.493 18.541 319.954 20.5319 321.698C22.5037 323.425 25.214 324.339 28.2885 324.339L28.2885 320.339C25.993 320.339 24.2783 319.662 23.1675 318.689C22.0759 317.733 21.4385 316.384 21.4385 314.719L17.4385 314.719ZM28.2885 324.339L44.1885 324.339L44.1885 320.339L28.2885 320.339L28.2885 324.339ZM42.1885 322.339L42.1885 326.809L46.1885 326.809L46.1885 322.339L42.1885 322.339ZM44.1885 324.809L15.7785 324.809L15.7785 328.809L44.1885 328.809L44.1885 324.809ZM17.7785 326.809L17.7785 322.369L13.7785 322.369L13.7785 326.809L17.7785 326.809ZM15.7785 324.369L19.7685 324.369L19.7685 320.369L15.7785 320.369L15.7785 324.369ZM20.8818 320.707C18.507 319.116 17.2085 316.729 17.2085 313.939L13.2085 313.939C13.2085 318.108 15.2099 321.721 18.6551 324.03L20.8818 320.707ZM15.7785 282.03L15.7785 280.03L13.7785 280.03L13.7785 282.03L15.7785 282.03ZM19.8285 282.03L21.8285 282.03L21.8285 280.03L19.8285 280.03L19.8285 282.03ZM19.8285 294.3L17.8285 294.3L17.8285 296.3L19.8285 296.3L19.8285 294.3ZM38.5485 282.69L37.4952 280.99L35.664 282.125L36.931 283.867L38.5485 282.69ZM41.9385 280.59L43.5304 279.38L42.4302 277.933L40.8852 278.89L41.9385 280.59ZM19.8285 298.77L19.8285 296.77L17.8285 296.77L17.8285 298.77L19.8285 298.77ZM19.8285 304.98L19.8285 306.98L21.8285 306.98L21.8285 304.98L19.8285 304.98ZM15.7785 304.98L13.7785 304.98L13.7785 306.98L15.7785 306.98L15.7785 304.98ZM15.7785 298.77L17.7785 298.77L17.7785 296.77L15.7785 296.77L15.7785 298.77ZM6.74847 298.77L4.74847 298.77L4.74847 300.77L6.74847 300.77L6.74847 298.77ZM6.74847 294.3L6.74847 292.3L4.74847 292.3L4.74847 294.3L6.74847 294.3ZM15.7785 294.3L15.7785 296.3L17.7785 296.3L17.7785 294.3L15.7785 294.3ZM15.7785 284.03L19.8285 284.03L19.8285 280.03L15.7785 280.03L15.7785 284.03ZM17.8285 282.03L17.8285 294.3L21.8285 294.3L21.8285 282.03L17.8285 282.03ZM19.8285 296.3L34.1685 296.3L34.1685 292.3L19.8285 292.3L19.8285 296.3ZM34.1685 296.3C36.7256 296.3 38.8851 295.623 40.4112 294.163C41.947 292.693 42.5585 290.702 42.5585 288.66L38.5585 288.66C38.5585 289.919 38.195 290.747 37.6458 291.273C37.0869 291.808 36.0514 292.3 34.1685 292.3L34.1685 296.3ZM42.5585 288.66C42.5585 285.992 41.5795 283.458 40.1659 281.514L36.931 283.867C37.9175 285.223 38.5585 286.949 38.5585 288.66L42.5585 288.66ZM39.6017 284.391L42.9917 282.291L40.8852 278.89L37.4952 280.99L39.6017 284.391ZM40.3466 281.801C41.7334 283.625 42.7585 286.027 42.7585 289.02L46.7585 289.02C46.7585 285.053 45.3835 281.816 43.5304 279.38L40.3466 281.801ZM42.7585 289.02C42.7585 291.724 42.0224 293.568 40.7969 294.751C39.5603 295.945 37.5111 296.77 34.2585 296.77L34.2585 300.77C38.1459 300.77 41.3466 299.78 43.575 297.629C45.8145 295.467 46.7585 292.436 46.7585 289.02L42.7585 289.02ZM34.2585 296.77L19.8285 296.77L19.8285 300.77L34.2585 300.77L34.2585 296.77ZM17.8285 298.77L17.8285 304.98L21.8285 304.98L21.8285 298.77L17.8285 298.77ZM19.8285 302.98L15.7785 302.98L15.7785 306.98L19.8285 306.98L19.8285 302.98ZM17.7785 304.98L17.7785 298.77L13.7785 298.77L13.7785 304.98L17.7785 304.98ZM15.7785 296.77L6.74847 296.77L6.74847 300.77L15.7785 300.77L15.7785 296.77ZM8.74847 298.77L8.74847 294.3L4.74847 294.3L4.74847 298.77L8.74847 298.77ZM6.74847 296.3L15.7785 296.3L15.7785 292.3L6.74847 292.3L6.74847 296.3ZM17.7785 294.3L17.7785 282.03L13.7785 282.03L13.7785 294.3L17.7785 294.3ZM16.1685 256.043L16.6442 254.1L15.0412 253.708L14.3515 255.207L16.1685 256.043ZM20.5785 257.123L22.3357 258.078L23.575 255.798L21.0542 255.18L20.5785 257.123ZM44.1885 269.663L46.1885 269.663L46.1885 267.663L44.1885 267.663L44.1885 269.663ZM44.1885 274.133L44.1885 276.133L46.1885 276.133L46.1885 274.133L44.1885 274.133ZM15.7785 274.133L13.7785 274.133L13.7785 276.133L15.7785 276.133L15.7785 274.133ZM15.7785 269.693L15.7785 267.693L13.7785 267.693L13.7785 269.693L15.7785 269.693ZM19.7685 269.693L19.7685 271.693L26.3458 271.693L20.8818 268.031L19.7685 269.693ZM17.2085 261.263C17.2085 259.395 17.4567 258.028 17.9854 256.879L14.3515 255.207C13.5002 257.058 13.2085 259.051 13.2085 261.263L17.2085 261.263ZM15.6927 257.985L20.1027 259.065L21.0542 255.18L16.6442 254.1L15.6927 257.985ZM18.8212 256.168C17.8773 257.905 17.4385 260.14 17.4385 262.043L21.4385 262.043C21.4385 260.645 21.7797 259.101 22.3357 258.078L18.8212 256.168ZM17.4385 262.043C17.4385 264.817 18.541 267.278 20.5319 269.022C22.5037 270.749 25.214 271.663 28.2885 271.663L28.2885 267.663C25.993 267.663 24.2783 266.986 23.1675 266.013C22.0759 265.057 21.4385 263.708 21.4385 262.043L17.4385 262.043ZM28.2885 271.663L44.1885 271.663L44.1885 267.663L28.2885 267.663L28.2885 271.663ZM42.1885 269.663L42.1885 274.133L46.1885 274.133L46.1885 269.663L42.1885 269.663ZM44.1885 272.133L15.7785 272.133L15.7785 276.133L44.1885 276.133L44.1885 272.133ZM17.7785 274.133L17.7785 269.693L13.7785 269.693L13.7785 274.133L17.7785 274.133ZM15.7785 271.693L19.7685 271.693L19.7685 267.693L15.7785 267.693L15.7785 271.693ZM20.8818 268.031C18.507 266.44 17.2085 264.053 17.2085 261.263L13.2085 261.263C13.2085 265.432 15.2099 269.046 18.6551 271.354L20.8818 268.031ZM15.7785 223.522L15.7785 221.522L13.7785 221.522L13.7785 223.522L15.7785 223.522ZM44.1885 223.522L46.1885 223.522L46.1885 221.522L44.1885 221.522L44.1885 223.522ZM44.1885 227.992L44.1885 229.992L46.1885 229.992L46.1885 227.992L44.1885 227.992ZM39.9585 227.992L39.9585 225.992L34.1021 225.992L38.7351 229.575L39.9585 227.992ZM20.0085 227.992L21.2398 229.568L25.8171 225.992L20.0085 225.992L20.0085 227.992ZM15.7785 227.992L13.7785 227.992L13.7785 229.992L15.7785 229.992L15.7785 227.992ZM15.7785 225.522L44.1885 225.522L44.1885 221.522L15.7785 221.522L15.7785 225.522ZM42.1885 223.522L42.1885 227.992L46.1885 227.992L46.1885 223.522L42.1885 223.522ZM44.1885 225.992L39.9585 225.992L39.9585 229.992L44.1885 229.992L44.1885 225.992ZM38.7351 229.575C41.1418 231.435 42.7585 234.294 42.7585 238.372L46.7585 238.372C46.7585 233.09 44.5951 229.049 41.1818 226.41L38.7351 229.575ZM42.7585 238.372C42.7585 245.191 37.4717 250.562 29.9685 250.562L29.9685 254.562C39.5653 254.562 46.7585 247.514 46.7585 238.372L42.7585 238.372ZM29.9685 250.562C22.498 250.562 17.2085 245.194 17.2085 238.372L13.2085 238.372C13.2085 247.511 20.3989 254.562 29.9685 254.562L29.9685 250.562ZM17.2085 238.372C17.2085 234.304 18.8484 231.437 21.2398 229.568L18.7772 226.416C15.4085 229.048 13.2085 233.081 13.2085 238.372L17.2085 238.372ZM20.0085 225.992L15.7785 225.992L15.7785 229.992L20.0085 229.992L20.0085 225.992ZM17.7785 227.992L17.7785 223.522L13.7785 223.522L13.7785 227.992L17.7785 227.992ZM17.4085 237.832C17.4085 245.155 23.1464 250.002 29.9685 250.002L29.9685 246.002C25.0906 246.002 21.4085 242.69 21.4085 237.832L17.4085 237.832ZM29.9685 250.002C36.8249 250.002 42.5585 245.091 42.5585 237.832L38.5585 237.832C38.5585 242.634 34.872 246.002 29.9685 246.002L29.9685 250.002ZM42.5585 237.832C42.5585 230.712 36.994 225.722 29.9685 225.722L29.9685 229.722C35.0029 229.722 38.5585 233.133 38.5585 237.832L42.5585 237.832ZM29.9685 225.722C22.9691 225.722 17.4085 230.715 17.4085 237.832L21.4085 237.832C21.4085 233.129 24.9679 229.722 29.9685 229.722L29.9685 225.722ZM15.7785 208.52L15.7785 206.52L13.7785 206.52L13.7785 208.52L15.7785 208.52ZM44.1885 208.52L46.1885 208.52L46.1885 206.52L44.1885 206.52L44.1885 208.52ZM44.1885 213.02L44.1885 215.02L46.1885 215.02L46.1885 213.02L44.1885 213.02ZM15.7785 213.02L13.7785 213.02L13.7785 215.02L15.7785 215.02L15.7785 213.02ZM15.7785 210.52L44.1885 210.52L44.1885 206.52L15.7785 206.52L15.7785 210.52ZM42.1885 208.52L42.1885 213.02L46.1885 213.02L46.1885 208.52L42.1885 208.52ZM44.1885 211.02L15.7785 211.02L15.7785 215.02L44.1885 215.02L44.1885 211.02ZM17.7785 213.02L17.7785 208.52L13.7785 208.52L13.7785 213.02L17.7785 213.02ZM4.51846 210.77C4.51846 210.092 5.01538 209.59 5.69846 209.59L5.69846 205.59C2.78155 205.59 0.518465 207.907 0.518465 210.77L4.51846 210.77ZM5.69846 209.59C6.35674 209.59 6.84846 210.067 6.84846 210.77L10.8485 210.77C10.8485 207.932 8.64019 205.59 5.69846 205.59L5.69846 209.59ZM6.84846 210.77C6.84846 211.465 6.3939 211.92 5.69846 211.92L5.69846 215.92C8.60303 215.92 10.8485 213.674 10.8485 210.77L6.84846 210.77ZM5.69846 211.92C4.97798 211.92 4.51846 211.44 4.51846 210.77L0.518465 210.77C0.518465 213.699 2.81895 215.92 5.69846 215.92L5.69846 211.92ZM15.7785 178.73L15.7785 176.73L13.7785 176.73L13.7785 178.73L15.7785 178.73ZM19.8285 178.73L21.8285 178.73L21.8285 176.73L19.8285 176.73L19.8285 178.73ZM19.8285 191L17.8285 191L17.8285 193L19.8285 193L19.8285 191ZM38.5485 179.39L37.4952 177.689L35.664 178.824L36.931 180.566L38.5485 179.39ZM41.9385 177.29L43.5304 176.079L42.4302 174.632L40.8852 175.589L41.9385 177.29ZM19.8285 195.47L19.8285 193.47L17.8285 193.47L17.8285 195.47L19.8285 195.47ZM19.8285 201.68L19.8285 203.68L21.8285 203.68L21.8285 201.68L19.8285 201.68ZM15.7785 201.68L13.7785 201.68L13.7785 203.68L15.7785 203.68L15.7785 201.68ZM15.7785 195.47L17.7785 195.47L17.7785 193.47L15.7785 193.47L15.7785 195.47ZM6.74847 195.47L4.74847 195.47L4.74847 197.47L6.74847 197.47L6.74847 195.47ZM6.74847 191L6.74847 189L4.74847 189L4.74847 191L6.74847 191ZM15.7785 191L15.7785 193L17.7785 193L17.7785 191L15.7785 191ZM15.7785 180.73L19.8285 180.73L19.8285 176.73L15.7785 176.73L15.7785 180.73ZM17.8285 178.73L17.8285 191L21.8285 191L21.8285 178.73L17.8285 178.73ZM19.8285 193L34.1685 193L34.1685 189L19.8285 189L19.8285 193ZM34.1685 193C36.7256 193 38.8851 192.322 40.4111 190.862C41.947 189.393 42.5585 187.401 42.5585 185.36L38.5585 185.36C38.5585 186.618 38.195 187.447 37.6458 187.972C37.0869 188.507 36.0514 189 34.1685 189L34.1685 193ZM42.5585 185.36C42.5585 182.691 41.5795 180.157 40.1659 178.213L36.931 180.566C37.9175 181.922 38.5585 183.648 38.5585 185.36L42.5585 185.36ZM39.6017 181.09L42.9917 178.99L40.8852 175.589L37.4952 177.689L39.6017 181.09ZM40.3466 178.5C41.7334 180.324 42.7585 182.726 42.7585 185.72L46.7585 185.72C46.7585 181.753 45.3835 178.515 43.5304 176.079L40.3466 178.5ZM42.7585 185.72C42.7585 188.424 42.0224 190.268 40.7969 191.451C39.5603 192.644 37.5111 193.47 34.2585 193.47L34.2585 197.47C38.1459 197.47 41.3466 196.48 43.575 194.328C45.8145 192.167 46.7585 189.135 46.7585 185.72L42.7585 185.72ZM34.2585 193.47L19.8285 193.47L19.8285 197.47L34.2585 197.47L34.2585 193.47ZM17.8285 195.47L17.8285 201.68L21.8285 201.68L21.8285 195.47L17.8285 195.47ZM19.8285 199.68L15.7785 199.68L15.7785 203.68L19.8285 203.68L19.8285 199.68ZM17.7785 201.68L17.7785 195.47L13.7785 195.47L13.7785 201.68L17.7785 201.68ZM15.7785 193.47L6.74847 193.47L6.74847 197.47L15.7785 197.47L15.7785 193.47ZM8.74847 195.47L8.74847 191L4.74847 191L4.74847 195.47L8.74847 195.47ZM6.74847 193L15.7785 193L15.7785 189L6.74847 189L6.74847 193ZM17.7785 191L17.7785 178.73L13.7785 178.73L13.7785 191L17.7785 191ZM2.18846 110.046L2.18846 108.046L0.18846 108.046L0.18846 110.046L2.18846 110.046ZM44.1885 110.046L46.1885 110.046L46.1885 108.046L44.1885 108.046L44.1885 110.046ZM44.1885 114.876L44.1885 116.876L46.1885 116.876L46.1885 114.876L44.1885 114.876ZM7.58846 114.876L7.58846 112.876L6.75533 116.694L7.58846 114.876ZM39.5385 129.516L41.5385 129.516L41.5385 128.232L40.3716 127.698L39.5385 129.516ZM39.5385 134.586L40.3754 136.402L41.5385 135.867L41.5385 134.586L39.5385 134.586ZM7.82846 149.196L6.99155 147.379L7.82846 151.196L7.82846 149.196ZM44.1885 149.196L46.1885 149.196L46.1885 147.196L44.1885 147.196L44.1885 149.196ZM44.1885 154.026L44.1885 156.026L46.1885 156.026L46.1885 154.026L44.1885 154.026ZM2.18846 154.026L0.188462 154.026L0.188462 156.026L2.18846 156.026L2.18846 154.026ZM2.18846 146.706L1.34937 144.89L0.188461 145.427L0.188461 146.706L2.18846 146.706ZM33.9285 132.036L34.7676 133.851L38.6995 132.034L34.7661 130.22L33.9285 132.036ZM2.18846 117.396L0.18846 117.396L0.18846 118.676L1.35078 119.212L2.18846 117.396ZM2.18846 112.046L44.1885 112.046L44.1885 108.046L2.18846 108.046L2.18846 112.046ZM42.1885 110.046L42.1885 114.876L46.1885 114.876L46.1885 110.046L42.1885 110.046ZM44.1885 112.876L7.58846 112.876L7.58846 116.876L44.1885 116.876L44.1885 112.876ZM6.75533 116.694L38.7053 131.334L40.3716 127.698L8.42159 113.058L6.75533 116.694ZM37.5385 129.516L37.5385 134.586L41.5385 134.586L41.5385 129.516L37.5385 129.516ZM38.7015 132.769L6.99155 147.379L8.66538 151.012L40.3754 136.402L38.7015 132.769ZM7.82846 151.196L44.1885 151.196L44.1885 147.196L7.82846 147.196L7.82846 151.196ZM42.1885 149.196L42.1885 154.026L46.1885 154.026L46.1885 149.196L42.1885 149.196ZM44.1885 152.026L2.18846 152.026L2.18846 156.026L44.1885 156.026L44.1885 152.026ZM4.18846 154.026L4.18846 146.706L0.188461 146.706L0.188462 154.026L4.18846 154.026ZM3.02756 148.521L34.7676 133.851L33.0894 130.22L1.34937 144.89L3.02756 148.521ZM34.7661 130.22L3.02614 115.58L1.35078 119.212L33.0908 133.852L34.7661 130.22ZM4.18846 117.396L4.18846 110.046L0.18846 110.046L0.18846 117.396L4.18846 117.396ZM17.2085 85.9817C17.2085 78.5123 22.6969 73.0117 29.9685 73.0117L29.9685 69.0117C20.44 69.0117 13.2085 76.3512 13.2085 85.9817L17.2085 85.9817ZM29.9685 73.0117C37.2727 73.0117 42.7585 78.515 42.7585 85.9817L46.7585 85.9817C46.7585 76.3485 39.5242 69.0117 29.9685 69.0117L29.9685 73.0117ZM42.7585 85.9817C42.7585 93.4432 37.2779 98.9217 29.9685 98.9217L29.9685 102.922C39.519 102.922 46.7585 95.6203 46.7585 85.9817L42.7585 85.9817ZM29.9685 98.9217C22.6916 98.9217 17.2085 93.4459 17.2085 85.9817L13.2085 85.9817C13.2085 95.6176 20.4453 102.922 29.9685 102.922L29.9685 98.9217ZM17.4085 85.9817C17.4085 93.0152 22.7629 98.3617 29.9685 98.3617L29.9685 94.3617C24.934 94.3617 21.4085 90.7683 21.4085 85.9817L17.4085 85.9817ZM29.9685 98.3617C37.2002 98.3617 42.5585 93.019 42.5585 85.9817L38.5585 85.9817C38.5585 90.7645 35.0367 94.3617 29.9685 94.3617L29.9685 98.3617ZM42.5585 85.9817C42.5585 78.9783 37.2041 73.6017 29.9685 73.6017L29.9685 77.6017C35.0329 77.6017 38.5585 81.2252 38.5585 85.9817L42.5585 85.9817ZM29.9685 73.6017C22.7591 73.6017 17.4085 78.982 17.4085 85.9817L21.4085 85.9817C21.4085 81.2214 24.9379 77.6017 29.9685 77.6017L29.9685 73.6017ZM20.0085 40.258L21.2397 41.834L25.8171 38.258L20.0085 38.258L20.0085 40.258ZM0.988458 40.258L-1.01154 40.258L-1.01154 42.258L0.988458 42.258L0.988458 40.258ZM0.988458 35.788L0.988458 33.788L-1.01154 33.788L-1.01154 35.788L0.988458 35.788ZM44.1885 35.788L46.1885 35.788L46.1885 33.788L44.1885 33.788L44.1885 35.788ZM44.1885 40.258L44.1885 42.258L46.1885 42.258L46.1885 40.258L44.1885 40.258ZM39.9585 40.258L39.9585 38.258L34.1021 38.258L38.7351 41.8402L39.9585 40.258ZM17.2085 50.638C17.2085 46.5692 18.8484 43.7023 21.2397 41.834L18.7772 38.6819C15.4085 41.3137 13.2085 45.3468 13.2085 50.638L17.2085 50.638ZM20.0085 38.258L0.988458 38.258L0.988458 42.258L20.0085 42.258L20.0085 38.258ZM2.98846 40.258L2.98846 35.788L-1.01154 35.788L-1.01154 40.258L2.98846 40.258ZM0.988458 37.788L44.1885 37.788L44.1885 33.788L0.988458 33.788L0.988458 37.788ZM42.1885 35.788L42.1885 40.258L46.1885 40.258L46.1885 35.788L42.1885 35.788ZM44.1885 38.258L39.9585 38.258L39.9585 42.258L44.1885 42.258L44.1885 38.258ZM38.7351 41.8402C41.1418 43.701 42.7585 46.56 42.7585 50.638L46.7585 50.638C46.7585 45.356 44.5951 41.3149 41.1818 38.6758L38.7351 41.8402ZM42.7585 50.638C42.7585 57.4565 37.4717 62.828 29.9685 62.828L29.9685 66.828C39.5653 66.828 46.7585 59.7795 46.7585 50.638L42.7585 50.638ZM29.9685 62.828C22.498 62.828 17.2085 57.4592 17.2085 50.638L13.2085 50.638C13.2085 59.7768 20.3989 66.828 29.9685 66.828L29.9685 62.828ZM17.4085 50.098C17.4085 57.4206 23.1464 62.268 29.9685 62.268L29.9685 58.268C25.0906 58.268 21.4085 54.9554 21.4085 50.098L17.4085 50.098ZM29.9685 62.268C36.8249 62.268 42.5585 57.3565 42.5585 50.098L38.5585 50.098C38.5585 54.8995 34.872 58.268 29.9685 58.268L29.9685 62.268ZM42.5585 50.098C42.5585 42.9775 36.994 37.988 29.9685 37.988L29.9685 41.988C35.0029 41.988 38.5585 45.3985 38.5585 50.098L42.5585 50.098ZM29.9685 37.988C22.9691 37.988 17.4085 42.9811 17.4085 50.098L21.4085 50.098C21.4085 45.3949 24.9678 41.988 29.9685 41.988L29.9685 37.988ZM29.8785 -0.00482999L29.8785 -2.00486L29.8646 -2.00477L29.8785 -0.00482999ZM31.5585 0.0851663L33.5585 0.0851662L33.5585 -1.69334L31.7921 -1.90113L31.5585 0.0851663ZM31.5585 22.8552L29.5585 22.8552L29.5585 25.0716L31.7633 24.8447L31.5585 22.8552ZM37.2585 3.80517L36.0242 2.23147L34.3275 3.56219L35.7819 5.15414L37.2585 3.80517ZM40.3185 1.40517L41.7629 0.0219029L40.5098 -1.28669L39.0842 -0.168527L40.3185 1.40517ZM27.9285 22.7952L27.6505 24.7758L29.9285 25.0955L29.9285 22.7952L27.9285 22.7952ZM27.9285 4.55517L29.9285 4.55517L29.9285 2.329L27.715 2.56661L27.9285 4.55517ZM17.2085 13.3452C17.2085 6.91067 22.1664 2.04879 29.8923 1.99514L29.8646 -2.00477C20.3105 -1.93842 13.2085 4.35967 13.2085 13.3452L17.2085 13.3452ZM29.8785 1.99517C30.3871 1.99517 30.9074 2.02236 31.3248 2.07146L31.7921 -1.90113C31.1895 -1.97202 30.5098 -2.00483 29.8785 -2.00483L29.8785 1.99517ZM29.5585 0.0851664L29.5585 22.8552L33.5585 22.8552L33.5585 0.0851662L29.5585 0.0851664ZM31.7633 24.8447C35.268 24.4839 38.0761 23.0487 40.0003 20.827C41.9122 18.6195 42.8285 15.7784 42.8285 12.8052L38.8285 12.8052C38.8285 14.962 38.1697 16.8308 36.9767 18.2083C35.7959 19.5716 33.9689 20.5965 31.3537 20.8657L31.7633 24.8447ZM42.8285 12.8052C42.8285 8.74779 41.2578 5.21761 38.735 2.4562L35.7819 5.15414C37.6991 7.25274 38.8285 9.84255 38.8285 12.8052L42.8285 12.8052ZM38.4927 5.3789L41.5527 2.97887L39.0842 -0.168527L36.0242 2.23147L38.4927 5.3789ZM38.874 2.78844C41.8247 5.86971 42.7585 9.28701 42.7585 13.0752L46.7585 13.0752C46.7585 8.52334 45.5922 4.02065 41.7629 0.0219029L38.874 2.78844ZM42.7585 13.0752C42.7585 16.7872 41.4483 19.8492 39.274 21.9826C37.0981 24.1176 33.9306 25.4452 29.9985 25.4452L29.9985 29.4452C34.8563 29.4452 39.0689 27.7878 42.0754 24.8378C45.0836 21.8862 46.7585 17.7632 46.7585 13.0752L42.7585 13.0752ZM29.9985 25.4452C22.3306 25.4452 17.2085 20.2695 17.2085 13.3452L13.2085 13.3452C13.2085 22.6208 20.2663 29.4452 29.9985 29.4452L29.9985 25.4452ZM17.1985 13.4352C17.1985 16.546 18.2777 19.2144 20.202 21.2043C22.1073 23.1745 24.7277 24.3656 27.6505 24.7758L28.2064 20.8146C25.9992 20.5048 24.2546 19.6409 23.0774 18.4236C21.9192 17.2259 21.1985 15.5744 21.1985 13.4352L17.1985 13.4352ZM29.9285 22.7952L29.9285 4.55517L25.9285 4.55517L25.9285 22.7952L29.9285 22.7952ZM27.715 2.56661C24.6771 2.89272 22.0394 4.06945 20.1459 5.99563C18.24 7.93444 17.1985 10.5241 17.1985 13.4352L21.1985 13.4352C21.1985 11.5163 21.8669 9.95089 22.9985 8.79974C24.1425 7.63592 25.8699 6.78765 28.1419 6.54375L27.715 2.56661Z" fill="url(#paint0_linear_7159_65952)" mask="url(#path-1-outside-1_7159_65952)"/>
<defs>
<linearGradient id="paint0_linear_7159_65952" x1="57.1885" y1="409.763" x2="175.46" y2="345.346" gradientUnits="userSpaceOnUse">
<stop stop-color="#FFCF92"/>
<stop offset="1" stop-color="#FFE8CB"/>
</linearGradient>
</defs>
</svg>
