<svg width="50" height="50" viewBox="0 0 50 50" fill="none" xmlns="http://www.w3.org/2000/svg">
<path d="M12.3778 46.2778L12.3778 46.1345C12.3778 44.4152 11.24 43.5555 9.67556 43.5555L9.39112 43.5555C7.68445 43.5555 6.40444 42.266 6.40444 40.5467L6.40444 40.2601C6.40444 38.6841 5.55111 37.5379 3.84445 37.5379L3.70222 37.5379C1.99556 37.5379 1 36.535 1 34.8157L1 15.1843C1 13.465 1.99556 12.4621 3.70222 12.4621L3.84445 12.4621C5.55111 12.4621 6.40444 11.3159 6.40444 9.73985L6.40444 9.4533C6.40444 7.73398 7.68444 6.4445 9.39111 6.4445L9.67556 6.4445C11.24 6.4445 12.3778 5.58484 12.3778 3.86552L12.3778 3.72225C12.3778 2.00293 13.3733 1 15.08 0.999999L34.92 0.999999C36.6267 0.999999 37.6222 2.00293 37.6222 3.72225L37.6222 3.86552C37.6222 5.58484 38.76 6.44449 40.3244 6.44449L40.6089 6.44449C42.3156 6.44449 43.5956 7.73398 43.5956 9.45329L43.5956 9.73985C43.5956 11.3159 44.4489 12.4621 46.1556 12.4621L46.2978 12.4621C48.0044 12.4621 49 13.465 49 15.1843L49 34.8156C49 36.535 48.0044 37.5379 46.2978 37.5379L46.1556 37.5379C44.4489 37.5379 43.5956 38.6841 43.5956 40.2601L43.5956 40.5467C43.5956 42.266 42.3156 43.5555 40.6089 43.5555L40.3244 43.5555C38.76 43.5555 37.6222 44.4152 37.6222 46.1345L37.6222 46.2778C37.6222 47.9971 36.6267 49 34.92 49L15.08 49C13.3733 49 12.3778 47.9971 12.3778 46.2778Z" fill="white" fill-opacity="0.08" stroke="white" stroke-width="2"/>
<path d="M31.7435 24.9996C31.7435 23.7827 30.9322 23.1743 29.8167 23.1743H29.6139C28.397 23.1743 27.4843 22.2616 27.4843 21.0447V20.8419C27.4843 19.625 26.9773 19.1179 25.7604 19.1179H25.5576C24.3406 19.1179 23.428 18.2052 23.428 16.9883V16.7855C23.428 15.5686 22.9209 15.0616 21.704 15.0616H21.5012C20.2843 15.0616 19.3716 14.1489 19.3716 12.932V12.7292C19.3716 11.5123 20.2843 10.5996 21.5012 10.5996H21.704C22.9209 10.5996 23.8336 11.5123 23.8336 12.7292V12.932C23.8336 14.1489 24.3406 14.6559 25.5576 14.6559H25.7604C26.9773 14.6559 27.8899 15.5686 27.8899 16.7855V16.9883C27.8899 18.2052 28.397 18.7123 29.6139 18.7123H29.8167C31.0336 18.7123 31.9463 19.625 31.9463 20.8419V21.0447C31.9463 22.1602 32.5547 22.9714 33.7716 22.9714H33.873C34.9372 22.9714 35.7998 23.8341 35.7998 24.8982V25.101C35.7998 26.1651 34.9372 27.0278 33.873 27.0278H33.7716C32.5547 27.0278 31.9463 27.839 31.9463 28.9545V29.1574C31.9463 30.3743 31.0336 31.2869 29.8167 31.2869H29.6139C28.397 31.2869 27.8899 31.794 27.8899 33.0109V33.2137C27.8899 34.4306 26.9773 35.3433 25.7604 35.3433H25.5576C24.3406 35.3433 23.8336 35.8503 23.8336 37.0672V37.27C23.8336 38.4869 22.9209 39.3996 21.704 39.3996H21.5012C20.2843 39.3996 19.3716 38.4869 19.3716 37.27V37.0672C19.3716 35.8503 20.2843 34.9376 21.5012 34.9376H21.704C22.9209 34.9376 23.428 34.4306 23.428 33.2137V33.0109C23.428 31.794 24.3406 30.8813 25.5576 30.8813H25.7604C26.9773 30.8813 27.4843 30.3743 27.4843 29.1574V28.9545C27.4843 27.7376 28.397 26.825 29.6139 26.825H29.8167C30.9322 26.825 31.7435 26.2165 31.7435 24.9996Z" fill="white"/>
</svg>
