<svg width="35" height="24" viewBox="0 0 35 24" fill="none" xmlns="http://www.w3.org/2000/svg">
<path d="M29.2373 10.3568C28.5853 10.1031 28.1482 9.47733 28.1482 8.70424V8.53525C28.1482 7.52113 27.73 7.09865 26.728 7.09865H26.5612C25.558 7.09865 24.8063 6.33803 24.8063 5.32391V5.15492C24.8063 4.1408 24.3881 3.71832 23.3849 3.71832H23.2181C22.2161 3.71832 21.4631 2.95769 21.4631 1.94374V1.77458C21.4631 0.760627 22.2161 0 23.2181 0H23.3849C24.3881 0 25.1398 0.760627 25.1398 1.77458V1.94374C25.1398 2.95769 25.558 3.38033 26.5612 3.38033H26.728C27.73 3.38033 28.483 4.1408 28.483 5.15492V5.32391C28.483 6.33803 28.8999 6.76051 29.9031 6.76051H30.0699C31.0731 6.76051 31.8249 7.52113 31.8249 8.53525V8.70424C31.8249 9.63386 32.3265 10.3098 33.3284 10.3098H33.4118C34.2887 10.3098 35 11.0288 35 11.9154V12.0846C35 12.9712 34.2887 13.6902 33.4118 13.6902H33.3284C32.3265 13.6902 31.8249 14.3661 31.8249 15.2958V15.4647C31.8249 16.4789 31.0731 17.2395 30.0699 17.2395H29.9031C28.8999 17.2395 28.483 17.662 28.483 18.6761V18.8451C28.483 19.8592 27.73 20.6197 26.728 20.6197H26.5612C25.558 20.6197 25.1398 21.0423 25.1398 22.0563V22.2254C25.1398 23.2394 24.3881 24 23.3849 24H23.2181C22.2161 24 21.4631 23.2394 21.4631 22.2254V22.0563C21.4631 21.0423 22.2161 20.2817 23.2181 20.2817H23.3849C24.3881 20.2817 24.8063 19.8592 24.8063 18.8451V18.6761C24.8063 17.662 25.558 16.9013 26.5612 16.9013H26.728C27.73 16.9013 28.1482 16.4789 28.1482 15.4647V15.2958C28.1482 14.5067 28.603 13.8713 29.2777 13.628H2.33154C1.43826 13.628 0.714287 12.8957 0.714287 11.9924C0.714287 11.0891 1.43826 10.3568 2.33154 10.3568H29.2373Z" fill="#FF0037"/>
</svg>
