<svg width="54" height="48" viewBox="0 0 54 48" fill="none" xmlns="http://www.w3.org/2000/svg">
<path d="M40.388 43.8066C42.0729 43.8066 42.9153 42.6833 42.9153 41.1388L42.9153 40.858C42.9153 39.1731 44.179 37.9094 45.8639 37.9094L46.1447 37.9094C47.6892 37.9094 48.8125 37.067 48.8125 35.3821L48.8125 12.9167C48.8125 11.2318 47.6892 10.3893 46.1447 10.3893L45.8639 10.3893C44.179 10.3893 42.9153 9.12567 42.9153 7.44077L42.9153 7.15995C42.9153 5.61546 42.0729 4.49219 40.388 4.49219L12.3063 4.49219C10.6214 4.49219 9.77891 5.61545 9.77891 7.15995L9.77891 7.44077C9.77891 9.12567 8.51523 10.3893 6.83033 10.3893L6.54951 10.3893C5.00502 10.3893 3.88175 11.2318 3.88175 12.9167L3.88175 35.3821C3.88175 37.067 5.00501 37.9094 6.54951 37.9094L6.83032 37.9094C8.51523 37.9094 9.77891 39.1731 9.77891 40.858L9.77891 41.1388C9.77891 42.6833 10.6214 43.8066 12.3063 43.8066L40.388 43.8066Z" fill="#0E0E0E"/>
<path fill-rule="evenodd" clip-rule="evenodd" d="M42.6442 45.4667V45.3333C42.6442 43.7333 43.7103 42.9333 45.1762 42.9333H45.4427C47.0419 42.9333 48.2412 41.7333 48.2412 40.1333V39.8667C48.2412 38.4 49.0408 37.3333 50.64 37.3333H50.7732C52.3724 37.3333 53.3052 36.4 53.3052 34.8V13.2C53.3052 11.6 52.3724 10.6667 50.7732 10.6667H50.64C49.0408 10.6667 48.2412 9.6 48.2412 8.13333V7.86667C48.2412 6.26667 47.0419 5.06667 45.4427 5.06667H45.1762C43.7103 5.06667 42.6442 4.26667 42.6442 2.66667V2.53333C42.6442 0.933333 41.7114 0 40.1122 0H13.1931C11.5939 0 10.6611 0.933331 10.6611 2.53333V2.66666C10.6611 4.26666 9.59495 5.06666 8.12906 5.06666H7.86253C6.26337 5.06666 5.064 6.26666 5.064 7.86666V8.13333C5.064 9.6 4.26442 10.6667 2.66526 10.6667H2.532C0.932843 10.6667 1.01411e-06 11.6 9.44172e-07 13.2L0 34.8C-6.99365e-08 36.4 0.932842 37.3333 2.532 37.3333H2.66526C4.26442 37.3333 5.064 38.4 5.064 39.8667V40.1333C5.064 41.7333 6.26337 42.9333 7.86253 42.9333H8.12905C9.59495 42.9333 10.6611 43.7333 10.6611 45.3333V45.4667C10.6611 47.0667 11.5939 48 13.1931 48H40.1122C41.7114 48 42.6442 47.0667 42.6442 45.4667ZM42.9162 41.1395C42.9162 42.684 42.0738 43.8073 40.3889 43.8073H12.3072C10.6223 43.8073 9.7798 42.684 9.7798 41.1395V40.8587C9.7798 39.1738 8.51612 37.9101 6.83122 37.9101H6.55041C5.00591 37.9101 3.88264 37.0677 3.88264 35.3828L3.88264 12.9174C3.88264 11.2325 5.00591 10.39 6.55041 10.39H6.83122C8.51612 10.39 9.7798 9.12635 9.7798 7.44145V7.16063C9.7798 5.61613 10.6223 4.49287 12.3072 4.49287L40.3889 4.49287C42.0738 4.49287 42.9162 5.61614 42.9162 7.16063V7.44145C42.9162 9.12635 44.1799 10.39 45.8648 10.39H46.1456C47.6901 10.39 48.8134 11.2325 48.8134 12.9174V35.3828C48.8134 37.0677 47.6901 37.9101 46.1456 37.9101H45.8648C44.1799 37.9101 42.9162 39.1738 42.9162 40.8587V41.1395Z" fill="url(#paint0_linear_7159_66881)"/>
<path d="M20.1279 24.6217C20.1226 24.6217 20.1173 24.6216 20.1119 24.6216H20.1439C20.1386 24.6216 20.1332 24.6217 20.1279 24.6217Z" fill="white"/>
<path d="M19.197 18.823C19.0673 19.0476 19.1218 19.2549 19.345 19.3854L19.3636 19.3963C19.5774 19.5214 19.6436 19.773 19.5194 19.9883L19.5086 20.007C19.3789 20.2317 19.4334 20.4389 19.6566 20.5694L21.1812 21.4615C21.4044 21.592 21.6102 21.5371 21.7398 21.3125L21.7506 21.2937C21.8748 21.0784 22.1247 21.0118 22.3386 21.1369L22.3571 21.1477C22.5803 21.2783 22.7861 21.2234 22.9157 20.9987L23.3587 20.2311C23.4883 20.0064 23.426 19.7696 23.2029 19.6391L20.2879 17.9336C20.0494 17.794 19.7436 17.8756 19.6051 18.1158L19.197 18.823Z" fill="white"/>
<path d="M33.1786 19.3854C33.4017 19.2549 33.4563 19.0476 33.3266 18.823L32.9185 18.1158C32.7799 17.8756 32.4742 17.794 32.2357 17.9336L29.3207 19.6391C29.0976 19.7696 29.0353 20.0064 29.1649 20.2311L29.6079 20.9987C29.7375 21.2234 29.9433 21.2783 30.1664 21.1477L30.185 21.1369C30.3989 21.0118 30.6487 21.0784 30.773 21.2937L30.7838 21.3125C30.9134 21.5371 31.1192 21.592 31.3423 21.4615L32.867 20.5694C33.0901 20.4389 33.1447 20.2317 33.015 20.007L33.0042 19.9883C32.88 19.773 32.9462 19.5214 33.16 19.3963L33.1786 19.3854Z" fill="white"/>
<path fill-rule="evenodd" clip-rule="evenodd" d="M20.1534 11.7135C20.1967 11.7571 20.2352 11.8016 20.2688 11.8468L32.6402 11.8468C32.6738 11.8016 32.7123 11.7571 32.7557 11.7135L34.1042 10.3556C34.4894 9.96767 34.9389 9.96767 35.3242 10.3556L35.3563 10.388C35.7416 10.7759 36.1911 10.7112 36.5443 10.3556L36.6085 10.291C36.9938 9.90301 37.5717 9.90301 37.957 10.291L38.0212 10.3556C38.4065 10.7436 38.7276 10.7436 39.1129 10.3556L39.1771 10.291C39.4785 9.98743 39.9673 9.98743 40.2687 10.291L40.5898 10.6143C40.8912 10.9178 40.8912 11.4099 40.5898 11.7135L40.5256 11.7781C40.1403 12.1661 40.1403 12.4894 40.5256 12.8773L40.5898 12.942C40.9751 13.3299 40.9751 13.9119 40.5898 14.2998L40.5256 14.3645C40.1724 14.7201 40.1082 15.1727 40.4935 15.5607L40.5256 15.593C40.9109 15.981 40.9109 16.4336 40.5256 16.8215L39.1771 18.1794C39.0998 18.2571 39.02 18.3193 38.9386 18.3659V25.7407C38.9386 26.4951 38.5016 26.9352 37.7524 26.9352H37.6899C36.9407 26.9352 36.5661 27.4381 36.5661 28.1297V28.2554C36.5661 29.0098 36.0041 29.5756 35.2549 29.5756H35.13C34.4432 29.5756 33.9438 29.9529 33.9438 30.7073V32.7096C33.9438 33.3509 33.5691 33.725 32.9269 33.725H32.8734C32.2312 33.725 31.9101 34.1525 31.9101 34.7403V34.8472C31.9101 35.4884 31.4285 35.9694 30.7863 35.9694H30.6792C30.0906 35.9694 29.6624 36.29 29.6624 36.9312V36.9847C29.6624 37.6259 29.2878 38 28.6456 38H24.2573C23.6151 38 23.2404 37.6259 23.2404 36.9847V36.9312C23.2404 36.29 22.8123 35.9694 22.2236 35.9694H22.1166C21.4744 35.9694 20.9928 35.4884 20.9928 34.8472V34.7403C20.9928 34.1525 20.6717 33.725 20.0295 33.725H19.9759C19.3337 33.725 18.9591 33.3509 18.9591 32.7096V30.7073C18.9591 29.9529 18.4596 29.5756 17.7728 29.5756H17.648C16.8987 29.5756 16.3368 29.0098 16.3368 28.2554V28.1297C16.3368 27.4381 15.9622 26.9352 15.213 26.9352H15.1505C14.4013 26.9352 13.9642 26.4951 13.9642 25.7407L13.9642 18.3624C13.885 18.3162 13.8072 18.2552 13.732 18.1794L12.3835 16.8215C11.9982 16.4336 11.9982 15.981 12.3835 15.593L12.4156 15.5607C12.8008 15.1727 12.7366 14.7201 12.3835 14.3645L12.3192 14.2998C11.934 13.9119 11.934 13.3299 12.3192 12.942L12.3835 12.8773C12.7687 12.4894 12.7687 12.1661 12.3835 11.7781L12.3192 11.7135C12.0178 11.4099 12.0178 10.9178 12.3192 10.6143L12.6403 10.291C12.9418 9.98743 13.4305 9.98743 13.7319 10.291L13.7962 10.3556C14.1814 10.7436 14.5025 10.7436 14.8878 10.3556L14.952 10.291C15.3373 9.90301 15.9152 9.90301 16.3005 10.291L16.3647 10.3556C16.7179 10.7112 17.1674 10.7759 17.5527 10.388L17.5848 10.3556C17.9701 9.96767 18.4196 9.96767 18.8049 10.3556L20.1534 11.7135ZM20.2327 29.4571C20.7602 29.5096 21.0731 29.8459 21.0982 30.393H21.0998V31.2495C21.0998 31.8107 21.5122 32.2255 22.0702 32.2255H24.5876C25.0711 32.2255 25.3432 32.0793 25.4525 31.7378V29.7698C25.4525 29.1717 25.0529 28.8726 24.5034 28.8726H24.4035C23.8042 28.8726 23.3546 28.424 23.3546 27.8259V27.7263C23.3546 27.178 23.0549 26.7793 22.4555 26.7793H22.4056C21.8062 26.7793 21.4566 26.4304 21.4566 25.8323V23.6973C21.4566 23.1973 21.8591 22.7919 22.3556 22.7919H22.5055C23.1049 22.7919 23.4545 23.1408 23.4545 23.7389V25.7824C23.4545 26.3805 23.8541 26.6796 24.4035 26.6796H24.5034C25.1028 26.6796 25.5524 27.1282 25.5524 27.7263V27.8259C25.5524 28.3742 25.8521 28.7729 26.4514 28.7729C27.0508 28.7729 27.3505 28.3742 27.3505 27.8259V27.7263C27.3505 27.1282 27.8001 26.6796 28.3994 26.6796H28.4993C29.0488 26.6796 29.4484 26.3805 29.4484 25.7824V23.7389C29.4484 23.1408 29.798 22.7919 30.3974 22.7919H30.5472C31.0438 22.7919 31.4463 23.1973 31.4463 23.6973V25.8323C31.4463 26.4304 31.0967 26.7793 30.4973 26.7793H30.4473C29.848 26.7793 29.5483 27.178 29.5483 27.7263V27.8259C29.5483 28.424 29.0987 28.8726 28.4993 28.8726H28.3994C27.85 28.8726 27.4504 29.1717 27.4504 29.7698V30.0534C27.4504 30.054 27.4504 30.0546 27.4504 30.0552V31.7378C27.5597 32.0793 27.8317 32.2255 28.3152 32.2255H30.8327C31.3907 32.2255 31.8031 31.8107 31.8031 31.2495V30.393H31.8047C31.8298 29.8459 32.1427 29.5096 32.6702 29.4571L32.6701 29.4499H32.695C33.4443 29.4499 33.8189 28.947 33.8189 28.2554V28.1297C33.8189 28.074 33.8219 28.0194 33.8279 27.966V27.8547C33.8279 27.2281 33.3694 26.7649 32.749 26.7649H32.735C32.0877 26.7649 31.7101 26.3835 31.7101 25.7297V25.6207C31.7101 24.9669 32.0877 24.5855 32.735 24.5855H32.8029C33.4503 24.5855 33.8279 24.9669 33.8279 25.6207V25.6752C33.8279 26.3018 34.2864 26.7649 34.9068 26.7649H34.9607C35.0884 26.7649 35.2055 26.7798 35.3113 26.8086C35.9689 26.7883 36.4412 26.4114 36.4412 25.6778V18.1336C36.4412 17.3792 35.9417 17.002 35.2549 17.002H35.13C34.3808 17.002 33.8189 16.4361 33.8189 15.6817V15.556C33.8189 14.8644 33.4443 14.3615 32.695 14.3615L20.2078 14.3615C19.4586 14.3615 19.084 14.8644 19.084 15.556V15.6817C19.084 16.4361 18.5221 17.002 17.7728 17.002H17.648C16.9612 17.002 16.4617 17.3792 16.4617 18.1336L16.4617 25.6778C16.4617 26.4322 16.9612 26.8094 17.648 26.8094H17.7728C17.7883 26.8094 17.8037 26.8097 17.819 26.8102C17.8725 26.8041 17.9282 26.8011 17.9861 26.8011H18.0401C18.6604 26.8011 19.119 26.338 19.119 25.7114V25.6569C19.119 25.0084 19.4904 24.628 20.1279 24.6217C20.7655 24.628 21.1369 25.0084 21.1369 25.6569V25.7658C21.1369 26.4197 20.7593 26.8011 20.1119 26.8011H20.1979C19.5775 26.8011 19.119 27.2642 19.119 27.8908V28.602C19.2278 29.1087 19.5908 29.4499 20.2078 29.4499H20.2328L20.2327 29.4571ZM29.6966 34.1776H28.3152C27.733 34.1776 27.3933 33.836 27.3933 33.2504V33.2016C27.3933 32.65 26.9949 32.2398 26.4514 32.2259C25.908 32.2398 25.5096 32.65 25.5096 33.2016V33.2504C25.5096 33.836 25.1699 34.1776 24.5876 34.1776H23.2063C23.2968 34.341 23.3475 34.5322 23.3475 34.7403V34.8472C23.3475 35.435 23.6686 35.8625 24.3108 35.8625H28.5921C29.2343 35.8625 29.5554 35.435 29.5554 34.8472V34.7403C29.5554 34.5322 29.6061 34.341 29.6966 34.1776ZM18.8691 13.0066C18.8987 13.0365 18.9288 13.0641 18.9591 13.0893V13.1041C18.9591 13.8585 18.4596 14.2358 17.7728 14.2358H17.648C16.8987 14.2358 16.3368 14.8016 16.3368 15.556V15.6817C16.3368 16.3733 15.9622 16.8762 15.213 16.8762H15.1505C15.103 16.8762 15.0566 16.878 15.0116 16.8815L13.6998 15.5607C13.3146 15.1727 13.3788 14.7201 13.7319 14.3645L13.7962 14.2998C14.1814 13.9119 14.1814 13.3299 13.7962 12.942L13.732 12.8773C13.3467 12.4894 13.3467 12.1661 13.732 11.7781L13.7962 11.7135C14.1814 11.3255 14.5025 11.3255 14.8878 11.7135L14.952 11.7781C15.3373 12.1661 15.9152 12.1661 16.3005 11.7781L16.3647 11.7135C16.7179 11.3578 17.1674 11.2932 17.5527 11.6811L18.8691 13.0066ZM33.9438 13.0944V13.1041C33.9438 13.8585 34.4432 14.2358 35.13 14.2358H35.2549C36.0041 14.2358 36.5661 14.8016 36.5661 15.556V15.6817C36.5661 16.3733 36.9407 16.8762 37.6899 16.8762H37.7524C37.8019 16.8762 37.8502 16.8782 37.897 16.882L39.2092 15.5607C39.5945 15.1727 39.5303 14.7201 39.1771 14.3645L39.1129 14.2998C38.7276 13.9119 38.7276 13.3299 39.1129 12.942L39.1771 12.8773C39.5624 12.4894 39.5624 12.1661 39.1771 11.7781L39.1129 11.7135C38.7276 11.3255 38.4065 11.3255 38.0212 11.7135L37.957 11.7781C37.5717 12.1661 36.9938 12.1661 36.6085 11.7781L36.5443 11.7135C36.1911 11.3578 35.7416 11.2932 35.3563 11.6811L34.0399 13.0066C34.0083 13.0385 33.9762 13.0678 33.9438 13.0944Z" fill="white"/>
<rect x="27.9126" y="20.666" width="10.4962" height="5.28195" rx="0.660066" fill="#111111"/>
<rect x="13.8306" y="20.666" width="10.4962" height="5.28195" rx="0.660066" fill="#111111"/>
<path fill-rule="evenodd" clip-rule="evenodd" d="M24.1558 26.4996C24.1558 26.8788 23.9366 27.1 23.5608 27.1H14.7287C14.3529 27.1 14.1336 26.8788 14.1336 26.4996V26.468C14.1336 26.1045 13.8674 25.8359 13.5072 25.8359H13.4759C13.1001 25.8359 12.8809 25.6147 12.8809 25.2355V21.3801C12.8809 21.0009 13.1001 20.7797 13.4759 20.7797H13.5072C13.8674 20.7797 14.1336 20.5111 14.1336 20.1476V20.116C14.1336 19.7368 14.3529 19.5156 14.7287 19.5156H23.5608C23.9366 19.5156 24.1558 19.7368 24.1558 20.116V20.1476C24.1558 20.4227 24.3083 20.6434 24.5386 20.7345H27.7684C27.9986 20.6434 28.1511 20.4227 28.1511 20.1476V20.116C28.1511 19.7368 28.3703 19.5156 28.7462 19.5156H37.5782C37.9541 19.5156 38.1733 19.7368 38.1733 20.116V20.1476C38.1733 20.5111 38.4395 20.7797 38.7997 20.7797H38.831C39.2068 20.7797 39.4261 21.0009 39.4261 21.3801V25.2355C39.4261 25.6147 39.2068 25.8359 38.831 25.8359H38.7997C38.4395 25.8359 38.1733 26.1045 38.1733 26.468V26.4996C38.1733 26.8788 37.9541 27.1 37.5782 27.1H28.7462C28.3703 27.1 28.1511 26.8788 28.1511 26.4996V26.468C28.1511 26.1045 27.8849 25.8359 27.5247 25.8359H27.4934C27.1176 25.8359 26.8983 25.6147 26.8983 25.2355V22.0212H25.4086V25.2355C25.4086 25.6147 25.1893 25.8359 24.8135 25.8359H24.7822C24.422 25.8359 24.1558 26.1045 24.1558 26.468V26.4996ZM23.5294 25.8359C23.8896 25.8359 24.1558 25.5673 24.1558 25.2039V21.4117C24.1558 21.0483 23.8896 20.7797 23.5294 20.7797H14.76C14.3998 20.7797 14.1336 21.0483 14.1336 21.4117V25.2039C14.1336 25.5673 14.3998 25.8359 14.76 25.8359H23.5294ZM37.5469 25.8359C37.907 25.8359 38.1733 25.5673 38.1733 25.2039V21.4117C38.1733 21.0483 37.907 20.7797 37.5469 20.7797H28.7775C28.4174 20.7797 28.1511 21.0483 28.1511 21.4117V25.2039C28.1511 25.5673 28.4174 25.8359 28.7775 25.8359H37.5469Z" fill="#FF0037"/>
<defs>
<linearGradient id="paint0_linear_7159_66881" x1="-10" y1="-9.5" x2="63.4036" y2="4.85372" gradientUnits="userSpaceOnUse">
<stop stop-color="#232323"/>
<stop offset="1" stop-color="#D8D8D8"/>
</linearGradient>
</defs>
</svg>
