<svg width="39" height="24" viewBox="0 0 39 24" fill="none" xmlns="http://www.w3.org/2000/svg">
<rect x="0.410156" y="0.347656" width="38.341" height="23.3053" rx="11.6527" fill="#FFCF92" fill-opacity="0.16"/>
<path d="M26.4101 12C26.4117 12.2052 26.3494 12.4058 26.2317 12.5739C26.1141 12.742 25.947 12.8693 25.7537 12.9381L21.7875 14.3808L20.3458 18.3476C20.2747 18.5391 20.1468 18.7042 19.9792 18.8209C19.8115 18.9375 19.6122 19 19.408 19C19.2038 19 19.0045 18.9375 18.8369 18.8209C18.6692 18.7042 18.5413 18.5391 18.4702 18.3476L17.0286 14.3802L13.0624 12.9381C12.8709 12.867 12.7058 12.739 12.5892 12.5713C12.4726 12.4036 12.4102 12.2043 12.4102 12C12.4102 11.7957 12.4726 11.5964 12.5892 11.4287C12.7058 11.261 12.8709 11.133 13.0624 11.0619L17.0286 9.61981L18.4702 5.65241C18.5413 5.46092 18.6692 5.29576 18.8369 5.17914C19.0045 5.06251 19.2038 5 19.408 5C19.6122 5 19.8115 5.06251 19.9792 5.17914C20.1468 5.29576 20.2747 5.46092 20.3458 5.65241L21.7881 9.61981L25.7537 11.0619C25.947 11.1307 26.1141 11.258 26.2317 11.4261C26.3494 11.5942 26.4117 11.7948 26.4101 12Z" fill="url(#paint0_linear_11505_11021)"/>
<defs>
<linearGradient id="paint0_linear_11505_11021" x1="12.316" y1="19" x2="21.008" y2="21.7957" gradientUnits="userSpaceOnUse">
<stop stop-color="#FFCF92"/>
<stop offset="1" stop-color="#FFE8CB"/>
</linearGradient>
</defs>
</svg>
