<svg width="15" height="14" viewBox="0 0 15 14" fill="none" xmlns="http://www.w3.org/2000/svg">
<path d="M14.7514 7C14.753 7.20521 14.6907 7.40581 14.573 7.57393C14.4554 7.74205 14.2883 7.86932 14.095 7.93807L10.1288 9.38082L8.68711 13.3476C8.61606 13.5391 8.48811 13.7042 8.32047 13.8209C8.15283 13.9375 7.95353 14 7.74933 14C7.54514 14 7.34583 13.9375 7.17819 13.8209C7.01055 13.7042 6.88261 13.5391 6.81155 13.3476L5.36987 9.38019L1.40368 7.93807C1.21224 7.86699 1.04714 7.73901 0.930548 7.57132C0.813958 7.40363 0.751465 7.20426 0.751465 7C0.751465 6.79574 0.813958 6.59637 0.930548 6.42868C1.04714 6.26099 1.21224 6.13301 1.40368 6.06193L5.36987 4.61981L6.81155 0.652409C6.88261 0.460917 7.01055 0.295764 7.17819 0.179138C7.34583 0.062512 7.54514 0 7.74933 0C7.95353 0 8.15283 0.062512 8.32047 0.179138C8.48811 0.295764 8.61606 0.460917 8.68711 0.652409L10.1294 4.61981L14.095 6.06193C14.2883 6.13068 14.4554 6.25795 14.573 6.42607C14.6907 6.59419 14.753 6.79479 14.7514 7Z" fill="url(#paint0_linear_14389_10444)"/>
<defs>
<linearGradient id="paint0_linear_14389_10444" x1="0.657346" y1="14" x2="9.34928" y2="16.7957" gradientUnits="userSpaceOnUse">
<stop stop-color="#FFCF92"/>
<stop offset="1" stop-color="#FFE8CB"/>
</linearGradient>
</defs>
</svg>
