<svg width="432" height="542" viewBox="0 0 432 542" fill="none" xmlns="http://www.w3.org/2000/svg">
<mask id="path-1-outside-1_12356_11218" maskUnits="userSpaceOnUse" x="43" y="-1.99998" width="162" height="542" fill="black">
<rect fill="white" x="43" y="-1.99998" width="162" height="542"/>
<path d="M58.092 432.178L84.838 446.282C80.366 454.194 74.776 466.148 74.776 481.026C74.776 489.798 77.184 496.506 82.602 496.506C89.396 496.506 90.084 484.208 92.492 471.91L93.266 468.04C98.082 443.186 110.036 430.544 128.526 430.544C158.97 430.544 170.236 456.258 170.236 481.886C170.236 503.472 165.076 523.08 155.272 536.84L128.612 520.844C134.374 511.298 140.996 499.774 140.996 481.456C140.996 472.684 138.588 466.234 132.654 466.234C126.376 466.234 125.258 473.716 122.678 488.68L121.904 493.238C117.174 520.93 105.22 532.454 83.892 531.852C60.844 531.25 45.45 511.9 45.45 483.004C45.45 467.266 47.084 453.076 58.092 432.178ZM82.774 351.589L109.778 351.589L109.778 379.281L129.73 379.281C138.932 379.281 141.77 374.465 141.77 367.843C141.77 363.113 138.846 357.953 136.61 353.997L160.346 343.763C166.28 352.277 170.236 360.791 170.236 375.755C170.236 400.007 155.358 409.897 134.46 409.897L109.778 409.897L109.778 425.377L82.774 425.377L82.774 409.897L58.35 409.897L58.35 379.281L82.774 379.281L82.774 351.589ZM82.774 251.286L168 251.286L168 280.698L160.518 280.698C166.194 285.772 170.236 293.168 170.236 303.918C170.236 326.708 150.026 342.704 125.258 342.704C100.662 342.704 80.452 326.708 80.452 303.832C80.452 293.168 84.58 285.772 90.428 280.698L82.774 280.698L82.774 251.286ZM108.918 296.006C108.918 304.778 115.798 311.142 125.344 311.142C134.89 311.142 141.77 304.778 141.77 296.006C141.77 287.234 134.89 280.87 125.344 280.87C115.798 280.87 108.918 287.234 108.918 296.006ZM80.452 184.515C80.452 181.161 81.054 178.065 81.312 176.861L111.928 178.581C110.982 182.107 109.95 187.095 109.95 191.997C109.95 200.511 112.96 205.671 122.334 205.671L168 205.671L168 236.373L82.774 236.373L82.774 207.133L91.374 207.133C83.806 202.403 80.452 194.921 80.452 184.515ZM80.452 115.312C80.452 111.958 81.054 108.862 81.312 107.658L111.928 109.378C110.982 112.904 109.95 117.892 109.95 122.794C109.95 131.308 112.96 136.468 122.334 136.468L168 136.468L168 167.17L82.774 167.17L82.774 137.93L91.374 137.93C83.806 133.2 80.452 125.718 80.452 115.312ZM82.774 1.44971L202.4 62.5957L202.4 96.0497L148.736 67.3257L82.774 102.414L82.774 67.0677L116.314 50.9857L82.774 34.9897L82.774 1.44971Z"/>
</mask>
<path d="M58.092 432.178L59.0249 430.409L57.255 429.476L56.3225 431.246L58.092 432.178ZM84.838 446.282L86.5791 447.266L87.5924 445.473L85.7709 444.513L84.838 446.282ZM92.492 471.91L90.5308 471.518L90.5293 471.526L92.492 471.91ZM93.266 468.04L95.2272 468.432L95.2295 468.42L93.266 468.04ZM155.272 536.84L154.243 538.555L155.828 539.506L156.901 538.001L155.272 536.84ZM128.612 520.844L126.9 519.81L125.863 521.527L127.583 522.559L128.612 520.844ZM122.678 488.68L120.707 488.34L120.706 488.345L122.678 488.68ZM121.904 493.238L123.875 493.575L123.876 493.573L121.904 493.238ZM83.892 531.852L83.9484 529.853L83.9442 529.853L83.892 531.852ZM57.1591 433.947L83.9051 448.051L85.7709 444.513L59.0249 430.409L57.1591 433.947ZM83.0969 445.298C78.5562 453.331 72.776 465.644 72.776 481.026L76.776 481.026C76.776 466.652 82.1758 455.057 86.5791 447.266L83.0969 445.298ZM72.776 481.026C72.776 485.546 73.3893 489.745 74.8411 492.893C76.3191 496.098 78.8473 498.506 82.602 498.506L82.602 494.506C80.9387 494.506 79.5538 493.56 78.4734 491.218C77.3667 488.819 76.776 485.278 76.776 481.026L72.776 481.026ZM82.602 498.506C85.0245 498.506 86.8844 497.362 88.2472 495.628C89.5456 493.977 90.43 491.758 91.1143 489.371C92.4652 484.659 93.2937 478.224 94.4547 472.294L90.5293 471.526C89.2823 477.894 88.5628 483.757 87.2692 488.269C86.6312 490.494 85.9193 492.117 85.1026 493.156C84.3503 494.113 83.5765 494.506 82.602 494.506L82.602 498.506ZM94.4532 472.302L95.2271 468.432L91.3048 467.648L90.5308 471.518L94.4532 472.302ZM95.2295 468.42C97.5966 456.204 101.675 447.236 107.224 441.343C112.719 435.508 119.789 432.544 128.526 432.544L128.526 428.544C118.773 428.544 110.621 431.901 104.312 438.601C98.0579 445.242 93.7514 455.022 91.3025 467.66L95.2295 468.42ZM128.526 432.544C143.088 432.544 152.9 438.647 159.149 447.738C165.467 456.927 168.236 469.32 168.236 481.886L172.236 481.886C172.236 468.824 169.372 455.546 162.446 445.471C155.451 435.298 144.408 428.544 128.526 428.544L128.526 432.544ZM168.236 481.886C168.236 503.194 163.137 522.355 153.643 535.679L156.901 538.001C167.015 523.805 172.236 503.75 172.236 481.886L168.236 481.886ZM156.301 535.125L129.641 519.129L127.583 522.559L154.243 538.555L156.301 535.125ZM130.324 521.878C136.133 512.254 142.996 500.339 142.996 481.456L138.996 481.456C138.996 499.209 132.615 510.342 126.9 519.81L130.324 521.878ZM142.996 481.456C142.996 476.942 142.385 472.778 140.842 469.667C139.241 466.439 136.547 464.234 132.654 464.234L132.654 468.234C134.695 468.234 136.172 469.254 137.259 471.444C138.403 473.751 138.996 477.198 138.996 481.456L142.996 481.456ZM132.654 464.234C130.636 464.234 128.895 464.855 127.464 466.158C126.097 467.401 125.148 469.144 124.404 471.15C122.936 475.111 121.979 480.964 120.707 488.34L124.649 489.02C125.957 481.432 126.849 476.062 128.155 472.541C128.797 470.806 129.466 469.743 130.155 469.116C130.78 468.548 131.533 468.234 132.654 468.234L132.654 464.234ZM120.706 488.345L119.932 492.903L123.876 493.573L124.65 489.015L120.706 488.345ZM119.933 492.901C117.599 506.565 113.532 515.897 107.706 521.743C101.948 527.521 94.2188 530.143 83.9484 529.853L83.8356 533.851C94.8932 534.163 103.805 531.324 110.539 524.567C117.204 517.879 121.479 507.603 123.875 493.575L119.933 492.901ZM83.9442 529.853C73.0159 529.567 63.9606 524.859 57.5978 516.799C51.208 508.705 47.45 497.112 47.45 483.004L43.45 483.004C43.45 497.792 47.389 510.322 54.4582 519.277C61.5543 528.267 71.7201 533.535 83.8398 533.851L83.9442 529.853ZM47.45 483.004C47.45 467.515 49.0367 453.66 59.8615 433.11L56.3225 431.246C45.1313 452.492 43.45 467.017 43.45 483.004L47.45 483.004ZM82.774 351.589L82.774 349.589L80.774 349.589L80.774 351.589L82.774 351.589ZM109.778 351.589L111.778 351.589L111.778 349.589L109.778 349.589L109.778 351.589ZM109.778 379.281L107.778 379.281L107.778 381.281L109.778 381.281L109.778 379.281ZM136.61 353.997L135.818 352.161L133.773 353.043L134.869 354.981L136.61 353.997ZM160.346 343.763L161.987 342.62L161.053 341.28L159.554 341.927L160.346 343.763ZM109.778 409.897L109.778 407.897L107.778 407.897L107.778 409.897L109.778 409.897ZM109.778 425.377L109.778 427.377L111.778 427.377L111.778 425.377L109.778 425.377ZM82.774 425.377L80.774 425.377L80.774 427.377L82.774 427.377L82.774 425.377ZM82.774 409.897L84.774 409.897L84.774 407.897L82.774 407.897L82.774 409.897ZM58.35 409.897L56.35 409.897L56.35 411.897L58.35 411.897L58.35 409.897ZM58.35 379.281L58.35 377.281L56.35 377.281L56.35 379.281L58.35 379.281ZM82.774 379.281L82.774 381.281L84.774 381.281L84.774 379.281L82.774 379.281ZM82.774 353.589L109.778 353.589L109.778 349.589L82.774 349.589L82.774 353.589ZM107.778 351.589L107.778 379.281L111.778 379.281L111.778 351.589L107.778 351.589ZM109.778 381.281L129.73 381.281L129.73 377.281L109.778 377.281L109.778 381.281ZM129.73 381.281C134.662 381.281 138.306 379.985 140.676 377.396C143.016 374.84 143.77 371.394 143.77 367.843L139.77 367.843C139.77 370.915 139.105 373.187 137.725 374.695C136.376 376.169 134 377.281 129.73 377.281L129.73 381.281ZM143.77 367.843C143.77 365.092 142.926 362.334 141.869 359.847C140.807 357.351 139.46 354.976 138.351 353.013L134.869 354.981C135.995 356.975 137.229 359.157 138.188 361.413C139.152 363.678 139.77 365.864 139.77 367.843L143.77 367.843ZM137.402 355.834L161.138 345.6L159.554 341.927L135.818 352.161L137.402 355.834ZM158.705 344.907C164.447 353.145 168.236 361.267 168.236 375.755L172.236 375.755C172.236 360.315 168.113 351.41 161.987 342.62L158.705 344.907ZM168.236 375.755C168.236 387.456 164.663 395.378 158.873 400.411C153.032 405.488 144.628 407.897 134.46 407.897L134.46 411.897C145.19 411.897 154.674 409.361 161.497 403.43C168.37 397.456 172.236 388.306 172.236 375.755L168.236 375.755ZM134.46 407.897L109.778 407.897L109.778 411.897L134.46 411.897L134.46 407.897ZM107.778 409.897L107.778 425.377L111.778 425.377L111.778 409.897L107.778 409.897ZM109.778 423.377L82.774 423.377L82.774 427.377L109.778 427.377L109.778 423.377ZM84.774 425.377L84.774 409.897L80.774 409.897L80.774 425.377L84.774 425.377ZM82.774 407.897L58.35 407.897L58.35 411.897L82.774 411.897L82.774 407.897ZM60.35 409.897L60.35 379.281L56.35 379.281L56.35 409.897L60.35 409.897ZM58.35 381.281L82.774 381.281L82.774 377.281L58.35 377.281L58.35 381.281ZM84.774 379.281L84.774 351.589L80.774 351.589L80.774 379.281L84.774 379.281ZM82.774 251.286L82.774 249.286L80.774 249.286L80.774 251.286L82.774 251.286ZM168 251.286L170 251.286L170 249.286L168 249.286L168 251.286ZM168 280.698L168 282.698L170 282.698L170 280.698L168 280.698ZM160.518 280.698L160.518 278.698L155.28 278.698L159.185 282.189L160.518 280.698ZM90.428 280.698L91.7387 282.209L95.7848 278.698L90.428 278.698L90.428 280.698ZM82.774 280.698L80.774 280.698L80.774 282.698L82.774 282.698L82.774 280.698ZM82.774 253.286L168 253.286L168 249.286L82.774 249.286L82.774 253.286ZM166 251.286L166 280.698L170 280.698L170 251.286L166 251.286ZM168 278.698L160.518 278.698L160.518 282.698L168 282.698L168 278.698ZM159.185 282.189C164.44 286.887 168.236 293.743 168.236 303.918L172.236 303.918C172.236 292.594 167.948 284.657 161.851 279.207L159.185 282.189ZM168.236 303.918C168.236 325.292 149.261 340.704 125.258 340.704L125.258 344.704C150.791 344.704 172.236 328.125 172.236 303.918L168.236 303.918ZM125.258 340.704C101.435 340.704 82.452 325.299 82.452 303.832L78.452 303.832C78.452 328.118 99.8889 344.704 125.258 344.704L125.258 340.704ZM82.452 303.832C82.452 293.762 86.3181 286.912 91.7387 282.209L89.1173 279.188C82.8419 284.633 78.452 292.575 78.452 303.832L82.452 303.832ZM90.428 278.698L82.774 278.698L82.774 282.698L90.428 282.698L90.428 278.698ZM84.774 280.698L84.774 251.286L80.774 251.286L80.774 280.698L84.774 280.698ZM106.918 296.006C106.918 306.032 114.848 313.142 125.344 313.142L125.344 309.142C116.748 309.142 110.918 303.525 110.918 296.006L106.918 296.006ZM125.344 313.142C135.84 313.142 143.77 306.032 143.77 296.006L139.77 296.006C139.77 303.525 133.94 309.142 125.344 309.142L125.344 313.142ZM143.77 296.006C143.77 285.981 135.84 278.87 125.344 278.87L125.344 282.87C133.94 282.87 139.77 288.488 139.77 296.006L143.77 296.006ZM125.344 278.87C114.848 278.87 106.918 285.981 106.918 296.006L110.918 296.006C110.918 288.488 116.748 282.87 125.344 282.87L125.344 278.87ZM81.312 176.861L81.4242 174.865L79.7151 174.769L79.3564 176.442L81.312 176.861ZM111.928 178.581L113.86 179.1L114.497 176.723L112.04 176.585L111.928 178.581ZM168 205.671L170 205.671L170 203.671L168 203.671L168 205.671ZM168 236.373L168 238.373L170 238.373L170 236.373L168 236.373ZM82.774 236.373L80.774 236.373L80.774 238.373L82.774 238.373L82.774 236.373ZM82.774 207.133L82.774 205.133L80.774 205.133L80.774 207.133L82.774 207.133ZM91.374 207.133L91.374 209.133L98.3476 209.133L92.434 205.437L91.374 207.133ZM82.452 184.515C82.452 181.371 83.0201 178.435 83.2676 177.281L79.3564 176.442C79.0878 177.696 78.452 180.952 78.452 184.515L82.452 184.515ZM81.1998 178.858L111.816 180.578L112.04 176.585L81.4242 174.865L81.1998 178.858ZM109.996 178.063C109.029 181.668 107.95 186.847 107.95 191.997L111.95 191.997C111.95 187.344 112.935 182.547 113.86 179.1L109.996 178.063ZM107.95 191.997C107.95 196.419 108.717 200.405 111.078 203.293C113.511 206.269 117.285 207.671 122.334 207.671L122.334 203.671C118.009 203.671 115.591 202.494 114.175 200.762C112.688 198.941 111.95 196.09 111.95 191.997L107.95 191.997ZM122.334 207.671L168 207.671L168 203.671L122.334 203.671L122.334 207.671ZM166 205.671L166 236.373L170 236.373L170 205.671L166 205.671ZM168 234.373L82.774 234.373L82.774 238.373L168 238.373L168 234.373ZM84.774 236.373L84.774 207.133L80.774 207.133L80.774 236.373L84.774 236.373ZM82.774 209.133L91.374 209.133L91.374 205.133L82.774 205.133L82.774 209.133ZM92.434 205.437C85.6048 201.169 82.452 194.436 82.452 184.515L78.452 184.515C78.452 195.407 82.0072 203.638 90.314 208.829L92.434 205.437ZM81.312 107.658L81.4242 105.662L79.715 105.565L79.3564 107.239L81.312 107.658ZM111.928 109.378L113.86 109.897L114.497 107.52L112.04 107.382L111.928 109.378ZM168 136.468L170 136.468L170 134.468L168 134.468L168 136.468ZM168 167.17L168 169.17L170 169.17L170 167.17L168 167.17ZM82.774 167.17L80.774 167.17L80.774 169.17L82.774 169.17L82.774 167.17ZM82.774 137.93L82.774 135.93L80.774 135.93L80.774 137.93L82.774 137.93ZM91.374 137.93L91.374 139.93L98.3476 139.93L92.434 136.234L91.374 137.93ZM82.452 115.312C82.452 112.168 83.0201 109.232 83.2676 108.077L79.3564 107.239C79.0878 108.493 78.452 111.749 78.452 115.312L82.452 115.312ZM81.1998 109.655L111.816 111.375L112.04 107.382L81.4242 105.662L81.1998 109.655ZM109.996 108.86C109.029 112.465 107.95 117.644 107.95 122.794L111.95 122.794C111.95 118.141 112.935 113.344 113.86 109.897L109.996 108.86ZM107.95 122.794C107.95 127.216 108.717 131.201 111.078 134.09C113.511 137.066 117.285 138.468 122.334 138.468L122.334 134.468C118.009 134.468 115.591 133.29 114.175 131.558C112.688 129.738 111.95 126.887 111.95 122.794L107.95 122.794ZM122.334 138.468L168 138.468L168 134.468L122.334 134.468L122.334 138.468ZM166 136.468L166 167.17L170 167.17L170 136.468L166 136.468ZM168 165.17L82.774 165.17L82.774 169.17L168 169.17L168 165.17ZM84.774 167.17L84.774 137.93L80.774 137.93L80.774 167.17L84.774 167.17ZM82.774 139.93L91.374 139.93L91.374 135.93L82.774 135.93L82.774 139.93ZM92.434 136.234C85.6048 131.966 82.452 125.232 82.452 115.312L78.452 115.312C78.452 126.204 82.0072 134.435 90.314 139.626L92.434 136.234ZM82.774 1.44974L83.6842 -0.331148L80.774 -1.8187L80.774 1.44974L82.774 1.44974ZM202.4 62.5957L204.4 62.5957L204.4 61.3719L203.31 60.8149L202.4 62.5957ZM202.4 96.0497L201.456 97.813L204.4 99.3887L204.4 96.0497L202.4 96.0497ZM148.736 67.3257L149.68 65.5624L148.739 65.0588L147.797 65.56L148.736 67.3257ZM82.774 102.414L80.774 102.414L80.774 105.743L83.7132 104.179L82.774 102.414ZM82.774 67.0677L81.9093 65.2643L80.774 65.8086L80.774 67.0677L82.774 67.0677ZM116.314 50.9857L117.179 52.7891L120.95 50.9809L117.175 49.1805L116.314 50.9857ZM82.774 34.9897L80.774 34.9897L80.774 36.2517L81.913 36.7949L82.774 34.9897ZM81.8637 3.23056L201.49 64.3765L203.31 60.8149L83.6842 -0.331148L81.8637 3.23056ZM200.4 62.5957L200.4 96.0497L204.4 96.0497L204.4 62.5957L200.4 62.5957ZM203.344 94.2864L149.68 65.5624L147.792 69.089L201.456 97.813L203.344 94.2864ZM147.797 65.56L81.8347 100.648L83.7132 104.179L149.675 69.0914L147.797 65.56ZM84.774 102.414L84.774 67.0677L80.774 67.0677L80.774 102.414L84.774 102.414ZM83.6387 68.8711L117.179 52.7891L115.449 49.1823L81.9093 65.2643L83.6387 68.8711ZM117.175 49.1805L83.6349 33.1845L81.913 36.7949L115.453 52.7909L117.175 49.1805ZM84.774 34.9897L84.774 1.44974L80.774 1.44974L80.774 34.9897L84.774 34.9897Z" fill="url(#paint0_linear_12356_11218)" mask="url(#path-1-outside-1_12356_11218)"/>
<mask id="path-3-outside-2_12356_11218" maskUnits="userSpaceOnUse" x="272" y="97" width="128" height="439" fill="black">
<rect fill="white" x="272" y="97" width="128" height="439"/>
<path d="M277.4 533.6L277.4 480.848C277.4 449.264 290.336 435.236 311.168 435.236C322.592 435.236 331.328 441.704 335.948 450.86C339.812 440.612 349.724 432.884 361.232 432.884C382.064 432.884 395 446.744 395 477.824L395 533.6L277.4 533.6ZM348.884 479.588L348.884 501.68L369.044 501.68L369.128 479.588C369.128 470.432 365.768 465.728 358.964 465.728C352.328 465.728 348.884 470.432 348.884 479.588ZM303.44 481.52L303.44 501.68L323.012 501.68L323.012 481.604C323.012 472.784 319.736 468.332 313.184 468.332C306.716 468.332 303.44 472.784 303.44 481.52ZM274.04 391.421L395 391.421L395 421.325L274.04 421.325L274.04 391.421ZM311.756 291.352L395 291.352L395 320.08L387.692 320.08C393.236 325.036 397.184 332.26 397.184 342.76C397.184 365.02 377.444 380.644 353.252 380.644C329.228 380.644 309.488 365.02 309.488 342.676C309.488 332.26 313.52 325.036 319.232 320.08L311.756 320.08L311.756 291.352ZM337.292 335.032C337.292 343.6 344.012 349.816 353.336 349.816C362.66 349.816 369.38 343.6 369.38 335.032C369.38 326.464 362.66 320.248 353.336 320.248C344.012 320.248 337.292 326.464 337.292 335.032ZM309.488 235.206C309.488 218.574 317.216 206.058 329.648 197.826L345.104 222.354C339.812 225.882 337.292 229.998 337.292 235.878C337.292 243.186 342.92 249.99 353.336 249.99C363.836 249.99 369.38 243.438 369.38 236.13C369.38 230.502 366.86 225.966 361.484 222.354L377.192 197.742C389.456 205.89 397.184 218.574 397.184 235.206C397.184 261.834 379.04 280.566 353.336 280.566C327.632 280.566 309.488 261.834 309.488 235.206ZM274.04 159.272L337.712 159.272L337.712 154.316L311.756 137.516L311.756 101.564L351.068 130.712L395 101.564L395 137.348L364.004 155.156L364.004 159.272L395 159.272L395 189.176L274.04 189.176L274.04 159.272Z"/>
</mask>
<path d="M277.4 533.6L275.4 533.6L275.4 535.6L277.4 535.6L277.4 533.6ZM335.948 450.86L334.162 451.761L336.213 455.825L337.819 451.566L335.948 450.86ZM395 533.6L395 535.6L397 535.6L397 533.6L395 533.6ZM348.884 501.68L346.884 501.68L346.884 503.68L348.884 503.68L348.884 501.68ZM369.044 501.68L369.044 503.68L371.036 503.68L371.044 501.688L369.044 501.68ZM369.128 479.588L371.128 479.596L371.128 479.588L369.128 479.588ZM303.44 501.68L301.44 501.68L301.44 503.68L303.44 503.68L303.44 501.68ZM323.012 501.68L323.012 503.68L325.012 503.68L325.012 501.68L323.012 501.68ZM279.4 533.6L279.4 480.848L275.4 480.848L275.4 533.6L279.4 533.6ZM279.4 480.848C279.4 465.282 282.595 454.393 288.047 447.431C293.433 440.553 301.238 437.236 311.168 437.236L311.168 433.236C300.266 433.236 291.187 436.933 284.897 444.965C278.673 452.913 275.4 464.83 275.4 480.848L279.4 480.848ZM311.168 437.236C321.742 437.236 329.838 443.19 334.162 451.761L337.734 449.959C332.818 440.218 323.442 433.236 311.168 433.236L311.168 437.236ZM337.819 451.566C341.42 442.017 350.638 434.884 361.232 434.884L361.232 430.884C348.81 430.884 338.204 439.207 334.077 450.154L337.819 451.566ZM361.232 434.884C371.171 434.884 378.979 438.166 384.362 444.943C389.807 451.799 393 462.516 393 477.824L397 477.824C397 462.052 393.725 450.299 387.494 442.455C381.201 434.532 372.125 430.884 361.232 430.884L361.232 434.884ZM393 477.824L393 533.6L397 533.6L397 477.824L393 477.824ZM395 531.6L277.4 531.6L277.4 535.6L395 535.6L395 531.6ZM346.884 479.588L346.884 501.68L350.884 501.68L350.884 479.588L346.884 479.588ZM348.884 503.68L369.044 503.68L369.044 499.68L348.884 499.68L348.884 503.68ZM371.044 501.688L371.128 479.596L367.128 479.58L367.044 501.672L371.044 501.688ZM371.128 479.588C371.128 474.824 370.264 470.861 368.214 468.047C366.079 465.117 362.881 463.728 358.964 463.728L358.964 467.728C361.851 467.728 363.735 468.691 364.981 470.402C366.312 472.229 367.128 475.196 367.128 479.588L371.128 479.588ZM358.964 463.728C355.116 463.728 351.946 465.127 349.819 468.047C347.772 470.856 346.884 474.814 346.884 479.588L350.884 479.588C350.884 475.206 351.717 472.234 353.052 470.402C354.306 468.681 356.176 467.728 358.964 467.728L358.964 463.728ZM301.44 481.52L301.44 501.68L305.44 501.68L305.44 481.52L301.44 481.52ZM303.44 503.68L323.012 503.68L323.012 499.68L303.44 499.68L303.44 503.68ZM325.012 501.68L325.012 481.604L321.012 481.604L321.012 501.68L325.012 501.68ZM325.012 481.604C325.012 477.004 324.168 473.183 322.163 470.471C320.076 467.648 316.962 466.332 313.184 466.332L313.184 470.332C315.958 470.332 317.758 471.242 318.947 472.849C320.218 474.569 321.012 477.384 321.012 481.604L325.012 481.604ZM313.184 466.332C309.44 466.332 306.35 467.654 304.277 470.462C302.286 473.161 301.44 476.958 301.44 481.52L305.44 481.52C305.44 477.346 306.232 474.549 307.496 472.838C308.678 471.236 310.46 470.332 313.184 470.332L313.184 466.332ZM274.04 391.421L274.04 389.421L272.04 389.421L272.04 391.421L274.04 391.421ZM395 391.421L397 391.421L397 389.421L395 389.421L395 391.421ZM395 421.325L395 423.325L397 423.325L397 421.325L395 421.325ZM274.04 421.325L272.04 421.325L272.04 423.325L274.04 423.325L274.04 421.325ZM274.04 393.421L395 393.421L395 389.421L274.04 389.421L274.04 393.421ZM393 391.421L393 421.325L397 421.325L397 391.421L393 391.421ZM395 419.325L274.04 419.325L274.04 423.325L395 423.325L395 419.325ZM276.04 421.325L276.04 391.421L272.04 391.421L272.04 421.325L276.04 421.325ZM311.756 291.352L311.756 289.352L309.756 289.352L309.756 291.352L311.756 291.352ZM395 291.352L397 291.352L397 289.352L395 289.352L395 291.352ZM395 320.08L395 322.08L397 322.08L397 320.08L395 320.08ZM387.692 320.08L387.692 318.08L382.454 318.08L386.359 321.571L387.692 320.08ZM319.232 320.08L320.543 321.591L324.589 318.08L319.232 318.08L319.232 320.08ZM311.756 320.08L309.756 320.08L309.756 322.08L311.756 322.08L311.756 320.08ZM311.756 293.352L395 293.352L395 289.352L311.756 289.352L311.756 293.352ZM393 291.352L393 320.08L397 320.08L397 291.352L393 291.352ZM395 318.08L387.692 318.08L387.692 322.08L395 322.08L395 318.08ZM386.359 321.571C391.482 326.151 395.184 332.834 395.184 342.76L399.184 342.76C399.184 331.686 394.99 323.921 389.025 318.589L386.359 321.571ZM395.184 342.76C395.184 363.604 376.679 378.644 353.252 378.644L353.252 382.644C378.209 382.644 399.184 366.436 399.184 342.76L395.184 342.76ZM353.252 378.644C330.001 378.644 311.488 363.611 311.488 342.676L307.488 342.676C307.488 366.429 328.455 382.644 353.252 382.644L353.252 378.644ZM311.488 342.676C311.488 332.853 315.258 326.176 320.543 321.591L317.921 318.569C311.782 323.896 307.488 331.667 307.488 342.676L311.488 342.676ZM319.232 318.08L311.756 318.08L311.756 322.08L319.232 322.08L319.232 318.08ZM313.756 320.08L313.756 291.352L309.756 291.352L309.756 320.08L313.756 320.08ZM335.292 335.032C335.292 344.853 343.062 351.816 353.336 351.816L353.336 347.816C344.962 347.816 339.292 342.346 339.292 335.032L335.292 335.032ZM353.336 351.816C363.61 351.816 371.38 344.853 371.38 335.032L367.38 335.032C367.38 342.346 361.71 347.816 353.336 347.816L353.336 351.816ZM371.38 335.032C371.38 325.21 363.61 318.248 353.336 318.248L353.336 322.248C361.71 322.248 367.38 327.717 367.38 335.032L371.38 335.032ZM353.336 318.248C343.062 318.248 335.292 325.21 335.292 335.032L339.292 335.032C339.292 327.717 344.962 322.248 353.336 322.248L353.336 318.248ZM329.648 197.826L331.34 196.76L330.249 195.029L328.544 196.158L329.648 197.826ZM345.104 222.354L346.213 224.018L347.835 222.937L346.796 221.288L345.104 222.354ZM361.484 222.354L359.798 221.278L358.747 222.924L360.369 224.014L361.484 222.354ZM377.192 197.742L378.299 196.076L376.602 194.949L375.506 196.666L377.192 197.742ZM311.488 235.206C311.488 219.294 318.837 207.383 330.752 199.493L328.544 196.158C315.595 204.732 307.488 217.853 307.488 235.206L311.488 235.206ZM327.956 198.892L343.412 223.42L346.796 221.288L331.34 196.76L327.956 198.892ZM343.995 220.69C341.175 222.569 338.974 224.685 337.488 227.223C335.992 229.777 335.292 232.635 335.292 235.878L339.292 235.878C339.292 233.24 339.852 231.1 340.939 229.245C342.036 227.372 343.741 225.666 346.213 224.018L343.995 220.69ZM335.292 235.878C335.292 240.049 336.902 244.105 340.019 247.113C343.147 250.132 347.678 251.99 353.336 251.99L353.336 247.99C348.578 247.99 345.087 246.445 342.797 244.235C340.496 242.015 339.292 239.014 339.292 235.878L335.292 235.878ZM353.336 251.99C359.011 251.99 363.542 250.211 366.67 247.253C369.793 244.3 371.38 240.298 371.38 236.13L367.38 236.13C367.38 239.269 366.195 242.197 363.921 244.347C361.652 246.493 358.161 247.99 353.336 247.99L353.336 251.99ZM371.38 236.13C371.38 229.754 368.457 224.63 362.599 220.694L360.369 224.014C365.263 227.302 367.38 231.249 367.38 236.13L371.38 236.13ZM363.17 223.43L378.878 198.818L375.506 196.666L359.798 221.278L363.17 223.43ZM376.085 199.408C387.824 207.207 395.184 219.282 395.184 235.206L399.184 235.206C399.184 217.866 391.088 204.573 378.299 196.076L376.085 199.408ZM395.184 235.206C395.184 248.058 390.812 258.881 383.461 266.481C376.115 274.076 365.685 278.566 353.336 278.566L353.336 282.566C366.691 282.566 378.185 277.69 386.337 269.262C394.484 260.838 399.184 248.982 399.184 235.206L395.184 235.206ZM353.336 278.566C340.987 278.566 330.557 274.076 323.211 266.481C315.86 258.881 311.488 248.058 311.488 235.206L307.488 235.206C307.488 248.982 312.188 260.838 320.335 269.262C328.487 277.69 339.98 282.566 353.336 282.566L353.336 278.566ZM274.04 159.272L274.04 157.272L272.04 157.272L272.04 159.272L274.04 159.272ZM337.712 159.272L337.712 161.272L339.712 161.272L339.712 159.272L337.712 159.272ZM337.712 154.316L339.712 154.316L339.712 153.229L338.799 152.637L337.712 154.316ZM311.756 137.516L309.756 137.516L309.756 138.604L310.669 139.195L311.756 137.516ZM311.756 101.564L312.947 99.9578L309.756 97.5917L309.756 101.564L311.756 101.564ZM351.068 130.712L349.877 132.319L351.004 133.155L352.174 132.379L351.068 130.712ZM395 101.564L397 101.564L397 97.8373L393.894 99.8978L395 101.564ZM395 137.348L395.996 139.083L397 138.506L397 137.348L395 137.348ZM364.004 155.156L363.008 153.422L362.004 153.999L362.004 155.156L364.004 155.156ZM364.004 159.272L362.004 159.272L362.004 161.272L364.004 161.272L364.004 159.272ZM395 159.272L397 159.272L397 157.272L395 157.272L395 159.272ZM395 189.176L395 191.176L397 191.176L397 189.176L395 189.176ZM274.04 189.176L272.04 189.176L272.04 191.176L274.04 191.176L274.04 189.176ZM274.04 161.272L337.712 161.272L337.712 157.272L274.04 157.272L274.04 161.272ZM339.712 159.272L339.712 154.316L335.712 154.316L335.712 159.272L339.712 159.272ZM338.799 152.637L312.843 135.837L310.669 139.195L336.625 155.995L338.799 152.637ZM313.756 137.516L313.756 101.564L309.756 101.564L309.756 137.516L313.756 137.516ZM310.565 103.171L349.877 132.319L352.259 129.106L312.947 99.9578L310.565 103.171ZM352.174 132.379L396.106 103.231L393.894 99.8978L349.962 129.046L352.174 132.379ZM393 101.564L393 137.348L397 137.348L397 101.564L393 101.564ZM394.004 135.614L363.008 153.422L365 156.891L395.996 139.083L394.004 135.614ZM362.004 155.156L362.004 159.272L366.004 159.272L366.004 155.156L362.004 155.156ZM364.004 161.272L395 161.272L395 157.272L364.004 157.272L364.004 161.272ZM393 159.272L393 189.176L397 189.176L397 159.272L393 159.272ZM395 187.176L274.04 187.176L274.04 191.176L395 191.176L395 187.176ZM276.04 189.176L276.04 159.272L272.04 159.272L272.04 189.176L276.04 189.176Z" fill="url(#paint1_linear_12356_11218)" mask="url(#path-3-outside-2_12356_11218)"/>
<defs>
<linearGradient id="paint0_linear_12356_11218" x1="206" y1="545.644" x2="389.1" y2="329.28" gradientUnits="userSpaceOnUse">
<stop stop-color="#FFCF92"/>
<stop offset="1" stop-color="#FFE8CB"/>
</linearGradient>
<linearGradient id="paint1_linear_12356_11218" x1="432" y1="544.958" x2="573.656" y2="342.767" gradientUnits="userSpaceOnUse">
<stop stop-color="#FFCF92"/>
<stop offset="1" stop-color="#FFE8CB"/>
</linearGradient>
</defs>
</svg>
