<svg width="57" height="522" viewBox="0 0 57 522" fill="none" xmlns="http://www.w3.org/2000/svg">
<mask id="path-1-outside-1_7159_65949" maskUnits="userSpaceOnUse" x="-2.00002" y="-2.49997" width="61" height="528" fill="black">
<rect fill="white" x="-2.00002" y="-2.49997" width="61" height="528"/>
<path d="M6.04999 489.56L9.94999 492.02C7.64 495.41 6.02 499.64 6.02 504.68C6.02 511.01 8.87 515.54 13.61 515.54C17.51 515.54 19.64 512.39 20.42 505.85L20.9 501.86C21.74 494.93 24.68 488.75 31.94 488.75C40.25 488.75 44.57 496.31 44.57 505.37C44.57 511.46 42.41 517.91 39.17 521.87L35.33 519.23C37.79 516.32 40.01 510.86 40.01 505.4C40.01 498.89 37.37 493.76 32.36 493.76C28.28 493.76 26.24 497.27 25.49 503.93L25.01 508.16C24.2 515.33 20.87 520.55 13.91 520.55C5.93 520.55 1.46 513.44 1.46 504.65C1.45999 498.26 3.35 493.43 6.04999 489.56ZM15.59 454.409L32.15 454.409C40.58 454.409 44.57 460.469 44.57 467.309C44.57 474.179 40.58 480.209 32.15 480.209L15.59 480.209L15.59 475.739L31.73 475.739C37.61 475.739 40.37 472.169 40.37 467.309C40.37 462.449 37.61 458.909 31.73 458.909L15.59 458.909L15.59 454.409ZM15.02 429.404C15.02 421.424 21.26 415.214 29.78 415.214C38.33 415.214 44.57 421.424 44.57 429.404C44.57 434.084 42.68 437.504 39.8 439.754L56 439.754L56 444.254L15.59 444.254L15.59 439.754L19.79 439.754C16.91 437.504 15.02 434.084 15.02 429.404ZM19.22 429.944C19.22 435.884 23.78 440.054 29.78 440.054C35.81 440.054 40.37 435.884 40.37 429.944C40.37 423.854 35.66 419.804 29.78 419.804C23.93 419.804 19.22 423.914 19.22 429.944ZM15.02 394.931C15.02 387.221 21.05 381.641 29.69 381.581C30.26 381.581 30.86 381.611 31.37 381.671L31.37 404.441C37.49 403.811 40.64 399.521 40.64 394.391C40.64 390.881 39.29 387.821 37.07 385.391L40.13 382.991C43.52 386.531 44.57 390.491 44.57 394.661C44.57 403.061 38.6 409.031 29.81 409.031C21.11 409.031 15.02 403.031 15.02 394.931ZM19.01 395.021C19.01 400.271 22.61 403.661 27.74 404.381L27.74 386.141C22.43 386.711 19.01 390.191 19.01 395.021ZM15.02 360.368C15.02 358.328 15.29 356.648 15.98 355.148L20.39 356.228C19.64 357.608 19.25 359.498 19.25 361.148C19.25 365.588 22.73 368.768 28.1 368.768L44 368.768L44 373.238L15.59 373.238L15.59 368.798L19.58 368.798C16.67 366.848 15.02 363.848 15.02 360.368ZM1.99999 297.043L44 297.043L44 301.393L10.28 327.403L44 327.403L44 332.233L1.99999 332.233L1.99999 327.883L35.72 301.873L1.99999 301.873L1.99999 297.043ZM15.59 281.258L44 281.258L44 285.758L15.59 285.758L15.59 281.258ZM2.32999 283.508C2.32999 281.738 3.70999 280.328 5.50998 280.328C7.30999 280.328 8.65999 281.738 8.65999 283.508C8.65999 285.308 7.30999 286.658 5.50998 286.658C3.70999 286.658 2.32999 285.308 2.32999 283.508ZM15.02 258.848C15.02 254.258 16.91 250.868 19.85 248.708L15.59 248.708L15.59 244.208L42.05 244.208C51.32 244.208 56.45 250.448 56.45 259.238C56.45 263.768 55.04 268.328 52.64 271.208L49.04 269.228C51.08 266.528 52.37 263.078 52.37 259.238C52.37 253.088 48.86 248.708 42.23 248.708L39.32 248.708C42.29 250.868 44.15 254.258 44.15 258.848C44.15 266.828 38.18 272.918 29.57 272.918C20.99 272.918 15.02 266.828 15.02 258.848ZM19.22 258.338C19.22 264.368 23.84 268.358 29.57 268.358C35.33 268.358 39.95 264.368 39.95 258.338C39.95 252.488 35.48 248.318 29.57 248.318C23.72 248.318 19.22 252.488 19.22 258.338ZM0.799984 229.227L19.55 229.227C16.25 226.887 15.02 223.167 15.02 219.717C15.02 212.697 19.52 207.867 26.39 207.867L44 207.867L44 212.337L27.86 212.337C22.46 212.337 19.28 215.337 19.28 220.527C19.28 225.297 22.58 229.227 27.98 229.227L44 229.227L44 233.727L0.799985 233.727L0.799984 229.227ZM15.59 178.812L19.64 178.812L19.64 191.082L33.98 191.082C38.42 191.082 40.37 188.742 40.37 185.442C40.37 183.252 39.56 181.122 38.36 179.472L41.75 177.372C43.37 179.502 44.57 182.322 44.57 185.802C44.57 191.922 41.21 195.552 34.07 195.552L19.64 195.552L19.64 201.762L15.59 201.762L15.59 195.552L6.55998 195.552L6.55998 191.082L15.59 191.082L15.59 178.812ZM1.99998 110.128L44 110.128L44 114.958L7.39998 114.958L39.35 129.598L39.35 134.668L7.63998 149.278L44 149.278L44 154.108L1.99998 154.108L1.99998 146.788L33.74 132.118L1.99998 117.478L1.99998 110.128ZM15.02 86.0638C15.02 77.5138 21.38 71.0938 29.78 71.0938C38.21 71.0938 44.57 77.5138 44.57 86.0638C44.57 94.6138 38.21 101.004 29.78 101.004C21.38 101.004 15.02 94.6138 15.02 86.0638ZM19.22 86.0638C19.22 91.9738 23.66 96.4438 29.78 96.4438C35.93 96.4438 40.37 91.9738 40.37 86.0638C40.37 80.1838 35.93 75.6838 29.78 75.6838C23.66 75.6838 19.22 80.1838 19.22 86.0638ZM15.02 50.72C15.02 46.04 16.94 42.59 19.82 40.34L0.799976 40.34L0.799976 35.87L44 35.87L44 40.34L39.77 40.34C42.68 42.59 44.57 46.04 44.57 50.72C44.57 58.7 38.33 64.91 29.78 64.91C21.26 64.91 15.02 58.7 15.02 50.72ZM19.22 50.18C19.22 56.27 23.93 60.35 29.78 60.35C35.66 60.35 40.37 56.21 40.37 50.18C40.37 44.27 35.81 40.07 29.78 40.07C23.78 40.07 19.22 44.27 19.22 50.18ZM15.02 13.4272C15.02 5.71722 21.05 0.137216 29.69 0.0772167C30.26 0.0772166 30.86 0.107214 31.37 0.167214L31.37 22.9372C37.49 22.3072 40.64 18.0172 40.64 12.8872C40.64 9.37722 39.29 6.31721 37.07 3.88722L40.13 1.48721C43.52 5.02721 44.57 8.98722 44.57 13.1572C44.57 21.5572 38.6 27.5272 29.81 27.5272C21.11 27.5272 15.02 21.5272 15.02 13.4272ZM19.01 13.5172C19.01 18.7672 22.61 22.1572 27.74 22.8772L27.74 4.63721C22.43 5.20722 19.01 8.68722 19.01 13.5172Z"/>
</mask>
<path d="M6.04999 489.56L7.117 487.868L5.50217 486.85L4.40974 488.416L6.04999 489.56ZM9.94999 492.02L11.6028 493.146L12.7696 491.434L11.017 490.328L9.94999 492.02ZM20.42 505.85L18.4343 505.611L18.4341 505.613L20.42 505.85ZM20.9 501.86L18.9145 501.619L18.9143 501.621L20.9 501.86ZM39.17 521.87L38.0369 523.518L39.5529 524.56L40.7179 523.136L39.17 521.87ZM35.33 519.23L33.8026 517.939L32.3761 519.626L34.1969 520.878L35.33 519.23ZM25.49 503.93L27.4772 504.156L27.4774 504.154L25.49 503.93ZM25.01 508.16L23.0228 507.934L23.0226 507.935L25.01 508.16ZM4.98299 491.252L8.88299 493.712L11.017 490.328L7.117 487.868L4.98299 491.252ZM8.29723 490.894C5.79079 494.572 4.02 499.188 4.02 504.68L8.02 504.68C8.02 500.092 9.48921 496.248 11.6028 493.146L8.29723 490.894ZM4.02 504.68C4.02 508.114 4.78857 511.257 6.38239 513.607C8.01856 516.018 10.5071 517.54 13.61 517.54L13.61 513.54C11.9729 513.54 10.6664 512.797 9.69261 511.361C8.67643 509.863 8.02 507.576 8.02 504.68L4.02 504.68ZM13.61 517.54C16.2157 517.54 18.3357 516.431 19.8263 514.29C21.223 512.284 22.0021 509.473 22.4059 506.087L18.4341 505.613C18.0579 508.767 17.382 510.801 16.5437 512.005C15.7993 513.074 14.9043 513.54 13.61 513.54L13.61 517.54ZM22.4057 506.089L22.8857 502.099L18.9143 501.621L18.4343 505.611L22.4057 506.089ZM22.8855 502.101C23.2861 498.795 24.1673 495.901 25.6319 493.88C27.024 491.959 28.9855 490.75 31.94 490.75L31.94 486.75C27.6345 486.75 24.496 488.631 22.3931 491.533C20.3627 494.334 19.3539 497.995 18.9145 501.619L22.8855 502.101ZM31.94 490.75C35.3963 490.75 37.9616 492.283 39.7335 494.811C41.5533 497.406 42.57 501.125 42.57 505.37L46.57 505.37C46.57 500.555 45.4267 495.964 43.0089 492.514C40.5434 488.997 36.7937 486.75 31.94 486.75L31.94 490.75ZM42.57 505.37C42.57 511.071 40.5271 517.053 37.6221 520.604L40.7179 523.136C44.2929 518.767 46.57 511.849 46.57 505.37L42.57 505.37ZM40.3031 520.222L36.4631 517.582L34.1969 520.878L38.0369 523.518L40.3031 520.222ZM36.8574 520.521C39.6359 517.234 42.01 511.312 42.01 505.4L38.01 505.4C38.01 510.408 35.944 515.406 33.8026 517.939L36.8574 520.521ZM42.01 505.4C42.01 501.913 41.309 498.603 39.7684 496.093C38.1829 493.509 35.6754 491.76 32.36 491.76L32.36 495.76C34.0546 495.76 35.3721 496.576 36.3591 498.185C37.391 499.867 38.01 502.377 38.01 505.4L42.01 505.4ZM32.36 491.76C29.6079 491.76 27.4632 493.01 26.0004 495.256C24.6304 497.359 23.8889 500.276 23.5026 503.706L27.4774 504.154C27.8411 500.924 28.4946 498.756 29.3521 497.439C30.1168 496.265 31.0321 495.76 32.36 495.76L32.36 491.76ZM23.5027 503.704L23.0228 507.934L26.9972 508.386L27.4772 504.156L23.5027 503.704ZM23.0226 507.935C22.6416 511.309 21.6889 513.983 20.2193 515.776C18.8137 517.491 16.8202 518.55 13.91 518.55L13.91 522.55C17.9598 522.55 21.1113 520.999 23.3132 518.311C25.4511 515.702 26.5684 512.181 26.9974 508.385L23.0226 507.935ZM13.91 518.55C10.5928 518.55 8.06411 517.105 6.30377 514.711C4.50177 512.261 3.46 508.734 3.46 504.65L-0.540005 504.65C-0.540004 509.356 0.653221 513.779 3.08122 517.081C5.55088 520.44 9.24723 522.55 13.91 522.55L13.91 518.55ZM3.46 504.65C3.45999 498.697 5.20831 494.262 7.69025 490.704L4.40974 488.416C1.49168 492.598 -0.540005 497.823 -0.540005 504.65L3.46 504.65ZM15.59 454.409L15.59 452.409L13.59 452.409L13.59 454.409L15.59 454.409ZM15.59 480.209L13.59 480.209L13.59 482.209L15.59 482.209L15.59 480.209ZM15.59 475.739L15.59 473.739L13.59 473.739L13.59 475.739L15.59 475.739ZM15.59 458.909L13.59 458.909L13.59 460.909L15.59 460.909L15.59 458.909ZM15.59 456.409L32.15 456.409L32.15 452.409L15.59 452.409L15.59 456.409ZM32.15 456.409C35.845 456.409 38.3756 457.715 40.009 459.603C41.6794 461.533 42.57 464.258 42.57 467.309L46.57 467.309C46.57 463.52 45.4656 459.795 43.0335 456.985C40.5644 454.132 36.8849 452.409 32.15 452.409L32.15 456.409ZM42.57 467.309C42.57 470.377 41.6786 473.1 40.01 475.025C38.3782 476.908 35.8483 478.209 32.15 478.209L32.15 482.209C36.8817 482.209 40.5618 480.495 43.0325 477.645C45.4664 474.838 46.57 471.111 46.57 467.309L42.57 467.309ZM32.15 478.209L15.59 478.209L15.59 482.209L32.15 482.209L32.15 478.209ZM17.59 480.209L17.59 475.739L13.59 475.739L13.59 480.209L17.59 480.209ZM15.59 477.739L31.73 477.739L31.73 473.739L15.59 473.739L15.59 477.739ZM31.73 477.739C35.0843 477.739 37.8192 476.709 39.705 474.724C41.5727 472.758 42.37 470.105 42.37 467.309L38.37 467.309C38.37 469.373 37.7873 470.935 36.805 471.969C35.8408 472.984 34.2557 473.739 31.73 473.739L31.73 477.739ZM42.37 467.309C42.37 464.513 41.5723 461.865 39.7015 459.905C37.8139 457.928 35.0794 456.909 31.73 456.909L31.73 460.909C34.2606 460.909 35.8461 461.66 36.8084 462.668C37.7876 463.693 38.37 465.245 38.37 467.309L42.37 467.309ZM31.73 456.909L15.59 456.909L15.59 460.909L31.73 460.909L31.73 456.909ZM17.59 458.909L17.59 454.409L13.59 454.409L13.59 458.909L17.59 458.909ZM39.8 439.754L38.5687 438.178L33.9914 441.754L39.8 441.754L39.8 439.754ZM56 439.754L58 439.754L58 437.754L56 437.754L56 439.754ZM56 444.254L56 446.254L58 446.254L58 444.254L56 444.254ZM15.59 444.254L13.59 444.254L13.59 446.254L15.59 446.254L15.59 444.254ZM15.59 439.754L15.59 437.754L13.59 437.754L13.59 439.754L15.59 439.754ZM19.79 439.754L19.79 441.754L25.5986 441.754L21.0213 438.178L19.79 439.754ZM17.02 429.404C17.02 422.583 22.3095 417.214 29.78 417.214L29.78 413.214C20.2105 413.214 13.02 420.265 13.02 429.404L17.02 429.404ZM29.78 417.214C37.2832 417.214 42.57 422.585 42.57 429.404L46.57 429.404C46.57 420.262 39.3768 413.214 29.78 413.214L29.78 417.214ZM42.57 429.404C42.57 433.478 40.9558 436.313 38.5687 438.178L41.0313 441.33C44.4041 438.695 46.57 434.69 46.57 429.404L42.57 429.404ZM39.8 441.754L56 441.754L56 437.754L39.8 437.754L39.8 441.754ZM54 439.754L54 444.254L58 444.254L58 439.754L54 439.754ZM56 442.254L15.59 442.254L15.59 446.254L56 446.254L56 442.254ZM17.59 444.254L17.59 439.754L13.59 439.754L13.59 444.254L17.59 444.254ZM15.59 441.754L19.79 441.754L19.79 437.754L15.59 437.754L15.59 441.754ZM21.0213 438.178C18.6341 436.313 17.02 433.478 17.02 429.404L13.02 429.404C13.02 434.69 15.1858 438.695 18.5587 441.33L21.0213 438.178ZM17.22 429.944C17.22 437.095 22.7847 442.054 29.78 442.054L29.78 438.054C24.7753 438.054 21.22 434.673 21.22 429.944L17.22 429.944ZM29.78 442.054C36.8015 442.054 42.37 437.098 42.37 429.944L38.37 429.944C38.37 434.67 34.8185 438.054 29.78 438.054L29.78 442.054ZM42.37 429.944C42.37 422.61 36.62 417.804 29.78 417.804L29.78 421.804C34.6999 421.804 38.37 425.098 38.37 429.944L42.37 429.944ZM29.78 417.804C22.9579 417.804 17.22 422.681 17.22 429.944L21.22 429.944C21.22 425.146 24.9021 421.804 29.78 421.804L29.78 417.804ZM29.69 381.581L29.69 379.581L29.6761 379.581L29.69 381.581ZM31.37 381.671L33.37 381.671L33.37 379.893L31.6037 379.685L31.37 381.671ZM31.37 404.441L29.37 404.441L29.37 406.658L31.5748 406.431L31.37 404.441ZM37.07 385.391L35.8357 383.817L34.139 385.148L35.5934 386.74L37.07 385.391ZM40.13 382.991L41.5745 381.608L40.3213 380.299L38.8957 381.417L40.13 382.991ZM27.74 404.381L27.462 406.362L29.74 406.681L29.74 404.381L27.74 404.381ZM27.74 386.141L29.74 386.141L29.74 383.915L27.5265 384.153L27.74 386.141ZM17.02 394.931C17.02 388.497 21.9779 383.635 29.7039 383.581L29.6761 379.581C20.1221 379.647 13.02 385.946 13.02 394.931L17.02 394.931ZM29.69 383.581C30.1987 383.581 30.7189 383.608 31.1363 383.657L31.6037 379.685C31.0011 379.614 30.3213 379.581 29.69 379.581L29.69 383.581ZM29.37 381.671L29.37 404.441L33.37 404.441L33.37 381.671L29.37 381.671ZM31.5748 406.431C35.0795 406.07 37.8876 404.635 39.8118 402.413C41.7237 400.205 42.64 397.364 42.64 394.391L38.64 394.391C38.64 396.548 37.9812 398.417 36.7882 399.794C35.6074 401.158 33.7805 402.182 31.1652 402.452L31.5748 406.431ZM42.64 394.391C42.64 390.334 41.0693 386.804 38.5466 384.042L35.5934 386.74C37.5106 388.839 38.64 391.428 38.64 394.391L42.64 394.391ZM38.3043 386.965L41.3643 384.565L38.8957 381.417L35.8357 383.817L38.3043 386.965ZM38.6855 384.374C41.6362 387.456 42.57 390.873 42.57 394.661L46.57 394.661C46.57 390.109 45.4038 385.607 41.5745 381.608L38.6855 384.374ZM42.57 394.661C42.57 398.373 41.2598 401.435 39.0855 403.569C36.9096 405.704 33.7421 407.031 29.81 407.031L29.81 411.031C34.6678 411.031 38.8804 409.374 41.887 406.424C44.8951 403.472 46.57 399.349 46.57 394.661L42.57 394.661ZM29.81 407.031C22.1421 407.031 17.02 401.855 17.02 394.931L13.02 394.931C13.02 404.207 20.0779 411.031 29.81 411.031L29.81 407.031ZM17.01 395.021C17.01 398.132 18.0893 400.8 20.0135 402.79C21.9189 404.76 24.5392 405.951 27.462 406.362L28.018 402.401C25.8107 402.091 24.0661 401.227 22.8889 400.01C21.7307 398.812 21.01 397.16 21.01 395.021L17.01 395.021ZM29.74 404.381L29.74 386.141L25.74 386.141L25.74 404.381L29.74 404.381ZM27.5265 384.153C24.4886 384.479 21.8509 385.655 19.9575 387.582C18.0516 389.52 17.01 392.11 17.01 395.021L21.01 395.021C21.01 393.102 21.6784 391.537 22.81 390.386C23.9541 389.222 25.6814 388.374 27.9535 388.13L27.5265 384.153ZM15.98 355.148L16.4557 353.206L14.8527 352.813L14.163 354.312L15.98 355.148ZM20.39 356.228L22.1472 357.183L23.3865 354.903L20.8657 354.286L20.39 356.228ZM44 368.768L46 368.768L46 366.768L44 366.768L44 368.768ZM44 373.238L44 375.238L46 375.238L46 373.238L44 373.238ZM15.59 373.238L13.59 373.238L13.59 375.238L15.59 375.238L15.59 373.238ZM15.59 368.798L15.59 366.798L13.59 366.798L13.59 368.798L15.59 368.798ZM19.58 368.798L19.58 370.798L26.1574 370.798L20.6933 367.137L19.58 368.798ZM17.02 360.368C17.02 358.5 17.2682 357.134 17.797 355.984L14.163 354.312C13.3118 356.163 13.02 358.156 13.02 360.368L17.02 360.368ZM15.5043 357.091L19.9143 358.171L20.8657 354.286L16.4557 353.206L15.5043 357.091ZM18.6327 355.273C17.6888 357.01 17.25 359.246 17.25 361.148L21.25 361.148C21.25 359.751 21.5912 358.206 22.1472 357.183L18.6327 355.273ZM17.25 361.148C17.25 363.923 18.3526 366.384 20.3435 368.128C22.3152 369.855 25.0255 370.768 28.1 370.768L28.1 366.768C25.8045 366.768 24.0898 366.092 22.979 365.119C21.8874 364.163 21.25 362.814 21.25 361.148L17.25 361.148ZM28.1 370.768L44 370.768L44 366.768L28.1 366.768L28.1 370.768ZM42 368.768L42 373.238L46 373.238L46 368.768L42 368.768ZM44 371.238L15.59 371.238L15.59 375.238L44 375.238L44 371.238ZM17.59 373.238L17.59 368.798L13.59 368.798L13.59 373.238L17.59 373.238ZM15.59 370.798L19.58 370.798L19.58 366.798L15.59 366.798L15.59 370.798ZM20.6933 367.137C18.3185 365.545 17.02 363.159 17.02 360.368L13.02 360.368C13.02 364.538 15.0214 368.151 18.4666 370.46L20.6933 367.137ZM1.99999 297.043L1.99999 295.043L-1.38287e-05 295.043L-1.37413e-05 297.043L1.99999 297.043ZM44 297.043L46 297.043L46 295.043L44 295.043L44 297.043ZM44 301.393L45.2215 302.977L46 302.376L46 301.393L44 301.393ZM10.28 327.403L9.05846 325.819L4.41256 329.403L10.28 329.403L10.28 327.403ZM44 327.403L46 327.403L46 325.403L44 325.403L44 327.403ZM44 332.233L44 334.233L46 334.233L46 332.233L44 332.233ZM1.99999 332.233L-1.22031e-05 332.233L-1.21156e-05 334.233L1.99999 334.233L1.99999 332.233ZM1.99999 327.883L0.778457 326.299L-1.24362e-05 326.9L-1.23932e-05 327.883L1.99999 327.883ZM35.72 301.873L36.9415 303.457L41.5874 299.873L35.72 299.873L35.72 301.873ZM1.99999 301.873L-1.35301e-05 301.873L-1.34427e-05 303.873L1.99999 303.873L1.99999 301.873ZM1.99999 299.043L44 299.043L44 295.043L1.99999 295.043L1.99999 299.043ZM42 297.043L42 301.393L46 301.393L46 297.043L42 297.043ZM42.7785 299.809L9.05846 325.819L11.5015 328.987L45.2215 302.977L42.7785 299.809ZM10.28 329.403L44 329.403L44 325.403L10.28 325.403L10.28 329.403ZM42 327.403L42 332.233L46 332.233L46 327.403L42 327.403ZM44 330.233L1.99999 330.233L1.99999 334.233L44 334.233L44 330.233ZM3.99999 332.233L3.99999 327.883L-1.23932e-05 327.883L-1.22031e-05 332.233L3.99999 332.233ZM3.22152 329.467L36.9415 303.457L34.4985 300.289L0.778457 326.299L3.22152 329.467ZM35.72 299.873L1.99999 299.873L1.99999 303.873L35.72 303.873L35.72 299.873ZM3.99999 301.873L3.99999 297.043L-1.37413e-05 297.043L-1.35301e-05 301.873L3.99999 301.873ZM15.59 281.258L15.59 279.258L13.59 279.258L13.59 281.258L15.59 281.258ZM44 281.258L46 281.258L46 279.258L44 279.258L44 281.258ZM44 285.758L44 287.758L46 287.758L46 285.758L44 285.758ZM15.59 285.758L13.59 285.758L13.59 287.758L15.59 287.758L15.59 285.758ZM15.59 283.258L44 283.258L44 279.258L15.59 279.258L15.59 283.258ZM42 281.258L42 285.758L46 285.758L46 281.258L42 281.258ZM44 283.758L15.59 283.758L15.59 287.758L44 287.758L44 283.758ZM17.59 285.758L17.59 281.258L13.59 281.258L13.59 285.758L17.59 285.758ZM4.32999 283.508C4.32999 282.83 4.8269 282.328 5.50998 282.328L5.50998 278.328C2.59307 278.328 0.329986 280.646 0.329987 283.508L4.32999 283.508ZM5.50998 282.328C6.16826 282.328 6.65999 282.805 6.65999 283.508L10.66 283.508C10.66 280.671 8.45171 278.328 5.50998 278.328L5.50998 282.328ZM6.65999 283.508C6.65999 284.203 6.20542 284.658 5.50998 284.658L5.50998 288.658C8.41456 288.658 10.66 286.412 10.66 283.508L6.65999 283.508ZM5.50998 284.658C4.7895 284.658 4.32999 284.178 4.32999 283.508L0.329987 283.508C0.329987 286.437 2.63047 288.658 5.50998 288.658L5.50998 284.658ZM19.85 248.708L21.0341 250.32L25.9502 246.708L19.85 246.708L19.85 248.708ZM15.59 248.708L13.59 248.708L13.59 250.708L15.59 250.708L15.59 248.708ZM15.59 244.208L15.59 242.208L13.59 242.208L13.59 244.208L15.59 244.208ZM52.64 271.208L51.6761 272.96L53.1209 273.755L54.1764 272.488L52.64 271.208ZM49.04 269.228L47.4443 268.022L46.0509 269.866L48.0761 270.98L49.04 269.228ZM39.32 248.708L39.32 246.708L33.1696 246.708L38.1436 250.325L39.32 248.708ZM17.02 258.848C17.02 254.871 18.6252 252.089 21.0341 250.32L18.6658 247.096C15.1948 249.646 13.02 253.644 13.02 258.848L17.02 258.848ZM19.85 246.708L15.59 246.708L15.59 250.708L19.85 250.708L19.85 246.708ZM17.59 248.708L17.59 244.208L13.59 244.208L13.59 248.708L17.59 248.708ZM15.59 246.208L42.05 246.208L42.05 242.208L15.59 242.208L15.59 246.208ZM42.05 246.208C46.2134 246.208 49.2465 247.594 51.2531 249.779C53.2814 251.988 54.45 255.222 54.45 259.238L58.45 259.238C58.45 254.463 57.0536 250.182 54.1994 247.074C51.3234 243.942 47.1566 242.208 42.05 242.208L42.05 246.208ZM54.45 259.238C54.45 263.424 53.133 267.492 51.1035 269.927L54.1764 272.488C56.9469 269.164 58.45 264.111 58.45 259.238L54.45 259.238ZM53.6038 269.455L50.0038 267.475L48.0761 270.98L51.6761 272.96L53.6038 269.455ZM50.6357 270.433C52.9251 267.403 54.37 263.534 54.37 259.238L50.37 259.238C50.37 262.622 49.2349 265.652 47.4443 268.022L50.6357 270.433ZM54.37 259.238C54.37 255.795 53.3848 252.635 51.2614 250.316C49.1142 247.971 46.007 246.708 42.23 246.708L42.23 250.708C45.0829 250.708 47.0457 251.635 48.3111 253.017C49.6002 254.425 50.37 256.531 50.37 259.238L54.37 259.238ZM42.23 246.708L39.32 246.708L39.32 250.708L42.23 250.708L42.23 246.708ZM38.1436 250.325C40.5679 252.088 42.15 254.862 42.15 258.848L46.15 258.848C46.15 253.654 44.012 249.647 40.4963 247.09L38.1436 250.325ZM42.15 258.848C42.15 265.687 37.1117 270.918 29.57 270.918L29.57 274.918C39.2483 274.918 46.15 267.968 46.15 258.848L42.15 258.848ZM29.57 270.918C22.061 270.918 17.02 265.69 17.02 258.848L13.02 258.848C13.02 267.966 19.9189 274.918 29.57 274.918L29.57 270.918ZM17.22 258.338C17.22 265.595 22.8623 270.358 29.57 270.358L29.57 266.358C24.8176 266.358 21.22 263.14 21.22 258.338L17.22 258.338ZM29.57 270.358C36.3037 270.358 41.95 265.599 41.95 258.338L37.95 258.338C37.95 263.137 34.3562 266.358 29.57 266.358L29.57 270.358ZM41.95 258.338C41.95 251.299 36.4979 246.318 29.57 246.318L29.57 250.318C34.4621 250.318 37.95 253.677 37.95 258.338L41.95 258.338ZM29.57 246.318C22.7021 246.318 17.22 251.299 17.22 258.338L21.22 258.338C21.22 253.677 24.7379 250.318 29.57 250.318L29.57 246.318ZM0.799984 229.227L0.799984 227.227L-1.20002 227.227L-1.20002 229.227L0.799984 229.227ZM19.55 229.227L19.55 231.227L25.8281 231.227L20.7068 227.595L19.55 229.227ZM44 207.867L46 207.867L46 205.867L44 205.867L44 207.867ZM44 212.337L44 214.337L46 214.337L46 212.337L44 212.337ZM44 229.227L46 229.227L46 227.227L44 227.227L44 229.227ZM44 233.727L44 235.727L46 235.727L46 233.727L44 233.727ZM0.799985 233.727L-1.20002 233.727L-1.20002 235.727L0.799985 235.727L0.799985 233.727ZM0.799984 231.227L19.55 231.227L19.55 227.227L0.799984 227.227L0.799984 231.227ZM20.7068 227.595C18.0877 225.738 17.02 222.73 17.02 219.717L13.02 219.717C13.02 223.603 14.4123 228.035 18.3931 230.858L20.7068 227.595ZM17.02 219.717C17.02 216.636 18.0013 214.195 19.5777 212.538C21.1447 210.891 23.443 209.867 26.39 209.867L26.39 205.867C22.467 205.867 19.0803 207.257 16.6798 209.78C14.2887 212.294 13.02 215.777 13.02 219.717L17.02 219.717ZM26.39 209.867L44 209.867L44 205.867L26.39 205.867L26.39 209.867ZM42 207.867L42 212.337L46 212.337L46 207.867L42 207.867ZM44 210.337L27.86 210.337L27.86 214.337L44 214.337L44 210.337ZM27.86 210.337C24.7998 210.337 22.1059 211.191 20.1663 213.036C18.2129 214.895 17.28 217.516 17.28 220.527L21.28 220.527C21.28 218.347 21.9371 216.873 22.9236 215.934C23.924 214.982 25.5201 214.337 27.86 214.337L27.86 210.337ZM17.28 220.527C17.28 223.372 18.2676 226.056 20.1551 228.043C22.0574 230.045 24.7688 231.227 27.98 231.227L27.98 227.227C25.7912 227.227 24.1526 226.443 23.0549 225.288C21.9424 224.117 21.28 222.451 21.28 220.527L17.28 220.527ZM27.98 231.227L44 231.227L44 227.227L27.98 227.227L27.98 231.227ZM42 229.227L42 233.727L46 233.727L46 229.227L42 229.227ZM44 231.727L0.799985 231.727L0.799985 235.727L44 235.727L44 231.727ZM2.79999 233.727L2.79999 229.227L-1.20002 229.227L-1.20002 233.727L2.79999 233.727ZM15.59 178.812L15.59 176.812L13.59 176.812L13.59 178.812L15.59 178.812ZM19.64 178.812L21.64 178.812L21.64 176.812L19.64 176.812L19.64 178.812ZM19.64 191.082L17.64 191.082L17.64 193.082L19.64 193.082L19.64 191.082ZM38.36 179.472L37.3068 177.771L35.4755 178.906L36.7425 180.648L38.36 179.472ZM41.75 177.372L43.3419 176.161L42.2417 174.714L40.6968 175.671L41.75 177.372ZM19.64 195.552L19.64 193.552L17.64 193.552L17.64 195.552L19.64 195.552ZM19.64 201.762L19.64 203.762L21.64 203.762L21.64 201.762L19.64 201.762ZM15.59 201.762L13.59 201.762L13.59 203.762L15.59 203.762L15.59 201.762ZM15.59 195.552L17.59 195.552L17.59 193.552L15.59 193.552L15.59 195.552ZM6.55998 195.552L4.55998 195.552L4.55998 197.552L6.55998 197.552L6.55998 195.552ZM6.55998 191.082L6.55998 189.082L4.55998 189.082L4.55998 191.082L6.55998 191.082ZM15.59 191.082L15.59 193.082L17.59 193.082L17.59 191.082L15.59 191.082ZM15.59 180.812L19.64 180.812L19.64 176.812L15.59 176.812L15.59 180.812ZM17.64 178.812L17.64 191.082L21.64 191.082L21.64 178.812L17.64 178.812ZM19.64 193.082L33.98 193.082L33.98 189.082L19.64 189.082L19.64 193.082ZM33.98 193.082C36.5371 193.082 38.6966 192.404 40.2227 190.944C41.7585 189.475 42.37 187.483 42.37 185.442L38.37 185.442C38.37 186.7 38.0065 187.529 37.4573 188.054C36.8984 188.589 35.8629 189.082 33.98 189.082L33.98 193.082ZM42.37 185.442C42.37 182.773 41.391 180.239 39.9775 178.295L36.7425 180.648C37.729 182.004 38.37 183.73 38.37 185.442L42.37 185.442ZM39.4132 181.172L42.8032 179.072L40.6968 175.671L37.3068 177.771L39.4132 181.172ZM40.1581 178.582C41.545 180.406 42.57 182.808 42.57 185.802L46.57 185.802C46.57 181.835 45.195 178.597 43.3419 176.161L40.1581 178.582ZM42.57 185.802C42.57 188.506 41.834 190.35 40.6084 191.533C39.3718 192.726 37.3226 193.552 34.07 193.552L34.07 197.552C37.9574 197.552 41.1582 196.562 43.3866 194.41C45.626 192.249 46.57 189.218 46.57 185.802L42.57 185.802ZM34.07 193.552L19.64 193.552L19.64 197.552L34.07 197.552L34.07 193.552ZM17.64 195.552L17.64 201.762L21.64 201.762L21.64 195.552L17.64 195.552ZM19.64 199.762L15.59 199.762L15.59 203.762L19.64 203.762L19.64 199.762ZM17.59 201.762L17.59 195.552L13.59 195.552L13.59 201.762L17.59 201.762ZM15.59 193.552L6.55998 193.552L6.55998 197.552L15.59 197.552L15.59 193.552ZM8.55998 195.552L8.55998 191.082L4.55998 191.082L4.55998 195.552L8.55998 195.552ZM6.55998 193.082L15.59 193.082L15.59 189.082L6.55998 189.082L6.55998 193.082ZM17.59 191.082L17.59 178.812L13.59 178.812L13.59 191.082L17.59 191.082ZM1.99998 110.128L1.99998 108.128L-2.1999e-05 108.128L-2.19116e-05 110.128L1.99998 110.128ZM44 110.128L46 110.128L46 108.128L44 108.128L44 110.128ZM44 114.958L44 116.958L46 116.958L46 114.958L44 114.958ZM7.39998 114.958L7.39998 112.958L6.56685 116.776L7.39998 114.958ZM39.35 129.598L41.35 129.598L41.35 128.314L40.1831 127.78L39.35 129.598ZM39.35 134.668L40.1869 136.484L41.35 135.949L41.35 134.668L39.35 134.668ZM7.63998 149.278L6.80306 147.462L7.63998 151.278L7.63998 149.278ZM44 149.278L46 149.278L46 147.278L44 147.278L44 149.278ZM44 154.108L44 156.108L46 156.108L46 154.108L44 154.108ZM1.99998 154.108L-1.99892e-05 154.108L-1.99017e-05 156.108L1.99998 156.108L1.99998 154.108ZM1.99998 146.788L1.16088 144.973L-2.0365e-05 145.509L-2.03091e-05 146.788L1.99998 146.788ZM33.74 132.118L34.5791 133.933L38.511 132.116L34.5777 130.302L33.74 132.118ZM1.99998 117.478L-2.15903e-05 117.478L-2.15344e-05 118.758L1.1623 119.294L1.99998 117.478ZM1.99998 112.128L44 112.128L44 108.128L1.99998 108.128L1.99998 112.128ZM42 110.128L42 114.958L46 114.958L46 110.128L42 110.128ZM44 112.958L7.39998 112.958L7.39998 116.958L44 116.958L44 112.958ZM6.56685 116.776L38.5168 131.416L40.1831 127.78L8.23311 113.14L6.56685 116.776ZM37.35 129.598L37.35 134.668L41.35 134.668L41.35 129.598L37.35 129.598ZM38.5131 132.852L6.80306 147.462L8.4769 151.094L40.1869 136.484L38.5131 132.852ZM7.63998 151.278L44 151.278L44 147.278L7.63998 147.278L7.63998 151.278ZM42 149.278L42 154.108L46 154.108L46 149.278L42 149.278ZM44 152.108L1.99998 152.108L1.99998 156.108L44 156.108L44 152.108ZM3.99998 154.108L3.99998 146.788L-2.03091e-05 146.788L-1.99892e-05 154.108L3.99998 154.108ZM2.83907 148.603L34.5791 133.933L32.9009 130.303L1.16088 144.973L2.83907 148.603ZM34.5777 130.302L2.83766 115.662L1.1623 119.294L32.9023 133.934L34.5777 130.302ZM3.99998 117.478L3.99998 110.128L-2.19116e-05 110.128L-2.15903e-05 117.478L3.99998 117.478ZM17.02 86.0638C17.02 78.5943 22.5084 73.0938 29.78 73.0938L29.78 69.0938C20.2515 69.0938 13.02 76.4332 13.02 86.0638L17.02 86.0638ZM29.78 73.0938C37.0842 73.0938 42.57 78.597 42.57 86.0638L46.57 86.0638C46.57 76.4305 39.3358 69.0938 29.78 69.0938L29.78 73.0938ZM42.57 86.0638C42.57 93.5252 37.0895 99.0038 29.78 99.0038L29.78 103.004C39.3305 103.004 46.57 95.7023 46.57 86.0638L42.57 86.0638ZM29.78 99.0038C22.5032 99.0038 17.02 93.5279 17.02 86.0638L13.02 86.0638C13.02 95.6996 20.2568 103.004 29.78 103.004L29.78 99.0038ZM17.22 86.0638C17.22 93.0973 22.5744 98.4438 29.78 98.4438L29.78 94.4438C24.7455 94.4438 21.22 90.8503 21.22 86.0638L17.22 86.0638ZM29.78 98.4438C37.0118 98.4438 42.37 93.101 42.37 86.0638L38.37 86.0638C38.37 90.8466 34.8482 94.4438 29.78 94.4438L29.78 98.4438ZM42.37 86.0638C42.37 79.0603 37.0156 73.6838 29.78 73.6838L29.78 77.6838C34.8444 77.6838 38.37 81.3072 38.37 86.0638L42.37 86.0638ZM29.78 73.6838C22.5706 73.6838 17.22 79.0641 17.22 86.0638L21.22 86.0638C21.22 81.3035 24.7494 77.6838 29.78 77.6838L29.78 73.6838ZM19.82 40.34L21.0513 41.9161L25.6286 38.34L19.82 38.34L19.82 40.34ZM0.799976 40.34L-1.20002 40.34L-1.20002 42.34L0.799976 42.34L0.799976 40.34ZM0.799976 35.87L0.799976 33.87L-1.20002 33.87L-1.20002 35.87L0.799976 35.87ZM44 35.87L46 35.87L46 33.87L44 33.87L44 35.87ZM44 40.34L44 42.34L46 42.34L46 40.34L44 40.34ZM39.77 40.34L39.77 38.34L33.9136 38.34L38.5466 41.9222L39.77 40.34ZM17.02 50.72C17.02 46.6512 18.6599 43.7843 21.0513 41.9161L18.5887 38.764C15.22 41.3957 13.02 45.4288 13.02 50.72L17.02 50.72ZM19.82 38.34L0.799976 38.34L0.799976 42.34L19.82 42.34L19.82 38.34ZM2.79998 40.34L2.79998 35.87L-1.20002 35.87L-1.20002 40.34L2.79998 40.34ZM0.799976 37.87L44 37.87L44 33.87L0.799976 33.87L0.799976 37.87ZM42 35.87L42 40.34L46 40.34L46 35.87L42 35.87ZM44 38.34L39.77 38.34L39.77 42.34L44 42.34L44 38.34ZM38.5466 41.9222C40.9533 43.7831 42.57 46.642 42.57 50.72L46.57 50.72C46.57 45.438 44.4066 41.397 40.9933 38.7578L38.5466 41.9222ZM42.57 50.72C42.57 57.5385 37.2832 62.91 29.78 62.91L29.78 66.91C39.3768 66.91 46.57 59.8615 46.57 50.72L42.57 50.72ZM29.78 62.91C22.3095 62.91 17.02 57.5412 17.02 50.72L13.02 50.72C13.02 59.8589 20.2105 66.91 29.78 66.91L29.78 62.91ZM17.22 50.18C17.22 57.5026 22.9579 62.35 29.78 62.35L29.78 58.35C24.9021 58.35 21.22 55.0375 21.22 50.18L17.22 50.18ZM29.78 62.35C36.6364 62.35 42.37 57.4385 42.37 50.18L38.37 50.18C38.37 54.9815 34.6835 58.35 29.78 58.35L29.78 62.35ZM42.37 50.18C42.37 43.0595 36.8055 38.07 29.78 38.07L29.78 42.07C34.8144 42.07 38.37 45.4806 38.37 50.18L42.37 50.18ZM29.78 38.07C22.7806 38.07 17.22 43.0631 17.22 50.18L21.22 50.18C21.22 45.4769 24.7794 42.07 29.78 42.07L29.78 38.07ZM29.69 0.0772388L29.69 -1.92282L29.6761 -1.92276L29.69 0.0772388ZM31.37 0.167205L33.37 0.167204L33.37 -1.6113L31.6037 -1.81906L31.37 0.167205ZM31.37 22.9372L29.37 22.9372L29.37 25.1537L31.5748 24.9267L31.37 22.9372ZM37.07 3.88724L35.8357 2.31351L34.139 3.64426L35.5934 5.23617L37.07 3.88724ZM40.13 1.48721L41.5745 0.103911L40.3213 -1.20462L38.8957 -0.0865189L40.13 1.48721ZM27.74 22.8772L27.462 24.8578L29.74 25.1775L29.74 22.8772L27.74 22.8772ZM27.74 4.63724L29.74 4.63724L29.74 2.41104L27.5265 2.64865L27.74 4.63724ZM17.02 13.4272C17.02 6.99271 21.9779 2.13083 29.7039 2.07718L29.6761 -1.92276C20.1221 -1.85642 13.02 4.44174 13.02 13.4272L17.02 13.4272ZM29.69 2.07724C30.1986 2.07724 30.7189 2.1044 31.1363 2.15353L31.6037 -1.81906C31.0011 -1.88999 30.3213 -1.92276 29.69 -1.92276L29.69 2.07724ZM29.37 0.167205L29.37 22.9372L33.37 22.9372L33.37 0.167204L29.37 0.167205ZM31.5748 24.9267C35.0795 24.5659 37.8876 23.1307 39.8118 20.9091C41.7237 18.7016 42.64 15.8604 42.64 12.8872L38.64 12.8872C38.64 15.044 37.9812 16.9129 36.7882 18.2903C35.6074 19.6537 33.7804 20.6785 31.1652 20.9477L31.5748 24.9267ZM42.64 12.8872C42.64 8.82986 41.0693 5.29965 38.5466 2.53824L35.5934 5.23617C37.5106 7.33475 38.64 9.92459 38.64 12.8872L42.64 12.8872ZM38.3043 5.46091L41.3643 3.06094L38.8957 -0.0865189L35.8357 2.31351L38.3043 5.46091ZM38.6855 2.87051C41.6362 5.95175 42.57 9.36905 42.57 13.1572L46.57 13.1572C46.57 8.60537 45.4038 4.10269 41.5745 0.103911L38.6855 2.87051ZM42.57 13.1572C42.57 16.8692 41.2598 19.9312 39.0855 22.0646C36.9096 24.1996 33.7421 25.5272 29.81 25.5272L29.81 29.5272C34.6678 29.5272 38.8804 27.8698 41.8869 24.9198C44.8951 21.9682 46.57 17.8452 46.57 13.1572L42.57 13.1572ZM29.81 25.5272C22.1421 25.5272 17.02 20.3516 17.02 13.4272L13.02 13.4272C13.02 22.7029 20.0779 29.5272 29.81 29.5272L29.81 25.5272ZM17.01 13.5172C17.01 16.628 18.0892 19.2965 20.0135 21.2863C21.9188 23.2565 24.5392 24.4476 27.462 24.8578L28.018 20.8966C25.8107 20.5869 24.0661 19.7229 22.8889 18.5056C21.7307 17.308 21.01 15.6565 21.01 13.5172L17.01 13.5172ZM29.74 22.8772L29.74 4.63724L25.74 4.63724L25.74 22.8772L29.74 22.8772ZM27.5265 2.64865C24.4886 2.97476 21.8509 4.15152 19.9574 6.07767C18.0516 8.01651 17.01 10.6061 17.01 13.5172L21.01 13.5172C21.01 11.5983 21.6784 10.0329 22.81 8.88174C23.954 7.71792 25.6814 6.86966 27.9534 6.62576L27.5265 2.64865Z" fill="url(#paint0_linear_7159_65949)" mask="url(#path-1-outside-1_7159_65949)"/>
<defs>
<linearGradient id="paint0_linear_7159_65949" x1="57" y1="529.056" x2="187.066" y2="474.017" gradientUnits="userSpaceOnUse">
<stop stop-color="#FFCF92"/>
<stop offset="1" stop-color="#FFE8CB"/>
</linearGradient>
</defs>
</svg>
