<svg width="12" height="12" viewBox="0 0 12 12" fill="none" xmlns="http://www.w3.org/2000/svg">
<path d="M11.5 5.99832C11.5012 6.15951 11.4522 6.31708 11.3598 6.44913C11.2674 6.58118 11.1361 6.68116 10.9842 6.73515L7.8679 7.8684L6.73515 10.9842C6.67932 11.1346 6.57879 11.2643 6.44708 11.3559C6.31536 11.4475 6.15876 11.4966 5.99832 11.4966C5.83788 11.4966 5.68129 11.4475 5.54957 11.3559C5.41785 11.2643 5.31733 11.1346 5.2615 10.9842L4.12874 7.8679L1.01245 6.73515C0.862038 6.67932 0.732315 6.5788 0.640708 6.44708C0.549102 6.31536 0.5 6.15876 0.5 5.99832C0.5 5.83788 0.549102 5.68129 0.640708 5.54957C0.732315 5.41785 0.862038 5.31733 1.01245 5.2615L4.12874 4.12875L5.2615 1.01245C5.31733 0.862038 5.41785 0.732315 5.54957 0.640708C5.68129 0.549102 5.83788 0.5 5.99832 0.5C6.15876 0.5 6.31536 0.549102 6.44708 0.640708C6.57879 0.732315 6.67932 0.862038 6.73515 1.01245L7.86839 4.12875L10.9842 5.2615C11.1361 5.31549 11.2674 5.41547 11.3598 5.54752C11.4522 5.67957 11.5012 5.83714 11.5 5.99832Z" fill="url(#paint0_linear_11889_6366)"/>
<defs>
<linearGradient id="paint0_linear_11889_6366" x1="0.42605" y1="11.4966" x2="7.25503" y2="13.6938" gradientUnits="userSpaceOnUse">
<stop stop-color="#FFCF92"/>
<stop offset="1" stop-color="#FFE8CB"/>
</linearGradient>
</defs>
</svg>
