<svg width="54" height="329" viewBox="0 0 54 329" fill="none" xmlns="http://www.w3.org/2000/svg">
<mask id="path-1-outside-1_7159_65955" maskUnits="userSpaceOnUse" x="-2.00002" y="-1.99998" width="58" height="333" fill="black">
<rect fill="white" x="-2.00002" y="-1.99998" width="58" height="333"/>
<path d="M-5.41119e-06 294.84L4.56 294.84L4.56 309.42L42 309.42L42 314.22L4.56 314.22L4.56 328.8L-3.92676e-06 328.8L-5.41119e-06 294.84ZM13.59 283.98L42 283.98L42 288.48L13.59 288.48L13.59 283.98ZM0.329995 286.23C0.329995 284.46 1.71 283.05 3.50999 283.05C5.31 283.05 6.65999 284.46 6.65999 286.23C6.65999 288.03 5.31 289.38 3.50999 289.38C1.71 289.38 0.329995 288.03 0.329995 286.23ZM13.02 238.11C13.02 231.06 17.52 226.23 24.39 226.23L42 226.23L42 230.7L25.86 230.7C20.46 230.7 17.28 233.7 17.28 238.92C17.28 243.69 20.58 247.62 25.98 247.62L42 247.62L42 252.09L25.86 252.09C20.46 252.09 17.28 255.09 17.28 260.28C17.28 265.05 20.58 268.98 25.98 268.98L42 268.98L42 273.48L13.59 273.48L13.59 269.04L17.64 269.04C14.25 266.73 13.02 262.95 13.02 259.47C13.02 254.52 15.27 250.65 18.99 248.82C14.58 246.54 13.02 242.1 13.02 238.11ZM13.02 204.119C13.02 196.409 19.05 190.829 27.69 190.769C28.26 190.769 28.86 190.799 29.37 190.859L29.37 213.629C35.49 212.999 38.64 208.709 38.64 203.579C38.64 200.069 37.29 197.009 35.07 194.579L38.13 192.179C41.52 195.719 42.57 199.679 42.57 203.849C42.57 212.249 36.6 218.219 27.81 218.219C19.11 218.219 13.02 212.219 13.02 204.119ZM17.01 204.209C17.01 209.459 20.61 212.849 25.74 213.569L25.74 195.329C20.43 195.899 17.01 199.379 17.01 204.209ZM37.44 136.49L42 136.49L42 165.62L-1.10596e-05 165.62L-1.12707e-05 160.79L37.44 160.79L37.44 136.49ZM13.59 103.28L42 103.28L42 107.75L37.77 107.75C40.68 110 42.57 113.45 42.57 118.13C42.57 126.11 36.33 132.32 27.78 132.32C19.26 132.32 13.02 126.11 13.02 118.13C13.02 113.45 14.94 110 17.82 107.75L13.59 107.75L13.59 103.28ZM17.22 117.59C17.22 123.68 21.93 127.76 27.78 127.76C33.66 127.76 38.37 123.62 38.37 117.59C38.37 111.68 33.81 107.48 27.78 107.48C21.78 107.48 17.22 111.68 17.22 117.59ZM13.02 77.9274C13.02 69.9474 19.26 63.7374 27.78 63.7374C36.33 63.7374 42.57 69.9474 42.57 77.9274C42.57 82.6074 40.68 86.0274 37.8 88.2774L54 88.2774L54 92.7774L13.59 92.7774L13.59 88.2774L17.79 88.2774C14.91 86.0274 13.02 82.6074 13.02 77.9274ZM17.22 78.4674C17.22 84.4074 21.78 88.5774 27.78 88.5774C33.81 88.5774 38.37 84.4074 38.37 78.4674C38.37 72.3774 33.66 68.3274 27.78 68.3274C21.93 68.3274 17.22 72.4374 17.22 78.4674ZM16.14 34.3645L19.62 36.3145C18.36 38.1445 16.95 41.7745 16.95 45.6145C16.95 49.6645 18.66 52.3345 21.42 52.3345C23.79 52.3345 24.96 50.2645 25.41 46.5445L25.83 43.1845C26.61 37.1545 29.1 33.6445 33.75 33.6445C39.15 33.6445 42.54 38.5045 42.54 46.1545C42.54 49.8145 41.64 54.4045 38.91 58.0045L35.55 55.9345C37.23 53.7745 38.64 50.8945 38.64 46.0945C38.64 41.2945 37.05 38.2645 34.05 38.2645C31.77 38.2645 30.39 40.1845 29.91 44.2045L29.52 47.5945C28.74 53.9845 25.89 56.9845 21.66 56.9845C16.29 56.9845 13.05 52.4545 13.05 45.6445C13.05 41.1745 14.31 37.0945 16.14 34.3645ZM13.02 13.8647C13.02 6.1547 19.05 0.574705 27.69 0.514705C28.26 0.514705 28.86 0.544703 29.37 0.604702L29.37 23.3747C35.49 22.7447 38.64 18.4547 38.64 13.3247C38.64 9.8147 37.29 6.7547 35.07 4.3247L38.13 1.9247C41.52 5.4647 42.57 9.4247 42.57 13.5947C42.57 21.9947 36.6 27.9647 27.81 27.9647C19.11 27.9647 13.02 21.9647 13.02 13.8647ZM17.01 13.9547C17.01 19.2047 20.61 22.5947 25.74 23.3147L25.74 5.0747C20.43 5.6447 17.01 9.1247 17.01 13.9547Z"/>
</mask>
<path d="M-6.36487e-06 294.84L-6.45229e-06 292.84L-2.00001 292.84L-2.00001 294.84L-6.36487e-06 294.84ZM4.56 294.84L6.56 294.84L6.56 292.84L4.56 292.84L4.56 294.84ZM4.56 309.42L2.56 309.42L2.56 311.42L4.56 311.42L4.56 309.42ZM42 309.42L44 309.42L44 307.42L42 307.42L42 309.42ZM42 314.22L42 316.22L44 316.22L44 314.22L42 314.22ZM4.56 314.22L4.56 312.22L2.56 312.22L2.56 314.22L4.56 314.22ZM4.56 328.8L4.56 330.8L6.56 330.8L6.56 328.8L4.56 328.8ZM-4.88043e-06 328.8L-2 328.8L-2 330.8L-4.79301e-06 330.8L-4.88043e-06 328.8ZM-6.27745e-06 296.84L4.56 296.84L4.56 292.84L-6.45229e-06 292.84L-6.27745e-06 296.84ZM2.56 294.84L2.56 309.42L6.56 309.42L6.56 294.84L2.56 294.84ZM4.56 311.42L42 311.42L42 307.42L4.56 307.42L4.56 311.42ZM40 309.42L40 314.22L44 314.22L44 309.42L40 309.42ZM42 312.22L4.56 312.22L4.56 316.22L42 316.22L42 312.22ZM2.56 314.22L2.56 328.8L6.56 328.8L6.56 314.22L2.56 314.22ZM4.56 326.8L-4.96785e-06 326.8L-4.79301e-06 330.8L4.56 330.8L4.56 326.8ZM2 328.8L1.99999 294.84L-2.00001 294.84L-2 328.8L2 328.8ZM13.59 283.98L13.59 281.98L11.59 281.98L11.59 283.98L13.59 283.98ZM42 283.98L44 283.98L44 281.98L42 281.98L42 283.98ZM42 288.48L42 290.48L44 290.48L44 288.48L42 288.48ZM13.59 288.48L11.59 288.48L11.59 290.48L13.59 290.48L13.59 288.48ZM13.59 285.98L42 285.98L42 281.98L13.59 281.98L13.59 285.98ZM40 283.98L40 288.48L44 288.48L44 283.98L40 283.98ZM42 286.48L13.59 286.48L13.59 290.48L42 290.48L42 286.48ZM15.59 288.48L15.59 283.98L11.59 283.98L11.59 288.48L15.59 288.48ZM2.32999 286.23C2.32999 285.553 2.82691 285.05 3.50999 285.05L3.50999 281.05C0.593081 281.05 -1.67 283.368 -1.67 286.23L2.32999 286.23ZM3.50999 285.05C4.16827 285.05 4.65999 285.528 4.65999 286.23L8.65999 286.23C8.65999 283.393 6.45172 281.05 3.50999 281.05L3.50999 285.05ZM4.65999 286.23C4.65999 286.926 4.20543 287.38 3.50999 287.38L3.50999 291.38C6.41456 291.38 8.65999 289.135 8.65999 286.23L4.65999 286.23ZM3.50999 287.38C2.78951 287.38 2.32999 286.901 2.32999 286.23L-1.67 286.23C-1.67 289.16 0.630483 291.38 3.50999 291.38L3.50999 287.38ZM42 226.23L44 226.23L44 224.23L42 224.23L42 226.23ZM42 230.7L42 232.7L44 232.7L44 230.7L42 230.7ZM42 247.62L44 247.62L44 245.62L42 245.62L42 247.62ZM42 252.09L42 254.09L44 254.09L44 252.09L42 252.09ZM42 268.98L44 268.98L44 266.98L42 266.98L42 268.98ZM42 273.48L42 275.48L44 275.48L44 273.48L42 273.48ZM13.59 273.48L11.59 273.48L11.59 275.48L13.59 275.48L13.59 273.48ZM13.59 269.04L13.59 267.04L11.59 267.04L11.59 269.04L13.59 269.04ZM17.64 269.04L17.64 271.04L24.1268 271.04L18.7662 267.388L17.64 269.04ZM18.99 248.82L19.8728 250.615L23.4307 248.865L19.9085 247.044L18.99 248.82ZM15.02 238.11C15.02 235.013 16.0026 232.564 17.5789 230.904C19.1456 229.254 21.4431 228.23 24.39 228.23L24.39 224.23C20.4668 224.23 17.0794 225.621 14.6785 228.149C12.2873 230.667 11.02 234.158 11.02 238.11L15.02 238.11ZM24.39 228.23L42 228.23L42 224.23L24.39 224.23L24.39 228.23ZM40 226.23L40 230.7L44 230.7L44 226.23L40 226.23ZM42 228.7L25.86 228.7L25.86 232.7L42 232.7L42 228.7ZM25.86 228.7C22.7998 228.7 20.1046 229.555 18.1644 231.406C16.211 233.27 15.28 235.898 15.28 238.92L19.28 238.92C19.28 236.723 19.939 235.241 20.9256 234.3C21.9254 233.346 23.5202 232.7 25.86 232.7L25.86 228.7ZM15.28 238.92C15.28 241.766 16.2676 244.45 18.1551 246.437C20.0574 248.439 22.7688 249.62 25.98 249.62L25.98 245.62C23.7912 245.62 22.1526 244.837 21.0549 243.682C19.9424 242.511 19.28 240.845 19.28 238.92L15.28 238.92ZM25.98 249.62L42 249.62L42 245.62L25.98 245.62L25.98 249.62ZM40 247.62L40 252.09L44 252.09L44 247.62L40 247.62ZM42 250.09L25.86 250.09L25.86 254.09L42 254.09L42 250.09ZM25.86 250.09C22.7998 250.09 20.1059 250.945 18.1663 252.79C16.2129 254.649 15.28 257.27 15.28 260.28L19.28 260.28C19.28 258.101 19.9371 256.627 20.9237 255.688C21.924 254.736 23.5202 254.09 25.86 254.09L25.86 250.09ZM15.28 260.28C15.28 263.126 16.2676 265.81 18.1551 267.797C20.0574 269.799 22.7688 270.98 25.98 270.98L25.98 266.98C23.7912 266.98 22.1526 266.197 21.0549 265.042C19.9424 263.871 19.28 262.205 19.28 260.28L15.28 260.28ZM25.98 270.98L42 270.98L42 266.98L25.98 266.98L25.98 270.98ZM40 268.98L40 273.48L44 273.48L44 268.98L40 268.98ZM42 271.48L13.59 271.48L13.59 275.48L42 275.48L42 271.48ZM15.59 273.48L15.59 269.04L11.59 269.04L11.59 273.48L15.59 273.48ZM13.59 271.04L17.64 271.04L17.64 267.04L13.59 267.04L13.59 271.04ZM18.7662 267.388C16.0928 265.566 15.02 262.525 15.02 259.47L11.02 259.47C11.02 263.376 12.4072 267.895 16.5138 270.693L18.7662 267.388ZM15.02 259.47C15.02 255.147 16.9503 252.053 19.8728 250.615L18.1072 247.026C13.5897 249.248 11.02 253.894 11.02 259.47L15.02 259.47ZM19.9085 247.044C16.3831 245.221 15.02 241.638 15.02 238.11L11.02 238.11C11.02 242.563 12.7769 247.86 18.0715 250.597L19.9085 247.044ZM27.69 190.769L27.69 188.769L27.6761 188.769L27.69 190.769ZM29.37 190.859L31.37 190.859L31.37 189.08L29.6037 188.872L29.37 190.859ZM29.37 213.629L27.37 213.629L27.37 215.845L29.5748 215.618L29.37 213.629ZM35.07 194.579L33.8357 193.005L32.139 194.336L33.5934 195.928L35.07 194.579ZM38.13 192.179L39.5745 190.795L38.3213 189.487L36.8957 190.605L38.13 192.179ZM25.74 213.569L25.462 215.549L27.74 215.869L27.74 213.569L25.74 213.569ZM25.74 195.329L27.74 195.329L27.74 193.102L25.5265 193.34L25.74 195.329ZM15.02 204.119C15.02 197.684 19.9779 192.822 27.7039 192.769L27.6761 188.769C18.1221 188.835 11.02 195.133 11.02 204.119L15.02 204.119ZM27.69 192.769C28.1987 192.769 28.7189 192.796 29.1363 192.845L29.6037 188.872C29.0011 188.801 28.3213 188.769 27.69 188.769L27.69 192.769ZM27.37 190.859L27.37 213.629L31.37 213.629L31.37 190.859L27.37 190.859ZM29.5748 215.618C33.0795 215.257 35.8876 213.822 37.8118 211.6C39.7238 209.393 40.64 206.552 40.64 203.579L36.64 203.579C36.64 205.735 35.9812 207.604 34.7882 208.982C33.6074 210.345 31.7805 211.37 29.1652 211.639L29.5748 215.618ZM40.64 203.579C40.64 199.521 39.0693 195.991 36.5466 193.23L33.5934 195.928C35.5106 198.026 36.64 200.616 36.64 203.579L40.64 203.579ZM36.3043 196.152L39.3643 193.752L36.8957 190.605L33.8357 193.005L36.3043 196.152ZM36.6855 193.562C39.6362 196.643 40.57 200.06 40.57 203.849L44.57 203.849C44.57 199.297 43.4038 194.794 39.5745 190.795L36.6855 193.562ZM40.57 203.849C40.57 207.561 39.2598 210.623 37.0855 212.756C34.9096 214.891 31.7421 216.219 27.81 216.219L27.81 220.219C32.6678 220.219 36.8804 218.561 39.887 215.611C42.8951 212.66 44.57 208.537 44.57 203.849L40.57 203.849ZM27.81 216.219C20.1421 216.219 15.02 211.043 15.02 204.119L11.02 204.119C11.02 213.394 18.0779 220.219 27.81 220.219L27.81 216.219ZM15.01 204.209C15.01 207.319 16.0893 209.988 18.0135 211.978C19.9189 213.948 22.5392 215.139 25.462 215.549L26.018 211.588C23.8107 211.278 22.0661 210.414 20.8889 209.197C19.7307 207.999 19.01 206.348 19.01 204.209L15.01 204.209ZM27.74 213.569L27.74 195.329L23.74 195.329L23.74 213.569L27.74 213.569ZM25.5265 193.34C22.4886 193.666 19.8509 194.843 17.9575 196.769C16.0516 198.708 15.01 201.298 15.01 204.209L19.01 204.209C19.01 202.29 19.6784 200.724 20.81 199.573C21.9541 198.409 23.6814 197.561 25.9535 197.317L25.5265 193.34ZM37.44 136.49L37.44 134.49L35.44 134.49L35.44 136.49L37.44 136.49ZM42 136.49L44 136.49L44 134.49L42 134.49L42 136.49ZM42 165.62L42 167.62L44 167.62L44 165.62L42 165.62ZM-1.20133e-05 165.62L-2.00001 165.62L-2.00001 167.62L-1.19258e-05 167.62L-1.20133e-05 165.62ZM-1.22244e-05 160.79L-1.23118e-05 158.79L-2.00001 158.79L-2.00001 160.79L-1.22244e-05 160.79ZM37.44 160.79L37.44 162.79L39.44 162.79L39.44 160.79L37.44 160.79ZM37.44 138.49L42 138.49L42 134.49L37.44 134.49L37.44 138.49ZM40 136.49L40 165.62L44 165.62L44 136.49L40 136.49ZM42 163.62L-1.21007e-05 163.62L-1.19258e-05 167.62L42 167.62L42 163.62ZM1.99999 165.62L1.99999 160.79L-2.00001 160.79L-2.00001 165.62L1.99999 165.62ZM-1.2137e-05 162.79L37.44 162.79L37.44 158.79L-1.23118e-05 158.79L-1.2137e-05 162.79ZM39.44 160.79L39.44 136.49L35.44 136.49L35.44 160.79L39.44 160.79ZM13.59 103.28L13.59 101.28L11.59 101.28L11.59 103.28L13.59 103.28ZM42 103.28L44 103.28L44 101.28L42 101.28L42 103.28ZM42 107.75L42 109.75L44 109.75L44 107.75L42 107.75ZM37.77 107.75L37.77 105.75L31.9136 105.75L36.5466 109.332L37.77 107.75ZM17.82 107.75L19.0513 109.326L23.6286 105.75L17.82 105.75L17.82 107.75ZM13.59 107.75L11.59 107.75L11.59 109.75L13.59 109.75L13.59 107.75ZM13.59 105.28L42 105.28L42 101.28L13.59 101.28L13.59 105.28ZM40 103.28L40 107.75L44 107.75L44 103.28L40 103.28ZM42 105.75L37.77 105.75L37.77 109.75L42 109.75L42 105.75ZM36.5466 109.332C38.9533 111.193 40.57 114.052 40.57 118.13L44.57 118.13C44.57 112.848 42.4066 108.807 38.9933 106.168L36.5466 109.332ZM40.57 118.13C40.57 124.949 35.2832 130.32 27.78 130.32L27.78 134.32C37.3768 134.32 44.57 127.272 44.57 118.13L40.57 118.13ZM27.78 130.32C20.3095 130.32 15.02 124.951 15.02 118.13L11.02 118.13C11.02 127.269 18.2105 134.32 27.78 134.32L27.78 130.32ZM15.02 118.13C15.02 114.061 16.6599 111.194 19.0513 109.326L16.5887 106.174C13.2201 108.806 11.02 112.839 11.02 118.13L15.02 118.13ZM17.82 105.75L13.59 105.75L13.59 109.75L17.82 109.75L17.82 105.75ZM15.59 107.75L15.59 103.28L11.59 103.28L11.59 107.75L15.59 107.75ZM15.22 117.59C15.22 124.913 20.9579 129.76 27.78 129.76L27.78 125.76C22.9021 125.76 19.22 122.448 19.22 117.59L15.22 117.59ZM27.78 129.76C34.6364 129.76 40.37 124.849 40.37 117.59L36.37 117.59C36.37 122.392 32.6835 125.76 27.78 125.76L27.78 129.76ZM40.37 117.59C40.37 110.47 34.8055 105.48 27.78 105.48L27.78 109.48C32.8144 109.48 36.37 112.891 36.37 117.59L40.37 117.59ZM27.78 105.48C20.7806 105.48 15.22 110.473 15.22 117.59L19.22 117.59C19.22 112.887 22.7794 109.48 27.78 109.48L27.78 105.48ZM37.8 88.2774L36.5687 86.7013L31.9914 90.2774L37.8 90.2774L37.8 88.2774ZM54 88.2774L56 88.2774L56 86.2774L54 86.2774L54 88.2774ZM54 92.7774L54 94.7774L56 94.7774L56 92.7774L54 92.7774ZM13.59 92.7774L11.59 92.7774L11.59 94.7774L13.59 94.7774L13.59 92.7774ZM13.59 88.2774L13.59 86.2774L11.59 86.2774L11.59 88.2774L13.59 88.2774ZM17.79 88.2774L17.79 90.2774L23.5986 90.2774L19.0213 86.7013L17.79 88.2774ZM15.02 77.9274C15.02 71.1062 20.3095 65.7373 27.78 65.7373L27.78 61.7373C18.2105 61.7373 11.02 68.7885 11.02 77.9274L15.02 77.9274ZM27.78 65.7373C35.2832 65.7373 40.57 71.1088 40.57 77.9274L44.57 77.9273C44.57 68.7859 37.3768 61.7373 27.78 61.7373L27.78 65.7373ZM40.57 77.9274C40.57 82.0015 38.9558 84.8364 36.5687 86.7013L39.0313 89.8534C42.4041 87.2183 44.57 83.2132 44.57 77.9273L40.57 77.9274ZM37.8 90.2774L54 90.2774L54 86.2774L37.8 86.2774L37.8 90.2774ZM52 88.2774L52 92.7774L56 92.7774L56 88.2774L52 88.2774ZM54 90.7774L13.59 90.7774L13.59 94.7774L54 94.7774L54 90.7774ZM15.59 92.7774L15.59 88.2774L11.59 88.2774L11.59 92.7774L15.59 92.7774ZM13.59 90.2774L17.79 90.2774L17.79 86.2774L13.59 86.2774L13.59 90.2774ZM19.0213 86.7013C16.6341 84.8364 15.02 82.0015 15.02 77.9274L11.02 77.9274C11.02 83.2132 13.1858 87.2184 16.5587 89.8534L19.0213 86.7013ZM15.22 78.4674C15.22 85.6181 20.7847 90.5774 27.78 90.5774L27.78 86.5774C22.7753 86.5774 19.22 83.1966 19.22 78.4674L15.22 78.4674ZM27.78 90.5774C34.8015 90.5774 40.37 85.6217 40.37 78.4674L36.37 78.4674C36.37 83.193 32.8185 86.5774 27.78 86.5774L27.78 90.5774ZM40.37 78.4674C40.37 71.1336 34.62 66.3273 27.78 66.3273L27.78 70.3273C32.6999 70.3273 36.37 73.6211 36.37 78.4674L40.37 78.4674ZM27.78 66.3273C20.9579 66.3273 15.22 71.2048 15.22 78.4674L19.22 78.4674C19.22 73.6699 22.9021 70.3273 27.78 70.3273L27.78 66.3273ZM16.14 34.3645L17.1176 32.6198L15.5068 31.7172L14.4787 33.2509L16.14 34.3645ZM19.62 36.3146L21.2673 37.4487L22.5112 35.642L20.5976 34.5698L19.62 36.3146ZM25.41 46.5445L23.4254 46.2965L23.4245 46.3044L25.41 46.5445ZM25.83 43.1846L23.8465 42.928L23.8454 42.9365L25.83 43.1846ZM38.91 58.0045L37.8609 59.7074L39.4066 60.6596L40.5036 59.213L38.91 58.0045ZM35.55 55.9346L33.9713 54.7067L32.6018 56.4674L34.5009 57.6373L35.55 55.9346ZM29.91 44.2045L27.9241 43.9674L27.9231 43.976L29.91 44.2045ZM29.52 47.5946L31.5053 47.8369L31.5069 47.8231L29.52 47.5946ZM15.1623 36.1093L18.6423 38.0593L20.5976 34.5698L17.1176 32.6198L15.1623 36.1093ZM17.9727 35.1803C16.4896 37.3343 14.95 41.3579 14.95 45.6145L18.95 45.6145C18.95 42.1911 20.2304 38.9548 21.2673 37.4487L17.9727 35.1803ZM14.95 45.6145C14.95 47.8867 15.4247 49.9903 16.4793 51.5928C17.5791 53.2638 19.2929 54.3345 21.42 54.3345L21.42 50.3345C20.787 50.3345 20.2659 50.0703 19.8206 49.3938C19.3303 48.6487 18.95 47.3924 18.95 45.6145L14.95 45.6145ZM21.42 54.3345C23.3261 54.3345 24.8189 53.4371 25.8069 51.9321C26.7061 50.5624 27.1581 48.747 27.3955 46.7847L23.4245 46.3044C23.2118 48.0621 22.8539 49.1417 22.4631 49.737C22.161 50.197 21.8839 50.3345 21.42 50.3345L21.42 54.3345ZM27.3945 46.7926L27.8145 43.4326L23.8454 42.9365L23.4254 46.2965L27.3945 46.7926ZM27.8135 43.4411C28.1808 40.6014 28.9232 38.6279 29.9022 37.4005C30.8077 36.2654 32.0069 35.6445 33.75 35.6445L33.75 31.6445C30.8431 31.6445 28.4723 32.7787 26.7752 34.9061C25.1518 36.9412 24.2592 39.7377 23.8465 42.928L27.8135 43.4411ZM33.75 35.6445C35.7658 35.6445 37.3655 36.5148 38.5325 38.1791C39.7466 39.9105 40.54 42.593 40.54 46.1546L44.54 46.1546C44.54 42.0661 43.6384 38.4935 41.8075 35.8826C39.9295 33.2043 37.1342 31.6445 33.75 31.6445L33.75 35.6445ZM40.54 46.1546C40.54 49.5472 39.6961 53.6579 37.3164 56.7961L40.5036 59.213C43.5838 55.1512 44.54 50.0819 44.54 46.1546L40.54 46.1546ZM39.959 56.3017L36.599 54.2318L34.5009 57.6373L37.8609 59.7074L39.959 56.3017ZM37.1287 57.1624C39.065 54.6728 40.64 51.3657 40.64 46.0946L36.64 46.0946C36.64 50.4234 35.3949 52.8763 33.9713 54.7067L37.1287 57.1624ZM40.64 46.0946C40.64 43.5223 40.2218 41.1715 39.2082 39.3904C38.1346 37.5037 36.3727 36.2645 34.05 36.2645L34.05 40.2645C34.7272 40.2645 35.2604 40.5404 35.7317 41.3687C36.2632 42.3026 36.64 43.8668 36.64 46.0946L40.64 46.0946ZM34.05 36.2645C32.2326 36.2645 30.7176 37.0834 29.6683 38.5776C28.701 39.9549 28.1801 41.8231 27.9241 43.9674L31.8959 44.4417C32.1198 42.566 32.529 41.4642 32.9417 40.8765C33.2723 40.4057 33.5874 40.2645 34.05 40.2645L34.05 36.2645ZM27.9231 43.976L27.5331 47.366L31.5069 47.8231L31.8969 44.4331L27.9231 43.976ZM27.5347 47.3522C27.1714 50.3286 26.3542 52.2401 25.3707 53.3779C24.4455 54.4482 23.2476 54.9845 21.66 54.9845L21.66 58.9845C24.3024 58.9845 26.6445 58.0209 28.3968 55.9937C30.0908 54.0339 31.0886 51.2505 31.5052 47.8369L27.5347 47.3522ZM21.66 54.9845C19.6065 54.9845 18.0478 54.1503 16.9438 52.6717C15.7944 51.1324 15.05 48.7605 15.05 45.6445L11.05 45.6445C11.05 49.3386 11.9256 52.6367 13.7387 55.0649C15.5972 57.5538 18.3434 58.9845 21.66 58.9845L21.66 54.9845ZM15.05 45.6445C15.05 41.5156 16.2211 37.8355 17.8013 35.4782L14.4787 33.2509C12.3989 36.3536 11.05 40.8335 11.05 45.6445L15.05 45.6445ZM27.69 0.514697L27.69 -1.48533L27.6761 -1.48524L27.69 0.514697ZM29.37 0.604693L31.37 0.604693L31.37 -1.17381L29.6037 -1.3816L29.37 0.604693ZM29.37 23.3747L27.37 23.3747L27.37 25.5911L29.5748 25.3642L29.37 23.3747ZM35.07 4.32469L33.8357 2.75099L32.139 4.08171L33.5934 5.67366L35.07 4.32469ZM38.13 1.9247L39.5745 0.54143L38.3213 -0.767164L36.8957 0.351L38.13 1.9247ZM25.74 23.3147L25.462 25.2953L27.74 25.615L27.74 23.3147L25.74 23.3147ZM25.74 5.07469L27.74 5.07469L27.74 2.84853L25.5265 3.08614L25.74 5.07469ZM15.02 13.8647C15.02 7.43019 19.9779 2.56832 27.7039 2.51467L27.6761 -1.48524C18.1221 -1.4189 11.02 4.8792 11.02 13.8647L15.02 13.8647ZM27.69 2.5147C28.1987 2.5147 28.7189 2.54189 29.1363 2.59099L29.6037 -1.3816C29.0011 -1.4525 28.3213 -1.4853 27.69 -1.4853L27.69 2.5147ZM27.37 0.604693L27.37 23.3747L31.37 23.3747L31.37 0.604693L27.37 0.604693ZM29.5748 25.3642C33.0795 25.0034 35.8876 23.5682 37.8118 21.3466C39.7237 19.1391 40.64 16.2979 40.64 13.3247L36.64 13.3247C36.64 15.4815 35.9812 17.3504 34.7882 18.7278C33.6074 20.0912 31.7804 21.116 29.1652 21.3852L29.5748 25.3642ZM40.64 13.3247C40.64 9.26732 39.0693 5.73714 36.5466 2.97573L33.5934 5.67366C35.5106 7.77226 36.64 10.3621 36.64 13.3247L40.64 13.3247ZM36.3043 5.89842L39.3643 3.4984L36.8957 0.351L33.8357 2.75099L36.3043 5.89842ZM36.6855 3.30797C39.6362 6.38924 40.57 9.80654 40.57 13.5947L44.57 13.5947C44.57 9.04286 43.4038 4.54018 39.5745 0.54143L36.6855 3.30797ZM40.57 13.5947C40.57 17.3067 39.2598 20.3687 37.0855 22.5021C34.9096 24.6371 31.7421 25.9647 27.81 25.9647L27.81 29.9647C32.6678 29.9647 36.8804 28.3073 39.887 25.3573C42.8951 22.4057 44.57 18.2827 44.57 13.5947L40.57 13.5947ZM27.81 25.9647C20.1421 25.9647 15.02 20.789 15.02 13.8647L11.02 13.8647C11.02 23.1404 18.0779 29.9647 27.81 29.9647L27.81 25.9647ZM15.01 13.9547C15.01 17.0655 16.0893 19.734 18.0135 21.7238C19.9188 23.694 22.5392 24.8851 25.462 25.2953L26.018 21.3341C23.8107 21.0243 22.0661 20.1604 20.8889 18.9431C19.7307 17.7454 19.01 16.094 19.01 13.9547L15.01 13.9547ZM27.74 23.3147L27.74 5.07469L23.74 5.07469L23.74 23.3147L27.74 23.3147ZM25.5265 3.08614C22.4886 3.41225 19.8509 4.58898 17.9575 6.51515C16.0516 8.45397 15.01 11.0436 15.01 13.9547L19.01 13.9547C19.01 12.0358 19.6784 10.4704 20.81 9.31926C21.9541 8.15544 23.6814 7.30718 25.9534 7.06328L25.5265 3.08614Z" fill="url(#paint0_linear_7159_65955)" mask="url(#path-1-outside-1_7159_65955)"/>
<defs>
<linearGradient id="paint0_linear_7159_65955" x1="55" y1="332.239" x2="160.626" y2="261.234" gradientUnits="userSpaceOnUse">
<stop stop-color="#FFCF92"/>
<stop offset="1" stop-color="#FFE8CB"/>
</linearGradient>
</defs>
</svg>
