<svg width="116" height="143" viewBox="0 0 116 143" fill="none" xmlns="http://www.w3.org/2000/svg">
<g style="mix-blend-mode:exclusion">
<mask id="path-1-outside-1_7159_67168" maskUnits="userSpaceOnUse" x="9.99999" y="0.0546938" width="39" height="144" fill="black">
<rect fill="white" x="9.99999" y="0.0546938" width="39" height="144"/>
<path d="M13.4 89.9267L47 99.5267L47 110.279L27.344 115.895L47 121.511L47 132.263L13.4 141.863L13.4 132.479L35.936 126.743L13.4 120.695L13.4 110.975L35.96 104.927L13.4 99.1907L13.4 89.9267ZM12.392 79.1102L25.088 79.1102C23.408 77.7662 22.568 75.7742 22.568 73.0862C22.568 68.1662 26.048 64.5902 31.52 64.5902L47 64.5902L47 73.1342L34.208 73.1342C31.832 73.1342 30.56 74.2622 30.56 76.1342C30.56 77.7902 31.64 79.1102 34.256 79.1102L47 79.1102L47 87.6542L12.392 87.6542L12.392 79.1102ZM23.216 51.9696L47 51.9696L47 60.5136L23.216 60.5136L23.216 51.9696ZM11.36 56.2656C11.36 53.5056 13.496 51.3696 16.256 51.3696C19.016 51.3696 21.152 53.5056 21.152 56.2656C21.152 59.0256 19.016 61.1616 16.256 61.1616C13.496 61.1616 11.36 59.0256 11.36 56.2656ZM23.216 28.6824L30.752 28.6824L30.752 36.4104L36.32 36.4104C38.888 36.4104 39.68 35.0664 39.68 33.2184C39.68 31.8984 38.864 30.4584 38.24 29.3544L44.864 26.4984C46.52 28.8744 47.624 31.2504 47.624 35.4264C47.624 42.1944 43.472 44.9544 37.64 44.9544L30.752 44.9544L30.752 49.2744L23.216 49.2744L23.216 44.9544L16.4 44.9544L16.4 36.4104L23.216 36.4104L23.216 28.6824ZM22.568 13.8429C22.568 6.64294 27.656 1.69894 35.096 1.67494C35.912 1.67494 37.16 1.74694 37.64 1.84294L37.64 17.3709C39.56 16.7949 40.52 15.3549 40.52 13.0989C40.52 11.5629 39.872 9.90694 38.6 8.61094L43.496 2.75494C45.992 5.05894 47.624 8.80294 47.624 13.5069C47.624 21.1149 42.68 26.2029 35.312 26.2029C27.776 26.2029 22.568 21.1629 22.568 13.8429ZM29.744 13.7949C29.744 15.6189 30.632 16.7949 32.48 17.3469L32.48 10.1949C30.632 10.8189 29.744 12.0189 29.744 13.7949Z"/>
</mask>
<path d="M13.4 89.9267L13.6747 88.9652L12.4 88.601L12.4 89.9267L13.4 89.9267ZM47 99.5267L48 99.5267L48 98.7724L47.2747 98.5652L47 99.5267ZM47 110.279L47.2747 111.24L48 111.033L48 110.279L47 110.279ZM27.344 115.895L27.0693 114.933L23.7039 115.895L27.0693 116.856L27.344 115.895ZM47 121.511L48 121.511L48 120.756L47.2747 120.549L47 121.511ZM47 132.263L47.2747 133.224L48 133.017L48 132.263L47 132.263ZM13.4 141.863L12.4 141.863L12.4 143.188L13.6747 142.824L13.4 141.863ZM13.4 132.479L13.1533 131.51L12.4 131.701L12.4 132.479L13.4 132.479ZM35.936 126.743L36.1827 127.712L39.8895 126.768L36.1952 125.777L35.936 126.743ZM13.4 120.695L12.4 120.695L12.4 121.462L13.1408 121.661L13.4 120.695ZM13.4 110.975L13.1411 110.009L12.4 110.207L12.4 110.975L13.4 110.975ZM35.96 104.927L36.2189 105.893L39.9174 104.901L36.2064 103.958L35.96 104.927ZM13.4 99.1907L12.4 99.1907L12.4 99.9682L13.1536 100.16L13.4 99.1907ZM13.1253 90.8882L46.7253 100.488L47.2747 98.5652L13.6747 88.9652L13.1253 90.8882ZM46 99.5267L46 110.279L48 110.279L48 99.5267L46 99.5267ZM46.7253 109.317L27.0693 114.933L27.6187 116.856L47.2747 111.24L46.7253 109.317ZM27.0693 116.856L46.7253 122.472L47.2747 120.549L27.6187 114.933L27.0693 116.856ZM46 121.511L46 132.263L48 132.263L48 121.511L46 121.511ZM46.7253 131.301L13.1253 140.901L13.6747 142.824L47.2747 133.224L46.7253 131.301ZM14.4 141.863L14.4 132.479L12.4 132.479L12.4 141.863L14.4 141.863ZM13.6467 133.448L36.1827 127.712L35.6893 125.774L13.1533 131.51L13.6467 133.448ZM36.1952 125.777L13.6592 119.729L13.1408 121.661L35.6768 127.709L36.1952 125.777ZM14.4 120.695L14.4 110.975L12.4 110.975L12.4 120.695L14.4 120.695ZM13.6589 111.941L36.2189 105.893L35.7011 103.961L13.1411 110.009L13.6589 111.941ZM36.2064 103.958L13.6464 98.2215L13.1536 100.16L35.7136 105.896L36.2064 103.958ZM14.4 99.1907L14.4 89.9267L12.4 89.9267L12.4 99.1907L14.4 99.1907ZM12.392 79.1102L12.392 78.1102L11.392 78.1102L11.392 79.1102L12.392 79.1102ZM25.088 79.1102L25.088 80.1102L27.9388 80.1102L25.7127 78.3293L25.088 79.1102ZM47 64.5902L48 64.5902L48 63.5902L47 63.5902L47 64.5902ZM47 73.1342L47 74.1342L48 74.1342L48 73.1342L47 73.1342ZM47 79.1102L48 79.1102L48 78.1102L47 78.1102L47 79.1102ZM47 87.6542L47 88.6542L48 88.6542L48 87.6542L47 87.6542ZM12.392 87.6542L11.392 87.6542L11.392 88.6542L12.392 88.6542L12.392 87.6542ZM12.392 80.1102L25.088 80.1102L25.088 78.1102L12.392 78.1102L12.392 80.1102ZM25.7127 78.3293C24.3258 77.2198 23.568 75.55 23.568 73.0862L21.568 73.0862C21.568 75.9984 22.4902 78.3126 24.4633 79.8911L25.7127 78.3293ZM23.568 73.0862C23.568 70.8687 24.3476 69.0128 25.6886 67.7106C27.0304 66.4077 29.0061 65.5902 31.52 65.5902L31.52 63.5902C28.5619 63.5902 26.0616 64.5607 24.2954 66.2758C22.5284 67.9916 21.568 70.3837 21.568 73.0862L23.568 73.0862ZM31.52 65.5902L47 65.5902L47 63.5902L31.52 63.5902L31.52 65.5902ZM46 64.5902L46 73.1342L48 73.1342L48 64.5902L46 64.5902ZM47 72.1342L34.208 72.1342L34.208 74.1342L47 74.1342L47 72.1342ZM34.208 72.1342C32.8764 72.1342 31.7048 72.4491 30.8502 73.1661C29.9703 73.9044 29.56 74.9568 29.56 76.1342L31.56 76.1342C31.56 75.4396 31.7857 74.992 32.1357 74.6983C32.5112 74.3833 33.1636 74.1342 34.208 74.1342L34.208 72.1342ZM29.56 76.1342C29.56 77.185 29.9091 78.2228 30.7582 78.9867C31.5953 79.7396 32.7893 80.1102 34.256 80.1102L34.256 78.1102C33.1067 78.1102 32.4527 77.8208 32.0958 77.4997C31.7509 77.1895 31.56 76.7394 31.56 76.1342L29.56 76.1342ZM34.256 80.1102L47 80.1102L47 78.1102L34.256 78.1102L34.256 80.1102ZM46 79.1102L46 87.6542L48 87.6542L48 79.1102L46 79.1102ZM47 86.6542L12.392 86.6542L12.392 88.6542L47 88.6542L47 86.6542ZM13.392 87.6542L13.392 79.1102L11.392 79.1102L11.392 87.6542L13.392 87.6542ZM23.216 51.9696L23.216 50.9696L22.216 50.9696L22.216 51.9696L23.216 51.9696ZM47 51.9696L48 51.9696L48 50.9696L47 50.9696L47 51.9696ZM47 60.5136L47 61.5136L48 61.5136L48 60.5136L47 60.5136ZM23.216 60.5136L22.216 60.5136L22.216 61.5136L23.216 61.5136L23.216 60.5136ZM23.216 52.9696L47 52.9696L47 50.9696L23.216 50.9696L23.216 52.9696ZM46 51.9696L46 60.5136L48 60.5136L48 51.9696L46 51.9696ZM47 59.5136L23.216 59.5136L23.216 61.5136L47 61.5136L47 59.5136ZM24.216 60.5136L24.216 51.9696L22.216 51.9696L22.216 60.5136L24.216 60.5136ZM12.36 56.2656C12.36 54.0579 14.0483 52.3696 16.256 52.3696L16.256 50.3696C12.9437 50.3696 10.36 52.9533 10.36 56.2656L12.36 56.2656ZM16.256 52.3696C18.4637 52.3696 20.152 54.0579 20.152 56.2656L22.152 56.2656C22.152 52.9533 19.5683 50.3696 16.256 50.3696L16.256 52.3696ZM20.152 56.2656C20.152 58.4733 18.4637 60.1616 16.256 60.1616L16.256 62.1616C19.5683 62.1616 22.152 59.5779 22.152 56.2656L20.152 56.2656ZM16.256 60.1616C14.0483 60.1616 12.36 58.4733 12.36 56.2656L10.36 56.2656C10.36 59.5779 12.9437 62.1616 16.256 62.1616L16.256 60.1616ZM23.216 28.6824L23.216 27.6824L22.216 27.6824L22.216 28.6824L23.216 28.6824ZM30.752 28.6824L31.752 28.6824L31.752 27.6824L30.752 27.6824L30.752 28.6824ZM30.752 36.4104L29.752 36.4104L29.752 37.4104L30.752 37.4104L30.752 36.4104ZM38.24 29.3544L37.8441 28.4362L36.8215 28.8771L37.3694 29.8465L38.24 29.3544ZM44.864 26.4984L45.6844 25.9266L45.2176 25.257L44.4681 25.5802L44.864 26.4984ZM30.752 44.9544L30.752 43.9544L29.752 43.9544L29.752 44.9544L30.752 44.9544ZM30.752 49.2744L30.752 50.2744L31.752 50.2744L31.752 49.2744L30.752 49.2744ZM23.216 49.2744L22.216 49.2744L22.216 50.2744L23.216 50.2744L23.216 49.2744ZM23.216 44.9544L24.216 44.9544L24.216 43.9544L23.216 43.9544L23.216 44.9544ZM16.4 44.9544L15.4 44.9544L15.4 45.9544L16.4 45.9544L16.4 44.9544ZM16.4 36.4104L16.4 35.4104L15.4 35.4104L15.4 36.4104L16.4 36.4104ZM23.216 36.4104L23.216 37.4104L24.216 37.4104L24.216 36.4104L23.216 36.4104ZM23.216 29.6824L30.752 29.6824L30.752 27.6824L23.216 27.6824L23.216 29.6824ZM29.752 28.6824L29.752 36.4104L31.752 36.4104L31.752 28.6824L29.752 28.6824ZM30.752 37.4104L36.32 37.4104L36.32 35.4104L30.752 35.4104L30.752 37.4104ZM36.32 37.4104C37.7695 37.4104 38.9264 37.0285 39.7006 36.1826C40.4595 35.3536 40.68 34.2621 40.68 33.2184L38.68 33.2184C38.68 34.0228 38.5045 34.5273 38.2254 34.8322C37.9616 35.1204 37.4385 35.4104 36.32 35.4104L36.32 37.4104ZM40.68 33.2184C40.68 32.3654 40.4197 31.5323 40.1142 30.814C39.8066 30.0909 39.4182 29.4067 39.1106 28.8624L37.3694 29.8465C37.6858 30.4061 38.0174 30.994 38.2738 31.5968C38.5323 32.2045 38.68 32.7514 38.68 33.2184L40.68 33.2184ZM38.6359 30.2727L45.2599 27.4167L44.4681 25.5802L37.8441 28.4362L38.6359 30.2727ZM44.0436 27.0702C45.6035 29.3083 46.624 31.4885 46.624 35.4264L48.624 35.4264C48.624 31.0124 47.4365 28.4406 45.6844 25.9266L44.0436 27.0702ZM46.624 35.4264C46.624 38.5979 45.6594 40.6729 44.1629 41.9737C42.6417 43.2961 40.4155 43.9544 37.64 43.9544L37.64 45.9544C40.6965 45.9544 43.4623 45.2328 45.475 43.4832C47.5126 41.712 48.624 39.023 48.624 35.4264L46.624 35.4264ZM37.64 43.9544L30.752 43.9544L30.752 45.9544L37.64 45.9544L37.64 43.9544ZM29.752 44.9544L29.752 49.2744L31.752 49.2744L31.752 44.9544L29.752 44.9544ZM30.752 48.2744L23.216 48.2744L23.216 50.2744L30.752 50.2744L30.752 48.2744ZM24.216 49.2744L24.216 44.9544L22.216 44.9544L22.216 49.2744L24.216 49.2744ZM23.216 43.9544L16.4 43.9544L16.4 45.9544L23.216 45.9544L23.216 43.9544ZM17.4 44.9544L17.4 36.4104L15.4 36.4104L15.4 44.9544L17.4 44.9544ZM16.4 37.4104L23.216 37.4104L23.216 35.4104L16.4 35.4104L16.4 37.4104ZM24.216 36.4104L24.216 28.6824L22.216 28.6824L22.216 36.4104L24.216 36.4104ZM35.096 1.67495L35.096 0.674934L35.0928 0.674949L35.096 1.67495ZM37.64 1.84295L38.64 1.84295L38.64 1.02314L37.8361 0.862357L37.64 1.84295ZM37.64 17.3709L36.64 17.3709L36.64 18.715L37.9273 18.3288L37.64 17.3709ZM38.6 8.61094L37.8328 7.96952L37.2516 8.66471L37.8863 9.31141L38.6 8.61094ZM43.496 2.75495L44.1743 2.02013L43.4025 1.30773L42.7288 2.11352L43.496 2.75495ZM32.48 17.3469L32.1938 18.3051L33.48 18.6893L33.48 17.3469L32.48 17.3469ZM32.48 10.1949L33.48 10.1949L33.48 8.80181L32.1601 9.2475L32.48 10.1949ZM23.568 13.8429C23.568 10.4868 24.7488 7.71828 26.7388 5.78524C28.7313 3.84971 31.6034 2.68621 35.0992 2.67493L35.0928 0.674949C31.1486 0.687675 27.7567 2.00819 25.3452 4.35065C22.9312 6.69559 21.568 9.99911 21.568 13.8429L23.568 13.8429ZM35.096 2.67495C35.9022 2.67495 37.0667 2.74808 37.4439 2.82352L37.8361 0.862357C37.2533 0.745795 35.9218 0.674949 35.096 0.674949L35.096 2.67495ZM36.64 1.84295L36.64 17.3709L38.64 17.3709L38.64 1.84295L36.64 1.84295ZM37.9273 18.3288C39.0727 17.9852 40.0011 17.3582 40.6299 16.4229C41.2508 15.4993 41.52 14.364 41.52 13.0989L39.52 13.0989C39.52 14.0898 39.3092 14.8026 38.9701 15.307C38.6389 15.7997 38.1273 16.1807 37.3526 16.4131L37.9273 18.3288ZM41.52 13.0989C41.52 11.2897 40.7612 9.38528 39.3137 7.91047L37.8863 9.31141C38.9828 10.4286 39.52 11.8362 39.52 13.0989L41.52 13.0989ZM39.3672 9.25236L44.2632 3.39637L42.7288 2.11352L37.8328 7.96952L39.3672 9.25236ZM42.8177 3.48975C45.0732 5.57175 46.624 9.02991 46.624 13.5069L48.624 13.5069C48.624 8.57598 46.9108 4.54613 44.1743 2.02013L42.8177 3.48975ZM46.624 13.5069C46.624 17.0914 45.4629 20.0023 43.5133 22.0116C41.5663 24.0182 38.7582 25.2029 35.312 25.2029L35.312 27.2029C39.2337 27.2029 42.5817 25.8437 44.9487 23.4043C47.3131 20.9676 48.624 17.5305 48.624 13.5069L46.624 13.5069ZM35.312 25.2029C31.7705 25.2029 28.8448 24.0221 26.81 22.0499C24.7776 20.08 23.568 17.2574 23.568 13.8429L21.568 13.8429C21.568 17.7485 22.9624 21.1059 25.418 23.486C27.8712 25.8637 31.3175 27.2029 35.312 27.2029L35.312 25.2029ZM28.744 13.7949C28.744 14.8724 29.0088 15.8519 29.6253 16.6563C30.2391 17.4571 31.1264 17.9863 32.1938 18.3051L32.7662 16.3888C31.9856 16.1556 31.5049 15.8208 31.2127 15.4396C30.9232 15.062 30.744 14.5415 30.744 13.7949L28.744 13.7949ZM33.48 17.3469L33.48 10.1949L31.48 10.1949L31.48 17.3469L33.48 17.3469ZM32.1601 9.2475C31.0995 9.6056 30.2253 10.1599 29.6209 10.9604C29.0121 11.7667 28.744 12.7345 28.744 13.7949L30.744 13.7949C30.744 13.0794 30.9198 12.5592 31.2171 12.1655C31.5187 11.766 32.0124 11.4083 32.7999 11.1424L32.1601 9.2475Z" fill="url(#paint0_linear_7159_67168)" mask="url(#path-1-outside-1_7159_67168)"/>
</g>
<mask id="path-3-outside-2_7159_67168" maskUnits="userSpaceOnUse" x="70" y="6.05469" width="37" height="135" fill="black">
<rect fill="white" x="70" y="6.05469" width="37" height="135"/>
<path d="M71.4 124.823C71.4 114.311 78.072 107.399 88.2 107.399C98.328 107.399 105 114.311 105 124.823L105 139.655L71.4 139.655L71.4 124.823ZM79.776 125.063L79.776 130.535L96.624 130.535L96.624 125.063C96.624 119.543 93.048 116.879 88.2 116.879C83.28 116.879 79.776 119.543 79.776 125.063ZM81.216 79.4409L105 79.4409L105 87.6489L102.912 87.6489C104.496 89.0649 105.624 91.1289 105.624 94.1289C105.624 100.489 99.984 104.953 93.072 104.953C86.208 104.953 80.568 100.489 80.568 94.1049C80.568 91.1289 81.72 89.0649 83.352 87.6489L81.216 87.6489L81.216 79.4409ZM88.512 91.9209C88.512 94.3689 90.432 96.1449 93.096 96.1449C95.76 96.1449 97.68 94.3689 97.68 91.9209C97.68 89.4729 95.76 87.6969 93.096 87.6969C90.432 87.6969 88.512 89.4729 88.512 91.9209ZM81.216 51.0872L95.136 46.6712L81.216 42.4712L81.216 33.4472L105 41.7752L105 51.1352L92.28 55.2872L105 59.3192L105 68.6792L81.216 77.0312L81.216 67.9112L95.112 63.7352L81.216 59.3672L81.216 51.0872ZM80.568 16.4612C80.568 11.5412 84.048 7.96519 89.52 7.96519L105 7.96519L105 16.5092L92.208 16.5092C89.832 16.5092 88.56 17.6372 88.56 19.5092C88.56 21.2132 89.688 22.4852 92.256 22.4852L105 22.4852L105 31.0292L81.216 31.0292L81.216 22.8932L83.664 22.8932C81.6 21.5492 80.568 19.4372 80.568 16.4612Z"/>
</mask>
<path d="M105 139.655L105 140.655L106 140.655L106 139.655L105 139.655ZM71.4 139.655L70.4 139.655L70.4 140.655L71.4 140.655L71.4 139.655ZM79.776 130.535L78.776 130.535L78.776 131.535L79.776 131.535L79.776 130.535ZM96.624 130.535L96.624 131.535L97.624 131.535L97.624 130.535L96.624 130.535ZM72.4 124.823C72.4 119.78 73.9968 115.688 76.7218 112.863C79.4434 110.041 83.371 108.399 88.2 108.399L88.2 106.399C82.9009 106.399 78.4286 108.212 75.2822 111.474C72.1392 114.733 70.4 119.353 70.4 124.823L72.4 124.823ZM88.2 108.399C93.0289 108.399 96.9566 110.041 99.6782 112.863C102.403 115.688 104 119.78 104 124.823L106 124.823C106 119.353 104.261 114.733 101.118 111.474C97.9714 108.212 93.499 106.399 88.2 106.399L88.2 108.399ZM104 124.823L104 139.655L106 139.655L106 124.823L104 124.823ZM105 138.655L71.4 138.655L71.4 140.655L105 140.655L105 138.655ZM72.4 139.655L72.4 124.823L70.4 124.823L70.4 139.655L72.4 139.655ZM78.776 125.063L78.776 130.535L80.776 130.535L80.776 125.063L78.776 125.063ZM79.776 131.535L96.624 131.535L96.624 129.535L79.776 129.535L79.776 131.535ZM97.624 130.535L97.624 125.063L95.624 125.063L95.624 130.535L97.624 130.535ZM97.624 125.063C97.624 122.076 96.6486 119.739 94.9006 118.159C93.1687 116.593 90.7983 115.879 88.2 115.879L88.2 117.879C90.4497 117.879 92.2913 118.496 93.5594 119.643C94.8114 120.774 95.624 122.529 95.624 125.063L97.624 125.063ZM88.2 115.879C85.5687 115.879 83.1955 116.592 81.4702 118.161C79.7295 119.744 78.776 122.082 78.776 125.063L80.776 125.063C80.776 122.523 81.5745 120.769 82.8158 119.64C84.0725 118.498 85.9113 117.879 88.2 117.879L88.2 115.879ZM81.216 79.4409L81.216 78.4409L80.216 78.4409L80.216 79.4409L81.216 79.4409ZM105 79.4409L106 79.4409L106 78.4409L105 78.4409L105 79.4409ZM105 87.6489L105 88.6489L106 88.6489L106 87.6489L105 87.6489ZM102.912 87.6489L102.912 86.6489L100.293 86.6489L102.246 88.3945L102.912 87.6489ZM83.352 87.6489L84.0073 88.4043L86.0304 86.6489L83.352 86.6489L83.352 87.6489ZM81.216 87.6489L80.216 87.6489L80.216 88.6489L81.216 88.6489L81.216 87.6489ZM81.216 80.4409L105 80.4409L105 78.4409L81.216 78.4409L81.216 80.4409ZM104 79.4409L104 87.6489L106 87.6489L106 79.4409L104 79.4409ZM105 86.6489L102.912 86.6489L102.912 88.6489L105 88.6489L105 86.6489ZM102.246 88.3945C103.619 89.6224 104.624 91.4161 104.624 94.1289L106.624 94.1289C106.624 90.8418 105.373 88.5074 103.578 86.9034L102.246 88.3945ZM104.624 94.1289C104.624 99.7808 99.6017 103.953 93.072 103.953L93.072 105.953C100.366 105.953 106.624 101.197 106.624 94.1289L104.624 94.1289ZM93.072 103.953C86.5945 103.953 81.568 99.7843 81.568 94.1049L79.568 94.1049C79.568 101.194 85.8215 105.953 93.072 105.953L93.072 103.953ZM81.568 94.1049C81.568 91.4256 82.589 89.6349 84.0073 88.4043L82.6966 86.8936C80.851 88.495 79.568 90.8323 79.568 94.1049L81.568 94.1049ZM83.352 86.6489L81.216 86.6489L81.216 88.6489L83.352 88.6489L83.352 86.6489ZM82.216 87.6489L82.216 79.4409L80.216 79.4409L80.216 87.6489L82.216 87.6489ZM87.512 91.9209C87.512 94.9956 89.9572 97.1449 93.096 97.1449L93.096 95.1449C90.9068 95.1449 89.512 93.7422 89.512 91.9209L87.512 91.9209ZM93.096 97.1449C96.2348 97.1449 98.68 94.9956 98.68 91.9209L96.68 91.9209C96.68 93.7422 95.2852 95.1449 93.096 95.1449L93.096 97.1449ZM98.68 91.9209C98.68 88.8462 96.2348 86.6969 93.096 86.6969L93.096 88.6969C95.2852 88.6969 96.68 90.0996 96.68 91.9209L98.68 91.9209ZM93.096 86.6969C89.9572 86.6969 87.512 88.8462 87.512 91.9209L89.512 91.9209C89.512 90.0996 90.9068 88.6969 93.096 88.6969L93.096 86.6969ZM81.216 51.0872L80.9136 50.134L80.216 50.3553L80.216 51.0872L81.216 51.0872ZM95.136 46.6712L95.4384 47.6244L98.5185 46.6472L95.4249 45.7138L95.136 46.6712ZM81.216 42.4712L80.216 42.4712L80.216 43.214L80.9271 43.4286L81.216 42.4712ZM81.216 33.4472L81.5465 32.5034L80.216 32.0375L80.216 33.4472L81.216 33.4472ZM105 41.7752L106 41.7752L106 41.0658L105.33 40.8314L105 41.7752ZM105 51.1352L105.31 52.0858L106 51.8607L106 51.1352L105 51.1352ZM92.28 55.2872L91.9697 54.3366L89.0146 55.3012L91.9778 56.2404L92.28 55.2872ZM105 59.3192L106 59.3192L106 58.5871L105.302 58.3659L105 59.3192ZM105 68.6792L105.331 69.6227L106 69.3879L106 68.6792L105 68.6792ZM81.216 77.0312L80.216 77.0312L80.216 78.4422L81.5473 77.9747L81.216 77.0312ZM81.216 67.9112L80.9282 66.9535L80.216 67.1675L80.216 67.9112L81.216 67.9112ZM95.112 63.7352L95.3998 64.6929L98.5151 63.7567L95.4119 62.7812L95.112 63.7352ZM81.216 59.3672L80.216 59.3672L80.216 60.1011L80.9161 60.3212L81.216 59.3672ZM81.5184 52.0404L95.4384 47.6244L94.8336 45.718L80.9136 50.134L81.5184 52.0404ZM95.4249 45.7138L81.5049 41.5138L80.9271 43.4286L94.8471 47.6286L95.4249 45.7138ZM82.216 42.4712L82.216 33.4472L80.216 33.4472L80.216 42.4712L82.216 42.4712ZM80.8855 34.391L104.67 42.719L105.33 40.8314L81.5465 32.5034L80.8855 34.391ZM104 41.7752L104 51.1352L106 51.1352L106 41.7752L104 41.7752ZM104.69 50.1846L91.9697 54.3366L92.5903 56.2378L105.31 52.0858L104.69 50.1846ZM91.9778 56.2404L104.698 60.2724L105.302 58.3659L92.5822 54.3339L91.9778 56.2404ZM104 59.3192L104 68.6792L106 68.6792L106 59.3192L104 59.3192ZM104.669 67.7357L80.8847 76.0877L81.5473 77.9747L105.331 69.6227L104.669 67.7357ZM82.216 77.0312L82.216 67.9112L80.216 67.9112L80.216 77.0312L82.216 77.0312ZM81.5038 68.8689L95.3998 64.6929L94.8242 62.7775L80.9282 66.9535L81.5038 68.8689ZM95.4119 62.7812L81.5159 58.4132L80.9161 60.3212L94.8121 64.6892L95.4119 62.7812ZM82.216 59.3672L82.216 51.0872L80.216 51.0872L80.216 59.3672L82.216 59.3672ZM105 7.96519L106 7.96519L106 6.96519L105 6.96519L105 7.96519ZM105 16.5092L105 17.5092L106 17.5092L106 16.5092L105 16.5092ZM105 22.4852L106 22.4852L106 21.4852L105 21.4852L105 22.4852ZM105 31.0292L105 32.0292L106 32.0292L106 31.0292L105 31.0292ZM81.216 31.0292L80.216 31.0292L80.216 32.0292L81.216 32.0292L81.216 31.0292ZM81.216 22.8932L81.216 21.8932L80.216 21.8932L80.216 22.8932L81.216 22.8932ZM83.664 22.8932L83.664 23.8932L87.0323 23.8932L84.2097 22.0552L83.664 22.8932ZM81.568 16.4612C81.568 14.2437 82.3476 12.3878 83.6886 11.0856C85.0304 9.78268 87.0061 8.96519 89.52 8.96519L89.52 6.96519C86.5619 6.96519 84.0616 7.93571 82.2953 9.65078C80.5284 11.3666 79.568 13.7587 79.568 16.4612L81.568 16.4612ZM89.52 8.96519L105 8.96519L105 6.96519L89.52 6.96519L89.52 8.96519ZM104 7.96519L104 16.5092L106 16.5092L106 7.96519L104 7.96519ZM105 15.5092L92.208 15.5092L92.208 17.5092L105 17.5092L105 15.5092ZM92.208 15.5092C90.8764 15.5092 89.7048 15.8241 88.8502 16.5411C87.9703 17.2794 87.56 18.3318 87.56 19.5092L89.56 19.5092C89.56 18.8146 89.7857 18.367 90.1357 18.0733C90.5112 17.7583 91.1636 17.5092 92.208 17.5092L92.208 15.5092ZM87.56 19.5092C87.56 20.59 87.9252 21.6304 88.7841 22.3867C89.6271 23.129 90.8179 23.4852 92.256 23.4852L92.256 21.4852C91.1261 21.4852 90.4689 21.2054 90.1059 20.8857C89.7587 20.58 89.56 20.1324 89.56 19.5092L87.56 19.5092ZM92.256 23.4852L105 23.4852L105 21.4852L92.256 21.4852L92.256 23.4852ZM104 22.4852L104 31.0292L106 31.0292L106 22.4852L104 22.4852ZM105 30.0292L81.216 30.0292L81.216 32.0292L105 32.0292L105 30.0292ZM82.216 31.0292L82.216 22.8932L80.216 22.8932L80.216 31.0292L82.216 31.0292ZM81.216 23.8932L83.664 23.8932L83.664 21.8932L81.216 21.8932L81.216 23.8932ZM84.2097 22.0552C82.4859 20.9327 81.568 19.1729 81.568 16.4612L79.568 16.4612C79.568 19.7015 80.7141 22.1657 83.1183 23.7312L84.2097 22.0552Z" fill="url(#paint1_linear_7159_67168)" mask="url(#path-3-outside-2_7159_67168)"/>
<defs>
<linearGradient id="paint0_linear_7159_67168" x1="58" y1="143.009" x2="105.285" y2="82.9628" gradientUnits="userSpaceOnUse">
<stop stop-color="#FFCF92"/>
<stop offset="1" stop-color="#FFE8CB"/>
</linearGradient>
<linearGradient id="paint1_linear_7159_67168" x1="116" y1="142.976" x2="161.211" y2="83.4678" gradientUnits="userSpaceOnUse">
<stop stop-color="#FFCF92"/>
<stop offset="1" stop-color="#FFE8CB"/>
</linearGradient>
</defs>
</svg>
