<svg xmlns="http://www.w3.org/2000/svg" width="42" height="42" viewBox="0 0 42 42" fill="none">
  <path d="M31.5185 38.7315L31.5185 38.6121C31.5185 37.1793 32.4667 36.4629 33.7704 36.4629L34.0074 36.4629C35.4296 36.4629 36.4963 35.3884 36.4963 33.9556L36.4963 33.7168C36.4963 32.4034 37.2074 31.4482 38.6296 31.4482L38.7481 31.4482C40.1704 31.4482 41 30.6125 41 29.1797L41 12.8203C41 11.3875 40.1704 10.5517 38.7481 10.5517L38.6296 10.5517C37.2074 10.5517 36.4963 9.59657 36.4963 8.28321L36.4963 8.04441C36.4963 6.61165 35.4296 5.53708 34.0074 5.53708L33.7704 5.53708C32.4667 5.53708 31.5185 4.8207 31.5185 3.38794L31.5185 3.26854C31.5185 1.83578 30.6889 1 29.2667 0.999999L12.7333 0.999999C11.3111 0.999999 10.4815 1.83578 10.4815 3.26854L10.4815 3.38794C10.4815 4.8207 9.53333 5.53708 8.22963 5.53708L7.9926 5.53708C6.57037 5.53708 5.5037 6.61165 5.5037 8.04441L5.5037 8.28321C5.5037 9.59657 4.79259 10.5517 3.37037 10.5517L3.25185 10.5517C1.82963 10.5517 1 11.3875 0.999999 12.8203L0.999999 29.1797C0.999999 30.6125 1.82963 31.4482 3.25185 31.4482L3.37037 31.4482C4.79259 31.4482 5.5037 32.4034 5.5037 33.7168L5.5037 33.9556C5.5037 35.3883 6.57037 36.4629 7.99259 36.4629L8.22963 36.4629C9.53333 36.4629 10.4815 37.1793 10.4815 38.6121L10.4815 38.7315C10.4815 40.1642 11.3111 41 12.7333 41L29.2667 41C30.6889 41 31.5185 40.1642 31.5185 38.7315Z" stroke="url(#paint0_linear_807_1176)" stroke-width="2"/>
  <path d="M15.3803 21C15.3803 19.9859 16.0563 19.4789 16.9859 19.4789H17.1549C18.169 19.4789 18.9296 18.7183 18.9296 17.7042V17.5352C18.9296 16.5211 19.3521 16.0986 20.3662 16.0986H20.5352C21.5493 16.0986 22.3099 15.338 22.3099 14.3239V14.1549C22.3099 13.1408 22.7324 12.7183 23.7465 12.7183H23.9155C24.9296 12.7183 25.6901 11.9577 25.6901 10.9437V10.7746C25.6901 9.76056 24.9296 9 23.9155 9H23.7465C22.7324 9 21.9718 9.76056 21.9718 10.7746V10.9437C21.9718 11.9577 21.5493 12.3803 20.5352 12.3803H20.3662C19.3521 12.3803 18.5915 13.1408 18.5915 14.1549V14.3239C18.5915 15.338 18.169 15.7606 17.1549 15.7606H16.9859C15.9718 15.7606 15.2113 16.5211 15.2113 17.5352V17.7042C15.2113 18.6338 14.7042 19.3099 13.6901 19.3099H13.6056C12.7189 19.3099 12 20.0287 12 20.9155V21.0845C12 21.9713 12.7189 22.6901 13.6056 22.6901H13.6901C14.7042 22.6901 15.2113 23.3662 15.2113 24.2958V24.4648C15.2113 25.4789 15.9718 26.2394 16.9859 26.2394H17.1549C18.169 26.2394 18.5915 26.662 18.5915 27.6761V27.8451C18.5915 28.8592 19.3521 29.6197 20.3662 29.6197H20.5352C21.5493 29.6197 21.9718 30.0423 21.9718 31.0563V31.2254C21.9718 32.2394 22.7324 33 23.7465 33H23.9155C24.9296 33 25.6901 32.2394 25.6901 31.2254V31.0563C25.6901 30.0423 24.9296 29.2817 23.9155 29.2817H23.7465C22.7324 29.2817 22.3099 28.8592 22.3099 27.8451V27.6761C22.3099 26.662 21.5493 25.9014 20.5352 25.9014H20.3662C19.3521 25.9014 18.9296 25.4789 18.9296 24.4648V24.2958C18.9296 23.2817 18.169 22.5211 17.1549 22.5211H16.9859C16.0563 22.5211 15.3803 22.0141 15.3803 21Z" fill="url(#paint1_linear_807_1176)"/>
  <defs>
    <linearGradient id="paint0_linear_807_1176" x1="41" y1="21" x2="0.999999" y2="21" gradientUnits="userSpaceOnUse">
      <stop stop-color="#FFA1A4"/>
      <stop offset="1" stop-color="#EC1F26"/>
    </linearGradient>
    <linearGradient id="paint1_linear_807_1176" x1="18.8451" y1="9" x2="18.8451" y2="33" gradientUnits="userSpaceOnUse">
      <stop stop-color="#FFA1A4"/>
      <stop offset="1" stop-color="#EC1F26"/>
    </linearGradient>
  </defs>
</svg>