<svg xmlns="http://www.w3.org/2000/svg" width="42" height="42" viewBox="0 0 42 42" fill="none">
  <path d="M10.4815 38.7315L10.4815 38.6121C10.4815 37.1793 9.53333 36.4629 8.22963 36.4629L7.9926 36.4629C6.57037 36.4629 5.5037 35.3884 5.5037 33.9556L5.5037 33.7168C5.5037 32.4034 4.79259 31.4482 3.37037 31.4482L3.25185 31.4482C1.82963 31.4482 1 30.6125 1 29.1797L1 12.8203C1 11.3875 1.82963 10.5517 3.25185 10.5517L3.37037 10.5517C4.79259 10.5517 5.5037 9.59657 5.5037 8.28321L5.5037 8.04441C5.5037 6.61165 6.57037 5.53708 7.99259 5.53708L8.22963 5.53708C9.53333 5.53708 10.4815 4.8207 10.4815 3.38794L10.4815 3.26854C10.4815 1.83578 11.3111 1 12.7333 0.999999L29.2667 0.999999C30.6889 0.999999 31.5185 1.83578 31.5185 3.26854L31.5185 3.38794C31.5185 4.8207 32.4667 5.53708 33.7704 5.53708L34.0074 5.53708C35.4296 5.53708 36.4963 6.61165 36.4963 8.04441L36.4963 8.28321C36.4963 9.59657 37.2074 10.5517 38.6296 10.5517L38.7482 10.5517C40.1704 10.5517 41 11.3875 41 12.8203L41 29.1797C41 30.6125 40.1704 31.4482 38.7482 31.4482L38.6296 31.4482C37.2074 31.4482 36.4963 32.4034 36.4963 33.7168L36.4963 33.9556C36.4963 35.3883 35.4296 36.4629 34.0074 36.4629L33.7704 36.4629C32.4667 36.4629 31.5185 37.1793 31.5185 38.6121L31.5185 38.7315C31.5185 40.1642 30.6889 41 29.2667 41L12.7333 41C11.3111 41 10.4815 40.1642 10.4815 38.7315Z" stroke="url(#paint0_linear_807_1180)" stroke-width="2"/>
  <path d="M26.6197 21C26.6197 19.9859 25.9437 19.4789 25.0141 19.4789H24.8451C23.831 19.4789 23.0704 18.7183 23.0704 17.7042V17.5352C23.0704 16.5211 22.6479 16.0986 21.6338 16.0986H21.4648C20.4507 16.0986 19.6901 15.338 19.6901 14.3239V14.1549C19.6901 13.1408 19.2676 12.7183 18.2535 12.7183H18.0845C17.0704 12.7183 16.3099 11.9577 16.3099 10.9437V10.7746C16.3099 9.76056 17.0704 9 18.0845 9H18.2535C19.2676 9 20.0282 9.76056 20.0282 10.7746V10.9437C20.0282 11.9577 20.4507 12.3803 21.4648 12.3803H21.6338C22.6479 12.3803 23.4085 13.1408 23.4085 14.1549V14.3239C23.4085 15.338 23.831 15.7606 24.8451 15.7606H25.0141C26.0282 15.7606 26.7887 16.5211 26.7887 17.5352V17.7042C26.7887 18.6338 27.2958 19.3099 28.3099 19.3099H28.3944C29.2811 19.3099 30 20.0287 30 20.9155V21.0845C30 21.9713 29.2811 22.6901 28.3944 22.6901H28.3099C27.2958 22.6901 26.7887 23.3662 26.7887 24.2958V24.4648C26.7887 25.4789 26.0282 26.2394 25.0141 26.2394H24.8451C23.831 26.2394 23.4085 26.662 23.4085 27.6761V27.8451C23.4085 28.8592 22.6479 29.6197 21.6338 29.6197H21.4648C20.4507 29.6197 20.0282 30.0423 20.0282 31.0563V31.2254C20.0282 32.2394 19.2676 33 18.2535 33H18.0845C17.0704 33 16.3099 32.2394 16.3099 31.2254V31.0563C16.3099 30.0423 17.0704 29.2817 18.0845 29.2817H18.2535C19.2676 29.2817 19.6901 28.8592 19.6901 27.8451V27.6761C19.6901 26.662 20.4507 25.9014 21.4648 25.9014H21.6338C22.6479 25.9014 23.0704 25.4789 23.0704 24.4648V24.2958C23.0704 23.2817 23.831 22.5211 24.8451 22.5211H25.0141C25.9437 22.5211 26.6197 22.0141 26.6197 21Z" fill="url(#paint1_linear_807_1180)"/>
  <defs>
    <linearGradient id="paint0_linear_807_1180" x1="1" y1="21" x2="41" y2="21" gradientUnits="userSpaceOnUse">
      <stop stop-color="#FFA1A4"/>
      <stop offset="1" stop-color="#EC1F26"/>
    </linearGradient>
    <linearGradient id="paint1_linear_807_1180" x1="23.1549" y1="9" x2="23.1549" y2="33" gradientUnits="userSpaceOnUse">
      <stop stop-color="#FFA1A4"/>
      <stop offset="1" stop-color="#EC1F26"/>
    </linearGradient>
  </defs>
</svg>