<svg width="45" height="45" viewBox="0 0 45 45" fill="none" xmlns="http://www.w3.org/2000/svg">
<g id="Group">
<path id="Vector" d="M22.4996 44.8C10.1459 44.8 0.0996094 34.7537 0.0996094 22.4C0.0996094 10.0462 10.1459 0 22.4996 0C34.8534 0 44.8996 10.0462 44.8996 22.4C44.8996 34.7537 34.8534 44.8 22.4996 44.8ZM22.4996 0.708682C10.5371 0.708682 0.808291 10.4374 0.808291 22.4C0.808291 34.3625 10.5371 44.0913 22.4996 44.0913C34.4622 44.0913 44.191 34.3625 44.191 22.4C44.191 10.4374 34.4622 0.708682 22.4996 0.708682Z" fill="#EC1F26"/>
<path id="Vector_2" d="M21.0223 31.8803L14.5103 28.0977C14.1725 27.9048 13.9089 27.6426 13.7196 27.311C13.5285 26.9794 13.4329 26.6203 13.4329 26.2337V18.6697C13.4329 18.2839 13.5285 17.9252 13.7196 17.5937C13.9098 17.2621 14.1734 16.9994 14.5103 16.8057L21.0223 13.0243C21.3601 12.8306 21.7192 12.7337 22.0996 12.7337C22.4801 12.7337 22.8392 12.8306 23.1769 13.0243L29.6889 16.8057C30.0267 16.9994 30.2907 17.2617 30.4809 17.5923C30.6712 17.9248 30.7663 18.2839 30.7663 18.6697V26.2337C30.7663 26.6203 30.6712 26.9794 30.4809 27.311C30.2898 27.6426 30.0258 27.9048 29.6889 28.0977L23.1769 31.8803C22.8392 32.0732 22.4801 32.1697 22.0996 32.1697C21.7192 32.1697 21.3601 32.0732 21.0223 31.8803ZM21.4329 30.583V22.8083L14.7663 19.0163V26.2337C14.7663 26.3706 14.8005 26.499 14.8689 26.619C14.9374 26.739 15.0396 26.8412 15.1756 26.9257L21.4329 30.583ZM22.7663 30.583L29.0223 26.927C29.1592 26.8408 29.2618 26.7381 29.3303 26.619C29.3987 26.499 29.4329 26.3706 29.4329 26.2337V19.0163L22.7663 22.8083V30.583ZM10.0996 15.7083V12.5297C10.0996 11.9323 10.3094 11.4239 10.7289 11.0043C11.1485 10.5848 11.6569 10.375 12.2543 10.375H15.4329V11.7083H12.2543C12.0143 11.7083 11.8174 11.7852 11.6636 11.939C11.5098 12.0928 11.4329 12.2897 11.4329 12.5297V15.7083H10.0996ZM15.4329 34.375H12.2543C11.6569 34.375 11.1485 34.1652 10.7289 33.7457C10.3094 33.3261 10.0996 32.8181 10.0996 32.2217V29.0417H11.4329V32.2217C11.4329 32.4608 11.5098 32.6572 11.6636 32.811C11.8174 32.9648 12.0143 33.0417 12.2543 33.0417H15.4329V34.375ZM28.7663 34.375V33.0417H31.9463C32.1854 33.0417 32.3818 32.9648 32.5356 32.811C32.6894 32.6572 32.7663 32.4608 32.7663 32.2217V29.0417H34.0996V32.2217C34.0996 32.8172 33.8898 33.3252 33.4703 33.7457C33.0507 34.1652 32.5427 34.375 31.9463 34.375H28.7663ZM32.7663 15.7083V12.5297C32.7663 12.2897 32.6894 12.0928 32.5356 11.939C32.3818 11.7852 32.1854 11.7083 31.9463 11.7083H28.7663V10.375H31.9463C32.5418 10.375 33.0498 10.5848 33.4703 11.0043C33.8898 11.4239 34.0996 11.9323 34.0996 12.5297V15.7083H32.7663ZM22.0996 21.663L28.7516 17.819L22.5103 14.2217C22.3734 14.1363 22.2365 14.0937 22.0996 14.0937C21.9627 14.0937 21.8258 14.1363 21.6889 14.2217L15.4489 17.819L22.0996 21.663Z" fill="#EC1F26"/>
</g>
</svg>
