<svg width="45" height="45" viewBox="0 0 45 45" fill="none" xmlns="http://www.w3.org/2000/svg">
<g id="Group">
<path id="Vector" d="M0.0703125 22.43C0.0703125 10.0597 10.13 0 22.5003 0C34.8706 0 44.9303 10.0597 44.9303 22.43C44.9303 34.8003 34.8706 44.86 22.5003 44.86C10.13 44.86 0.0703125 34.8003 0.0703125 22.43ZM44.2207 22.43C44.2207 10.4514 34.4789 0.70963 22.5003 0.70963C10.5217 0.70963 0.779943 10.4514 0.779943 22.43C0.779943 34.4086 10.5217 44.1504 22.5003 44.1504C34.4789 44.1504 44.2207 34.4086 44.2207 22.43Z" fill="#EC1F26"/>
<path id="Vector_2" fill-rule="evenodd" clip-rule="evenodd" d="M16.7723 12.3764V9.04395H18.3051V12.3764H16.7723ZM7.54141 23.14H4.20898V21.6072H7.54141V23.14ZM9.92577 15.845L7.5698 13.489L8.65411 12.4047L11.0101 14.7607L9.92577 15.845ZM17.5387 13.9432C15.2111 13.9432 13.1049 14.8856 11.5778 16.4127C10.0507 17.9399 9.10827 20.046 9.10827 22.3736C9.10827 24.7012 10.0507 26.8074 11.5778 28.3345C13.1049 29.8617 15.2111 30.804 17.5387 30.804C19.3724 30.804 21.0755 30.2193 22.4607 29.2201C23.8459 30.2193 25.5433 30.804 27.3827 30.804C29.7103 30.804 31.8164 29.8617 33.3436 28.3345C34.8707 26.8074 35.8131 24.7012 35.8131 22.3736C35.8131 20.046 34.8707 17.9399 33.3436 16.4127C31.8164 14.8856 29.7103 13.9432 27.3827 13.9432C25.549 13.9432 23.8459 14.5279 22.4607 15.5271C21.0755 14.5279 19.378 13.9432 17.5387 13.9432ZM32.2536 17.4971C33.5025 18.746 34.2746 20.4718 34.2746 22.3736C34.2746 24.2754 33.5025 26.0012 32.2536 27.2502C31.0046 28.4991 29.2788 29.2713 27.377 29.2713C25.4752 29.2713 23.7494 28.4991 22.5004 27.2502C21.2515 26.0012 20.4794 24.2754 20.4794 22.3736C20.4794 20.4718 21.2515 18.746 22.5004 17.4971C23.7494 16.2481 25.4752 15.476 27.377 15.476C29.2788 15.476 31.0046 16.2481 32.2536 17.4971ZM24.1581 17.1564C25.2935 18.5927 25.9691 20.4037 25.9691 22.3736C25.9691 24.3436 25.2935 26.1602 24.1581 27.5908C23.755 27.341 23.3804 27.0402 23.0454 26.7052C22.4777 26.1375 22.0235 25.4619 21.7113 24.7183C21.4104 23.9973 21.2515 23.2082 21.2515 22.3736C21.2515 21.5391 21.4161 20.7443 21.7113 20.029C22.0179 19.2853 22.4777 18.6097 23.0454 18.042C23.3804 17.7071 23.755 17.4062 24.1581 17.1564Z" fill="#EC1F26"/>
</g>
</svg>
