<svg width="45" height="45" viewBox="0 0 45 45" fill="none" xmlns="http://www.w3.org/2000/svg">
<g id="Group">
<path id="Vector" d="M22.4996 44.8C10.1459 44.8 0.0996094 34.7537 0.0996094 22.4C0.0996094 10.0462 10.1459 0 22.4996 0C34.8534 0 44.8996 10.0462 44.8996 22.4C44.8996 34.7537 34.8534 44.8 22.4996 44.8ZM22.4996 0.708682C10.5371 0.708682 0.808291 10.4374 0.808291 22.4C0.808291 34.3625 10.5371 44.0913 22.4996 44.0913C34.4622 44.0913 44.191 34.3625 44.191 22.4C44.191 10.4374 34.4622 0.708682 22.4996 0.708682Z" fill="#EC1F26"/>
<path id="Vector_2" d="M37.7859 12.8637V31.9357H7.21616V12.8637H37.7859ZM38.9424 11.7071H6.05957V33.0923H38.9424V11.7071Z" fill="#EC1F26"/>
<g id="Group_2">
<path id="Vector_3" d="M15.7498 14.0881L15.0752 15.4431H16.4755L15.7498 14.0881Z" fill="#EC1F26"/>
<path id="Vector_4" d="M15.7498 21.0051L16.4755 19.6444H15.0752L15.7498 21.0051Z" fill="#EC1F26"/>
<path id="Vector_5" d="M14.7759 15.5742L13.3359 15.1093L13.8008 16.5494L14.7759 15.5742Z" fill="#EC1F26"/>
<path id="Vector_6" d="M17.747 18.5447L16.7266 19.5198L18.212 19.9847L17.747 18.5447Z" fill="#EC1F26"/>
<path id="Vector_7" d="M13.6761 16.8434L12.3154 17.5691L13.6761 18.2438V16.8434Z" fill="#EC1F26"/>
<path id="Vector_8" d="M17.832 16.8434V18.2438L19.187 17.5691L17.832 16.8434Z" fill="#EC1F26"/>
<path id="Vector_9" d="M13.3359 19.9847L14.7759 19.5198L13.8008 18.5447L13.3359 19.9847Z" fill="#EC1F26"/>
<path id="Vector_10" d="M18.212 15.1093L16.7266 15.5742L17.747 16.5494L18.212 15.1093Z" fill="#EC1F26"/>
<path id="Vector_11" d="M15.752 19.0545C16.5724 19.0545 17.2375 18.3895 17.2375 17.5691C17.2375 16.7488 16.5724 16.0837 15.752 16.0837C14.9316 16.0837 14.2666 16.7488 14.2666 17.5691C14.2666 18.3895 14.9316 19.0545 15.752 19.0545Z" fill="#EC1F26"/>
<path id="Vector_12" d="M27.7578 25.3309L26.7373 26.941L30.6436 33.0924H32.679L27.7578 25.3309Z" fill="#EC1F26"/>
<path id="Vector_13" d="M17.2365 25.3309L12.3154 33.0924H14.6909L18.4271 27.1961L17.2365 25.3309Z" fill="#EC1F26"/>
<path id="Vector_14" d="M26.9151 19.7977C26.9151 19.7977 27.1758 19.4518 27.55 19.4235C27.8108 19.3951 28.1283 19.5369 28.4175 19.8543C28.5309 19.9677 28.7066 19.9677 28.82 19.8543C29.1375 19.5369 29.4266 19.3894 29.6874 19.4235C30.0616 19.4518 30.3224 19.7977 30.3224 19.7977C30.4074 19.911 30.5832 19.9734 30.7249 19.8827C30.8666 19.7976 30.9007 19.6219 30.81 19.4802C30.7816 19.4518 30.4075 18.9019 29.7725 18.8452C29.3983 18.8168 29.0241 18.9586 28.6443 19.2477C28.2701 18.9302 27.8958 18.8168 27.516 18.8452C26.8527 18.9019 26.4785 19.4518 26.4785 19.4802C26.3935 19.6219 26.4218 19.7976 26.5636 19.8827C26.6202 19.9394 26.796 19.911 26.9094 19.7977H26.9151Z" fill="#EC1F26"/>
<path id="Vector_15" d="M29.285 20.5458C29.0526 20.5232 28.8257 20.6082 28.5933 20.7783C28.3608 20.6082 28.1341 20.5288 27.9016 20.5458C27.5048 20.5855 27.2553 20.92 27.2553 20.9427C27.1929 21.0448 27.2156 21.1751 27.3176 21.2375C27.4027 21.2999 27.5501 21.2772 27.6125 21.1978C27.6125 21.1978 27.7599 21.0107 27.9696 20.988C28.1171 20.9654 28.2815 21.0504 28.4515 21.2375C28.5366 21.3225 28.6613 21.3225 28.7464 21.2375C28.9164 21.0674 29.0808 20.988 29.2282 20.988C29.438 21.0107 29.5854 21.1978 29.5854 21.1978C29.6478 21.2999 29.7725 21.3226 29.8803 21.2602C29.9823 21.1978 30.005 21.0731 29.9426 20.9654C29.9426 20.9257 29.7102 20.5912 29.2963 20.5458H29.285Z" fill="#EC1F26"/>
<path id="Vector_16" d="M22.6672 21.81L15.501 33.0922H29.839L22.6728 21.81H22.6672ZM23.5176 26.4759L22.7522 28.1711L21.9868 26.4759L20.8416 27.831L20.2916 27.1506L22.6672 23.3748L25.003 27.0202L24.4927 27.6155L23.5176 26.4703V26.4759Z" fill="#EC1F26"/>
</g>
</g>
</svg>
