<svg width="49" height="49" viewBox="0 0 49 49" fill="none" xmlns="http://www.w3.org/2000/svg">
<g id="Group">
<path id="Vector" d="M24.4996 48.6868C11.0741 48.6868 0.15625 37.7689 0.15625 24.3434C0.15625 10.9179 11.0741 0 24.4996 0C37.9252 0 48.843 10.9179 48.843 24.3434C48.843 37.7689 37.9252 48.6868 24.4996 48.6868ZM24.4996 0.770165C11.4992 0.770165 0.926415 11.343 0.926415 24.3434C0.926415 37.3438 11.4992 47.9166 24.4996 47.9166C37.5 47.9166 48.0729 37.3438 48.0729 24.3434C48.0729 11.343 37.5 0.770165 24.4996 0.770165Z" fill="#EC1F26"/>
<path id="Vector_2" d="M34.6844 24.5097C34.7091 24.3557 34.7337 24.177 34.7337 24.023C35.3498 22.84 35.2759 21.5276 35.2759 20.1105C35.2759 15.3478 30.8767 11.4847 25.1344 11.4847C23.5386 11.4847 21.9674 11.5648 20.6551 12.1809C18.4432 13.1852 18.4185 14.7009 18.4185 14.7009C18.0057 14.2881 16.9521 14.288 16.5393 14.5961C14.4568 16.1426 13.7051 17.7384 13.7051 20.1044C13.7051 21.7802 14.3459 23.3452 15.4549 24.6576C14.9682 25.1998 14.9682 26.8202 15.4549 28.4652C15.9971 30.3691 16.7426 31.3488 17.2294 31.1701C17.3341 31.1454 17.4327 31.0161 17.5128 30.8867C19.4167 35.1626 22.2262 37.1959 25.1836 37.1959C28.1411 37.1959 30.9506 35.1626 32.8545 30.8867C32.9346 31.0407 33.0332 31.1454 33.1379 31.1701C33.6247 31.3241 34.3763 30.3444 34.9124 28.4652C35.4792 26.586 35.3991 24.7069 34.6782 24.5036L34.6844 24.5097ZM25.1836 35.9883C21.7579 35.9883 18.5664 32.2545 17.2787 25.896C17.1739 25.3292 17.1 24.787 17.0753 24.2756H17.0507C17.1555 22.5751 17.7223 21.1087 18.5972 19.9503C18.7512 20.8252 18.9853 21.5707 19.1887 22.0082C19.8849 23.4007 22.3802 27.8245 24.0253 28.1326L22.1954 24.3495C22.1954 24.3495 24.6661 27.2823 26.2619 27.7752C28.1411 28.342 30.9198 27.8245 32.5402 27.4178C32.5649 27.5226 32.6204 27.6212 32.645 27.7259C31.154 32.7967 28.2951 35.9883 25.1775 35.9883H25.1836Z" fill="#EC1F26"/>
<g id="Group_2">
<path id="Vector_3" d="M10.8892 16.919V10.733H17.0752V9.77185H9.92188V16.919H10.8892Z" fill="#EC1F26"/>
<path id="Vector_4" d="M31.918 10.733H38.1101V16.919H39.0713V9.77185H31.918V10.733Z" fill="#EC1F26"/>
<path id="Vector_5" d="M38.1101 31.7678V37.9538H31.918V38.921H39.0713V31.7678H38.1101Z" fill="#EC1F26"/>
<path id="Vector_6" d="M17.0752 37.9538H10.8892V31.7678H9.92188V38.921H17.0752V37.9538Z" fill="#EC1F26"/>
</g>
</g>
</svg>
