<svg width="47" height="47" viewBox="0 0 47 47" fill="none" xmlns="http://www.w3.org/2000/svg">
<g id="Group">
<path id="Vector" d="M1.07031 23.43C1.07031 11.0597 11.13 1 23.5003 1C35.8706 1 45.9303 11.0597 45.9303 23.43C45.9303 35.8003 35.8706 45.86 23.5003 45.86C11.13 45.86 1.07031 35.8003 1.07031 23.43ZM45.2207 23.43C45.2207 11.4514 35.4789 1.70963 23.5003 1.70963C11.5218 1.70963 1.77994 11.4514 1.77994 23.43C1.77994 35.4086 11.5218 45.1504 23.5003 45.1504C35.4789 45.1504 45.2207 35.4086 45.2207 23.43Z" fill="#EC1F26" stroke="#EC1F26" stroke-width="0.534048"/>
<g id="Group 1973340226">
<g id="Group_2">
<path id="Vector_2" d="M14.2476 19.0249C15.8996 15.5676 19.4194 13.1719 23.5012 13.1719C27.583 13.1719 31.1027 15.5732 32.7548 19.0249H33.4984C31.801 15.1872 27.9577 12.4963 23.5012 12.4963C19.0447 12.4963 15.2013 15.1872 13.5039 19.0249H14.2476Z" fill="#EC1F26" stroke="#EC1F26" stroke-width="0.747667"/>
<path id="Vector_3" d="M32.1038 29.0051C30.2702 31.8209 27.1024 33.6942 23.5031 33.6942C19.9039 33.6942 16.7304 31.8266 14.9024 29.0051H14.1133C16.0208 32.2069 19.5122 34.3642 23.5031 34.3642C27.4941 34.3642 30.9854 32.2069 32.8929 29.0051H32.1038Z" fill="#EC1F26" stroke="#EC1F26" stroke-width="0.747667"/>
</g>
<path id="Vector_4" d="M8.94974 16.7713C8.82485 16.7713 8.72266 16.6691 8.72266 16.5442V13.541C8.72266 13.4161 8.82485 13.314 8.94974 13.314H11.9529C12.0778 13.314 12.18 13.4161 12.18 13.541C12.18 13.6659 12.0778 13.7681 11.9529 13.7681H9.17115V16.5499C9.17115 16.6747 9.06896 16.7769 8.94406 16.7769L8.94974 16.7713Z" fill="#EC1F26" stroke="#EC1F26" stroke-width="0.747667"/>
<path id="Vector_5" d="M38.0466 16.7713C38.1715 16.7713 38.2737 16.6691 38.2737 16.5442V13.541C38.2737 13.4161 38.1715 13.314 38.0466 13.314H35.0435C34.9186 13.314 34.8164 13.4161 34.8164 13.541C34.8164 13.6659 34.9186 13.7681 35.0435 13.7681H37.8252V16.5499C37.8252 16.6747 37.9274 16.7769 38.0523 16.7769L38.0466 16.7713Z" fill="#EC1F26" stroke="#EC1F26" stroke-width="0.747667"/>
<path id="Vector_6" d="M8.94974 30.095C8.82485 30.095 8.72266 30.1972 8.72266 30.3221V33.3253C8.72266 33.4502 8.82485 33.5523 8.94974 33.5523H11.9529C12.0778 33.5523 12.18 33.4502 12.18 33.3253C12.18 33.2004 12.0778 33.0982 11.9529 33.0982H9.17115V30.3165C9.17115 30.1916 9.06896 30.0894 8.94406 30.0894L8.94974 30.095Z" fill="#EC1F26" stroke="#EC1F26" stroke-width="0.747667"/>
<path id="Vector_7" d="M38.0466 30.095C38.1715 30.095 38.2737 30.1972 38.2737 30.3221V33.3253C38.2737 33.4502 38.1715 33.5523 38.0466 33.5523H35.0435C34.9186 33.5523 34.8164 33.4502 34.8164 33.3253C34.8164 33.2004 34.9186 33.0982 35.0435 33.0982H37.8252V30.3165C37.8252 30.1916 37.9274 30.0894 38.0523 30.0894L38.0466 30.095Z" fill="#EC1F26" stroke="#EC1F26" stroke-width="0.747667"/>
</g>
</g>
</svg>
