<svg width="45" height="45" viewBox="0 0 45 45" fill="none" xmlns="http://www.w3.org/2000/svg">
<g id="Group">
<path id="Vector" d="M22.4996 44.8C10.1459 44.8 0.0996094 34.7537 0.0996094 22.4C0.0996094 10.0462 10.1459 0 22.4996 0C34.8534 0 44.8996 10.0462 44.8996 22.4C44.8996 34.7537 34.8534 44.8 22.4996 44.8ZM22.4996 0.708682C10.5371 0.708682 0.808291 10.4374 0.808291 22.4C0.808291 34.3625 10.5371 44.0913 22.4996 44.0913C34.4622 44.0913 44.191 34.3625 44.191 22.4C44.191 10.4374 34.4622 0.708682 22.4996 0.708682Z" fill="#EC1F26"/>
<path id="Vector_2" d="M34.3638 32.9044H27.4958C30.1897 31.4688 32.2651 29.0983 33.3311 26.2396C34.3971 23.3809 34.3802 20.2314 33.2833 17.3843C32.1865 14.5373 30.0857 12.1893 27.3765 10.7828C24.6673 9.3763 21.5369 9.00833 18.5751 9.74824C15.6132 10.4881 13.0244 12.2848 11.2964 14.7998C9.56831 17.3148 8.82034 20.3745 9.19337 23.4023C9.56639 26.4301 11.0347 29.2172 13.3215 31.2383C15.6084 33.2594 18.5561 34.375 21.6091 34.375H34.3638C34.5589 34.375 34.7461 34.2975 34.8841 34.1596C35.0221 34.0217 35.0996 33.8347 35.0996 33.6397C35.0996 33.4447 35.0221 33.2577 34.8841 33.1198C34.7461 32.9819 34.5589 32.9044 34.3638 32.9044ZM10.5713 21.875C10.5713 19.6936 11.2187 17.5612 12.4315 15.7474C13.6444 13.9336 15.3682 12.52 17.3851 11.6852C19.402 10.8504 21.6213 10.632 23.7624 11.0575C25.9035 11.4831 27.8703 12.5336 29.4139 14.076C30.9576 15.6185 32.0088 17.5838 32.4347 19.7233C32.8606 21.8628 32.642 24.0804 31.8066 26.0958C30.9712 28.1111 29.5564 29.8337 27.7413 31.0456C25.9261 32.2575 23.7921 32.9044 21.6091 32.9044C18.6827 32.9012 15.8771 31.7381 13.8078 29.6704C11.7385 27.6027 10.5746 24.7992 10.5713 21.875ZM21.6091 18.6887C22.1427 18.6887 22.6643 18.5306 23.1081 18.2344C23.5518 17.9381 23.8976 17.517 24.1018 17.0244C24.306 16.5318 24.3594 15.9897 24.2553 15.4667C24.1512 14.9437 23.8942 14.4633 23.5169 14.0862C23.1396 13.7092 22.6588 13.4524 22.1354 13.3484C21.6121 13.2444 21.0696 13.2978 20.5765 13.5018C20.0835 13.7059 19.6621 14.0514 19.3657 14.4948C19.0692 14.9382 18.9109 15.4594 18.9109 15.9927C18.9109 16.7077 19.1952 17.3935 19.7012 17.8991C20.2072 18.4047 20.8935 18.6887 21.6091 18.6887ZM21.6091 14.7672C21.8516 14.7672 22.0887 14.839 22.2904 14.9737C22.4921 15.1084 22.6493 15.2998 22.7421 15.5237C22.8349 15.7476 22.8592 15.994 22.8119 16.2317C22.7646 16.4695 22.6478 16.6878 22.4763 16.8592C22.3047 17.0306 22.0862 17.1473 21.8483 17.1946C21.6104 17.2419 21.3638 17.2176 21.1397 17.1249C20.9156 17.0321 20.7241 16.875 20.5893 16.6735C20.4546 16.472 20.3826 16.235 20.3826 15.9927C20.3826 15.6676 20.5119 15.3559 20.7419 15.1261C20.9719 14.8963 21.2838 14.7672 21.6091 14.7672ZM24.3072 27.7574C24.3072 27.2241 24.1489 26.7029 23.8525 26.2595C23.556 25.8161 23.1346 25.4706 22.6416 25.2665C22.1486 25.0624 21.6061 25.0091 21.0827 25.1131C20.5593 25.2171 20.0785 25.4739 19.7012 25.8509C19.3239 26.228 19.0669 26.7084 18.9628 27.2314C18.8587 27.7544 18.9121 28.2965 19.1163 28.7891C19.3205 29.2817 19.6664 29.7028 20.1101 29.9991C20.5538 30.2953 21.0754 30.4534 21.6091 30.4534C22.3246 30.4534 23.0109 30.1694 23.5169 29.6638C24.0229 29.1582 24.3072 28.4724 24.3072 27.7574ZM20.3826 27.7574C20.3826 27.515 20.4546 27.278 20.5893 27.0765C20.7241 26.875 20.9156 26.7179 21.1397 26.6252C21.3638 26.5324 21.6104 26.5081 21.8483 26.5554C22.0862 26.6027 22.3047 26.7194 22.4763 26.8908C22.6478 27.0622 22.7646 27.2806 22.8119 27.5183C22.8592 27.756 22.8349 28.0024 22.7421 28.2263C22.6493 28.4503 22.4921 28.6417 22.2904 28.7763C22.0887 28.911 21.8516 28.9828 21.6091 28.9828C21.2838 28.9828 20.9719 28.8537 20.7419 28.6239C20.5119 28.3941 20.3826 28.0824 20.3826 27.7574ZM27.4958 24.5711C28.0295 24.5711 28.5511 24.413 28.9948 24.1167C29.4385 23.8205 29.7844 23.3994 29.9886 22.9068C30.1928 22.4141 30.2462 21.872 30.1421 21.349C30.038 20.826 29.781 20.3456 29.4037 19.9686C29.0264 19.5915 28.5456 19.3348 28.0222 19.2307C27.4988 19.1267 26.9563 19.1801 26.4633 19.3842C25.9703 19.5882 25.5489 19.9338 25.2524 20.3772C24.956 20.8205 24.7977 21.3418 24.7977 21.875C24.7977 22.5901 25.082 23.2758 25.588 23.7814C26.094 24.287 26.7803 24.5711 27.4958 24.5711ZM27.4958 20.6495C27.7384 20.6495 27.9755 20.7214 28.1772 20.8561C28.3789 20.9907 28.5361 21.1821 28.6289 21.406C28.7217 21.63 28.746 21.8764 28.6987 22.1141C28.6514 22.3518 28.5346 22.5702 28.3631 22.7416C28.1915 22.913 27.973 23.0297 27.7351 23.077C27.4972 23.1242 27.2506 23.1 27.0265 23.0072C26.8024 22.9145 26.6109 22.7574 26.4761 22.5559C26.3414 22.3543 26.2694 22.1174 26.2694 21.875C26.2694 21.55 26.3986 21.2383 26.6286 21.0085C26.8586 20.7786 27.1706 20.6495 27.4958 20.6495ZM15.7223 19.1789C15.1886 19.1789 14.667 19.3371 14.2233 19.6333C13.7796 19.9296 13.4338 20.3506 13.2295 20.8433C13.0253 21.3359 12.9719 21.878 13.076 22.401C13.1801 22.924 13.4371 23.4044 13.8144 23.7814C14.1918 24.1585 14.6725 24.4153 15.1959 24.5193C15.7193 24.6233 16.2618 24.5699 16.7548 24.3659C17.2478 24.1618 17.6692 23.8162 17.9657 23.3729C18.2621 22.9295 18.4204 22.4082 18.4204 21.875C18.4204 21.16 18.1361 20.4742 17.6301 19.9686C17.1241 19.463 16.4379 19.1789 15.7223 19.1789ZM15.7223 23.1005C15.4797 23.1005 15.2426 23.0286 15.0409 22.894C14.8392 22.7593 14.682 22.5679 14.5892 22.344C14.4964 22.1201 14.4721 21.8736 14.5194 21.6359C14.5667 21.3982 14.6836 21.1798 14.8551 21.0085C15.0266 20.8371 15.2451 20.7204 15.483 20.6731C15.7209 20.6258 15.9675 20.6501 16.1916 20.7428C16.4157 20.8356 16.6072 20.9926 16.742 21.1942C16.8768 21.3957 16.9487 21.6326 16.9487 21.875C16.9487 22.2 16.8195 22.5117 16.5895 22.7416C16.3595 22.9714 16.0475 23.1005 15.7223 23.1005Z" fill="#EC1F26"/>
</g>
</svg>
