<svg width="45" height="45" viewBox="0 0 45 45" fill="none" xmlns="http://www.w3.org/2000/svg">
<g id="Group">
<path id="Vector" d="M22.4996 44.8C10.1459 44.8 0.0996094 34.7537 0.0996094 22.4C0.0996094 10.0462 10.1459 0 22.4996 0C34.8534 0 44.8996 10.0462 44.8996 22.4C44.8996 34.7537 34.8534 44.8 22.4996 44.8ZM22.4996 0.708682C10.5371 0.708682 0.808291 10.4374 0.808291 22.4C0.808291 34.3625 10.5371 44.0913 22.4996 44.0913C34.4622 44.0913 44.191 34.3625 44.191 22.4C44.191 10.4374 34.4622 0.708682 22.4996 0.708682Z" fill="#EC1F26"/>
<path id="Vector_2" d="M22.0924 6.27014C21.9813 6.27069 21.8715 6.29321 21.7692 6.33639C21.6669 6.37958 21.5742 6.44258 21.4963 6.52177C21.4185 6.60096 21.3571 6.69477 21.3157 6.79779C21.2743 6.90081 21.2536 7.01101 21.255 7.12204V12.3867C21.255 12.8692 21.6243 13.238 22.0924 13.238C22.5749 13.238 22.9436 12.8686 22.9436 12.3867V7.12144C22.9436 6.6528 22.5749 6.26953 22.0924 6.26953M17.9062 6.6528C17.4382 6.7521 17.1827 7.16382 17.3104 7.70269L17.7784 9.49127C17.9062 9.93084 18.3603 10.1724 18.8852 10.0162C19.3817 9.86 19.5664 9.46281 19.4386 9.0087L18.9421 7.29157C18.8005 6.78055 18.3748 6.56743 17.9068 6.6528M26.2937 6.69518C25.8396 6.53957 25.3855 6.76602 25.2577 7.29157L24.7752 9.03716C24.6474 9.49127 24.8884 9.9593 25.3425 10.0725C25.8111 10.1864 26.2652 9.94537 26.393 9.47674L26.861 7.73115C26.9887 7.24859 26.7338 6.82233 26.2937 6.69518ZM14.1033 8.39899C13.9084 8.51265 13.7662 8.69867 13.7077 8.91659C13.6492 9.13451 13.6791 9.36671 13.7909 9.56271L16.4307 14.1322C16.4832 14.2307 16.5552 14.3173 16.6425 14.3868C16.7297 14.4564 16.8302 14.5073 16.9379 14.5365C17.0455 14.5657 17.158 14.5726 17.2684 14.5567C17.3788 14.5408 17.4848 14.5025 17.5798 14.4441C17.9916 14.217 18.1332 13.706 17.8777 13.2949L15.2524 8.71142C15.0115 8.31362 14.515 8.18586 14.1033 8.39899ZM30.1099 8.41292C29.6982 8.18586 29.1739 8.31362 28.9468 8.71081L26.307 13.2943C26.2493 13.3896 26.2116 13.4957 26.1961 13.6061C26.1806 13.7164 26.1876 13.8288 26.2168 13.9364C26.2461 14.0439 26.2968 14.1444 26.366 14.2318C26.4352 14.3192 26.5214 14.3916 26.6194 14.4447C27.0166 14.6856 27.5276 14.5579 27.7686 14.1322L30.3945 9.56271C30.6361 9.15099 30.5077 8.6545 30.1099 8.41292ZM10.6691 10.8542C10.3288 11.1805 10.3712 11.72 10.683 12.0458L11.946 13.3233C12.3008 13.6781 12.7834 13.6921 13.1527 13.3373C13.4645 13.0109 13.493 12.4999 13.1382 12.1311L11.8752 10.8681C11.5058 10.4988 11.0239 10.5133 10.6691 10.8542ZM33.5156 10.8681C33.1893 10.5278 32.6498 10.5557 32.338 10.8681L31.0466 12.1457C30.6918 12.5144 30.6918 12.997 31.0326 13.3373C31.3874 13.6921 31.8985 13.6921 32.2248 13.3518L33.4878 12.0742C33.842 11.7049 33.8565 11.2084 33.5156 10.8681ZM8.24238 14.26C8.13205 14.4548 8.10144 14.6847 8.15698 14.9016C8.21252 15.1184 8.34989 15.3054 8.54027 15.4231L13.1097 18.063C13.5353 18.304 14.0464 18.1623 14.2734 17.7651C14.3321 17.6689 14.3706 17.5619 14.3867 17.4503C14.4028 17.3388 14.396 17.2252 14.3668 17.1164C14.3377 17.0076 14.2867 16.9058 14.2171 16.8173C14.1474 16.7288 14.0605 16.6553 13.9616 16.6014L9.39216 13.9615C8.98044 13.7344 8.48396 13.8622 8.24238 14.26ZM35.9569 14.2739C35.7292 13.8622 35.2188 13.735 34.8071 13.9615L30.2377 16.6014C30.1388 16.6553 30.0518 16.7288 29.9822 16.8173C29.9125 16.9058 29.8616 17.0076 29.8324 17.1164C29.8033 17.2252 29.7965 17.3388 29.8126 17.4503C29.8286 17.5619 29.8672 17.6689 29.9259 17.7651C30.1529 18.1623 30.6494 18.304 31.075 18.063L35.6445 15.4231C36.0562 15.1821 36.1833 14.6856 35.9569 14.2739ZM37.7018 18.1054C37.5886 17.6373 37.106 17.3673 36.6804 17.4951L34.9064 17.9776C34.4523 18.1054 34.1683 18.5456 34.3391 19.0705C34.4523 19.4398 34.8495 19.7371 35.3466 19.6094L37.0782 19.1274C37.5601 18.9997 37.8156 18.5456 37.7018 18.1054ZM6.48291 18.0914C6.38361 18.5456 6.66757 18.9997 7.09321 19.1268L8.83876 19.6233C9.30679 19.7371 9.77481 19.4822 9.87411 19.0136C9.97401 18.5595 9.76089 18.0769 9.29286 17.9637L7.54731 17.5235C7.0363 17.3964 6.56828 17.6513 6.48291 18.0914ZM38.0996 22.2632C38.0991 22.1521 38.0765 22.0423 38.0334 21.94C37.9902 21.8377 37.9272 21.745 37.848 21.6671C37.7688 21.5893 37.675 21.5279 37.572 21.4865C37.469 21.4451 37.3588 21.4244 37.2477 21.4258H31.9693C31.4867 21.4258 31.1319 21.7951 31.1319 22.2632C31.1319 22.7457 31.4867 23.1151 31.9693 23.1151H37.2477C37.7164 23.1151 38.0996 22.7457 38.0996 22.2632ZM6.09965 22.2632C6.09965 22.7457 6.46898 23.1151 6.937 23.1151H12.216C12.6986 23.1151 13.0673 22.7457 13.0673 22.2632C13.0673 21.7951 12.698 21.4258 12.216 21.4258H6.937C6.82675 21.4247 6.71739 21.4457 6.61532 21.4874C6.51325 21.5291 6.42053 21.5908 6.34256 21.6687C6.26459 21.7467 6.20295 21.8394 6.16125 21.9415C6.11954 22.0436 6.0986 22.1529 6.09965 22.2632ZM37.7018 26.4924C37.8296 26.0099 37.6031 25.5697 37.106 25.428L35.3466 24.9315C34.8785 24.8038 34.4384 25.0732 34.3112 25.5273C34.1968 25.9953 34.4523 26.4779 34.9064 26.5917L36.638 27.0458C37.1345 27.173 37.5747 26.9181 37.7018 26.4924ZM6.48291 26.45C6.59613 26.9041 7.09321 27.1451 7.53278 27.0458L9.27833 26.6056C9.77481 26.4785 10.0164 26.0383 9.87471 25.5703C9.81618 25.3532 9.67497 25.1677 9.48133 25.0535C9.28769 24.9393 9.05703 24.9055 8.83876 24.9594L7.12167 25.428C6.61066 25.5697 6.383 26.0099 6.48291 26.45ZM35.9569 30.2664C36.1839 29.8692 36.0556 29.3581 35.6445 29.1172L31.075 26.4773C30.9791 26.4202 30.8729 26.3826 30.7624 26.3667C30.6519 26.3508 30.5394 26.3568 30.4313 26.3845C30.3232 26.4122 30.2216 26.461 30.1324 26.528C30.0431 26.595 29.968 26.679 29.9113 26.7752C29.8554 26.8728 29.8195 26.9806 29.8057 27.0923C29.7919 27.2039 29.8005 27.3172 29.8309 27.4256C29.8614 27.5339 29.913 27.6351 29.983 27.7232C30.0529 27.8113 30.1397 27.8847 30.2383 27.9389L34.8071 30.5788C35.2188 30.8058 35.7153 30.6781 35.9569 30.2664ZM8.24238 30.2664C8.46943 30.6781 8.98044 30.8052 9.39216 30.5788L13.9616 27.9389C14.3872 27.6979 14.515 27.1869 14.2734 26.7897C14.0464 26.378 13.5353 26.2363 13.1097 26.4773L8.54027 29.1172C8.14309 29.3581 8.01533 29.8546 8.24238 30.2664ZM14.1033 36.1274C14.5005 36.3544 15.0115 36.2267 15.2524 35.8149L17.8777 31.2454C17.937 31.1508 17.9768 31.0452 17.9946 30.935C18.0124 30.8248 18.008 30.7121 17.9815 30.6036C17.955 30.4951 17.9071 30.393 17.8405 30.3034C17.7739 30.2137 17.69 30.1384 17.5938 30.0817C17.1821 29.8546 16.6577 29.9824 16.4307 30.4086L13.7909 34.9776C13.5638 35.3893 13.6916 35.8858 14.1033 36.1274ZM30.096 36.1274C30.5077 35.9003 30.6349 35.3893 30.3939 34.9776L27.7686 30.408C27.7155 30.3102 27.6433 30.2241 27.5565 30.1545C27.4696 30.085 27.3697 30.0335 27.2626 30.0031C27.1556 29.9727 27.0436 29.964 26.9331 29.9775C26.8226 29.991 26.716 30.0264 26.6194 30.0817C26.2077 30.3233 26.066 30.8337 26.307 31.2454L28.9468 35.8149C29.1739 36.2267 29.6843 36.3538 30.096 36.1274ZM33.5017 33.7006C33.8565 33.3458 33.842 32.8063 33.5302 32.4945L32.2387 31.217C31.8839 30.8906 31.3729 30.8482 31.0181 31.217C30.6918 31.5718 30.7063 32.0543 31.0326 32.3952L32.3102 33.6722C32.6644 34.027 33.1754 34.0415 33.5017 33.7006ZM10.683 33.6867C11.0378 34.027 11.5349 34.027 11.8612 33.7145L13.1527 32.4376C13.493 32.0683 13.5069 31.5863 13.1666 31.2454C12.8263 30.9051 12.3008 30.8906 11.9605 31.2315L10.6975 32.509C10.3427 32.8772 10.3282 33.3464 10.683 33.6867ZM22.0924 38.2695C22.5749 38.2695 22.9436 37.8863 22.9436 37.4182V32.153C22.9458 32.0406 22.9252 31.929 22.8832 31.8247C22.8412 31.7205 22.7786 31.6258 22.6991 31.5463C22.6196 31.4668 22.5249 31.4042 22.4206 31.3622C22.3164 31.3201 22.2047 31.2996 22.0924 31.3017C21.6243 31.3017 21.255 31.6711 21.255 32.153V37.4182C21.255 37.8863 21.6243 38.2695 22.0924 38.2695ZM26.2931 37.8863C26.8319 37.7585 26.9881 37.2905 26.8743 36.8503L26.4202 35.0623C26.2931 34.6082 25.8105 34.3527 25.3564 34.4805C24.8454 34.6221 24.6468 35.0908 24.7746 35.5158L25.271 37.2475C25.4133 37.7161 25.7821 37.9862 26.2931 37.8863ZM17.8353 37.8723C18.3603 38.0419 18.8283 37.7301 18.9421 37.2905L19.4247 35.5449C19.5518 35.0908 19.2969 34.6221 18.8428 34.5089C18.3748 34.3951 17.9207 34.6361 17.793 35.1047L17.3389 36.8503C17.2111 37.3329 17.3667 37.7301 17.8353 37.8723Z" fill="#EC1F26"/>
</g>
</svg>
