<svg width="46" height="47" viewBox="0 0 46 47" fill="none" xmlns="http://www.w3.org/2000/svg">
<g id="Group">
<path id="Vector" d="M23.0002 45.8636C10.6289 45.8636 0.568359 35.8031 0.568359 23.4318C0.568359 11.0605 10.6346 1 23.0002 1C35.3658 1 45.432 11.0605 45.432 23.4318C45.432 35.8031 35.3715 45.8636 23.0002 45.8636ZM23.0002 1.70969C11.0206 1.70969 1.27805 11.4523 1.27805 23.4318C1.27805 35.4114 11.0206 45.154 23.0002 45.154C34.9797 45.154 44.7223 35.4114 44.7223 23.4318C44.7223 11.4523 34.9797 1.70969 23.0002 1.70969Z" fill="#EC1F26" stroke="#EC1F26" stroke-width="0.534091"/>
<g id="Group 1973340227">
<path id="Vector_2" d="M22.9979 33.3457C17.5304 33.3457 13.085 28.9002 13.085 23.4327C13.085 18.9645 16.0997 15.0357 20.4146 13.8718L21.3968 13.605L20.7893 14.4225C19.6482 15.9668 19.0407 17.7893 19.0407 19.6913C19.0407 24.5853 23.0206 28.5595 27.9089 28.5595C28.982 28.5595 30.0493 28.3608 31.077 27.9634L32.0308 27.6L31.5085 28.48C29.7257 31.4778 26.4612 33.34 22.9865 33.34L22.9979 33.3457ZM19.6482 14.8711C16.1565 16.2337 13.7946 19.6231 13.7946 23.4327C13.7946 28.5084 17.9222 32.636 22.9979 32.636C25.8877 32.636 28.6186 31.245 30.3503 28.957C29.5554 29.167 28.7378 29.2749 27.9203 29.2749C22.6402 29.2749 18.3367 24.977 18.3367 19.6969C18.3367 17.988 18.7852 16.3359 19.6482 14.8711Z" fill="#EC1F26" stroke="#EC1F26" stroke-width="0.534091"/>
<path id="Vector_3" d="M29.2891 15.9156C29.5786 16.3357 29.942 16.7048 30.3678 16.9943C29.9476 17.2839 29.5786 17.6472 29.2891 18.073C28.9995 17.6529 28.6361 17.2839 28.2103 16.9943C28.6305 16.7048 28.9995 16.3414 29.2891 15.9156ZM29.2891 13.9398L29.272 13.9569C29.1131 15.5466 27.847 16.8126 26.2573 16.9716L26.2402 16.9886L26.2573 17.0057C27.847 17.1646 29.1131 18.4307 29.272 20.0204L29.2891 20.0375L29.3061 20.0204C29.4651 18.4307 30.7311 17.1646 32.3208 17.0057L32.3379 16.9886L32.3208 16.9716C30.7311 16.8126 29.4651 15.5466 29.3061 13.9569L29.2891 13.9398Z" fill="#EC1F26" stroke="#EC1F26" stroke-width="0.534091"/>
<path id="Vector_4" d="M23.6856 19.845C23.9127 20.1743 24.1966 20.4582 24.5259 20.6853C24.1966 20.9124 23.9127 21.1963 23.6856 21.5256C23.4585 21.1963 23.1746 20.9124 22.8453 20.6853C23.1746 20.4582 23.4585 20.1743 23.6856 19.845ZM23.6856 18.2723L23.6742 18.2837C23.5493 19.5441 22.5444 20.5433 21.2897 20.6682L21.2783 20.6796L21.2897 20.691C22.5501 20.8159 23.5493 21.8208 23.6742 23.0755L23.6856 23.0869L23.6969 23.0755C23.8218 21.8151 24.8268 20.8159 26.0815 20.691L26.0928 20.6796L26.0815 20.6682C24.8211 20.5433 23.8218 19.5384 23.6969 18.2837L23.6856 18.2723Z" fill="#EC1F26" stroke="#EC1F26" stroke-width="0.534091"/>
<path id="Vector_5" d="M27.7993 24.4258C27.9753 24.6813 28.1967 24.9084 28.4579 25.0844C28.2024 25.2604 27.9753 25.4818 27.7993 25.743C27.6233 25.4875 27.4019 25.2604 27.1407 25.0844C27.3962 24.9084 27.6233 24.687 27.7993 24.4258ZM27.7993 23.2392L27.7879 23.2506C27.6914 24.2157 26.925 24.9765 25.9655 25.073L25.9541 25.0844L25.9655 25.0957C26.9306 25.1923 27.6914 25.9587 27.7879 26.9182L27.7993 26.9296L27.8106 26.9182C27.9072 25.953 28.6736 25.1923 29.6331 25.0957L29.6445 25.0844L29.6331 25.073C28.668 24.9765 27.9072 24.2101 27.8106 23.2506L27.7993 23.2392Z" fill="#EC1F26" stroke="#EC1F26" stroke-width="0.534091"/>
</g>
</g>
</svg>
