<svg width="34" height="34" viewBox="0 0 34 34" fill="none" xmlns="http://www.w3.org/2000/svg">
<path d="M13.6003 28.3327H20.4003C26.067 28.3327 28.3337 26.066 28.3337 20.3993V13.5993C28.3337 7.93268 26.067 5.66602 20.4003 5.66602H13.6003C7.93366 5.66602 5.66699 7.93268 5.66699 13.5993V20.3993C5.66699 26.066 7.93366 28.3327 13.6003 28.3327Z" stroke="white" stroke-width="1.5" stroke-linecap="round" stroke-linejoin="round"/>
<path opacity="0.6" d="M14.8753 24.0827H19.1253C22.667 24.0827 24.0837 22.666 24.0837 19.1243V14.8743C24.0837 11.3327 22.667 9.91602 19.1253 9.91602H14.8753C11.3337 9.91602 9.91699 11.3327 9.91699 14.8743V19.1243C9.91699 22.666 11.3337 24.0827 14.8753 24.0827Z" stroke="white" stroke-width="1.5" stroke-linecap="round" stroke-linejoin="round"/>
<path d="M11.3477 5.66732V2.83398" stroke="white" stroke-width="1.5" stroke-linecap="round" stroke-linejoin="round"/>
<path d="M17 5.66732V2.83398" stroke="white" stroke-width="1.5" stroke-linecap="round" stroke-linejoin="round"/>
<path d="M22.667 5.66732V2.83398" stroke="white" stroke-width="1.5" stroke-linecap="round" stroke-linejoin="round"/>
<path d="M28.333 11.334H31.1663" stroke="white" stroke-width="1.5" stroke-linecap="round" stroke-linejoin="round"/>
<path d="M28.333 17H31.1663" stroke="white" stroke-width="1.5" stroke-linecap="round" stroke-linejoin="round"/>
<path d="M28.333 22.666H31.1663" stroke="white" stroke-width="1.5" stroke-linecap="round" stroke-linejoin="round"/>
<path d="M22.667 28.334V31.1673" stroke="white" stroke-width="1.5" stroke-linecap="round" stroke-linejoin="round"/>
<path d="M17.0146 28.334V31.1673" stroke="white" stroke-width="1.5" stroke-linecap="round" stroke-linejoin="round"/>
<path d="M11.3477 28.334V31.1673" stroke="white" stroke-width="1.5" stroke-linecap="round" stroke-linejoin="round"/>
<path d="M2.83301 11.334H5.66634" stroke="white" stroke-width="1.5" stroke-linecap="round" stroke-linejoin="round"/>
<path d="M2.83301 17H5.66634" stroke="white" stroke-width="1.5" stroke-linecap="round" stroke-linejoin="round"/>
<path d="M2.83301 22.666H5.66634" stroke="white" stroke-width="1.5" stroke-linecap="round" stroke-linejoin="round"/>
</svg>
