<svg width="34" height="34" viewBox="0 0 34 34" fill="none" xmlns="http://www.w3.org/2000/svg">
<path d="M9.57625 31.1673H24.4229C28.3329 31.1673 29.8913 28.7732 30.0754 25.8548L30.8121 14.1532C31.0104 11.0932 28.5738 8.50065 25.4996 8.50065C24.6354 8.50065 23.8421 8.00482 23.4454 7.23982L22.4254 5.18565C21.7738 3.89648 20.0738 2.83398 18.6288 2.83398H15.3846C13.9254 2.83398 12.2254 3.89648 11.5738 5.18565L10.5538 7.23982C10.1571 8.00482 9.36375 8.50065 8.49959 8.50065C5.42542 8.50065 2.98875 11.0932 3.18709 14.1532L3.92375 25.8548C4.09375 28.7732 5.66625 31.1673 9.57625 31.1673Z" stroke="#050036" stroke-width="1.5" stroke-linecap="round" stroke-linejoin="round"/>
<path d="M14.875 11.334H19.125" stroke="#050036" stroke-width="1.5" stroke-linecap="round" stroke-linejoin="round"/>
<path d="M16.9997 25.5013C19.5355 25.5013 21.6038 23.433 21.6038 20.8971C21.6038 18.3613 19.5355 16.293 16.9997 16.293C14.4638 16.293 12.3955 18.3613 12.3955 20.8971C12.3955 23.433 14.4638 25.5013 16.9997 25.5013Z" stroke="#050036" stroke-width="1.5" stroke-linecap="round" stroke-linejoin="round"/>
</svg>
