<svg width="53" height="52" viewBox="0 0 53 52" fill="none" xmlns="http://www.w3.org/2000/svg">
<path d="M19.9987 47.6654H32.9987C43.832 47.6654 48.1654 43.332 48.1654 32.4987V19.4987C48.1654 8.66536 43.832 4.33203 32.9987 4.33203H19.9987C9.16536 4.33203 4.83203 8.66536 4.83203 19.4987V32.4987C4.83203 43.332 9.16536 47.6654 19.9987 47.6654Z" stroke="url(#paint0_linear_7159_79625)" stroke-width="1.5" stroke-linecap="round" stroke-linejoin="round"/>
<path d="M18.9154 25.9987C23.1035 25.9987 26.4987 22.6035 26.4987 18.4154C26.4987 14.2272 23.1035 10.832 18.9154 10.832C14.7272 10.832 11.332 14.2272 11.332 18.4154C11.332 22.6035 14.7272 25.9987 18.9154 25.9987Z" stroke="url(#paint1_linear_7159_79625)" stroke-width="1.5" stroke-linecap="round" stroke-linejoin="round"/>
<path d="M34.0833 41.1667C38.2715 41.1667 41.6667 37.7715 41.6667 33.5833C41.6667 29.3952 38.2715 26 34.0833 26C29.8952 26 26.5 29.3952 26.5 33.5833C26.5 37.7715 29.8952 41.1667 34.0833 41.1667Z" stroke="url(#paint2_linear_7159_79625)" stroke-width="1.5" stroke-linecap="round" stroke-linejoin="round"/>
<defs>
<linearGradient id="paint0_linear_7159_79625" x1="-8.52227" y1="11.338" x2="41.661" y2="21.4413" gradientUnits="userSpaceOnUse">
<stop stop-color="#D5EEF9"/>
<stop offset="1" stop-color="#70A2E1"/>
</linearGradient>
<linearGradient id="paint1_linear_7159_79625" x1="6.65803" y1="13.2841" x2="24.2222" y2="16.8203" gradientUnits="userSpaceOnUse">
<stop stop-color="#D5EEF9"/>
<stop offset="1" stop-color="#70A2E1"/>
</linearGradient>
<linearGradient id="paint2_linear_7159_79625" x1="21.826" y1="28.4521" x2="39.3901" y2="31.9883" gradientUnits="userSpaceOnUse">
<stop stop-color="#D5EEF9"/>
<stop offset="1" stop-color="#70A2E1"/>
</linearGradient>
</defs>
</svg>
