<svg width="28" height="38" viewBox="0 0 28 38" fill="none" xmlns="http://www.w3.org/2000/svg">
<path d="M26.4977 9.5013V21.8138H1.08105V9.5013C1.08105 6.41635 3.57943 3.91797 6.66439 3.91797H20.9144C23.9993 3.91797 26.4977 6.41635 26.4977 9.5013Z" stroke="white" stroke-width="1.5"/>
<path d="M7.62826 18.0963H6.04492C5.58314 18.0963 5.19671 17.7098 5.19671 17.248C5.19671 16.7863 5.58314 16.3998 6.04492 16.3998H7.62826C8.09004 16.3998 8.47647 16.7863 8.47647 17.248C8.47647 17.7098 8.09004 18.0963 7.62826 18.0963Z" fill="white" stroke="white" stroke-width="0.678572"/>
<path d="M7.62826 14.1373H6.04492C5.58314 14.1373 5.19671 13.7508 5.19671 13.2891C5.19671 12.8273 5.58314 12.4408 6.04492 12.4408H7.62826C8.09004 12.4408 8.47647 12.8273 8.47647 13.2891C8.47647 13.7508 8.09004 14.1373 7.62826 14.1373Z" fill="white" stroke="white" stroke-width="0.678572"/>
<path d="M7.62826 10.5195H6.04492C5.39576 10.5195 4.85742 9.9812 4.85742 9.33203C4.85742 8.68286 5.39576 8.14453 6.04492 8.14453H7.62826C8.27742 8.14453 8.81576 8.68286 8.81576 9.33203C8.81576 9.9812 8.27742 10.5195 7.62826 10.5195Z" fill="white"/>
<path d="M1.08105 28.5V25.6875H26.4977V28.5C26.4977 31.585 23.9993 34.0833 20.9144 34.0833H6.66439C3.57943 34.0833 1.08105 31.585 1.08105 28.5Z" stroke="white" stroke-width="1.5"/>
<path d="M21.6848 30.459C21.4715 30.6564 21.1855 30.7719 20.9144 30.7719C20.6433 30.7719 20.3572 30.6564 20.144 30.459C19.9466 30.2457 19.8311 29.9596 19.8311 29.6886C19.8311 29.4154 19.9484 29.1271 20.1485 28.9133C20.5355 28.5321 21.2726 28.5249 21.6826 28.9157C21.8813 29.1293 21.9977 29.4164 21.9977 29.6886C21.9977 29.9596 21.8822 30.2457 21.6848 30.459Z" fill="white" stroke="white"/>
</svg>
