<svg width="511" height="55" viewBox="0 0 511 55" fill="none" xmlns="http://www.w3.org/2000/svg">
<path d="M11.6512 5.75464H11.7884C13.4339 5.75464 14.3938 6.71453 14.3938 8.36007V19.6045C14.3938 21.2501 13.4339 22.21 11.7884 22.21H11.6512C10.0743 22.21 8.9087 23.3755 8.9087 24.9525V25.0896C8.9087 26.7352 7.9488 27.6951 6.30327 27.6951H-10.2892C-11.8662 27.6951 -13.0317 28.8607 -13.0317 30.4376V46.8929C-13.0317 48.4699 -11.8662 49.6355 -10.2892 49.6355H-4.66695C-3.02142 49.6355 -2.06152 50.5954 -2.06152 52.2409V52.5152C-2.06152 54.1607 -3.02142 55.1206 -4.66695 55.1206H-21.3965C-23.0421 55.1206 -24.002 54.1607 -24.002 52.5152V52.2409C-24.002 50.5954 -23.0421 49.6355 -21.3965 49.6355H-21.1223C-19.271 49.6355 -18.5168 48.8813 -18.5168 47.0301V8.36007C-18.5168 6.50884 -19.271 5.75464 -21.1223 5.75464H-21.3965C-23.0421 5.75464 -24.002 4.79475 -24.002 3.14921V2.87496C-24.002 1.22943 -23.0421 0.269531 -21.3965 0.269531H6.30327C7.9488 0.269531 8.9087 1.22943 8.9087 2.87496V3.01209C8.9087 4.58905 10.0743 5.75464 11.6512 5.75464ZM8.9087 19.4674V8.49719C8.9087 6.92023 7.74311 5.75464 6.16614 5.75464H-10.2892C-11.8662 5.75464 -13.0317 6.92023 -13.0317 8.49719V19.4674C-13.0317 21.0444 -11.8662 22.21 -10.2892 22.21H6.16614C7.74311 22.21 8.9087 21.0444 8.9087 19.4674Z" fill="#002144"/>
<path d="M87.2616 5.75464H87.3987C89.0443 5.75464 90.0042 6.71453 90.0042 8.36007V19.6045C90.0042 21.2501 89.0443 22.21 87.3987 22.21H87.2616C85.6846 22.21 84.519 23.3755 84.519 24.9525V25.0896C84.519 26.7352 83.5592 27.6951 81.9136 27.6951H65.3212C63.7442 27.6951 62.5786 28.8607 62.5786 30.4376V46.8929C62.5786 48.4699 63.7442 49.6355 65.3212 49.6355H70.9434C72.5889 49.6355 73.5488 50.5954 73.5488 52.2409V52.5152C73.5488 54.1607 72.5889 55.1206 70.9434 55.1206H54.2138C52.5683 55.1206 51.6084 54.1607 51.6084 52.5152V52.2409C51.6084 50.5954 52.5683 49.6355 54.2138 49.6355H54.4881C56.3393 49.6355 57.0935 48.8813 57.0935 47.0301V8.36007C57.0935 6.50884 56.3393 5.75464 54.4881 5.75464H54.2138C52.5683 5.75464 51.6084 4.79475 51.6084 3.14921V2.87496C51.6084 1.22943 52.5683 0.269531 54.2138 0.269531H81.9136C83.5592 0.269531 84.519 1.22943 84.519 2.87496V3.01209C84.519 4.58905 85.6846 5.75464 87.2616 5.75464ZM84.519 19.4674V8.49719C84.519 6.92023 83.3535 5.75464 81.7765 5.75464H65.3212C63.7442 5.75464 62.5786 6.92023 62.5786 8.49719V19.4674C62.5786 21.0444 63.7442 22.21 65.3212 22.21H81.7765C83.3535 22.21 84.519 21.0444 84.519 19.4674Z" fill="#002144"/>
<path d="M162.871 5.75464H163.008C164.654 5.75464 165.614 6.71453 165.614 8.36007V19.6045C165.614 21.2501 164.654 22.21 163.008 22.21H162.871C161.294 22.21 160.128 23.3755 160.128 24.9525V25.0896C160.128 26.7352 159.169 27.6951 157.523 27.6951H140.931C139.354 27.6951 138.188 28.8607 138.188 30.4376V46.8929C138.188 48.4699 139.354 49.6355 140.931 49.6355H146.553C148.198 49.6355 149.158 50.5954 149.158 52.2409V52.5152C149.158 54.1607 148.198 55.1206 146.553 55.1206H129.823C128.178 55.1206 127.218 54.1607 127.218 52.5152V52.2409C127.218 50.5954 128.178 49.6355 129.823 49.6355H130.097C131.949 49.6355 132.703 48.8813 132.703 47.0301V8.36007C132.703 6.50884 131.949 5.75464 130.097 5.75464H129.823C128.178 5.75464 127.218 4.79475 127.218 3.14921V2.87496C127.218 1.22943 128.178 0.269531 129.823 0.269531H157.523C159.169 0.269531 160.128 1.22943 160.128 2.87496V3.01209C160.128 4.58905 161.294 5.75464 162.871 5.75464ZM160.128 19.4674V8.49719C160.128 6.92023 158.963 5.75464 157.386 5.75464H140.931C139.354 5.75464 138.188 6.92023 138.188 8.49719V19.4674C138.188 21.0444 139.354 22.21 140.931 22.21H157.386C158.963 22.21 160.128 21.0444 160.128 19.4674Z" fill="#002144"/>
<path d="M238.481 5.75464H238.618C240.264 5.75464 241.224 6.71453 241.224 8.36007V19.6045C241.224 21.2501 240.264 22.21 238.618 22.21H238.481C236.904 22.21 235.739 23.3755 235.739 24.9525V25.0896C235.739 26.7352 234.779 27.6951 233.133 27.6951H216.541C214.964 27.6951 213.798 28.8607 213.798 30.4376V46.8929C213.798 48.4699 214.964 49.6355 216.541 49.6355H222.163C223.809 49.6355 224.769 50.5954 224.769 52.2409V52.5152C224.769 54.1607 223.809 55.1206 222.163 55.1206H205.434C203.788 55.1206 202.828 54.1607 202.828 52.5152V52.2409C202.828 50.5954 203.788 49.6355 205.434 49.6355H205.708C207.559 49.6355 208.313 48.8813 208.313 47.0301V8.36007C208.313 6.50884 207.559 5.75464 205.708 5.75464H205.434C203.788 5.75464 202.828 4.79475 202.828 3.14921V2.87496C202.828 1.22943 203.788 0.269531 205.434 0.269531H233.133C234.779 0.269531 235.739 1.22943 235.739 2.87496V3.01209C235.739 4.58905 236.904 5.75464 238.481 5.75464ZM235.739 19.4674V8.49719C235.739 6.92023 234.573 5.75464 232.996 5.75464H216.541C214.964 5.75464 213.798 6.92023 213.798 8.49719V19.4674C213.798 21.0444 214.964 22.21 216.541 22.21H232.996C234.573 22.21 235.739 21.0444 235.739 19.4674Z" fill="#002144"/>
<path d="M314.092 5.75464H314.229C315.874 5.75464 316.834 6.71453 316.834 8.36007V19.6045C316.834 21.2501 315.874 22.21 314.229 22.21H314.092C312.515 22.21 311.349 23.3755 311.349 24.9525V25.0896C311.349 26.7352 310.389 27.6951 308.744 27.6951H292.151C290.574 27.6951 289.409 28.8607 289.409 30.4376V46.8929C289.409 48.4699 290.574 49.6355 292.151 49.6355H297.773C299.419 49.6355 300.379 50.5954 300.379 52.2409V52.5152C300.379 54.1607 299.419 55.1206 297.773 55.1206H281.044C279.398 55.1206 278.438 54.1607 278.438 52.5152V52.2409C278.438 50.5954 279.398 49.6355 281.044 49.6355H281.318C283.169 49.6355 283.924 48.8813 283.924 47.0301V8.36007C283.924 6.50884 283.169 5.75464 281.318 5.75464H281.044C279.398 5.75464 278.438 4.79475 278.438 3.14921V2.87496C278.438 1.22943 279.398 0.269531 281.044 0.269531H308.744C310.389 0.269531 311.349 1.22943 311.349 2.87496V3.01209C311.349 4.58905 312.515 5.75464 314.092 5.75464ZM311.349 19.4674V8.49719C311.349 6.92023 310.184 5.75464 308.607 5.75464H292.151C290.574 5.75464 289.409 6.92023 289.409 8.49719V19.4674C289.409 21.0444 290.574 22.21 292.151 22.21H308.607C310.184 22.21 311.349 21.0444 311.349 19.4674Z" fill="#002144"/>
<path d="M389.702 5.75464H389.839C391.485 5.75464 392.445 6.71453 392.445 8.36007V19.6045C392.445 21.2501 391.485 22.21 389.839 22.21H389.702C388.125 22.21 386.959 23.3755 386.959 24.9525V25.0896C386.959 26.7352 386 27.6951 384.354 27.6951H367.762C366.185 27.6951 365.019 28.8607 365.019 30.4376V46.8929C365.019 48.4699 366.185 49.6355 367.762 49.6355H373.384C375.029 49.6355 375.989 50.5954 375.989 52.2409V52.5152C375.989 54.1607 375.029 55.1206 373.384 55.1206H356.654C355.009 55.1206 354.049 54.1607 354.049 52.5152V52.2409C354.049 50.5954 355.009 49.6355 356.654 49.6355H356.929C358.78 49.6355 359.534 48.8813 359.534 47.0301V8.36007C359.534 6.50884 358.78 5.75464 356.929 5.75464H356.654C355.009 5.75464 354.049 4.79475 354.049 3.14921V2.87496C354.049 1.22943 355.009 0.269531 356.654 0.269531H384.354C386 0.269531 386.959 1.22943 386.959 2.87496V3.01209C386.959 4.58905 388.125 5.75464 389.702 5.75464ZM386.959 19.4674V8.49719C386.959 6.92023 385.794 5.75464 384.217 5.75464H367.762C366.185 5.75464 365.019 6.92023 365.019 8.49719V19.4674C365.019 21.0444 366.185 22.21 367.762 22.21H384.217C385.794 22.21 386.959 21.0444 386.959 19.4674Z" fill="#002144"/>
<path d="M465.311 5.75464H465.449C467.094 5.75464 468.054 6.71453 468.054 8.36007V19.6045C468.054 21.2501 467.094 22.21 465.449 22.21H465.311C463.734 22.21 462.569 23.3755 462.569 24.9525V25.0896C462.569 26.7352 461.609 27.6951 459.963 27.6951H443.371C441.794 27.6951 440.628 28.8607 440.628 30.4376V46.8929C440.628 48.4699 441.794 49.6355 443.371 49.6355H448.993C450.639 49.6355 451.599 50.5954 451.599 52.2409V52.5152C451.599 54.1607 450.639 55.1206 448.993 55.1206H432.264C430.618 55.1206 429.658 54.1607 429.658 52.5152V52.2409C429.658 50.5954 430.618 49.6355 432.264 49.6355H432.538C434.389 49.6355 435.143 48.8813 435.143 47.0301V8.36007C435.143 6.50884 434.389 5.75464 432.538 5.75464H432.264C430.618 5.75464 429.658 4.79475 429.658 3.14921V2.87496C429.658 1.22943 430.618 0.269531 432.264 0.269531H459.963C461.609 0.269531 462.569 1.22943 462.569 2.87496V3.01209C462.569 4.58905 463.734 5.75464 465.311 5.75464ZM462.569 19.4674V8.49719C462.569 6.92023 461.403 5.75464 459.826 5.75464H443.371C441.794 5.75464 440.628 6.92023 440.628 8.49719V19.4674C440.628 21.0444 441.794 22.21 443.371 22.21H459.826C461.403 22.21 462.569 21.0444 462.569 19.4674Z" fill="#002144"/>
<path d="M54.2567 85.3411H54.3938C56.0394 85.3411 56.9993 84.3812 56.9993 82.7356V71.4912C56.9993 69.8456 56.0394 68.8857 54.3938 68.8857H54.2567C52.6797 68.8857 51.5142 67.7202 51.5142 66.1432V66.0061C51.5142 64.3605 50.5543 63.4006 48.9087 63.4006H32.3163C30.7393 63.4006 29.5737 62.235 29.5737 60.6581V44.2028C29.5737 42.6258 30.7393 41.4602 32.3163 41.4602H37.9385C39.5841 41.4602 40.5439 40.5003 40.5439 38.8548V38.5805C40.5439 36.935 39.5841 35.9751 37.9385 35.9751H21.2089C19.5634 35.9751 18.6035 36.935 18.6035 38.5805V38.8548C18.6035 40.5003 19.5634 41.4602 21.2089 41.4602H21.4832C23.3344 41.4602 24.0886 42.2144 24.0886 44.0656V82.7356C24.0886 84.5869 23.3344 85.3411 21.4832 85.3411H21.2089C19.5634 85.3411 18.6035 86.301 18.6035 87.9465V88.2207C18.6035 89.8663 19.5634 90.8262 21.2089 90.8262H48.9087C50.5543 90.8262 51.5142 89.8663 51.5142 88.2207V88.0836C51.5142 86.5066 52.6797 85.3411 54.2567 85.3411ZM51.5142 71.6283V82.5985C51.5142 84.1755 50.3486 85.3411 48.7716 85.3411H32.3163C30.7393 85.3411 29.5737 84.1755 29.5737 82.5985V71.6283C29.5737 70.0513 30.7393 68.8857 32.3163 68.8857H48.7716C50.3486 68.8857 51.5142 70.0513 51.5142 71.6283Z" fill="#002144"/>
<path d="M129.867 85.3411H130.004C131.65 85.3411 132.61 84.3812 132.61 82.7356V71.4912C132.61 69.8456 131.65 68.8857 130.004 68.8857H129.867C128.29 68.8857 127.125 67.7202 127.125 66.1432V66.0061C127.125 64.3605 126.165 63.4006 124.519 63.4006H107.927C106.35 63.4006 105.184 62.235 105.184 60.6581V44.2028C105.184 42.6258 106.35 41.4602 107.927 41.4602H113.549C115.194 41.4602 116.154 40.5003 116.154 38.8548V38.5805C116.154 36.935 115.194 35.9751 113.549 35.9751H96.8193C95.1738 35.9751 94.2139 36.935 94.2139 38.5805V38.8548C94.2139 40.5003 95.1738 41.4602 96.8193 41.4602H97.0935C98.9448 41.4602 99.699 42.2144 99.699 44.0656V82.7356C99.699 84.5869 98.9448 85.3411 97.0935 85.3411H96.8193C95.1738 85.3411 94.2139 86.301 94.2139 87.9465V88.2207C94.2139 89.8663 95.1738 90.8262 96.8193 90.8262H124.519C126.165 90.8262 127.125 89.8663 127.125 88.2207V88.0836C127.125 86.5066 128.29 85.3411 129.867 85.3411ZM127.125 71.6283V82.5985C127.125 84.1755 125.959 85.3411 124.382 85.3411H107.927C106.35 85.3411 105.184 84.1755 105.184 82.5985V71.6283C105.184 70.0513 106.35 68.8857 107.927 68.8857H124.382C125.959 68.8857 127.125 70.0513 127.125 71.6283Z" fill="#002144"/>
<path d="M205.477 85.3411H205.615C207.26 85.3411 208.22 84.3812 208.22 82.7356V71.4912C208.22 69.8456 207.26 68.8857 205.615 68.8857H205.477C203.9 68.8857 202.735 67.7202 202.735 66.1432V66.0061C202.735 64.3605 201.775 63.4006 200.129 63.4006H183.537C181.96 63.4006 180.794 62.235 180.794 60.6581V44.2028C180.794 42.6258 181.96 41.4602 183.537 41.4602H189.159C190.805 41.4602 191.765 40.5003 191.765 38.8548V38.5805C191.765 36.935 190.805 35.9751 189.159 35.9751H172.43C170.784 35.9751 169.824 36.935 169.824 38.5805V38.8548C169.824 40.5003 170.784 41.4602 172.43 41.4602H172.704C174.555 41.4602 175.309 42.2144 175.309 44.0656V82.7356C175.309 84.5869 174.555 85.3411 172.704 85.3411H172.43C170.784 85.3411 169.824 86.301 169.824 87.9465V88.2207C169.824 89.8663 170.784 90.8262 172.43 90.8262H200.129C201.775 90.8262 202.735 89.8663 202.735 88.2207V88.0836C202.735 86.5066 203.9 85.3411 205.477 85.3411ZM202.735 71.6283V82.5985C202.735 84.1755 201.569 85.3411 199.992 85.3411H183.537C181.96 85.3411 180.794 84.1755 180.794 82.5985V71.6283C180.794 70.0513 181.96 68.8857 183.537 68.8857H199.992C201.569 68.8857 202.735 70.0513 202.735 71.6283Z" fill="#002144"/>
<path d="M281.087 85.3411H281.224C282.869 85.3411 283.829 84.3812 283.829 82.7356V71.4912C283.829 69.8456 282.869 68.8857 281.224 68.8857H281.087C279.51 68.8857 278.344 67.7202 278.344 66.1432V66.0061C278.344 64.3605 277.384 63.4006 275.739 63.4006H259.146C257.569 63.4006 256.404 62.235 256.404 60.6581V44.2028C256.404 42.6258 257.569 41.4602 259.146 41.4602H264.769C266.414 41.4602 267.374 40.5003 267.374 38.8548V38.5805C267.374 36.935 266.414 35.9751 264.769 35.9751H248.039C246.393 35.9751 245.434 36.935 245.434 38.5805V38.8548C245.434 40.5003 246.393 41.4602 248.039 41.4602H248.313C250.164 41.4602 250.919 42.2144 250.919 44.0656V82.7356C250.919 84.5869 250.164 85.3411 248.313 85.3411H248.039C246.393 85.3411 245.434 86.301 245.434 87.9465V88.2207C245.434 89.8663 246.393 90.8262 248.039 90.8262H275.739C277.384 90.8262 278.344 89.8663 278.344 88.2207V88.0836C278.344 86.5066 279.51 85.3411 281.087 85.3411ZM278.344 71.6283V82.5985C278.344 84.1755 277.179 85.3411 275.602 85.3411H259.146C257.569 85.3411 256.404 84.1755 256.404 82.5985V71.6283C256.404 70.0513 257.569 68.8857 259.146 68.8857H275.602C277.179 68.8857 278.344 70.0513 278.344 71.6283Z" fill="#002144"/>
<path d="M356.697 85.3411H356.834C358.48 85.3411 359.44 84.3812 359.44 82.7356V71.4912C359.44 69.8456 358.48 68.8857 356.834 68.8857H356.697C355.12 68.8857 353.955 67.7202 353.955 66.1432V66.0061C353.955 64.3605 352.995 63.4006 351.349 63.4006H334.757C333.18 63.4006 332.014 62.235 332.014 60.6581V44.2028C332.014 42.6258 333.18 41.4602 334.757 41.4602H340.379C342.024 41.4602 342.984 40.5003 342.984 38.8548V38.5805C342.984 36.935 342.024 35.9751 340.379 35.9751H323.649C322.004 35.9751 321.044 36.935 321.044 38.5805V38.8548C321.044 40.5003 322.004 41.4602 323.649 41.4602H323.924C325.775 41.4602 326.529 42.2144 326.529 44.0656V82.7356C326.529 84.5869 325.775 85.3411 323.924 85.3411H323.649C322.004 85.3411 321.044 86.301 321.044 87.9465V88.2207C321.044 89.8663 322.004 90.8262 323.649 90.8262H351.349C352.995 90.8262 353.955 89.8663 353.955 88.2207V88.0836C353.955 86.5066 355.12 85.3411 356.697 85.3411ZM353.955 71.6283V82.5985C353.955 84.1755 352.789 85.3411 351.212 85.3411H334.757C333.18 85.3411 332.014 84.1755 332.014 82.5985V71.6283C332.014 70.0513 333.18 68.8857 334.757 68.8857H351.212C352.789 68.8857 353.955 70.0513 353.955 71.6283Z" fill="#002144"/>
<path d="M432.307 85.3411H432.445C434.09 85.3411 435.05 84.3812 435.05 82.7356V71.4912C435.05 69.8456 434.09 68.8857 432.445 68.8857H432.307C430.731 68.8857 429.565 67.7202 429.565 66.1432V66.0061C429.565 64.3605 428.605 63.4006 426.96 63.4006H410.367C408.79 63.4006 407.625 62.235 407.625 60.6581V44.2028C407.625 42.6258 408.79 41.4602 410.367 41.4602H415.989C417.635 41.4602 418.595 40.5003 418.595 38.8548V38.5805C418.595 36.935 417.635 35.9751 415.989 35.9751H399.26C397.614 35.9751 396.654 36.935 396.654 38.5805V38.8548C396.654 40.5003 397.614 41.4602 399.26 41.4602H399.534C401.385 41.4602 402.139 42.2144 402.139 44.0656V82.7356C402.139 84.5869 401.385 85.3411 399.534 85.3411H399.26C397.614 85.3411 396.654 86.301 396.654 87.9465V88.2207C396.654 89.8663 397.614 90.8262 399.26 90.8262H426.96C428.605 90.8262 429.565 89.8663 429.565 88.2207V88.0836C429.565 86.5066 430.731 85.3411 432.307 85.3411ZM429.565 71.6283V82.5985C429.565 84.1755 428.399 85.3411 426.822 85.3411H410.367C408.79 85.3411 407.625 84.1755 407.625 82.5985V71.6283C407.625 70.0513 408.79 68.8857 410.367 68.8857H426.822C428.399 68.8857 429.565 70.0513 429.565 71.6283Z" fill="#002144"/>
<path d="M507.918 85.3411H508.055C509.701 85.3411 510.66 84.3812 510.66 82.7356V71.4912C510.66 69.8456 509.701 68.8857 508.055 68.8857H507.918C506.341 68.8857 505.175 67.7202 505.175 66.1432V66.0061C505.175 64.3605 504.215 63.4006 502.57 63.4006H485.977C484.4 63.4006 483.235 62.235 483.235 60.6581V44.2028C483.235 42.6258 484.4 41.4602 485.977 41.4602H491.6C493.245 41.4602 494.205 40.5003 494.205 38.8548V38.5805C494.205 36.935 493.245 35.9751 491.6 35.9751H474.87C473.225 35.9751 472.265 36.935 472.265 38.5805V38.8548C472.265 40.5003 473.225 41.4602 474.87 41.4602H475.144C476.996 41.4602 477.75 42.2144 477.75 44.0656V82.7356C477.75 84.5869 476.996 85.3411 475.144 85.3411H474.87C473.225 85.3411 472.265 86.301 472.265 87.9465V88.2207C472.265 89.8663 473.225 90.8262 474.87 90.8262H502.57C504.215 90.8262 505.175 89.8663 505.175 88.2207V88.0836C505.175 86.5066 506.341 85.3411 507.918 85.3411ZM505.175 71.6283V82.5985C505.175 84.1755 504.01 85.3411 502.433 85.3411H485.977C484.4 85.3411 483.235 84.1755 483.235 82.5985V71.6283C483.235 70.0513 484.4 68.8857 485.977 68.8857H502.433C504.01 68.8857 505.175 70.0513 505.175 71.6283Z" fill="#002144"/>
<path d="M-21.2499 85.3411H-21.387C-23.0325 85.3411 -23.9924 84.3812 -23.9924 82.7356V71.4912C-23.9924 69.8456 -23.0325 68.8857 -21.387 68.8857H-21.2499C-19.6729 68.8857 -18.5073 67.7202 -18.5073 66.1432V66.0061C-18.5073 64.3605 -17.5474 63.4006 -15.9019 63.4006H0.690551C2.26752 63.4006 3.43311 62.235 3.43311 60.6581V44.2028C3.43311 42.6258 2.26752 41.4602 0.690551 41.4602H-4.93168C-6.57722 41.4602 -7.53711 40.5003 -7.53711 38.8548V38.5805C-7.53711 36.935 -6.57722 35.9751 -4.93168 35.9751H11.7979C13.4434 35.9751 14.4033 36.935 14.4033 38.5805V38.8548C14.4033 40.5003 13.4434 41.4602 11.7979 41.4602H11.5236C9.67241 41.4602 8.91821 42.2144 8.91821 44.0656V82.7356C8.91821 84.5869 9.67241 85.3411 11.5236 85.3411H11.7979C13.4434 85.3411 14.4033 86.301 14.4033 87.9465V88.2207C14.4033 89.8663 13.4434 90.8262 11.7979 90.8262H-15.9019C-17.5474 90.8262 -18.5073 89.8663 -18.5073 88.2207V88.0836C-18.5073 86.5066 -19.6729 85.3411 -21.2499 85.3411ZM-18.5073 71.6283V82.5985C-18.5073 84.1755 -17.3417 85.3411 -15.7648 85.3411H0.690551C2.26752 85.3411 3.43311 84.1755 3.43311 82.5985V71.6283C3.43311 70.0513 2.26752 68.8857 0.690551 68.8857H-15.7648C-17.3417 68.8857 -18.5073 70.0513 -18.5073 71.6283Z" fill="#002144"/>
<path d="M54.3605 85.3411H54.2233C52.5778 85.3411 51.6179 84.3812 51.6179 82.7356V71.4912C51.6179 69.8456 52.5778 68.8857 54.2233 68.8857H54.3605C55.9374 68.8857 57.103 67.7202 57.103 66.1432V66.0061C57.103 64.3605 58.0629 63.4006 59.7085 63.4006H76.3009C77.8779 63.4006 79.0435 62.235 79.0435 60.6581V44.2028C79.0435 42.6258 77.8779 41.4602 76.3009 41.4602H70.6787C69.0331 41.4602 68.0732 40.5003 68.0732 38.8548V38.5805C68.0732 36.935 69.0331 35.9751 70.6787 35.9751H87.4082C89.0538 35.9751 90.0137 36.935 90.0137 38.5805V38.8548C90.0137 40.5003 89.0538 41.4602 87.4082 41.4602H87.134C85.2828 41.4602 84.5286 42.2144 84.5286 44.0656V82.7356C84.5286 84.5869 85.2828 85.3411 87.134 85.3411H87.4082C89.0538 85.3411 90.0137 86.301 90.0137 87.9465V88.2207C90.0137 89.8663 89.0538 90.8262 87.4082 90.8262H59.7085C58.0629 90.8262 57.103 89.8663 57.103 88.2207V88.0836C57.103 86.5066 55.9374 85.3411 54.3605 85.3411ZM57.103 71.6283V82.5985C57.103 84.1755 58.2686 85.3411 59.8456 85.3411H76.3009C77.8779 85.3411 79.0435 84.1755 79.0435 82.5985V71.6283C79.0435 70.0513 77.8779 68.8857 76.3009 68.8857H59.8456C58.2686 68.8857 57.103 70.0513 57.103 71.6283Z" fill="#002144"/>
<path d="M129.97 85.3411H129.833C128.187 85.3411 127.227 84.3812 127.227 82.7356V71.4912C127.227 69.8456 128.187 68.8857 129.833 68.8857H129.97C131.547 68.8857 132.712 67.7202 132.712 66.1432V66.0061C132.712 64.3605 133.672 63.4006 135.318 63.4006H151.91C153.487 63.4006 154.653 62.235 154.653 60.6581V44.2028C154.653 42.6258 153.487 41.4602 151.91 41.4602H146.288C144.643 41.4602 143.683 40.5003 143.683 38.8548V38.5805C143.683 36.935 144.643 35.9751 146.288 35.9751H163.018C164.663 35.9751 165.623 36.935 165.623 38.5805V38.8548C165.623 40.5003 164.663 41.4602 163.018 41.4602H162.743C160.892 41.4602 160.138 42.2144 160.138 44.0656V82.7356C160.138 84.5869 160.892 85.3411 162.743 85.3411H163.018C164.663 85.3411 165.623 86.301 165.623 87.9465V88.2207C165.623 89.8663 164.663 90.8262 163.018 90.8262H135.318C133.672 90.8262 132.712 89.8663 132.712 88.2207V88.0836C132.712 86.5066 131.547 85.3411 129.97 85.3411ZM132.712 71.6283V82.5985C132.712 84.1755 133.878 85.3411 135.455 85.3411H151.91C153.487 85.3411 154.653 84.1755 154.653 82.5985V71.6283C154.653 70.0513 153.487 68.8857 151.91 68.8857H135.455C133.878 68.8857 132.712 70.0513 132.712 71.6283Z" fill="#002144"/>
<path d="M205.58 85.3411H205.443C203.798 85.3411 202.838 84.3812 202.838 82.7356V71.4912C202.838 69.8456 203.798 68.8857 205.443 68.8857H205.58C207.157 68.8857 208.323 67.7202 208.323 66.1432V66.0061C208.323 64.3605 209.283 63.4006 210.928 63.4006H227.521C229.098 63.4006 230.263 62.235 230.263 60.6581V44.2028C230.263 42.6258 229.098 41.4602 227.521 41.4602H221.898C220.253 41.4602 219.293 40.5003 219.293 38.8548V38.5805C219.293 36.935 220.253 35.9751 221.898 35.9751H238.628C240.274 35.9751 241.233 36.935 241.233 38.5805V38.8548C241.233 40.5003 240.274 41.4602 238.628 41.4602H238.354C236.502 41.4602 235.748 42.2144 235.748 44.0656V82.7356C235.748 84.5869 236.502 85.3411 238.354 85.3411H238.628C240.274 85.3411 241.233 86.301 241.233 87.9465V88.2207C241.233 89.8663 240.274 90.8262 238.628 90.8262H210.928C209.283 90.8262 208.323 89.8663 208.323 88.2207V88.0836C208.323 86.5066 207.157 85.3411 205.58 85.3411ZM208.323 71.6283V82.5985C208.323 84.1755 209.488 85.3411 211.065 85.3411H227.521C229.098 85.3411 230.263 84.1755 230.263 82.5985V71.6283C230.263 70.0513 229.098 68.8857 227.521 68.8857H211.065C209.488 68.8857 208.323 70.0513 208.323 71.6283Z" fill="#002144"/>
<path d="M281.191 85.3411H281.053C279.408 85.3411 278.448 84.3812 278.448 82.7356V71.4912C278.448 69.8456 279.408 68.8857 281.053 68.8857H281.191C282.768 68.8857 283.933 67.7202 283.933 66.1432V66.0061C283.933 64.3605 284.893 63.4006 286.539 63.4006H303.131C304.708 63.4006 305.874 62.235 305.874 60.6581V44.2028C305.874 42.6258 304.708 41.4602 303.131 41.4602H297.509C295.863 41.4602 294.903 40.5003 294.903 38.8548V38.5805C294.903 36.935 295.863 35.9751 297.509 35.9751H314.238C315.884 35.9751 316.844 36.935 316.844 38.5805V38.8548C316.844 40.5003 315.884 41.4602 314.238 41.4602H313.964C312.113 41.4602 311.359 42.2144 311.359 44.0656V82.7356C311.359 84.5869 312.113 85.3411 313.964 85.3411H314.238C315.884 85.3411 316.844 86.301 316.844 87.9465V88.2207C316.844 89.8663 315.884 90.8262 314.238 90.8262H286.539C284.893 90.8262 283.933 89.8663 283.933 88.2207V88.0836C283.933 86.5066 282.768 85.3411 281.191 85.3411ZM283.933 71.6283V82.5985C283.933 84.1755 285.099 85.3411 286.676 85.3411H303.131C304.708 85.3411 305.874 84.1755 305.874 82.5985V71.6283C305.874 70.0513 304.708 68.8857 303.131 68.8857H286.676C285.099 68.8857 283.933 70.0513 283.933 71.6283Z" fill="#002144"/>
<path d="M356.801 85.3411H356.664C355.018 85.3411 354.058 84.3812 354.058 82.7356V71.4912C354.058 69.8456 355.018 68.8857 356.664 68.8857H356.801C358.378 68.8857 359.543 67.7202 359.543 66.1432V66.0061C359.543 64.3605 360.503 63.4006 362.149 63.4006H378.741C380.318 63.4006 381.484 62.235 381.484 60.6581V44.2028C381.484 42.6258 380.318 41.4602 378.741 41.4602H373.119C371.474 41.4602 370.514 40.5003 370.514 38.8548V38.5805C370.514 36.935 371.474 35.9751 373.119 35.9751H389.849C391.494 35.9751 392.454 36.935 392.454 38.5805V38.8548C392.454 40.5003 391.494 41.4602 389.849 41.4602H389.574C387.723 41.4602 386.969 42.2144 386.969 44.0656V82.7356C386.969 84.5869 387.723 85.3411 389.574 85.3411H389.849C391.494 85.3411 392.454 86.301 392.454 87.9465V88.2207C392.454 89.8663 391.494 90.8262 389.849 90.8262H362.149C360.503 90.8262 359.543 89.8663 359.543 88.2207V88.0836C359.543 86.5066 358.378 85.3411 356.801 85.3411ZM359.543 71.6283V82.5985C359.543 84.1755 360.709 85.3411 362.286 85.3411H378.741C380.318 85.3411 381.484 84.1755 381.484 82.5985V71.6283C381.484 70.0513 380.318 68.8857 378.741 68.8857H362.286C360.709 68.8857 359.543 70.0513 359.543 71.6283Z" fill="#002144"/>
<path d="M432.41 85.3411H432.273C430.628 85.3411 429.668 84.3812 429.668 82.7356V71.4912C429.668 69.8456 430.628 68.8857 432.273 68.8857H432.41C433.987 68.8857 435.153 67.7202 435.153 66.1432V66.0061C435.153 64.3605 436.113 63.4006 437.758 63.4006H454.351C455.928 63.4006 457.093 62.235 457.093 60.6581V44.2028C457.093 42.6258 455.928 41.4602 454.351 41.4602H448.728C447.083 41.4602 446.123 40.5003 446.123 38.8548V38.5805C446.123 36.935 447.083 35.9751 448.728 35.9751H465.458C467.104 35.9751 468.063 36.935 468.063 38.5805V38.8548C468.063 40.5003 467.104 41.4602 465.458 41.4602H465.184C463.333 41.4602 462.578 42.2144 462.578 44.0656V82.7356C462.578 84.5869 463.333 85.3411 465.184 85.3411H465.458C467.104 85.3411 468.063 86.301 468.063 87.9465V88.2207C468.063 89.8663 467.104 90.8262 465.458 90.8262H437.758C436.113 90.8262 435.153 89.8663 435.153 88.2207V88.0836C435.153 86.5066 433.987 85.3411 432.41 85.3411ZM435.153 71.6283V82.5985C435.153 84.1755 436.318 85.3411 437.895 85.3411H454.351C455.928 85.3411 457.093 84.1755 457.093 82.5985V71.6283C457.093 70.0513 455.928 68.8857 454.351 68.8857H437.895C436.318 68.8857 435.153 70.0513 435.153 71.6283Z" fill="#002144"/>
<path d="M21.3556 5.75464H21.2185C19.5729 5.75464 18.613 6.71453 18.613 8.36007V19.6045C18.613 21.2501 19.5729 22.21 21.2185 22.21H21.3556C22.9326 22.21 24.0981 23.3755 24.0981 24.9525V25.0896C24.0981 26.7352 25.058 27.6951 26.7036 27.6951H43.296C44.873 27.6951 46.0386 28.8607 46.0386 30.4376V46.8929C46.0386 48.4699 44.873 49.6355 43.296 49.6355H37.6738C36.0283 49.6355 35.0684 50.5954 35.0684 52.2409V52.5152C35.0684 54.1607 36.0283 55.1206 37.6738 55.1206H54.4034C56.0489 55.1206 57.0088 54.1607 57.0088 52.5152V52.2409C57.0088 50.5954 56.0489 49.6355 54.4034 49.6355H54.1291C52.2779 49.6355 51.5237 48.8813 51.5237 47.0301V8.36007C51.5237 6.50884 52.2779 5.75464 54.1291 5.75464H54.4034C56.0489 5.75464 57.0088 4.79475 57.0088 3.14921V2.87496C57.0088 1.22943 56.0489 0.269531 54.4034 0.269531H26.7036C25.058 0.269531 24.0981 1.22943 24.0981 2.87496V3.01209C24.0981 4.58905 22.9326 5.75464 21.3556 5.75464ZM24.0981 19.4674V8.49719C24.0981 6.92023 25.2637 5.75464 26.8407 5.75464H43.296C44.873 5.75464 46.0386 6.92023 46.0386 8.49719V19.4674C46.0386 21.0444 44.873 22.21 43.296 22.21H26.8407C25.2637 22.21 24.0981 21.0444 24.0981 19.4674Z" fill="#002144"/>
<path d="M96.9659 5.75464H96.8288C95.1833 5.75464 94.2234 6.71453 94.2234 8.36007V19.6045C94.2234 21.2501 95.1833 22.21 96.8288 22.21H96.9659C98.5429 22.21 99.7085 23.3755 99.7085 24.9525V25.0896C99.7085 26.7352 100.668 27.6951 102.314 27.6951H118.906C120.483 27.6951 121.649 28.8607 121.649 30.4376V46.8929C121.649 48.4699 120.483 49.6355 118.906 49.6355H113.284C111.639 49.6355 110.679 50.5954 110.679 52.2409V52.5152C110.679 54.1607 111.639 55.1206 113.284 55.1206H130.014C131.659 55.1206 132.619 54.1607 132.619 52.5152V52.2409C132.619 50.5954 131.659 49.6355 130.014 49.6355H129.739C127.888 49.6355 127.134 48.8813 127.134 47.0301V8.36007C127.134 6.50884 127.888 5.75464 129.739 5.75464H130.014C131.659 5.75464 132.619 4.79475 132.619 3.14921V2.87496C132.619 1.22943 131.659 0.269531 130.014 0.269531H102.314C100.668 0.269531 99.7085 1.22943 99.7085 2.87496V3.01209C99.7085 4.58905 98.5429 5.75464 96.9659 5.75464ZM99.7085 19.4674V8.49719C99.7085 6.92023 100.874 5.75464 102.451 5.75464H118.906C120.483 5.75464 121.649 6.92023 121.649 8.49719V19.4674C121.649 21.0444 120.483 22.21 118.906 22.21H102.451C100.874 22.21 99.7085 21.0444 99.7085 19.4674Z" fill="#002144"/>
<path d="M172.576 5.75464H172.439C170.794 5.75464 169.834 6.71453 169.834 8.36007V19.6045C169.834 21.2501 170.794 22.21 172.439 22.21H172.576C174.153 22.21 175.319 23.3755 175.319 24.9525V25.0896C175.319 26.7352 176.279 27.6951 177.924 27.6951H194.517C196.094 27.6951 197.259 28.8607 197.259 30.4376V46.8929C197.259 48.4699 196.094 49.6355 194.517 49.6355H188.894C187.249 49.6355 186.289 50.5954 186.289 52.2409V52.5152C186.289 54.1607 187.249 55.1206 188.894 55.1206H205.624C207.27 55.1206 208.229 54.1607 208.229 52.5152V52.2409C208.229 50.5954 207.27 49.6355 205.624 49.6355H205.35C203.499 49.6355 202.744 48.8813 202.744 47.0301V8.36007C202.744 6.50884 203.499 5.75464 205.35 5.75464H205.624C207.27 5.75464 208.229 4.79475 208.229 3.14921V2.87496C208.229 1.22943 207.27 0.269531 205.624 0.269531H177.924C176.279 0.269531 175.319 1.22943 175.319 2.87496V3.01209C175.319 4.58905 174.153 5.75464 172.576 5.75464ZM175.319 19.4674V8.49719C175.319 6.92023 176.484 5.75464 178.061 5.75464H194.517C196.094 5.75464 197.259 6.92023 197.259 8.49719V19.4674C197.259 21.0444 196.094 22.21 194.517 22.21H178.061C176.484 22.21 175.319 21.0444 175.319 19.4674Z" fill="#002144"/>
<path d="M248.186 5.75464H248.049C246.403 5.75464 245.443 6.71453 245.443 8.36007V19.6045C245.443 21.2501 246.403 22.21 248.049 22.21H248.186C249.763 22.21 250.928 23.3755 250.928 24.9525V25.0896C250.928 26.7352 251.888 27.6951 253.534 27.6951H270.126C271.703 27.6951 272.869 28.8607 272.869 30.4376V46.8929C272.869 48.4699 271.703 49.6355 270.126 49.6355H264.504C262.858 49.6355 261.898 50.5954 261.898 52.2409V52.5152C261.898 54.1607 262.858 55.1206 264.504 55.1206H281.233C282.879 55.1206 283.839 54.1607 283.839 52.5152V52.2409C283.839 50.5954 282.879 49.6355 281.233 49.6355H280.959C279.108 49.6355 278.354 48.8813 278.354 47.0301V8.36007C278.354 6.50884 279.108 5.75464 280.959 5.75464H281.233C282.879 5.75464 283.839 4.79475 283.839 3.14921V2.87496C283.839 1.22943 282.879 0.269531 281.233 0.269531H253.534C251.888 0.269531 250.928 1.22943 250.928 2.87496V3.01209C250.928 4.58905 249.763 5.75464 248.186 5.75464ZM250.928 19.4674V8.49719C250.928 6.92023 252.094 5.75464 253.671 5.75464H270.126C271.703 5.75464 272.869 6.92023 272.869 8.49719V19.4674C272.869 21.0444 271.703 22.21 270.126 22.21H253.671C252.094 22.21 250.928 21.0444 250.928 19.4674Z" fill="#002144"/>
<path d="M323.796 5.75464H323.659C322.013 5.75464 321.053 6.71453 321.053 8.36007V19.6045C321.053 21.2501 322.013 22.21 323.659 22.21H323.796C325.373 22.21 326.539 23.3755 326.539 24.9525V25.0896C326.539 26.7352 327.498 27.6951 329.144 27.6951H345.736C347.313 27.6951 348.479 28.8607 348.479 30.4376V46.8929C348.479 48.4699 347.313 49.6355 345.736 49.6355H340.114C338.469 49.6355 337.509 50.5954 337.509 52.2409V52.5152C337.509 54.1607 338.469 55.1206 340.114 55.1206H356.844C358.489 55.1206 359.449 54.1607 359.449 52.5152V52.2409C359.449 50.5954 358.489 49.6355 356.844 49.6355H356.57C354.718 49.6355 353.964 48.8813 353.964 47.0301V8.36007C353.964 6.50884 354.718 5.75464 356.57 5.75464H356.844C358.489 5.75464 359.449 4.79475 359.449 3.14921V2.87496C359.449 1.22943 358.489 0.269531 356.844 0.269531H329.144C327.498 0.269531 326.539 1.22943 326.539 2.87496V3.01209C326.539 4.58905 325.373 5.75464 323.796 5.75464ZM326.539 19.4674V8.49719C326.539 6.92023 327.704 5.75464 329.281 5.75464H345.736C347.313 5.75464 348.479 6.92023 348.479 8.49719V19.4674C348.479 21.0444 347.313 22.21 345.736 22.21H329.281C327.704 22.21 326.539 21.0444 326.539 19.4674Z" fill="#002144"/>
<path d="M399.406 5.75464H399.269C397.624 5.75464 396.664 6.71453 396.664 8.36007V19.6045C396.664 21.2501 397.624 22.21 399.269 22.21H399.406C400.983 22.21 402.149 23.3755 402.149 24.9525V25.0896C402.149 26.7352 403.109 27.6951 404.754 27.6951H421.347C422.924 27.6951 424.089 28.8607 424.089 30.4376V46.8929C424.089 48.4699 422.924 49.6355 421.347 49.6355H415.725C414.079 49.6355 413.119 50.5954 413.119 52.2409V52.5152C413.119 54.1607 414.079 55.1206 415.725 55.1206H432.454C434.1 55.1206 435.06 54.1607 435.06 52.5152V52.2409C435.06 50.5954 434.1 49.6355 432.454 49.6355H432.18C430.329 49.6355 429.574 48.8813 429.574 47.0301V8.36007C429.574 6.50884 430.329 5.75464 432.18 5.75464H432.454C434.1 5.75464 435.06 4.79475 435.06 3.14921V2.87496C435.06 1.22943 434.1 0.269531 432.454 0.269531H404.754C403.109 0.269531 402.149 1.22943 402.149 2.87496V3.01209C402.149 4.58905 400.983 5.75464 399.406 5.75464ZM402.149 19.4674V8.49719C402.149 6.92023 403.315 5.75464 404.891 5.75464H421.347C422.924 5.75464 424.089 6.92023 424.089 8.49719V19.4674C424.089 21.0444 422.924 22.21 421.347 22.21H404.891C403.315 22.21 402.149 21.0444 402.149 19.4674Z" fill="#002144"/>
<path d="M475.017 5.75464H474.88C473.234 5.75464 472.274 6.71453 472.274 8.36007V19.6045C472.274 21.2501 473.234 22.21 474.88 22.21H475.017C476.594 22.21 477.759 23.3755 477.759 24.9525V25.0896C477.759 26.7352 478.719 27.6951 480.365 27.6951H496.957C498.534 27.6951 499.7 28.8607 499.7 30.4376V46.8929C499.7 48.4699 498.534 49.6355 496.957 49.6355H491.335C489.689 49.6355 488.729 50.5954 488.729 52.2409V52.5152C488.729 54.1607 489.689 55.1206 491.335 55.1206H508.064C509.71 55.1206 510.67 54.1607 510.67 52.5152V52.2409C510.67 50.5954 509.71 49.6355 508.064 49.6355H507.79C505.939 49.6355 505.185 48.8813 505.185 47.0301V8.36007C505.185 6.50884 505.939 5.75464 507.79 5.75464H508.064C509.71 5.75464 510.67 4.79475 510.67 3.14921V2.87496C510.67 1.22943 509.71 0.269531 508.064 0.269531H480.365C478.719 0.269531 477.759 1.22943 477.759 2.87496V3.01209C477.759 4.58905 476.594 5.75464 475.017 5.75464ZM477.759 19.4674V8.49719C477.759 6.92023 478.925 5.75464 480.502 5.75464H496.957C498.534 5.75464 499.7 6.92023 499.7 8.49719V19.4674C499.7 21.0444 498.534 22.21 496.957 22.21H480.502C478.925 22.21 477.759 21.0444 477.759 19.4674Z" fill="#002144"/>
</svg>
