<svg width="82" height="83" viewBox="0 0 82 83" fill="none" xmlns="http://www.w3.org/2000/svg">
<g filter="url(#filter0_d_7159_80192)">
<path d="M51.5185 59.0713L51.5185 58.9519C51.5185 57.5191 52.4667 56.8028 53.7704 56.8028L54.0074 56.8028C55.4296 56.8028 56.4963 55.7282 56.4963 54.2954L56.4963 54.0566C56.4963 52.7433 57.2074 51.7881 58.6296 51.7881L58.7481 51.7881C60.1704 51.7881 61 50.9523 61 49.5196L61 33.1601C61 31.7274 60.1704 30.8916 58.7481 30.8916L58.6296 30.8916C57.2074 30.8916 56.4963 29.9364 56.4963 28.6231L56.4963 28.3843C56.4963 26.9515 55.4296 25.8769 54.0074 25.8769L53.7704 25.8769C52.4667 25.8769 51.5185 25.1605 51.5185 23.7278L51.5185 23.6084C51.5185 22.1756 50.6889 21.3398 49.2667 21.3398L32.7333 21.3398C31.3111 21.3398 30.4815 22.1756 30.4815 23.6084L30.4815 23.7278C30.4815 25.1605 29.5333 25.8769 28.2296 25.8769L27.9926 25.8769C26.5704 25.8769 25.5037 26.9515 25.5037 28.3843L25.5037 28.623C25.5037 29.9364 24.7926 30.8916 23.3704 30.8916L23.2518 30.8916C21.8296 30.8916 21 31.7274 21 33.1601L21 49.5196C21 50.9523 21.8296 51.7881 23.2518 51.7881L23.3704 51.7881C24.7926 51.7881 25.5037 52.7433 25.5037 54.0566L25.5037 54.2954C25.5037 55.7282 26.5704 56.8028 27.9926 56.8028L28.2296 56.8028C29.5333 56.8028 30.4815 57.5191 30.4815 58.9519L30.4815 59.0713C30.4815 60.5041 31.3111 61.3398 32.7333 61.3398L49.2667 61.3398C50.6889 61.3398 51.5185 60.5041 51.5185 59.0713Z" stroke="#1C1B1B" stroke-width="2"/>
<path d="M35.3803 41.3398C35.3803 40.3258 36.0563 39.8187 36.9859 39.8187H37.1549C38.169 39.8187 38.9296 39.0582 38.9296 38.0441V37.8751C38.9296 36.861 39.3521 36.4384 40.3662 36.4384H40.5352C41.5493 36.4384 42.3099 35.6779 42.3099 34.6638V34.4948C42.3099 33.4807 42.7324 33.0582 43.7465 33.0582H43.9155C44.9296 33.0582 45.6901 32.2976 45.6901 31.2835V31.1145C45.6901 30.1004 44.9296 29.3398 43.9155 29.3398H43.7465C42.7324 29.3398 41.9718 30.1004 41.9718 31.1145V31.2835C41.9718 32.2976 41.5493 32.7201 40.5352 32.7201H40.3662C39.3521 32.7201 38.5915 33.4807 38.5915 34.4948V34.6638C38.5915 35.6779 38.169 36.1004 37.1549 36.1004H36.9859C35.9718 36.1004 35.2113 36.861 35.2113 37.8751V38.0441C35.2113 38.9736 34.7042 39.6497 33.6901 39.6497H33.6056C32.7189 39.6497 32 40.3686 32 41.2553V41.4244C32 42.3111 32.7189 43.03 33.6056 43.03H33.6901C34.7042 43.03 35.2113 43.706 35.2113 44.6356V44.8046C35.2113 45.8187 35.9718 46.5793 36.9859 46.5793H37.1549C38.169 46.5793 38.5915 47.0018 38.5915 48.0159V48.1849C38.5915 49.199 39.3521 49.9596 40.3662 49.9596H40.5352C41.5493 49.9596 41.9718 50.3821 41.9718 51.3962V51.5652C41.9718 52.5793 42.7324 53.3398 43.7465 53.3398H43.9155C44.9296 53.3398 45.6901 52.5793 45.6901 51.5652V51.3962C45.6901 50.3821 44.9296 49.6215 43.9155 49.6215H43.7465C42.7324 49.6215 42.3099 49.199 42.3099 48.1849V48.0159C42.3099 47.0018 41.5493 46.2413 40.5352 46.2413H40.3662C39.3521 46.2413 38.9296 45.8187 38.9296 44.8046V44.6356C38.9296 43.6215 38.169 42.861 37.1549 42.861H36.9859C36.0563 42.861 35.3803 42.3539 35.3803 41.3398Z" fill="#1C1B1B"/>
</g>
<defs>
<filter id="filter0_d_7159_80192" x="0" y="0.339844" width="82" height="82" filterUnits="userSpaceOnUse" color-interpolation-filters="sRGB">
<feFlood flood-opacity="0" result="BackgroundImageFix"/>
<feColorMatrix in="SourceAlpha" type="matrix" values="0 0 0 0 0 0 0 0 0 0 0 0 0 0 0 0 0 0 127 0" result="hardAlpha"/>
<feOffset/>
<feGaussianBlur stdDeviation="10"/>
<feComposite in2="hardAlpha" operator="out"/>
<feColorMatrix type="matrix" values="0 0 0 0 0 0 0 0 0 0 0 0 0 0 0 0 0 0 0.3 0"/>
<feBlend mode="normal" in2="BackgroundImageFix" result="effect1_dropShadow_7159_80192"/>
<feBlend mode="normal" in="SourceGraphic" in2="effect1_dropShadow_7159_80192" result="shape"/>
</filter>
</defs>
</svg>
