<svg width="34" height="34" viewBox="0 0 34 34" fill="none" xmlns="http://www.w3.org/2000/svg">
<path opacity="0.4" d="M16.9997 24.0833V27.455C16.9997 30.1042 15.9372 31.1667 13.2738 31.1667H6.54467C3.89551 31.1667 2.83301 30.1042 2.83301 27.455V20.7258C2.83301 18.0625 3.89551 17 6.54467 17H9.91634V20.3575C9.91634 23.0208 10.9788 24.0833 13.628 24.0833H16.9997Z" stroke="white" stroke-width="1.5" stroke-linecap="round" stroke-linejoin="round"/>
<path d="M24.0827 17.0013V20.3588C24.0827 23.0221 23.0202 24.0846 20.3568 24.0846H13.6277C10.9785 24.0846 9.91602 23.0221 9.91602 20.3588V13.6296C9.91602 10.9805 10.9785 9.91797 13.6277 9.91797H16.9993V13.2755C16.9993 15.9388 18.0618 17.0013 20.711 17.0013H24.0827Z" stroke="white" stroke-width="1.5" stroke-linecap="round" stroke-linejoin="round"/>
<path d="M31.1667 6.54565V13.2748C31.1667 15.9382 30.1042 17.0007 27.4408 17.0007H20.7117C18.0625 17.0007 17 15.9382 17 13.2748V6.54565C17 3.89648 18.0625 2.83398 20.7117 2.83398H27.4408C30.1042 2.83398 31.1667 3.89648 31.1667 6.54565Z" stroke="white" stroke-width="1.5" stroke-linecap="round" stroke-linejoin="round"/>
</svg>
