<svg width="54" height="48" viewBox="0 0 54 48" fill="none" xmlns="http://www.w3.org/2000/svg">
<path d="M40.388 43.8066C42.0729 43.8066 42.9153 42.6833 42.9153 41.1388L42.9153 40.858C42.9153 39.1731 44.179 37.9094 45.8639 37.9094L46.1447 37.9094C47.6892 37.9094 48.8125 37.067 48.8125 35.3821L48.8125 12.9167C48.8125 11.2318 47.6892 10.3893 46.1447 10.3893L45.8639 10.3893C44.179 10.3893 42.9153 9.12567 42.9153 7.44077L42.9153 7.15995C42.9153 5.61546 42.0729 4.49219 40.388 4.49219L12.3063 4.49219C10.6214 4.49219 9.77891 5.61545 9.77891 7.15995L9.77891 7.44077C9.77891 9.12567 8.51523 10.3893 6.83033 10.3893L6.54951 10.3893C5.00502 10.3893 3.88175 11.2318 3.88175 12.9167L3.88175 35.3821C3.88175 37.067 5.00501 37.9094 6.54951 37.9094L6.83032 37.9094C8.51523 37.9094 9.77891 39.1731 9.77891 40.858L9.77891 41.1388C9.77891 42.6833 10.6214 43.8066 12.3063 43.8066L40.388 43.8066Z" fill="white"/>
<path fill-rule="evenodd" clip-rule="evenodd" d="M42.644 45.4667V45.3333C42.644 43.7333 43.7101 42.9333 45.176 42.9333H45.4425C47.0417 42.9333 48.241 41.7333 48.241 40.1333V39.8667C48.241 38.4 49.0406 37.3333 50.6398 37.3333H50.773C52.3722 37.3333 53.305 36.4 53.305 34.8V13.2C53.305 11.6 52.3722 10.6667 50.773 10.6667H50.6398C49.0406 10.6667 48.241 9.6 48.241 8.13333V7.86667C48.241 6.26667 47.0417 5.06667 45.4425 5.06667H45.176C43.7101 5.06667 42.644 4.26667 42.644 2.66667V2.53333C42.644 0.933333 41.7111 0 40.112 0H13.1928C11.5937 0 10.6608 0.933331 10.6608 2.53333V2.66666C10.6608 4.26666 9.59473 5.06666 8.12884 5.06666H7.86231C6.26316 5.06666 5.06378 6.26666 5.06378 7.86666V8.13333C5.06378 9.6 4.2642 10.6667 2.66504 10.6667H2.53178C0.932625 10.6667 -0.000216963 11.6 -0.000217032 13.2L-0.000217977 34.8C-0.000218047 36.4 0.932624 37.3333 2.53178 37.3333H2.66504C4.2642 37.3333 5.06378 38.4 5.06378 39.8667V40.1333C5.06378 41.7333 6.26315 42.9333 7.86231 42.9333H8.12883C9.59473 42.9333 10.6608 43.7333 10.6608 45.3333V45.4667C10.6608 47.0667 11.5937 48 13.1928 48H40.112C41.7111 48 42.644 47.0667 42.644 45.4667ZM42.916 41.1395C42.916 42.684 42.0736 43.8073 40.3887 43.8073H12.3069C10.622 43.8073 9.77958 42.684 9.77958 41.1395V40.8587C9.77958 39.1738 8.5159 37.9101 6.831 37.9101H6.55019C5.00569 37.9101 3.88242 37.0677 3.88242 35.3828L3.88243 12.9174C3.88243 11.2325 5.00569 10.39 6.55019 10.39H6.831C8.51591 10.39 9.77959 9.12635 9.77959 7.44145V7.16063C9.77959 5.61613 10.622 4.49287 12.3069 4.49287L40.3887 4.49287C42.0736 4.49287 42.916 5.61614 42.916 7.16063V7.44145C42.916 9.12635 44.1797 10.39 45.8646 10.39H46.1454C47.6899 10.39 48.8132 11.2325 48.8132 12.9174V35.3828C48.8132 37.0677 47.6899 37.9101 46.1454 37.9101H45.8646C44.1797 37.9101 42.916 39.1738 42.916 40.8587V41.1395Z" fill="#0E0E0E"/>
<path d="M20.1589 15.9411C20.4902 15.9408 20.8985 15.7733 21.0927 15.5049L21.4916 14.9538C21.938 14.3369 22.6598 13.9895 23.3291 14.3527C23.9353 14.6817 24.4829 15.1077 24.4829 15.1077L22.8396 15.9294L21.6072 17.1621H20.3747L19.3176 18.6L17.5503 19.8617L16.4831 22.3413L16.2665 23.3245L15.2394 24.7038C15.2394 24.7038 14.6257 29.5507 14.6049 31.2496C14.5842 32.9411 14.5072 34.8272 14.2123 34.8272L9.45171 34.7676C9.18466 34.7642 8.93127 34.649 8.75327 34.4499C8.57799 34.2538 8.49152 33.994 8.51434 33.7321L9.2272 25.5461C9.2969 25.0626 9.71116 24.7038 10.1996 24.7038H10.2375C10.7801 24.7038 11.22 24.264 11.22 23.7214V23.3237C11.22 22.7811 11.6598 22.3413 12.2024 22.3413H12.9276C13.4702 22.3413 13.91 21.9014 13.91 21.3588V20.8442C13.91 20.3016 14.3499 19.8617 14.8925 19.8617H15.5592C16.0695 19.8617 16.4831 19.448 16.4831 18.9377C16.4831 18.4274 16.8968 18.0138 17.4071 18.0138C17.768 18.0138 18.1088 17.8453 18.3132 17.5479C18.4344 17.3716 18.5734 17.1618 18.7024 16.9487C19.0204 16.4235 19.545 15.9418 20.1589 15.9411Z" fill="#FF0037"/>
<path fill-rule="evenodd" clip-rule="evenodd" d="M31.5906 12.0565V12.0358H32.8344V15.1735C32.8255 15.2288 32.8245 15.2908 32.8343 15.3601L32.8448 15.404C32.908 15.6669 33.1526 15.8168 33.4157 15.7537L33.4596 15.7432C33.7227 15.6801 33.8586 15.7634 33.9217 16.0263L33.9322 16.0701C33.9954 16.333 34.24 16.4829 34.5031 16.4198L34.547 16.4093C34.8101 16.3462 34.946 16.4295 35.0091 16.6924L35.0196 16.7362C35.0828 16.9991 35.3274 17.149 35.5905 17.0859L35.6344 17.0754C35.8975 17.0124 36.0334 17.0956 36.0965 17.3585L36.1071 17.4024C36.1163 17.4407 36.1293 17.4766 36.1457 17.5098L36.3412 18.2599C36.3416 18.2638 36.3421 18.2676 36.3425 18.2715L36.3429 18.2747L36.3432 18.2771C36.3437 18.2809 36.3442 18.2847 36.3447 18.2885L36.3553 18.3323C36.4184 18.5953 36.663 18.7451 36.9261 18.6821L36.97 18.6715C37.2331 18.6085 37.369 18.6917 37.4321 18.9547L37.4427 18.9985C37.5058 19.2614 37.7505 19.4113 38.0135 19.3482L38.0574 19.3377C38.3205 19.2746 38.4564 19.3579 38.5196 19.6208L38.5301 19.6646C38.5932 19.9275 38.8379 20.0774 39.101 20.0143L39.1448 20.0038C39.4079 19.9407 39.5438 20.024 39.607 20.2869L39.6175 20.3307C39.6806 20.5937 39.9253 20.7435 40.1884 20.6805L40.2322 20.6699C40.2553 20.6644 40.2775 20.6575 40.2988 20.6492C40.5272 20.6098 40.6489 20.6989 40.7076 20.9434L40.7181 20.9873C40.7812 21.2502 41.0259 21.4001 41.289 21.337L41.3329 21.3265C41.596 21.2634 41.7319 21.3466 41.795 21.6096L41.8055 21.6534C41.8686 21.9163 42.1133 22.0662 42.3764 22.0031L42.4203 21.9926C42.6615 21.9348 42.7958 21.9999 42.8651 22.2137C42.8665 22.3675 42.9442 22.5132 43.0859 22.6054C43.1003 22.6151 43.1152 22.624 43.1306 22.632L43.1504 22.6435C43.3696 22.7699 43.46 22.9813 43.3219 23.2203L41.7797 26.2219C41.6534 26.4405 41.4514 26.4821 41.2501 26.3908C41.0646 26.2091 40.7863 26.1936 40.5761 26.362L40.5381 26.3924C40.3325 26.5571 40.1731 26.5582 40.0098 26.39C39.995 26.3637 39.9777 26.3381 39.9579 26.3134L39.9274 26.2754C39.7445 26.0473 39.4361 26.0134 39.2079 26.1962L39.1699 26.2267C38.9416 26.4095 38.7703 26.3907 38.5874 26.1626L38.5569 26.1246C38.3739 25.8965 38.0655 25.8626 37.8373 26.0454L37.7993 26.0759C37.5711 26.2587 37.3997 26.2399 37.2168 26.0118L37.1863 25.9738C37.0033 25.7457 36.695 25.7118 36.4667 25.8946L36.4287 25.9251C36.2005 26.1079 36.0292 26.089 35.8462 25.861L35.8157 25.823C35.6814 25.6555 35.4793 25.5927 35.2911 25.6436C35.0151 25.6905 34.8142 25.9344 34.8142 26.1593V26.211C34.8142 26.4959 34.6587 26.7031 34.3478 26.7031H30.0358C29.7248 26.7031 29.5693 26.4959 29.5693 26.211V26.1593C29.5693 25.8485 29.3361 25.6155 29.0252 25.6155H28.9733C28.6883 25.6155 28.481 25.4601 28.481 25.1493V23.2849C28.481 23.1122 28.3773 22.7669 27.9627 22.7669H27.9368C27.6258 22.7669 27.4444 22.9482 27.4444 23.259V25.1752C27.4444 25.486 27.6258 25.6672 27.9368 25.6672H27.9627C28.2737 25.6672 28.4291 25.8744 28.4291 26.1593V26.211C28.4291 26.2494 28.4327 26.2866 28.4395 26.3223V31.3487C28.4395 31.6595 28.6209 31.8407 28.9319 31.8407H28.9578C29.2687 31.8407 29.4242 32.0479 29.4242 32.3328V32.3845C29.4242 32.6953 29.6574 32.9284 29.9684 32.9284H30.0202C30.3053 32.9284 30.5126 33.0837 30.5126 33.3945V33.4204C30.5126 33.7311 30.694 33.9124 31.0049 33.9124H31.6994H32.5857H32.9433C33.2542 33.9124 33.4097 34.1196 33.4097 34.4044V34.4562C33.4097 34.7669 33.6429 35 33.9539 35H34.0057C34.3167 35 34.5499 34.7669 34.5499 34.4562V34.4044C34.5499 34.0937 34.3167 33.8606 34.0057 33.8606H33.9539C33.6688 33.8606 33.4615 33.7052 33.4615 33.3945V33.3686C33.4615 33.0578 33.2801 32.8766 32.9692 32.8766H32.5857H31.6735H31.0308C30.7199 32.8766 30.5644 32.6694 30.5644 32.3845V32.3328C30.5644 32.022 30.3312 31.7889 30.0202 31.7889H29.9684C29.6834 31.7889 29.476 31.6336 29.476 31.3228V27.0062C29.5029 27.0668 29.5175 27.1384 29.5175 27.221V27.2469C29.5175 27.5576 29.6989 27.7389 30.0099 27.7389H34.3737C34.6846 27.7389 34.866 27.5576 34.866 27.2469V27.221C34.866 26.9102 35.0733 26.7549 35.3584 26.7549H35.4102C35.6096 26.7549 35.7771 26.659 35.8716 26.5083C36.0354 26.4166 36.1716 26.4461 36.3121 26.6003C36.3225 26.6196 36.3341 26.6392 36.3471 26.659L36.3776 26.6971C36.5606 26.9251 36.8689 26.9591 37.0972 26.7762L37.1352 26.7458C37.3634 26.5629 37.5347 26.5818 37.7177 26.8099L37.7482 26.8479C37.9311 27.0759 38.2395 27.1099 38.4677 26.927L38.5058 26.8966C38.734 26.7138 38.9053 26.7326 39.0883 26.9607L39.1188 26.9987C39.3017 27.2267 39.6101 27.2607 39.8383 27.0779L39.8764 27.0474C40.1046 26.8646 40.2759 26.8834 40.4589 27.1115L40.4893 27.1495C40.6723 27.3776 40.9807 27.4115 41.2089 27.2287L41.2469 27.1982C41.3339 27.1285 41.3927 27.0406 41.422 26.9459C41.5505 26.7835 41.7388 26.7293 41.9481 26.8501L41.9681 26.8616C42.2072 26.9995 42.4272 26.9406 42.5652 26.7017L44.1304 23.6602C44.2685 23.4213 44.2095 23.2014 43.9704 23.0635L43.9505 23.052C43.7114 22.914 43.6839 22.6858 43.8104 22.4667L43.8334 22.4269C43.9615 22.2052 43.9055 21.9458 43.7057 21.7994C43.5956 21.6984 43.4395 21.6556 43.2762 21.6947L43.2324 21.7052C42.9693 21.7683 42.8334 21.685 42.7702 21.4221L42.7597 21.3783C42.6966 21.1154 42.4519 20.9655 42.1888 21.0286L42.145 21.0391C41.8819 21.1021 41.7459 21.0189 41.6828 20.756L41.6723 20.7121C41.6092 20.4492 41.3645 20.2993 41.1014 20.3624L41.0576 20.3729C40.7945 20.436 40.6585 20.3527 40.5954 20.0898L40.5849 20.046C40.5218 19.7831 40.2771 19.6332 40.014 19.6963L39.9701 19.7068C39.9523 19.7111 39.9325 19.7174 39.9114 19.7261C39.678 19.769 39.5541 19.6806 39.4948 19.4333L39.4842 19.3895C39.4211 19.1266 39.1765 18.9767 38.9134 19.0398L38.8695 19.0503C38.6064 19.1134 38.4705 19.0301 38.4074 18.7672L38.3968 18.7234C38.3337 18.4604 38.0891 18.3106 37.826 18.3736L37.7821 18.3842C37.519 18.4472 37.3831 18.364 37.32 18.1011L37.3094 18.0572C37.2991 18.0141 37.2838 17.974 37.2644 17.9374L37.0841 17.2456C37.0819 17.221 37.0778 17.1961 37.0718 17.1711L37.0612 17.1272C36.9981 16.8643 36.7535 16.7145 36.4904 16.7775L36.4465 16.788C36.1834 16.8511 36.0475 16.7679 35.9844 16.5049L35.9738 16.4611C35.9107 16.1982 35.666 16.0483 35.4029 16.1114L35.3591 16.1219C35.096 16.185 34.9601 16.1017 34.8969 15.8388L34.8864 15.795C34.8233 15.5321 34.5786 15.3822 34.3155 15.4453L34.2717 15.4558C34.0086 15.5189 33.8727 15.4356 33.8095 15.1727L33.799 15.1289C33.7958 15.1155 33.7921 15.1025 33.788 15.0898V11.6397C33.7922 11.6025 33.7924 11.5619 33.788 11.5179V11.492V11.491V11H33.2957H32.8344H31.4196C31.3381 11 31.2656 11.0124 31.2029 11.0364C30.4812 11.0891 29.3397 11.2839 28.1326 11.7525C26.7202 12.3008 25.1729 13.2419 24.1202 14.8176C24.0233 14.8817 23.9494 14.9674 23.8972 15.0279C23.8828 15.0445 23.87 15.0594 23.859 15.0712C23.6559 15.3507 23.3037 15.4108 23.0304 15.2125L23.0066 15.1952C22.7213 14.9883 22.4313 15.0377 22.2194 15.3294L21.4954 16.3261L21.4346 16.4099C21.4153 16.4364 21.3991 16.4641 21.3858 16.4927C21.3461 16.5317 21.3126 16.5705 21.2851 16.6023C21.2707 16.619 21.258 16.6338 21.2469 16.6456C21.0438 16.9252 20.6917 16.9852 20.4183 16.7869L20.3945 16.7697C20.1092 16.5627 19.8192 16.6122 19.6073 16.9039L18.8834 17.9005L18.8225 17.9843C18.7818 18.0403 18.7546 18.1019 18.74 18.1653C18.6396 18.2719 18.5894 18.4115 18.5562 18.5037C18.5487 18.5245 18.5421 18.5428 18.536 18.5578C18.4465 18.8915 18.1392 19.0735 17.8129 18.9862L17.7845 18.9786C17.444 18.8874 17.1909 19.0373 17.0976 19.3855L16.7786 20.5751L16.7518 20.6751C16.7474 20.6915 16.7438 20.708 16.7412 20.7245C16.6864 20.8407 16.6757 20.9686 16.6684 21.0552C16.6667 21.0761 16.6651 21.0946 16.6632 21.1099C16.6632 21.4386 16.4256 21.6816 16.1041 21.6816H16.0762C15.7407 21.6816 15.545 21.8817 15.545 22.2247V23.3968V23.4931C15.5399 23.5167 15.5361 23.541 15.5338 23.5659L15.5291 23.6175C15.5031 23.9011 15.3294 24.0932 15.0197 24.0649L14.9939 24.0626C14.6843 24.0342 14.4871 24.1982 14.4587 24.5077L13.5168 34.3417C13.4885 34.6512 13.6526 34.8482 13.9622 34.8766L13.988 34.8789C14.4009 34.9167 14.5357 34.5823 14.5514 34.4104L15.4886 24.6279C15.5169 24.3184 15.7376 24.1826 16.0214 24.2086L16.073 24.2133C16.3827 24.2416 16.6362 24.0308 16.6646 23.7213L16.6693 23.6698C16.6742 23.6004 16.6709 23.5386 16.6613 23.4838C16.6626 23.4648 16.6632 23.4453 16.6632 23.4254V22.2533C16.6632 21.9246 16.9009 21.6816 17.2224 21.6816H17.2503C17.5767 21.6816 17.7707 21.4923 17.781 21.1662C17.8356 21.0986 17.8779 21.0122 17.9058 20.908L18.2248 19.7184C18.3143 19.3847 18.6216 19.2027 18.9479 19.2901L18.9763 19.2977C19.3168 19.3889 19.5698 19.2389 19.6632 18.8908L19.671 18.8618C19.6835 18.827 19.695 18.786 19.7036 18.7411C19.7432 18.7058 19.781 18.6636 19.8166 18.6146L20.5406 17.618C20.7437 17.3384 21.0958 17.2784 21.3692 17.4767L21.393 17.4939C21.6783 17.7009 21.9683 17.6514 22.1802 17.3597L22.1978 17.3354C22.2334 17.2943 22.2718 17.2396 22.3047 17.1762C22.3483 17.1391 22.3898 17.0937 22.4287 17.0402L23.1527 16.0435C23.3557 15.764 23.7079 15.7039 23.9813 15.9022L24.0051 15.9195C24.2903 16.1264 24.5803 16.077 24.7922 15.7853L24.8099 15.761C24.8832 15.6761 24.9686 15.5337 24.9931 15.3766C25.8898 14.0442 27.2237 13.2165 28.508 12.718C29.8418 12.2002 31.0738 12.0565 31.5906 12.0565ZM18.8619 26.0066V25.5998V24.4277C18.8619 24.0847 19.0576 23.8846 19.3931 23.8846H19.4211C19.7426 23.8846 19.9802 23.6416 19.9802 23.3129C19.9821 23.2976 19.9836 23.2792 19.9854 23.2584C19.9926 23.1719 20.0034 23.0437 20.0581 22.9274C20.0608 22.911 20.0643 22.8945 20.0687 22.8781L20.0956 22.7781L20.4145 21.5885C20.5079 21.2403 20.761 21.0904 21.1015 21.1816L21.1298 21.1892C21.4562 21.2765 21.7635 21.0945 21.8529 20.7608C21.859 20.7458 21.8656 20.7275 21.8731 20.7068C21.9435 20.5112 22.0905 20.103 22.6293 20.2472C23.106 20.3749 23.067 20.8454 22.9879 21.0647L22.9802 21.0938C22.8868 21.4419 22.6337 21.5918 22.2932 21.5007L22.2648 21.4931C21.9385 21.4057 21.6312 21.5877 21.5417 21.9214L21.2228 23.111C21.1948 23.2152 21.1526 23.3016 21.098 23.3691C21.0877 23.6952 20.8936 23.8846 20.5673 23.8846H20.5393C20.2178 23.8846 19.9802 24.1276 19.9802 24.4563V25.6283C19.9802 25.6708 19.9772 25.7111 19.9713 25.7491C19.9715 25.7516 19.9717 25.7542 19.9719 25.7567C19.9722 25.7601 19.9724 25.7636 19.9726 25.7671L19.9749 25.8173C19.9885 26.1184 19.7726 26.3544 19.4712 26.368L19.421 26.3702C19.1448 26.3827 18.9506 26.5423 18.9642 26.8434L18.915 34.3186C18.9226 34.4859 18.8372 34.825 18.4354 34.8431L18.4102 34.8442C18.1089 34.8578 17.9252 34.69 17.9116 34.3888L17.9585 26.8635C17.9449 26.5623 18.1128 26.3788 18.4142 26.3652L18.4393 26.3641C18.6873 26.3529 18.8271 26.2105 18.8619 26.0066ZM33.8712 18.6055L33.8666 18.6135C33.8113 18.7093 33.7197 18.7204 33.6318 18.6697L33.6158 18.6604C33.5199 18.6051 33.4065 18.6355 33.3511 18.7313L33.3419 18.7473C33.2912 18.8351 33.2063 18.8713 33.1104 18.816L33.1024 18.8114C33.0065 18.7561 32.9183 18.7797 32.863 18.8755L32.6692 19.2109C32.6139 19.3067 32.6375 19.3949 32.7334 19.4502L32.7414 19.4548C32.8372 19.5101 32.8483 19.6017 32.7975 19.6895L32.7883 19.7055C32.733 19.8013 32.7633 19.9146 32.8592 19.9699L32.8752 19.9792C32.9631 20.0299 32.9993 20.1147 32.944 20.2105L32.9394 20.2185C32.884 20.3143 32.9077 20.4024 33.0035 20.4578L33.6587 20.8358C33.7546 20.8911 33.8429 20.8675 33.8982 20.7717L33.9028 20.7637C33.9582 20.6679 34.0498 20.6568 34.1377 20.7075L34.1537 20.7168C34.2495 20.7721 34.363 20.7417 34.4183 20.6459L34.4276 20.6299C34.4783 20.5421 34.5632 20.5059 34.659 20.5612L34.667 20.5658C34.7629 20.6211 34.8511 20.5975 34.9065 20.5017L35.1002 20.1663C35.1556 20.0705 35.132 19.9823 35.0361 19.927L35.0281 19.9224C34.9322 19.8671 34.9212 19.7756 34.9719 19.6877L34.9811 19.6718C35.0365 19.5759 35.0061 19.4626 34.9102 19.4073L34.8942 19.398C34.8064 19.3473 34.7701 19.2625 34.8255 19.1667L34.8301 19.1587C34.8854 19.0629 34.8618 18.9748 34.7659 18.9194L34.1107 18.5414C34.0148 18.4861 33.9266 18.5097 33.8712 18.6055ZM42.2701 23.6889L42.2311 23.1908C42.2252 23.1161 42.1712 23.0827 42.1009 23.0882L42.0881 23.0892C42.0114 23.0952 41.9495 23.0437 41.9437 22.969L41.9427 22.9565C41.9373 22.888 41.8951 22.8412 41.8184 22.8472L41.5628 22.8672C41.4861 22.8732 41.4517 22.926 41.457 22.9945L41.458 23.007C41.4639 23.0817 41.4108 23.1422 41.3341 23.1482L41.3213 23.1492C41.251 23.1547 41.2028 23.1961 41.2087 23.2708L41.2477 23.7689C41.2536 23.8436 41.3076 23.8769 41.3779 23.8714L41.3907 23.8704C41.4674 23.8644 41.5292 23.916 41.5351 23.9907L41.5361 24.0031C41.5414 24.0716 41.5837 24.1184 41.6604 24.1124L41.916 24.0924C41.9926 24.0864 42.0271 24.0336 42.0217 23.9651L42.0207 23.9527C42.0149 23.878 42.068 23.8174 42.1447 23.8114L42.1575 23.8104C42.2278 23.8049 42.2759 23.7636 42.2701 23.6889Z" fill="#0E0E0E"/>
</svg>
