<svg width="13" height="16" viewBox="0 0 13 16" fill="none" xmlns="http://www.w3.org/2000/svg">
<path d="M11.9703 7.85768L4.52694 15.8327C4.44806 15.9169 4.34395 15.9731 4.2303 15.9929C4.11665 16.0127 3.99965 15.995 3.89694 15.9425C3.79422 15.89 3.71138 15.8055 3.66091 15.7018C3.61043 15.598 3.59507 15.4807 3.61713 15.3675L4.59141 10.4941L0.761413 9.05592C0.679159 9.02515 0.605807 8.97449 0.547911 8.90846C0.490015 8.84242 0.449378 8.76307 0.429631 8.6775C0.409884 8.59193 0.411641 8.5028 0.434746 8.41807C0.457851 8.33335 0.501584 8.25566 0.562038 8.19196L8.00537 0.216963C8.08425 0.132784 8.18837 0.0765439 8.30201 0.0567298C8.41566 0.0369157 8.53267 0.0546026 8.63538 0.107121C8.73809 0.15964 8.82093 0.244141 8.87141 0.347874C8.92188 0.451606 8.93725 0.56894 8.91519 0.682171L7.93825 5.56088L11.7682 6.99704C11.8499 7.02802 11.9227 7.07863 11.9801 7.1444C12.0375 7.21017 12.0779 7.28908 12.0976 7.37415C12.1173 7.45923 12.1158 7.54784 12.0931 7.63217C12.0704 7.71651 12.0273 7.79396 11.9676 7.85768H11.9703Z" fill="#D5EEF9"/>
</svg>
