<svg width="37" height="37" viewBox="0 0 37 37" fill="none" xmlns="http://www.w3.org/2000/svg">
<path d="M16.0225 3.3005L22.96 3.3005C28.7412 3.3005 31.0537 6.33979 31.0537 13.938V23.0559C31.0537 30.6541 28.7412 33.6934 22.96 33.6934H16.0225C10.2412 33.6934 7.92871 30.6541 7.92871 23.0559L7.92871 13.938C7.92871 6.33979 10.2412 3.3005 16.0225 3.3005Z" stroke="white" stroke-width="1.5" stroke-linecap="round" stroke-linejoin="round"/>
<path d="M19.425 6.94308H20.2179C20.8786 6.94308 21.1429 7.20737 21.1429 7.86808V8.66094C21.1429 9.32165 20.8786 9.58594 20.2179 9.58594H19.425C18.7643 9.58594 18.5 9.32165 18.5 8.66094V7.86808C18.5 7.20737 18.7643 6.94308 19.425 6.94308Z" stroke="white" stroke-width="1.5" stroke-linecap="round" stroke-linejoin="round"/>
</svg>
