<svg width="82" height="83" viewBox="0 0 82 83" fill="none" xmlns="http://www.w3.org/2000/svg">
<g filter="url(#filter0_d_7159_80188)">
<path d="M30.4815 59.0713L30.4815 58.9519C30.4815 57.5191 29.5333 56.8028 28.2296 56.8028L27.9926 56.8028C26.5704 56.8028 25.5037 55.7282 25.5037 54.2954L25.5037 54.0566C25.5037 52.7433 24.7926 51.7881 23.3704 51.7881L23.2519 51.7881C21.8296 51.7881 21 50.9523 21 49.5196L21 33.1601C21 31.7274 21.8296 30.8916 23.2519 30.8916L23.3704 30.8916C24.7926 30.8916 25.5037 29.9364 25.5037 28.6231L25.5037 28.3843C25.5037 26.9515 26.5704 25.8769 27.9926 25.8769L28.2296 25.8769C29.5333 25.8769 30.4815 25.1605 30.4815 23.7278L30.4815 23.6084C30.4815 22.1756 31.3111 21.3398 32.7333 21.3398L49.2667 21.3398C50.6889 21.3398 51.5185 22.1756 51.5185 23.6084L51.5185 23.7278C51.5185 25.1605 52.4667 25.8769 53.7704 25.8769L54.0074 25.8769C55.4296 25.8769 56.4963 26.9515 56.4963 28.3843L56.4963 28.623C56.4963 29.9364 57.2074 30.8916 58.6296 30.8916L58.7482 30.8916C60.1704 30.8916 61 31.7274 61 33.1601L61 49.5196C61 50.9523 60.1704 51.7881 58.7482 51.7881L58.6296 51.7881C57.2074 51.7881 56.4963 52.7433 56.4963 54.0566L56.4963 54.2954C56.4963 55.7282 55.4296 56.8028 54.0074 56.8028L53.7704 56.8028C52.4667 56.8028 51.5185 57.5191 51.5185 58.9519L51.5185 59.0713C51.5185 60.5041 50.6889 61.3398 49.2667 61.3398L32.7333 61.3398C31.3111 61.3398 30.4815 60.5041 30.4815 59.0713Z" stroke="#1C1B1B" stroke-width="2"/>
<path d="M46.6197 41.3398C46.6197 40.3258 45.9437 39.8187 45.0141 39.8187H44.8451C43.831 39.8187 43.0704 39.0582 43.0704 38.0441V37.8751C43.0704 36.861 42.6479 36.4384 41.6338 36.4384H41.4648C40.4507 36.4384 39.6901 35.6779 39.6901 34.6638V34.4948C39.6901 33.4807 39.2676 33.0582 38.2535 33.0582H38.0845C37.0704 33.0582 36.3099 32.2976 36.3099 31.2835V31.1145C36.3099 30.1004 37.0704 29.3398 38.0845 29.3398H38.2535C39.2676 29.3398 40.0282 30.1004 40.0282 31.1145V31.2835C40.0282 32.2976 40.4507 32.7201 41.4648 32.7201H41.6338C42.6479 32.7201 43.4085 33.4807 43.4085 34.4948V34.6638C43.4085 35.6779 43.831 36.1004 44.8451 36.1004H45.0141C46.0282 36.1004 46.7887 36.861 46.7887 37.8751V38.0441C46.7887 38.9736 47.2958 39.6497 48.3099 39.6497H48.3944C49.2811 39.6497 50 40.3686 50 41.2553V41.4244C50 42.3111 49.2811 43.03 48.3944 43.03H48.3099C47.2958 43.03 46.7887 43.706 46.7887 44.6356V44.8046C46.7887 45.8187 46.0282 46.5793 45.0141 46.5793H44.8451C43.831 46.5793 43.4085 47.0018 43.4085 48.0159V48.1849C43.4085 49.199 42.6479 49.9596 41.6338 49.9596H41.4648C40.4507 49.9596 40.0282 50.3821 40.0282 51.3962V51.5652C40.0282 52.5793 39.2676 53.3398 38.2535 53.3398H38.0845C37.0704 53.3398 36.3099 52.5793 36.3099 51.5652V51.3962C36.3099 50.3821 37.0704 49.6215 38.0845 49.6215H38.2535C39.2676 49.6215 39.6901 49.199 39.6901 48.1849V48.0159C39.6901 47.0018 40.4507 46.2413 41.4648 46.2413H41.6338C42.6479 46.2413 43.0704 45.8187 43.0704 44.8046V44.6356C43.0704 43.6215 43.831 42.861 44.8451 42.861H45.0141C45.9437 42.861 46.6197 42.3539 46.6197 41.3398Z" fill="#1C1B1B"/>
</g>
<defs>
<filter id="filter0_d_7159_80188" x="0" y="0.339844" width="82" height="82" filterUnits="userSpaceOnUse" color-interpolation-filters="sRGB">
<feFlood flood-opacity="0" result="BackgroundImageFix"/>
<feColorMatrix in="SourceAlpha" type="matrix" values="0 0 0 0 0 0 0 0 0 0 0 0 0 0 0 0 0 0 127 0" result="hardAlpha"/>
<feOffset/>
<feGaussianBlur stdDeviation="10"/>
<feComposite in2="hardAlpha" operator="out"/>
<feColorMatrix type="matrix" values="0 0 0 0 0 0 0 0 0 0 0 0 0 0 0 0 0 0 0.3 0"/>
<feBlend mode="normal" in2="BackgroundImageFix" result="effect1_dropShadow_7159_80188"/>
<feBlend mode="normal" in="SourceGraphic" in2="effect1_dropShadow_7159_80188" result="shape"/>
</filter>
</defs>
</svg>
