<svg xmlns="http://www.w3.org/2000/svg" width="58" height="38" viewBox="0 0 58 38" fill="none">
  <path d="M32.9104 14.9961C31.0824 14.9961 29.4979 16.2572 29.0098 17.7714H35.7137C35.7137 16.1317 34.6173 14.9961 32.9104 14.9961Z" fill="#FF073C"/>
  <path d="M28.767 0.109375C12.9207 0.109375 0 6.92099 0 17.1373C0 23.6958 5.36289 29.4983 13.4078 32.7776L12.5549 37.571C36.0802 39.5892 57.6552 31.895 57.6552 17.3893C57.5329 5.15481 41.6877 0.109375 28.767 0.109375Z" fill="#FF073C"/>
  <path d="M31.5276 27.0722C34.8189 27.0722 37.4998 25.4326 38.7196 22.4054H34.6966C33.9649 23.4144 33.1121 23.9184 31.7711 23.9184C30.0643 23.9184 28.7233 22.6573 28.602 21.0177H39.0843C40.6688 15.9723 38.1091 12.0625 32.9898 12.0625C28.8456 12.0625 25.9201 14.4592 25.1884 18.4956C24.3366 23.4144 27.0175 27.0722 31.5276 27.0722ZM32.9908 15.2152C34.8189 15.2152 35.9164 16.3508 35.9164 17.9905H29.2125C29.5772 16.4774 31.0405 15.2152 32.9908 15.2152Z" fill="#F8F6F3"/>
  <path d="M22.0203 27.0766H22.9955L23.7271 23.4188H22.8743C21.5333 23.4188 20.9239 22.4097 21.1675 20.8966L22.1426 15.5992H25.1904L25.9221 11.9414H22.8732L23.4825 8.41016H19.5819L17.2657 20.7712C16.6574 24.4279 18.1196 27.0766 22.0203 27.0766Z" fill="#F8F6F3"/>
  <path d="M45.3019 27.0738H46.3994L47.131 23.416H46.2782C44.9372 23.416 44.2055 22.4069 44.5713 20.8938L46.8875 8.40625H42.9868L40.6707 20.7673C39.9379 24.6771 41.6447 27.0738 45.3019 27.0738Z" fill="#F8F6F3"/>
  <path d="M18.1194 8.53516H14.2187L13.6094 12.193H17.3878L18.1194 8.53516Z" fill="#F8F6F3"/>
  <path d="M17.144 13.7031H13.2433L10.6836 27.0732H14.5843L17.144 13.7031Z" fill="#F8F6F3"/>
</svg>