<svg width="9" height="15" viewBox="0 0 9 15" fill="none" xmlns="http://www.w3.org/2000/svg">
<path d="M2.73571 7.73197C2.73571 7.12811 3.13829 6.82618 3.69183 6.82618H3.79248C4.39634 6.82618 4.84924 6.37328 4.84924 5.76941V5.66877C4.84924 5.0649 5.10085 4.81329 5.70471 4.81329H5.80536C6.40922 4.81329 6.86212 4.36039 6.86212 3.75653V3.65589C6.86212 3.05202 7.11373 2.80041 7.71759 2.80041H7.81824C8.4221 2.80041 8.875 2.34751 8.875 1.74365V1.64301C8.875 1.03914 8.4221 0.586243 7.81824 0.586243H7.71759C7.11373 0.586243 6.66083 1.03914 6.66083 1.64301V1.74365C6.66083 2.34751 6.40922 2.59912 5.80536 2.59912H5.70471C5.10085 2.59912 4.64795 3.05202 4.64795 3.65589V3.75653C4.64795 4.36039 4.39634 4.61201 3.79248 4.61201H3.69183C3.08797 4.61201 2.63507 5.0649 2.63507 5.66877V5.76941C2.63507 6.32295 2.33314 6.72553 1.72927 6.72553H1.67895C1.1509 6.72553 0.722833 7.1536 0.722833 7.68165V7.78229C0.722833 8.31034 1.1509 8.73841 1.67895 8.73841H1.72927C2.33314 8.73841 2.63507 9.14099 2.63507 9.69453V9.79517C2.63507 10.399 3.08797 10.8519 3.69183 10.8519H3.79248C4.39634 10.8519 4.64795 11.1035 4.64795 11.7074V11.8081C4.64795 12.4119 5.10085 12.8648 5.70471 12.8648H5.80536C6.40922 12.8648 6.66083 13.1164 6.66083 13.7203V13.8209C6.66083 14.4248 7.11373 14.8777 7.71759 14.8777H7.81824C8.4221 14.8777 8.875 14.4248 8.875 13.8209V13.7203C8.875 13.1164 8.4221 12.6635 7.81824 12.6635H7.71759C7.11373 12.6635 6.86212 12.4119 6.86212 11.8081V11.7074C6.86212 11.1035 6.40922 10.6506 5.80536 10.6506H5.70471C5.10085 10.6506 4.84924 10.399 4.84924 9.79517V9.69453C4.84924 9.09067 4.39634 8.63777 3.79248 8.63777H3.69183C3.13829 8.63777 2.73571 8.33583 2.73571 7.73197Z" fill="#C0C0C0"/>
</svg>
