<svg width="9" height="15" viewBox="0 0 9 15" fill="none" xmlns="http://www.w3.org/2000/svg">
<path d="M6.26429 7.73197C6.26429 7.12811 5.86171 6.82618 5.30817 6.82618H5.20752C4.60366 6.82618 4.15076 6.37328 4.15076 5.76941V5.66877C4.15076 5.0649 3.89915 4.81329 3.29529 4.81329H3.19464C2.59078 4.81329 2.13788 4.36039 2.13788 3.75653V3.65589C2.13788 3.05202 1.88627 2.80041 1.28241 2.80041H1.18176C0.577898 2.80041 0.125 2.34751 0.125 1.74365V1.64301C0.125 1.03914 0.577898 0.586243 1.18176 0.586243H1.28241C1.88627 0.586243 2.33917 1.03914 2.33917 1.64301V1.74365C2.33917 2.34751 2.59078 2.59912 3.19464 2.59912H3.29529C3.89915 2.59912 4.35205 3.05202 4.35205 3.65589V3.75653C4.35205 4.36039 4.60366 4.61201 5.20752 4.61201H5.30817C5.91203 4.61201 6.36493 5.0649 6.36493 5.66877V5.76941C6.36493 6.32295 6.66686 6.72553 7.27073 6.72553H7.32105C7.8491 6.72553 8.27717 7.1536 8.27717 7.68165V7.78229C8.27717 8.31034 7.8491 8.73841 7.32105 8.73841H7.27073C6.66686 8.73841 6.36493 9.14099 6.36493 9.69453V9.79517C6.36493 10.399 5.91203 10.8519 5.30817 10.8519H5.20752C4.60366 10.8519 4.35205 11.1035 4.35205 11.7074V11.8081C4.35205 12.4119 3.89915 12.8648 3.29529 12.8648H3.19464C2.59078 12.8648 2.33917 13.1164 2.33917 13.7203V13.8209C2.33917 14.4248 1.88627 14.8777 1.28241 14.8777H1.18176C0.577898 14.8777 0.125 14.4248 0.125 13.8209V13.7203C0.125 13.1164 0.577898 12.6635 1.18176 12.6635H1.28241C1.88627 12.6635 2.13788 12.4119 2.13788 11.8081V11.7074C2.13788 11.1035 2.59078 10.6506 3.19464 10.6506H3.29529C3.89915 10.6506 4.15076 10.399 4.15076 9.79517V9.69453C4.15076 9.09067 4.60366 8.63777 5.20752 8.63777H5.30817C5.86171 8.63777 6.26429 8.33583 6.26429 7.73197Z" fill="#F8F6F3"/>
</svg>
