<svg width="25" height="24" viewBox="0 0 25 24" fill="none" xmlns="http://www.w3.org/2000/svg">
<path d="M19.0183 11.0415C18.638 10.8935 18.383 10.5284 18.383 10.0775V9.9789C18.383 9.38733 18.139 9.14088 17.5546 9.14088H17.4573C16.8721 9.14088 16.4335 8.69718 16.4335 8.10561V8.00703C16.4335 7.41547 16.1896 7.16902 15.6044 7.16902H15.5071C14.9226 7.16902 14.4834 6.72532 14.4834 6.13385V6.03517C14.4834 5.4437 14.9226 5 15.5071 5H15.6044C16.1896 5 16.6281 5.4437 16.6281 6.03517V6.13385C16.6281 6.72532 16.8721 6.97186 17.4573 6.97186H17.5546C18.139 6.97186 18.5783 7.41547 18.5783 8.00703V8.10561C18.5783 8.69718 18.8215 8.94363 19.4067 8.94363H19.504C20.0892 8.94363 20.5277 9.38733 20.5277 9.9789V10.0775C20.5277 10.6198 20.8203 11.0141 21.4048 11.0141H21.4534C21.9649 11.0141 22.3799 11.4334 22.3799 11.9507V12.0493C22.3799 12.5666 21.9649 12.9859 21.4534 12.9859H21.4048C20.8203 12.9859 20.5277 13.3802 20.5277 13.9225V14.0211C20.5277 14.6127 20.0892 15.0564 19.504 15.0564H19.4067C18.8215 15.0564 18.5783 15.3028 18.5783 15.8944V15.993C18.5783 16.5845 18.139 17.0281 17.5546 17.0281H17.4573C16.8721 17.0281 16.6281 17.2747 16.6281 17.8662V17.9648C16.6281 18.5563 16.1896 19 15.6044 19H15.5071C14.9226 19 14.4834 18.5563 14.4834 17.9648V17.8662C14.4834 17.2747 14.9226 16.831 15.5071 16.831H15.6044C16.1896 16.831 16.4335 16.5845 16.4335 15.993V15.8944C16.4335 15.3028 16.8721 14.8591 17.4573 14.8591H17.5546C18.139 14.8591 18.383 14.6127 18.383 14.0211V13.9225C18.383 13.4622 18.6483 13.0916 19.0419 12.9497H3.32328C2.8022 12.9497 2.37988 12.5225 2.37988 11.9956C2.37988 11.4687 2.8022 11.0415 3.32328 11.0415H19.0183Z" fill="#FF0037"/>
</svg>
