<svg width="18" height="18" viewBox="0 0 18 18" fill="none" xmlns="http://www.w3.org/2000/svg">
<path fill-rule="evenodd" clip-rule="evenodd" d="M11.3032 7.94276C10.6574 7.94276 10.1877 8.29502 10.1877 8.99952C10.1877 9.70403 10.6574 10.0563 11.3032 10.0563H11.4206C12.1251 10.0563 12.6535 10.5847 12.6535 11.2892V11.4066C12.6535 12.1111 12.947 12.4046 13.6515 12.4046H13.769C14.4735 12.4046 15.0018 12.933 15.0018 13.6375V13.755C15.0018 14.4595 15.2954 14.753 15.9999 14.753H16.1173C16.8218 14.753 17.3502 15.2814 17.3502 15.9859V16.1033C17.3502 16.8078 16.8218 17.3362 16.1173 17.3362H15.9999C15.2954 17.3362 14.767 16.8078 14.767 16.1033V15.9859C14.767 15.2814 14.4735 14.9878 13.769 14.9878H13.6515C12.947 14.9878 12.4186 14.4595 12.4186 13.755V13.6375C12.4186 12.933 12.1251 12.6395 11.4206 12.6395H11.3032C10.5987 12.6395 10.0703 12.1111 10.0703 11.4066V11.2892C10.0703 10.6501 9.72533 10.1835 9.03543 10.1739H8.98658C8.28208 10.1739 7.92982 10.6435 7.92982 11.2893V11.4067C7.92982 12.1113 7.40144 12.6396 6.69693 12.6396H6.57951C5.875 12.6396 5.58146 12.9332 5.58146 13.6377V13.7551C5.58146 14.4596 5.05308 14.988 4.34857 14.988H4.23115C3.52664 14.988 3.2331 15.2815 3.2331 15.986V16.1035C3.2331 16.808 2.70472 17.3364 2.00021 17.3364H1.88279C1.17828 17.3364 0.649902 16.808 0.649902 16.1035V15.986C0.649902 15.2815 1.17828 14.7532 1.88279 14.7532H2.00021C2.70472 14.7532 2.99826 14.4596 2.99826 13.7551V13.6377C2.99826 12.9332 3.52664 12.4048 4.23115 12.4048H4.34857C5.05308 12.4048 5.34662 12.1113 5.34662 11.4067V11.2893C5.34662 10.5848 5.875 10.0564 6.57951 10.0564H6.69693C7.34273 10.0564 7.8124 9.70418 7.8124 8.99968C7.8124 8.29517 7.34273 7.94292 6.69693 7.94292H6.57951C5.875 7.94292 5.34662 7.41453 5.34662 6.71003V6.59261C5.34662 5.8881 5.05308 5.59455 4.34857 5.59455H4.23115C3.52664 5.59455 2.99826 5.06617 2.99826 4.36166V4.24424C2.99826 3.53974 2.70472 3.24619 2.00021 3.24619H1.88279C1.17828 3.24619 0.649902 2.71781 0.649902 2.0133V1.89588C0.649902 1.19138 1.17828 0.662994 1.88279 0.662994H2.00021C2.70472 0.662994 3.2331 1.19138 3.2331 1.89588V2.0133C3.2331 2.71781 3.52664 3.01136 4.23115 3.01136H4.34857C5.05308 3.01136 5.58146 3.53974 5.58146 4.24424V4.36166C5.58146 5.06617 5.875 5.35972 6.57951 5.35972H6.69693C7.40144 5.35972 7.92982 5.8881 7.92982 6.59261V6.71003C7.92982 7.3491 8.27477 7.81569 8.96468 7.82534H9.01352C9.71803 7.82534 10.0703 7.35567 10.0703 6.70987V6.59245C10.0703 5.88795 10.5987 5.35956 11.3032 5.35956H11.4206C12.1251 5.35956 12.4186 5.06602 12.4186 4.36151V4.24409C12.4186 3.53958 12.947 3.0112 13.6515 3.0112H13.769C14.4735 3.0112 14.767 2.71766 14.767 2.01315V1.89573C14.767 1.19122 15.2954 0.662842 15.9999 0.662842H16.1173C16.8218 0.662842 17.3502 1.19122 17.3502 1.89573V2.01315C17.3502 2.71766 16.8218 3.24604 16.1173 3.24604H15.9999C15.2954 3.24604 15.0018 3.53958 15.0018 4.24409V4.36151C15.0018 5.06602 14.4735 5.5944 13.769 5.5944H13.6515C12.947 5.5944 12.6535 5.88795 12.6535 6.59245V6.70987C12.6535 7.41438 12.1251 7.94276 11.4206 7.94276H11.3032Z" fill="#F2F2F2"/>
</svg>
