<svg width="18" height="18" viewBox="0 0 18 18" fill="none" xmlns="http://www.w3.org/2000/svg">
<path fill-rule="evenodd" clip-rule="evenodd" d="M11.3032 7.94261C10.6574 7.94261 10.1877 8.29486 10.1877 8.99937C10.1877 9.70388 10.6574 10.0561 11.3032 10.0561H11.4206C12.1251 10.0561 12.6535 10.5845 12.6535 11.289V11.4064C12.6535 12.1109 12.947 12.4045 13.6515 12.4045H13.769C14.4735 12.4045 15.0018 12.9329 15.0018 13.6374V13.7548C15.0018 14.4593 15.2954 14.7529 15.9999 14.7529H16.1173C16.8218 14.7529 17.3502 15.2812 17.3502 15.9857V16.1032C17.3502 16.8077 16.8218 17.3361 16.1173 17.3361H15.9999C15.2954 17.3361 14.767 16.8077 14.767 16.1032V15.9857C14.767 15.2812 14.4735 14.9877 13.769 14.9877H13.6515C12.947 14.9877 12.4186 14.4593 12.4186 13.7548V13.6374C12.4186 12.9329 12.1251 12.6393 11.4206 12.6393H11.3032C10.5987 12.6393 10.0703 12.1109 10.0703 11.4064V11.289C10.0703 10.65 9.72533 10.1834 9.03543 10.1737H8.98658C8.28208 10.1737 7.92982 10.6434 7.92982 11.2892V11.4066C7.92982 12.1111 7.40144 12.6395 6.69693 12.6395H6.57951C5.875 12.6395 5.58146 12.933 5.58146 13.6375V13.755C5.58146 14.4595 5.05308 14.9878 4.34857 14.9878H4.23115C3.52664 14.9878 3.2331 15.2814 3.2331 15.9859V16.1033C3.2331 16.8078 2.70472 17.3362 2.00021 17.3362H1.88279C1.17828 17.3362 0.649902 16.8078 0.649902 16.1033V15.9859C0.649902 15.2814 1.17828 14.753 1.88279 14.753H2.00021C2.70472 14.753 2.99826 14.4595 2.99826 13.755V13.6375C2.99826 12.933 3.52664 12.4046 4.23115 12.4046H4.34857C5.05308 12.4046 5.34662 12.1111 5.34662 11.4066V11.2892C5.34662 10.5847 5.875 10.0563 6.57951 10.0563H6.69693C7.34273 10.0563 7.8124 9.70403 7.8124 8.99952C7.8124 8.29502 7.34273 7.94276 6.69693 7.94276H6.57951C5.875 7.94276 5.34662 7.41438 5.34662 6.70987V6.59245C5.34662 5.88795 5.05308 5.5944 4.34857 5.5944H4.23115C3.52664 5.5944 2.99826 5.06602 2.99826 4.36151V4.24409C2.99826 3.53958 2.70472 3.24604 2.00021 3.24604H1.88279C1.17828 3.24604 0.649902 2.71766 0.649902 2.01315V1.89573C0.649902 1.19122 1.17828 0.662842 1.88279 0.662842H2.00021C2.70472 0.662842 3.2331 1.19122 3.2331 1.89573V2.01315C3.2331 2.71766 3.52664 3.0112 4.23115 3.0112H4.34857C5.05308 3.0112 5.58146 3.53958 5.58146 4.24409V4.36151C5.58146 5.06602 5.875 5.35956 6.57951 5.35956H6.69693C7.40144 5.35956 7.92982 5.88795 7.92982 6.59245V6.70987C7.92982 7.34894 8.27477 7.81554 8.96468 7.82519H9.01352C9.71803 7.82519 10.0703 7.35552 10.0703 6.70972V6.5923C10.0703 5.88779 10.5987 5.35941 11.3032 5.35941H11.4206C12.1251 5.35941 12.4186 5.06587 12.4186 4.36136V4.24394C12.4186 3.53943 12.947 3.01105 13.6515 3.01105H13.769C14.4735 3.01105 14.767 2.71751 14.767 2.013V1.89558C14.767 1.19107 15.2954 0.662689 15.9999 0.662689H16.1173C16.8218 0.662689 17.3502 1.19107 17.3502 1.89558V2.013C17.3502 2.71751 16.8218 3.24589 16.1173 3.24589H15.9999C15.2954 3.24589 15.0018 3.53943 15.0018 4.24394V4.36136C15.0018 5.06587 14.4735 5.59425 13.769 5.59425H13.6515C12.947 5.59425 12.6535 5.88779 12.6535 6.5923V6.70972C12.6535 7.41423 12.1251 7.94261 11.4206 7.94261H11.3032Z" fill="#181818"/>
</svg>
