<svg width="25" height="26" viewBox="0 0 25 26" fill="none" xmlns="http://www.w3.org/2000/svg">
<path d="M12 3L7.86667 3C7.15556 3 6.74074 3.41789 6.74074 4.13427L6.74074 4.19397C6.74074 4.91035 5.26667 5.26854 4.61481 5.26854L4.4963 5.26854C3.78519 5.26854 3.25185 5.80583 3.25185 6.52221L3.25185 6.6416C3.25185 7.29829 2.8963 7.77587 2.18518 7.77587L2.12592 7.77587C1.41481 7.77587 1 8.19376 1 8.91014L0.999999 17.0899C0.999999 17.8062 1.41481 18.2241 2.12592 18.2241L2.18518 18.2241C2.8963 18.2241 3.25185 18.7017 3.25185 19.3584L3.25185 19.4778C3.25185 20.1942 3.78519 20.7315 4.4963 20.7315L4.61481 20.7315C5.26667 20.7315 6.74074 21.0897 6.74074 21.806L6.74074 21.8657C6.74074 22.5821 7.15555 23 7.86667 23L12 23" stroke="#FF0037" stroke-width="1.5" stroke-linecap="round"/>
<path d="M13 3L18.1333 3C18.8444 3 19.2593 3.41789 19.2593 4.13427L19.2593 4.19397C19.2593 4.91035 19.7333 5.26854 20.3852 5.26854L20.5037 5.26854C21.2148 5.26854 21.7481 5.80583 21.7481 6.52221L21.7481 6.6416C21.7481 7.29829 22.1037 7.77587 22.8148 7.77587L22.8741 7.77587C23.5852 7.77587 24 8.19376 24 8.91014L24 17.0899C24 17.8062 23.5852 18.2241 22.8741 18.2241L22.8148 18.2241C22.1037 18.2241 21.7481 18.7017 21.7481 19.3584L21.7481 19.4778C21.7481 20.1942 21.2148 20.7315 20.5037 20.7315L20.3852 20.7315C19.7333 20.7315 19.2593 21.0897 19.2593 21.806L19.2593 21.8657C19.2593 22.5821 18.8444 23 18.1333 23L13 23" stroke="#FF0037" stroke-width="1.5" stroke-linecap="round" stroke-linejoin="round" stroke-dasharray="2 8"/>
<path d="M13 1.25V24.75" stroke="#FF0037" stroke-width="1.5" stroke-linecap="round"/>
</svg>
