<svg width="854" height="329" viewBox="0 0 854 329" fill="none" xmlns="http://www.w3.org/2000/svg">
<path d="M933.872 219.986C933.872 219.986 886.808 469.007 774.79 392.692C662.772 316.377 850.124 7.20934 725.904 -35.2659C660.602 -57.5951 575.237 25.6421 552.798 154.671C530.358 283.699 653.375 393.092 682.226 485.256C711.077 577.419 644.961 631.515 537.972 643.937C430.982 656.359 406.539 683.207 391.712 596.253C376.886 509.299 546.786 525.327 506.716 454.802C466.645 384.277 382.496 412.327 382.496 412.327C382.496 412.327 216.602 498.88 172.924 426.351C129.247 353.823 151.286 299.727 222.612 275.685C293.939 251.642 346.031 266.068 401.329 238.018C456.627 209.968 514.5 93.5005 426.173 72.1241C337.846 50.7478 40.6901 285.301 13.8424 218.383C-13.0054 151.464 310.368 -143.057 391.712 -198.756C473.056 -254.455 570.428 -217.189 606.091 -155.079C641.755 -92.9688 381.694 -46.0857 381.694 -46.0857" stroke="url(#paint0_linear_7563_94260)" stroke-width="24.2429" stroke-linecap="round"/>
<defs>
<linearGradient id="paint0_linear_7563_94260" x1="839.673" y1="-23.9636" x2="-507.354" y2="20.736" gradientUnits="userSpaceOnUse">
<stop stop-color="#242424"/>
<stop offset="1" stop-color="#FF073C"/>
</linearGradient>
</defs>
</svg>
