<svg width="13" height="7" viewBox="0 0 13 7" fill="none" xmlns="http://www.w3.org/2000/svg">
<path d="M6.58429 5.33092C7.08751 5.33092 7.33912 4.99544 7.33912 4.53415L7.33912 4.45028C7.33912 3.94706 7.71653 3.56964 8.21975 3.56964L8.30362 3.56964C8.80685 3.56965 9.01652 3.35997 9.01652 2.85675L9.01652 2.77288C9.01652 2.26966 9.39394 1.89224 9.89716 1.89224L9.98103 1.89224C10.4842 1.89224 10.6939 1.68257 10.6939 1.17935L10.6939 1.09548C10.6939 0.592259 11.0713 0.214844 11.5746 0.214844L11.6584 0.214844C12.1616 0.214844 12.5391 0.592259 12.5391 1.09548L12.5391 1.17935C12.5391 1.68257 12.1616 2.05999 11.6584 2.05999L11.5746 2.05999C11.0713 2.05999 10.8617 2.26966 10.8617 2.77288L10.8617 2.85675C10.8617 3.35997 10.4842 3.73739 9.98103 3.73739L9.89716 3.73739C9.39394 3.73739 9.18426 3.94706 9.18426 4.45028L9.18426 4.53415C9.18426 5.03737 8.80684 5.41479 8.30362 5.41479L8.21975 5.41479C7.75847 5.41479 7.42299 5.6664 7.42299 6.16962L7.42299 6.21155C7.42299 6.65159 7.06626 7.00832 6.62622 7.00832L6.54235 7.00832C6.10231 7.00832 5.74559 6.65159 5.74559 6.21155L5.74559 6.16962C5.74559 5.6664 5.41011 5.41479 4.94882 5.41479L4.86495 5.41479C4.36173 5.41479 3.98432 5.03737 3.98432 4.53415L3.98432 4.45028C3.98432 3.94706 3.77464 3.73738 3.27142 3.73738L3.18755 3.73738C2.68433 3.73738 2.30692 3.35997 2.30692 2.85675L2.30692 2.77288C2.30692 2.26966 2.09724 2.05998 1.59402 2.05998L1.51015 2.05998C1.00693 2.05998 0.629517 1.68257 0.629517 1.17935L0.629517 1.09548C0.629517 0.592259 1.00693 0.214843 1.51015 0.214843L1.59402 0.214843C2.09724 0.214843 2.47466 0.592259 2.47466 1.09548L2.47466 1.17935C2.47466 1.68257 2.68433 1.89224 3.18755 1.89224L3.27142 1.89224C3.77464 1.89224 4.15206 2.26966 4.15206 2.77288L4.15206 2.85675C4.15206 3.35997 4.36173 3.56964 4.86495 3.56964L4.94882 3.56964C5.45204 3.56964 5.82946 3.94706 5.82946 4.45028L5.82946 4.53415C5.82946 4.99543 6.08107 5.33092 6.58429 5.33092Z" fill="#FF0037"/>
</svg>
