<svg width="181" height="48" viewBox="0 0 181 48" fill="none" xmlns="http://www.w3.org/2000/svg">
<path d="M9.6 45.72C9.6 47.16 10.44 48 11.88 48V0C10.44 0 9.6 0.84 9.6 2.28V2.4C9.6 3.84 8.64 4.56 7.32 4.56H7.08C5.64 4.56 4.56 5.64 4.56 7.08V7.32C4.56 8.64 3.84 9.6 2.4 9.6H2.28C0.84 9.6 0 10.44 0 11.88V36.12C0 37.56 0.84 38.4 2.28 38.4H2.4C3.84 38.4 4.56 39.36 4.56 40.68V40.92C4.56 42.36 5.64 43.44 7.08 43.44H7.32C8.64 43.44 9.6 44.16 9.6 45.6V45.72Z" fill="#1A1A1A"/>
<rect width="157" height="48" transform="translate(11.8799)" fill="#1A1A1A"/>
<g clip-path="url(#clip0_7563_94267)">
<path d="M27.4764 30H25.2444V18.8H29.9804C32.6524 18.8 34.0844 20.064 34.0844 22.208C34.0844 24.048 32.8044 25.304 30.6524 25.512L34.1004 30H31.3964L28.1324 25.544H27.4764V30ZM27.4764 20.856V23.6H29.9404C31.1564 23.6 31.7884 23.152 31.7884 22.208C31.7884 21.28 31.1244 20.856 29.9404 20.856H27.4764ZM44.6474 30H36.2794V18.8H44.5834V20.848H38.5114V23.328H44.3034V25.376H38.5114V27.952H44.6474V30ZM48.3196 30H45.9916L50.3516 18.8H53.0716L57.4316 30H55.0476L54.0716 27.392H49.2956L48.3196 30ZM51.6876 21.008L50.0636 25.336H53.3036L51.6876 21.008ZM63.6529 30H59.0369V18.8H63.6529C67.1569 18.8 69.4689 21.024 69.4689 24.4C69.4689 27.776 67.1569 30 63.6529 30ZM61.2689 20.888V27.912H63.6289C65.9889 27.912 67.1329 26.432 67.1329 24.4C67.1329 22.344 65.9889 20.888 63.6289 20.888H61.2689ZM77.9795 30H75.7475V18.8H79.0195L81.9315 26.36L84.8355 18.8H88.1075V30H85.8755V21.544L83.1075 28.92H80.7475L77.9795 21.608V30ZM96.1578 30.208C92.7098 30.208 90.2778 27.744 90.2778 24.4C90.2778 21.056 92.7098 18.592 96.1578 18.592C99.6058 18.592 102.046 21.056 102.046 24.4C102.046 27.744 99.6058 30.208 96.1578 30.208ZM96.1578 28.064C98.2218 28.064 99.7098 26.576 99.7098 24.4C99.7098 22.224 98.2218 20.736 96.1578 20.736C94.1018 20.736 92.6058 22.224 92.6058 24.4C92.6058 26.576 94.1018 28.064 96.1578 28.064ZM106.44 30H104.208V18.8H108.944C111.616 18.8 113.048 20.064 113.048 22.208C113.048 24.048 111.768 25.304 109.616 25.512L113.064 30H110.36L107.096 25.544H106.44V30ZM106.44 20.856V23.6H108.904C110.12 23.6 110.752 23.152 110.752 22.208C110.752 21.28 110.088 20.856 108.904 20.856H106.44ZM123.611 30H115.243V18.8H123.547V20.848H117.475V23.328H123.267V25.376H117.475V27.952H123.611V30Z" fill="white"/>
<path d="M151.018 23.0415C150.638 22.8935 150.383 22.5284 150.383 22.0775V21.9789C150.383 21.3873 150.139 21.1409 149.555 21.1409H149.457C148.872 21.1409 148.434 20.6972 148.434 20.1056V20.007C148.434 19.4155 148.19 19.169 147.604 19.169H147.507C146.923 19.169 146.483 18.7253 146.483 18.1338V18.0352C146.483 17.4437 146.923 17 147.507 17H147.604C148.19 17 148.628 17.4437 148.628 18.0352V18.1338C148.628 18.7253 148.872 18.9719 149.457 18.9719H149.555C150.139 18.9719 150.578 19.4155 150.578 20.007V20.1056C150.578 20.6972 150.822 20.9436 151.407 20.9436H151.504C152.089 20.9436 152.528 21.3873 152.528 21.9789V22.0775C152.528 22.6198 152.82 23.0141 153.405 23.0141H153.453C153.965 23.0141 154.38 23.4334 154.38 23.9507V24.0493C154.38 24.5666 153.965 24.9859 153.453 24.9859H153.405C152.82 24.9859 152.528 25.3802 152.528 25.9225V26.0211C152.528 26.6127 152.089 27.0564 151.504 27.0564H151.407C150.822 27.0564 150.578 27.3028 150.578 27.8944V27.993C150.578 28.5845 150.139 29.0281 149.555 29.0281H149.457C148.872 29.0281 148.628 29.2747 148.628 29.8662V29.9648C148.628 30.5563 148.19 31 147.604 31H147.507C146.923 31 146.483 30.5563 146.483 29.9648V29.8662C146.483 29.2747 146.923 28.831 147.507 28.831H147.604C148.19 28.831 148.434 28.5845 148.434 27.993V27.8944C148.434 27.3028 148.872 26.8591 149.457 26.8591H149.555C150.139 26.8591 150.383 26.6127 150.383 26.0211V25.9225C150.383 25.4622 150.648 25.0916 151.042 24.9497H135.323C134.802 24.9497 134.38 24.5225 134.38 23.9956C134.38 23.4687 134.802 23.0415 135.323 23.0415H151.018Z" fill="#FF0037"/>
</g>
<path d="M171.16 45.72C171.16 47.16 170.32 48 168.88 48V0C170.32 0 171.16 0.84 171.16 2.28V2.4C171.16 3.84 172.12 4.56 173.44 4.56H173.68C175.12 4.56 176.2 5.64 176.2 7.08V7.32C176.2 8.64 176.92 9.6 178.36 9.6H178.48C179.92 9.6 180.76 10.44 180.76 11.88V36.12C180.76 37.56 179.92 38.4 178.48 38.4H178.36C176.92 38.4 176.2 39.36 176.2 40.68V40.92C176.2 42.36 175.12 43.44 173.68 43.44H173.44C172.12 43.44 171.16 44.16 171.16 45.6V45.72Z" fill="#1A1A1A"/>
<defs>
<clipPath id="clip0_7563_94267">
<rect width="133" height="24" fill="white" transform="translate(23.8799 12)"/>
</clipPath>
</defs>
</svg>
