<svg width="13" height="48" viewBox="0 0 13 48" fill="none" xmlns="http://www.w3.org/2000/svg">
<path d="M3.15977 45.72C3.15977 47.16 2.31977 48 0.879766 48V0C2.31977 0 3.15977 0.84 3.15977 2.28V2.4C3.15977 3.84 4.11977 4.56 5.43976 4.56H5.67977C7.11976 4.56 8.19977 5.64 8.19977 7.08V7.32C8.19977 8.64 8.91977 9.6 10.3598 9.6H10.4798C11.9198 9.6 12.7598 10.44 12.7598 11.88V36.12C12.7598 37.56 11.9198 38.4 10.4798 38.4H10.3598C8.91977 38.4 8.19977 39.36 8.19977 40.68V40.92C8.19977 42.36 7.11976 43.44 5.67977 43.44H5.43976C4.11977 43.44 3.15977 44.16 3.15977 45.6V45.72Z" fill="#1A1A1A"/>
</svg>
