<svg width="24" height="24" viewBox="0 0 24 24" fill="none" xmlns="http://www.w3.org/2000/svg">
<path d="M18 21.0499L18 20.9999C18 20.3999 18.4 20.0999 18.95 20.0999L19.05 20.0999C19.65 20.0999 20.1 19.6498 20.1 19.0498L20.1 18.9498C20.1 18.3997 20.4 17.9997 21 17.9997L21.05 17.9997C21.65 17.9997 22 17.6497 22 17.0497L22 6.95034C22 6.3503 21.65 6.00028 21.05 6.00028L21 6.00028C20.4 6.00028 20.1 5.60025 20.1 5.05021L20.1 4.9502C20.1 4.35016 19.65 3.90013 19.05 3.90013L18.95 3.90013C18.4 3.90013 18 3.60011 18 3.00007L18 2.95007C18 2.35002 17.65 2 17.05 2L6.95 2C6.35 2 6 2.35002 6 2.95006L6 3.00007C6 3.60011 5.6 3.90013 5.05 3.90013L4.95 3.90013C4.35 3.90013 3.9 4.35016 3.9 4.9502L3.9 5.05021C3.9 5.60025 3.6 6.00027 3 6.00027L2.95 6.00027C2.35 6.00027 2 6.3503 2 6.95034L2 17.0497C2 17.6497 2.35 17.9997 2.95 17.9997L3 17.9997C3.6 17.9997 3.9 18.3997 3.9 18.9498L3.9 19.0498C3.9 19.6498 4.35 20.0999 4.95 20.0999L5.05 20.0999C5.6 20.0999 6 20.3999 6 20.9999L6 21.0499C6 21.65 6.35 22 6.95 22L17.05 22C17.65 22 18 21.65 18 21.0499Z" stroke="#FF0037" stroke-width="1.5"/>
<path d="M15.5703 18.4996V14.5996" stroke="#FF0037" stroke-width="1.5" stroke-miterlimit="10" stroke-linecap="round" stroke-linejoin="round"/>
<path d="M15.5703 7.45V5.5" stroke="#FF0037" stroke-width="1.5" stroke-miterlimit="10" stroke-linecap="round" stroke-linejoin="round"/>
<path d="M15.5697 12.6492C17.0057 12.6492 18.1697 11.4852 18.1697 10.0492C18.1697 8.61328 17.0057 7.44922 15.5697 7.44922C14.1338 7.44922 12.9697 8.61328 12.9697 10.0492C12.9697 11.4852 14.1338 12.6492 15.5697 12.6492Z" stroke="#FF0037" stroke-width="1.5" stroke-miterlimit="10" stroke-linecap="round" stroke-linejoin="round"/>
<path d="M8.42969 18.5008V16.5508" stroke="#FF0037" stroke-width="1.5" stroke-miterlimit="10" stroke-linecap="round" stroke-linejoin="round"/>
<path d="M8.42969 9.4V5.5" stroke="#FF0037" stroke-width="1.5" stroke-miterlimit="10" stroke-linecap="round" stroke-linejoin="round"/>
<path d="M8.43008 16.5496C9.86602 16.5496 11.0301 15.3855 11.0301 13.9496C11.0301 12.5137 9.86602 11.3496 8.43008 11.3496C6.99414 11.3496 5.83008 12.5137 5.83008 13.9496C5.83008 15.3855 6.99414 16.5496 8.43008 16.5496Z" stroke="#FF0037" stroke-width="1.5" stroke-miterlimit="10" stroke-linecap="round" stroke-linejoin="round"/>
</svg>
