<svg width="47" height="47" viewBox="0 0 47 47" fill="none" xmlns="http://www.w3.org/2000/svg">
<path d="M23.4318 45.8636C11.0605 45.8636 1 35.8031 1 23.4318C1 11.0605 11.0662 1 23.4318 1C35.7974 1 45.8636 11.0605 45.8636 23.4318C45.8636 35.8031 35.8031 45.8636 23.4318 45.8636ZM23.4318 1.70969C11.4523 1.70969 1.70969 11.4523 1.70969 23.4318C1.70969 35.4114 11.4523 45.154 23.4318 45.154C35.4114 45.154 45.154 35.4114 45.154 23.4318C45.154 11.4523 35.4114 1.70969 23.4318 1.70969Z" fill="#4E92E4" stroke="#4E92E4" stroke-width="0.534091"/>
<path d="M23.4285 33.3462C17.9611 33.3462 13.5156 28.9007 13.5156 23.4332C13.5156 18.965 16.5304 15.0362 20.8453 13.8723L21.8275 13.6055L21.22 14.423C20.0788 15.9673 19.4713 17.7898 19.4713 19.6918C19.4713 24.5858 23.4513 28.56 28.3396 28.56C29.4126 28.56 30.48 28.3613 31.5076 27.9639L32.4615 27.6005L31.9391 28.4805C30.1564 31.4783 26.8918 33.3405 23.4172 33.3405L23.4285 33.3462ZM20.0788 14.8716C16.5872 16.2342 14.2253 19.6236 14.2253 23.4332C14.2253 28.5089 18.3529 32.6365 23.4285 32.6365C26.3184 32.6365 29.0493 31.2455 30.7809 28.9574C29.9861 29.1675 29.1685 29.2754 28.3509 29.2754C23.0709 29.2754 18.7673 24.9775 18.7673 19.6974C18.7673 17.9885 19.2158 16.3363 20.0788 14.8716Z" fill="#4E92E4" stroke="#4E92E4" stroke-width="0.534091"/>
<path d="M29.7207 15.9152C30.0102 16.3354 30.3736 16.7044 30.7994 16.994C30.3793 17.2835 30.0102 17.6469 29.7207 18.0727C29.4311 17.6525 29.0678 17.2835 28.642 16.994C29.0621 16.7044 29.4311 16.341 29.7207 15.9152ZM29.7207 13.9395L29.7037 13.9565C29.5447 15.5462 28.2786 16.8123 26.6889 16.9712L26.6719 16.9883L26.6889 17.0053C28.2786 17.1643 29.5447 18.4304 29.7037 20.0201L29.7207 20.0371L29.7377 20.0201C29.8967 18.4304 31.1628 17.1643 32.7525 17.0053L32.7695 16.9883L32.7525 16.9712C31.1628 16.8123 29.8967 15.5462 29.7377 13.9565L29.7207 13.9395Z" fill="#4E92E4" stroke="#4E92E4" stroke-width="0.534091"/>
<path d="M24.1143 19.8461C24.3414 20.1754 24.6253 20.4593 24.9546 20.6864C24.6253 20.9135 24.3414 21.1974 24.1143 21.5266C23.8872 21.1974 23.6033 20.9135 23.274 20.6864C23.6033 20.4593 23.8872 20.1754 24.1143 19.8461ZM24.1143 18.2734L24.1029 18.2848C23.978 19.5452 22.9731 20.5444 21.7184 20.6693L21.707 20.6807L21.7184 20.6921C22.9788 20.817 23.978 21.8219 24.1029 23.0766L24.1143 23.088L24.1256 23.0766C24.2506 21.8162 25.2555 20.817 26.5102 20.6921L26.5216 20.6807L26.5102 20.6693C25.2498 20.5444 24.2506 19.5395 24.1256 18.2848L24.1143 18.2734Z" fill="#4E92E4" stroke="#4E92E4" stroke-width="0.534091"/>
<path d="M28.2319 24.4268C28.4079 24.6823 28.6293 24.9094 28.8905 25.0854C28.635 25.2614 28.4079 25.4829 28.2319 25.744C28.0559 25.4885 27.8345 25.2614 27.5733 25.0854C27.8288 24.9094 28.0559 24.688 28.2319 24.4268ZM28.2319 23.2402L28.2206 23.2516C28.124 24.2168 27.3576 24.9776 26.3981 25.0741L26.3867 25.0854L26.3981 25.0968C27.3633 25.1933 28.124 25.9598 28.2206 26.9193L28.2319 26.9306L28.2433 26.9193C28.3398 25.9541 29.1062 25.1933 30.0657 25.0968L30.0771 25.0854L30.0657 25.0741C29.1006 24.9776 28.3398 24.2111 28.2433 23.2516L28.2319 23.2402Z" fill="#4E92E4" stroke="#4E92E4" stroke-width="0.534091"/>
</svg>
