<svg width="83" height="82" viewBox="0 0 83 82" fill="none" xmlns="http://www.w3.org/2000/svg">
<path d="M66.2673 76.7778L66.2673 76.5555C66.2673 75.3227 66.6326 74.4623 67.1881 73.9102C67.7453 73.3565 68.5515 73.0556 69.5437 73.0556L69.9413 73.0556C72.6535 73.0556 74.6152 70.7778 74.6152 67.8889L74.6152 67.4444C74.6152 66.296 74.8961 65.3629 75.401 64.7278C75.8934 64.1085 76.6376 63.7222 77.6928 63.7222L77.8916 63.7222C79.1976 63.7222 80.2884 63.2925 81.0469 62.4444C81.7984 61.6042 82.168 60.4156 82.168 59L82.168 23C82.168 21.5844 81.7984 20.3958 81.0469 19.5556C80.2884 18.7075 79.1976 18.2778 77.8916 18.2778L77.6928 18.2778C76.6376 18.2778 75.8934 17.8915 75.401 17.2722C74.8961 16.6371 74.6152 15.704 74.6152 14.5556L74.6152 14.1111C74.6152 11.2222 72.6535 8.94444 69.9413 8.94444L69.5437 8.94444C68.5515 8.94444 67.7453 8.64352 67.1881 8.0898C66.6326 7.53773 66.2673 6.67726 66.2673 5.44444L66.2673 5.22222C66.2673 3.80662 65.8978 2.61806 65.1462 1.77778C64.3878 0.929765 63.2969 0.499999 61.9909 0.499999L21.345 0.499997C20.039 0.499997 18.9482 0.929763 18.1897 1.77778C17.4381 2.61806 17.0686 3.80662 17.0686 5.22222L17.0686 5.44444C17.0686 6.67726 16.7033 7.53773 16.1478 8.0898C15.5907 8.64351 14.7844 8.94444 13.7922 8.94444L13.3947 8.94444C10.6824 8.94444 8.72076 11.2222 8.72076 14.1111L8.72076 14.5556C8.72076 15.704 8.43989 16.6371 7.93497 17.2722C7.44257 17.8915 6.69834 18.2778 5.64312 18.2778L5.44437 18.2778C4.13837 18.2778 3.04755 18.7075 2.28908 19.5556C1.53752 20.3958 1.16797 21.5844 1.16797 23L1.16797 59C1.16797 60.4156 1.53752 61.6042 2.28908 62.4444C3.04754 63.2925 4.13836 63.7222 5.44436 63.7222L5.64312 63.7222C6.69834 63.7222 7.44256 64.1085 7.93497 64.7278C8.43989 65.3629 8.72076 66.296 8.72076 67.4444L8.72076 67.8889C8.72076 70.7778 10.6824 73.0556 13.3947 73.0556L13.7922 73.0556C14.7844 73.0556 15.5906 73.3565 16.1478 73.9102C16.7033 74.4623 17.0686 75.3227 17.0686 76.5555L17.0686 76.7778C17.0686 78.1934 17.4381 79.3819 18.1897 80.2222C18.9482 81.0702 20.039 81.5 21.345 81.5L61.9909 81.5C63.2969 81.5 64.3878 81.0702 65.1462 80.2222C65.8978 79.3819 66.2673 78.1934 66.2673 76.7778Z" fill="url(#paint0_radial_11914_120207)" stroke="url(#paint1_radial_11914_120207)"/>
<path d="M41.668 49C44.9817 49 47.668 46.3137 47.668 43C47.668 39.6863 44.9817 37 41.668 37C38.3543 37 35.668 39.6863 35.668 43C35.668 46.3137 38.3543 49 41.668 49Z" stroke="#FF335F" stroke-width="3"/>
<path d="M37.224 59.0001H46.112C52.354 59.0001 55.476 59.0001 57.718 57.5301C58.6854 56.896 59.5185 56.0778 60.17 55.1221C61.668 52.9221 61.668 49.8561 61.668 43.7281C61.668 37.5981 61.668 34.5341 60.17 32.3341C59.5186 31.3783 58.6854 30.5601 57.718 29.9261C56.278 28.9801 54.474 28.6421 51.712 28.5221C50.394 28.5221 49.26 27.5421 49.002 26.2721C48.8048 25.3418 48.2925 24.5082 47.5517 23.912C46.8108 23.3158 45.8869 22.9937 44.936 23.0001H38.4C36.424 23.0001 34.722 24.3701 34.334 26.2721C34.076 27.5421 32.942 28.5221 31.624 28.5221C28.864 28.6421 27.06 28.9821 25.618 29.9261C24.6512 30.5602 23.8187 31.3784 23.168 32.3341C21.668 34.5341 21.668 37.5981 21.668 43.7281C21.668 49.8561 21.668 52.9201 23.166 55.1221C23.814 56.0741 24.646 56.8921 25.618 57.5301C27.86 59.0001 30.982 59.0001 37.224 59.0001Z" stroke="#FF335F" stroke-width="3"/>
<path d="M55.668 37H53.668" stroke="#FF335F" stroke-width="3" stroke-linecap="round"/>
<defs>
<radialGradient id="paint0_radial_11914_120207" cx="0" cy="0" r="1" gradientUnits="userSpaceOnUse" gradientTransform="translate(41.668 93.8506) rotate(-90) scale(66.5961 63.5748)">
<stop stop-color="#FF335F" stop-opacity="0.3"/>
<stop offset="1" stop-color="#FF335F" stop-opacity="0"/>
</radialGradient>
<radialGradient id="paint1_radial_11914_120207" cx="0" cy="0" r="1" gradientUnits="userSpaceOnUse" gradientTransform="translate(41.668 1) rotate(90) scale(80 277.655)">
<stop stop-color="#FF335F" stop-opacity="0"/>
<stop offset="1" stop-color="#FF335F"/>
</radialGradient>
</defs>
</svg>
