<svg width="83" height="82" viewBox="0 0 83 82" fill="none" xmlns="http://www.w3.org/2000/svg">
<path d="M65.9314 76.7778L65.9314 76.5555C65.9314 75.3227 66.2967 74.4623 66.8522 73.9102C67.4093 73.3565 68.2156 73.0556 69.2078 73.0556L69.6053 73.0556C72.3176 73.0556 74.2792 70.7778 74.2792 67.8889L74.2792 67.4444C74.2792 66.296 74.5601 65.3629 75.065 64.7278C75.5574 64.1085 76.3017 63.7222 77.3569 63.7222L77.5556 63.7222C78.8616 63.7222 79.9524 63.2925 80.7109 62.4444C81.4625 61.6042 81.832 60.4156 81.832 59L81.832 23C81.832 21.5844 81.4625 20.3958 80.7109 19.5556C79.9524 18.7075 78.8616 18.2778 77.5556 18.2778L77.3569 18.2778C76.3017 18.2778 75.5574 17.8915 75.065 17.2722C74.5601 16.6371 74.2792 15.704 74.2792 14.5556L74.2792 14.1111C74.2792 11.2222 72.3176 8.94444 69.6053 8.94444L69.2078 8.94444C68.2156 8.94444 67.4093 8.64352 66.8522 8.0898C66.2967 7.53773 65.9314 6.67726 65.9314 5.44444L65.9314 5.22222C65.9314 3.80662 65.5619 2.61806 64.8103 1.77778C64.0518 0.929765 62.961 0.499999 61.655 0.499999L21.009 0.499997C19.703 0.499997 18.6122 0.929763 17.8538 1.77778C17.1022 2.61806 16.7327 3.80662 16.7327 5.22222L16.7327 5.44444C16.7327 6.67726 16.3674 7.53773 15.8119 8.0898C15.2547 8.64351 14.4485 8.94444 13.4563 8.94444L13.0587 8.94444C10.3465 8.94444 8.38483 11.2222 8.38483 14.1111L8.38483 14.5556C8.38483 15.704 8.10395 16.6371 7.59904 17.2722C7.10663 17.8915 6.3624 18.2778 5.30718 18.2778L5.10843 18.2778C3.80243 18.2778 2.71161 18.7075 1.95314 19.5556C1.20158 20.3958 0.83203 21.5844 0.83203 23L0.832029 59C0.832029 60.4156 1.20158 61.6042 1.95314 62.4444C2.71161 63.2925 3.80243 63.7222 5.10843 63.7222L5.30718 63.7222C6.3624 63.7222 7.10663 64.1085 7.59903 64.7278C8.10395 65.3629 8.38482 66.296 8.38482 67.4444L8.38482 67.8889C8.38482 70.7778 10.3465 73.0556 13.0587 73.0556L13.4562 73.0556C14.4485 73.0556 15.2547 73.3565 15.8119 73.9102C16.3674 74.4623 16.7326 75.3227 16.7326 76.5555L16.7326 76.7778C16.7326 78.1934 17.1022 79.3819 17.8538 80.2222C18.6122 81.0702 19.703 81.5 21.009 81.5L61.655 81.5C62.961 81.5 64.0518 81.0702 64.8103 80.2222C65.5618 79.3819 65.9314 78.1934 65.9314 76.7778Z" fill="url(#paint0_radial_11914_120197)" stroke="url(#paint1_radial_11914_120197)"/>
<path d="M31.332 61H51.332C52.9233 61 54.4495 60.3679 55.5747 59.2426C56.6999 58.1174 57.332 56.5913 57.332 55V27C57.332 25.4087 56.6999 23.8826 55.5747 22.7574C54.4495 21.6321 52.9233 21 51.332 21H31.332C29.7407 21 28.2146 21.6321 27.0894 22.7574C25.9642 23.8826 25.332 25.4087 25.332 27V55C25.332 56.5913 25.9642 58.1174 27.0894 59.2426C28.2146 60.3679 29.7407 61 31.332 61ZM29.332 27C29.332 26.4696 29.5427 25.9609 29.9178 25.5858C30.2929 25.2107 30.8016 25 31.332 25H51.332C51.8625 25 52.3712 25.2107 52.7462 25.5858C53.1213 25.9609 53.332 26.4696 53.332 27V55C53.332 55.5304 53.1213 56.0391 52.7462 56.4142C52.3712 56.7893 51.8625 57 51.332 57H31.332C30.8016 57 30.2929 56.7893 29.9178 56.4142C29.5427 56.0391 29.332 55.5304 29.332 55V27Z" fill="#FF335F"/>
<path d="M41.332 29C39.6752 29 38.332 30.3431 38.332 32C38.332 33.6569 39.6752 35 41.332 35C42.9889 35 44.332 33.6569 44.332 32C44.332 30.3431 42.9889 29 41.332 29Z" fill="#FF335F"/>
<path d="M36.332 53H46.332C46.8625 53 47.3712 52.7893 47.7462 52.4142C48.1213 52.0391 48.332 51.5304 48.332 51C48.332 50.4696 48.1213 49.9609 47.7462 49.5858C47.3712 49.2107 46.8625 49 46.332 49H36.332C35.8016 49 35.2929 49.2107 34.9178 49.5858C34.5427 49.9609 34.332 50.4696 34.332 51C34.332 51.5304 34.5427 52.0391 34.9178 52.4142C35.2929 52.7893 35.8016 53 36.332 53Z" fill="#FF335F"/>
<defs>
<radialGradient id="paint0_radial_11914_120197" cx="0" cy="0" r="1" gradientUnits="userSpaceOnUse" gradientTransform="translate(41.332 93.8506) rotate(-90) scale(66.5961 63.5748)">
<stop stop-color="#FF335F" stop-opacity="0.3"/>
<stop offset="1" stop-color="#FF335F" stop-opacity="0"/>
</radialGradient>
<radialGradient id="paint1_radial_11914_120197" cx="0" cy="0" r="1" gradientUnits="userSpaceOnUse" gradientTransform="translate(41.332 1) rotate(90) scale(80 277.655)">
<stop stop-color="#FF335F" stop-opacity="0"/>
<stop offset="1" stop-color="#FF335F"/>
</radialGradient>
</defs>
</svg>
