<svg width="49" height="50" viewBox="0 0 49 50" fill="none" xmlns="http://www.w3.org/2000/svg">
<path d="M24.3434 49.343C10.9179 49.343 0 38.4252 0 24.9996C0 11.5741 10.9179 0.65625 24.3434 0.65625C37.7689 0.65625 48.6868 11.5741 48.6868 24.9996C48.6868 38.4252 37.7689 49.343 24.3434 49.343ZM24.3434 1.42642C11.343 1.42642 0.770165 11.9992 0.770165 24.9996C0.770165 38 11.343 48.5728 24.3434 48.5728C37.3438 48.5728 47.9166 38 47.9166 24.9996C47.9166 11.9992 37.3438 1.42642 24.3434 1.42642Z" fill="#4E92E4"/>
<path d="M24.3439 10.5199C25.7733 10.5199 26.9378 9.35535 26.9378 7.92592C26.9378 6.4965 25.7733 5.33203 24.3439 5.33203C22.9145 5.33203 21.75 6.4965 21.75 7.92592C21.75 9.35535 22.9145 10.5199 24.3439 10.5199ZM24.3439 6.65056C25.0463 6.65056 25.6193 7.22353 25.6193 7.92592C25.6193 8.62831 25.0463 9.20136 24.3439 9.20136C23.6415 9.20136 23.0685 8.62831 23.0685 7.92592C23.0685 7.22353 23.6415 6.65056 24.3439 6.65056Z" fill="#4E92E4"/>
<path d="M24.3439 39.4727C22.9145 39.4727 21.75 40.6371 21.75 42.0665C21.75 43.496 22.9145 44.6604 24.3439 44.6604C25.7733 44.6604 26.9378 43.496 26.9378 42.0665C26.9378 40.6371 25.7733 39.4727 24.3439 39.4727ZM24.3439 43.3419C23.6415 43.3419 23.0685 42.7689 23.0685 42.0665C23.0685 41.3642 23.6415 40.7912 24.3439 40.7912C25.0463 40.7912 25.6193 41.3642 25.6193 42.0665C25.6193 42.7689 25.0463 43.3419 24.3439 43.3419Z" fill="#4E92E4"/>
<path d="M7.27751 22.4043C5.84808 22.4043 4.68359 23.5688 4.68359 24.9983C4.68359 26.4277 5.84808 27.5922 7.27751 27.5922C8.70694 27.5922 9.87143 26.4277 9.87143 24.9983C9.87143 23.5688 8.70694 22.4043 7.27751 22.4043ZM7.27751 26.2736C6.57512 26.2736 6.00212 25.7007 6.00212 24.9983C6.00212 24.2959 6.57512 23.7228 7.27751 23.7228C7.9799 23.7228 8.5529 24.2959 8.5529 24.9983C8.5529 25.7007 7.9799 26.2736 7.27751 26.2736Z" fill="#4E92E4"/>
<path d="M41.4181 22.4043C39.9887 22.4043 38.8242 23.5688 38.8242 24.9983C38.8242 26.4277 39.9887 27.5922 41.4181 27.5922C42.8476 27.5922 44.0121 26.4277 44.0121 24.9983C44.0121 23.5688 42.8476 22.4043 41.4181 22.4043ZM41.4181 26.2736C40.7157 26.2736 40.1427 25.7007 40.1427 24.9983C40.1427 24.2959 40.7157 23.7228 41.4181 23.7228C42.1205 23.7228 42.6935 24.2959 42.6935 24.9983C42.6935 25.7007 42.1205 26.2736 41.4181 26.2736Z" fill="#4E92E4"/>
<path d="M12.2753 15.5235C12.9407 15.5235 13.6061 15.2708 14.1113 14.7656C15.1218 13.7551 15.1218 12.1101 14.1113 11.0996C13.1009 10.0892 11.4558 10.0892 10.4453 11.0996C9.43489 12.1101 9.43489 13.7551 10.4453 14.7656C10.9506 15.2708 11.616 15.5235 12.2814 15.5235H12.2753ZM11.3757 12.03C11.6222 11.7836 11.9487 11.6603 12.2753 11.6603C12.6018 11.6603 12.9284 11.7836 13.1748 12.03C13.6739 12.5291 13.6739 13.3362 13.1748 13.8353C12.6757 14.3344 11.8686 14.3344 11.3695 13.8353C10.8705 13.3362 10.8705 12.5291 11.3695 12.03H11.3757Z" fill="#4E92E4"/>
<path d="M34.1849 33.903L30.2971 30.0151C31.3076 28.8199 31.9668 27.3104 32.1024 25.6591H37.5983C37.9618 25.6591 38.2575 25.3634 38.2575 24.9999C38.2575 24.6364 37.9618 24.3406 37.5983 24.3406H32.1024C31.9607 22.6894 31.3076 21.1799 30.2971 19.9846L34.1849 16.0967C34.4437 15.838 34.4437 15.419 34.1849 15.1664C33.9261 14.9076 33.5071 14.9076 33.2545 15.1664L29.3667 19.0542C28.1714 18.0437 26.6619 17.3845 25.0107 17.2489V11.7531C25.0107 11.3895 24.7149 11.0938 24.3514 11.0938C23.9879 11.0938 23.6922 11.3895 23.6922 11.7531V17.2489C22.0409 17.3906 20.5314 18.0437 19.3361 19.0542L15.4483 15.1664C15.1895 14.9076 14.7706 14.9076 14.5179 15.1664C14.2653 15.4252 14.2592 15.8441 14.5179 16.0967L18.4057 19.9846C17.3953 21.1799 16.736 22.6894 16.6005 24.3406H11.1046C10.7411 24.3406 10.4453 24.6364 10.4453 24.9999C10.4453 25.3634 10.7411 25.6591 11.1046 25.6591H16.6005C16.7422 27.3104 17.3953 28.8199 18.4057 30.0151L14.5179 33.903C14.2592 34.1618 14.2592 34.5807 14.5179 34.8333C14.6473 34.9627 14.8137 35.0243 14.9862 35.0243C15.1587 35.0243 15.3251 34.9627 15.4545 34.8333L19.3423 30.9455C20.5376 31.956 22.0471 32.6153 23.6983 32.7508V38.2467C23.6983 38.6103 23.9941 38.906 24.3576 38.906C24.7211 38.906 25.0168 38.6103 25.0168 38.2467V32.7508C26.6681 32.6091 28.1776 31.956 29.3729 30.9455L33.2607 34.8333C33.3901 34.9627 33.5564 35.0243 33.729 35.0243C33.9015 35.0243 34.0678 34.9627 34.1972 34.8333C34.456 34.5746 34.456 34.1556 34.1972 33.903H34.1849ZM28.9416 29.5408C28.9416 29.5408 28.9231 29.5592 28.9108 29.5654C28.8985 29.5715 28.8923 29.5839 28.8862 29.5962C27.7155 30.7484 26.1136 31.4631 24.3453 31.4631C20.7779 31.4631 17.882 28.5611 17.8759 24.9999C17.8759 21.4325 20.7779 18.5366 24.3453 18.5366C27.9127 18.5366 30.8146 21.4386 30.8146 25.006C30.8146 26.7743 30.0999 28.3763 28.9478 29.547L28.9416 29.5408Z" fill="#4E92E4"/>
<path d="M34.586 35.2325C33.5755 36.2429 33.5755 37.888 34.586 38.8984C35.0912 39.4036 35.7566 39.6562 36.422 39.6562C37.0875 39.6562 37.7529 39.4036 38.2581 38.8984C39.2686 37.888 39.2686 36.2429 38.2581 35.2325C37.2477 34.222 35.6026 34.222 34.5921 35.2325H34.586ZM37.3216 37.968C36.8225 38.4671 36.0154 38.4671 35.5163 37.968C35.0173 37.469 35.0173 36.6619 35.5163 36.1628C35.7628 35.9164 36.0893 35.7931 36.4159 35.7931C36.7424 35.7931 37.069 35.9164 37.3154 36.1628C37.8145 36.6619 37.8145 37.469 37.3154 37.968H37.3216Z" fill="#4E92E4"/>
<path d="M10.4375 35.2325C9.42707 36.2429 9.42707 37.888 10.4375 38.8984C10.9428 39.4036 11.6082 39.6562 12.2736 39.6562C12.939 39.6562 13.6044 39.4036 14.1097 38.8984C15.1201 37.888 15.1201 36.2429 14.1097 35.2325C13.0992 34.222 11.4541 34.222 10.4437 35.2325H10.4375ZM13.1732 37.968C12.6741 38.4671 11.867 38.4671 11.3679 37.968C10.8688 37.469 10.8688 36.6619 11.3679 36.1628C11.867 35.6638 12.6741 35.6638 13.1732 36.1628C13.6722 36.6619 13.6722 37.469 13.1732 37.968Z" fill="#4E92E4"/>
<path d="M36.4159 15.5235C37.0813 15.5235 37.7467 15.2708 38.252 14.7656C39.2624 13.7551 39.2624 12.1101 38.252 11.0996C37.2415 10.0892 35.5964 10.0892 34.586 11.0996C33.5755 12.1101 33.5755 13.7551 34.586 14.7656C35.0912 15.2708 35.7566 15.5235 36.422 15.5235H36.4159ZM35.5163 12.03C35.7628 11.7836 36.0893 11.6603 36.4159 11.6603C36.7424 11.6603 37.069 11.7836 37.3154 12.03C37.8145 12.5291 37.8145 13.3362 37.3154 13.8353C36.8164 14.3344 36.0092 14.3344 35.5102 13.8353C35.0111 13.3362 35.0111 12.5291 35.5102 12.03H35.5163Z" fill="#4E92E4"/>
<path d="M24.3458 21.0117C22.1462 21.0117 20.3594 22.7986 20.3594 24.9982C20.3594 27.1977 22.1462 28.9845 24.3458 28.9845C26.5453 28.9845 28.3321 27.1977 28.3321 24.9982C28.3321 22.7986 26.5453 21.0117 24.3458 21.0117ZM24.3458 27.666C22.8732 27.666 21.6779 26.4707 21.6779 24.9982C21.6779 23.5256 22.8732 22.3303 24.3458 22.3303C25.8183 22.3303 27.0136 23.5256 27.0136 24.9982C27.0136 26.4707 25.8183 27.666 24.3458 27.666Z" fill="#4E92E4"/>
</svg>
