<svg width="45" height="46" viewBox="0 0 45 46" fill="none" xmlns="http://www.w3.org/2000/svg">
<path d="M0 23.3851C0 11.0148 10.0597 0.955078 22.43 0.955078C34.8003 0.955078 44.86 11.0148 44.86 23.3851C44.86 35.7554 34.8003 45.8151 22.43 45.8151C10.0597 45.8151 0 35.7554 0 23.3851ZM44.1504 23.3851C44.1504 11.4065 34.4086 1.66471 22.43 1.66471C10.4514 1.66471 0.70963 11.4065 0.70963 23.3851C0.70963 35.3636 10.4514 45.1055 22.43 45.1055C34.4086 45.1055 44.1504 35.3636 44.1504 23.3851Z" fill="#4E92E4"/>
<path fill-rule="evenodd" clip-rule="evenodd" d="M16.7039 13.3305V9.99805H18.2367V13.3305H16.7039ZM7.47305 24.0941H4.14062V22.5613H7.47305V24.0941ZM9.85741 16.7991L7.50144 14.4431L8.58575 13.3588L10.9417 15.7148L9.85741 16.7991ZM17.4703 14.8973C15.1427 14.8973 13.0366 15.8397 11.5094 17.3668C9.98231 18.894 9.03991 21.0001 9.03991 23.3277C9.03991 25.6553 9.98231 27.7615 11.5094 29.2886C13.0366 30.8158 15.1427 31.7581 17.4703 31.7581C19.304 31.7581 21.0071 31.1734 22.3923 30.1742C23.7775 31.1734 25.475 31.7581 27.3143 31.7581C29.6419 31.7581 31.7481 30.8158 33.2752 29.2886C34.8023 27.7615 35.7447 25.6553 35.7447 23.3277C35.7447 21.0001 34.8023 18.894 33.2752 17.3668C31.7481 15.8397 29.6419 14.8973 27.3143 14.8973C25.4806 14.8973 23.7775 15.482 22.3923 16.4812C21.0071 15.482 19.3097 14.8973 17.4703 14.8973ZM32.1852 18.4512C33.4342 19.7001 34.2062 21.4259 34.2062 23.3277C34.2062 25.2295 33.4342 26.9553 32.1852 28.2043C30.9363 29.4532 29.2105 30.2254 27.3086 30.2254C25.4068 30.2254 23.681 29.4532 22.4321 28.2043C21.1831 26.9553 20.411 25.2295 20.411 23.3277C20.411 21.4259 21.1831 19.7001 22.4321 18.4512C23.681 17.2022 25.4068 16.4301 27.3086 16.4301C29.2105 16.4301 30.9363 17.2022 32.1852 18.4512ZM24.0898 18.1105C25.2252 19.5468 25.9007 21.3578 25.9007 23.3277C25.9007 25.2977 25.2252 27.1143 24.0898 28.5449C23.6867 28.2951 23.312 27.9943 22.9771 27.6593C22.4094 27.0916 21.9552 26.416 21.643 25.6724C21.3421 24.9514 21.1831 24.1623 21.1831 23.3277C21.1831 22.4932 21.3477 21.6984 21.643 20.9831C21.9495 20.2394 22.4094 19.5639 22.9771 18.9961C23.312 18.6612 23.6867 18.3603 24.0898 18.1105Z" fill="#4E92E4"/>
</svg>
