<svg width="49" height="50" viewBox="0 0 49 50" fill="none" xmlns="http://www.w3.org/2000/svg">
<path d="M32.667 15.0857C33.5419 15.0857 34.2566 15.7943 34.2566 16.6753V33.3232C34.2566 34.1981 33.548 34.9128 32.667 34.9128H16.0191C15.1442 34.9128 14.4295 34.2043 14.4295 33.3232V16.6753C14.4295 15.8004 15.138 15.0857 16.0191 15.0857H32.667ZM32.667 14.0938H16.0191C14.5958 14.0938 13.4375 15.2521 13.4375 16.6753V33.3232C13.4375 34.7465 14.5958 35.9048 16.0191 35.9048H32.667C34.0902 35.9048 35.2486 34.7465 35.2486 33.3232V16.6753C35.2486 15.2521 34.0902 14.0938 32.667 14.0938Z" fill="#4E92E4"/>
<path d="M29.9639 19.38V30.6121H18.7318V19.38H29.9639ZM30.6232 18.7207H18.0664V31.2775H30.6232V18.7207Z" fill="#4E92E4"/>
<path d="M17.1958 10.7855V13.1637C17.1958 13.2561 17.1218 13.3301 17.0294 13.3301H16.0375C15.945 13.3301 15.8711 13.2561 15.8711 13.1637V10.7855C15.8711 10.6684 15.9142 10.5636 15.9943 10.4835L16.0621 10.4158C16.1484 10.3295 16.1977 10.2125 16.1977 10.0892V7.85884C16.1977 7.77874 16.2654 7.71094 16.3455 7.71094H16.7091C16.7892 7.71094 16.8569 7.77874 16.8569 7.85884V10.0892C16.8569 10.2125 16.9062 10.3295 16.9925 10.4158L17.0602 10.4835C17.1403 10.5636 17.1835 10.6746 17.1835 10.7855H17.1958Z" fill="#4E92E4"/>
<path d="M20.3208 10.7855V13.1637C20.3208 13.2561 20.2468 13.3301 20.1544 13.3301H19.1625C19.07 13.3301 18.9961 13.2561 18.9961 13.1637V10.7855C18.9961 10.6684 19.0392 10.5636 19.1193 10.4835L19.1871 10.4158C19.2734 10.3295 19.3227 10.2125 19.3227 10.0892V7.85884C19.3227 7.77874 19.3904 7.71094 19.4705 7.71094H19.834C19.9141 7.71094 19.9819 7.77874 19.9819 7.85884V10.0892C19.9819 10.2125 20.0312 10.3295 20.1175 10.4158L20.1852 10.4835C20.2653 10.5636 20.3085 10.6746 20.3085 10.7855H20.3208Z" fill="#4E92E4"/>
<path d="M23.4419 10.7855V13.1637C23.4419 13.2561 23.3679 13.3301 23.2755 13.3301H22.2836C22.1911 13.3301 22.1172 13.2561 22.1172 13.1637V10.7855C22.1172 10.6684 22.1603 10.5636 22.2404 10.4835L22.3082 10.4158C22.3944 10.3295 22.4438 10.2125 22.4438 10.0892V7.85884C22.4438 7.77874 22.5115 7.71094 22.5916 7.71094H22.9551C23.0352 7.71094 23.103 7.77874 23.103 7.85884V10.0892C23.103 10.2125 23.1523 10.3295 23.2386 10.4158L23.3063 10.4835C23.3864 10.5636 23.4296 10.6746 23.4296 10.7855H23.4419Z" fill="#4E92E4"/>
<path d="M26.5669 10.7855V13.1637C26.5669 13.2561 26.4929 13.3301 26.4005 13.3301H25.4086C25.3161 13.3301 25.2422 13.2561 25.2422 13.1637V10.7855C25.2422 10.6684 25.2853 10.5636 25.3654 10.4835L25.4332 10.4158C25.5194 10.3295 25.5688 10.2125 25.5688 10.0892V7.85884C25.5688 7.77874 25.6365 7.71094 25.7166 7.71094H26.0801C26.1602 7.71094 26.228 7.77874 26.228 7.85884V10.0892C26.228 10.2125 26.2773 10.3295 26.3636 10.4158L26.4313 10.4835C26.5114 10.5636 26.5546 10.6746 26.5546 10.7855H26.5669Z" fill="#4E92E4"/>
<path d="M29.6918 10.7855V13.1637C29.6918 13.2561 29.6179 13.3301 29.5255 13.3301H28.5336C28.4411 13.3301 28.3672 13.2561 28.3672 13.1637V10.7855C28.3672 10.6684 28.4103 10.5636 28.4904 10.4835L28.5582 10.4158C28.6444 10.3295 28.6937 10.2125 28.6937 10.0892V7.85884C28.6937 7.77874 28.7615 7.71094 28.8416 7.71094H29.2051C29.2852 7.71094 29.353 7.77874 29.353 7.85884V10.0892C29.353 10.2125 29.4023 10.3295 29.4886 10.4158L29.5563 10.4835C29.6364 10.5636 29.6796 10.6746 29.6796 10.7855H29.6918Z" fill="#4E92E4"/>
<path d="M32.8129 10.7855V13.1637C32.8129 13.2561 32.739 13.3301 32.6466 13.3301H31.6546C31.5622 13.3301 31.4883 13.2561 31.4883 13.1637V10.7855C31.4883 10.6684 31.5314 10.5636 31.6115 10.4835L31.6793 10.4158C31.7655 10.3295 31.8148 10.2125 31.8148 10.0892V7.85884C31.8148 7.77874 31.8826 7.71094 31.9627 7.71094H32.3262C32.4063 7.71094 32.4741 7.77874 32.4741 7.85884V10.0892C32.4741 10.2125 32.5234 10.3295 32.6096 10.4158L32.6774 10.4835C32.7575 10.5636 32.8006 10.6746 32.8006 10.7855H32.8129Z" fill="#4E92E4"/>
<path d="M17.068 39.5223L17.0003 39.5901C16.914 39.6764 16.8647 39.7934 16.8647 39.9166V42.147C16.8647 42.2271 16.7969 42.2949 16.7168 42.2949H16.3533C16.2732 42.2949 16.2055 42.2271 16.2055 42.147V39.9166C16.2055 39.7934 16.1562 39.6764 16.0699 39.5901L16.0021 39.5223C15.922 39.4422 15.8789 39.3313 15.8789 39.2204V36.8421C15.8789 36.7497 15.9529 36.6758 16.0453 36.6758H17.0372C17.1297 36.6758 17.2036 36.7497 17.2036 36.8421V39.2204C17.2036 39.3375 17.1605 39.4422 17.0804 39.5223H17.068Z" fill="#4E92E4"/>
<path d="M20.193 39.5223L20.1253 39.5901C20.039 39.6764 19.9897 39.7934 19.9897 39.9166V42.147C19.9897 42.2271 19.9219 42.2949 19.8418 42.2949H19.4783C19.3982 42.2949 19.3305 42.2271 19.3305 42.147V39.9166C19.3305 39.7934 19.2812 39.6764 19.1949 39.5901L19.1271 39.5223C19.047 39.4422 19.0039 39.3313 19.0039 39.2204V36.8421C19.0039 36.7497 19.0779 36.6758 19.1703 36.6758H20.1622C20.2547 36.6758 20.3286 36.7497 20.3286 36.8421V39.2204C20.3286 39.3375 20.2855 39.4422 20.2054 39.5223H20.193Z" fill="#4E92E4"/>
<path d="M23.3141 39.5223L23.2464 39.5901C23.1601 39.6764 23.1108 39.7934 23.1108 39.9166V42.147C23.1108 42.2271 23.043 42.2949 22.9629 42.2949H22.5994C22.5193 42.2949 22.4515 42.2271 22.4515 42.147V39.9166C22.4515 39.7934 22.4023 39.6764 22.316 39.5901L22.2482 39.5223C22.1681 39.4422 22.125 39.3313 22.125 39.2204V36.8421C22.125 36.7497 22.1989 36.6758 22.2914 36.6758H23.2833C23.3758 36.6758 23.4497 36.7497 23.4497 36.8421V39.2204C23.4497 39.3375 23.4066 39.4422 23.3265 39.5223H23.3141Z" fill="#4E92E4"/>
<path d="M26.4391 39.5223L26.3714 39.5901C26.2851 39.6764 26.2358 39.7934 26.2358 39.9166V42.147C26.2358 42.2271 26.168 42.2949 26.0879 42.2949H25.7244C25.6443 42.2949 25.5765 42.2271 25.5765 42.147V39.9166C25.5765 39.7934 25.5273 39.6764 25.441 39.5901L25.3732 39.5223C25.2931 39.4422 25.25 39.3313 25.25 39.2204V36.8421C25.25 36.7497 25.3239 36.6758 25.4164 36.6758H26.4083C26.5008 36.6758 26.5747 36.7497 26.5747 36.8421V39.2204C26.5747 39.3375 26.5316 39.4422 26.4515 39.5223H26.4391Z" fill="#4E92E4"/>
<path d="M29.5641 39.5223L29.4964 39.5901C29.4101 39.6764 29.3608 39.7934 29.3608 39.9166V42.147C29.3608 42.2271 29.293 42.2949 29.2129 42.2949H28.8494C28.7693 42.2949 28.7015 42.2271 28.7015 42.147V39.9166C28.7015 39.7934 28.6523 39.6764 28.566 39.5901L28.4982 39.5223C28.4181 39.4422 28.375 39.3313 28.375 39.2204V36.8421C28.375 36.7497 28.4489 36.6758 28.5413 36.6758H29.5333C29.6258 36.6758 29.6997 36.7497 29.6997 36.8421V39.2204C29.6997 39.3375 29.6566 39.4422 29.5765 39.5223H29.5641Z" fill="#4E92E4"/>
<path d="M32.6931 39.5223L32.6253 39.5901C32.539 39.6764 32.4897 39.7934 32.4897 39.9166V42.147C32.4897 42.2271 32.422 42.2949 32.3419 42.2949H31.9783C31.8982 42.2949 31.8305 42.2271 31.8305 42.147V39.9166C31.8305 39.7934 31.7812 39.6764 31.6949 39.5901L31.6271 39.5223C31.547 39.4422 31.5039 39.3313 31.5039 39.2204V36.8421C31.5039 36.7497 31.5779 36.6758 31.6703 36.6758H32.6622C32.7547 36.6758 32.8286 36.7497 32.8286 36.8421V39.2204C32.8286 39.3375 32.7855 39.4422 32.7054 39.5223H32.6931Z" fill="#4E92E4"/>
<path d="M10.1292 32.1465H12.5075C12.5999 32.1465 12.6738 32.2204 12.6738 32.3129V33.3048C12.6738 33.3972 12.5999 33.4711 12.5075 33.4711H10.1292C10.0121 33.4711 9.90738 33.428 9.82728 33.3479L9.75952 33.2801C9.67326 33.1939 9.55621 33.1446 9.43299 33.1446H7.20255C7.12246 33.1446 7.05469 33.0768 7.05469 32.9967V32.6332C7.05469 32.5531 7.12246 32.4853 7.20255 32.4853H9.43299C9.55621 32.4853 9.67326 32.4361 9.75952 32.3498L9.82728 32.282C9.90738 32.2019 10.0183 32.1588 10.1292 32.1588V32.1465Z" fill="#4E92E4"/>
<path d="M10.1292 29.0234H12.5075C12.5999 29.0234 12.6738 29.0974 12.6738 29.1898V30.1818C12.6738 30.2742 12.5999 30.3481 12.5075 30.3481H10.1292C10.0121 30.3481 9.90738 30.305 9.82728 30.2249L9.75952 30.1571C9.67326 30.0709 9.55621 30.0216 9.43299 30.0216H7.20255C7.12246 30.0216 7.05469 29.9538 7.05469 29.8737V29.5102C7.05469 29.4301 7.12246 29.3623 7.20255 29.3623H9.43299C9.55621 29.3623 9.67326 29.313 9.75952 29.2268L9.82728 29.159C9.90738 29.0789 10.0183 29.0358 10.1292 29.0358V29.0234Z" fill="#4E92E4"/>
<path d="M10.1292 25.8984H12.5075C12.5999 25.8984 12.6738 25.9724 12.6738 26.0648V27.0568C12.6738 27.1492 12.5999 27.2231 12.5075 27.2231H10.1292C10.0121 27.2231 9.90738 27.18 9.82728 27.0999L9.75952 27.0321C9.67326 26.9459 9.55621 26.8966 9.43299 26.8966H7.20255C7.12246 26.8966 7.05469 26.8288 7.05469 26.7487V26.3852C7.05469 26.3051 7.12246 26.2373 7.20255 26.2373H9.43299C9.55621 26.2373 9.67326 26.188 9.75952 26.1018L9.82728 26.034C9.90738 25.9539 10.0183 25.9108 10.1292 25.9108V25.8984Z" fill="#4E92E4"/>
<path d="M10.1292 22.7754H12.5075C12.5999 22.7754 12.6738 22.8493 12.6738 22.9418V23.9337C12.6738 24.0261 12.5999 24.1001 12.5075 24.1001H10.1292C10.0121 24.1001 9.90738 24.057 9.82728 23.9769L9.75952 23.9091C9.67326 23.8228 9.55621 23.7735 9.43299 23.7735H7.20255C7.12246 23.7735 7.05469 23.7058 7.05469 23.6257V23.2622C7.05469 23.1821 7.12246 23.1143 7.20255 23.1143H9.43299C9.55621 23.1143 9.67326 23.065 9.75952 22.9787L9.82728 22.911C9.90738 22.8309 10.0183 22.7877 10.1292 22.7877V22.7754Z" fill="#4E92E4"/>
<path d="M10.1292 19.6504H12.5075C12.5999 19.6504 12.6738 19.7243 12.6738 19.8168V20.8087C12.6738 20.9011 12.5999 20.9751 12.5075 20.9751H10.1292C10.0121 20.9751 9.90738 20.932 9.82728 20.8519L9.75952 20.7841C9.67326 20.6978 9.55621 20.6485 9.43299 20.6485H7.20255C7.12246 20.6485 7.05469 20.5808 7.05469 20.5007V20.1372C7.05469 20.0571 7.12246 19.9893 7.20255 19.9893H9.43299C9.55621 19.9893 9.67326 19.94 9.75952 19.8537L9.82728 19.786C9.90738 19.7059 10.0183 19.6627 10.1292 19.6627V19.6504Z" fill="#4E92E4"/>
<path d="M10.1292 16.5273H12.5075C12.5999 16.5273 12.6738 16.6013 12.6738 16.6937V17.6857C12.6738 17.7781 12.5999 17.852 12.5075 17.852H10.1292C10.0121 17.852 9.90738 17.8089 9.82728 17.7288L9.75952 17.661C9.67326 17.5748 9.55621 17.5255 9.43299 17.5255H7.20255C7.12246 17.5255 7.05469 17.4577 7.05469 17.3776V17.0141C7.05469 16.934 7.12246 16.8662 7.20255 16.8662H9.43299C9.55621 16.8662 9.67326 16.8169 9.75952 16.7307L9.82728 16.6629C9.90738 16.5828 10.0183 16.5397 10.1292 16.5397V16.5273Z" fill="#4E92E4"/>
<path d="M38.8661 32.2762L38.9338 32.344C39.0201 32.4302 39.1372 32.4795 39.2604 32.4795H41.4908C41.5709 32.4795 41.6387 32.5473 41.6387 32.6274V32.9909C41.6387 33.071 41.5709 33.1388 41.4908 33.1388H39.2604C39.1372 33.1388 39.0201 33.1881 38.9338 33.2743L38.8661 33.3421C38.786 33.4222 38.6751 33.4653 38.5642 33.4653H36.1859C36.0935 33.4653 36.0195 33.3914 36.0195 33.299V32.307C36.0195 32.2146 36.0935 32.1406 36.1859 32.1406H38.5642C38.6812 32.1406 38.786 32.1838 38.8661 32.2639V32.2762Z" fill="#4E92E4"/>
<path d="M38.8661 29.1531L38.9338 29.2209C39.0201 29.3072 39.1372 29.3564 39.2604 29.3564H41.4908C41.5709 29.3564 41.6387 29.4242 41.6387 29.5043V29.8678C41.6387 29.9479 41.5709 30.0157 41.4908 30.0157H39.2604C39.1372 30.0157 39.0201 30.065 38.9338 30.1513L38.8661 30.219C38.786 30.2991 38.6751 30.3423 38.5642 30.3423H36.1859C36.0935 30.3423 36.0195 30.2683 36.0195 30.1759V29.1839C36.0195 29.0915 36.0935 29.0176 36.1859 29.0176H38.5642C38.6812 29.0176 38.786 29.0607 38.8661 29.1408V29.1531Z" fill="#4E92E4"/>
<path d="M38.8661 26.0281L38.9338 26.0959C39.0201 26.1822 39.1372 26.2314 39.2604 26.2314H41.4908C41.5709 26.2314 41.6387 26.2992 41.6387 26.3793V26.7428C41.6387 26.8229 41.5709 26.8907 41.4908 26.8907H39.2604C39.1372 26.8907 39.0201 26.94 38.9338 27.0263L38.8661 27.094C38.786 27.1741 38.6751 27.2173 38.5642 27.2173H36.1859C36.0935 27.2173 36.0195 27.1433 36.0195 27.0509V26.0589C36.0195 25.9665 36.0935 25.8926 36.1859 25.8926H38.5642C38.6812 25.8926 38.786 25.9357 38.8661 26.0158V26.0281Z" fill="#4E92E4"/>
<path d="M38.8661 22.9051L38.9338 22.9729C39.0201 23.0591 39.1372 23.1084 39.2604 23.1084H41.4908C41.5709 23.1084 41.6387 23.1762 41.6387 23.2563V23.6198C41.6387 23.6999 41.5709 23.7677 41.4908 23.7677H39.2604C39.1372 23.7677 39.0201 23.817 38.9338 23.9032L38.8661 23.971C38.786 24.0511 38.6751 24.0942 38.5642 24.0942H36.1859C36.0935 24.0942 36.0195 24.0203 36.0195 23.9279V22.9359C36.0195 22.8435 36.0935 22.7695 36.1859 22.7695H38.5642C38.6812 22.7695 38.786 22.8127 38.8661 22.8928V22.9051Z" fill="#4E92E4"/>
<path d="M38.8661 19.7801L38.9338 19.8479C39.0201 19.9341 39.1372 19.9834 39.2604 19.9834H41.4908C41.5709 19.9834 41.6387 20.0512 41.6387 20.1313V20.4948C41.6387 20.5749 41.5709 20.6427 41.4908 20.6427H39.2604C39.1372 20.6427 39.0201 20.692 38.9338 20.7782L38.8661 20.846C38.786 20.9261 38.6751 20.9692 38.5642 20.9692H36.1859C36.0935 20.9692 36.0195 20.8953 36.0195 20.8029V19.8109C36.0195 19.7185 36.0935 19.6445 36.1859 19.6445H38.5642C38.6812 19.6445 38.786 19.6877 38.8661 19.7678V19.7801Z" fill="#4E92E4"/>
<path d="M38.8661 16.657L38.9338 16.7248C39.0201 16.811 39.1372 16.8603 39.2604 16.8603H41.4908C41.5709 16.8603 41.6387 16.9281 41.6387 17.0082V17.3717C41.6387 17.4518 41.5709 17.5196 41.4908 17.5196H39.2604C39.1372 17.5196 39.0201 17.5689 38.9338 17.6551L38.8661 17.7229C38.786 17.803 38.6751 17.8461 38.5642 17.8461H36.1859C36.0935 17.8461 36.0195 17.7722 36.0195 17.6798V16.6878C36.0195 16.5954 36.0935 16.5215 36.1859 16.5215H38.5642C38.6812 16.5215 38.786 16.5646 38.8661 16.6447V16.657Z" fill="#4E92E4"/>
<path d="M24.3433 49.343C10.9178 49.343 0 38.4251 0 24.9996C0 11.5741 10.9178 0.65625 24.3433 0.65625C37.7689 0.65625 48.6867 11.5741 48.6867 24.9996C48.6867 38.4251 37.7689 49.343 24.3433 49.343ZM24.3433 1.42642C11.343 1.42642 0.770165 11.9992 0.770165 24.9996C0.770165 38 11.343 48.5728 24.3433 48.5728C37.3437 48.5728 47.9166 38 47.9166 24.9996C47.9166 11.9992 37.3437 1.42642 24.3433 1.42642Z" fill="#4E92E4"/>
</svg>
