<svg width="45" height="45" viewBox="0 0 45 45" fill="none" xmlns="http://www.w3.org/2000/svg">
<path d="M22.43 44.86C10.0597 44.86 0 34.8003 0 22.43C0 10.0597 10.0597 0 22.43 0C34.8003 0 44.86 10.0597 44.86 22.43C44.86 34.8003 34.8003 44.86 22.43 44.86ZM22.43 0.709631C10.4514 0.709631 0.709631 10.4514 0.709631 22.43C0.709631 34.4086 10.4514 44.1504 22.43 44.1504C34.4086 44.1504 44.1504 34.4086 44.1504 22.43C44.1504 10.4514 34.4086 0.709631 22.43 0.709631Z" fill="#4E92E4"/>
<path d="M13.1899 32.162H7.97265V27.5352H7.12109V33.0135H13.1899V32.162Z" fill="#4E92E4"/>
<path d="M36.8948 27.5352V32.162H31.7344V33.0135H37.7464V27.5352H36.8948Z" fill="#4E92E4"/>
<path d="M19.9566 25.8418C19.9566 22.5888 22.5908 19.9547 25.8437 19.9547C28.5744 19.9547 30.8679 21.8167 31.5321 24.343C31.6627 23.7242 31.7308 23.0827 31.7308 22.4299C31.7308 17.2921 27.5639 13.1309 22.4318 13.1309C17.2998 13.1309 13.1328 17.2978 13.1328 22.4299C13.1328 27.5619 17.2998 31.7289 22.4318 31.7289C23.0904 31.7289 23.7319 31.6608 24.3507 31.5302C21.8244 30.866 19.9623 28.5781 19.9623 25.8418H19.9566Z" fill="#4E92E4"/>
<path d="M13.1899 12.4258H7.12109V17.9041H7.97265V13.2773H13.1899V12.4258Z" fill="#4E92E4"/>
<path d="M31.7344 12.4258V13.2773H36.8948V17.9041H37.7464V12.4258H31.7344Z" fill="#4E92E4"/>
</svg>
