<svg width="82" height="82" viewBox="0 0 82 82" fill="none" xmlns="http://www.w3.org/2000/svg">
<path d="M65.5994 76.7778L65.5994 76.5555C65.5994 75.3227 65.9647 74.4623 66.5202 73.9102C67.0773 73.3565 67.8836 73.0556 68.8758 73.0556L69.2733 73.0556C71.9855 73.0556 73.9472 70.7778 73.9472 67.8889L73.9472 67.4444C73.9472 66.296 74.2281 65.3629 74.733 64.7278C75.2254 64.1085 75.9696 63.7222 77.0248 63.7222L77.2236 63.7222C78.5296 63.7222 79.6204 63.2925 80.3789 62.4444C81.1304 61.6042 81.5 60.4156 81.5 59L81.5 23C81.5 21.5844 81.1304 20.3958 80.3789 19.5556C79.6204 18.7075 78.5296 18.2778 77.2236 18.2778L77.0248 18.2778C75.9696 18.2778 75.2254 17.8915 74.733 17.2722C74.2281 16.6371 73.9472 15.704 73.9472 14.5556L73.9472 14.1111C73.9472 11.2222 71.9855 8.94444 69.2733 8.94444L68.8758 8.94444C67.8836 8.94444 67.0773 8.64352 66.5202 8.0898C65.9647 7.53773 65.5994 6.67726 65.5994 5.44444L65.5994 5.22222C65.5994 3.80662 65.2298 2.61806 64.4783 1.77778C63.7198 0.929765 62.629 0.499999 61.323 0.499999L20.677 0.499997C19.371 0.499997 18.2802 0.929763 17.5217 1.77778C16.7702 2.61806 16.4006 3.80662 16.4006 5.22222L16.4006 5.44444C16.4006 6.67726 16.0353 7.53773 15.4798 8.0898C14.9227 8.64351 14.1164 8.94444 13.1242 8.94444L12.7267 8.94444C10.0145 8.94444 8.05279 11.2222 8.05279 14.1111L8.05279 14.5556C8.05279 15.704 7.77192 16.6371 7.26701 17.2722C6.7746 17.8915 6.03037 18.2778 4.97515 18.2778L4.7764 18.2778C3.4704 18.2778 2.37958 18.7075 1.62111 19.5556C0.869552 20.3958 0.499999 21.5844 0.499999 23L0.499997 59C0.499997 60.4156 0.86955 61.6042 1.62111 62.4444C2.37957 63.2925 3.4704 63.7222 4.77639 63.7222L4.97515 63.7222C6.03037 63.7222 6.77459 64.1085 7.267 64.7278C7.77192 65.3629 8.05279 66.296 8.05279 67.4444L8.05279 67.8889C8.05279 70.7778 10.0145 73.0556 12.7267 73.0556L13.1242 73.0556C14.1164 73.0556 14.9227 73.3565 15.4798 73.9102C16.0353 74.4623 16.4006 75.3227 16.4006 76.5555L16.4006 76.7778C16.4006 78.1934 16.7702 79.3819 17.5217 80.2222C18.2802 81.0702 19.371 81.5 20.677 81.5L61.323 81.5C62.629 81.5 63.7198 81.0702 64.4783 80.2222C65.2298 79.3819 65.5994 78.1934 65.5994 76.7778Z" fill="url(#paint0_radial_11914_120172)" stroke="url(#paint1_radial_11914_120172)"/>
<path d="M36.2 57H45.8C53.8 57 57 53.8 57 45.8V36.2C57 28.2 53.8 25 45.8 25H36.2C28.2 25 25 28.2 25 36.2V45.8C25 53.8 28.2 57 36.2 57Z" stroke="#FF0037" stroke-width="3" stroke-linecap="round" stroke-linejoin="round"/>
<path d="M38 51H44C49 51 51 49 51 44V38C51 33 49 31 44 31H38C33 31 31 33 31 38V44C31 49 33 51 38 51Z" stroke="#FF0037" stroke-width="3" stroke-linecap="round" stroke-linejoin="round"/>
<path d="M33.0195 25V21" stroke="#FF0037" stroke-width="3" stroke-linecap="round" stroke-linejoin="round"/>
<path d="M41 25V21" stroke="#FF0037" stroke-width="3" stroke-linecap="round" stroke-linejoin="round"/>
<path d="M49 25V21" stroke="#FF0037" stroke-width="3" stroke-linecap="round" stroke-linejoin="round"/>
<path d="M57 33H61" stroke="#FF0037" stroke-width="3" stroke-linecap="round" stroke-linejoin="round"/>
<path d="M57 41H61" stroke="#FF0037" stroke-width="3" stroke-linecap="round" stroke-linejoin="round"/>
<path d="M57 49H61" stroke="#FF0037" stroke-width="3" stroke-linecap="round" stroke-linejoin="round"/>
<path d="M49 57V61" stroke="#FF0037" stroke-width="3" stroke-linecap="round" stroke-linejoin="round"/>
<path d="M41.0195 57V61" stroke="#FF0037" stroke-width="3" stroke-linecap="round" stroke-linejoin="round"/>
<path d="M33.0195 57V61" stroke="#FF0037" stroke-width="3" stroke-linecap="round" stroke-linejoin="round"/>
<path d="M21 33H25" stroke="#FF0037" stroke-width="3" stroke-linecap="round" stroke-linejoin="round"/>
<path d="M21 41H25" stroke="#FF0037" stroke-width="3" stroke-linecap="round" stroke-linejoin="round"/>
<path d="M21 49H25" stroke="#FF0037" stroke-width="3" stroke-linecap="round" stroke-linejoin="round"/>
<path d="M40.9975 36.3984L39.1175 39.6784C38.6975 40.3984 39.0375 40.9984 39.8775 40.9984H42.1175C42.9575 40.9984 43.2975 41.5984 42.8775 42.3184L40.9975 45.5984" stroke="#FF0037" stroke-width="3" stroke-linecap="round" stroke-linejoin="round"/>
<defs>
<radialGradient id="paint0_radial_11914_120172" cx="0" cy="0" r="1" gradientUnits="userSpaceOnUse" gradientTransform="translate(41 93.8506) rotate(-90) scale(66.5961 63.5748)">
<stop stop-color="#FF335F" stop-opacity="0.3"/>
<stop offset="1" stop-color="#FF335F" stop-opacity="0"/>
</radialGradient>
<radialGradient id="paint1_radial_11914_120172" cx="0" cy="0" r="1" gradientUnits="userSpaceOnUse" gradientTransform="translate(41 1) rotate(90) scale(80 277.655)">
<stop stop-color="#FF335F" stop-opacity="0"/>
<stop offset="1" stop-color="#FF335F"/>
</radialGradient>
</defs>
</svg>
