<svg width="49" height="49" viewBox="0 0 49 49" fill="none" xmlns="http://www.w3.org/2000/svg">
<path d="M24.345 48.69C10.9214 48.69 0 37.7686 0 24.345C0 10.9214 10.9214 0 24.345 0C37.7686 0 48.69 10.9214 48.69 24.345C48.69 37.7686 37.7686 48.69 24.345 48.69ZM24.345 0.770411C11.3466 0.770411 0.770411 11.3466 0.770411 24.345C0.770411 37.3434 11.3466 47.9196 24.345 47.9196C37.3434 47.9196 47.9196 37.3434 47.9196 24.345C47.9196 11.3466 37.3434 0.770411 24.345 0.770411Z" fill="#324582"/>
<path d="M14.3438 24.3457C14.3438 18.8257 18.7838 14.3457 24.3438 14.3457C31.0138 14.3457 34.3438 19.9057 34.3438 19.9057M34.3438 19.9057V14.9057M34.3438 19.9057H29.9037" stroke="#324582" stroke-width="1.5" stroke-linecap="round" stroke-linejoin="round"/>
<path d="M34.2337 24.3457C34.2337 29.8657 29.7538 34.3457 24.2338 34.3457C18.7138 34.3457 15.3438 28.7857 15.3438 28.7857M15.3438 28.7857H19.8638M15.3438 28.7857V33.7857" stroke="#324582" stroke-width="1.5" stroke-linecap="round" stroke-linejoin="round"/>
</svg>
