<svg width="49" height="49" viewBox="0 0 49 49" fill="none" xmlns="http://www.w3.org/2000/svg">
<path d="M24.345 48.69C10.9214 48.69 0 37.7686 0 24.345C0 10.9214 10.9214 0 24.345 0C37.7686 0 48.69 10.9214 48.69 24.345C48.69 37.7686 37.7686 48.69 24.345 48.69ZM24.345 0.770411C11.3466 0.770411 0.770411 11.3466 0.770411 24.345C0.770411 37.3434 11.3466 47.9196 24.345 47.9196C37.3434 47.9196 47.9196 37.3434 47.9196 24.345C47.9196 11.3466 37.3434 0.770411 24.345 0.770411Z" fill="#324582"/>
<path d="M11.5213 20.1679C11.5494 17.7012 12.5562 15.3467 14.3203 13.6223C16.0844 11.898 18.4612 10.945 20.9279 10.9731C23.3946 11.0012 25.7491 12.008 27.4734 13.7721C29.1978 15.5362 30.1507 17.913 30.1227 20.3797C30.1206 20.5559 30.0487 20.7241 29.9227 20.8473C29.7967 20.9704 29.6269 21.0385 29.4508 21.0365C29.2746 21.0345 29.1064 20.9626 28.9832 20.8366C28.86 20.7106 28.792 20.5408 28.794 20.3646C28.8181 18.2503 28.0013 16.213 26.5232 14.7009C25.0452 13.1889 23.0271 12.3259 20.9128 12.3018C18.7985 12.2777 16.7612 13.0945 15.2491 14.5725C13.737 16.0505 12.874 18.0687 12.85 20.183C12.8479 20.3592 12.776 20.5274 12.65 20.6505C12.524 20.7737 12.3542 20.8418 12.178 20.8398C12.0019 20.8378 11.8337 20.7658 11.7105 20.6398C11.5873 20.5138 11.5193 20.3441 11.5213 20.1679ZM34.0179 28.3971C33.0313 28.3847 32.0756 28.7404 31.3372 29.3948C31.289 28.6527 31.0341 27.9389 30.6015 27.334C30.1688 26.7292 29.5756 26.2574 28.8888 25.9721C28.2021 25.6868 27.4492 25.5992 26.7153 25.7194C25.9814 25.8395 25.2958 26.1625 24.7359 26.652L24.808 20.3192C24.82 19.262 24.4116 18.2434 23.6726 17.4874C22.9336 16.7313 21.9245 16.2998 20.8674 16.2878C19.8102 16.2757 18.7916 16.6842 18.0355 17.4232C17.2795 18.1622 16.848 19.1712 16.836 20.2284L16.6582 35.8403L14.8222 32.8195C14.2897 31.9245 13.4281 31.2734 12.4218 31.0055C11.4154 30.7376 10.3441 30.8742 9.43715 31.3861C8.53019 31.8979 7.85956 32.7444 7.56872 33.7444C7.27788 34.7444 7.38993 35.8185 7.88091 36.7369L12.6559 45.0966C12.7492 45.2353 12.8915 45.3338 13.0542 45.3723C13.2169 45.4108 13.3882 45.3865 13.5338 45.3043C13.6794 45.2221 13.7887 45.088 13.8398 44.9288C13.8909 44.7695 13.88 44.5969 13.8094 44.4453L9.03611 36.0857C8.69068 35.4711 8.60351 34.7446 8.79379 34.0658C8.98406 33.387 9.43619 32.8116 10.0507 32.4662C10.6652 32.1207 11.3918 32.0336 12.0706 32.2238C12.7494 32.4141 13.3248 32.8662 13.6702 33.4808L13.6816 33.5008L16.7273 38.5187C16.8021 38.6425 16.9153 38.7385 17.0496 38.7922C17.184 38.8458 17.3322 38.8541 17.4717 38.8159C17.6112 38.7776 17.7344 38.6949 17.8226 38.5802C17.9108 38.4655 17.9592 38.3252 17.9603 38.1806L18.1646 20.2435C18.1727 19.5388 18.4603 18.866 18.9643 18.3734C19.4684 17.8807 20.1475 17.6084 20.8522 17.6165C21.557 17.6245 22.2297 17.9121 22.7224 18.4162C23.2151 18.9202 23.4873 19.5993 23.4793 20.3041L23.3507 31.5978C23.3487 31.7739 23.4167 31.9437 23.5399 32.0697C23.6631 32.1957 23.8313 32.2676 24.0075 32.2697C24.1836 32.2717 24.3534 32.2036 24.4794 32.0804C24.6054 31.9573 24.6773 31.7891 24.6794 31.6129L24.7021 29.6199C24.7101 28.9151 24.9977 28.2424 25.5018 27.7497C26.0058 27.257 26.6849 26.9848 27.3897 26.9928C28.0944 27.0008 28.7671 27.2885 29.2598 27.7925C29.7525 28.2965 30.0248 28.9756 30.0167 29.6804L29.9789 33.0021C29.9769 33.1783 30.045 33.348 30.1681 33.4741C30.2913 33.6001 30.4595 33.672 30.6357 33.674C30.8119 33.676 30.9816 33.6079 31.1076 33.4848C31.2336 33.3616 31.3056 33.1934 31.3076 33.0172L31.3151 32.3529C31.3232 31.6481 31.6108 30.9754 32.1149 30.4827C32.6189 29.99 33.298 29.7178 34.0027 29.7258C34.7075 29.7338 35.3802 30.0215 35.8729 30.5255C36.3656 31.0295 36.6378 31.7086 36.6298 32.4134L36.5617 38.3924C36.5189 42.1559 35.2424 44.6994 35.2305 44.7241C35.1905 44.8018 35.1662 44.8865 35.159 44.9735C35.1518 45.0606 35.1618 45.1481 35.1885 45.2313C35.2152 45.3144 35.258 45.3915 35.3145 45.4581C35.3709 45.5247 35.44 45.5795 35.5177 45.6194C35.6096 45.6662 35.711 45.6912 35.8142 45.6925C35.9376 45.694 36.059 45.6611 36.1647 45.5975C36.2705 45.5338 36.3564 45.442 36.4129 45.3323C36.4707 45.2183 37.8437 42.5032 37.8904 38.4076L37.9585 32.4285C37.9705 31.3714 37.5621 30.3527 36.8231 29.5967C36.0841 28.8407 35.075 28.4092 34.0179 28.3971Z" fill="#324582"/>
</svg>
