<svg width="45" height="46" viewBox="0 0 45 46" fill="none" xmlns="http://www.w3.org/2000/svg">
<path d="M22.4 45.7551C10.0463 45.7551 0 35.7088 0 23.3551C0 11.0013 10.0463 0.955078 22.4 0.955078C34.7538 0.955078 44.8 11.0013 44.8 23.3551C44.8 35.7088 34.7538 45.7551 22.4 45.7551ZM22.4 1.66376C10.4375 1.66376 0.708682 11.3925 0.708682 23.3551C0.708682 35.3176 10.4375 45.0464 22.4 45.0464C34.3626 45.0464 44.0914 35.3176 44.0914 23.3551C44.0914 11.3925 34.3626 1.66376 22.4 1.66376Z" fill="#4E92E4"/>
<path d="M21.9928 7.22521C21.8817 7.22577 21.7719 7.24828 21.6696 7.29147C21.5673 7.33466 21.4746 7.39766 21.3967 7.47685C21.3189 7.55604 21.2575 7.64984 21.2161 7.75287C21.1747 7.85589 21.154 7.96609 21.1554 8.07712V13.3417C21.1554 13.8243 21.5247 14.193 21.9928 14.193C22.4753 14.193 22.844 13.8237 22.844 13.3417V8.07651C22.844 7.60788 22.4753 7.22461 21.9928 7.22461M17.8066 7.60788C17.3386 7.70717 17.083 8.1189 17.2108 8.65777L17.6788 10.4463C17.8066 10.8859 18.2607 11.1275 18.7856 10.9713C19.2821 10.8151 19.4668 10.4179 19.339 9.96378L18.8425 8.24665C18.7008 7.73563 18.2752 7.5225 17.8072 7.60788M26.1941 7.65026C25.74 7.49465 25.2859 7.7211 25.1581 8.24665L24.6756 9.99224C24.5478 10.4463 24.7888 10.9144 25.2429 11.0276C25.7115 11.1414 26.1656 10.9005 26.2934 10.4318L26.7614 8.68623C26.8891 8.20366 26.6342 7.77741 26.1941 7.65026ZM14.0037 9.35407C13.8087 9.46773 13.6666 9.65374 13.6081 9.87166C13.5496 10.0896 13.5795 10.3218 13.6912 10.5178L16.3311 15.0873C16.3835 15.1857 16.4556 15.2724 16.5428 15.3419C16.6301 15.4114 16.7306 15.4624 16.8383 15.4916C16.9459 15.5208 17.0584 15.5277 17.1688 15.5118C17.2792 15.4959 17.3852 15.4575 17.4802 15.3991C17.8919 15.1721 18.0336 14.6611 17.7781 14.2499L15.1528 9.66649C14.9119 9.2687 14.4154 9.14094 14.0037 9.35407ZM30.0103 9.36799C29.5986 9.14094 29.0743 9.2687 28.8472 9.66589L26.2074 14.2493C26.1497 14.3447 26.1119 14.4508 26.0965 14.5611C26.081 14.6715 26.088 14.7839 26.1172 14.8914C26.1464 14.999 26.1972 15.0995 26.2664 15.1869C26.3356 15.2743 26.4218 15.3467 26.5198 15.3997C26.917 15.6407 27.428 15.513 27.669 15.0873L30.2949 10.5178C30.5365 10.1061 30.4081 9.60958 30.0103 9.36799ZM10.5695 11.8093C10.2292 12.1356 10.2716 12.6751 10.5834 13.0008L11.8464 14.2784C12.2012 14.6332 12.6838 14.6471 13.0531 14.2923C13.3649 13.966 13.3934 13.455 13.0386 13.0862L11.7756 11.8232C11.4062 11.4539 10.9243 11.4684 10.5695 11.8093ZM33.416 11.8232C33.0897 11.4829 32.5502 11.5108 32.2384 11.8232L30.947 13.1008C30.5922 13.4695 30.5922 13.9521 30.933 14.2923C31.2878 14.6471 31.7988 14.6471 32.1252 14.3069L33.3882 13.0293C33.7424 12.66 33.7569 12.1635 33.416 11.8232ZM8.14277 15.2151C8.03244 15.4099 8.00183 15.6398 8.05737 15.8567C8.11291 16.0735 8.25028 16.2604 8.44066 16.3782L13.0101 19.0181C13.4357 19.259 13.9467 19.1174 14.1738 18.7202C14.2325 18.624 14.271 18.5169 14.2871 18.4054C14.3031 18.2939 14.2964 18.1803 14.2672 18.0715C14.2381 17.9627 14.1871 17.8609 14.1175 17.7724C14.0478 17.6839 13.9609 17.6104 13.862 17.5564L9.29255 14.9166C8.88083 14.6895 8.38435 14.8173 8.14277 15.2151ZM35.8573 15.229C35.6296 14.8173 35.1192 14.6901 34.7075 14.9166L30.1381 17.5564C30.0392 17.6104 29.9522 17.6839 29.8826 17.7724C29.8129 17.8609 29.762 17.9627 29.7328 18.0715C29.7037 18.1803 29.6969 18.2939 29.713 18.4054C29.729 18.5169 29.7676 18.624 29.8262 18.7202C30.0533 19.1174 30.5498 19.259 30.9754 19.0181L35.5448 16.3782C35.9566 16.1372 36.0837 15.6407 35.8573 15.229ZM37.6022 19.0605C37.489 18.5924 37.0064 18.3224 36.5808 18.4501L34.8068 18.9327C34.3527 19.0604 34.0687 19.5006 34.2395 20.0256C34.3527 20.3949 34.7499 20.6922 35.247 20.5645L36.9786 20.0825C37.4605 19.9547 37.716 19.5006 37.6022 19.0605ZM6.3833 19.0465C6.284 19.5006 6.56796 19.9547 6.9936 20.0819L8.73916 20.5784C9.20718 20.6922 9.6752 20.4373 9.7745 19.9687C9.8744 19.5146 9.66128 19.032 9.19325 18.9188L7.4477 18.4786C6.93669 18.3514 6.46867 18.6063 6.3833 19.0465ZM38 23.2183C37.9995 23.1072 37.9769 22.9974 37.9337 22.8951C37.8906 22.7928 37.8276 22.7001 37.7484 22.6222C37.6692 22.5444 37.5754 22.483 37.4724 22.4416C37.3693 22.4001 37.2591 22.3795 37.1481 22.3809H31.8697C31.3871 22.3809 31.0323 22.7502 31.0323 23.2183C31.0323 23.7008 31.3871 24.0702 31.8697 24.0702H37.1481C37.6167 24.0702 38 23.7008 38 23.2183ZM6.00004 23.2183C6.00004 23.7008 6.36937 24.0702 6.83739 24.0702H12.1164C12.599 24.0702 12.9677 23.7008 12.9677 23.2183C12.9677 22.7502 12.5984 22.3809 12.1164 22.3809H6.83739C6.72714 22.3798 6.61778 22.4008 6.51571 22.4425C6.41364 22.4842 6.32092 22.5458 6.24295 22.6238C6.16498 22.7018 6.10335 22.7945 6.06164 22.8966C6.01993 22.9986 5.99899 23.108 6.00004 23.2183ZM37.6022 27.4475C37.73 26.9649 37.5035 26.5248 37.0064 26.3831L35.247 25.8866C34.7789 25.7588 34.3388 26.0283 34.2116 26.4824C34.0972 26.9504 34.3527 27.433 34.8068 27.5468L36.5384 28.0009C37.0349 28.1281 37.4751 27.8732 37.6022 27.4475ZM6.3833 27.4051C6.49652 27.8592 6.9936 28.1002 7.43317 28.0009L9.17872 27.5607C9.6752 27.4336 9.91678 26.9934 9.7751 26.5254C9.71658 26.3083 9.57536 26.1228 9.38172 26.0086C9.18808 25.8944 8.95742 25.8606 8.73916 25.9144L7.02206 26.3831C6.51105 26.5248 6.28339 26.9649 6.3833 27.4051ZM35.8573 31.2214C36.0843 30.8242 35.956 30.3132 35.5448 30.0722L30.9754 27.4324C30.8795 27.3753 30.7733 27.3377 30.6628 27.3218C30.5523 27.3059 30.4398 27.3119 30.3317 27.3396C30.2236 27.3673 30.122 27.416 30.0327 27.4831C29.9435 27.5501 29.8684 27.6341 29.8117 27.7303C29.7558 27.8279 29.7199 27.9357 29.7061 28.0474C29.6923 28.159 29.7009 28.2723 29.7313 28.3806C29.7617 28.489 29.8134 28.5901 29.8834 28.6783C29.9533 28.7664 30.0401 28.8397 30.1387 28.894L34.7075 31.5339C35.1192 31.7609 35.6157 31.6332 35.8573 31.2214ZM8.14277 31.2214C8.36982 31.6332 8.88083 31.7603 9.29255 31.5339L13.862 28.894C14.2876 28.653 14.4154 28.142 14.1738 27.7448C13.9467 27.3331 13.4357 27.1914 13.0101 27.4324L8.44066 30.0722C8.04348 30.3132 7.91572 30.8097 8.14277 31.2214ZM14.0037 37.0824C14.4008 37.3095 14.9119 37.1817 15.1528 36.77L17.7781 32.2005C17.8374 32.1059 17.8772 32.0003 17.895 31.8901C17.9128 31.7798 17.9083 31.6671 17.8819 31.5587C17.8554 31.4502 17.8075 31.3481 17.7409 31.2585C17.6743 31.1688 17.5904 31.0934 17.4942 31.0368C17.0824 30.8097 16.5581 30.9375 16.3311 31.3637L13.6912 35.9326C13.4642 36.3444 13.5919 36.8409 14.0037 37.0824ZM29.9964 37.0824C30.4081 36.8554 30.5352 36.3444 30.2943 35.9326L27.669 31.3631C27.6159 31.2653 27.5437 31.1791 27.4569 31.1096C27.37 31.0401 27.2701 30.9886 27.163 30.9582C27.056 30.9278 26.944 30.9191 26.8335 30.9326C26.723 30.9461 26.6164 30.9815 26.5198 31.0368C26.1081 31.2783 25.9664 31.7888 26.2074 32.2005L28.8472 36.77C29.0743 37.1817 29.5847 37.3089 29.9964 37.0824ZM33.4021 34.6557C33.7569 34.3009 33.7424 33.7614 33.4306 33.4496L32.1391 32.172C31.7843 31.8457 31.2733 31.8033 30.9185 32.172C30.5922 32.5268 30.6067 33.0094 30.933 33.3503L32.2106 34.6272C32.5648 34.982 33.0758 34.9966 33.4021 34.6557ZM10.5834 34.6418C10.9382 34.982 11.4353 34.982 11.7616 34.6696L13.0531 33.3927C13.3934 33.0233 13.4073 32.5414 13.067 32.2005C12.7267 31.8602 12.2012 31.8457 11.8609 32.1866L10.5979 33.4641C10.2431 33.8322 10.2286 34.3015 10.5834 34.6418ZM21.9928 39.2246C22.4753 39.2246 22.844 38.8413 22.844 38.3733V33.1081C22.8462 32.9957 22.8256 32.8841 22.7836 32.7798C22.7416 32.6756 22.6789 32.5809 22.5995 32.5014C22.52 32.4219 22.4253 32.3593 22.321 32.3172C22.2168 32.2752 22.1051 32.2547 21.9928 32.2568C21.5247 32.2568 21.1554 32.6261 21.1554 33.1081V38.3733C21.1554 38.8413 21.5247 39.2246 21.9928 39.2246ZM26.1935 38.8413C26.7323 38.7136 26.8885 38.2456 26.7747 37.8054L26.3206 36.0174C26.1935 35.5633 25.7109 35.3078 25.2568 35.4355C24.7458 35.5772 24.5472 36.0459 24.675 36.4709L25.1714 38.2026C25.3137 38.6712 25.6824 38.9412 26.1935 38.8413ZM17.7357 38.8274C18.2607 38.997 18.7287 38.6851 18.8425 38.2456L19.3251 36.5C19.4522 36.0459 19.1973 35.5772 18.7432 35.464C18.2752 35.3502 17.8211 35.5912 17.6934 36.0598L17.2393 37.8054C17.1115 38.2879 17.2671 38.6851 17.7357 38.8274Z" fill="#4E92E4"/>
</svg>
