<svg width="47" height="47" viewBox="0 0 47 47" fill="none" xmlns="http://www.w3.org/2000/svg">
<path d="M1 23.43C1 11.0597 11.0597 1 23.43 1C35.8003 1 45.86 11.0597 45.86 23.43C45.86 35.8003 35.8003 45.86 23.43 45.86C11.0597 45.86 1 35.8003 1 23.43ZM45.1504 23.43C45.1504 11.4514 35.4086 1.70963 23.43 1.70963C11.4514 1.70963 1.70963 11.4514 1.70963 23.43C1.70963 35.4086 11.4514 45.1504 23.43 45.1504C35.4086 45.1504 45.1504 35.4086 45.1504 23.43Z" fill="#4E92E4" stroke="#4E92E4" stroke-width="0.534048"/>
<path d="M14.1773 19.0247C15.8293 15.5674 19.3491 13.1717 23.4309 13.1717C27.5127 13.1717 31.0324 15.5731 32.6844 19.0247H33.4281C31.7307 15.187 27.8873 12.4961 23.4309 12.4961C18.9744 12.4961 15.131 15.187 13.4336 19.0247H14.1773Z" fill="#4E92E4" stroke="#4E92E4" stroke-width="0.747667"/>
<path d="M32.0335 29.0039C30.1998 31.8197 27.0321 33.6931 23.4328 33.6931C19.8336 33.6931 16.6601 31.8254 14.8321 29.0039H14.043C15.9505 32.2058 19.4418 34.363 23.4328 34.363C27.4238 34.363 30.9151 32.2058 32.8226 29.0039H32.0335Z" fill="#4E92E4" stroke="#4E92E4" stroke-width="0.747667"/>
<path d="M8.87943 16.7718C8.75454 16.7718 8.65234 16.6696 8.65234 16.5447V13.5415C8.65234 13.4166 8.75454 13.3145 8.87943 13.3145H11.8826C12.0075 13.3145 12.1097 13.4166 12.1097 13.5415C12.1097 13.6664 12.0075 13.7686 11.8826 13.7686H9.10084V16.5503C9.10084 16.6752 8.99864 16.7774 8.87375 16.7774L8.87943 16.7718Z" fill="#4E92E4" stroke="#4E92E4" stroke-width="0.747667"/>
<path d="M37.9763 16.7718C38.1012 16.7718 38.2034 16.6696 38.2034 16.5447V13.5415C38.2034 13.4166 38.1012 13.3145 37.9763 13.3145H34.9732C34.8483 13.3145 34.7461 13.4166 34.7461 13.5415C34.7461 13.6664 34.8483 13.7686 34.9732 13.7686H37.7549V16.5503C37.7549 16.6752 37.8571 16.7774 37.982 16.7774L37.9763 16.7718Z" fill="#4E92E4" stroke="#4E92E4" stroke-width="0.747667"/>
<path d="M8.87943 30.0955C8.75454 30.0955 8.65234 30.1977 8.65234 30.3226V33.3258C8.65234 33.4507 8.75454 33.5528 8.87943 33.5528H11.8826C12.0075 33.5528 12.1097 33.4507 12.1097 33.3258C12.1097 33.2009 12.0075 33.0987 11.8826 33.0987H9.10084V30.3169C9.10084 30.192 8.99864 30.0898 8.87375 30.0898L8.87943 30.0955Z" fill="#4E92E4" stroke="#4E92E4" stroke-width="0.747667"/>
<path d="M37.9763 30.0955C38.1012 30.0955 38.2034 30.1977 38.2034 30.3226V33.3258C38.2034 33.4507 38.1012 33.5528 37.9763 33.5528H34.9732C34.8483 33.5528 34.7461 33.4507 34.7461 33.3258C34.7461 33.2009 34.8483 33.0987 34.9732 33.0987H37.7549V30.3169C37.7549 30.192 37.8571 30.0898 37.982 30.0898L37.9763 30.0955Z" fill="#4E92E4" stroke="#4E92E4" stroke-width="0.747667"/>
</svg>
