<svg width="49" height="49" viewBox="0 0 49 49" fill="none" xmlns="http://www.w3.org/2000/svg">
<path d="M24.3434 48.6868C10.9179 48.6868 0 37.7689 0 24.3434C0 10.9179 10.9179 0 24.3434 0C37.7689 0 48.6868 10.9179 48.6868 24.3434C48.6868 37.7689 37.7689 48.6868 24.3434 48.6868ZM24.3434 0.770165C11.343 0.770165 0.770165 11.343 0.770165 24.3434C0.770165 37.3438 11.343 47.9166 24.3434 47.9166C37.3438 47.9166 47.9166 37.3438 47.9166 24.3434C47.9166 11.343 37.3438 0.770165 24.3434 0.770165Z" fill="#232323"/>
<path d="M39.415 15.1504H9.27998C8.39275 15.1504 7.67188 15.8713 7.67188 16.7585V31.9215C7.67188 32.8088 8.39275 33.5296 9.27998 33.5296H39.415C40.3022 33.5296 41.0231 32.8088 41.0231 31.9215V16.7585C41.0231 15.8713 40.3022 15.1504 39.415 15.1504ZM39.4088 32.1988C39.4088 32.4576 39.1994 32.6732 38.9344 32.6732H11.2763C11.0175 32.6732 10.8018 32.4637 10.8018 32.1988V16.4813C10.8018 16.2225 11.0113 16.0068 11.2763 16.0068H38.9344C39.1932 16.0068 39.4088 16.2163 39.4088 16.4813V32.1988Z" fill="#232323"/>
</svg>
