<svg width="83" height="83" viewBox="0 0 83 83" fill="none" xmlns="http://www.w3.org/2000/svg">
<path d="M66.2673 77.2778L66.2673 77.0555C66.2673 75.8227 66.6326 74.9623 67.1881 74.4102C67.7453 73.8565 68.5515 73.5556 69.5437 73.5556L69.9413 73.5556C72.6535 73.5556 74.6152 71.2778 74.6152 68.3889L74.6152 67.9444C74.6152 66.796 74.8961 65.8629 75.401 65.2278C75.8934 64.6085 76.6376 64.2222 77.6928 64.2222L77.8916 64.2222C79.1976 64.2222 80.2884 63.7925 81.0469 62.9444C81.7984 62.1042 82.168 60.9156 82.168 59.5L82.168 23.5C82.168 22.0844 81.7984 20.8958 81.0469 20.0556C80.2884 19.2075 79.1976 18.7778 77.8916 18.7778L77.6928 18.7778C76.6376 18.7778 75.8934 18.3915 75.401 17.7722C74.8961 17.1371 74.6152 16.204 74.6152 15.0556L74.6152 14.6111C74.6152 11.7222 72.6535 9.44444 69.9413 9.44444L69.5437 9.44444C68.5515 9.44444 67.7453 9.14352 67.1881 8.5898C66.6326 8.03773 66.2673 7.17726 66.2673 5.94444L66.2673 5.72222C66.2673 4.30662 65.8978 3.11806 65.1462 2.27778C64.3878 1.42976 63.2969 0.999999 61.9909 0.999999L21.345 0.999997C20.039 0.999997 18.9482 1.42976 18.1897 2.27778C17.4381 3.11806 17.0686 4.30662 17.0686 5.72222L17.0686 5.94444C17.0686 7.17726 16.7033 8.03773 16.1478 8.5898C15.5907 9.14351 14.7844 9.44444 13.7922 9.44444L13.3947 9.44444C10.6824 9.44444 8.72076 11.7222 8.72076 14.6111L8.72076 15.0556C8.72076 16.204 8.43989 17.1371 7.93497 17.7722C7.44257 18.3915 6.69834 18.7778 5.64312 18.7778L5.44437 18.7778C4.13837 18.7778 3.04755 19.2075 2.28908 20.0556C1.53752 20.8958 1.16797 22.0844 1.16797 23.5L1.16797 59.5C1.16797 60.9156 1.53752 62.1042 2.28908 62.9444C3.04754 63.7925 4.13836 64.2222 5.44436 64.2222L5.64312 64.2222C6.69834 64.2222 7.44256 64.6085 7.93497 65.2278C8.43989 65.8629 8.72076 66.796 8.72076 67.9444L8.72076 68.3889C8.72076 71.2778 10.6824 73.5556 13.3947 73.5556L13.7922 73.5556C14.7844 73.5556 15.5906 73.8565 16.1478 74.4102C16.7033 74.9623 17.0686 75.8227 17.0686 77.0555L17.0686 77.2778C17.0686 78.6934 17.4381 79.8819 18.1897 80.7222C18.9482 81.5702 20.039 82 21.345 82L61.9909 82C63.2969 82 64.3878 81.5702 65.1462 80.7222C65.8978 79.8819 66.2673 78.6934 66.2673 77.2778Z" fill="url(#paint0_radial_7159_97295)" stroke="url(#paint1_radial_7159_97295)"/>
<path d="M41.668 49.5C44.9817 49.5 47.668 46.8137 47.668 43.5C47.668 40.1863 44.9817 37.5 41.668 37.5C38.3543 37.5 35.668 40.1863 35.668 43.5C35.668 46.8137 38.3543 49.5 41.668 49.5Z" stroke="#FF335F" stroke-width="3"/>
<path d="M37.224 59.5001H46.112C52.354 59.5001 55.476 59.5001 57.718 58.0301C58.6854 57.396 59.5185 56.5778 60.17 55.6221C61.668 53.4221 61.668 50.3561 61.668 44.2281C61.668 38.0981 61.668 35.0341 60.17 32.8341C59.5186 31.8783 58.6854 31.0601 57.718 30.4261C56.278 29.4801 54.474 29.1421 51.712 29.0221C50.394 29.0221 49.26 28.0421 49.002 26.7721C48.8048 25.8418 48.2925 25.0082 47.5517 24.412C46.8108 23.8158 45.8869 23.4937 44.936 23.5001H38.4C36.424 23.5001 34.722 24.8701 34.334 26.7721C34.076 28.0421 32.942 29.0221 31.624 29.0221C28.864 29.1421 27.06 29.4821 25.618 30.4261C24.6512 31.0602 23.8187 31.8784 23.168 32.8341C21.668 35.0341 21.668 38.0981 21.668 44.2281C21.668 50.3561 21.668 53.4201 23.166 55.6221C23.814 56.5741 24.646 57.3921 25.618 58.0301C27.86 59.5001 30.982 59.5001 37.224 59.5001Z" stroke="#FF335F" stroke-width="3"/>
<path d="M55.668 37.5H53.668" stroke="#FF335F" stroke-width="3" stroke-linecap="round"/>
<defs>
<radialGradient id="paint0_radial_7159_97295" cx="0" cy="0" r="1" gradientUnits="userSpaceOnUse" gradientTransform="translate(41.668 94.3506) rotate(-90) scale(66.5961 63.5748)">
<stop stop-color="#FF335F" stop-opacity="0.3"/>
<stop offset="1" stop-color="#FF335F" stop-opacity="0"/>
</radialGradient>
<radialGradient id="paint1_radial_7159_97295" cx="0" cy="0" r="1" gradientUnits="userSpaceOnUse" gradientTransform="translate(41.668 1.5) rotate(90) scale(80 277.655)">
<stop stop-color="#FF335F" stop-opacity="0"/>
<stop offset="1" stop-color="#FF335F"/>
</radialGradient>
</defs>
</svg>
