<svg width="49" height="50" viewBox="0 0 49 50" fill="none" xmlns="http://www.w3.org/2000/svg">
<path d="M24.345 49.3775C10.9214 49.3775 0 38.4561 0 25.0325C0 11.6089 10.9214 0.6875 24.345 0.6875C37.7686 0.6875 48.69 11.6089 48.69 25.0325C48.69 38.4561 37.7686 49.3775 24.345 49.3775ZM24.345 1.45791C11.3466 1.45791 0.770411 12.0341 0.770411 25.0325C0.770411 38.0309 11.3466 48.6071 24.345 48.6071C37.3434 48.6071 47.9196 38.0309 47.9196 25.0325C47.9196 12.0341 37.3434 1.45791 24.345 1.45791Z" fill="#232323"/>
<path d="M11.5213 20.8554C11.5494 18.3887 12.5562 16.0342 14.3203 14.3098C16.0844 12.5855 18.4612 11.6325 20.9279 11.6606C23.3946 11.6887 25.7491 12.6955 27.4734 14.4596C29.1978 16.2237 30.1507 18.6005 30.1227 21.0672C30.1206 21.2434 30.0487 21.4116 29.9227 21.5348C29.7967 21.6579 29.6269 21.726 29.4508 21.724C29.2746 21.722 29.1064 21.6501 28.9832 21.5241C28.86 21.3981 28.792 21.2283 28.794 21.0521C28.8181 18.9378 28.0013 16.9005 26.5232 15.3884C25.0452 13.8764 23.0271 13.0134 20.9128 12.9893C18.7985 12.9652 16.7612 13.782 15.2491 15.26C13.737 16.738 12.874 18.7562 12.85 20.8705C12.8479 21.0467 12.776 21.2149 12.65 21.338C12.524 21.4612 12.3542 21.5293 12.178 21.5273C12.0019 21.5253 11.8337 21.4533 11.7105 21.3273C11.5873 21.2013 11.5193 21.0316 11.5213 20.8554ZM34.0179 29.0846C33.0313 29.0722 32.0756 29.4279 31.3372 30.0823C31.289 29.3402 31.0341 28.6264 30.6015 28.0215C30.1688 27.4167 29.5756 26.9449 28.8888 26.6596C28.2021 26.3743 27.4492 26.2867 26.7153 26.4069C25.9814 26.527 25.2958 26.85 24.7359 27.3395L24.808 21.0067C24.82 19.9495 24.4116 18.9309 23.6726 18.1749C22.9336 17.4188 21.9245 16.9873 20.8674 16.9753C19.8102 16.9632 18.7916 17.3717 18.0355 18.1107C17.2795 18.8497 16.848 19.8587 16.836 20.9159L16.6582 36.5278L14.8222 33.507C14.2897 32.612 13.4281 31.9609 12.4218 31.693C11.4154 31.4251 10.3441 31.5617 9.43715 32.0736C8.53019 32.5854 7.85956 33.4319 7.56872 34.4319C7.27788 35.4319 7.38993 36.506 7.88091 37.4244L12.6559 45.7841C12.7492 45.9228 12.8915 46.0213 13.0542 46.0598C13.2169 46.0983 13.3882 46.074 13.5338 45.9918C13.6794 45.9096 13.7887 45.7755 13.8398 45.6163C13.8909 45.457 13.88 45.2844 13.8094 45.1328L9.03611 36.7732C8.69068 36.1586 8.60351 35.4321 8.79379 34.7533C8.98406 34.0745 9.43619 33.4991 10.0507 33.1537C10.6652 32.8082 11.3918 32.7211 12.0706 32.9113C12.7494 33.1016 13.3248 33.5537 13.6702 34.1683L13.6816 34.1883L16.7273 39.2062C16.8021 39.33 16.9153 39.426 17.0496 39.4797C17.184 39.5333 17.3322 39.5416 17.4717 39.5034C17.6112 39.4651 17.7344 39.3824 17.8226 39.2677C17.9108 39.153 17.9592 39.0127 17.9603 38.8681L18.1646 20.931C18.1727 20.2263 18.4603 19.5535 18.9643 19.0609C19.4684 18.5682 20.1475 18.2959 20.8522 18.304C21.557 18.312 22.2297 18.5996 22.7224 19.1037C23.2151 19.6077 23.4873 20.2868 23.4793 20.9916L23.3507 32.2853C23.3487 32.4614 23.4167 32.6312 23.5399 32.7572C23.6631 32.8832 23.8313 32.9551 24.0075 32.9572C24.1836 32.9592 24.3534 32.8911 24.4794 32.7679C24.6054 32.6448 24.6773 32.4766 24.6794 32.3004L24.7021 30.3074C24.7101 29.6026 24.9977 28.9299 25.5018 28.4372C26.0058 27.9445 26.6849 27.6723 27.3897 27.6803C28.0944 27.6883 28.7671 27.976 29.2598 28.48C29.7525 28.984 30.0248 29.6631 30.0167 30.3679L29.9789 33.6896C29.9769 33.8658 30.045 34.0355 30.1681 34.1616C30.2913 34.2876 30.4595 34.3595 30.6357 34.3615C30.8119 34.3635 30.9816 34.2954 31.1076 34.1723C31.2336 34.0491 31.3056 33.8809 31.3076 33.7047L31.3151 33.0404C31.3232 32.3356 31.6108 31.6629 32.1149 31.1702C32.6189 30.6775 33.298 30.4053 34.0027 30.4133C34.7075 30.4213 35.3802 30.709 35.8729 31.213C36.3656 31.717 36.6378 32.3961 36.6298 33.1009L36.5617 39.0799C36.5189 42.8434 35.2424 45.3869 35.2305 45.4116C35.1905 45.4893 35.1662 45.574 35.159 45.661C35.1518 45.7481 35.1618 45.8356 35.1885 45.9188C35.2152 46.0019 35.258 46.079 35.3145 46.1456C35.3709 46.2122 35.44 46.267 35.5177 46.3069C35.6096 46.3537 35.711 46.3787 35.8142 46.38C35.9376 46.3815 36.059 46.3486 36.1647 46.285C36.2705 46.2213 36.3564 46.1295 36.4129 46.0198C36.4707 45.9058 37.8437 43.1907 37.8904 39.0951L37.9585 33.116C37.9705 32.0589 37.5621 31.0402 36.8231 30.2842C36.0841 29.5282 35.075 29.0967 34.0179 29.0846Z" fill="#232323"/>
</svg>
