<svg width="45" height="46" viewBox="0 0 45 46" fill="none" xmlns="http://www.w3.org/2000/svg">
<path d="M0 23.3363C0 10.966 10.0597 0.90625 22.43 0.90625C34.8003 0.90625 44.86 10.966 44.86 23.3363C44.86 35.7065 34.8003 45.7663 22.43 45.7663C10.0597 45.7663 0 35.7065 0 23.3363ZM44.1504 23.3363C44.1504 11.3577 34.4086 1.61588 22.43 1.61588C10.4514 1.61588 0.70963 11.3577 0.70963 23.3363C0.70963 35.3148 10.4514 45.0566 22.43 45.0566C34.4086 45.0566 44.1504 35.3148 44.1504 23.3363Z" fill="#08E488"/>
<path fill-rule="evenodd" clip-rule="evenodd" d="M16.7039 13.2816V9.94922H18.2367V13.2816H16.7039ZM7.47305 24.0453H4.14062V22.5125H7.47305V24.0453ZM9.85741 16.7503L7.50144 14.3943L8.58575 13.31L10.9417 15.666L9.85741 16.7503ZM17.4703 14.8485C15.1427 14.8485 13.0366 15.7909 11.5094 17.318C9.98231 18.8451 9.03991 20.9513 9.03991 23.2789C9.03991 25.6065 9.98231 27.7127 11.5094 29.2398C13.0366 30.7669 15.1427 31.7093 17.4703 31.7093C19.304 31.7093 21.0071 31.1245 22.3923 30.1254C23.7775 31.1245 25.475 31.7093 27.3143 31.7093C29.6419 31.7093 31.7481 30.7669 33.2752 29.2398C34.8023 27.7127 35.7447 25.6065 35.7447 23.2789C35.7447 20.9513 34.8023 18.8451 33.2752 17.318C31.7481 15.7909 29.6419 14.8485 27.3143 14.8485C25.4806 14.8485 23.7775 15.4332 22.3923 16.4324C21.0071 15.4332 19.3097 14.8485 17.4703 14.8485ZM32.1852 18.4023C33.4342 19.6513 34.2062 21.3771 34.2062 23.2789C34.2062 25.1807 33.4342 26.9065 32.1852 28.1555C30.9363 29.4044 29.2105 30.1765 27.3086 30.1765C25.4068 30.1765 23.681 29.4044 22.4321 28.1555C21.1831 26.9065 20.411 25.1807 20.411 23.2789C20.411 21.3771 21.1831 19.6513 22.4321 18.4023C23.681 17.1534 25.4068 16.3813 27.3086 16.3813C29.2105 16.3813 30.9363 17.1534 32.1852 18.4023ZM24.0898 18.0617C25.2252 19.498 25.9007 21.309 25.9007 23.2789C25.9007 25.2488 25.2252 27.0655 24.0898 28.4961C23.6867 28.2463 23.312 27.9454 22.9771 27.6105C22.4094 27.0428 21.9552 26.3672 21.643 25.6235C21.3421 24.9025 21.1831 24.1134 21.1831 23.2789C21.1831 22.4444 21.3477 21.6496 21.643 20.9343C21.9495 20.1906 22.4094 19.515 22.9771 18.9473C23.312 18.6124 23.6867 18.3115 24.0898 18.0617Z" fill="#08E488"/>
</svg>
