<svg width="49" height="49" viewBox="0 0 49 49" fill="none" xmlns="http://www.w3.org/2000/svg">
<path d="M24.3434 48.6868C10.9179 48.6868 0 37.7689 0 24.3434C0 10.9179 10.9179 0 24.3434 0C37.7689 0 48.6868 10.9179 48.6868 24.3434C48.6868 37.7689 37.7689 48.6868 24.3434 48.6868ZM24.3434 0.770165C11.343 0.770165 0.770165 11.343 0.770165 24.3434C0.770165 37.3438 11.343 47.9166 24.3434 47.9166C37.3438 47.9166 47.9166 37.3438 47.9166 24.3434C47.9166 11.343 37.3438 0.770165 24.3434 0.770165Z" fill="#232323"/>
<path d="M15.1523 9.27802V39.413C15.1523 40.3003 15.8732 41.0212 16.7604 41.0212H31.9234C32.8107 41.0212 33.5315 40.3003 33.5315 39.413V9.27802C33.5315 8.39079 32.8107 7.66992 31.9234 7.66992H16.7604C15.8732 7.66992 15.1523 8.39079 15.1523 9.27802ZM32.2007 9.28419C32.4594 9.28419 32.6751 9.49366 32.6751 9.7586V37.4168C32.6751 37.6756 32.4656 37.8912 32.2007 37.8912H16.4831C16.2244 37.8912 16.0088 37.6817 16.0088 37.4168V9.7586C16.0088 9.49982 16.2182 9.28419 16.4831 9.28419H32.2007Z" fill="#232323"/>
<path opacity="0.4" d="M32.9705 14.2324H15.7188V38.2616H32.9705V14.2324Z" fill="#232323"/>
</svg>
