<svg width="45" height="46" viewBox="0 0 45 46" fill="none" xmlns="http://www.w3.org/2000/svg">
<path d="M22.4 45.7551C10.0463 45.7551 0 35.7088 0 23.3551C0 11.0013 10.0463 0.955078 22.4 0.955078C34.7538 0.955078 44.8 11.0013 44.8 23.3551C44.8 35.7088 34.7538 45.7551 22.4 45.7551ZM22.4 1.66376C10.4375 1.66376 0.708682 11.3925 0.708682 23.3551C0.708682 35.3176 10.4375 45.0464 22.4 45.0464C34.3626 45.0464 44.0914 35.3176 44.0914 23.3551C44.0914 11.3925 34.3626 1.66376 22.4 1.66376Z" fill="#08E488"/>
<path d="M37.6873 13.8187V32.8907H7.11753V13.8187H37.6873ZM38.8438 12.6621H5.96094V34.0473H38.8438V12.6621Z" fill="#08E488"/>
<path d="M15.6512 15.043L14.9766 16.398H16.3769L15.6512 15.043Z" fill="#08E488"/>
<path d="M15.6512 21.9603L16.3769 20.5996H14.9766L15.6512 21.9603Z" fill="#08E488"/>
<path d="M14.6744 16.5294L13.2344 16.0645L13.6992 17.5045L14.6744 16.5294Z" fill="#08E488"/>
<path d="M17.6455 19.5L16.625 20.4752L18.1104 20.9401L17.6455 19.5Z" fill="#08E488"/>
<path d="M13.5755 17.7988L12.2148 18.5245L13.5755 19.1992V17.7988Z" fill="#08E488"/>
<path d="M17.7305 17.7988V19.1992L19.0855 18.5245L17.7305 17.7988Z" fill="#08E488"/>
<path d="M13.2344 20.9401L14.6744 20.4752L13.6992 19.5L13.2344 20.9401Z" fill="#08E488"/>
<path d="M18.1104 16.0645L16.625 16.5294L17.6455 17.5045L18.1104 16.0645Z" fill="#08E488"/>
<path d="M15.6495 20.0099C16.4698 20.0099 17.1349 19.3448 17.1349 18.5245C17.1349 17.7041 16.4698 17.0391 15.6495 17.0391C14.8291 17.0391 14.1641 17.7041 14.1641 18.5245C14.1641 19.3448 14.8291 20.0099 15.6495 20.0099Z" fill="#08E488"/>
<path d="M27.6572 26.2852L26.6367 27.8953L30.543 34.0466H32.5784L27.6572 26.2852Z" fill="#08E488"/>
<path d="M17.136 26.2852L12.2148 34.0466H14.5903L18.3265 28.1504L17.136 26.2852Z" fill="#08E488"/>
<path d="M26.8164 20.7516C26.8164 20.7516 27.0772 20.4057 27.4514 20.3774C27.7122 20.349 28.0297 20.4908 28.3188 20.8083C28.4322 20.9216 28.608 20.9216 28.7213 20.8083C29.0388 20.4908 29.328 20.3434 29.5888 20.3774C29.963 20.4057 30.2238 20.7516 30.2238 20.7516C30.3088 20.865 30.4845 20.9273 30.6263 20.8366C30.768 20.7516 30.802 20.5758 30.7113 20.4341C30.683 20.4057 30.3088 19.8558 29.6738 19.7991C29.2997 19.7708 28.9255 19.9125 28.5456 20.2016C28.1714 19.8841 27.7972 19.7708 27.4173 19.7991C26.754 19.8558 26.3799 20.4057 26.3799 20.4341C26.2948 20.5758 26.3232 20.7516 26.4649 20.8366C26.5216 20.8933 26.6974 20.865 26.8107 20.7516H26.8164Z" fill="#08E488"/>
<path d="M29.1854 21.5017C28.9529 21.479 28.7261 21.564 28.4937 21.7341C28.2612 21.564 28.0345 21.4846 27.802 21.5017C27.4051 21.5413 27.1557 21.8758 27.1557 21.8985C27.0933 22.0006 27.116 22.1309 27.218 22.1933C27.3031 22.2557 27.4505 22.233 27.5129 22.1536C27.5129 22.1536 27.6603 21.9665 27.87 21.9439C28.0174 21.9212 28.1818 22.0062 28.3519 22.1933C28.437 22.2784 28.5617 22.2784 28.6468 22.1933C28.8168 22.0232 28.9812 21.9439 29.1286 21.9439C29.3384 21.9665 29.4858 22.1536 29.4858 22.1536C29.5482 22.2557 29.6729 22.2784 29.7806 22.216C29.8827 22.1536 29.9054 22.0289 29.843 21.9212C29.843 21.8815 29.6105 21.547 29.1967 21.5017H29.1854Z" fill="#08E488"/>
<path d="M22.5685 22.7656L15.4023 34.0479H29.7404L22.5742 22.7656H22.5685ZM23.419 27.4316L22.6536 29.1268L21.8882 27.4316L20.743 28.7866L20.193 28.1062L22.5685 24.3304L24.9044 27.9759L24.3941 28.5711L23.419 27.4259V27.4316Z" fill="#08E488"/>
</svg>
