<svg width="47" height="47" viewBox="0 0 47 47" fill="none" xmlns="http://www.w3.org/2000/svg">
<path d="M1 23.3851C1 11.0148 11.0597 0.955078 23.43 0.955078C35.8003 0.955078 45.86 11.0148 45.86 23.3851C45.86 35.7554 35.8003 45.8151 23.43 45.8151C11.0597 45.8151 1 35.7554 1 23.3851ZM45.1504 23.3851C45.1504 11.4065 35.4086 1.66471 23.43 1.66471C11.4514 1.66471 1.70963 11.4065 1.70963 23.3851C1.70963 35.3637 11.4514 45.1055 23.43 45.1055C35.4086 45.1055 45.1504 35.3637 45.1504 23.3851Z" fill="#08E488" stroke="#08E488" stroke-width="0.534048"/>
<path d="M14.1773 18.9798C15.8293 15.5225 19.3491 13.1268 23.4309 13.1268C27.5127 13.1268 31.0324 15.5281 32.6844 18.9798H33.4281C31.7307 15.1421 27.8873 12.4512 23.4309 12.4512C18.9744 12.4512 15.131 15.1421 13.4336 18.9798H14.1773Z" fill="#08E488" stroke="#08E488" stroke-width="0.747667"/>
<path d="M32.0335 28.9609C30.1998 31.7768 27.0321 33.6501 23.4328 33.6501C19.8336 33.6501 16.6601 31.7824 14.8321 28.9609H14.043C15.9505 32.1628 19.4418 34.32 23.4328 34.32C27.4238 34.32 30.9151 32.1628 32.8226 28.9609H32.0335Z" fill="#08E488" stroke="#08E488" stroke-width="0.747667"/>
<path d="M8.87943 16.7268C8.75454 16.7268 8.65234 16.6246 8.65234 16.4997V13.4966C8.65234 13.3717 8.75454 13.2695 8.87943 13.2695H11.8826C12.0075 13.2695 12.1097 13.3717 12.1097 13.4966C12.1097 13.6215 12.0075 13.7237 11.8826 13.7237H9.10084V16.5054C9.10084 16.6303 8.99864 16.7325 8.87375 16.7325L8.87943 16.7268Z" fill="#08E488" stroke="#08E488" stroke-width="0.747667"/>
<path d="M37.9763 16.7268C38.1012 16.7268 38.2034 16.6246 38.2034 16.4997V13.4966C38.2034 13.3717 38.1012 13.2695 37.9763 13.2695H34.9732C34.8483 13.2695 34.7461 13.3717 34.7461 13.4966C34.7461 13.6215 34.8483 13.7237 34.9732 13.7237H37.7549V16.5054C37.7549 16.6303 37.8571 16.7325 37.982 16.7325L37.9763 16.7268Z" fill="#08E488" stroke="#08E488" stroke-width="0.747667"/>
<path d="M8.87943 30.0506C8.75454 30.0506 8.65234 30.1528 8.65234 30.2777V33.2809C8.65234 33.4058 8.75454 33.5079 8.87943 33.5079H11.8826C12.0075 33.5079 12.1097 33.4058 12.1097 33.2809C12.1097 33.156 12.0075 33.0538 11.8826 33.0538H9.10084V30.272C9.10084 30.1471 8.99864 30.0449 8.87375 30.0449L8.87943 30.0506Z" fill="#08E488" stroke="#08E488" stroke-width="0.747667"/>
<path d="M37.9763 30.0506C38.1012 30.0506 38.2034 30.1528 38.2034 30.2777V33.2809C38.2034 33.4058 38.1012 33.5079 37.9763 33.5079H34.9732C34.8483 33.5079 34.7461 33.4058 34.7461 33.2809C34.7461 33.156 34.8483 33.0538 34.9732 33.0538H37.7549V30.272C37.7549 30.1471 37.8571 30.0449 37.982 30.0449L37.9763 30.0506Z" fill="#08E488" stroke="#08E488" stroke-width="0.747667"/>
</svg>
