<svg width="54" height="48" viewBox="0 0 54 48" fill="none" xmlns="http://www.w3.org/2000/svg">
<path fill-rule="evenodd" clip-rule="evenodd" d="M43.144 45.4667V45.3333C43.144 43.7333 44.2101 42.9333 45.676 42.9333H45.9425C47.5417 42.9333 48.741 41.7333 48.741 40.1333V39.8667C48.741 38.4 49.5406 37.3333 51.1398 37.3333H51.273C52.8722 37.3333 53.805 36.4 53.805 34.8V13.2C53.805 11.6 52.8722 10.6667 51.273 10.6667H51.1398C49.5406 10.6667 48.741 9.6 48.741 8.13333V7.86667C48.741 6.26667 47.5417 5.06667 45.9425 5.06667H45.676C44.2101 5.06667 43.144 4.26667 43.144 2.66667V2.53333C43.144 0.933333 42.2111 0 40.612 0H13.6928C12.0937 0 11.1608 0.933331 11.1608 2.53333V2.66666C11.1608 4.26666 10.0947 5.06666 8.62884 5.06666H8.36231C6.76316 5.06666 5.56378 6.26666 5.56378 7.86666V8.13333C5.56378 9.6 4.7642 10.6667 3.16504 10.6667H3.03178C1.43263 10.6667 0.499783 11.6 0.499783 13.2L0.499782 34.8C0.499782 36.4 1.43262 37.3333 3.03178 37.3333H3.16504C4.7642 37.3333 5.56378 38.4 5.56378 39.8667V40.1333C5.56378 41.7333 6.76315 42.9333 8.36231 42.9333H8.62883C10.0947 42.9333 11.1608 43.7333 11.1608 45.3333V45.4667C11.1608 47.0667 12.0937 48 13.6928 48H40.612C42.2111 48 43.144 47.0667 43.144 45.4667ZM43.416 41.1395C43.416 42.684 42.5736 43.8073 40.8887 43.8073H12.8069C11.122 43.8073 10.2796 42.684 10.2796 41.1395V40.8587C10.2796 39.1738 9.01591 37.9101 7.331 37.9101H7.05019C5.50569 37.9101 4.38243 37.0677 4.38243 35.3828L4.38243 12.9174C4.38243 11.2325 5.50569 10.39 7.05019 10.39H7.331C9.01591 10.39 10.2796 9.12635 10.2796 7.44145V7.16063C10.2796 5.61613 11.122 4.49287 12.8069 4.49287L40.8887 4.49287C42.5736 4.49287 43.416 5.61614 43.416 7.16063V7.44145C43.416 9.12635 44.6797 10.39 46.3646 10.39H46.6454C48.1899 10.39 49.3132 11.2325 49.3132 12.9174V35.3828C49.3132 37.0677 48.1899 37.9101 46.6454 37.9101H46.3646C44.6797 37.9101 43.416 39.1738 43.416 40.8587V41.1395Z" fill="url(#paint0_linear_7159_97212)"/>
<path d="M12.1631 16.1787L12.1631 19.4033C12.0991 19.9445 11.7547 20.3206 11.13 20.3206H9.65687C8.96075 20.3206 8.55469 20.7292 8.55469 21.4297V33.2208C8.55469 33.9213 8.96075 34.3299 9.65687 34.3299H11.13C11.8261 34.3299 12.1741 34.7969 12.1741 35.4389V35.5557C12.1741 36.2562 12.6962 36.7815 13.3923 36.7815H13.5083C14.1464 36.7815 14.6105 37.1317 14.6105 37.8322V37.8906C14.6105 38.591 15.0166 38.9996 15.7127 38.9996H25.1111L24.0498 38.2213L22.2102 36.7815L20.8659 35.4389V30.2969L17.4697 29.9431L15.2056 27.5375V25.3441L14.6949 23.8869L15.2763 23.7876V20.0376L15.7927 19.5165L16.8329 19.0948L17.4086 18.0801L17.9933 17.632L23.979 17.632L26.7384 20.5329L29.4978 17.632L35.4836 17.632L36.399 18.663L36.644 19.0948L36.8601 19.1824L38.059 20.5329V23.7876H38.2713V25.9809L37.1392 28.3866L35.2996 30.2969H32.611V35.4389L31.2667 36.7815L29.4271 38.2213L28.3658 38.9996H37.7642C38.4603 38.9996 38.8663 38.591 38.8663 37.8906V37.8322C38.8663 37.1317 39.3304 36.7815 39.9685 36.7815H40.0845C40.7807 36.7815 41.3027 36.2562 41.3027 35.5557V35.4389C41.3027 34.7969 41.6508 34.3299 42.3469 34.3299H43.6077C44.3038 34.3299 44.7099 33.9213 44.7099 33.2208V21.4297C44.7099 20.7292 44.3038 20.3206 43.6077 20.3206H42.3469C41.7222 20.3206 41.3778 19.9445 41.3137 19.4033V16.1787C41.3137 15.3085 40.8036 14.8009 39.9291 14.8009H39.8562C38.9817 14.8009 38.5444 14.2208 38.5444 13.4232V13.2782C38.5444 12.4081 37.8885 11.7554 37.014 11.7554H36.8683C36.0666 11.7554 35.4836 11.3204 35.4836 10.4502V10.3777C35.4836 9.50758 34.9735 9 34.099 9L19.3779 9C18.5034 9 17.9933 9.50758 17.9933 10.3777V10.4502C17.9933 11.3204 17.4102 11.7554 16.6086 11.7554H16.4628C15.5883 11.7554 14.9324 12.4081 14.9324 13.2782V13.4232C14.9324 14.2208 14.4952 14.8009 13.6207 14.8009H13.5478C12.6733 14.8009 12.1631 15.3085 12.1631 16.1787Z" fill="black"/>
<path d="M14.7097 18.3851C14.9826 18.658 14.9826 18.9764 14.7097 19.2492L14.6643 19.2947C14.3914 19.5676 14.073 19.5676 13.8001 19.2947L12.8678 18.3624C12.5949 18.0895 12.2765 18.135 12.0264 18.3851L11.9809 18.4306C11.708 18.7035 11.2987 18.7035 11.0258 18.4306L10.9803 18.3851C10.7075 18.1122 10.48 18.1122 10.2072 18.3851L10.1617 18.4306C9.8888 18.7035 9.8888 18.9309 10.1617 19.2038L10.2072 19.2492C10.48 19.5221 10.48 19.9314 10.2072 20.2043L10.1617 20.2498C9.91154 20.5 9.86606 20.8183 10.1389 21.0912L11.0713 22.0236C11.3442 22.2964 11.3442 22.6148 11.0713 22.8877L11.0258 22.9332C10.7529 23.2061 10.4346 23.2061 10.1617 22.9332L9.20659 21.9781C8.93371 21.7052 8.93371 21.3868 9.20659 21.1139L9.22933 21.0912C9.50221 20.8183 9.45673 20.5 9.20659 20.2498L9.16111 20.2043C8.88823 19.9314 8.88823 19.5221 9.16111 19.2492L9.20659 19.2038C9.47947 18.9309 9.47947 18.7035 9.20659 18.4306L9.16111 18.3851C8.9476 18.1716 8.9476 17.8254 9.16111 17.6119L9.38851 17.3845C9.60202 17.171 9.94818 17.171 10.1617 17.3845L10.2072 17.43C10.48 17.7029 10.7075 17.7029 10.9803 17.43L11.0258 17.3845C11.2987 17.1116 11.708 17.1116 11.9809 17.3845L12.0264 17.43C12.2765 17.6802 12.5949 17.7256 12.8678 17.4528L12.8905 17.43C13.1634 17.1571 13.4818 17.1571 13.7547 17.43L14.7097 18.3851Z" fill="black"/>
<path d="M38.634 18.3148C38.3611 18.5877 38.3611 18.906 38.634 19.1789L38.6795 19.2244C38.9524 19.4973 39.2707 19.4973 39.5436 19.2244L40.476 18.2921C40.7489 18.0192 41.0672 18.0646 41.3174 18.3148L41.3628 18.3603C41.6357 18.6332 42.0451 18.6332 42.3179 18.3603L42.3634 18.3148C42.6363 18.0419 42.8637 18.0419 43.1366 18.3148L43.1821 18.3603C43.455 18.6332 43.455 18.8606 43.1821 19.1334L43.1366 19.1789C42.8637 19.4518 42.8637 19.8611 43.1366 20.134L43.1821 20.1795C43.4322 20.4296 43.4777 20.748 43.2048 21.0209L42.2725 21.9532C41.9996 22.2261 41.9996 22.5445 42.2725 22.8174L42.3179 22.8629C42.5908 23.1357 42.9092 23.1357 43.1821 22.8629L44.1372 21.9078C44.41 21.6349 44.41 21.3165 44.1372 21.0436L44.1144 21.0209C43.8415 20.748 43.887 20.4296 44.1372 20.1795L44.1826 20.134C44.4555 19.8611 44.4555 19.4518 44.1826 19.1789L44.1372 19.1334C43.8643 18.8606 43.8643 18.6332 44.1372 18.3603L44.1826 18.3148C44.3961 18.1013 44.3961 17.7551 44.1826 17.5416L43.9552 17.3142C43.7417 17.1007 43.3956 17.1007 43.1821 17.3142L43.1366 17.3597C42.8637 17.6326 42.6363 17.6326 42.3634 17.3597L42.3179 17.3142C42.0451 17.0413 41.6357 17.0413 41.3628 17.3142L41.3174 17.3597C41.0672 17.6098 40.7489 17.6553 40.476 17.3824L40.4532 17.3597C40.1803 17.0868 39.862 17.0868 39.5891 17.3597L38.634 18.3148Z" fill="black"/>
<path d="M24.7525 33.8281C24.8594 34.0617 25.0919 34.214 25.3784 34.214H28.1368C28.2061 34.214 28.2697 34.2063 28.3274 34.1917C28.4715 34.1445 28.5908 34.0533 28.6714 33.9317C28.7288 33.8285 28.7575 33.7021 28.7575 33.5615V33.4928C28.7575 33.0806 29.0678 32.7715 29.4816 32.7715H29.5505C29.9643 32.7715 30.2746 33.0806 30.2746 33.4928V33.5615C30.2746 33.9736 29.9643 34.2827 29.5505 34.2827H29.4816C29.1023 34.2827 28.8264 34.4888 28.8264 34.901V34.9353C28.8264 35.2592 28.6773 35.4771 28.4126 35.5555C28.3305 35.5859 28.2358 35.6016 28.1299 35.6016H25.3025C24.8888 35.6016 24.6474 35.3612 24.6474 34.9491V34.9147C24.6474 34.5025 24.3716 34.2965 23.9923 34.2965H23.9233C23.5095 34.2965 23.1992 33.9874 23.1992 33.5752V33.5065C23.1992 33.1215 23.47 32.8264 23.8429 32.7892C23.8931 32.7776 23.9454 32.7715 23.9992 32.7715C24.1713 32.7715 24.3288 32.8343 24.4496 32.9383C24.6145 33.068 24.7164 33.2703 24.7164 33.5065V33.5752C24.7164 33.6663 24.7284 33.7514 24.7525 33.8281Z" fill="#111111"/>
<path d="M26.2293 30.9175L26.2458 30.8944C26.4261 30.6425 26.3627 30.2821 26.1005 30.0944L25.8754 29.9333C25.5906 29.7295 25.3091 29.7717 25.1115 30.0479L25.095 30.0709C24.9147 30.3229 24.9782 30.6833 25.2403 30.8709L25.4654 31.032C25.7503 31.2359 26.0317 31.1936 26.2293 30.9175Z" fill="black"/>
<path d="M27.1574 30.9663L27.1409 30.9433C26.9606 30.6913 27.024 30.3309 27.2862 30.1433L27.5113 29.9822C27.7961 29.7784 28.0776 29.8206 28.2752 30.0968L28.2917 30.1198C28.472 30.3717 28.4086 30.7322 28.1464 30.9198L27.9213 31.0809C27.6365 31.2847 27.355 31.2425 27.1574 30.9663Z" fill="black"/>
<path fill-rule="evenodd" clip-rule="evenodd" d="M15.1781 19.4915H15.2138C15.6421 19.4915 15.8562 19.2064 15.8562 18.8144V18.7432C15.8562 18.3155 16.1774 17.9948 16.6057 17.9948H16.677C17.0696 17.9948 17.3551 17.781 17.3551 17.3534V17.3177C17.3551 16.8901 17.605 16.6406 18.0332 16.6406H23.8149C24.2431 16.6406 24.4929 16.8901 24.4929 17.3177V17.3534C24.4929 17.781 24.7785 17.9948 25.171 17.9948H25.2424C25.6707 17.9948 25.9919 18.3155 25.9919 18.7432V18.8144C25.9919 19.2064 26.206 19.4915 26.6343 19.4915C27.0626 19.4915 27.2767 19.2064 27.2767 18.8144V18.7432C27.2767 18.3155 27.5979 17.9948 28.0262 17.9948H28.0975C28.4901 17.9948 28.7756 17.781 28.7756 17.3534V17.3177C28.7756 16.8901 29.0255 16.6406 29.4537 16.6406H35.2354C35.6636 16.6406 35.9135 16.8901 35.9135 17.3177V17.3534C35.9135 17.781 36.199 17.9948 36.5915 17.9948H36.6629C37.0912 17.9948 37.4124 18.3155 37.4124 18.7432V18.8144C37.4124 19.2064 37.6265 19.4915 38.0548 19.4915H38.0905C38.5188 19.4915 38.7686 19.741 38.7686 20.1686V27.3672C38.7686 27.7948 38.5188 28.0442 38.0905 28.0442H38.0548C37.6265 28.0442 37.4124 28.3293 37.4124 28.7213V28.7926C37.4124 29.2202 37.0912 29.541 36.6629 29.541H36.5915C36.199 29.541 35.9135 29.7548 35.9135 30.1824V30.2181C35.9135 30.6457 35.6636 30.8952 35.2354 30.8952H33.0583V35.4709C33.0583 35.8985 32.8085 36.1479 32.3802 36.1479H32.3445C31.9163 36.1479 31.7021 36.433 31.7021 36.825V36.8963C31.7021 37.3239 31.3809 37.6447 30.9527 37.6447H30.8813C30.4887 37.6447 30.2032 37.8585 30.2032 38.2861V38.3218C30.2032 38.7494 29.9534 38.9988 29.5251 38.9988H23.7435C23.3152 38.9988 23.0654 38.7494 23.0654 38.3218V38.2861C23.0654 37.8585 22.7799 37.6447 22.3873 37.6447H22.3159C21.8876 37.6447 21.5664 37.3239 21.5664 36.8963V36.825C21.5664 36.433 21.3523 36.1479 20.924 36.1479H20.8883C20.4601 36.1479 20.2103 35.8985 20.2103 35.4709V30.8952H18.0332C17.605 30.8952 17.3551 30.6457 17.3551 30.2181V30.1824C17.3551 29.7548 17.0696 29.541 16.677 29.541H16.6057C16.1774 29.541 15.8562 29.2202 15.8562 28.7926V28.7213C15.8562 28.3293 15.6421 28.0442 15.2138 28.0442H15.1781C14.7498 28.0442 14.5 27.7948 14.5 27.3672V20.1686C14.5 19.741 14.7498 19.4915 15.1781 19.4915ZM21.645 29.4697L21.6378 35.4352C21.6378 35.8629 21.9233 36.0767 22.3159 36.0767H22.3873C22.8156 36.0767 23.1368 36.3974 23.1368 36.825V36.8963C23.1368 37.2883 23.3509 37.5734 23.7792 37.5734H29.4894C29.9177 37.5734 30.1318 37.2883 30.1318 36.8963V36.825C30.1318 36.3974 30.453 36.0767 30.8813 36.0767H30.9527C31.3452 36.0767 31.6308 35.8629 31.6308 35.4352L31.6236 29.4697H35.1997C35.6279 29.4697 35.8421 29.1846 35.8421 28.7926V28.7213C35.8421 28.2937 36.1633 27.973 36.5915 27.973H36.6629C37.0555 27.973 37.341 27.7592 37.341 27.3315V20.2043C37.341 19.7766 37.0555 19.5628 36.6629 19.5628H36.5915C36.1633 19.5628 35.8421 19.2421 35.8421 18.8144V18.7432C35.8421 18.3512 35.6279 18.0661 35.1997 18.0661H29.4894C29.0611 18.0661 28.847 18.3512 28.847 18.7432V18.8144C28.847 19.2421 28.5258 19.5628 28.0975 19.5628H28.0262C27.6336 19.5628 27.3481 19.7766 27.3481 20.2043V20.7816C27.3481 21.1752 27.0285 21.4943 26.6343 21.4943C26.2401 21.4943 25.9205 21.1752 25.9205 20.7816V20.2043C25.9205 19.7766 25.635 19.5628 25.2424 19.5628H25.171C24.7428 19.5628 24.4216 19.2421 24.4216 18.8144V18.7432C24.4216 18.3512 24.2074 18.0661 23.7792 18.0661H18.0689C17.6406 18.0661 17.4265 18.3512 17.4265 18.7432V18.8144C17.4265 19.2421 17.1053 19.5628 16.677 19.5628H16.6057C16.2131 19.5628 15.9276 19.7766 15.9276 20.2043V27.3315C15.9276 27.7592 16.2131 27.973 16.6057 27.973H16.677C17.1053 27.973 17.4265 28.2937 17.4265 28.7213V28.7926C17.4265 29.1846 17.6406 29.4697 18.0689 29.4697H21.645Z" fill="black"/>
<rect x="29.1484" y="22.8672" width="10.9669" height="5.5188" rx="0.86" fill="black"/>
<rect x="13.1602" y="22.8672" width="10.9669" height="5.5188" fill="black"/>
<path fill-rule="evenodd" clip-rule="evenodd" d="M23.9485 28.9631C23.9485 29.3593 23.7194 29.5904 23.3268 29.5904H14.0987C13.706 29.5904 13.4769 29.3593 13.4769 28.9631V28.9301C13.4769 28.5504 13.1988 28.2697 12.8224 28.2697H12.7897C12.397 28.2697 12.168 28.0386 12.168 27.6424V23.6141C12.168 23.2179 12.397 22.9868 12.7897 22.9868H12.8224C13.1988 22.9868 13.4769 22.7061 13.4769 22.3264V22.2933C13.4769 21.8971 13.706 21.666 14.0987 21.666H23.3268C23.7194 21.666 23.9485 21.8971 23.9485 22.2933V22.3264C23.9485 22.6137 24.1078 22.8444 24.3484 22.9396H29.1381C29.3787 22.8444 29.538 22.6137 29.538 22.3264V22.2933C29.538 21.8971 29.7671 21.666 30.1598 21.666H39.3879C39.7806 21.666 40.0096 21.8971 40.0096 22.2933V22.3264C40.0096 22.7061 40.2878 22.9868 40.6641 22.9868H40.6968C41.0895 22.9868 41.3186 23.2179 41.3186 23.6141V27.6424C41.3186 28.0386 41.0895 28.2697 40.6968 28.2697H40.6641C40.2878 28.2697 40.0096 28.5504 40.0096 28.9301V28.9631C40.0096 29.3593 39.7806 29.5904 39.3879 29.5904H30.1598C29.7671 29.5904 29.538 29.3593 29.538 28.9631V28.9301C29.538 28.5504 29.2599 28.2697 28.8836 28.2697H28.8508C28.4581 28.2697 28.2291 28.0386 28.2291 27.6424V24.2839H25.2574V27.6424C25.2574 28.0386 25.0284 28.2697 24.6357 28.2697H24.603C24.2267 28.2697 23.9485 28.5504 23.9485 28.9301V28.9631ZM23.294 28.2697C23.6703 28.2697 23.9485 27.989 23.9485 27.6093V23.6471C23.9485 23.2674 23.6703 22.9868 23.294 22.9868H14.1314C13.7551 22.9868 13.4769 23.2674 13.4769 23.6471V27.6093C13.4769 27.989 13.7551 28.2697 14.1314 28.2697H23.294ZM39.3551 28.2697C39.7314 28.2697 40.0096 27.989 40.0096 27.6093V23.6471C40.0096 23.2674 39.7314 22.9868 39.3551 22.9868H30.1925C29.8162 22.9868 29.538 23.2674 29.538 23.6471V27.6093C29.538 27.989 29.8162 28.2697 30.1925 28.2697H39.3551Z" fill="#FF0037"/>
<defs>
<linearGradient id="paint0_linear_7159_97212" x1="-9.5" y1="-9.5" x2="63.9036" y2="4.85372" gradientUnits="userSpaceOnUse">
<stop stop-color="#232323"/>
<stop offset="1" stop-color="#D8D8D8"/>
</linearGradient>
</defs>
</svg>
