<svg width="12" height="12" viewBox="0 0 12 12" fill="none" xmlns="http://www.w3.org/2000/svg">
<g clip-path="url(#clip0_14234_25737)">
<path d="M10.3301 10.1812C10.2135 10.2962 10.0629 10.3706 9.90075 10.3935C9.73855 10.4164 9.5733 10.3865 9.42938 10.3083L9.42047 10.3035L5.99975 8.37933L2.57903 10.3035L2.57012 10.3083C2.42619 10.3864 2.26095 10.4163 2.09877 10.3934C1.9366 10.3705 1.78607 10.2961 1.66938 10.1812L1.6591 10.1709C1.54447 10.0584 1.46821 9.91263 1.44115 9.75431C1.41409 9.596 1.4376 9.43318 1.50834 9.28899L5.29944 1.02739C5.30049 1.02489 5.30175 1.02248 5.30321 1.02019C5.36682 0.88977 5.46576 0.779819 5.58878 0.702848C5.71179 0.625876 5.85394 0.584975 5.99905 0.584796C6.14416 0.584618 6.2864 0.625169 6.40961 0.701838C6.53281 0.778507 6.63202 0.888214 6.69596 1.01848L6.69973 1.02568L10.4912 9.28899C10.563 9.43543 10.5861 9.60101 10.5571 9.76152C10.5282 9.92204 10.4486 10.0691 10.3301 10.1812Z" fill="#3A3358"/>
</g>
<defs>
<clipPath id="clip0_14234_25737">
<rect width="12" height="12" fill="white"/>
</clipPath>
</defs>
</svg>
