<svg width="275" height="52" viewBox="0 0 275 52" fill="none" xmlns="http://www.w3.org/2000/svg">
<path d="M27.1897 6.5H7.01724C6.48241 6.50058 5.96966 6.7133 5.59148 7.09148C5.2133 7.46966 5.00058 7.98241 5 8.51724V43.4828C5.00058 44.0176 5.2133 44.5303 5.59148 44.9085C5.96966 45.2867 6.48241 45.4994 7.01724 45.5H27.1897C27.7245 45.4994 28.2372 45.2867 28.6154 44.9085C28.9936 44.5303 29.2063 44.0176 29.2069 43.4828V8.51724C29.2063 7.98241 28.9936 7.46966 28.6154 7.09148C28.2372 6.7133 27.7245 6.50058 27.1897 6.5ZM27.8621 43.4828C27.8618 43.661 27.7909 43.8319 27.6649 43.958C27.5388 44.084 27.3679 44.1549 27.1897 44.1552H7.01724C6.83898 44.1549 6.66808 44.084 6.54203 43.958C6.41598 43.8319 6.34506 43.661 6.34483 43.4828V8.51724C6.34506 8.33898 6.41598 8.16808 6.54203 8.04203C6.66808 7.91598 6.83898 7.84506 7.01724 7.84483H27.1897C27.3679 7.84506 27.5388 7.91598 27.6649 8.04203C27.7909 8.16808 27.8618 8.33898 27.8621 8.51724V43.4828Z" fill="#EBE8E2"/>
<path d="M16.4312 10.8702H17.776C17.9544 10.8702 18.1254 10.7994 18.2515 10.6733C18.3776 10.5472 18.4484 10.3761 18.4484 10.1978C18.4484 10.0195 18.3776 9.84844 18.2515 9.72234C18.1254 9.59623 17.9544 9.52539 17.776 9.52539H16.4312C16.2529 9.52539 16.0818 9.59623 15.9557 9.72234C15.8296 9.84844 15.7588 10.0195 15.7588 10.1978C15.7588 10.3761 15.8296 10.5472 15.9557 10.6733C16.0818 10.7994 16.2529 10.8702 16.4312 10.8702Z" fill="#EBE8E2"/>
<path d="M19.4569 41.4648H14.7501C14.5717 41.4648 14.4007 41.5357 14.2746 41.6618C14.1485 41.7879 14.0776 41.9589 14.0776 42.1373C14.0776 42.3156 14.1485 42.4866 14.2746 42.6127C14.4007 42.7388 14.5717 42.8097 14.7501 42.8097H19.4569C19.6353 42.8097 19.8063 42.7388 19.9324 42.6127C20.0585 42.4866 20.1294 42.3156 20.1294 42.1373C20.1294 41.9589 20.0585 41.7879 19.9324 41.6618C19.8063 41.5357 19.6353 41.4648 19.4569 41.4648Z" fill="#EBE8E2"/>
<path d="M13.7073 22.6916L21.0249 28.8712L13.1985 23.3501L6.86854 17.9336L13.7073 22.6916Z" fill="#EBE8E2"/>
<path d="M16.8794 21.9885L24.197 28.1681L16.3706 22.6469L10.0407 17.2305L16.8794 21.9885Z" fill="#EBE8E2"/>
<path d="M20.425 22.6867L14.2444 31.4478L21.162 23.2562L26.4883 15.6008L20.425 22.6867Z" fill="#EBE8E2"/>
<path d="M16.7902 22.8215L10.6097 31.5826L17.5273 23.391L22.8536 15.7355L16.7902 22.8215Z" fill="#EBE8E2"/>
<path d="M14.6625 21.7649L8.482 30.5259L15.3996 22.3343L20.7259 14.6789L14.6625 21.7649Z" fill="#EBE8E2"/>
<path d="M47.868 19.152C46.244 19.152 44.524 18.576 43.468 17.712L44.172 16.688C44.948 17.344 46.404 17.936 47.86 17.936C49.596 17.936 50.964 17.232 50.964 15.896C50.964 14.808 50.028 14.264 48.252 14.064L47.124 13.936C45.212 13.72 43.82 12.832 43.82 10.976C43.82 8.848 45.716 7.656 48.06 7.656C49.764 7.656 51.052 8.16 52.084 8.88L51.428 9.92C50.524 9.304 49.396 8.872 48.052 8.872C46.364 8.872 45.156 9.632 45.156 10.896C45.156 11.936 45.996 12.504 47.74 12.712L48.804 12.84C50.652 13.064 52.3 13.848 52.3 15.784C52.3 18 50.284 19.152 47.868 19.152ZM58.0878 19.152C55.7598 19.152 54.1678 17.456 54.1678 15.208C54.1678 12.968 55.7598 11.272 58.0878 11.272C59.2078 11.272 60.2158 11.688 60.8958 12.464L60.1278 13.272C59.5598 12.72 58.8798 12.392 58.0558 12.392C56.5358 12.392 55.3838 13.576 55.3838 15.208C55.3838 16.848 56.5358 18.032 58.0558 18.032C58.8798 18.032 59.6158 17.664 60.1518 17.144L60.8958 17.96C60.2078 18.736 59.2078 19.152 58.0878 19.152ZM64.1233 19H62.9313V11.424H64.1153V12.488C64.6353 11.712 65.4353 11.272 66.3633 11.272C66.9073 11.272 67.3553 11.344 67.7553 11.528L67.4673 12.704C67.0993 12.504 66.5953 12.4 66.1553 12.4C64.9713 12.4 64.1233 13.328 64.1233 14.76V19ZM72.4674 19.152C70.3394 19.152 68.6834 17.488 68.6834 15.208C68.6834 12.936 70.3394 11.272 72.4674 11.272C73.7154 11.272 74.6354 11.784 75.2354 12.552V11.424H76.4274V19H75.2354V17.872C74.6354 18.648 73.7154 19.152 72.4674 19.152ZM72.6114 18.032C74.1874 18.032 75.3074 16.816 75.3074 15.208C75.3074 13.608 74.1874 12.392 72.6114 12.392C70.9874 12.392 69.8994 13.648 69.8994 15.208C69.8994 16.776 71.0034 18.032 72.6114 18.032ZM82.5081 19.152C80.8761 19.152 79.9081 18.256 79.9081 16.352V12.504H78.2521V11.424H79.9081V9.016H81.1001V11.424H84.3721V12.504H81.1001V16.328C81.1001 17.512 81.7241 18.032 82.6041 18.032C83.1881 18.032 83.7561 17.816 84.1961 17.496L84.7561 18.4C84.1881 18.832 83.4361 19.152 82.5081 19.152ZM89.7909 19.152C87.4629 19.152 85.8709 17.456 85.8709 15.208C85.8709 12.968 87.4629 11.272 89.7909 11.272C90.9109 11.272 91.9189 11.688 92.5989 12.464L91.8309 13.272C91.2629 12.72 90.5829 12.392 89.7589 12.392C88.2389 12.392 87.0869 13.576 87.0869 15.208C87.0869 16.848 88.2389 18.032 89.7589 18.032C90.5829 18.032 91.3189 17.664 91.8549 17.144L92.5989 17.96C91.9109 18.736 90.9109 19.152 89.7909 19.152ZM95.8344 19H94.6344V7.48H95.8344V12.48C96.4584 11.6 97.4504 11.272 98.3704 11.272C100.242 11.272 101.53 12.472 101.53 14.304V19H100.338V14.696C100.338 13.256 99.5384 12.408 98.1544 12.408C96.8824 12.408 95.8344 13.288 95.8344 14.728V19ZM45.404 45H44.116V33.8H48.508C51.028 33.8 52.42 34.936 52.42 36.96C52.42 38.896 50.916 40.128 48.524 40.128H48.34L52.364 45H50.764L46.82 40.128H45.404V45ZM45.404 35.008V38.96H48.492C50.196 38.96 51.084 38.264 51.084 36.96C51.084 35.664 50.172 35.008 48.492 35.008H45.404ZM57.7498 45.152C55.5098 45.152 53.9178 43.56 53.9178 41.216C53.9178 38.896 55.5178 37.272 57.6778 37.272C59.7338 37.272 61.2218 38.88 61.2378 41.184C61.2378 41.336 61.2298 41.496 61.2138 41.632H55.1418C55.3098 43.264 56.4538 44.104 57.8218 44.104C58.7578 44.104 59.5738 43.744 60.2218 43.152L60.8618 43.968C59.9178 44.872 58.8618 45.152 57.7498 45.152ZM55.1578 40.664H60.0218C59.8698 39.248 58.9418 38.336 57.6538 38.336C56.2538 38.336 55.3498 39.296 55.1578 40.664ZM65.9265 45.144C64.9505 45.144 63.7265 44.904 62.7665 44.176L63.3185 43.28C63.8945 43.728 64.6625 44.104 65.9425 44.104C67.2225 44.104 68.0305 43.68 68.0305 42.88C68.0305 42.272 67.5185 41.904 66.4465 41.776L65.5425 41.672C63.8385 41.464 63.0385 40.704 63.0385 39.576C63.0385 38.144 64.2465 37.28 66.0625 37.28C67.2545 37.28 68.3425 37.616 69.0705 38.104L68.5505 39.032C68.0625 38.696 67.0945 38.32 66.0705 38.32C64.9905 38.32 64.2785 38.776 64.2785 39.512C64.2785 40.144 64.8305 40.456 65.8225 40.576L66.7185 40.688C68.3265 40.896 69.2625 41.56 69.2625 42.8C69.2625 44.24 67.9665 45.144 65.9265 45.144ZM71.9531 35.576C71.4731 35.576 71.1131 35.216 71.1131 34.736C71.1131 34.256 71.4731 33.888 71.9531 33.888C72.4251 33.888 72.8011 34.256 72.8011 34.736C72.8011 35.216 72.4251 35.576 71.9531 35.576ZM72.5531 45H71.3531V37.424H72.5531V45ZM77.8171 45.144C76.8411 45.144 75.6171 44.904 74.6571 44.176L75.2091 43.28C75.7851 43.728 76.5531 44.104 77.8331 44.104C79.1131 44.104 79.9211 43.68 79.9211 42.88C79.9211 42.272 79.4091 41.904 78.3371 41.776L77.4331 41.672C75.7291 41.464 74.9291 40.704 74.9291 39.576C74.9291 38.144 76.1371 37.28 77.9531 37.28C79.1451 37.28 80.2331 37.616 80.9611 38.104L80.4411 39.032C79.9531 38.696 78.9851 38.32 77.9611 38.32C76.8811 38.32 76.1691 38.776 76.1691 39.512C76.1691 40.144 76.7211 40.456 77.7131 40.576L78.6091 40.688C80.2171 40.896 81.1531 41.56 81.1531 42.8C81.1531 44.24 79.8571 45.144 77.8171 45.144ZM86.5238 45.152C84.8918 45.152 83.9238 44.256 83.9238 42.352V38.504H82.2678V37.424H83.9238V35.016H85.1158V37.424H88.3878V38.504H85.1158V42.328C85.1158 43.512 85.7398 44.032 86.6198 44.032C87.2038 44.032 87.7718 43.816 88.2118 43.496L88.7718 44.4C88.2038 44.832 87.4518 45.152 86.5238 45.152ZM93.6705 45.152C91.5425 45.152 89.8865 43.488 89.8865 41.208C89.8865 38.936 91.5425 37.272 93.6705 37.272C94.9185 37.272 95.8385 37.784 96.4385 38.552V37.424H97.6305V45H96.4385V43.872C95.8385 44.648 94.9185 45.152 93.6705 45.152ZM93.8145 44.032C95.3905 44.032 96.5105 42.816 96.5105 41.208C96.5105 39.608 95.3905 38.392 93.8145 38.392C92.1905 38.392 91.1025 39.648 91.1025 41.208C91.1025 42.776 92.2065 44.032 93.8145 44.032ZM101.631 45H100.431V37.424H101.615V38.504C102.231 37.6 103.239 37.272 104.167 37.272C106.039 37.272 107.327 38.472 107.327 40.304V45H106.135V40.696C106.135 39.256 105.335 38.408 103.951 38.408C102.679 38.408 101.631 39.288 101.631 40.728V45ZM113.385 45.152C111.057 45.152 109.465 43.456 109.465 41.208C109.465 38.968 111.057 37.272 113.385 37.272C114.505 37.272 115.513 37.688 116.193 38.464L115.425 39.272C114.857 38.72 114.177 38.392 113.353 38.392C111.833 38.392 110.681 39.576 110.681 41.208C110.681 42.848 111.833 44.032 113.353 44.032C114.177 44.032 114.913 43.664 115.449 43.144L116.193 43.96C115.505 44.736 114.505 45.152 113.385 45.152ZM121.344 45.152C119.104 45.152 117.512 43.56 117.512 41.216C117.512 38.896 119.112 37.272 121.272 37.272C123.328 37.272 124.816 38.88 124.832 41.184C124.832 41.336 124.824 41.496 124.808 41.632H118.736C118.904 43.264 120.048 44.104 121.416 44.104C122.352 44.104 123.168 43.744 123.816 43.152L124.456 43.968C123.512 44.872 122.456 45.152 121.344 45.152ZM118.752 40.664H123.616C123.464 39.248 122.536 38.336 121.248 38.336C119.848 38.336 118.944 39.296 118.752 40.664Z" fill="white"/>
<path d="M164.46 6.91306L147.678 12.7165C147.233 12.8709 146.868 13.1954 146.662 13.6188C146.456 14.0422 146.427 14.53 146.58 14.9751L156.639 44.0644C156.794 44.5092 157.118 44.8746 157.542 45.0804C157.965 45.2862 158.453 45.3157 158.898 45.1623L175.68 39.3588C176.125 39.2045 176.49 38.88 176.696 38.4566C176.902 38.0331 176.931 37.5454 176.778 37.1002L166.719 8.01094C166.564 7.56617 166.24 7.20078 165.816 6.99496C165.393 6.78913 164.905 6.75968 164.46 6.91306ZM175.659 37.4871C175.71 37.6355 175.7 37.7981 175.632 37.9392C175.563 38.0804 175.441 38.1885 175.293 38.24L158.511 44.0435C158.363 44.0946 158.2 44.0847 158.059 44.0161C157.918 43.9475 157.81 43.8257 157.758 43.6775L147.699 14.5882C147.648 14.4398 147.658 14.2773 147.726 14.1361C147.795 13.995 147.917 13.8868 148.065 13.8353L164.847 8.03188C164.995 7.98079 165.158 7.99062 165.299 8.05923C165.44 8.12783 165.548 8.2496 165.6 8.39784L175.659 37.4871Z" fill="#EBE8E2" stroke="#EBE8E2" stroke-width="0.216667"/>
<path d="M156.767 13.6461L157.886 13.2592C158.034 13.2079 158.156 13.0997 158.225 12.9585C158.294 12.8174 158.303 12.6547 158.252 12.5063C158.201 12.358 158.093 12.236 157.951 12.1674C157.81 12.0988 157.648 12.0891 157.499 12.1404L156.38 12.5273C156.232 12.5786 156.11 12.6867 156.042 12.8279C155.973 12.9691 155.963 13.1317 156.014 13.2801C156.066 13.4285 156.174 13.5504 156.315 13.619C156.456 13.6876 156.619 13.6974 156.767 13.6461Z" fill="#EBE8E2"/>
<path d="M168.086 38.2239L164.17 39.578C164.022 39.6293 163.9 39.7375 163.832 39.8787C163.763 40.0199 163.753 40.1825 163.805 40.3309C163.856 40.4793 163.964 40.6012 164.105 40.6698C164.246 40.7384 164.409 40.7482 164.557 40.6969L168.473 39.3427C168.622 39.2914 168.743 39.1833 168.812 39.0421C168.881 38.9009 168.89 38.7382 168.839 38.5899C168.788 38.4415 168.68 38.3196 168.538 38.251C168.397 38.1823 168.235 38.1726 168.086 38.2239Z" fill="#EBE8E2"/>
<path d="M154.101 42.7564C154.042 42.5274 153.991 42.3186 153.949 42.1426C154.053 42.3227 154.099 42.5308 154.101 42.7564C154.403 43.9272 154.901 45.6229 155.283 46.1316C155.854 46.8919 157.376 47.6534 158.517 47.2753L161.939 46.1408L162.32 47.2805C161.306 47.7221 159.24 48.8711 159.089 49.9342C158.455 49.3004 156.844 48.3362 155.476 49.5495C155.095 48.4097 153.952 46.1298 152.431 46.1277C153.062 45.3925 154.113 43.8631 154.101 42.7564Z" fill="#EBE8E2"/>
<path d="M193.332 19H189.116V7.8H193.332C196.988 7.8 199.308 9.984 199.308 13.4C199.308 16.816 196.988 19 193.332 19ZM190.404 9.016V17.784H193.332C196.364 17.784 197.956 16.024 197.956 13.4C197.956 10.76 196.364 9.016 193.332 9.016H190.404ZM202.873 19H201.681V11.424H202.865V12.488C203.385 11.712 204.185 11.272 205.113 11.272C205.657 11.272 206.105 11.344 206.505 11.528L206.217 12.704C205.849 12.504 205.345 12.4 204.905 12.4C203.721 12.4 202.873 13.328 202.873 14.76V19ZM211.417 19.152C209.137 19.152 207.433 17.456 207.433 15.208C207.433 12.968 209.137 11.272 211.417 11.272C213.697 11.272 215.409 12.968 215.409 15.208C215.409 17.456 213.697 19.152 211.417 19.152ZM211.417 18.032C212.985 18.032 214.185 16.848 214.185 15.208C214.185 13.576 212.985 12.392 211.417 12.392C209.841 12.392 208.649 13.576 208.649 15.208C208.649 16.848 209.841 18.032 211.417 18.032ZM218.834 22.2H217.634V11.424H218.834V12.544C219.434 11.776 220.346 11.272 221.594 11.272C223.722 11.272 225.378 12.936 225.378 15.208C225.378 17.488 223.722 19.152 221.594 19.152C220.346 19.152 219.434 18.648 218.834 17.88V22.2ZM221.45 18.032C223.074 18.032 224.154 16.776 224.154 15.208C224.154 13.648 223.058 12.392 221.45 12.392C219.866 12.392 218.754 13.608 218.754 15.208C218.754 16.816 219.866 18.032 221.45 18.032ZM190.404 45H189.116V33.8H193.508C196.028 33.8 197.42 34.936 197.42 36.96C197.42 38.896 195.916 40.128 193.524 40.128H193.34L197.364 45H195.764L191.82 40.128H190.404V45ZM190.404 35.008V38.96H193.492C195.196 38.96 196.084 38.264 196.084 36.96C196.084 35.664 195.172 35.008 193.492 35.008H190.404ZM202.75 45.152C200.51 45.152 198.918 43.56 198.918 41.216C198.918 38.896 200.518 37.272 202.678 37.272C204.734 37.272 206.222 38.88 206.238 41.184C206.238 41.336 206.23 41.496 206.214 41.632H200.142C200.31 43.264 201.454 44.104 202.822 44.104C203.758 44.104 204.574 43.744 205.222 43.152L205.862 43.968C204.918 44.872 203.862 45.152 202.75 45.152ZM200.158 40.664H205.022C204.87 39.248 203.942 38.336 202.654 38.336C201.254 38.336 200.35 39.296 200.158 40.664ZM210.927 45.144C209.951 45.144 208.727 44.904 207.767 44.176L208.319 43.28C208.895 43.728 209.663 44.104 210.943 44.104C212.223 44.104 213.031 43.68 213.031 42.88C213.031 42.272 212.519 41.904 211.447 41.776L210.543 41.672C208.839 41.464 208.039 40.704 208.039 39.576C208.039 38.144 209.247 37.28 211.062 37.28C212.255 37.28 213.343 37.616 214.071 38.104L213.551 39.032C213.063 38.696 212.095 38.32 211.071 38.32C209.991 38.32 209.279 38.776 209.279 39.512C209.279 40.144 209.831 40.456 210.823 40.576L211.719 40.688C213.327 40.896 214.263 41.56 214.263 42.8C214.263 44.24 212.967 45.144 210.927 45.144ZM216.953 35.576C216.473 35.576 216.113 35.216 216.113 34.736C216.113 34.256 216.473 33.888 216.953 33.888C217.425 33.888 217.801 34.256 217.801 34.736C217.801 35.216 217.425 35.576 216.953 35.576ZM217.553 45H216.353V37.424H217.553V45ZM222.817 45.144C221.841 45.144 220.617 44.904 219.657 44.176L220.209 43.28C220.785 43.728 221.553 44.104 222.833 44.104C224.113 44.104 224.921 43.68 224.921 42.88C224.921 42.272 224.409 41.904 223.337 41.776L222.433 41.672C220.729 41.464 219.929 40.704 219.929 39.576C219.929 38.144 221.137 37.28 222.953 37.28C224.145 37.28 225.233 37.616 225.961 38.104L225.441 39.032C224.953 38.696 223.985 38.32 222.961 38.32C221.881 38.32 221.169 38.776 221.169 39.512C221.169 40.144 221.721 40.456 222.713 40.576L223.609 40.688C225.217 40.896 226.153 41.56 226.153 42.8C226.153 44.24 224.857 45.144 222.817 45.144ZM231.524 45.152C229.892 45.152 228.924 44.256 228.924 42.352V38.504H227.268V37.424H228.924V35.016H230.116V37.424H233.388V38.504H230.116V42.328C230.116 43.512 230.74 44.032 231.62 44.032C232.204 44.032 232.772 43.816 233.212 43.496L233.772 44.4C233.204 44.832 232.452 45.152 231.524 45.152ZM238.671 45.152C236.543 45.152 234.887 43.488 234.887 41.208C234.887 38.936 236.543 37.272 238.671 37.272C239.919 37.272 240.839 37.784 241.439 38.552V37.424H242.631V45H241.439V43.872C240.839 44.648 239.919 45.152 238.671 45.152ZM238.815 44.032C240.391 44.032 241.511 42.816 241.511 41.208C241.511 39.608 240.391 38.392 238.815 38.392C237.191 38.392 236.103 39.648 236.103 41.208C236.103 42.776 237.207 44.032 238.815 44.032ZM246.631 45H245.431V37.424H246.615V38.504C247.231 37.6 248.239 37.272 249.167 37.272C251.039 37.272 252.327 38.472 252.327 40.304V45H251.135V40.696C251.135 39.256 250.335 38.408 248.951 38.408C247.679 38.408 246.631 39.288 246.631 40.728V45ZM258.385 45.152C256.057 45.152 254.465 43.456 254.465 41.208C254.465 38.968 256.057 37.272 258.385 37.272C259.505 37.272 260.513 37.688 261.193 38.464L260.425 39.272C259.857 38.72 259.177 38.392 258.353 38.392C256.833 38.392 255.681 39.576 255.681 41.208C255.681 42.848 256.833 44.032 258.353 44.032C259.177 44.032 259.913 43.664 260.449 43.144L261.193 43.96C260.505 44.736 259.505 45.152 258.385 45.152ZM266.344 45.152C264.104 45.152 262.512 43.56 262.512 41.216C262.512 38.896 264.112 37.272 266.272 37.272C268.328 37.272 269.816 38.88 269.832 41.184C269.832 41.336 269.824 41.496 269.808 41.632H263.736C263.904 43.264 265.048 44.104 266.416 44.104C267.352 44.104 268.168 43.744 268.816 43.152L269.456 43.968C268.512 44.872 267.456 45.152 266.344 45.152ZM263.752 40.664H268.616C268.464 39.248 267.536 38.336 266.248 38.336C264.848 38.336 263.944 39.296 263.752 40.664Z" fill="white"/>
</svg>
