<svg width="57" height="56" viewBox="0 0 57 56" fill="none" xmlns="http://www.w3.org/2000/svg">
<path d="M48.3333 22.168C51.8333 22.168 51.8333 23.3346 51.8333 25.668V30.3346C51.8333 32.668 51.8333 33.8346 48.3333 33.8346" stroke="#FF0037" stroke-width="3" stroke-linecap="round" stroke-linejoin="round"/>
<path d="M15.3867 23.332C16.1567 26.3887 16.1567 29.6087 15.3867 32.6654" stroke="#FF0037" stroke-width="3" stroke-linecap="round" stroke-linejoin="round"/>
<path d="M23.5532 23.332C24.3232 26.3887 24.3232 29.6087 23.5532 32.6654" stroke="#FF0037" stroke-width="3" stroke-linecap="round" stroke-linejoin="round"/>
<path d="M31.72 23.332C32.49 26.3887 32.49 29.6087 31.72 32.6654" stroke="#FF0037" stroke-width="3" stroke-linecap="round" stroke-linejoin="round"/>
<path d="M30.8334 44.3346H16.8334C7.50008 44.3346 5.16675 42.0013 5.16675 32.668V23.3346C5.16675 14.0013 7.50008 11.668 16.8334 11.668H30.8334C40.1667 11.668 42.5001 14.0013 42.5001 23.3346V32.668C42.5001 42.0013 40.1667 44.3346 30.8334 44.3346Z" stroke="#FF0037" stroke-width="3" stroke-linecap="round" stroke-linejoin="round"/>
</svg>
