<svg width="55" height="55" viewBox="0 0 55 55" fill="none" xmlns="http://www.w3.org/2000/svg">
<rect x="1" width="54" height="54" rx="8" fill="#D9D9D9"/>
<g clip-path="url(#clip0_7561_74855)">
<path d="M37.9062 16.875H13.625C12.705 16.875 11.8227 17.2306 11.1722 17.8635C10.5217 18.4964 10.1563 19.3549 10.1562 20.25V33.75C10.1563 34.6451 10.5217 35.5036 11.1722 36.1365C11.8227 36.7694 12.705 37.125 13.625 37.125H37.9062C38.8262 37.125 39.7085 36.7694 40.359 36.1365C41.0095 35.5036 41.375 34.6451 41.375 33.75V20.25C41.375 19.3549 41.0095 18.4964 40.359 17.8635C39.7085 17.2306 38.8262 16.875 37.9062 16.875ZM39.0625 33.75C39.0625 34.0484 38.9407 34.3345 38.7238 34.5455C38.507 34.7565 38.2129 34.875 37.9062 34.875H13.625C13.3183 34.875 13.0242 34.7565 12.8074 34.5455C12.5906 34.3345 12.4688 34.0484 12.4688 33.75V20.25C12.4688 19.9516 12.5906 19.6655 12.8074 19.4545C13.0242 19.2435 13.3183 19.125 13.625 19.125H37.9062C38.2129 19.125 38.507 19.2435 38.7238 19.4545C38.9407 19.6655 39.0625 19.9516 39.0625 20.25V33.75ZM35.5938 22.5V31.5C35.5938 31.7984 35.4719 32.0845 35.2551 32.2955C35.0383 32.5065 34.7442 32.625 34.4375 32.625C34.1308 32.625 33.8367 32.5065 33.6199 32.2955C33.4031 32.0845 33.2812 31.7984 33.2812 31.5V22.5C33.2812 22.2016 33.4031 21.9155 33.6199 21.7045C33.8367 21.4935 34.1308 21.375 34.4375 21.375C34.7442 21.375 35.0383 21.4935 35.2551 21.7045C35.4719 21.9155 35.5938 22.2016 35.5938 22.5ZM29.8125 22.5V31.5C29.8125 31.7984 29.6907 32.0845 29.4738 32.2955C29.257 32.5065 28.9629 32.625 28.6562 32.625C28.3496 32.625 28.0555 32.5065 27.8387 32.2955C27.6218 32.0845 27.5 31.7984 27.5 31.5V22.5C27.5 22.2016 27.6218 21.9155 27.8387 21.7045C28.0555 21.4935 28.3496 21.375 28.6562 21.375C28.9629 21.375 29.257 21.4935 29.4738 21.7045C29.6907 21.9155 29.8125 22.2016 29.8125 22.5ZM24.0312 22.5V31.5C24.0312 31.7984 23.9094 32.0845 23.6926 32.2955C23.4758 32.5065 23.1817 32.625 22.875 32.625C22.5683 32.625 22.2742 32.5065 22.0574 32.2955C21.8406 32.0845 21.7188 31.7984 21.7188 31.5V22.5C21.7188 22.2016 21.8406 21.9155 22.0574 21.7045C22.2742 21.4935 22.5683 21.375 22.875 21.375C23.1817 21.375 23.4758 21.4935 23.6926 21.7045C23.9094 21.9155 24.0312 22.2016 24.0312 22.5ZM18.25 22.5V31.5C18.25 31.7984 18.1282 32.0845 17.9113 32.2955C17.6945 32.5065 17.4004 32.625 17.0938 32.625C16.7871 32.625 16.493 32.5065 16.2762 32.2955C16.0593 32.0845 15.9375 31.7984 15.9375 31.5V22.5C15.9375 22.2016 16.0593 21.9155 16.2762 21.7045C16.493 21.4935 16.7871 21.375 17.0938 21.375C17.4004 21.375 17.6945 21.4935 17.9113 21.7045C18.1282 21.9155 18.25 22.2016 18.25 22.5ZM46 22.5V31.5C46 31.7984 45.8782 32.0845 45.6613 32.2955C45.4445 32.5065 45.1504 32.625 44.8438 32.625C44.5371 32.625 44.243 32.5065 44.0262 32.2955C43.8093 32.0845 43.6875 31.7984 43.6875 31.5V22.5C43.6875 22.2016 43.8093 21.9155 44.0262 21.7045C44.243 21.4935 44.5371 21.375 44.8438 21.375C45.1504 21.375 45.4445 21.4935 45.6613 21.7045C45.8782 21.9155 46 22.2016 46 22.5Z" fill="#1C1B1B" stroke="#D9D9D9" stroke-width="0.4"/>
</g>
<defs>
<clipPath id="clip0_7561_74855">
<rect width="37" height="36" fill="white" transform="translate(9 9)"/>
</clipPath>
</defs>
</svg>
