<svg width="56" height="56" viewBox="0 0 56 56" fill="none" xmlns="http://www.w3.org/2000/svg">
<g id="vuesax/twotone/call">
<g id="vuesax/twotone/call_2">
<g id="call">
<g id="call_2">
<path id="Vector" d="M48.5129 41.2082C48.5129 41.9593 48.346 42.7312 47.9914 43.4822C47.6367 44.2332 47.1778 44.9425 46.5728 45.6101C45.5505 46.7367 44.424 47.5503 43.1514 48.0718C41.8997 48.5934 40.5437 48.8646 39.0833 48.8646C36.9554 48.8646 34.6814 48.3639 32.2823 47.3417C29.8832 46.3194 27.4841 44.9425 25.1058 43.211C22.7067 41.4586 20.4327 39.5184 18.2631 37.3696C16.1143 35.2 14.1741 32.926 12.4426 30.5478C10.7319 28.1695 9.355 25.7912 8.35362 23.4338C7.35225 21.0556 6.85156 18.7816 6.85156 16.612C6.85156 15.1933 7.10191 13.8373 7.60259 12.5856C8.10328 11.313 8.89604 10.1447 10.0017 9.10165C11.3369 7.78735 12.7972 7.14062 14.341 7.14062C14.9251 7.14062 15.5093 7.2658 16.0308 7.51614C16.5732 7.76648 17.0531 8.142 17.4286 8.68441L22.2686 15.5063C22.6441 16.0278 22.9153 16.5077 23.103 16.9666C23.2908 17.4047 23.3951 17.8428 23.3951 18.2392C23.3951 18.7399 23.2491 19.2406 22.957 19.7204C22.6858 20.2002 22.2894 20.7009 21.7887 21.2016L20.2032 22.8497C19.9737 23.0792 19.8694 23.3504 19.8694 23.6842C19.8694 23.8511 19.8903 23.9971 19.932 24.164C19.9946 24.3309 20.0572 24.4561 20.0989 24.5812C20.4744 25.2697 21.1212 26.1667 22.0391 27.2516C22.9779 28.3364 23.9792 29.4421 25.0641 30.5478C26.1906 31.6534 27.2754 32.6757 28.3811 33.6145C29.4659 34.5324 30.363 35.1583 31.0723 35.5338C31.1766 35.5755 31.3018 35.6381 31.4478 35.7007C31.6147 35.7633 31.7816 35.7841 31.9694 35.7841C32.324 35.7841 32.5952 35.6589 32.8247 35.4295L34.4102 33.8648C34.9318 33.3433 35.4325 32.9469 35.9123 32.6965C36.3921 32.4045 36.8719 32.2584 37.3935 32.2584C37.7899 32.2584 38.2071 32.3419 38.6661 32.5297C39.125 32.7174 39.6049 32.9886 40.1264 33.3433L47.0317 38.2458C47.5741 38.6213 47.9497 39.0594 48.1791 39.581C48.3878 40.1025 48.5129 40.6241 48.5129 41.2082Z" stroke="#FF0037" stroke-width="3" stroke-miterlimit="10"/>
</g>
</g>
</g>
<path id="Vector_2" d="M42.4808 16.1704L47.2784 11.2189C47.5859 10.9253 47.6013 10.7111 47.2784 10.362L40.5818 3.45049C40.3973 3.26005 40.0591 3.38702 40.0591 3.65681V12.7901C40.0591 13.1075 39.9975 13.2027 39.7284 12.9329C39.7284 12.9329 37.1837 10.3064 36.7993 9.90965C36.4072 9.5129 35.9766 9.76681 35.9766 10.2509V12.0283C35.9766 12.2902 36.015 12.3537 36.1919 12.5441L39.7054 16.1783L36.1919 19.8126C36.0073 20.003 35.9766 20.0666 35.9766 20.3284V22.1059C35.9766 22.5899 36.4072 22.8438 36.7993 22.4471C37.1837 22.0503 39.7284 19.4238 39.7284 19.4238C39.9975 19.154 40.0591 19.2492 40.0591 19.5666V28.7078C40.0591 28.9697 40.405 29.0966 40.5818 28.9141L47.2784 22.0027C47.5936 21.6536 47.5782 21.4393 47.2784 21.1457L42.4808 16.1942V16.1704ZM42.1272 8.1401C42.1272 8.03694 42.1887 8.00519 42.2579 8.08455L44.6105 10.5127C44.6874 10.592 44.6797 10.7111 44.6105 10.7825L42.2656 13.0757C42.1887 13.1472 42.1272 13.1233 42.1272 13.0122V8.14804V8.1401ZM44.6105 21.8281L42.2579 24.2562C42.1887 24.3356 42.1272 24.3038 42.1272 24.2007V19.3286C42.1272 19.2254 42.1887 19.1937 42.2656 19.273L44.6105 21.5583C44.6874 21.6298 44.6874 21.7487 44.6105 21.8281Z" fill="#FF0037" stroke="#FF0037" stroke-width="0.1"/>
</g>
</svg>
