<svg width="54" height="54" viewBox="0 0 54 54" fill="none" xmlns="http://www.w3.org/2000/svg">
<g id="Frame 1973341142">
<rect width="54" height="54" rx="8" fill="#D9D9D9"/>
<g id="vuesax/twotone/camera">
<g id="camera">
<path id="Vector" d="M19.3622 41.5846H34.6455C38.6705 41.5846 40.2747 39.1201 40.4642 36.1159L41.2226 24.0701C41.4267 20.9201 38.9184 18.2513 35.7538 18.2513C34.8642 18.2513 34.0476 17.7409 33.6392 16.9534L32.5892 14.8388C31.9184 13.5117 30.1684 12.418 28.6809 12.418H25.3413C23.8392 12.418 22.0892 13.5117 21.4184 14.8388L20.3684 16.9534C19.9601 17.7409 19.1434 18.2513 18.2538 18.2513C15.0892 18.2513 12.5809 20.9201 12.7851 24.0701L13.5434 36.1159C13.7184 39.1201 15.3372 41.5846 19.3622 41.5846Z" stroke="#1C1B1B" stroke-width="2" stroke-linecap="round" stroke-linejoin="round"/>
<path id="Vector_2" d="M24.8125 21.168H29.1875" stroke="#1C1B1B" stroke-width="2" stroke-linecap="round" stroke-linejoin="round"/>
<path id="Vector_3" d="M26.9974 35.7487C29.6078 35.7487 31.737 33.6195 31.737 31.0091C31.737 28.3987 29.6078 26.2695 26.9974 26.2695C24.387 26.2695 22.2578 28.3987 22.2578 31.0091C22.2578 33.6195 24.387 35.7487 26.9974 35.7487Z" stroke="#1C1B1B" stroke-width="2" stroke-linecap="round" stroke-linejoin="round"/>
</g>
</g>
</g>
</svg>
