<svg width="54" height="54" viewBox="0 0 54 54" fill="none" xmlns="http://www.w3.org/2000/svg">
<g id="Frame 1973341147">
<rect width="54" height="54" rx="8" fill="#D9D9D9"/>
<g id="airdrop">
<path id="Vector" d="M30.8826 25.7927C31.5925 22.8078 28.9896 20.205 26.0044 20.9148C24.6028 21.2607 23.456 22.4073 23.1102 23.8088C22.4003 26.7937 25.0032 29.3964 27.9884 28.6866C29.4082 28.3408 30.555 27.1942 30.8826 25.7927Z" stroke="#1C1B1B" stroke-width="1.81928" stroke-linecap="round" stroke-linejoin="round"/>
<path id="Vector_2" d="M37.9397 36.4438C41.0523 33.5317 43 29.4001 43 24.7953C43 15.9497 35.8282 8.79688 27 8.79688C18.1718 8.79688 11 15.9679 11 24.7953C11 29.4183 12.9659 33.5862 16.1149 36.4983" stroke="#1C1B1B" stroke-width="1.81928" stroke-linecap="round" stroke-linejoin="round"/>
<path id="Vector_3" d="M19.7122 31.6404C18.0376 29.8567 17 27.4542 17 24.7969C17 19.2821 21.4778 14.8047 26.9932 14.8047C32.5086 14.8047 36.9864 19.2821 36.9864 24.7969C36.9864 27.4542 35.9488 29.8385 34.2742 31.6404" stroke="#1C1B1B" stroke-width="1.81928" stroke-linecap="round" stroke-linejoin="round"/>
<path id="Vector_4" d="M23.8966 35.4801L21.2754 38.7381C19.2004 41.3408 21.0388 45.1811 24.3699 45.1811H29.594C32.925 45.1811 34.7817 41.3226 32.6884 38.7381L30.0673 35.4801C28.5018 33.4962 25.4802 33.4962 23.8966 35.4801Z" stroke="#1C1B1B" stroke-width="1.81928" stroke-linecap="round" stroke-linejoin="round"/>
</g>
</g>
</svg>
