<svg width="55" height="55" viewBox="0 0 55 55" fill="none" xmlns="http://www.w3.org/2000/svg">
<g id="Frame 1973341148">
<rect x="0.1875" y="0.34375" width="54" height="54" rx="8" fill="#D9D9D9"/>
<g id="Group 1973339897">
<rect id="Rectangle 293029805" x="16.6875" y="8.84375" width="21" height="37" rx="2" stroke="#1C1B1B" stroke-width="1.8"/>
<rect id="Rectangle 293029806" x="20" y="12" width="14" height="15" rx="1" stroke="#1C1B1B" stroke-width="1.6"/>
<g id="Group 1973339896">
<rect id="Rectangle 293029807" x="19.6875" y="40.5" width="4.5" height="2" rx="1" fill="#1C1B1B"/>
<rect id="Rectangle 293029810" x="19.6875" y="37" width="4.5" height="2" rx="1" fill="#1C1B1B"/>
<rect id="Rectangle 293029813" x="19.6875" y="33.5" width="4.5" height="2" rx="1" fill="#1C1B1B"/>
<rect id="Rectangle 293029816" x="19.6875" y="30" width="4.5" height="2" rx="1" fill="#1C1B1B"/>
<rect id="Rectangle 293029808" x="25.1875" y="40.5" width="4.5" height="2" rx="1" fill="#1C1B1B"/>
<rect id="Rectangle 293029811" x="25.1875" y="37" width="4.5" height="2" rx="1" fill="#1C1B1B"/>
<rect id="Rectangle 293029814" x="25.1875" y="33.5" width="4.5" height="2" rx="1" fill="#1C1B1B"/>
<rect id="Rectangle 293029817" x="25.1875" y="30" width="4.5" height="2" rx="1" fill="#1C1B1B"/>
<rect id="Rectangle 293029809" x="30.6875" y="40.5" width="4.5" height="2" rx="1" fill="#1C1B1B"/>
<rect id="Rectangle 293029812" x="30.6875" y="37" width="4.5" height="2" rx="1" fill="#1C1B1B"/>
<rect id="Rectangle 293029815" x="30.6875" y="33.5" width="4.5" height="2" rx="1" fill="#1C1B1B"/>
<rect id="Rectangle 293029818" x="30.6875" y="30" width="4.5" height="2" rx="1" fill="#1C1B1B"/>
</g>
</g>
</g>
</svg>
