<svg width="55" height="55" viewBox="0 0 55 55" fill="none" xmlns="http://www.w3.org/2000/svg">
<rect x="1" width="54" height="54" rx="8" fill="#D9D9D9"/>
<path d="M12.6216 38.0583C13.4394 38.2912 14.3607 38.167 15.3493 37.7788C17.0107 37.1215 18.9206 35.6671 20.7684 33.9228C22.1038 32.6651 24.5416 32.0336 27.0104 32.0336C29.4793 32.0336 31.9171 32.6651 33.2525 33.9228C35.1003 35.6671 37.0102 37.1215 38.6716 37.7788C39.655 38.167 40.5815 38.2912 41.3993 38.0583C42.2636 37.8099 42.9624 37.1939 43.4178 36.1174C43.8733 35.046 44.0907 33.4777 43.9923 31.2987C43.9044 29.3525 43.5731 27.1787 43.0711 25.1549C42.5845 23.2037 41.9272 21.3766 41.156 19.9998C38.2213 14.7567 34.9968 15.5745 31.1252 16.5579C29.8934 16.8684 28.5891 17.2049 27.2278 17.3187H26.8034C25.4422 17.2049 24.1379 16.8684 22.906 16.5579C19.0293 15.5745 15.81 14.7567 12.8753 19.9998C12.1041 21.3766 11.4467 23.2037 10.9602 25.1549C10.453 27.1787 10.1269 29.3525 10.0389 31.2987C9.94056 33.4777 10.1579 35.046 10.6134 36.1174C11.0585 37.1939 11.7573 37.8099 12.6216 38.0583ZM11.5916 31.3659C11.6745 29.5285 11.9902 27.4685 12.4715 25.5328C12.927 23.7109 13.5326 22.0184 14.2365 20.7658C16.5863 16.5734 19.2726 17.2566 22.5127 18.0796C23.8066 18.4108 25.1782 18.7576 26.674 18.887C26.7051 18.8922 26.7361 18.8922 26.7672 18.8922H27.2485C27.2692 18.8922 27.2899 18.8922 27.3106 18.887C28.8168 18.7628 30.1988 18.4108 31.5031 18.0796C34.7431 17.2566 37.4294 16.5734 39.7792 20.7658C40.4831 22.0184 41.0887 23.7109 41.5442 25.5328C42.0307 27.4685 42.3413 29.5285 42.4241 31.3659C42.5121 33.2965 42.3413 34.6422 41.9686 35.5066C41.715 36.1018 41.3682 36.4331 40.9593 36.547C40.4987 36.6763 39.9138 36.5832 39.2409 36.314C37.7762 35.7343 36.0371 34.399 34.3187 32.7738C32.6832 31.2262 29.8313 30.455 27.0053 30.455C24.1793 30.455 21.3274 31.2262 19.6918 32.7738C17.9734 34.3938 16.2344 35.7343 14.7696 36.314C14.0968 36.578 13.5119 36.6763 13.0512 36.547C12.6423 36.4331 12.2956 36.1018 12.0419 35.5066C11.6745 34.6422 11.5037 33.2965 11.5916 31.3659Z" fill="#1C1B1B" stroke="#1C1B1B" stroke-width="0.4"/>
<path d="M15.3125 24.3407C15.3125 24.053 15.4288 23.7898 15.6247 23.6C15.6369 23.5878 15.6492 23.5755 15.6614 23.5633C15.8451 23.3919 16.096 23.2939 16.3654 23.2939H17.051C18 23.2939 17.9814 23.2939 17.9814 22.3635V21.6779C17.9814 21.3902 18.0977 21.127 18.2936 20.9372C18.4834 20.7474 18.7466 20.625 19.0343 20.625C19.322 20.625 19.5852 20.7413 19.775 20.9372C19.7872 20.9494 19.7995 20.9617 19.8117 20.9739C19.9831 21.1576 20.0811 21.4085 20.0811 21.6779V22.3635C20.0811 23 20.0811 23.2939 21.0115 23.2939H21.6971C21.9848 23.2939 22.248 23.4102 22.4378 23.6C22.6276 23.7898 22.75 24.053 22.75 24.3407C22.75 24.6284 22.6337 24.8916 22.4378 25.0814C22.248 25.2711 21.9848 25.3936 21.6971 25.3936H21.0115C20.0811 25.3936 20.0811 25.5 20.0811 26.324V27.0096C20.0811 27.2973 19.9648 27.5605 19.775 27.7503C19.5852 27.9401 19.322 28.0625 19.0343 28.0625C18.7466 28.0625 18.4834 27.9462 18.2936 27.7503C18.0977 27.5605 17.9753 27.2973 17.9753 27.0096V26.324C17.9753 25.3936 17.9753 25.3936 17.0449 25.3936H16.3593C16.0716 25.3936 15.8083 25.2773 15.6186 25.0814C15.4288 24.8977 15.3125 24.6345 15.3125 24.3407Z" fill="#1C1B1B"/>
<path d="M34.0674 27.693C34.5865 27.1739 34.5865 26.3339 34.0674 25.8148C33.5482 25.2956 32.7083 25.2956 32.1891 25.8148C31.67 26.3339 31.67 27.1739 32.1891 27.693C32.7116 28.2089 33.5482 28.2122 34.0674 27.693Z" fill="#1C1B1B" stroke="#1C1B1B" stroke-width="0.2"/>
<path d="M37.2314 23.5719C37.7506 23.0528 37.7506 22.2129 37.2314 21.6937C36.7123 21.1745 35.8724 21.1745 35.3532 21.6937C34.834 22.2129 34.834 23.0528 35.3532 23.5719C35.8757 24.0878 36.7156 24.0878 37.2314 23.5719Z" fill="#1C1B1B" stroke="#1C1B1B" stroke-width="0.2"/>
</svg>
