<svg width="56" height="56" viewBox="0 0 56 56" fill="none" xmlns="http://www.w3.org/2000/svg">
<path d="M43.6143 23.3978C43.6143 22.857 43.6143 22.3294 43.6143 21.7886C43.6143 19.19 43.6143 16.5783 43.6143 13.9797C43.6143 11.6054 43.6143 9.24424 43.6143 6.86992C43.6143 6.50058 43.6407 6.13122 43.5747 5.77508C43.1657 3.57224 41.3451 2.01578 39.1815 2.02897C37.1894 2.02897 35.1974 2.02897 33.2052 2.02897C30.7382 2.02897 28.2711 2.02897 25.8041 2.02897C24.6035 2.02897 23.403 1.93661 22.2025 2.08171C20.8964 2.23999 19.907 2.92591 19.1682 3.98117C18.403 5.0628 18.2974 6.3027 18.4162 7.58219C18.4557 8.05705 18.746 8.29452 19.1682 8.28133C19.6035 8.26814 19.8938 7.97793 19.907 7.51625C19.907 7.13372 19.907 6.738 19.907 6.35547C19.9465 4.83854 21.2262 3.53265 22.7698 3.53265C28.2052 3.50627 33.6405 3.53265 39.076 3.53265C39.7356 3.53265 40.3425 3.73052 40.8702 4.12624C41.7146 4.7462 42.0839 5.60364 42.0839 6.6457C42.0839 15.3779 42.0839 24.0969 42.0839 32.8291C42.0839 35.2958 42.0839 37.7624 42.0839 40.2291C42.0839 40.9018 41.8992 41.5086 41.4902 42.0494C41.0417 42.6298 40.4612 42.9991 39.762 43.1706C39.2871 43.2893 39.0101 43.7246 39.142 44.1335C39.2739 44.5688 39.696 44.7799 40.171 44.6348C40.2501 44.6084 40.3425 44.5952 40.4216 44.5689C41.6881 44.1599 42.6249 43.3685 43.1922 42.1681C43.5484 41.4031 43.6011 40.5984 43.6011 39.7542C43.5879 34.3065 43.6011 28.8587 43.6011 23.411L43.6143 23.3978Z" fill="#FF0037" stroke="#FF0037" stroke-width="0.8"/>
<path d="M26.0956 5.03736C26.056 4.64164 25.779 4.40423 25.3568 4.40423C24.9742 4.40423 24.6576 4.66799 24.6048 5.01095C24.4333 6.46192 25.4491 7.62277 26.9135 7.63596C28.2988 7.63596 29.684 7.63596 31.0561 7.63596C32.4017 7.63596 33.7606 7.63596 35.1063 7.63596C35.4229 7.63596 35.7131 7.59631 36.0033 7.4776C37.006 7.05549 37.5205 6.0662 37.3886 5.01095C37.349 4.6548 37.0587 4.41742 36.7025 4.40423C36.2012 4.37785 35.9242 4.62847 35.8978 5.1429C35.845 5.94753 35.6471 6.14539 34.816 6.1322C34.1036 6.1322 33.378 6.1058 32.6655 6.1058C30.7394 6.1058 28.8133 6.1058 26.8739 6.1058C26.399 6.1058 26.122 5.8288 26.0824 5.36712C26.0824 5.2616 26.0824 5.15608 26.0824 5.05056L26.0956 5.03736Z" fill="#FF0037"/>
<path d="M37.6301 38.985C37.6301 38.985 37.6301 38.9455 37.6301 38.9323C37.6301 38.8927 37.6301 38.8663 37.6301 38.8267C37.6961 38.7344 37.6697 38.6157 37.6697 38.5102C37.6697 33.0492 37.6697 27.5883 37.6697 22.1142C37.6697 22.0087 37.7093 21.9032 37.6169 21.8108C37.6169 21.6394 37.6169 21.4679 37.6169 21.2964C37.6433 21.1249 37.6433 20.9534 37.6169 20.7687V20.4522C37.6301 20.0169 37.6565 19.5948 37.6169 19.1595C37.6169 18.9748 37.6169 18.777 37.6169 18.5923C37.6565 18.434 37.6433 18.2757 37.6169 18.1306C37.6169 17.9195 37.6169 17.7085 37.6169 17.4975C37.6169 16.4554 37.6697 15.4134 37.6169 14.3845C37.4982 12.2476 35.9151 10.5724 33.7911 10.269C32.9335 10.1503 32.076 10.1898 31.2185 10.2426C30.4533 10.2822 29.8992 10.9549 29.886 11.7199C29.886 11.9046 29.886 12.0893 29.886 12.2608C29.886 13.0786 29.6749 13.3028 28.8306 13.3028C27.419 13.3028 26.0073 13.3028 24.5825 13.3028C23.3556 13.3028 22.1419 13.3028 20.9149 13.3028C20.3609 13.3028 20.097 13.0126 20.0838 12.4718C20.0838 12.2212 20.0838 11.9838 20.0838 11.7332C20.0574 11.3374 19.9519 10.9945 19.6616 10.6911C19.1999 10.2163 18.6458 10.203 18.0521 10.2558C17.3661 10.2162 16.6669 10.203 15.9809 10.3349C14.9518 10.5328 14.0943 11.0472 13.4347 11.865C12.8542 12.5641 12.4848 13.3556 12.4452 14.2921C12.3529 14.767 12.4056 15.2419 12.4056 15.7168V15.7959C12.4056 15.7959 12.4056 15.875 12.4056 15.9278C12.4056 22.8397 12.4056 29.7516 12.4056 36.6767C12.4056 40.5811 12.4056 44.4855 12.4056 48.39C12.4056 48.5746 12.3792 48.7725 12.4584 48.9572C12.4584 49.0627 12.4584 49.1683 12.4848 49.2738C12.8674 51.4239 14.7012 52.9803 16.878 52.9935C18.9097 52.9935 20.9545 52.9935 22.9862 52.9935C26.4163 52.9935 29.8464 53.0067 33.2765 52.9935C35.7832 52.9803 37.7357 50.883 37.6301 48.3768C37.7093 48.2844 37.6697 48.1657 37.6697 48.0734C37.6697 45.2638 37.6697 42.4542 37.6697 39.6314C37.6697 39.4336 37.7357 39.2225 37.6301 39.0378V38.985ZM36.0602 40.0667C36.0206 40.2513 36.0338 40.4229 36.0338 40.6075C36.0338 43.1929 36.0338 45.7783 36.0338 48.3636C36.0338 49.3002 35.704 50.1048 34.952 50.6983C34.3452 51.1732 33.6459 51.3711 32.8808 51.3711C29.5826 51.3711 26.2712 51.3711 22.973 51.3711C21.0337 51.3711 19.0943 51.3711 17.155 51.3711C15.1892 51.3711 14.0151 49.9201 14.0283 48.2449C14.0679 43.5226 14.0415 38.8136 14.0415 34.0913C14.0415 33.8935 14.0415 33.6824 14.0151 33.4845C14.0151 33.445 13.9888 33.4186 13.9888 33.379C14.0943 33.2207 14.0415 33.0361 14.0415 32.8514C14.0415 26.9024 14.0415 20.9666 14.0415 15.0176C14.0415 14.8593 14.0415 14.7011 14.0151 14.5428C14.0151 14.5164 13.9887 14.4768 13.9756 14.4504C13.9756 14.424 13.9492 14.4108 13.9228 14.4108C14.0943 12.9994 15.1761 11.9178 16.4953 11.7464C16.4953 11.7727 16.5217 11.7991 16.5877 11.8255C16.9703 11.8783 17.3529 11.8518 17.7487 11.865C18.5402 11.865 18.461 11.7991 18.4742 12.5642C18.5006 13.8569 19.5033 14.8857 20.783 14.8857C23.6194 14.8989 26.4427 14.8857 29.2791 14.8857C30.1762 14.8857 31.0074 14.2525 31.324 13.4215C31.4823 13.0126 31.4691 12.6037 31.4691 12.1816C31.4691 12.0101 31.4823 11.8519 31.7066 11.8387C32.5114 11.7596 33.3161 11.7464 34.0945 11.997C35.295 12.3927 36.0206 13.4611 36.0338 14.7538C36.0338 15.6639 36.0338 16.5741 36.0338 17.4843C36.0338 17.6294 36.0206 17.7877 36.0998 17.9196C36.0998 17.9196 36.1261 17.946 36.1393 17.946C35.9942 18.2494 35.981 18.5528 36.1261 18.8561C36.1129 18.8957 36.0866 18.9352 36.0734 18.9616C36.0338 19.476 36.0338 20.0037 36.0734 20.5181C36.0866 20.5577 36.0997 20.5841 36.1261 20.6236C35.9942 20.927 35.9942 21.2304 36.1525 21.5206C36.1262 21.5338 36.0998 21.5734 36.0866 21.6129C36.0338 21.7976 36.047 21.9955 36.047 22.1933C36.047 27.8257 36.047 33.445 36.047 39.0774C36.047 39.262 36.047 39.4468 36.0734 39.6182C36.0734 39.6842 36.113 39.7369 36.1657 39.7633C36.1657 39.8161 36.1657 39.8688 36.1657 39.9084C36.1262 39.9348 36.0998 39.9744 36.0734 40.0403L36.0602 40.0667Z" fill="#FF0037" stroke="#FF0037" stroke-width="0.8"/>
<path d="M31.9604 24.3344C32.3034 24.651 32.7651 24.651 33.0686 24.3608C33.372 24.0574 33.3456 23.5825 33.0158 23.2395C31.8153 22.0392 30.6016 20.8257 29.401 19.6253C28.8469 19.0713 28.2928 18.5173 27.7387 17.9633C27.5013 17.7258 27.211 17.6204 26.8944 17.7655C26.6041 17.8974 26.4194 18.1216 26.4062 18.4645C26.4062 18.6492 26.4722 18.8339 26.6042 18.979C26.934 19.3087 27.277 19.6385 27.6068 19.9815C28.8206 21.195 30.0211 22.4086 31.2348 23.6221C31.4723 23.8595 31.7098 24.1102 31.9604 24.3476V24.3344Z" fill="#FF0037"/>
<path d="M32.4526 20.6769C32.8088 21.0199 33.2837 21.0331 33.5607 20.7297C33.8774 20.3736 33.851 19.9119 33.4816 19.5557C33.1782 19.2655 32.8879 18.9622 32.5977 18.672C32.1887 18.2762 31.793 17.8673 31.384 17.4848C31.1465 17.2605 30.8695 17.2341 30.5793 17.3792C30.289 17.5111 30.1439 17.7486 30.1571 18.1179C30.1571 18.263 30.223 18.4477 30.3681 18.5928C31.0673 19.2919 31.7534 19.991 32.4658 20.6769H32.4526Z" fill="#FF0037"/>
<path d="M31.9223 40.797C31.6716 40.5331 31.355 40.5991 31.1043 40.5859C30.9328 40.5859 30.801 40.5859 30.669 40.5859C30.2073 40.5859 29.8906 40.8893 29.8906 41.2982C29.8906 41.7467 30.2072 42.0633 30.6822 42.0765C30.9328 42.0765 31.1703 42.0765 31.4209 42.0765C31.764 42.0765 31.9883 41.8786 32.107 41.5884C32.2257 41.2982 32.1598 41.0344 31.9355 40.797H31.9223Z" fill="#FF0037"/>
<path d="M18.671 18.3068C18.9481 18.531 19.2384 18.5046 19.5154 18.3727C19.832 18.2144 19.9639 17.9243 19.9112 17.5813C19.9112 17.1196 19.6737 16.7503 19.3439 16.6712C18.9613 16.5656 18.6315 16.7371 18.4336 17.1328C18.2621 17.4889 18.4072 18.0826 18.671 18.32V18.3068Z" fill="#FF0037" stroke="#FF0037" stroke-width="0.5"/>
<path d="M33.6573 44.3844C33.3538 44.1338 32.6547 44.1734 32.3776 44.4636C32.2589 44.5823 32.1665 44.7274 32.1533 44.9121C32.1005 45.4265 32.4832 45.809 33.0505 45.7562C33.4726 45.7562 33.6837 45.6639 33.8288 45.4265C34.0531 45.0571 33.9871 44.6614 33.6573 44.3976V44.3844Z" fill="#FF0037" stroke="#FF0037" stroke-width="0.5"/>
<path d="M20.0254 42.918C19.6033 42.918 19.2734 43.2609 19.2734 43.6698C19.2734 44.1183 19.8011 44.6459 20.2497 44.6459C20.6719 44.6459 21.0017 44.303 20.9885 43.8941C20.9885 43.4324 20.4608 42.918 20.0122 42.918H20.0254Z" fill="#FF0037" stroke="#FF0037" stroke-width="0.5"/>
<path d="M19.1455 28.3813C19.6468 28.3813 19.9107 28.0648 19.9107 27.4844C19.9107 26.9172 19.6336 26.5742 19.1455 26.5742C18.6838 26.5742 18.3804 26.9304 18.3672 27.5108C18.3672 28.0516 18.6574 28.3813 19.1323 28.3813H19.1455Z" fill="#FF0037" stroke="#FF0037" stroke-width="0.5"/>
<path d="M19.658 20.1383C19.4074 19.9272 19.0116 19.8877 18.7609 20.0459C18.4311 20.2438 18.2992 20.6528 18.4179 21.1672C18.4971 21.5234 18.7082 21.708 19.038 21.7607C19.4734 21.8267 19.9879 21.4442 19.9087 20.877C19.9087 20.6 19.8823 20.3362 19.658 20.1515V20.1383Z" fill="#FF0037" stroke="#FF0037" stroke-width="0.5"/>
<path d="M19.615 23.4338C19.3644 23.236 19.0741 23.2228 18.7971 23.3415C18.4541 23.4998 18.375 23.8164 18.375 24.1725C18.375 24.5287 18.4673 24.8321 18.8103 25.0035C19.3644 25.2805 19.9185 24.8716 19.9185 24.1461C19.9317 23.8823 19.8657 23.6185 19.6282 23.4338H19.615Z" fill="#FF0037" stroke="#FF0037" stroke-width="0.5"/>
<path d="M19.0448 35.0064C19.5989 35.0592 19.9156 34.7294 19.9156 34.0831C19.9156 33.661 19.7044 33.3312 19.3746 33.2256C19.0448 33.1201 18.6754 33.2652 18.4907 33.5686C18.2796 33.8984 18.372 34.5447 18.649 34.8217C18.7678 34.9273 18.8865 34.9932 19.0448 35.0064Z" fill="#FF0037" stroke="#FF0037" stroke-width="0.5"/>
<path d="M23.1291 44.2241C22.575 44.2241 22.2188 44.5275 22.2188 44.9892C22.2188 45.4641 22.5354 45.741 23.1026 45.741C23.7095 45.741 24.0393 45.4641 24.0261 44.9628C24.0261 44.5011 23.67 44.2109 23.1291 44.2109V44.2241Z" fill="#FF0037" stroke="#FF0037" stroke-width="0.5"/>
<path d="M26.4664 44.2342C25.9123 44.1946 25.5429 44.4716 25.5033 44.9333C25.4637 45.3949 25.7804 45.7115 26.2949 45.7511C26.8886 45.7907 27.2711 45.54 27.3107 45.0784C27.3503 44.5639 27.0601 44.287 26.4532 44.2474L26.4664 44.2342Z" fill="#FF0037" stroke="#FF0037" stroke-width="0.5"/>
<path d="M29.0289 44.4619C28.8046 44.7257 28.7519 45.016 28.8838 45.3194C29.0421 45.6755 29.3587 45.7546 29.7545 45.7414C29.9392 45.7414 30.1503 45.7283 30.3482 45.57C30.678 45.293 30.7308 44.7785 30.4537 44.4883C30.1107 44.1322 29.3191 44.119 29.0289 44.4487V44.4619Z" fill="#FF0037" stroke="#FF0037" stroke-width="0.5"/>
<path d="M18.6572 31.521C18.7496 31.6001 18.8419 31.6528 18.9606 31.666C19.5939 31.732 19.8974 31.455 19.9105 30.8087C19.9105 30.3206 19.7391 30.0304 19.3697 29.9249C19.0135 29.8193 18.6572 29.9644 18.4857 30.2678C18.2746 30.6504 18.3538 31.2308 18.6572 31.521Z" fill="#FF0037" stroke="#FF0037" stroke-width="0.5"/>
<path d="M18.4332 37.8387C18.8686 38.4322 19.2908 38.5114 19.7261 38.0893C19.99 37.7727 19.9372 37.4034 19.8844 37.0472C19.8316 36.7043 19.5678 36.546 19.2644 36.4801C18.961 36.4141 18.6971 36.5196 18.5519 36.7834C18.3804 37.1 18.3013 37.4561 18.4332 37.8255V37.8387Z" fill="#FF0037" stroke="#FF0037" stroke-width="0.5"/>
<path d="M19.8381 41.1784C19.9568 40.8486 19.9964 40.532 19.7853 40.2154C19.7853 40.0703 19.6666 40.0176 19.5742 39.9516C19.2444 39.7538 18.8486 39.7669 18.6243 39.9912C18.3737 40.2286 18.2682 40.9013 18.4529 41.2179C18.5452 41.363 18.6112 41.5609 18.8222 41.5741C19.284 41.7324 19.5479 41.64 19.8513 41.1784H19.8381Z" fill="#FF0037" stroke="#FF0037" stroke-width="0.5"/>
</svg>
