<svg width="58" height="58" viewBox="0 0 58 58" fill="none" xmlns="http://www.w3.org/2000/svg">
<g id="Group">
<path id="Vector" d="M29 57C13.5578 57 1 44.4422 1 29C1 13.5578 13.5578 1 29 1C44.4422 1 57 13.5578 57 29C57 44.4422 44.4422 57 29 57ZM29 1.88585C14.0468 1.88585 1.88585 14.0468 1.88585 29C1.88585 43.9532 14.0468 56.1141 29 56.1141C43.9532 56.1141 56.1141 43.9532 56.1141 29C56.1141 14.0468 43.9532 1.88585 29 1.88585Z" fill="#FF0037" stroke="#FF0037"/>
<path id="Vector_2" d="M13.1062 39.5293V39.5877V47.1744C13.1062 47.4217 13.2184 47.6005 13.39 47.7201C13.5649 47.8421 13.8043 47.9035 14.0499 47.8998C14.2953 47.8962 14.5359 47.8278 14.7122 47.7032C14.8859 47.5804 14.9965 47.4045 14.9965 47.1744V40.264V40.1347L15.1217 40.1672C15.5931 40.2896 16.0761 40.3996 16.5707 40.4851L16.5708 40.4852C17.9057 40.7178 19.2587 40.8403 20.6114 40.8403C21.2662 40.8403 21.9208 40.8097 22.5632 40.7485L22.5634 40.7485C24.814 40.5384 26.4703 38.5459 26.2603 36.2955L13.1062 39.5293ZM13.1062 39.5293C13.12 39.4453 13.1592 39.3183 13.2408 39.1755C13.3461 38.9915 13.5193 38.7861 13.7909 38.6192C14.3324 38.2865 15.2841 38.0959 16.9067 38.5708L16.9068 38.5708C18.6724 39.0869 20.5643 38.9988 22.3779 38.8512L22.378 38.8512C23.0043 38.7995 23.5721 38.4703 23.9333 37.9545C24.3008 37.4321 24.4167 36.7747 24.2557 36.1564L24.2557 36.1564L24.255 36.1541C24.2427 36.1109 24.2343 36.0739 24.2343 36.0463H24.2344L24.2341 36.0416C24.1979 35.2801 24.3128 34.5184 24.5667 33.8051L24.5668 33.8046L24.6959 33.4357L24.7304 33.3371L24.6305 33.3069C21.4997 32.3604 20.648 30.3534 20.4142 29.2383L20.414 29.2377C20.3675 29.0225 20.3614 28.8004 20.3908 28.5771L20.3908 28.5771C20.5311 27.5072 21.5133 26.7583 22.5841 26.8987C23.7979 27.0597 25.0302 27.0597 26.25 26.8987L26.3331 26.8877L26.3369 26.8041L26.4721 23.8038L26.4721 23.8029C26.4888 23.3408 26.828 22.9568 27.2841 22.8838C28.1699 22.7704 28.9987 22.3997 29.6767 21.8284L29.6768 21.8285L29.6809 21.8246C29.9334 21.5862 30.0048 21.2129 29.8493 20.9018L29.8444 20.8922L29.8377 20.8838C29.6774 20.685 29.4781 20.5107 29.2513 20.387C26.7198 18.7646 25.2505 15.9165 25.3838 12.9101C25.4209 12.3222 25.4209 11.7281 25.3838 11.1401C25.3504 10.6051 25.7574 10.1417 26.2934 10.1026C26.8272 10.0637 27.2904 10.4695 27.3299 11.0053C27.3665 11.6715 27.3665 12.3376 27.3298 12.9976L27.3298 12.9991C27.2361 15.3157 28.385 17.5134 30.3393 18.7621L30.3392 18.7622L30.3434 18.7646C30.874 19.0687 31.3154 19.5157 31.6139 20.0582C32.14 21.1304 31.8972 22.4278 31.0203 23.2459C30.3004 23.893 29.4358 24.3644 28.493 24.6062L28.4217 24.6244L28.418 24.698L28.2643 27.7412C28.242 28.1768 27.9412 28.544 27.5188 28.6447C25.8576 28.9865 24.1539 29.0536 22.4746 28.8399L22.3289 28.8214L22.3651 28.9637C22.6725 30.1742 23.7326 31.047 25.4048 31.507C25.8824 31.641 26.284 31.9672 26.5109 32.4036L26.5112 32.404C26.7436 32.8457 26.7792 33.3699 26.6161 33.8487L26.4075 34.4132L26.4075 34.4132L26.4064 34.4162C26.2687 34.8296 26.1805 35.263 26.1616 35.6977L26.161 35.7126L26.1647 35.727C26.2123 35.9114 26.2422 36.1027 26.2603 36.2954L13.1062 39.5293ZM31.8977 35.9262L31.8975 35.9259L31.8908 35.93C31.4273 36.2092 30.8311 36.0637 30.5525 35.6074C30.278 35.1517 30.4139 34.5677 30.8523 34.2834H30.8588L30.8834 34.2677C32.3232 33.348 32.8116 31.4644 31.9933 29.9611L31.993 29.9605C31.7309 29.4863 31.9038 28.896 32.3773 28.6397L32.3781 28.6393C32.8523 28.3771 33.4426 28.5501 33.6989 29.0236L33.699 29.0238C35.008 31.4307 34.2299 34.4348 31.9255 35.9067L31.9163 35.9126L31.9086 35.9203L31.9078 35.9208C31.907 35.9213 31.906 35.9219 31.9043 35.9228C31.9028 35.9236 31.9007 35.9246 31.8977 35.9262ZM35.3055 40.2193H35.2055V40.2242C34.9285 40.2066 34.6693 40.0713 34.4999 39.8471L34.4995 39.8466C34.1706 39.4173 34.2538 38.8095 34.6782 38.4801L34.6782 38.4801L34.6795 38.479C37.7632 35.9984 38.8514 31.7833 37.3535 28.1213C37.1642 27.6299 37.3936 27.0787 37.8718 26.873L37.872 26.8729C38.3619 26.6613 38.9361 26.8896 39.1481 27.3795C40.9812 31.8385 39.6655 36.9795 35.9136 40.0072C35.7395 40.1417 35.5274 40.2193 35.3055 40.2193ZM42.764 26.3633C42.5809 25.8978 42.7913 25.3716 43.2304 25.1482L43.3149 25.1163C43.8171 24.9266 44.38 25.1779 44.5693 25.6791L44.6629 25.6437L44.5694 25.6791C47.0381 32.2115 45.138 39.587 39.816 44.1093C39.7992 44.1228 39.7809 44.1391 39.7677 44.1505C39.7525 44.1635 39.7392 44.1743 39.7258 44.1832L39.7257 44.1831L39.7223 44.1857C39.2873 44.5035 38.6797 44.4088 38.3618 43.9798C38.0439 43.5448 38.1388 42.9369 38.5681 42.6191L38.5682 42.6193L38.5734 42.6149C43.2596 38.6282 44.9436 32.1219 42.7644 26.3645L42.764 26.3633Z" fill="#FF0037" stroke="#FF0037" stroke-width="0.2"/>
</g>
</svg>
