<svg width="54" height="54" viewBox="0 0 54 54" fill="none" xmlns="http://www.w3.org/2000/svg">
<g id="Frame 1973341145">
<rect width="54" height="54" rx="8" fill="#D9D9D9"/>
<g id="Group">
<g id="Group_2">
<path id="Vector" d="M16.2307 38.2159L15.8679 38.4862H16.2518C17.7628 40.5015 19.6819 41.7273 22.1184 42.1196L22.1185 42.1196C23.6703 42.369 25.183 42.2625 26.4938 41.1997C27.4412 40.4339 27.8301 39.3748 27.6899 38.386C27.5497 37.3971 26.8823 36.4946 25.7527 36.0382C25.5587 35.9567 25.4717 35.876 25.4259 35.7917C25.3769 35.7017 25.3604 35.5831 25.3604 35.391V35.3701V35.3492V35.3283V35.3074V35.2865V35.2656V35.2447V35.2238V35.2029V35.182V35.1611V35.1402V35.1193V35.0984V35.0775V35.0566V35.0357V35.0148V34.9939V34.973V34.9521V34.9312V34.9103V34.8894V34.8685V34.8476V34.8267V34.8058V34.7849V34.764V34.7431V34.7222V34.7013V34.6804V34.6594V34.6385V34.6176V34.5967V34.5758V34.5549V34.534V34.5131V34.4922V34.4713V34.4504V34.4295V34.4086V34.3877V34.3668V34.3459V34.3249V34.304V34.2831V34.2622V34.2413V34.2204V34.1995V34.1786V34.1577V34.1368V34.1159V34.095V34.074V34.0531V34.0322V34.0113V33.9904V33.9695V33.9486V33.9277V33.9068V33.8859V33.865V33.844V33.8231V33.8022V33.7813V33.7604V33.7395V33.7186V33.6977V33.6768V33.6558V33.6349V33.614V33.5931V33.5722V33.5513V33.5304V33.5095V33.4886V33.4676V33.4467V33.4258V33.4049V33.384V33.3631V33.3422V33.3213V33.3003V33.2794V33.2585V33.2376V33.2167V33.1958V33.1749V33.154V33.133V33.1121V33.0912V33.0703V33.0494V33.0285V33.0076V32.9866V32.9657V32.9448V32.9239V32.903V32.8821V32.8612V32.8402V32.8193V32.7984V32.7775V32.7566V32.7357V32.7148V32.6938V32.6729V32.652V32.6311V32.6102V32.5893V32.5683V32.5474V32.5265V32.5056V32.4847V32.4638V32.4429V32.4219V32.401V32.3801V32.3592V32.3383V32.3174V32.2964V32.2755V32.2546V32.2337V32.2128V32.1919V32.1709V32.15V32.1291V32.1082V32.0873V32.0663V32.0454V32.0245V32.0036V31.9827V31.9618V31.9408V31.9199V31.899V31.8781V31.8572V31.8363V31.8153V31.7944V31.7735V31.7526V31.7317V31.7107V31.6898V31.6689V31.648V31.6271V31.6062V31.5852V31.5643V31.5434V31.5225V31.5016V31.4806V31.4597V31.4388V31.4179V31.397V31.376V31.3551V31.3342V31.3133V31.2924V31.2715V31.2505V31.2296V31.2087V31.1878V31.1669V31.1459V31.125V31.1041V31.0832V31.0623V31.0413V31.0204V30.9995V30.9786V30.9577V30.9367V30.9158V30.8949V30.874V30.8531V30.8321V30.8112V30.7903V30.7694V30.7485V30.7275V30.7066V30.6857V30.6648V30.6439V30.6229V30.602V30.5811V30.5602V30.5393V30.5183V30.4974V30.4765V30.4556V30.4347V30.4137V30.3928V30.3719V30.351V30.3301V30.3091V30.2882V30.2673V30.2464V30.2255V30.2045V30.1836V30.1627V30.1418V30.1209V30.0999V30.079V30.0581V30.0372V30.0163V29.9953V29.9744V29.9535V29.9326V29.9117V29.8907V29.8698V29.8489V29.828V29.8071V29.7861V29.7652V29.7443V29.7234V29.7025V29.6815V29.6606V29.6397V29.6188V29.5979V29.5769V29.556V29.5351V29.5142V29.4933V29.4723V29.4514V29.4305V29.4096V29.3887V29.3677V29.3468V29.3259V29.305V29.2841V29.2631V29.2422V29.2213V29.2004V29.1795V29.1585V29.1376V29.1167V29.0958V29.0749V29.0539V29.033V29.0121V28.9912V28.9703V28.9493V28.9284V28.9075V28.8866V28.8657V28.8448V28.8238V28.8029V28.782V28.7611V28.7402V28.7192V28.6983V28.6774V28.6565V28.6356V28.6146V28.5937V28.5728V28.5519V28.531V28.5101V28.4891V28.4682V28.4473V28.4264V28.4055V28.3845V28.3636V28.3427V28.3218V28.3009V28.2799V28.259V28.2381V28.2172V28.1963V28.1754V28.1544V28.1335V28.1126V28.0917V28.0708V28.0499V28.0289V28.008V27.9871V27.9662V27.9453V27.9244V27.9034V27.8825V27.8616V27.8407V27.8198V27.7988V27.7779V27.757V27.7361V27.7152V27.6943V27.6734V27.6524V27.6315V27.6106V27.5897V27.5688V27.5479V27.5269V27.506V27.4851V27.4642V27.4433V27.4224V27.4014V27.3805V27.3596V27.3387V27.3178V27.2969V27.276V27.255V27.2341V27.2132V27.1923V27.1714V27.1505V27.1296V27.1086V27.0877V27.0668V27.0459V27.025V27.0041V26.9832V26.9622V26.9413V26.9204V26.8995V26.8786V26.8577V26.8368V26.8158V26.7949V26.774V26.7531V26.7322V26.7113V26.6904V26.6695V26.6485V26.6276V26.6067V26.5858V26.5649V26.544V26.5231V26.5022V26.4813V26.4603V26.4394V26.4185V26.3976V26.3767V26.3558V26.3349V26.314V26.2931V26.2721V26.2512V26.2303V26.2094V26.1885V26.1676V26.1467V26.1258V26.1049V26.084V26.063V26.0421V26.0212V26.0003V25.9794V25.9585V25.9376V25.9167V25.8958V25.8749V25.854V25.8331V25.8121V25.7912V25.7703V25.7494V25.7285V25.7076V25.6867V25.6658V25.6449V25.624V25.6031V25.5822V25.5613V25.5404V25.5195V25.4985V25.4776V25.4567V25.4358V25.4149V25.394V25.3731V25.3522V25.3313V25.3104V25.2895V25.2686V25.2477V25.2268V25.2059V25.185V25.1641V25.1432V25.1223V25.1014V25.0805V25.0596V25.0387V25.0177V24.9968V24.9759V24.955V24.9341V24.9132V24.8923V24.8714V24.8505V24.8296V24.8087V24.7878V24.7669V24.746V24.7251V24.7042V24.6833V24V23.85H25.2104H23.7549H23.6049V24V35.7935C22.9352 36.0994 22.3233 36.3825 21.6547 36.6971L21.4838 36.7776L21.6009 36.9258C21.7992 37.1771 21.9653 37.39 22.099 37.5615C22.1728 37.6562 22.2368 37.7382 22.2908 37.807L22.3554 37.8892L22.4549 37.8571C22.682 37.7837 22.8974 37.7056 23.1017 37.6315C23.1946 37.5978 23.2851 37.565 23.3735 37.5338C23.6595 37.4328 23.9278 37.347 24.2001 37.2945L24.2004 37.2944C24.8639 37.1654 25.5053 37.5331 25.8003 38.1294L25.8003 38.1294C26.1031 38.7414 26.0224 39.4424 25.4891 39.896C25.0964 40.2287 24.6002 40.5259 24.1291 40.6216C22.4281 40.9457 20.9113 40.3598 19.5144 39.4016C18.992 39.041 18.5182 38.6237 18.0204 38.1853C17.7896 37.982 17.5536 37.7742 17.3052 37.5654L17.2127 37.4876L17.117 37.5614C16.9803 37.6668 16.8257 37.7796 16.6521 37.9062C16.5223 38.0008 16.382 38.1031 16.2307 38.2159Z" fill="#1C1B1B" stroke="#1C1B1B" stroke-width="0.3"/>
<path id="Vector_2" d="M15.5729 26.0822L15.8212 26.2974V26.0407C16.6423 25.5624 17.4376 25.3747 18.1396 25.4518C18.8594 25.5307 19.494 25.8891 19.9724 26.5236C20.8198 27.6559 20.6673 29.2447 19.6067 30.2468L19.6063 30.2471C19.0798 30.7477 18.4527 31.006 17.7321 31.019L17.7316 31.019C16.5154 31.0453 15.558 30.5413 14.9385 29.687L14.8481 29.5623L14.7258 29.6559C14.6868 29.6858 14.6483 29.7154 14.6101 29.7446C14.3335 29.9565 14.0772 30.1529 13.8314 30.3387L13.7132 30.428L13.8011 30.5473C15.5489 32.9199 18.6143 33.3547 20.7031 31.542C22.7086 29.8047 22.8102 26.8598 20.9277 25.041L20.9275 25.0409C20.0649 24.2101 18.8514 23.8045 17.6865 23.815C16.5226 23.8256 15.3849 24.2525 14.6867 25.1161L14.5962 25.2281L14.7044 25.3231L14.7106 25.3285C14.9886 25.5727 15.2673 25.8173 15.5729 26.0822Z" fill="#1C1B1B" stroke="#1C1B1B" stroke-width="0.3"/>
</g>
<path id="Vector_3" d="M35.9519 42.6498V42.7998H36.1019H37.5574H37.7074V42.6498V31.1562V31.0062H37.5574H36.1019H35.9519V31.1562V36.056H31.168V31.1562V31.0062H31.018H29.5625H29.4125V31.1562V42.6498V42.7998H29.5625H31.018H31.168V42.6498V37.6338H35.9519V42.6498Z" fill="#1C1B1B" stroke="#1C1B1B" stroke-width="0.3"/>
<path id="Vector_4" d="M39.5262 17.4492V17.2992H39.3762H34.3128H34.1628V17.4492V18.8774V19.0274H34.3128H35.9804V23.8591H31.1555V22.0412V21.8906L31.0049 21.8912C29.0502 21.8983 27.4665 23.482 27.4594 25.4368L27.4588 25.5873H27.6094H29.4274V30.4392V30.5892H29.5774H31.0055H31.1555V30.4392V25.5873H35.9804V30.4392V30.5892H36.1304H37.5586H37.7086V30.4392V19.0342H39.3762H39.5262V18.8842V17.4561V17.4492Z" fill="#1C1B1B" stroke="#1C1B1B" stroke-width="0.3"/>
<path id="Vector_5" d="M26.7109 11.2006H21.7376L21.5385 11.1008V11.3438V12.7719V12.9219H21.6885H23.6226V15.5465H16.7344H16.5838L16.5844 15.6971C16.5915 17.6518 18.1752 19.2355 20.1299 19.2427L20.2805 19.2432V19.0927V17.2747H23.6295V23.2746V23.4246H23.7795H25.2076H25.3576V23.2746V12.9287H26.7109H26.8609V12.7787V11.3506V11.2006H26.7109Z" fill="#1C1B1B" stroke="#1C1B1B" stroke-width="0.3"/>
</g>
</g>
</svg>
