<svg width="38" height="56" viewBox="0 0 38 56" fill="none" xmlns="http://www.w3.org/2000/svg">
<path fill-rule="evenodd" clip-rule="evenodd" d="M37.576 5.25903C37.7418 5.52548 37.5502 5.87029 37.2364 5.87029H9.07271C8.91934 5.87029 8.77948 5.7826 8.71266 5.64455L6.25867 0.57426C6.13011 0.308632 6.32361 0 6.61871 0H34.0827C34.221 0 34.3494 0.071364 34.4224 0.188737L37.576 5.25903ZM14.9424 41.8505C14.7799 41.8505 14.6335 41.7522 14.5721 41.6017L0.0792324 6.10178C0.0296115 5.98023 0.042793 5.84207 0.114502 5.7321L3.26628 0.898706C3.4422 0.628935 3.84853 0.667059 3.97119 0.964843L20.5855 41.2982C20.694 41.5615 20.5004 41.8505 20.2157 41.8505H14.9424ZM20.3129 35.1748C20.2716 35.0771 20.2708 34.967 20.3107 34.8687L31.2823 7.83847C31.3436 7.6876 31.4901 7.58891 31.653 7.58891H36.9455C37.2315 7.58891 37.4251 7.88038 37.3142 8.14402L23.5016 40.9761C23.3644 41.3023 22.9022 41.3027 22.7645 40.9767L20.3129 35.1748ZM24.2315 48.5661C24.2315 48.787 24.0525 48.9661 23.8315 48.9661H14.8187C14.5978 48.9661 14.4187 48.787 14.4187 48.5661V43.9067C14.4187 43.6857 14.5978 43.5067 14.8187 43.5067H23.8315C24.0525 43.5067 24.2315 43.6858 24.2315 43.9067V48.5661ZM22.7061 55.6C22.7061 55.8209 22.527 56 22.3061 56H16.8681C16.6471 56 16.4681 55.8209 16.4681 55.6V50.9406C16.4681 50.7197 16.6471 50.5406 16.8681 50.5406H22.3061C22.527 50.5406 22.7061 50.7197 22.7061 50.9406V55.6Z" fill="#FF0037"/>
</svg>
