<svg width="54" height="54" viewBox="0 0 54 54" fill="none" xmlns="http://www.w3.org/2000/svg">
<g id="Frame 1973341142">
<rect width="54" height="54" rx="8" fill="#D9D9D9"/>
<path id="Vector 365 (Stroke)" fill-rule="evenodd" clip-rule="evenodd" d="M38.3665 12.6042C38.5322 12.8706 38.3406 13.2155 38.0269 13.2155H20.3638C20.2104 13.2155 20.0706 13.1278 20.0038 12.9897L18.5738 10.0352C18.4452 9.76957 18.6387 9.46094 18.9338 9.46094H36.1892C36.3274 9.46094 36.4558 9.5323 36.5289 9.64968L38.3665 12.6042ZM24.1244 36.2276C23.9619 36.2276 23.8155 36.1293 23.7541 35.9788L14.5499 13.4335C14.5003 13.3119 14.5135 13.1738 14.5852 13.0638L16.4101 10.2653C16.586 9.99551 16.9923 10.0336 17.115 10.3314L27.5547 35.6753C27.6632 35.9386 27.4696 36.2276 27.1849 36.2276H24.1244ZM27.4856 32.013C27.4443 31.9153 27.4435 31.8052 27.4834 31.7069L34.4417 14.5642C34.5029 14.4133 34.6495 14.3146 34.8123 14.3146H37.8832C38.1692 14.3146 38.3628 14.6061 38.2519 14.8698L29.6344 35.3532C29.4972 35.6794 29.035 35.6798 28.8973 35.3538L27.4856 32.013ZM29.9687 40.3786C29.9687 40.5995 29.7896 40.7786 29.5687 40.7786H24.0926C23.8717 40.7786 23.6926 40.5995 23.6926 40.3786V37.6869C23.6926 37.466 23.8717 37.2869 24.0926 37.2869H29.5687C29.7896 37.2869 29.9687 37.466 29.9687 37.6869V40.3786ZM28.9931 44.8773C28.9931 45.0983 28.814 45.2773 28.5931 45.2773H25.4033C25.1824 45.2773 25.0033 45.0983 25.0033 44.8773V42.1856C25.0033 41.9647 25.1824 41.7856 25.4033 41.7856H28.5931C28.814 41.7856 28.9931 41.9647 28.9931 42.1856V44.8773Z" fill="#0E0E0E"/>
</g>
</svg>
