<svg width="56" height="56" viewBox="0 0 56 56" fill="none" xmlns="http://www.w3.org/2000/svg">
<g id="vuesax/twotone/music-playlist">
<g id="music-playlist">
<path id="Vector" d="M39.6665 51.332H16.3332C9.33317 51.332 4.6665 47.832 4.6665 39.6654V27.9987C4.6665 19.832 9.33317 16.332 16.3332 16.332H39.6665C46.6665 16.332 51.3332 19.832 51.3332 27.9987V39.6654C51.3332 47.832 46.6665 51.332 39.6665 51.332Z" stroke="#FF0037" stroke-width="2" stroke-miterlimit="10" stroke-linecap="round" stroke-linejoin="round"/>
<path id="Vector_2" d="M14 10.5H42" stroke="#FF0037" stroke-width="2" stroke-miterlimit="10" stroke-linecap="round" stroke-linejoin="round"/>
<path id="Vector_3" d="M21 4.66797H35" stroke="#FF0037" stroke-width="2" stroke-miterlimit="10" stroke-linecap="round" stroke-linejoin="round"/>
<g id="Group 112">
<path id="Vector_4" d="M20.743 44.5886C22.5085 44.5886 23.9397 43.1574 23.9397 41.392C23.9397 39.6265 22.5085 38.1953 20.743 38.1953C18.9776 38.1953 17.5464 39.6265 17.5464 41.392C17.5464 43.1574 18.9776 44.5886 20.743 44.5886Z" stroke="#FF0037" stroke-width="2" stroke-linecap="round" stroke-linejoin="round"/>
<path id="Vector_5" d="M35.6523 39.2719V26.7885C35.6523 24.1285 33.9957 23.7552 32.2923 24.2219L25.8989 25.9719C24.7322 26.2986 23.939 27.2085 23.939 28.5385V30.7552V32.2486V41.3952" stroke="#FF0037" stroke-width="2" stroke-linecap="round" stroke-linejoin="round"/>
<path id="Vector_6" d="M32.4564 42.4675C34.2219 42.4675 35.6532 41.0363 35.6532 39.2709C35.6532 37.5054 34.2219 36.0742 32.4564 36.0742C30.691 36.0742 29.2598 37.5054 29.2598 39.2709C29.2598 41.0363 30.691 42.4675 32.4564 42.4675Z" stroke="#FF0037" stroke-width="2" stroke-linecap="round" stroke-linejoin="round"/>
<path id="Vector_7" d="M23.939 32.2709L35.6523 29.0742" stroke="#FF0037" stroke-width="2" stroke-linecap="round" stroke-linejoin="round"/>
</g>
</g>
</g>
</svg>
