<svg width="32" height="32" viewBox="0 0 32 32" fill="none" xmlns="http://www.w3.org/2000/svg">
<g id="BookOpenText">
<path id="Vector" d="M29 6.25H20C19.2027 6.25059 18.4184 6.45185 17.7194 6.83523C17.0204 7.21861 16.4291 7.77178 16 8.44375C15.5709 7.77178 14.9796 7.21861 14.2806 6.83523C13.5816 6.45185 12.7973 6.25059 12 6.25H3C2.80109 6.25 2.61032 6.32902 2.46967 6.46967C2.32902 6.61032 2.25 6.80109 2.25 7V25C2.25 25.1989 2.32902 25.3897 2.46967 25.5303C2.61032 25.671 2.80109 25.75 3 25.75H12C12.862 25.75 13.6886 26.0924 14.2981 26.7019C14.9076 27.3114 15.25 28.138 15.25 29C15.25 29.1989 15.329 29.3897 15.4697 29.5303C15.6103 29.671 15.8011 29.75 16 29.75C16.1989 29.75 16.3897 29.671 16.5303 29.5303C16.671 29.3897 16.75 29.1989 16.75 29C16.75 28.138 17.0924 27.3114 17.7019 26.7019C18.3114 26.0924 19.138 25.75 20 25.75H29C29.1989 25.75 29.3897 25.671 29.5303 25.5303C29.671 25.3897 29.75 25.1989 29.75 25V7C29.75 6.80109 29.671 6.61032 29.5303 6.46967C29.3897 6.32902 29.1989 6.25 29 6.25ZM12 24.25H3.75V7.75H12C12.862 7.75 13.6886 8.09241 14.2981 8.7019C14.9076 9.3114 15.25 10.138 15.25 11V25.5387C14.3709 24.7101 13.2081 24.249 12 24.25ZM28.25 24.25H20C18.7917 24.2495 17.629 24.711 16.75 25.54V11C16.75 10.138 17.0924 9.3114 17.7019 8.7019C18.3114 8.09241 19.138 7.75 20 7.75H28.25V24.25ZM20 11.25H25C25.1989 11.25 25.3897 11.329 25.5303 11.4697C25.671 11.6103 25.75 11.8011 25.75 12C25.75 12.1989 25.671 12.3897 25.5303 12.5303C25.3897 12.671 25.1989 12.75 25 12.75H20C19.8011 12.75 19.6103 12.671 19.4697 12.5303C19.329 12.3897 19.25 12.1989 19.25 12C19.25 11.8011 19.329 11.6103 19.4697 11.4697C19.6103 11.329 19.8011 11.25 20 11.25ZM25.75 16C25.75 16.1989 25.671 16.3897 25.5303 16.5303C25.3897 16.671 25.1989 16.75 25 16.75H20C19.8011 16.75 19.6103 16.671 19.4697 16.5303C19.329 16.3897 19.25 16.1989 19.25 16C19.25 15.8011 19.329 15.6103 19.4697 15.4697C19.6103 15.329 19.8011 15.25 20 15.25H25C25.1989 15.25 25.3897 15.329 25.5303 15.4697C25.671 15.6103 25.75 15.8011 25.75 16ZM25.75 20C25.75 20.1989 25.671 20.3897 25.5303 20.5303C25.3897 20.671 25.1989 20.75 25 20.75H20C19.8011 20.75 19.6103 20.671 19.4697 20.5303C19.329 20.3897 19.25 20.1989 19.25 20C19.25 19.8011 19.329 19.6103 19.4697 19.4697C19.6103 19.329 19.8011 19.25 20 19.25H25C25.1989 19.25 25.3897 19.329 25.5303 19.4697C25.671 19.6103 25.75 19.8011 25.75 20Z" fill="white"/>
</g>
</svg>
