<svg width="54" height="54" viewBox="0 0 54 54" fill="none" xmlns="http://www.w3.org/2000/svg">
<g id="Frame 1973341144">
<rect width="54" height="54" rx="8" fill="#D9D9D9"/>
<g id="Group 1973339889">
<path id="Vector" d="M40.0012 37.8173C39.9123 36.9222 39.2974 36.3619 39.1334 36.2252L35.4571 32.7129C34.9583 32.2141 34.4116 31.9613 33.8376 31.9613C33.0176 31.9613 32.4641 32.4806 32.348 32.5968L30.1613 34.6946C28.0704 33.7448 26.1912 32.4669 24.4282 30.7791L24.2778 30.6356C22.5149 28.9546 21.1482 27.137 20.1096 25.087L22.1049 22.8047C22.2142 22.6885 22.6925 22.1214 22.672 21.3219C22.6584 20.7342 22.3782 20.1875 21.8589 19.716L18.1758 16.1901C18.0254 16.0261 17.3899 15.3906 16.4333 15.3906C15.8114 15.3906 15.2101 15.6571 14.6635 16.1833C14.602 16.2379 13.1738 17.5636 12.6681 19.1147C12.3811 19.7844 9.41557 27.4035 18.8045 36.3072L19.0026 36.4985C24.312 41.6098 29.0612 42.6827 32.102 42.6827C34.5961 42.6827 36.1883 41.9788 36.4616 41.849C37.9922 41.275 39.2496 39.7854 39.2974 39.7307C39.8372 39.1157 40.0695 38.4665 40.008 37.8037L40.0012 37.8173ZM38.3134 38.9107C38.0127 39.2729 37.0014 40.2979 35.9832 40.6668L35.9149 40.6942C35.9149 40.6942 34.4594 41.4116 32.102 41.4116C29.2935 41.4116 24.8997 40.4003 19.8909 35.5829L19.6927 35.3915C10.7685 26.9183 13.7273 19.9142 13.8571 19.6204L13.8845 19.5452C14.274 18.3084 15.5176 17.1536 15.5381 17.1331C15.8456 16.8393 16.1463 16.6889 16.4333 16.6889C16.8843 16.6889 17.2191 17.0647 17.2191 17.0647L20.9774 20.6659C21.2371 20.905 21.3737 21.1374 21.3805 21.3629C21.3942 21.6772 21.1619 21.93 21.1619 21.93L18.5652 24.8888L18.7497 25.2715C19.8841 27.6153 21.3942 29.6721 23.3759 31.5718L23.5262 31.7153C25.5078 33.6081 27.633 35.0294 30.0246 36.0544L30.4142 36.2252L33.2499 33.5056C33.2499 33.5056 33.5028 33.2596 33.8171 33.2596C34.0426 33.2596 34.2817 33.3826 34.5414 33.6422L38.2519 37.1819L38.2997 37.2229C38.2997 37.2229 38.6619 37.5304 38.7029 37.9472C38.7302 38.241 38.5935 38.5622 38.2929 38.9175L38.3134 38.9107Z" fill="#1C1B1B" stroke="#1C1B1B" stroke-width="0.5"/>
<path id="Vector_2" d="M32.0773 18.9927L35.8195 15.1305C36.0594 14.9015 36.0713 14.7344 35.8195 14.4621L30.5961 9.07107C30.4521 8.92252 30.1883 9.02156 30.1883 9.232V16.3561C30.1883 16.6036 30.1403 16.6779 29.9304 16.4675C29.9304 16.4675 27.9455 14.4188 27.6456 14.1093C27.3398 13.7998 27.0039 13.9979 27.0039 14.3754V15.7619C27.0039 15.9661 27.0339 16.0157 27.1718 16.1642L29.9124 18.9989L27.1718 21.8337C27.0279 21.9823 27.0039 22.0318 27.0039 22.2361V23.6225C27.0039 24 27.3398 24.1981 27.6456 23.8886C27.9455 23.5792 29.9304 21.5304 29.9304 21.5304C30.1403 21.32 30.1883 21.3943 30.1883 21.6419V28.7721C30.1883 28.9764 30.4581 29.0754 30.5961 28.933L35.8195 23.542C36.0653 23.2697 36.0534 23.1026 35.8195 22.8735L32.0773 19.0113V18.9927ZM31.8015 12.729C31.8015 12.6486 31.8495 12.6238 31.9034 12.6857L33.7385 14.5797C33.7984 14.6416 33.7924 14.7344 33.7385 14.7901L31.9094 16.5789C31.8495 16.6346 31.8015 16.616 31.8015 16.5294V12.7352V12.729ZM33.7385 23.4058L31.9034 25.2998C31.8495 25.3617 31.8015 25.3369 31.8015 25.2565V21.4562C31.8015 21.3757 31.8495 21.351 31.9094 21.4128L33.7385 23.1954C33.7984 23.2511 33.7984 23.3439 33.7385 23.4058Z" fill="#1C1B1B"/>
</g>
</g>
</svg>
