<svg width="56" height="56" viewBox="0 0 56 56" fill="none" xmlns="http://www.w3.org/2000/svg">
<path d="M48.5129 41.2043C48.5129 41.9554 48.346 42.7273 47.9914 43.4783C47.6367 44.2293 47.1778 44.9386 46.5728 45.6062C45.5505 46.7328 44.424 47.5464 43.1514 48.0679C41.8997 48.5895 40.5437 48.8607 39.0833 48.8607C36.9554 48.8607 34.6814 48.36 32.2823 47.3377C29.8832 46.3155 27.4841 44.9386 25.1058 43.2071C22.7067 41.4547 20.4327 39.5145 18.2631 37.3657C16.1143 35.1961 14.1741 32.9221 12.4426 30.5439C10.7319 28.1656 9.355 25.7873 8.35362 23.4299C7.35225 21.0517 6.85156 18.7777 6.85156 16.6081C6.85156 15.1894 7.10191 13.8334 7.60259 12.5817C8.10328 11.3091 8.89604 10.1408 10.0017 9.09774C11.3369 7.78344 12.7972 7.13672 14.341 7.13672C14.9251 7.13672 15.5093 7.26189 16.0308 7.51223C16.5732 7.76258 17.0531 8.13809 17.4286 8.68051L22.2686 15.5024C22.6441 16.0239 22.9153 16.5037 23.103 16.9627C23.2908 17.4008 23.3951 17.8389 23.3951 18.2353C23.3951 18.736 23.2491 19.2367 22.957 19.7165C22.6858 20.1963 22.2894 20.697 21.7887 21.1977L20.2032 22.8458C19.9737 23.0753 19.8694 23.3465 19.8694 23.6803C19.8694 23.8472 19.8903 23.9932 19.932 24.1601C19.9946 24.327 20.0572 24.4522 20.0989 24.5773C20.4744 25.2658 21.1212 26.1628 22.0391 27.2477C22.9779 28.3325 23.9792 29.4382 25.0641 30.5439C26.1906 31.6495 27.2754 32.6718 28.3811 33.6106C29.4659 34.5285 30.363 35.1544 31.0723 35.5299C31.1766 35.5716 31.3018 35.6342 31.4478 35.6968C31.6147 35.7593 31.7816 35.7802 31.9694 35.7802C32.324 35.7802 32.5952 35.655 32.8247 35.4256L34.4102 33.8609C34.9318 33.3394 35.4325 32.943 35.9123 32.6926C36.3921 32.4006 36.8719 32.2545 37.3935 32.2545C37.7899 32.2545 38.2071 32.338 38.6661 32.5257C39.125 32.7135 39.6049 32.9847 40.1264 33.3394L47.0317 38.2419C47.5741 38.6174 47.9497 39.0555 48.1791 39.5771C48.3878 40.0986 48.5129 40.6202 48.5129 41.2043Z" stroke="#FF0037" stroke-width="3" stroke-miterlimit="10"/>
</svg>
