<svg width="54" height="54" viewBox="0 0 54 54" fill="none" xmlns="http://www.w3.org/2000/svg">
<g id="Frame 1973341147">
<rect width="54" height="54" rx="8" fill="#D9D9D9"/>
<g id="vuesax/twotone/setting-2">
<path id="Vector" fill-rule="evenodd" clip-rule="evenodd" d="M14.2973 12.527C14.2973 11.1307 15.428 10 16.8243 10H39.3378C40.7342 10 41.8649 11.1307 41.8649 12.527V41.473C41.8649 42.8693 40.7342 44 39.3378 44H16.8243C15.428 44 14.2973 42.8693 14.2973 41.473V38.027H12.6892C12.3087 38.027 12 37.7183 12 37.3378C12 36.9573 12.3087 36.6486 12.6892 36.6486H14.2973V31.1351H12.6892C12.3087 31.1351 12 30.8264 12 30.4459C12 30.0655 12.3087 29.7568 12.6892 29.7568H14.2973V24.2432H12.6892C12.3087 24.2432 12 23.9345 12 23.5541C12 23.1736 12.3087 22.8649 12.6892 22.8649H14.2973V17.3514H12.6892C12.3087 17.3514 12 17.0426 12 16.6622C12 16.2817 12.3087 15.973 12.6892 15.973H14.2973V12.527ZM15.6757 38.027H17.2838C17.6643 38.027 17.973 37.7183 17.973 37.3378C17.973 36.9573 17.6643 36.6486 17.2838 36.6486H15.6757V31.1351H17.2838C17.6643 31.1351 17.973 30.8264 17.973 30.4459C17.973 30.0655 17.6643 29.7568 17.2838 29.7568H15.6757V24.2432H17.2838C17.6643 24.2432 17.973 23.9345 17.973 23.5541C17.973 23.1736 17.6643 22.8649 17.2838 22.8649H15.6757V17.3514H17.2838C17.6643 17.3514 17.973 17.0426 17.973 16.6622C17.973 16.2817 17.6643 15.973 17.2838 15.973H15.6757V12.527C15.6757 11.8935 16.1908 11.3784 16.8243 11.3784H39.3378C39.9714 11.3784 40.4865 11.8935 40.4865 12.527V41.473C40.4865 42.1065 39.9714 42.6216 39.3378 42.6216H16.8243C16.1908 42.6216 15.6757 42.1065 15.6757 41.473V38.027ZM28.7703 19.1892C27.3739 19.1892 26.2432 20.3199 26.2432 21.7162C26.2432 23.1126 27.3739 24.2432 28.7703 24.2432C30.1666 24.2432 31.2973 23.1126 31.2973 21.7162C31.2973 20.3199 30.1666 19.1892 28.7703 19.1892ZM24.8649 21.7162C24.8649 19.5589 26.613 17.8108 28.7703 17.8108C30.9276 17.8108 32.6757 19.5589 32.6757 21.7162C32.6757 23.8735 30.9276 25.6216 28.7703 25.6216C26.613 25.6216 24.8649 23.8735 24.8649 21.7162ZM24.7033 29.8735L28.3844 28.5597C28.6339 28.4699 28.9067 28.4699 29.1561 28.5597L32.8372 29.8735C33.8423 30.2324 34.5135 31.1854 34.5135 32.2533V33.6622C34.5135 34.0427 34.2048 34.3514 33.8243 34.3514H23.7162C23.3357 34.3514 23.027 34.0427 23.027 33.6622V32.2533C23.027 31.1854 23.6983 30.2324 24.7033 29.8735ZM29.6209 27.2603C29.0699 27.0647 28.4705 27.0647 27.9195 27.2603L24.2402 28.5759C22.686 29.1304 21.6486 30.6022 21.6486 32.2533V33.6622C21.6486 34.8037 22.5747 35.7298 23.7162 35.7298H33.8243C34.9658 35.7298 35.8919 34.8037 35.8919 33.6622V32.2533C35.8919 30.6021 34.8545 29.1304 33.3002 28.5759L29.6209 27.2603Z" fill="#1C1B1B" stroke="#1C1B1B" stroke-width="0.54"/>
</g>
</g>
</svg>
