<svg width="58" height="58" viewBox="0 0 58 58" fill="none" xmlns="http://www.w3.org/2000/svg">
<g id="Group">
<path id="Vector" d="M29 57C13.5578 57 1 44.4422 1 29C1 13.5578 13.5578 1 29 1C44.4422 1 57 13.5578 57 29C57 44.4422 44.4422 57 29 57ZM29 1.88585C14.0468 1.88585 1.88585 14.0468 1.88585 29C1.88585 43.9532 14.0468 56.1141 29 56.1141C43.9532 56.1141 56.1141 43.9532 56.1141 29C56.1141 14.0468 43.9532 1.88585 29 1.88585Z" fill="#FF0037" stroke="#FF0037" stroke-width="2"/>
<g id="Group_2">
<path id="Vector_2" d="M42.5168 39.587C42.4246 38.6587 41.7868 38.0775 41.6167 37.9358L37.804 34.2932C37.2867 33.7758 36.7197 33.5136 36.1244 33.5136C35.274 33.5136 34.7 34.0522 34.5795 34.1727L32.3118 36.3484C30.1432 35.3633 28.1943 34.038 26.3659 32.2876L26.21 32.1388C24.3816 30.3954 22.9642 28.5104 21.887 26.3843L23.9564 24.0173C24.0698 23.8968 24.5659 23.3086 24.5446 22.4795C24.5304 21.87 24.2399 21.303 23.7013 20.814L19.8815 17.1573C19.7256 16.9872 19.0665 16.3281 18.0743 16.3281C17.4294 16.3281 16.8058 16.6045 16.2389 17.1502C16.1751 17.2069 14.6939 18.5817 14.1695 20.1904C13.8719 20.8849 10.7962 28.7867 20.5335 38.0208L20.739 38.2193C26.2454 43.5202 31.1637 44.6329 34.3244 44.6329C36.9111 44.6329 38.5623 43.9029 38.8458 43.7682C40.4332 43.1729 41.7372 41.628 41.7868 41.5713C42.3467 40.9335 42.5876 40.2603 42.5238 39.5729L42.5168 39.587ZM40.7663 40.7209C40.4545 41.0965 39.4056 42.1595 38.3497 42.5422L38.2788 42.5706C38.2788 42.5706 36.7694 43.3147 34.3244 43.3147C31.4117 43.3147 26.8549 42.2659 21.6603 37.2696L21.4548 37.0712C12.1994 28.2835 15.268 21.0196 15.4026 20.7149L15.431 20.6369C15.8349 19.3542 17.1247 18.1565 17.146 18.1353C17.4649 17.8305 17.7767 17.6746 18.0743 17.6746C18.5421 17.6746 18.8893 18.0644 18.8893 18.0644L22.7871 21.7991C23.0564 22.0472 23.1981 22.2881 23.2052 22.522C23.2194 22.848 22.9784 23.1102 22.9784 23.1102L20.2854 26.1788L20.4768 26.5756C21.6532 29.0064 23.2194 31.1396 25.2745 33.1097L25.4304 33.2585C27.4856 35.2215 29.6896 36.6956 32.17 37.7586L32.574 37.9358L35.515 35.1153C35.515 35.1153 35.7772 34.8601 36.1032 34.8601C36.337 34.8601 36.5851 34.9877 36.8544 35.257L40.7025 38.9279L40.7521 38.9705C40.7521 38.9705 41.1277 39.2894 41.1703 39.7217C41.1986 40.0264 41.0569 40.3595 40.7451 40.728L40.7663 40.7209Z" fill="#FF0037" stroke="#FF0037" stroke-width="1.5"/>
<path id="Vector_3" fill-rule="evenodd" clip-rule="evenodd" d="M29.627 22.585C31.5262 22.9322 33.1349 23.9882 34.2121 25.4339C34.9208 26.3835 35.4027 27.5032 35.587 28.7009H34.0775C33.9074 27.8292 33.5389 27.0213 33.0215 26.3197C32.2136 25.2284 31.0301 24.4205 29.627 24.1015V22.585ZM29.627 20.1188L29.7191 20.1329C32.3979 20.5227 34.6728 21.9684 36.1681 23.981C37.1815 25.3417 37.8477 26.9646 38.0461 28.708H39.5414C39.3359 26.6457 38.5634 24.711 37.3587 23.0952C35.6295 20.7778 33.0215 19.1124 29.9317 18.6659C29.8325 18.6518 29.7262 18.6376 29.627 18.6234V20.1188ZM29.627 16.1289C29.8466 16.1501 30.0663 16.1785 30.2931 16.2139C34.0562 16.7667 37.2453 18.7864 39.3501 21.6141C40.8666 23.648 41.8163 26.0929 42.036 28.708H43.5242C43.3045 25.7669 42.2415 23.0102 40.5406 20.7282C38.2091 17.5958 34.6798 15.3493 30.5057 14.7399C30.2152 14.6973 29.9246 14.6619 29.627 14.6406V16.1289Z" fill="#FF0037" stroke="#FF0037"/>
</g>
</g>
</svg>
