<svg width="54" height="54" viewBox="0 0 54 54" fill="none" xmlns="http://www.w3.org/2000/svg">
<g id="Frame 1973341142">
<rect width="54" height="54" rx="8" fill="#D9D9D9"/>
<g id="Group">
<path id="Vector" d="M43.6461 21.3529C43.3318 20.2391 42.2999 19.549 41.1656 19.549H15.6092C17.5499 19.016 19.4837 18.4762 21.4243 17.9432C23.9185 17.253 26.4126 16.5629 28.9068 15.8727C31.0592 15.2782 33.2117 14.6837 35.371 14.0824C36.4097 13.7954 37.4688 13.5357 38.5075 13.2146C38.5212 13.2146 38.5348 13.2077 38.5485 13.2009C39.0678 13.0574 38.8491 12.2579 38.3298 12.3946C37.4688 12.6337 36.6078 12.866 35.74 13.112C33.6695 13.686 31.6059 14.26 29.5354 14.8272C27.0413 15.5174 24.5471 16.2075 22.053 16.8977C19.9005 17.4922 17.748 18.0867 15.5887 18.688C14.5501 18.975 13.4909 19.2346 12.4523 19.5558C12.4386 19.5558 12.4249 19.5626 12.4113 19.5695C12.3839 19.5763 12.3566 19.59 12.3293 19.6036C11.5776 19.7471 10.908 20.1776 10.5458 20.8951C10.2656 21.4486 10.2656 22.0021 10.2656 22.5966V39.0237C10.2656 39.3312 10.293 39.6388 10.3955 39.9326C10.6756 40.7457 11.3794 41.4086 12.2336 41.5794C12.5616 41.6478 12.8896 41.6341 13.2176 41.6341H41.1861C41.1861 41.6341 41.2271 41.6341 41.2545 41.6341C42.6553 41.6136 43.7349 40.4724 43.7349 39.0853V22.7333C43.7349 22.2823 43.7691 21.7971 43.6393 21.3598L43.6461 21.3529ZM42.9286 22.7333V39.0374C42.9286 39.2629 42.9149 39.4748 42.8398 39.6866C42.6006 40.3563 41.9583 40.7936 41.2681 40.8004H14.9122C14.1948 40.8004 13.4773 40.8073 12.7598 40.8004C12.0901 40.7936 11.4819 40.3904 11.2291 39.7686C11.1334 39.5294 11.113 39.2834 11.113 39.0306V22.7196C11.113 22.3096 11.0719 21.8723 11.2154 21.4759C11.4478 20.8268 12.0833 20.3963 12.7666 20.3895H41.2886C41.972 20.3963 42.6074 20.8268 42.8398 21.4759C42.9833 21.8723 42.9423 22.3233 42.9423 22.7333H42.9286Z" fill="#1C1B1B" stroke="#1C1B1B"/>
<path id="Vector_2" d="M29.1449 30.6089C29.1312 27.4383 27.1086 24.5683 24.1361 23.4818C21.1841 22.409 17.7402 23.352 15.7449 25.7778C14.7472 26.9873 14.1527 28.4633 14.0229 30.0281C13.8999 31.5792 14.2757 33.1714 15.082 34.5107C15.8679 35.809 17.0432 36.875 18.4303 37.4968C19.8995 38.1596 21.5395 38.3442 23.1179 38.023C26.1451 37.408 28.5846 34.866 29.056 31.8115C29.1175 31.4084 29.1517 31.0121 29.1517 30.6089H29.1449ZM23.9106 36.9297C22.5645 37.4217 21.0885 37.4763 19.7081 37.0868C18.403 36.711 17.2345 35.9388 16.3667 34.8933C14.5559 32.7204 14.344 29.5361 15.7995 27.1308C17.2482 24.7255 20.1386 23.4408 22.8924 24.0011C25.6463 24.5615 27.7919 26.8028 28.2361 29.5771C28.2839 29.9256 28.3044 30.2741 28.3112 30.6157C28.2976 33.3969 26.5414 35.9798 23.9106 36.9365V36.9297Z" fill="#1C1B1B" stroke="#1C1B1B"/>
<path id="Vector_3" d="M39.444 27.4062H32.0299C31.49 27.4062 31.49 28.2399 32.0299 28.2399H39.444C39.9838 28.2399 39.9838 27.4062 39.444 27.4062Z" fill="#1C1B1B" stroke="#1C1B1B"/>
<path id="Vector_4" d="M39.444 32.9453H32.0299C31.49 32.9453 31.49 33.779 32.0299 33.779H39.444C39.9838 33.779 39.9838 32.9453 39.444 32.9453Z" fill="#1C1B1B" stroke="#1C1B1B"/>
<path id="Vector_5" d="M24.1474 30.5405C24.1201 29.4677 23.4436 28.5315 22.4323 28.1557C21.4483 27.7935 20.273 28.1147 19.6033 28.921C18.9132 29.7615 18.7902 30.9778 19.3642 31.914C19.9313 32.8433 21.0178 33.308 22.077 33.103C23.2591 32.8843 24.0996 31.8115 24.1406 30.6362C24.1406 30.6225 24.1406 30.602 24.1406 30.5883C24.1406 30.5747 24.1406 30.561 24.1406 30.5473L24.1474 30.5405ZM22.1863 32.2215C21.4825 32.4812 20.683 32.2625 20.2115 31.6816C19.7537 31.1145 19.7058 30.3013 20.0885 29.6795C20.4575 29.0782 21.1955 28.7365 21.8925 28.8732C22.7193 29.0372 23.3069 29.7478 23.3206 30.5883C23.3138 31.3058 22.8764 31.9687 22.1931 32.2215H22.1863Z" fill="#1C1B1B" stroke="#1C1B1B"/>
</g>
</g>
</svg>
