<svg width="55" height="55" viewBox="0 0 55 55" fill="none" xmlns="http://www.w3.org/2000/svg">
<g id="Frame 1973341146">
<g id="Group">
<g id="Group_2">
<path id="Vector" d="M17.7136 18.125C12.9102 18.125 9.01562 22.0198 9.01562 26.8233C9.01562 31.6268 12.9102 35.5216 17.7136 35.5216C22.5169 35.5216 26.4115 31.6268 26.4115 26.8233C26.4115 22.0198 22.5169 18.125 17.7136 18.125ZM17.7136 34.7072C13.3587 34.7072 9.82995 31.1783 9.82995 26.8233C9.82995 22.4682 13.3587 18.9394 17.7136 18.9394C22.0684 18.9394 25.5972 22.4682 25.5972 26.8233C25.5972 31.1783 22.0684 34.7072 17.7136 34.7072Z" fill="#232323" stroke="#232323"/>
<g id="Group 1973339910">
<path id="Vector_2" d="M15.1056 28.2842C14.8288 27.804 14.6989 27.2787 14.6989 26.7647L14.5068 26.4258L13.959 26.7421L11.3438 29.0241C11.4793 29.4082 11.6544 29.7923 11.8691 30.1595C12.0837 30.5267 12.3209 30.8656 12.592 31.1819L15.8738 30.0578L16.4216 29.7415L16.2296 29.4026C15.7834 29.1484 15.3936 28.7699 15.1169 28.2898L15.1056 28.2842Z" fill="#232323"/>
<path id="Vector_3" d="M21.4905 26.7421L20.9426 26.4258L20.7505 26.7647C20.7505 27.2844 20.6206 27.804 20.3438 28.2842C20.0671 28.7643 19.6773 29.1371 19.2311 29.397L19.0391 29.7359L19.587 30.0522L22.8687 31.1762C23.1341 30.8656 23.377 30.5267 23.5916 30.1538C23.8063 29.7867 23.9757 29.4082 24.117 29.0185L21.5018 26.7364L21.4905 26.7421Z" fill="#232323"/>
<path id="Vector_4" d="M19.6308 24.1574V23.5191L18.9643 20.113C18.5633 20.0395 18.1453 20 17.7217 20C17.298 20 16.88 20.0395 16.479 20.113L15.8125 23.5191V24.1574H16.2022C16.6485 23.8975 17.1681 23.7507 17.7217 23.7507C18.2752 23.7507 18.7948 23.8975 19.2411 24.1574H19.6308Z" fill="#232323"/>
</g>
</g>
<g id="Group_3">
<path id="Vector_5" d="M37.3229 18.125C32.5196 18.125 28.625 22.0198 28.625 26.8233C28.625 31.6268 32.5196 35.5216 37.3229 35.5216C42.1263 35.5216 46.0209 31.6268 46.0209 26.8233C46.0209 22.0198 42.1263 18.125 37.3229 18.125ZM37.3229 34.7072C32.9681 34.7072 29.4393 31.1783 29.4393 26.8233C29.4393 22.4682 32.9681 18.9394 37.3229 18.9394C41.6778 18.9394 45.2066 22.4682 45.2066 26.8233C45.2066 31.1783 41.6778 34.7072 37.3229 34.7072Z" fill="#232323" stroke="#232323"/>
<g id="Group 1973339910_2">
<path id="Vector_6" d="M34.7696 28.2842C34.4929 27.804 34.363 27.2787 34.363 26.7647L34.1709 26.4258L33.623 26.7421L31.0078 29.0241C31.1434 29.4082 31.3185 29.7923 31.5331 30.1595C31.7478 30.5267 31.985 30.8656 32.2561 31.1819L35.5378 30.0578L36.0857 29.7415L35.8937 29.4026C35.4474 29.1484 35.0577 28.7699 34.7809 28.2898L34.7696 28.2842Z" fill="#232323"/>
<path id="Vector_7" d="M41.1545 26.7421L40.6066 26.4258L40.4146 26.7647C40.4146 27.2844 40.2847 27.804 40.0079 28.2842C39.7311 28.7643 39.3414 29.1371 38.8952 29.397L38.7031 29.7359L39.251 30.0522L42.5327 31.1762C42.7982 30.8656 43.0411 30.5267 43.2557 30.1538C43.4703 29.7867 43.6398 29.4082 43.781 29.0185L41.1658 26.7364L41.1545 26.7421Z" fill="#232323"/>
<path id="Vector_8" d="M39.2949 24.1574V23.5191L38.6284 20.113C38.2273 20.0395 37.8093 20 37.3857 20C36.9621 20 36.5441 20.0395 36.1431 20.113L35.4766 23.5191V24.1574H35.8663C36.3125 23.8975 36.8322 23.7507 37.3857 23.7507C37.9393 23.7507 38.4589 23.8975 38.9051 24.1574H39.2949Z" fill="#232323"/>
</g>
</g>
<path id="Vector_9" d="M37.4585 34.7031H17.5547V35.5234H37.4585V34.7031Z" fill="#232323" stroke="#232323"/>
</g>
</g>
</svg>
