<svg width="54" height="54" viewBox="0 0 54 54" fill="none" xmlns="http://www.w3.org/2000/svg">
<g id="Frame 1973341144">
<rect width="54" height="54" rx="8" fill="#D9D9D9"/>
<g id="Group">
<path id="Vector" d="M9.21113 26.2064C9.21113 35.6017 16.8512 43.2417 26.2465 43.2417C35.6417 43.2417 43.2818 35.6017 43.2818 26.2064C43.2818 16.8112 35.6417 9.17109 26.2465 9.17109C16.8512 9.17109 9.21113 16.8112 9.21113 26.2064ZM10.1438 26.2064C10.1438 17.3261 17.3661 10.1037 26.2465 10.1037C35.1268 10.1037 42.3492 17.3261 42.3492 26.2064C42.3492 35.0867 35.1268 42.3091 26.2465 42.3091C17.3661 42.3091 10.1438 35.0867 10.1438 26.2064Z" fill="#232323" stroke="#232323" stroke-width="0.4"/>
<path id="Vector_2" d="M33.7095 25.6076L33.7095 25.6076L30.8043 21.0823L36.6225 20.8071C37.4855 22.4664 37.9428 24.3214 37.9428 26.2084C37.9428 27.8518 37.6267 29.3556 37.0225 30.7683L33.7095 25.6076ZM30.6172 20.7908C30.6173 20.7909 30.6173 20.7911 30.6174 20.7912L30.6172 20.7908ZM30.4941 32.3714L30.4941 32.3714L32.9613 27.5916L36.1084 32.4947C34.2287 35.4371 31.1163 37.3852 27.6837 37.8158L30.4941 32.3714ZM29.4562 19.4407L29.456 19.4407L24.0838 19.6952L26.7567 14.5164C30.1939 14.6342 33.4941 16.4193 35.5783 19.1532L29.4562 19.4407ZM23.9249 20.0031L23.925 20.0028L23.9249 20.0031ZM26.8158 14.4019C26.8158 14.402 26.8157 14.4021 26.8156 14.4023L26.8158 14.4019L26.6296 14.3058L26.8158 14.4019ZM23.0329 32.9761L23.0329 32.9759L28.4014 32.7217L25.7306 37.8965C22.246 37.7442 19.0035 36.0262 16.9089 33.2637L23.0329 32.9761ZM21.9912 20.0454L21.9912 20.0454L19.524 24.8252L16.3769 19.9222C18.2566 16.9793 21.3665 15.0313 24.8017 14.6009L21.9912 20.0454ZM24.9832 14.2491L24.9831 14.2494L24.9832 14.2491ZM15.4688 21.651L18.7834 26.8093L18.7836 26.8095L21.6886 31.3346L15.8665 31.6097C15.0014 29.9425 14.5463 28.0115 14.5463 26.2084C14.5463 24.6384 14.8632 23.0852 15.4688 21.651Z" stroke="#232323" stroke-width="1.2"/>
</g>
</g>
</svg>
