<svg width="56" height="56" viewBox="0 0 56 56" fill="none" xmlns="http://www.w3.org/2000/svg">
<path d="M11.667 38.4987V17.4987C11.667 16.052 11.7137 14.7687 11.877 13.6254C12.5537 7.4887 15.447 5.83203 23.3337 5.83203H32.667C40.5537 5.83203 43.447 7.4887 44.1237 13.6254C44.287 14.7687 44.3337 16.052 44.3337 17.4987V38.4987C44.3337 39.9454 44.287 41.2287 44.1237 42.372C43.447 48.5087 40.5537 50.1654 32.667 50.1654H23.3337C15.447 50.1654 12.5537 48.5087 11.877 42.372C11.7137 41.2287 11.667 39.9454 11.667 38.4987Z" stroke="#FF0037" stroke-width="3" stroke-linecap="round" stroke-linejoin="round"/>
<path d="M4.66699 45.5V10.5" stroke="#FF0037" stroke-width="3" stroke-linecap="round" stroke-linejoin="round"/>
<path d="M51.334 44.332V9.33203" stroke="#FF0037" stroke-width="3" stroke-linecap="round" stroke-linejoin="round"/>
</svg>
