<svg width="50" height="48" viewBox="0 0 50 48" fill="none" xmlns="http://www.w3.org/2000/svg">
<g id="vuesax/twotone/slider-horizontal">
<g id="slider-horizontal">
<path id="Vector" d="M8.66797 34.5026V13.5026C8.66797 12.0559 8.71464 10.7726 8.87797 9.62927C9.55464 3.4926 12.448 1.83594 20.3346 1.83594H29.668C37.5546 1.83594 40.448 3.4926 41.1246 9.62927C41.288 10.7726 41.3346 12.0559 41.3346 13.5026V34.5026C41.3346 35.9493 41.288 37.2326 41.1246 38.3759C40.448 44.5126 37.5546 46.1693 29.668 46.1693H20.3346C12.448 46.1693 9.55464 44.5126 8.87797 38.3759C8.71464 37.2326 8.66797 35.9493 8.66797 34.5026Z" stroke="#FF0037" stroke-width="3" stroke-linecap="round" stroke-linejoin="round"/>
<path id="Vector_2" d="M1.66797 41.5V6.5" stroke="#FF0037" stroke-width="3" stroke-linecap="round" stroke-linejoin="round"/>
<path id="Vector_3" d="M48.3359 40.3359V5.33594" stroke="#FF0037" stroke-width="3" stroke-linecap="round" stroke-linejoin="round"/>
</g>
</g>
</svg>
