<svg width="58" height="58" viewBox="0 0 58 58" fill="none" xmlns="http://www.w3.org/2000/svg">
<g id="Group">
<path id="Vector" d="M29 57C13.5578 57 1 44.4422 1 29C1 13.5578 13.5578 1 29 1C44.4422 1 57 13.5578 57 29C57 44.4422 44.4422 57 29 57ZM29 1.88585C14.0468 1.88585 1.88585 14.0468 1.88585 29C1.88585 43.9532 14.0468 56.1141 29 56.1141C43.9532 56.1141 56.1141 43.9532 56.1141 29C56.1141 14.0468 43.9532 1.88585 29 1.88585Z" fill="#FF0037" stroke="#FF0037" stroke-width="2"/>
<path id="Vector_2" d="M38.9214 4.19531H19.0783C17.1224 4.19531 15.5349 5.78276 15.5349 7.73872V50.2596C15.5349 52.2155 17.1224 53.803 19.0783 53.803H38.9214C40.8773 53.803 42.4648 52.2155 42.4648 50.2596V7.73872C42.4648 5.78276 40.8773 4.19531 38.9214 4.19531ZM41.0474 50.2596C41.0474 51.4289 40.0907 52.3856 38.9214 52.3856H19.0783C17.909 52.3856 16.9523 51.4289 16.9523 50.2596V7.73872C16.9523 6.56939 17.909 5.61267 19.0783 5.61267H38.9214C40.0907 5.61267 41.0474 6.56939 41.0474 7.73872V50.2596ZM38.2127 8.4474H19.787C19.3972 8.4474 19.0783 8.76631 19.0783 9.15608V31.8339C19.0783 32.2237 19.3972 32.5426 19.787 32.5426H38.2127C38.6025 32.5426 38.9214 32.2237 38.9214 31.8339V9.15608C38.9214 8.76631 38.6025 8.4474 38.2127 8.4474ZM37.504 31.1252H20.4957V9.86476H37.504V31.1252ZM31.8346 36.086C31.8346 36.4757 31.5157 36.7946 31.1259 36.7946H26.8738C26.484 36.7946 26.1651 36.4757 26.1651 36.086C26.1651 35.6962 26.484 35.3773 26.8738 35.3773H31.1259C31.5157 35.3773 31.8346 35.6962 31.8346 36.086ZM24.7478 36.086C24.7478 36.4757 24.4289 36.7946 24.0391 36.7946H19.787C19.3972 36.7946 19.0783 36.4757 19.0783 36.086C19.0783 35.6962 19.3972 35.3773 19.787 35.3773H24.0391C24.4289 35.3773 24.7478 35.6962 24.7478 36.086ZM38.9214 36.086C38.9214 36.4757 38.6025 36.7946 38.2127 36.7946H33.9606C33.5708 36.7946 33.2519 36.4757 33.2519 36.086C33.2519 35.6962 33.5708 35.3773 33.9606 35.3773H38.2127C38.6025 35.3773 38.9214 35.6962 38.9214 36.086ZM31.8346 40.3381C31.8346 40.7278 31.5157 41.0467 31.1259 41.0467H26.8738C26.484 41.0467 26.1651 40.7278 26.1651 40.3381C26.1651 39.9483 26.484 39.6294 26.8738 39.6294H31.1259C31.5157 39.6294 31.8346 39.9483 31.8346 40.3381ZM24.7478 40.3381C24.7478 40.7278 24.4289 41.0467 24.0391 41.0467H19.787C19.3972 41.0467 19.0783 40.7278 19.0783 40.3381C19.0783 39.9483 19.3972 39.6294 19.787 39.6294H24.0391C24.4289 39.6294 24.7478 39.9483 24.7478 40.3381ZM38.9214 40.3381C38.9214 40.7278 38.6025 41.0467 38.2127 41.0467H33.9606C33.5708 41.0467 33.2519 40.7278 33.2519 40.3381C33.2519 39.9483 33.5708 39.6294 33.9606 39.6294H38.2127C38.6025 39.6294 38.9214 39.9483 38.9214 40.3381ZM31.8346 44.5901C31.8346 44.9799 31.5157 45.2988 31.1259 45.2988H26.8738C26.484 45.2988 26.1651 44.9799 26.1651 44.5901C26.1651 44.2004 26.484 43.8815 26.8738 43.8815H31.1259C31.5157 43.8815 31.8346 44.2004 31.8346 44.5901ZM24.7478 44.5901C24.7478 44.9799 24.4289 45.2988 24.0391 45.2988H19.787C19.3972 45.2988 19.0783 44.9799 19.0783 44.5901C19.0783 44.2004 19.3972 43.8815 19.787 43.8815H24.0391C24.4289 43.8815 24.7478 44.2004 24.7478 44.5901ZM38.9214 44.5901C38.9214 44.9799 38.6025 45.2988 38.2127 45.2988H33.9606C33.5708 45.2988 33.2519 44.9799 33.2519 44.5901C33.2519 44.2004 33.5708 43.8815 33.9606 43.8815H38.2127C38.6025 43.8815 38.9214 44.2004 38.9214 44.5901ZM31.8346 48.8422C31.8346 49.232 31.5157 49.5509 31.1259 49.5509H26.8738C26.484 49.5509 26.1651 49.232 26.1651 48.8422C26.1651 48.4524 26.484 48.1335 26.8738 48.1335H31.1259C31.5157 48.1335 31.8346 48.4524 31.8346 48.8422ZM24.7478 48.8422C24.7478 49.232 24.4289 49.5509 24.0391 49.5509H19.787C19.3972 49.5509 19.0783 49.232 19.0783 48.8422C19.0783 48.4524 19.3972 48.1335 19.787 48.1335H24.0391C24.4289 48.1335 24.7478 48.4524 24.7478 48.8422ZM38.9214 48.8422C38.9214 49.232 38.6025 49.5509 38.2127 49.5509H33.9606C33.5708 49.5509 33.2519 49.232 33.2519 48.8422C33.2519 48.4524 33.5708 48.1335 33.9606 48.1335H38.2127C38.6025 48.1335 38.9214 48.4524 38.9214 48.8422Z" fill="#FF0037" stroke="#FF0037"/>
</g>
</svg>
