<svg width="55" height="55" viewBox="0 0 55 55" fill="none" xmlns="http://www.w3.org/2000/svg">
<g id="Frame 1973341146">
<g id="volume-high">
<path id="Vector" d="M11 23.8008V30.2016C11 33.402 12.6004 35.0022 15.8011 35.0022H18.0896C18.6817 35.0022 19.2738 35.1783 19.7859 35.4823L24.4589 38.4107C28.4918 40.939 31.8046 39.0987 31.8046 34.3462V19.6563C31.8046 14.8877 28.4918 13.0635 24.4589 15.5918L19.7859 18.5202C19.2738 18.8242 18.6817 19.0002 18.0896 19.0002H15.8011C12.6004 19.0002 11 20.6004 11 23.8008Z" stroke="#1C1B1B" stroke-width="2"/>
<path id="Vector_2" d="M36.6094 20.6016C39.458 24.394 39.458 29.6107 36.6094 33.4032" stroke="#1C1B1B" stroke-width="2" stroke-linecap="round" stroke-linejoin="round"/>
<path id="Vector_3" d="M39.5312 16.6016C44.1563 22.7623 44.1563 31.2434 39.5312 37.4042" stroke="#1C1B1B" stroke-width="2" stroke-linecap="round" stroke-linejoin="round"/>
</g>
</g>
</svg>
