<svg width="54" height="54" viewBox="0 0 54 54" fill="none" xmlns="http://www.w3.org/2000/svg">
<g id="Frame 1973341145">
<rect width="54" height="54" rx="8" fill="#D9D9D9"/>
<g id="Group">
<path id="Vector" d="M18.7271 19.3648C18.7271 22.1026 20.1377 24.6568 22.4498 26.1509V29.8903C21.9656 29.8903 21.5733 30.2826 21.5733 30.7667V32.5196C21.5733 33.0037 21.9656 33.3961 22.4498 33.3961V42.7201C22.4498 43.2043 22.842 43.5966 23.3262 43.5966H30.3375C30.8216 43.5966 31.2139 43.2043 31.2139 42.7201V26.1509C33.526 24.6651 34.9366 22.1109 34.9366 19.3648C34.9366 18.8806 34.5443 18.4883 34.0602 18.4883H19.5952C19.111 18.4883 18.7188 18.8806 18.7188 19.3648H18.7271ZM33.1254 20.2412C32.8499 22.1693 31.6646 23.9055 29.9118 24.8905C29.6364 25.0491 29.4611 25.3412 29.4611 25.6584V41.8436H24.2026V25.6584C24.2026 25.3412 24.0273 25.0491 23.7519 24.8905C21.9907 23.9055 20.8138 22.1777 20.5384 20.2412H33.1254Z" fill="#232323"/>
<path id="Vector_2" d="M25.9688 11.4741V13.2269C25.9688 13.7111 26.361 14.1034 26.8452 14.1034C27.3293 14.1034 27.7216 13.7111 27.7216 13.2269V11.4741C27.7216 10.99 27.3293 10.5977 26.8452 10.5977C26.361 10.5977 25.9688 10.99 25.9688 11.4741Z" fill="#232323" stroke="#232323" stroke-width="0.5"/>
<path id="Vector_3" d="M32.2567 14.492C31.9144 14.8342 31.9144 15.3935 32.2567 15.7273C32.5989 16.0696 33.1582 16.0696 33.492 15.7273L34.7273 14.492C34.8943 14.3167 34.9861 14.0997 34.9861 13.8743C34.9861 13.649 34.9026 13.4236 34.7273 13.2567C34.3851 12.9144 33.8259 12.9144 33.492 13.2567L32.2567 14.492Z" fill="#232323" stroke="#232323" stroke-width="0.5"/>
<path id="Vector_4" d="M21.9861 15.1097C21.9861 14.8843 21.9026 14.6589 21.7273 14.492L20.492 13.2567C20.1498 12.9144 19.5905 12.9144 19.2567 13.2567C18.9144 13.5989 18.9144 14.1581 19.2567 14.492L20.492 15.7273C20.8342 16.0696 21.3935 16.0696 21.7273 15.7273C21.8943 15.5521 21.9861 15.335 21.9861 15.1097Z" fill="#232323" stroke="#232323" stroke-width="0.5"/>
</g>
</g>
</svg>
