<svg width="58" height="58" viewBox="0 0 58 58" fill="none" xmlns="http://www.w3.org/2000/svg">
<g id="Group">
<path id="Vector" d="M29 57C13.5578 57 1 44.4422 1 29C1 13.5578 13.5578 1 29 1C44.4422 1 57 13.5578 57 29C57 44.4422 44.4422 57 29 57ZM29 1.88585C14.0468 1.88585 1.88585 14.0468 1.88585 29C1.88585 43.9532 14.0468 56.1142 29 56.1142C43.9532 56.1142 56.1142 43.9532 56.1142 29C56.1142 14.0468 43.9532 1.88585 29 1.88585Z" fill="#FF0037" stroke="#FF0037" stroke-width="2"/>
<g id="Group_2">
<g id="Group_3">
<path id="Vector_2" d="M17.2311 18.5547C11.4625 18.5547 6.78516 23.232 6.78516 29.0006C6.78516 34.7693 11.4625 39.4466 17.2311 39.4466C22.9998 39.4466 27.6771 34.7693 27.6771 29.0006C27.6771 23.232 22.9998 18.5547 17.2311 18.5547ZM17.2311 38.4686C12.0011 38.4686 7.76314 34.2307 7.76314 29.0006C7.76314 23.7706 12.0011 19.5327 17.2311 19.5327C22.4612 19.5327 26.6991 23.7706 26.6991 29.0006C26.6991 34.2307 22.4612 38.4686 17.2311 38.4686Z" fill="#FF0037" stroke="#FF0037"/>
<path id="Vector_3" d="M13.9493 30.9019C13.6021 30.2995 13.4391 29.6404 13.4391 28.9955L13.1981 28.5703L12.5107 28.9672L9.22949 31.8302C9.39958 32.3121 9.61927 32.794 9.88857 33.2547C10.1579 33.7153 10.4555 34.1405 10.7957 34.5374L14.9131 33.1271L15.6005 32.7303L15.3596 32.305C14.7997 31.9861 14.3107 31.5113 13.9635 30.909L13.9493 30.9019Z" fill="#FF0037"/>
<path id="Vector_4" d="M21.9653 28.9672L21.2779 28.5703L21.037 28.9955C21.037 29.6475 20.874 30.2995 20.5267 30.9019C20.1794 31.5042 19.6905 31.972 19.1306 32.298L18.8896 32.7232L19.5771 33.12L23.6945 34.5303C24.0276 34.1405 24.3323 33.7153 24.6016 33.2476C24.8709 32.787 25.0835 32.3121 25.2607 31.8231L21.9795 28.9601L21.9653 28.9672Z" fill="#FF0037"/>
<path id="Vector_5" d="M19.6315 25.7198V24.919L18.7953 20.6457C18.2921 20.5535 17.7677 20.5039 17.2362 20.5039C16.7047 20.5039 16.1802 20.5535 15.6771 20.6457L14.8408 24.919V25.7198H15.3298C15.8897 25.3938 16.5417 25.2096 17.2362 25.2096C17.9307 25.2096 18.5827 25.3938 19.1425 25.7198H19.6315Z" fill="#FF0037"/>
</g>
<g id="Group_4">
<path id="Vector_6" d="M40.7751 18.5547C35.0064 18.5547 30.3291 23.232 30.3291 29.0006C30.3291 34.7693 35.0064 39.4466 40.7751 39.4466C46.5437 39.4466 51.221 34.7693 51.221 29.0006C51.221 23.232 46.5437 18.5547 40.7751 18.5547ZM40.7751 38.4686C35.545 38.4686 31.3071 34.2307 31.3071 29.0006C31.3071 23.7706 35.545 19.5327 40.7751 19.5327C46.0051 19.5327 50.2431 23.7706 50.2431 29.0006C50.2431 34.2307 46.0051 38.4686 40.7751 38.4686Z" fill="#FF0037" stroke="#FF0037"/>
<path id="Vector_7" d="M43.1716 25.7198V24.919L42.3353 20.6457C41.8321 20.5535 41.3077 20.5039 40.7762 20.5039C40.2447 20.5039 39.7203 20.5535 39.2171 20.6457L38.3809 24.919V25.7198H38.8699C39.4297 25.3938 40.0817 25.2096 40.7762 25.2096C41.4707 25.2096 42.1227 25.3938 42.6826 25.7198H43.1716Z" fill="#FF0037"/>
<path id="Vector_8" d="M37.4884 30.9019C37.1411 30.2995 36.9781 29.6404 36.9781 28.9955L36.7372 28.5703L36.0498 28.9672L32.7686 31.8302C32.9386 32.3121 33.1583 32.794 33.4276 33.2547C33.6969 33.7153 33.9946 34.1405 34.3347 34.5374L38.4522 33.1271L39.1396 32.7303L38.8986 32.305C38.3388 31.9861 37.8498 31.5113 37.5025 30.909L37.4884 30.9019Z" fill="#FF0037"/>
<path id="Vector_9" d="M45.4995 28.9672L44.8121 28.5703L44.5711 28.9955C44.5711 29.6475 44.4081 30.2995 44.0609 30.9019C43.7136 31.5042 43.2246 31.972 42.6648 32.298L42.4238 32.7232L43.1112 33.12L47.2287 34.5303C47.5618 34.1405 47.8665 33.7153 48.1358 33.2476C48.4051 32.787 48.6177 32.3121 48.7949 31.8231L45.5137 28.9601L45.4995 28.9672Z" fill="#FF0037"/>
</g>
<path id="Vector_10" d="M40.9409 38.4648H17.0371V39.4499H40.9409V38.4648Z" fill="#FF0037" stroke="#FF0037"/>
</g>
</g>
</svg>
