<svg width="54" height="54" viewBox="0 0 54 54" fill="none" xmlns="http://www.w3.org/2000/svg">
<g id="Frame 1973340977">
<rect width="54" height="54" rx="8" fill="#D9D9D9"/>
<g id="Group 1973340278">
<path id="Vector" fill-rule="evenodd" clip-rule="evenodd" d="M40.2031 31.7723L45.5022 26.9383L42.9921 21.9375L40.2031 31.7723Z" fill="#097939"/>
<path id="Vector_2" fill-rule="evenodd" clip-rule="evenodd" d="M38.4141 31.7723L43.7131 26.9383L41.2031 21.9375L38.4141 31.7723Z" fill="#ED752E"/>
<path id="Vector_3" fill-rule="evenodd" clip-rule="evenodd" d="M13.0912 21.9949L10.8601 29.9405L18.7806 29.996L20.9562 21.9949H22.9641L20.3557 31.2965C20.2558 31.6517 19.8754 31.9403 19.5065 31.9403H9.35427C8.7386 31.9403 8.37379 31.4593 8.54028 30.8673L11.0281 21.9949H13.0912ZM37.5781 21.9394H39.5861L36.7971 31.9403H34.7325L37.5781 21.9394ZM23.1876 26.1062L33.2277 26.0507L33.8974 23.9392H23.6893L24.3028 21.9945L35.1806 21.8946C35.8577 21.8883 36.261 22.4126 36.0826 23.0664L35.0577 26.8122C34.879 27.4656 34.1846 27.995 33.5075 27.995H24.5262L23.4673 32.1068H21.5137L23.1876 26.1062Z" fill="#1C1B1B"/>
</g>
</g>
</svg>
