<svg width="56" height="56" viewBox="0 0 56 56" fill="none" xmlns="http://www.w3.org/2000/svg">
<g id="vuesax/twotone/setting-2">
<path id="Vector" d="M35.0026 40.1406V41.3073C35.0026 42.8312 34.0287 44.1276 32.6693 44.608V50.6406C32.6693 51.2849 32.1468 51.8073 31.5026 51.8073C30.8584 51.8073 30.3359 51.2849 30.3359 50.6406V44.8073H25.6693V50.6406C25.6693 51.2849 25.1468 51.8073 24.5026 51.8073C23.8584 51.8073 23.3359 51.2849 23.3359 50.6406V44.608C21.9765 44.1276 21.0026 42.8312 21.0026 41.3073V40.1406H17.5026C16.8583 40.1406 16.3359 39.6182 16.3359 38.974V20.3073C16.3359 19.663 16.8583 19.1406 17.5026 19.1406H18.6693V6.30729C18.6693 5.66296 19.1916 5.14062 19.8359 5.14062H36.1693C36.8135 5.14062 37.3359 5.66296 37.3359 6.30729V19.1406H38.5026C39.1468 19.1406 39.6693 19.663 39.6693 20.3073V38.974C39.6693 39.6182 39.1468 40.1406 38.5026 40.1406H35.0026ZM32.6693 40.1406H23.3359V41.3073C23.3359 41.8762 23.7431 42.3501 24.2821 42.4532C24.3535 42.4394 24.4272 42.4324 24.5026 42.4324C24.6099 42.4324 24.7138 42.4469 24.8125 42.474H31.1927C31.2914 42.4469 31.3953 42.4324 31.5026 42.4324C31.578 42.4324 31.6517 42.4394 31.7231 42.4532C32.2621 42.3501 32.6693 41.8762 32.6693 41.3073V40.1406ZM21.0026 19.1406H35.0026V7.47396H21.0026V19.1406ZM25.6693 15.6406C25.6693 16.285 25.1468 16.8073 24.5026 16.8073C23.8584 16.8073 23.3359 16.285 23.3359 15.6406V13.3073C23.3359 12.663 23.8584 12.1406 24.5026 12.1406C25.1468 12.1406 25.6693 12.663 25.6693 13.3073V15.6406ZM32.6693 15.6406C32.6693 16.285 32.1468 16.8073 31.5026 16.8073C30.8584 16.8073 30.3359 16.285 30.3359 15.6406V13.3073C30.3359 12.663 30.8584 12.1406 31.5026 12.1406C32.1468 12.1406 32.6693 12.663 32.6693 13.3073V15.6406ZM18.6693 21.474V37.8073H37.3359V21.474H18.6693Z" fill="#FF0037" stroke="#FF0037" stroke-width="0.5"/>
</g>
</svg>
