<svg width="56" height="56" viewBox="0 0 56 56" fill="none" xmlns="http://www.w3.org/2000/svg">
<g id="vuesax/twotone/user-square">
<g id="user-square">
<path id="Vector" d="M51.3337 21.0013V35.0013C51.3337 43.8213 48.6737 48.6513 42.327 50.448C40.2737 51.0546 37.847 51.3346 35.0003 51.3346H21.0003C18.1537 51.3346 15.727 51.0546 13.6737 50.448C7.32699 48.6513 4.66699 43.8213 4.66699 35.0013V21.0013C4.66699 9.33464 9.33366 4.66797 21.0003 4.66797H35.0003C46.667 4.66797 51.3337 9.33464 51.3337 21.0013Z" stroke="#FF0037" stroke-width="3" stroke-linecap="round" stroke-linejoin="round"/>
<path id="Vector_2" d="M42.3272 50.4438C40.2738 51.0505 37.8472 51.3305 35.0005 51.3305H21.0005C18.1538 51.3305 15.7272 51.0505 13.6738 50.4438C14.1872 44.3771 20.4172 39.5938 28.0005 39.5938C35.5838 39.5938 41.8138 44.3771 42.3272 50.4438Z" stroke="#FF0037" stroke-width="3" stroke-linecap="round" stroke-linejoin="round"/>
<path id="Vector_3" d="M36.3532 24.6854C36.3532 29.3054 32.6198 33.062 27.9998 33.062C23.3798 33.062 19.6465 29.3054 19.6465 24.6854C19.6465 20.0654 23.3798 16.332 27.9998 16.332C32.6198 16.332 36.3532 20.0654 36.3532 24.6854Z" stroke="#FF0037" stroke-width="3" stroke-linecap="round" stroke-linejoin="round"/>
</g>
</g>
</svg>
