<svg width="54" height="54" viewBox="0 0 54 54" fill="none" xmlns="http://www.w3.org/2000/svg">
<g id="Frame 1973341144">
<rect width="54" height="54" rx="8" fill="#D9D9D9"/>
<g id="Group 1973339909">
<g id="Group 1973339897">
<rect id="Rectangle 293029805" x="16" y="8" width="21" height="37" rx="2" stroke="#1C1B1B" stroke-width="1.8"/>
<rect id="Rectangle 293029806" x="19.3125" y="11.1562" width="14" height="15" rx="1" stroke="#1C1B1B" stroke-width="1.6"/>
<g id="Group 1973339896">
<rect id="Rectangle 293029807" x="19" y="39.6562" width="4.5" height="2" rx="1" fill="#1C1B1B"/>
<rect id="Rectangle 293029810" x="19" y="36.1562" width="4.5" height="2" rx="1" fill="#1C1B1B"/>
<rect id="Rectangle 293029813" x="19" y="32.6562" width="4.5" height="2" rx="1" fill="#1C1B1B"/>
<rect id="Rectangle 293029816" x="19" y="29.1562" width="4.5" height="2" rx="1" fill="#1C1B1B"/>
<rect id="Rectangle 293029808" x="24.5" y="39.6562" width="4.5" height="2" rx="1" fill="#1C1B1B"/>
<rect id="Rectangle 293029811" x="24.5" y="36.1562" width="4.5" height="2" rx="1" fill="#1C1B1B"/>
<rect id="Rectangle 293029814" x="24.5" y="32.6562" width="4.5" height="2" rx="1" fill="#1C1B1B"/>
<rect id="Rectangle 293029817" x="24.5" y="29.1562" width="4.5" height="2" rx="1" fill="#1C1B1B"/>
<rect id="Rectangle 293029809" x="30" y="39.6562" width="4.5" height="2" rx="1" fill="#1C1B1B"/>
<rect id="Rectangle 293029812" x="30" y="36.1562" width="4.5" height="2" rx="1" fill="#1C1B1B"/>
<rect id="Rectangle 293029815" x="30" y="32.6562" width="4.5" height="2" rx="1" fill="#1C1B1B"/>
<rect id="Rectangle 293029818" x="30" y="29.1562" width="4.5" height="2" rx="1" fill="#1C1B1B"/>
</g>
</g>
<path id="Vector" d="M48.4204 12.0234L41.6629 18.7884L46.6643 23.7899L41.8482 28.6061L45.827 32.585L39.3438 39.0684" stroke="#181818" stroke-width="1.5" stroke-linecap="round" stroke-linejoin="round"/>
<path id="Vector_2" d="M4.19531 12.0234L10.9602 18.7884L5.95877 23.7899L10.7749 28.6061L6.78863 32.585L13.2719 39.0684" stroke="#181818" stroke-width="1.5" stroke-linecap="round" stroke-linejoin="round"/>
</g>
</g>
</svg>
