<svg width="54" height="54" viewBox="0 0 54 54" fill="none" xmlns="http://www.w3.org/2000/svg">
<g id="Frame 1973341147">
<rect width="54" height="54" rx="8" fill="#D9D9D9"/>
<path id="Vector" d="M8.91153 38.7019V38.7676V47.1998C8.91153 47.4786 9.03829 47.6806 9.23173 47.8154C9.42854 47.9526 9.69706 48.0213 9.97172 48.0172C10.2463 48.0132 10.516 47.9367 10.7141 47.7966C10.9097 47.6584 11.0349 47.4597 11.0349 47.1998V39.5193V39.39L11.16 39.4225C11.6842 39.5586 12.2213 39.681 12.7714 39.7761L12.7715 39.7761C14.2558 40.0348 15.7601 40.171 17.2643 40.171C17.9923 40.171 18.7203 40.1369 19.4346 40.0689L19.4348 40.0689C21.9424 39.8348 23.7878 37.6148 23.5538 35.1075L8.91153 38.7019ZM8.91153 38.7019C8.9271 38.6068 8.97117 38.464 9.06265 38.304C9.18048 38.098 9.3743 37.8683 9.67789 37.6818C10.2834 37.3097 11.3447 37.0984 13.1499 37.6268L13.1499 37.6268C15.1101 38.1997 17.211 38.102 19.2267 37.938L19.2268 37.938C19.9196 37.8808 20.5478 37.5165 20.9473 36.9458C21.3538 36.368 21.482 35.6408 21.3038 34.9568L21.3039 34.9568L21.3032 34.9545C21.2895 34.9064 21.2797 34.864 21.2797 34.8317H21.2798L21.2796 34.8269C21.2392 33.9791 21.3671 33.1311 21.6498 32.3369L21.65 32.3364L21.7934 31.9264L21.8279 31.8279L21.728 31.7976C18.2437 30.7443 17.2947 28.5098 17.0342 27.2672L17.034 27.2666C16.982 27.026 16.9753 26.778 17.0081 26.5286L17.0081 26.5286C17.1648 25.3334 18.2621 24.4968 19.4582 24.6536C20.8063 24.8324 22.175 24.8324 23.5298 24.6536L23.6128 24.6426L23.6166 24.559L23.7669 21.2243L23.767 21.2234C23.7857 20.7044 24.1666 20.2732 24.6789 20.1913C25.6613 20.0656 26.5806 19.6544 27.3326 19.0208L27.3327 19.0209L27.3368 19.017C27.614 18.7553 27.6922 18.3457 27.5216 18.0045L27.5168 17.9948L27.51 17.9864C27.3326 17.7665 27.112 17.5736 26.8613 17.4369C24.0441 15.6316 22.409 12.4621 22.5574 9.11661C22.5986 8.46357 22.5986 7.8037 22.5573 7.15066C22.5198 6.54985 22.9769 6.0296 23.5786 5.98572C24.1782 5.942 24.6982 6.39788 24.7426 6.99938C24.7833 7.74026 24.7833 8.48109 24.7425 9.21507L24.7424 9.21658C24.6385 11.7873 25.9134 14.2262 28.0822 15.612L28.0821 15.6121L28.0863 15.6145C28.6779 15.9535 29.1699 16.4519 29.5027 17.0567C30.0898 18.2529 29.8189 19.7003 28.8406 20.6131C28.0392 21.3334 27.0766 21.8583 26.027 22.1274L25.9557 22.1457L25.952 22.2192L25.7811 25.6016C25.7561 26.0906 25.4182 26.503 24.9438 26.6161C23.0963 26.9963 21.2014 27.0709 19.3337 26.8332L19.188 26.8147L19.2242 26.957C19.5645 28.297 20.7383 29.265 22.5948 29.7758C23.1285 29.9255 23.5775 30.2901 23.8311 30.7778L23.8314 30.7783C24.0912 31.272 24.1309 31.8579 23.9486 32.3929L23.7167 33.0204L23.7167 33.0204L23.7157 33.0234C23.5628 33.482 23.4651 33.9627 23.4441 34.4447L23.4435 34.4596L23.4472 34.474C23.5003 34.6795 23.5337 34.8928 23.5538 35.1075L8.91153 38.7019ZM29.8132 34.7081L29.8131 34.7078L29.8064 34.7118C29.2859 35.0254 28.6163 34.862 28.3035 34.3493C27.9949 33.8368 28.1487 33.1797 28.643 32.8612H28.6504L28.675 32.8454C30.2703 31.8264 30.8114 29.7393 29.9048 28.0736L29.9045 28.073C29.6101 27.5406 29.8043 26.8776 30.3361 26.5899L30.3368 26.5894C30.8692 26.2951 31.5322 26.4893 31.82 27.021L31.8201 27.0212C33.2778 29.7015 32.4112 33.0468 29.8451 34.6859L29.8359 34.6917L29.8282 34.6994C29.8271 34.7005 29.8267 34.7013 29.8132 34.7081ZM33.5958 39.4808H33.4958V39.4869C33.1803 39.4703 32.8843 39.3177 32.6916 39.0627L32.6912 39.0621C32.3218 38.5802 32.4153 37.8977 32.8918 37.5278L32.8918 37.5278L32.8931 37.5267C36.3166 34.7728 37.5247 30.0932 35.8617 26.0277C35.649 25.4759 35.9065 24.8569 36.4438 24.6258L36.4439 24.6257C36.9941 24.3881 37.6388 24.6445 37.8769 25.1947C39.9162 30.1552 38.4525 35.8745 34.2786 39.2427C34.0832 39.3936 33.8451 39.4808 33.5958 39.4808ZM41.8751 24.0737C41.6694 23.5506 41.906 22.9595 42.3993 22.7089L42.4938 22.6732C43.0577 22.4602 43.6898 22.7424 43.9024 23.3051C46.648 30.57 44.5347 38.7725 38.616 43.8018C38.5975 43.8166 38.5776 43.8345 38.5625 43.8474C38.5455 43.8619 38.5303 43.8742 38.5149 43.8845L38.5148 43.8844L38.5114 43.887C38.023 44.2439 37.3406 44.1375 36.9837 43.6558C36.6268 43.1673 36.7334 42.4848 37.2154 42.128L37.2155 42.1281L37.2207 42.1237C42.4256 37.6958 44.2958 30.4694 41.8755 24.0749L41.8751 24.0737Z" fill="#1C1B1B" stroke="#CECCD5" stroke-width="0.2"/>
</g>
</svg>
