<svg xmlns="http://www.w3.org/2000/svg" width="314" height="253" viewBox="0 0 314 253" fill="none">
  <g filter="url(#filter0_bi_743_4182)">
    <path d="M314 130.851V229C314 242.255 303.255 253 290 253H177.37H88.685H24C10.7451 253 0 242.255 0 229V191.925V130.851V24C0 10.7452 10.7451 0 24 0H177.37H228.209C232.847 0 237.385 1.34389 241.276 3.86911L303.067 43.9781C309.885 48.4039 314 55.9802 314 64.109V130.851Z" fill="#F8EAEA" fill-opacity="0.1"/>
    <path d="M312.5 229V130.851V64.109C312.5 56.4883 308.643 49.3855 302.25 45.2363L240.459 5.12729C236.812 2.75989 232.557 1.5 228.209 1.5H177.37H24C11.5736 1.5 1.5 11.5736 1.5 24V130.851V191.925V229C1.5 241.426 11.5736 251.5 24 251.5H88.685H177.37H290C302.426 251.5 312.5 241.426 312.5 229Z" stroke="url(#paint0_linear_743_4182)" stroke-opacity="0.5" stroke-width="3" stroke-linecap="round"/>
  </g>
  <defs>
    <filter id="filter0_bi_743_4182" x="-30" y="-30" width="374" height="313" filterUnits="userSpaceOnUse" color-interpolation-filters="sRGB">
      <feFlood flood-opacity="0" result="BackgroundImageFix"/>
      <feGaussianBlur in="BackgroundImageFix" stdDeviation="15"/>
      <feComposite in2="SourceAlpha" operator="in" result="effect1_backgroundBlur_743_4182"/>
      <feBlend mode="normal" in="SourceGraphic" in2="effect1_backgroundBlur_743_4182" result="shape"/>
      <feColorMatrix in="SourceAlpha" type="matrix" values="0 0 0 0 0 0 0 0 0 0 0 0 0 0 0 0 0 0 127 0" result="hardAlpha"/>
      <feOffset dx="8" dy="8"/>
      <feGaussianBlur stdDeviation="10"/>
      <feComposite in2="hardAlpha" operator="arithmetic" k2="-1" k3="1"/>
      <feColorMatrix type="matrix" values="0 0 0 0 1 0 0 0 0 1 0 0 0 0 1 0 0 0 0.15 0"/>
      <feBlend mode="normal" in2="shape" result="effect2_innerShadow_743_4182"/>
    </filter>
    <linearGradient id="paint0_linear_743_4182" x1="-1.10856" y1="252.237" x2="113.01" y2="86.5279" gradientUnits="userSpaceOnUse">
      <stop stop-color="white" stop-opacity="0.5"/>
      <stop offset="1" stop-color="white" stop-opacity="0.1"/>
    </linearGradient>
  </defs>
</svg>