<svg width="788" height="620" viewBox="0 0 788 620" fill="none" xmlns="http://www.w3.org/2000/svg">
<mask id="path-1-outside-1_16226_4665" maskUnits="userSpaceOnUse" x="13.5332" y="-16.5234" width="815" height="254" fill="black">
<rect fill="white" x="13.5332" y="-16.5234" width="815" height="254"/>
<path d="M110.698 234.55C92.0957 234.55 75.6676 231.892 61.4138 226.577C47.16 221.263 36.0469 213.773 28.0744 204.11C20.102 194.204 16.2365 182.246 16.4781 168.234L71.923 157.724C73.1309 168.113 77.4795 175.844 84.9688 180.917C92.4581 185.99 101.035 188.527 110.698 188.527C122.536 188.527 131.596 185.145 137.877 178.38C144.4 171.616 147.661 161.59 147.661 148.302C147.661 141.779 146.937 135.981 145.487 130.908C144.037 125.593 141.863 121.124 138.964 117.5C136.065 113.876 132.32 111.218 127.73 109.527C123.382 107.595 118.187 106.628 112.148 106.628C108.765 106.628 105.504 107.111 102.363 108.078C99.2226 108.803 96.2027 110.01 93.3037 111.702C90.4046 113.393 87.6263 115.688 84.9688 118.587C82.5529 121.486 80.0162 124.989 77.3587 129.096H20.102L29.524 -9.69725L197.67 -9.69725L197.67 38.4999L77.7211 38.4999L72.6477 101.192H76.634C81.7073 89.5961 89.6798 80.7781 100.551 74.7384C111.423 68.457 123.502 65.3164 136.79 65.3164C152.493 65.3164 165.539 68.6986 175.927 75.4631C186.557 81.986 194.53 91.408 199.845 103.729C205.16 115.809 207.817 130.304 207.817 147.215C207.817 167.267 203.71 183.816 195.496 196.862C187.524 209.666 176.169 219.209 161.432 225.49C146.937 231.53 130.025 234.55 110.698 234.55ZM307.212 234.55C291.509 234.55 277.135 231.892 264.089 226.577C251.284 221.021 240.292 213.048 231.112 202.66C221.931 192.272 214.925 179.347 210.093 163.885C205.262 148.423 202.846 130.787 202.846 110.977C202.846 82.9524 207.436 59.7598 216.616 41.399C225.797 22.7966 238.359 8.90516 254.304 -0.275245C270.491 -9.69725 288.731 -14.4083 309.024 -14.4083C329.801 -14.4083 348.041 -9.69725 363.744 -0.275245C379.448 9.14675 391.648 23.0381 400.345 41.399C409.043 59.7598 413.391 82.4692 413.391 109.527C413.391 130.062 410.734 148.182 405.419 163.885C400.345 179.588 392.977 192.634 383.313 203.022C373.891 213.411 362.657 221.263 349.611 226.577C336.807 231.892 322.674 234.55 307.212 234.55ZM308.662 188.889C313.977 188.889 319.292 187.682 324.607 185.266C330.163 182.608 335.237 178.38 339.827 172.582C344.417 166.784 348.041 159.053 350.699 149.39C353.356 139.484 354.685 127.163 354.685 112.426C354.685 94.7903 352.752 79.9325 348.887 67.853C345.021 55.7736 339.585 46.5932 332.579 40.3118C325.573 34.0305 317.359 30.8898 307.937 30.8898C301.173 30.8898 294.167 33.1849 286.919 37.7751C279.671 42.3653 273.631 50.3378 268.8 61.6925C263.968 73.0472 261.552 89.1129 261.552 109.89C261.552 124.385 262.76 136.706 265.176 146.853C267.833 156.758 271.336 164.851 275.685 171.133C280.275 177.172 285.349 181.642 290.905 184.541C296.703 187.44 302.622 188.889 308.662 188.889ZM513.743 234.55C498.04 234.55 483.665 231.892 470.62 226.577C457.815 221.021 446.823 213.048 437.643 202.66C428.462 192.272 421.456 179.347 416.624 163.885C411.792 148.423 409.377 130.787 409.377 110.977C409.377 82.9524 413.967 59.7598 423.147 41.399C432.328 22.7966 444.89 8.90516 460.835 -0.275245C477.022 -9.69725 495.262 -14.4083 515.555 -14.4083C536.332 -14.4083 554.572 -9.69725 570.275 -0.275245C585.979 9.14675 598.179 23.0381 606.876 41.399C615.573 59.7598 619.922 82.4692 619.922 109.527C619.922 130.062 617.265 148.182 611.95 163.885C606.876 179.588 599.508 192.634 589.844 203.022C580.422 213.411 569.188 221.263 556.142 226.577C543.338 231.892 529.205 234.55 513.743 234.55ZM515.193 188.889C520.508 188.889 525.823 187.682 531.138 185.266C536.694 182.608 541.768 178.38 546.358 172.582C550.948 166.784 554.572 159.053 557.229 149.39C559.887 139.484 561.216 127.163 561.216 112.426C561.216 94.7903 559.283 79.9325 555.418 67.853C551.552 55.7736 546.116 46.5932 539.11 40.3118C532.104 34.0305 523.89 30.8898 514.468 30.8898C507.704 30.8898 500.697 33.1849 493.45 37.7751C486.202 42.3653 480.162 50.3378 475.331 61.6925C470.499 73.0472 468.083 89.1129 468.083 109.89C468.083 124.385 469.291 136.706 471.707 146.853C474.364 156.758 477.867 164.851 482.216 171.133C486.806 177.172 491.879 181.642 497.436 184.541C503.234 187.44 509.153 188.889 515.193 188.889ZM720.274 234.55C704.571 234.55 690.196 231.892 677.15 226.577C664.346 221.021 653.354 213.048 644.173 202.66C634.993 192.272 627.987 179.347 623.155 163.885C618.323 148.423 615.907 130.787 615.907 110.977C615.907 82.9524 620.498 59.7598 629.678 41.399C638.858 22.7966 651.421 8.90516 667.366 -0.275245C683.553 -9.69725 701.793 -14.4083 722.086 -14.4083C742.863 -14.4083 761.103 -9.69725 776.806 -0.275245C792.51 9.14675 804.71 23.0381 813.407 41.399C822.104 59.7598 826.453 82.4692 826.453 109.527C826.453 130.062 823.795 148.182 818.48 163.885C813.407 179.588 806.039 192.634 796.375 203.022C786.953 213.411 775.719 221.263 762.673 226.577C749.869 231.892 735.736 234.55 720.274 234.55ZM721.724 188.889C727.039 188.889 732.354 187.682 737.669 185.266C743.225 182.608 748.299 178.38 752.889 172.582C757.479 166.784 761.103 159.053 763.76 149.39C766.418 139.484 767.747 127.163 767.747 112.426C767.747 94.7903 765.814 79.9325 761.948 67.853C758.083 55.7736 752.647 46.5932 745.641 40.3118C738.635 34.0305 730.421 30.8898 720.999 30.8898C714.234 30.8898 707.228 33.1849 699.981 37.7751C692.733 42.3653 686.693 50.3378 681.861 61.6925C677.03 73.0472 674.614 89.1129 674.614 109.89C674.614 124.385 675.822 136.706 678.238 146.853C680.895 156.758 684.398 164.851 688.747 171.133C693.337 177.172 698.41 181.642 703.967 184.541C709.765 187.44 715.684 188.889 721.724 188.889Z"/>
</mask>
<path d="M61.4138 226.577L62.1126 224.704L62.1126 224.704L61.4138 226.577ZM28.0744 204.11L26.5164 205.364L26.524 205.373L26.5317 205.382L28.0744 204.11ZM16.4781 168.234L16.1057 166.269L14.5065 166.572L14.4784 168.199L16.4781 168.234ZM71.923 157.724L73.9096 157.493L73.6614 155.359L71.5505 155.759L71.923 157.724ZM84.9688 180.917L86.0905 179.261L86.0905 179.261L84.9688 180.917ZM137.877 178.38L136.437 176.992L136.424 177.006L136.411 177.019L137.877 178.38ZM145.487 130.908L143.557 131.434L143.561 131.446L143.564 131.457L145.487 130.908ZM138.964 117.5L140.526 116.25L140.526 116.25L138.964 117.5ZM127.73 109.527L126.918 111.355L126.978 111.381L127.039 111.404L127.73 109.527ZM102.363 108.078L102.813 110.027L102.883 110.01L102.951 109.989L102.363 108.078ZM93.3037 111.702L92.2959 109.974L93.3037 111.702ZM84.9688 118.587L83.4945 117.235L83.4626 117.27L83.4324 117.307L84.9688 118.587ZM77.3587 129.096V131.096H78.4468L79.0379 130.183L77.3587 129.096ZM20.102 129.096L18.1066 128.961L17.9616 131.096H20.102V129.096ZM29.524 -9.69725V-11.6973H27.6551L27.5286 -9.83271L29.524 -9.69725ZM197.67 -9.69725H199.67V-11.6973H197.67V-9.69725ZM197.67 38.4999V40.4999H199.67V38.4999H197.67ZM77.7211 38.4999V36.4999H75.8764L75.7276 38.3386L77.7211 38.4999ZM72.6477 101.192L70.6543 101.031L70.4793 103.192H72.6477V101.192ZM76.634 101.192V103.192H77.942L78.4663 101.994L76.634 101.192ZM100.551 74.7384L101.523 76.4867L101.537 76.4785L101.552 76.4701L100.551 74.7384ZM175.927 75.4631L174.836 77.1391L174.858 77.1537L174.881 77.1678L175.927 75.4631ZM199.845 103.729L198.008 104.521L198.011 104.528L198.014 104.535L199.845 103.729ZM195.496 196.862L193.804 195.796L193.798 195.805L195.496 196.862ZM161.432 225.49L162.201 227.336L162.209 227.333L162.216 227.33L161.432 225.49ZM110.698 232.55C92.2828 232.55 76.0992 229.919 62.1126 224.704L60.715 228.451C75.236 233.866 91.9086 236.55 110.698 236.55L110.698 232.55ZM62.1126 224.704C48.1177 219.485 37.3226 212.177 29.6172 202.837L26.5317 205.382C34.7712 215.37 46.2024 223.04 60.715 228.451L62.1126 224.704ZM29.6325 202.856C21.984 193.353 18.2434 181.863 18.4778 168.268L14.4784 168.199C14.2296 182.628 18.22 195.056 26.5164 205.364L29.6325 202.856ZM16.8506 170.199L72.2954 159.689L71.5505 155.759L16.1057 166.269L16.8506 170.199ZM69.9363 157.955C71.1999 168.822 75.7983 177.12 83.8471 182.573L86.0905 179.261C79.1608 174.567 75.0619 167.404 73.9096 157.493L69.9363 157.955ZM83.8471 182.573C91.6905 187.886 100.663 190.527 110.698 190.527V186.527C101.406 186.527 93.2257 184.095 86.0905 179.261L83.8471 182.573ZM110.698 190.527C122.926 190.527 132.583 187.021 139.343 179.741L136.411 177.019C130.609 183.269 122.146 186.527 110.698 186.527V190.527ZM139.317 179.769C146.325 172.501 149.661 161.892 149.661 148.302H145.661C145.661 161.288 142.475 170.731 136.437 176.992L139.317 179.769ZM149.661 148.302C149.661 141.636 148.921 135.647 147.41 130.359L143.564 131.457C144.952 136.316 145.661 141.923 145.661 148.302H149.661ZM147.417 130.382C145.908 124.852 143.624 120.124 140.526 116.25L137.402 118.749C140.102 122.124 142.167 126.334 143.557 131.434L147.417 130.382ZM140.526 116.25C137.387 112.326 133.334 109.461 128.422 107.651L127.039 111.404C131.306 112.976 134.743 115.425 137.402 118.749L140.526 116.25ZM128.542 107.7C123.879 105.627 118.395 104.628 112.148 104.628V108.628C117.98 108.628 122.884 109.562 126.918 111.355L128.542 107.7ZM112.148 104.628C108.572 104.628 105.112 105.139 101.775 106.166L102.951 109.989C105.896 109.083 108.959 108.628 112.148 108.628V104.628ZM101.914 106.129C98.5688 106.901 95.3616 108.186 92.2959 109.974L94.3114 113.429C97.0439 111.835 99.8764 110.704 102.813 110.027L101.914 106.129ZM92.2959 109.974C89.1965 111.782 86.265 114.213 83.4945 117.235L86.4431 119.938C88.9876 117.163 91.6127 115.003 94.3114 113.429L92.2959 109.974ZM83.4324 117.307C80.9526 120.282 78.3687 123.854 75.6796 128.01L79.0379 130.183C81.6637 126.124 84.1532 122.69 86.5053 119.867L83.4324 117.307ZM77.3587 127.096H20.102V131.096H77.3587V127.096ZM22.0974 129.231L31.5194 -9.56179L27.5286 -9.83271L18.1066 128.961L22.0974 129.231ZM29.524 -7.69725L197.67 -7.69725V-11.6973L29.524 -11.6973V-7.69725ZM195.67 -9.69725L195.67 38.4999H199.67L199.67 -9.69725H195.67ZM197.67 36.4999L77.7211 36.4999V40.4999L197.67 40.4999V36.4999ZM75.7276 38.3386L70.6543 101.031L74.6412 101.354L79.7146 38.6612L75.7276 38.3386ZM72.6477 103.192H76.634V99.1924H72.6477V103.192ZM78.4663 101.994C83.3674 90.7914 91.0413 82.3096 101.523 76.4867L99.5801 72.99C88.3183 79.2466 80.0472 88.4008 74.8016 100.391L78.4663 101.994ZM101.552 76.4701C112.101 70.3748 123.832 67.3164 136.79 67.3164V63.3164C123.172 63.3164 110.744 66.5392 99.5508 73.0066L101.552 76.4701ZM136.79 67.3164C152.208 67.3164 164.849 70.6359 174.836 77.1391L177.019 73.7871C166.229 66.7613 152.778 63.3164 136.79 63.3164V67.3164ZM174.881 77.1678C185.133 83.4586 192.843 92.5483 198.008 104.521L201.681 102.937C196.216 90.2678 187.982 80.5135 176.973 73.7585L174.881 77.1678ZM198.014 104.535C203.191 116.3 205.817 130.506 205.817 147.215H209.817C209.817 130.102 207.129 115.318 201.675 102.924L198.014 104.535ZM205.817 147.215C205.817 167.002 201.765 183.152 193.804 195.796L197.189 197.928C205.656 184.48 209.817 167.533 209.817 147.215H205.817ZM193.798 195.805C186.057 208.238 175.032 217.52 160.648 223.65L162.216 227.33C177.306 220.898 188.991 211.094 197.194 197.919L193.798 195.805ZM160.663 223.644C146.46 229.562 129.82 232.55 110.698 232.55L110.698 236.55C130.23 236.55 147.413 233.498 162.201 227.336L160.663 223.644ZM264.089 226.577L263.293 228.412L263.313 228.421L263.334 228.43L264.089 226.577ZM231.112 202.66L229.613 203.985L229.613 203.985L231.112 202.66ZM210.093 163.885L212.002 163.288L212.002 163.288L210.093 163.885ZM216.616 41.399L218.405 42.2934L218.41 42.2841L216.616 41.399ZM254.304 -0.275245L255.302 1.45802L255.31 1.45325L254.304 -0.275245ZM363.744 -0.275245L362.715 1.43974L362.715 1.43974L363.744 -0.275245ZM400.345 41.399L402.153 40.5428L402.153 40.5428L400.345 41.399ZM405.419 163.885L403.524 163.244L403.52 163.257L403.516 163.27L405.419 163.885ZM383.313 203.022L381.849 201.66L381.84 201.67L381.832 201.679L383.313 203.022ZM349.611 226.577L348.857 224.725L348.845 224.73L349.611 226.577ZM324.607 185.266L325.435 187.086L325.452 187.078L325.47 187.07L324.607 185.266ZM339.827 172.582L338.259 171.341L338.259 171.341L339.827 172.582ZM350.699 149.39L352.627 149.92L352.63 149.908L350.699 149.39ZM348.887 67.853L346.982 68.4626L346.982 68.4626L348.887 67.853ZM332.579 40.3118L331.244 41.801L331.244 41.801L332.579 40.3118ZM265.176 146.853L263.23 147.316L263.237 147.344L263.244 147.371L265.176 146.853ZM275.685 171.133L274.041 172.271L274.066 172.308L274.093 172.343L275.685 171.133ZM290.905 184.541L289.98 186.314L289.995 186.322L290.011 186.33L290.905 184.541ZM307.212 232.55C291.738 232.55 277.624 229.932 264.843 224.725L263.334 228.43C276.646 233.853 291.28 236.55 307.212 236.55V232.55ZM264.885 224.743C252.347 219.302 241.595 211.503 232.61 201.336L229.613 203.985C238.989 214.594 250.221 222.74 263.293 228.412L264.885 224.743ZM232.61 201.336C223.645 191.191 216.764 178.526 212.002 163.288L208.184 164.482C213.086 180.167 220.217 193.353 229.613 203.985L232.61 201.336ZM212.002 163.288C207.243 148.057 204.846 130.628 204.846 110.977H200.846C200.846 130.946 203.281 148.789 208.184 164.482L212.002 163.288ZM204.846 110.977C204.846 83.1554 209.405 60.2941 218.405 42.2934L214.827 40.5045C205.467 59.2254 200.846 82.7494 200.846 110.977H204.846ZM218.41 42.2841C227.438 23.9901 239.743 10.4162 255.302 1.458L253.306 -2.00849C236.975 7.39415 224.155 21.603 214.823 40.5139L218.41 42.2841ZM255.31 1.45325C271.166 -7.7762 289.054 -12.4083 309.024 -12.4083V-16.4083C288.408 -16.4083 269.815 -11.6183 253.298 -2.00374L255.31 1.45325ZM309.024 -12.4083C329.488 -12.4083 347.363 -7.7717 362.715 1.43974L364.773 -1.99023C348.719 -11.6228 330.114 -16.4083 309.024 -16.4083V-12.4083ZM362.715 1.43974C378.044 10.6367 389.99 24.2106 398.538 42.2551L402.153 40.5428C393.306 21.8657 380.852 7.65683 364.773 -1.99023L362.715 1.43974ZM398.538 42.2551C407.074 60.275 411.391 82.6717 411.391 109.527H415.391C415.391 82.2667 411.012 59.2446 402.153 40.5428L398.538 42.2551ZM411.391 109.527C411.391 129.894 408.755 147.79 403.524 163.244L407.313 164.526C412.712 148.574 415.391 130.23 415.391 109.527H411.391ZM403.516 163.27C398.517 178.74 391.283 191.518 381.849 201.66L384.778 204.385C394.67 193.75 402.173 180.436 407.322 164.5L403.516 163.27ZM381.832 201.679C372.612 211.844 361.627 219.523 348.857 224.725L350.366 228.43C363.688 223.002 375.171 214.977 384.795 204.366L381.832 201.679ZM348.845 224.73C336.31 229.933 322.441 232.55 307.212 232.55V236.55C322.907 236.55 337.304 233.852 350.378 228.425L348.845 224.73ZM308.662 190.889C314.29 190.889 319.885 189.609 325.435 187.086L323.779 183.445C318.698 185.754 313.664 186.889 308.662 186.889V190.889ZM325.47 187.07C331.351 184.257 336.653 179.813 341.395 173.824L338.259 171.341C333.82 176.947 328.976 180.959 323.744 183.461L325.47 187.07ZM341.395 173.824C346.2 167.755 349.922 159.756 352.627 149.92L348.77 148.859C346.16 158.351 342.635 165.814 338.259 171.341L341.395 173.824ZM352.63 149.908C355.348 139.778 356.685 127.269 356.685 112.426H352.685C352.685 127.058 351.364 139.191 348.767 148.871L352.63 149.908ZM356.685 112.426C356.685 94.6578 354.739 79.5802 350.792 67.2435L346.982 68.4626C350.765 80.2849 352.685 94.9228 352.685 112.426H356.685ZM350.792 67.2435C346.854 54.939 341.262 45.41 333.914 38.8227L331.244 41.801C337.909 47.7763 343.188 56.6081 346.982 68.4626L350.792 67.2435ZM333.914 38.8227C326.541 32.2119 317.851 28.8898 307.937 28.8898V32.8898C316.867 32.8898 324.606 35.849 331.244 41.801L333.914 38.8227ZM307.937 28.8898C300.704 28.8898 293.331 31.3465 285.849 36.0855L287.989 39.4648C295.002 35.0234 301.641 32.8898 307.937 32.8898V28.8898ZM285.849 36.0855C278.138 40.9688 271.883 49.338 266.959 60.9094L270.64 62.4756C275.38 51.3376 281.204 43.7618 287.989 39.4648L285.849 36.0855ZM266.959 60.9094C261.974 72.6251 259.552 89.003 259.552 109.89H263.552C263.552 89.2229 265.962 73.4693 270.64 62.4756L266.959 60.9094ZM259.552 109.89C259.552 124.485 260.767 136.972 263.23 147.316L267.121 146.39C264.753 136.441 263.552 124.285 263.552 109.89H259.552ZM263.244 147.371C265.942 157.427 269.525 165.749 274.041 172.271L277.329 169.994C273.148 163.954 269.725 156.089 267.108 146.335L263.244 147.371ZM274.093 172.343C278.824 178.569 284.113 183.253 289.98 186.314L291.83 182.768C286.584 180.03 281.726 175.776 277.277 169.922L274.093 172.343ZM290.011 186.33C296.066 189.357 302.289 190.889 308.662 190.889V186.889C302.955 186.889 297.341 185.523 291.8 182.752L290.011 186.33ZM470.62 226.577L469.823 228.412L469.844 228.421L469.865 228.43L470.62 226.577ZM437.643 202.66L436.144 203.985L436.144 203.985L437.643 202.66ZM416.624 163.885L418.533 163.288L418.533 163.288L416.624 163.885ZM423.147 41.399L424.936 42.2934L424.941 42.2841L423.147 41.399ZM460.835 -0.275245L461.833 1.45802L461.841 1.45325L460.835 -0.275245ZM570.275 -0.275245L569.246 1.43974L569.246 1.43974L570.275 -0.275245ZM606.876 41.399L608.684 40.5428L608.684 40.5428L606.876 41.399ZM611.95 163.885L610.055 163.244L610.051 163.257L610.046 163.27L611.95 163.885ZM589.844 203.022L588.38 201.66L588.371 201.67L588.363 201.679L589.844 203.022ZM556.142 226.577L555.388 224.725L555.376 224.73L556.142 226.577ZM531.138 185.266L531.965 187.086L531.983 187.078L532.001 187.07L531.138 185.266ZM546.358 172.582L544.79 171.341L544.79 171.341L546.358 172.582ZM557.229 149.39L559.158 149.92L559.161 149.908L557.229 149.39ZM555.418 67.853L553.513 68.4626L553.513 68.4626L555.418 67.853ZM539.11 40.3118L537.775 41.801L537.775 41.801L539.11 40.3118ZM471.707 146.853L469.761 147.316L469.768 147.344L469.775 147.371L471.707 146.853ZM482.216 171.133L480.571 172.271L480.597 172.308L480.624 172.343L482.216 171.133ZM497.436 184.541L496.511 186.314L496.526 186.322L496.542 186.33L497.436 184.541ZM513.743 232.55C498.269 232.55 484.154 229.932 471.374 224.725L469.865 228.43C483.176 233.853 497.811 236.55 513.743 236.55V232.55ZM471.416 224.743C458.878 219.302 448.126 211.503 439.141 201.336L436.144 203.985C445.52 214.594 456.752 222.74 469.823 228.412L471.416 224.743ZM439.141 201.336C430.176 191.191 423.295 178.526 418.533 163.288L414.715 164.482C419.617 180.167 426.748 193.353 436.144 203.985L439.141 201.336ZM418.533 163.288C413.773 148.057 411.377 130.628 411.377 110.977L407.377 110.977C407.377 130.946 409.811 148.789 414.715 164.482L418.533 163.288ZM411.377 110.977C411.377 83.1554 415.936 60.2941 424.936 42.2934L421.358 40.5045C411.998 59.2254 407.377 82.7494 407.377 110.977L411.377 110.977ZM424.941 42.2841C433.969 23.9901 446.274 10.4162 461.833 1.458L459.837 -2.00849C443.506 7.39415 430.686 21.603 421.354 40.5139L424.941 42.2841ZM461.841 1.45325C477.697 -7.7762 495.585 -12.4083 515.555 -12.4083V-16.4083C494.939 -16.4083 476.346 -11.6183 459.829 -2.00374L461.841 1.45325ZM515.555 -12.4083C536.019 -12.4083 553.894 -7.7717 569.246 1.43974L571.304 -1.99023C555.25 -11.6228 536.645 -16.4083 515.555 -16.4083V-12.4083ZM569.246 1.43974C584.575 10.6367 596.521 24.2106 605.069 42.2551L608.684 40.5428C599.837 21.8657 587.383 7.65683 571.304 -1.99023L569.246 1.43974ZM605.069 42.2551C613.604 60.275 617.922 82.6717 617.922 109.527H621.922C621.922 82.2667 617.542 59.2446 608.684 40.5428L605.069 42.2551ZM617.922 109.527C617.922 129.894 615.286 147.79 610.055 163.244L613.844 164.526C619.243 148.574 621.922 130.23 621.922 109.527H617.922ZM610.046 163.27C605.048 178.74 597.814 191.518 588.38 201.66L591.308 204.385C601.201 193.75 608.704 180.436 613.853 164.5L610.046 163.27ZM588.363 201.679C579.143 211.844 568.158 219.523 555.388 224.725L556.897 228.43C570.219 223.002 581.701 214.977 591.326 204.366L588.363 201.679ZM555.376 224.73C542.841 229.933 528.972 232.55 513.743 232.55V236.55C529.438 236.55 543.835 233.852 556.909 228.425L555.376 224.73ZM515.193 190.889C520.82 190.889 526.416 189.609 531.965 187.086L530.31 183.445C525.229 185.754 520.195 186.889 515.193 186.889V190.889ZM532.001 187.07C537.882 184.257 543.184 179.813 547.926 173.824L544.79 171.341C540.351 176.947 535.507 180.959 530.275 183.461L532.001 187.07ZM547.926 173.824C552.731 167.755 556.453 159.756 559.158 149.92L555.301 148.859C552.691 158.351 549.166 165.814 544.79 171.341L547.926 173.824ZM559.161 149.908C561.879 139.778 563.216 127.269 563.216 112.426H559.216C559.216 127.058 557.895 139.191 555.298 148.871L559.161 149.908ZM563.216 112.426C563.216 94.6578 561.27 79.5802 557.322 67.2435L553.513 68.4626C557.296 80.2849 559.216 94.9228 559.216 112.426H563.216ZM557.322 67.2435C553.385 54.939 547.793 45.41 540.445 38.8227L537.775 41.801C544.44 47.7763 549.719 56.6081 553.513 68.4626L557.322 67.2435ZM540.445 38.8227C533.072 32.2119 524.382 28.8898 514.468 28.8898V32.8898C523.398 32.8898 531.136 35.849 537.775 41.801L540.445 38.8227ZM514.468 28.8898C507.235 28.8898 499.862 31.3465 492.38 36.0855L494.52 39.4648C501.533 35.0234 508.172 32.8898 514.468 32.8898V28.8898ZM492.38 36.0855C484.669 40.9688 478.414 49.338 473.49 60.9094L477.171 62.4756C481.91 51.3376 487.735 43.7618 494.52 39.4648L492.38 36.0855ZM473.49 60.9094C468.505 72.6251 466.083 89.003 466.083 109.89H470.083C470.083 89.2229 472.493 73.4693 477.171 62.4756L473.49 60.9094ZM466.083 109.89C466.083 124.485 467.298 136.972 469.761 147.316L473.652 146.39C471.284 136.441 470.083 124.285 470.083 109.89H466.083ZM469.775 147.371C472.473 157.427 476.056 165.749 480.571 172.271L483.86 169.994C479.678 163.954 476.255 156.089 473.638 146.335L469.775 147.371ZM480.624 172.343C485.355 178.569 490.644 183.253 496.511 186.314L498.361 182.768C493.115 180.03 488.257 175.776 483.808 169.922L480.624 172.343ZM496.542 186.33C502.597 189.357 508.82 190.889 515.193 190.889V186.889C509.486 186.889 503.872 185.523 498.33 182.752L496.542 186.33ZM677.15 226.577L676.354 228.412L676.375 228.421L676.396 228.43L677.15 226.577ZM644.173 202.66L642.675 203.985L642.675 203.985L644.173 202.66ZM623.155 163.885L625.064 163.288L625.064 163.288L623.155 163.885ZM629.678 41.399L631.467 42.2934L631.472 42.2841L629.678 41.399ZM667.366 -0.275245L668.364 1.45802L668.372 1.45325L667.366 -0.275245ZM776.806 -0.275245L775.777 1.43974L775.777 1.43974L776.806 -0.275245ZM813.407 41.399L815.215 40.5428L815.215 40.5428L813.407 41.399ZM818.48 163.885L816.586 163.244L816.582 163.257L816.577 163.27L818.48 163.885ZM796.375 203.022L794.911 201.66L794.902 201.67L794.894 201.679L796.375 203.022ZM762.673 226.577L761.919 224.725L761.906 224.73L762.673 226.577ZM737.669 185.266L738.496 187.086L738.514 187.078L738.532 187.07L737.669 185.266ZM752.889 172.582L751.321 171.341L751.321 171.341L752.889 172.582ZM763.76 149.39L765.689 149.92L765.692 149.908L763.76 149.39ZM761.948 67.853L760.044 68.4626L760.044 68.4626L761.948 67.853ZM745.641 40.3118L744.306 41.801L744.306 41.801L745.641 40.3118ZM678.238 146.853L676.292 147.316L676.299 147.344L676.306 147.371L678.238 146.853ZM688.747 171.133L687.102 172.271L687.128 172.308L687.154 172.343L688.747 171.133ZM703.967 184.541L703.042 186.314L703.057 186.322L703.072 186.33L703.967 184.541ZM720.274 232.55C704.8 232.55 690.685 229.932 677.905 224.725L676.396 228.43C689.707 233.853 704.342 236.55 720.274 236.55V232.55ZM677.947 224.743C665.409 219.302 654.657 211.503 645.672 201.336L642.675 203.985C652.051 214.594 663.283 222.74 676.354 228.412L677.947 224.743ZM645.672 201.336C636.707 191.191 629.826 178.526 625.064 163.288L621.246 164.482C626.148 180.167 633.279 193.353 642.675 203.985L645.672 201.336ZM625.064 163.288C620.304 148.057 617.907 130.628 617.907 110.977H613.907C613.907 130.946 616.342 148.789 621.246 164.482L625.064 163.288ZM617.907 110.977C617.907 83.1554 622.467 60.2941 631.467 42.2934L627.889 40.5045C618.529 59.2254 613.907 82.7494 613.907 110.977H617.907ZM631.472 42.2841C640.5 23.9901 652.805 10.4162 668.364 1.458L666.368 -2.00849C650.037 7.39415 637.217 21.603 627.885 40.5139L631.472 42.2841ZM668.372 1.45325C684.228 -7.7762 702.116 -12.4083 722.086 -12.4083V-16.4083C701.47 -16.4083 682.877 -11.6183 666.36 -2.00374L668.372 1.45325ZM722.086 -12.4083C742.55 -12.4083 760.425 -7.7717 775.777 1.43974L777.835 -1.99023C761.781 -11.6228 743.176 -16.4083 722.086 -16.4083V-12.4083ZM775.777 1.43974C791.105 10.6367 803.052 24.2106 811.6 42.2551L815.215 40.5428C806.367 21.8657 793.914 7.65683 777.835 -1.99023L775.777 1.43974ZM811.6 42.2551C820.135 60.275 824.453 82.6717 824.453 109.527H828.453C828.453 82.2667 824.073 59.2446 815.215 40.5428L811.6 42.2551ZM824.453 109.527C824.453 129.894 821.817 147.79 816.586 163.244L820.375 164.526C825.774 148.574 828.453 130.23 828.453 109.527H824.453ZM816.577 163.27C811.579 178.74 804.345 191.518 794.911 201.66L797.839 204.385C807.732 193.75 815.235 180.436 820.384 164.5L816.577 163.27ZM794.894 201.679C785.674 211.844 774.688 219.523 761.919 224.725L763.428 228.43C776.75 223.002 788.232 214.977 797.856 204.366L794.894 201.679ZM761.906 224.73C749.372 229.933 735.503 232.55 720.274 232.55V236.55C735.969 236.55 750.366 233.852 763.44 228.425L761.906 224.73ZM721.724 190.889C727.351 190.889 732.947 189.609 738.496 187.086L736.841 183.445C731.76 185.754 726.726 186.889 721.724 186.889V190.889ZM738.532 187.07C744.413 184.257 749.715 179.813 754.457 173.824L751.321 171.341C746.882 176.947 742.038 180.959 736.806 183.461L738.532 187.07ZM754.457 173.824C759.262 167.755 762.984 159.756 765.689 149.92L761.832 148.859C759.222 158.351 755.696 165.814 751.321 171.341L754.457 173.824ZM765.692 149.908C768.41 139.778 769.747 127.269 769.747 112.426H765.747C765.747 127.058 764.426 139.191 761.829 148.871L765.692 149.908ZM769.747 112.426C769.747 94.6578 767.801 79.5802 763.853 67.2435L760.044 68.4626C763.827 80.2849 765.747 94.9228 765.747 112.426H769.747ZM763.853 67.2435C759.916 54.939 754.324 45.41 746.976 38.8227L744.306 41.801C750.971 47.7763 756.25 56.6081 760.044 68.4626L763.853 67.2435ZM746.976 38.8227C739.603 32.2119 730.913 28.8898 720.999 28.8898V32.8898C729.929 32.8898 737.667 35.849 744.306 41.801L746.976 38.8227ZM720.999 28.8898C713.766 28.8898 706.393 31.3465 698.911 36.0855L701.051 39.4648C708.064 35.0234 714.703 32.8898 720.999 32.8898V28.8898ZM698.911 36.0855C691.2 40.9688 684.945 49.338 680.021 60.9094L683.702 62.4756C688.441 51.3376 694.266 43.7618 701.051 39.4648L698.911 36.0855ZM680.021 60.9094C675.036 72.6251 672.614 89.003 672.614 109.89H676.614C676.614 89.2229 679.024 73.4693 683.702 62.4756L680.021 60.9094ZM672.614 109.89C672.614 124.485 673.829 136.972 676.292 147.316L680.183 146.39C677.814 136.441 676.614 124.285 676.614 109.89H672.614ZM676.306 147.371C679.004 157.427 682.587 165.749 687.102 172.271L690.391 169.994C686.209 163.954 682.786 156.089 680.169 146.335L676.306 147.371ZM687.154 172.343C691.886 178.569 697.175 183.253 703.042 186.314L704.892 182.768C699.646 180.03 694.788 175.776 690.339 169.922L687.154 172.343ZM703.072 186.33C709.128 189.357 715.351 190.889 721.724 190.889V186.889C716.017 186.889 710.403 185.523 704.861 182.752L703.072 186.33Z" fill="url(#paint0_linear_16226_4665)" mask="url(#path-1-outside-1_16226_4665)"/>
<mask id="path-3-outside-2_16226_4665" maskUnits="userSpaceOnUse" x="13.5332" y="395.477" width="815" height="254" fill="black">
<rect fill="white" x="13.5332" y="395.477" width="815" height="254"/>
<path d="M110.698 646.55C92.0957 646.55 75.6676 643.892 61.4138 638.577C47.16 633.263 36.0469 625.773 28.0744 616.11C20.102 606.204 16.2365 594.246 16.4781 580.234L71.923 569.724C73.1309 580.113 77.4795 587.844 84.9688 592.917C92.4581 597.99 101.035 600.527 110.698 600.527C122.536 600.527 131.596 597.145 137.877 590.38C144.4 583.616 147.661 573.59 147.661 560.302C147.661 553.779 146.937 547.981 145.487 542.908C144.037 537.593 141.863 533.124 138.964 529.5C136.065 525.876 132.32 523.218 127.73 521.527C123.382 519.595 118.187 518.628 112.148 518.628C108.765 518.628 105.504 519.111 102.363 520.078C99.2226 520.803 96.2027 522.01 93.3037 523.702C90.4046 525.393 87.6263 527.688 84.9688 530.587C82.5529 533.486 80.0162 536.989 77.3587 541.096H20.102L29.524 402.303H197.67L197.67 450.5H77.7211L72.6477 513.192H76.634C81.7073 501.596 89.6798 492.778 100.551 486.738C111.423 480.457 123.502 477.316 136.79 477.316C152.493 477.316 165.539 480.699 175.927 487.463C186.557 493.986 194.53 503.408 199.845 515.729C205.16 527.809 207.817 542.304 207.817 559.215C207.817 579.267 203.71 595.816 195.496 608.862C187.524 621.666 176.169 631.209 161.432 637.49C146.937 643.53 130.025 646.55 110.698 646.55ZM307.212 646.55C291.509 646.55 277.135 643.892 264.089 638.577C251.284 633.021 240.292 625.048 231.112 614.66C221.931 604.272 214.925 591.347 210.093 575.885C205.262 560.423 202.846 542.787 202.846 522.977C202.846 494.952 207.436 471.76 216.616 453.399C225.797 434.797 238.359 420.905 254.304 411.725C270.491 402.303 288.731 397.592 309.024 397.592C329.801 397.592 348.041 402.303 363.744 411.725C379.448 421.147 391.648 435.038 400.345 453.399C409.043 471.76 413.391 494.469 413.391 521.527C413.391 542.062 410.734 560.182 405.419 575.885C400.345 591.588 392.977 604.634 383.313 615.022C373.891 625.411 362.657 633.263 349.611 638.577C336.807 643.892 322.674 646.55 307.212 646.55ZM308.662 600.889C313.977 600.889 319.292 599.682 324.607 597.266C330.163 594.608 335.237 590.38 339.827 584.582C344.417 578.784 348.041 571.053 350.699 561.39C353.356 551.484 354.685 539.163 354.685 524.426C354.685 506.79 352.752 491.933 348.887 479.853C345.021 467.774 339.585 458.593 332.579 452.312C325.573 446.03 317.359 442.89 307.937 442.89C301.173 442.89 294.167 445.185 286.919 449.775C279.671 454.365 273.631 462.338 268.8 473.693C263.968 485.047 261.552 501.113 261.552 521.89C261.552 536.385 262.76 548.706 265.176 558.853C267.833 568.758 271.336 576.851 275.685 583.133C280.275 589.172 285.349 593.642 290.905 596.541C296.703 599.44 302.622 600.889 308.662 600.889ZM513.743 646.55C498.04 646.55 483.665 643.892 470.62 638.577C457.815 633.021 446.823 625.048 437.643 614.66C428.462 604.272 421.456 591.347 416.624 575.885C411.792 560.423 409.377 542.787 409.377 522.977C409.377 494.952 413.967 471.76 423.147 453.399C432.328 434.797 444.89 420.905 460.835 411.725C477.022 402.303 495.262 397.592 515.555 397.592C536.332 397.592 554.572 402.303 570.275 411.725C585.979 421.147 598.179 435.038 606.876 453.399C615.573 471.76 619.922 494.469 619.922 521.527C619.922 542.062 617.265 560.182 611.95 575.885C606.876 591.588 599.508 604.634 589.844 615.022C580.422 625.411 569.188 633.263 556.142 638.577C543.338 643.892 529.205 646.55 513.743 646.55ZM515.193 600.889C520.508 600.889 525.823 599.682 531.138 597.266C536.694 594.608 541.768 590.38 546.358 584.582C550.948 578.784 554.572 571.053 557.229 561.39C559.887 551.484 561.216 539.163 561.216 524.426C561.216 506.79 559.283 491.933 555.418 479.853C551.552 467.774 546.116 458.593 539.11 452.312C532.104 446.03 523.89 442.89 514.468 442.89C507.704 442.89 500.697 445.185 493.45 449.775C486.202 454.365 480.162 462.338 475.331 473.693C470.499 485.047 468.083 501.113 468.083 521.89C468.083 536.385 469.291 548.706 471.707 558.853C474.364 568.758 477.867 576.851 482.216 583.133C486.806 589.172 491.879 593.642 497.436 596.541C503.234 599.44 509.153 600.889 515.193 600.889ZM720.274 646.55C704.571 646.55 690.196 643.892 677.15 638.577C664.346 633.021 653.354 625.048 644.173 614.66C634.993 604.272 627.987 591.347 623.155 575.885C618.323 560.423 615.907 542.787 615.907 522.977C615.907 494.952 620.498 471.76 629.678 453.399C638.858 434.797 651.421 420.905 667.366 411.725C683.553 402.303 701.793 397.592 722.086 397.592C742.863 397.592 761.103 402.303 776.806 411.725C792.51 421.147 804.71 435.038 813.407 453.399C822.104 471.76 826.453 494.469 826.453 521.527C826.453 542.062 823.795 560.182 818.48 575.885C813.407 591.588 806.039 604.634 796.375 615.022C786.953 625.411 775.719 633.263 762.673 638.577C749.869 643.892 735.736 646.55 720.274 646.55ZM721.724 600.889C727.039 600.889 732.354 599.682 737.669 597.266C743.225 594.608 748.299 590.38 752.889 584.582C757.479 578.784 761.103 571.053 763.76 561.39C766.418 551.484 767.747 539.163 767.747 524.426C767.747 506.79 765.814 491.933 761.948 479.853C758.083 467.774 752.647 458.593 745.641 452.312C738.635 446.03 730.421 442.89 720.999 442.89C714.234 442.89 707.228 445.185 699.981 449.775C692.733 454.365 686.693 462.338 681.861 473.693C677.03 485.047 674.614 501.113 674.614 521.89C674.614 536.385 675.822 548.706 678.238 558.853C680.895 568.758 684.398 576.851 688.747 583.133C693.337 589.172 698.41 593.642 703.967 596.541C709.765 599.44 715.684 600.889 721.724 600.889Z"/>
</mask>
<path d="M61.4138 638.577L62.1126 636.704L62.1126 636.704L61.4138 638.577ZM28.0744 616.11L26.5164 617.364L26.524 617.373L26.5317 617.382L28.0744 616.11ZM16.4781 580.234L16.1057 578.269L14.5065 578.572L14.4784 580.199L16.4781 580.234ZM71.923 569.724L73.9096 569.493L73.6614 567.359L71.5505 567.759L71.923 569.724ZM84.9688 592.917L86.0905 591.261L86.0905 591.261L84.9688 592.917ZM137.877 590.38L136.437 588.992L136.424 589.006L136.411 589.019L137.877 590.38ZM145.487 542.908L143.557 543.434L143.561 543.446L143.564 543.457L145.487 542.908ZM138.964 529.5L140.526 528.25L140.526 528.25L138.964 529.5ZM127.73 521.527L126.918 523.355L126.978 523.381L127.039 523.404L127.73 521.527ZM102.363 520.078L102.813 522.027L102.883 522.01L102.951 521.989L102.363 520.078ZM93.3037 523.702L92.2959 521.974L93.3037 523.702ZM84.9688 530.587L83.4945 529.235L83.4626 529.27L83.4324 529.307L84.9688 530.587ZM77.3587 541.096V543.096H78.4468L79.0379 542.183L77.3587 541.096ZM20.102 541.096L18.1066 540.961L17.9616 543.096H20.102V541.096ZM29.524 402.303V400.303H27.6551L27.5286 402.167L29.524 402.303ZM197.67 402.303H199.67V400.303H197.67V402.303ZM197.67 450.5V452.5H199.67V450.5H197.67ZM77.7211 450.5V448.5H75.8764L75.7276 450.339L77.7211 450.5ZM72.6477 513.192L70.6543 513.031L70.4793 515.192H72.6477V513.192ZM76.634 513.192V515.192H77.942L78.4663 513.994L76.634 513.192ZM100.551 486.738L101.523 488.487L101.537 488.478L101.552 488.47L100.551 486.738ZM175.927 487.463L174.836 489.139L174.858 489.154L174.881 489.168L175.927 487.463ZM199.845 515.729L198.008 516.521L198.011 516.528L198.014 516.535L199.845 515.729ZM195.496 608.862L193.804 607.796L193.798 607.805L195.496 608.862ZM161.432 637.49L162.201 639.336L162.209 639.333L162.216 639.33L161.432 637.49ZM110.698 644.55C92.2828 644.55 76.0992 641.919 62.1126 636.704L60.715 640.451C75.236 645.866 91.9086 648.55 110.698 648.55L110.698 644.55ZM62.1126 636.704C48.1177 631.485 37.3226 624.177 29.6172 614.837L26.5317 617.382C34.7712 627.37 46.2024 635.04 60.715 640.451L62.1126 636.704ZM29.6325 614.856C21.984 605.353 18.2434 593.863 18.4778 580.268L14.4784 580.199C14.2296 594.628 18.22 607.056 26.5164 617.364L29.6325 614.856ZM16.8506 582.199L72.2954 571.689L71.5505 567.759L16.1057 578.269L16.8506 582.199ZM69.9363 569.955C71.1999 580.822 75.7983 589.12 83.8471 594.573L86.0905 591.261C79.1608 586.567 75.0619 579.404 73.9096 569.493L69.9363 569.955ZM83.8471 594.573C91.6905 599.886 100.663 602.527 110.698 602.527V598.527C101.406 598.527 93.2257 596.095 86.0905 591.261L83.8471 594.573ZM110.698 602.527C122.926 602.527 132.583 599.021 139.343 591.741L136.411 589.019C130.609 595.269 122.146 598.527 110.698 598.527V602.527ZM139.317 591.769C146.325 584.501 149.661 573.892 149.661 560.302H145.661C145.661 573.288 142.475 582.731 136.437 588.992L139.317 591.769ZM149.661 560.302C149.661 553.636 148.921 547.647 147.41 542.359L143.564 543.457C144.952 548.316 145.661 553.923 145.661 560.302H149.661ZM147.417 542.382C145.908 536.852 143.624 532.124 140.526 528.25L137.402 530.749C140.102 534.124 142.167 538.334 143.557 543.434L147.417 542.382ZM140.526 528.25C137.387 524.326 133.334 521.461 128.422 519.651L127.039 523.404C131.306 524.976 134.743 527.425 137.402 530.749L140.526 528.25ZM128.542 519.7C123.879 517.627 118.395 516.628 112.148 516.628V520.628C117.98 520.628 122.884 521.562 126.918 523.355L128.542 519.7ZM112.148 516.628C108.572 516.628 105.112 517.139 101.775 518.166L102.951 521.989C105.896 521.083 108.959 520.628 112.148 520.628V516.628ZM101.914 518.129C98.5688 518.901 95.3616 520.186 92.2959 521.974L94.3114 525.429C97.0439 523.835 99.8764 522.704 102.813 522.027L101.914 518.129ZM92.2959 521.974C89.1965 523.782 86.265 526.213 83.4945 529.235L86.4431 531.938C88.9876 529.163 91.6127 527.003 94.3114 525.429L92.2959 521.974ZM83.4324 529.307C80.9526 532.282 78.3687 535.854 75.6796 540.01L79.0379 542.183C81.6637 538.124 84.1532 534.69 86.5053 531.867L83.4324 529.307ZM77.3587 539.096H20.102V543.096H77.3587V539.096ZM22.0974 541.231L31.5194 402.438L27.5286 402.167L18.1066 540.961L22.0974 541.231ZM29.524 404.303H197.67V400.303H29.524V404.303ZM195.67 402.303L195.67 450.5H199.67L199.67 402.303H195.67ZM197.67 448.5H77.7211V452.5H197.67V448.5ZM75.7276 450.339L70.6543 513.031L74.6412 513.354L79.7146 450.661L75.7276 450.339ZM72.6477 515.192H76.634V511.192H72.6477V515.192ZM78.4663 513.994C83.3674 502.791 91.0413 494.31 101.523 488.487L99.5801 484.99C88.3183 491.247 80.0472 500.401 74.8016 512.391L78.4663 513.994ZM101.552 488.47C112.101 482.375 123.832 479.316 136.79 479.316V475.316C123.172 475.316 110.744 478.539 99.5508 485.007L101.552 488.47ZM136.79 479.316C152.208 479.316 164.849 482.636 174.836 489.139L177.019 485.787C166.229 478.761 152.778 475.316 136.79 475.316V479.316ZM174.881 489.168C185.133 495.459 192.843 504.548 198.008 516.521L201.681 514.937C196.216 502.268 187.982 492.514 176.973 485.758L174.881 489.168ZM198.014 516.535C203.191 528.3 205.817 542.506 205.817 559.215H209.817C209.817 542.102 207.129 527.318 201.675 514.924L198.014 516.535ZM205.817 559.215C205.817 579.002 201.765 595.152 193.804 607.796L197.189 609.928C205.656 596.48 209.817 579.533 209.817 559.215H205.817ZM193.798 607.805C186.057 620.238 175.032 629.52 160.648 635.65L162.216 639.33C177.306 632.898 188.991 623.094 197.194 609.919L193.798 607.805ZM160.663 635.644C146.46 641.562 129.82 644.55 110.698 644.55L110.698 648.55C130.23 648.55 147.413 645.498 162.201 639.336L160.663 635.644ZM264.089 638.577L263.293 640.412L263.313 640.421L263.334 640.43L264.089 638.577ZM231.112 614.66L229.613 615.985L229.613 615.985L231.112 614.66ZM210.093 575.885L212.002 575.288L212.002 575.288L210.093 575.885ZM216.616 453.399L218.405 454.293L218.41 454.284L216.616 453.399ZM254.304 411.725L255.302 413.458L255.31 413.453L254.304 411.725ZM363.744 411.725L362.715 413.44L362.715 413.44L363.744 411.725ZM400.345 453.399L402.153 452.543L402.153 452.543L400.345 453.399ZM405.419 575.885L403.524 575.244L403.52 575.257L403.516 575.27L405.419 575.885ZM383.313 615.022L381.849 613.66L381.84 613.67L381.832 613.679L383.313 615.022ZM349.611 638.577L348.857 636.725L348.845 636.73L349.611 638.577ZM324.607 597.266L325.435 599.086L325.452 599.078L325.47 599.07L324.607 597.266ZM339.827 584.582L338.259 583.341L338.259 583.341L339.827 584.582ZM350.699 561.39L352.627 561.92L352.63 561.908L350.699 561.39ZM348.887 479.853L346.982 480.463L346.982 480.463L348.887 479.853ZM332.579 452.312L331.244 453.801L331.244 453.801L332.579 452.312ZM265.176 558.853L263.23 559.316L263.237 559.344L263.244 559.371L265.176 558.853ZM275.685 583.133L274.041 584.271L274.066 584.308L274.093 584.343L275.685 583.133ZM290.905 596.541L289.98 598.314L289.995 598.322L290.011 598.33L290.905 596.541ZM307.212 644.55C291.738 644.55 277.624 641.932 264.843 636.725L263.334 640.43C276.646 645.853 291.28 648.55 307.212 648.55V644.55ZM264.885 636.743C252.347 631.302 241.595 623.503 232.61 613.336L229.613 615.985C238.989 626.594 250.221 634.74 263.293 640.412L264.885 636.743ZM232.61 613.336C223.645 603.191 216.764 590.526 212.002 575.288L208.184 576.482C213.086 592.167 220.217 605.353 229.613 615.985L232.61 613.336ZM212.002 575.288C207.243 560.057 204.846 542.628 204.846 522.977H200.846C200.846 542.946 203.281 560.789 208.184 576.482L212.002 575.288ZM204.846 522.977C204.846 495.155 209.405 472.294 218.405 454.293L214.827 452.505C205.467 471.225 200.846 494.749 200.846 522.977H204.846ZM218.41 454.284C227.438 435.99 239.743 422.416 255.302 413.458L253.306 409.992C236.975 419.394 224.155 433.603 214.823 452.514L218.41 454.284ZM255.31 413.453C271.166 404.224 289.054 399.592 309.024 399.592V395.592C288.408 395.592 269.815 400.382 253.298 409.996L255.31 413.453ZM309.024 399.592C329.488 399.592 347.363 404.228 362.715 413.44L364.773 410.01C348.719 400.377 330.114 395.592 309.024 395.592V399.592ZM362.715 413.44C378.044 422.637 389.99 436.211 398.538 454.255L402.153 452.543C393.306 433.866 380.852 419.657 364.773 410.01L362.715 413.44ZM398.538 454.255C407.074 472.275 411.391 494.672 411.391 521.527H415.391C415.391 494.267 411.012 471.245 402.153 452.543L398.538 454.255ZM411.391 521.527C411.391 541.894 408.755 559.79 403.524 575.244L407.313 576.526C412.712 560.574 415.391 542.23 415.391 521.527H411.391ZM403.516 575.27C398.517 590.74 391.283 603.518 381.849 613.66L384.778 616.385C394.67 605.75 402.173 592.436 407.322 576.5L403.516 575.27ZM381.832 613.679C372.612 623.844 361.627 631.523 348.857 636.725L350.366 640.43C363.688 635.002 375.171 626.977 384.795 616.366L381.832 613.679ZM348.845 636.73C336.31 641.933 322.441 644.55 307.212 644.55V648.55C322.907 648.55 337.304 645.852 350.378 640.425L348.845 636.73ZM308.662 602.889C314.29 602.889 319.885 601.609 325.435 599.086L323.779 595.445C318.698 597.754 313.664 598.889 308.662 598.889V602.889ZM325.47 599.07C331.351 596.257 336.653 591.813 341.395 585.824L338.259 583.341C333.82 588.947 328.976 592.959 323.744 595.461L325.47 599.07ZM341.395 585.824C346.2 579.755 349.922 571.756 352.627 561.92L348.77 560.859C346.16 570.351 342.635 577.814 338.259 583.341L341.395 585.824ZM352.63 561.908C355.348 551.778 356.685 539.269 356.685 524.426H352.685C352.685 539.058 351.364 551.191 348.767 560.871L352.63 561.908ZM356.685 524.426C356.685 506.658 354.739 491.58 350.792 479.243L346.982 480.463C350.765 492.285 352.685 506.923 352.685 524.426H356.685ZM350.792 479.243C346.854 466.939 341.262 457.41 333.914 450.823L331.244 453.801C337.909 459.776 343.188 468.608 346.982 480.463L350.792 479.243ZM333.914 450.823C326.541 444.212 317.851 440.89 307.937 440.89V444.89C316.867 444.89 324.606 447.849 331.244 453.801L333.914 450.823ZM307.937 440.89C300.704 440.89 293.331 443.346 285.849 448.085L287.989 451.465C295.002 447.023 301.641 444.89 307.937 444.89V440.89ZM285.849 448.085C278.138 452.969 271.883 461.338 266.959 472.909L270.64 474.476C275.38 463.338 281.204 455.762 287.989 451.465L285.849 448.085ZM266.959 472.909C261.974 484.625 259.552 501.003 259.552 521.89H263.552C263.552 501.223 265.962 485.469 270.64 474.476L266.959 472.909ZM259.552 521.89C259.552 536.485 260.767 548.972 263.23 559.316L267.121 558.39C264.753 548.441 263.552 536.285 263.552 521.89H259.552ZM263.244 559.371C265.942 569.427 269.525 577.749 274.041 584.271L277.329 581.994C273.148 575.954 269.725 568.089 267.108 558.335L263.244 559.371ZM274.093 584.343C278.824 590.569 284.113 595.253 289.98 598.314L291.83 594.768C286.584 592.03 281.726 587.776 277.277 581.922L274.093 584.343ZM290.011 598.33C296.066 601.357 302.289 602.889 308.662 602.889V598.889C302.955 598.889 297.341 597.523 291.8 594.752L290.011 598.33ZM470.62 638.577L469.823 640.412L469.844 640.421L469.865 640.43L470.62 638.577ZM437.643 614.66L436.144 615.985L436.144 615.985L437.643 614.66ZM416.624 575.885L418.533 575.288L418.533 575.288L416.624 575.885ZM423.147 453.399L424.936 454.293L424.941 454.284L423.147 453.399ZM460.835 411.725L461.833 413.458L461.841 413.453L460.835 411.725ZM570.275 411.725L569.246 413.44L569.246 413.44L570.275 411.725ZM606.876 453.399L608.684 452.543L608.684 452.543L606.876 453.399ZM611.95 575.885L610.055 575.244L610.051 575.257L610.046 575.27L611.95 575.885ZM589.844 615.022L588.38 613.66L588.371 613.67L588.363 613.679L589.844 615.022ZM556.142 638.577L555.388 636.725L555.376 636.73L556.142 638.577ZM531.138 597.266L531.965 599.086L531.983 599.078L532.001 599.07L531.138 597.266ZM546.358 584.582L544.79 583.341L544.79 583.341L546.358 584.582ZM557.229 561.39L559.158 561.92L559.161 561.908L557.229 561.39ZM555.418 479.853L553.513 480.463L553.513 480.463L555.418 479.853ZM539.11 452.312L537.775 453.801L537.775 453.801L539.11 452.312ZM471.707 558.853L469.761 559.316L469.768 559.344L469.775 559.371L471.707 558.853ZM482.216 583.133L480.571 584.271L480.597 584.308L480.624 584.343L482.216 583.133ZM497.436 596.541L496.511 598.314L496.526 598.322L496.542 598.33L497.436 596.541ZM513.743 644.55C498.269 644.55 484.154 641.932 471.374 636.725L469.865 640.43C483.176 645.853 497.811 648.55 513.743 648.55V644.55ZM471.416 636.743C458.878 631.302 448.126 623.503 439.141 613.336L436.144 615.985C445.52 626.594 456.752 634.74 469.823 640.412L471.416 636.743ZM439.141 613.336C430.176 603.191 423.295 590.526 418.533 575.288L414.715 576.482C419.617 592.167 426.748 605.353 436.144 615.985L439.141 613.336ZM418.533 575.288C413.773 560.057 411.377 542.628 411.377 522.977H407.377C407.377 542.946 409.811 560.789 414.715 576.482L418.533 575.288ZM411.377 522.977C411.377 495.155 415.936 472.294 424.936 454.293L421.358 452.505C411.998 471.225 407.377 494.749 407.377 522.977H411.377ZM424.941 454.284C433.969 435.99 446.274 422.416 461.833 413.458L459.837 409.992C443.506 419.394 430.686 433.603 421.354 452.514L424.941 454.284ZM461.841 413.453C477.697 404.224 495.585 399.592 515.555 399.592V395.592C494.939 395.592 476.346 400.382 459.829 409.996L461.841 413.453ZM515.555 399.592C536.019 399.592 553.894 404.228 569.246 413.44L571.304 410.01C555.25 400.377 536.645 395.592 515.555 395.592V399.592ZM569.246 413.44C584.575 422.637 596.521 436.211 605.069 454.255L608.684 452.543C599.837 433.866 587.383 419.657 571.304 410.01L569.246 413.44ZM605.069 454.255C613.604 472.275 617.922 494.672 617.922 521.527H621.922C621.922 494.267 617.542 471.245 608.684 452.543L605.069 454.255ZM617.922 521.527C617.922 541.894 615.286 559.79 610.055 575.244L613.844 576.526C619.243 560.574 621.922 542.23 621.922 521.527H617.922ZM610.046 575.27C605.048 590.74 597.814 603.518 588.38 613.66L591.308 616.385C601.201 605.75 608.704 592.436 613.853 576.5L610.046 575.27ZM588.363 613.679C579.143 623.844 568.158 631.523 555.388 636.725L556.897 640.43C570.219 635.002 581.701 626.977 591.326 616.366L588.363 613.679ZM555.376 636.73C542.841 641.933 528.972 644.55 513.743 644.55V648.55C529.438 648.55 543.835 645.852 556.909 640.425L555.376 636.73ZM515.193 602.889C520.82 602.889 526.416 601.609 531.965 599.086L530.31 595.445C525.229 597.754 520.195 598.889 515.193 598.889V602.889ZM532.001 599.07C537.882 596.257 543.184 591.813 547.926 585.824L544.79 583.341C540.351 588.947 535.507 592.959 530.275 595.461L532.001 599.07ZM547.926 585.824C552.731 579.755 556.453 571.756 559.158 561.92L555.301 560.859C552.691 570.351 549.166 577.814 544.79 583.341L547.926 585.824ZM559.161 561.908C561.879 551.778 563.216 539.269 563.216 524.426H559.216C559.216 539.058 557.895 551.191 555.298 560.871L559.161 561.908ZM563.216 524.426C563.216 506.658 561.27 491.58 557.322 479.243L553.513 480.463C557.296 492.285 559.216 506.923 559.216 524.426H563.216ZM557.322 479.243C553.385 466.939 547.793 457.41 540.445 450.823L537.775 453.801C544.44 459.776 549.719 468.608 553.513 480.463L557.322 479.243ZM540.445 450.823C533.072 444.212 524.382 440.89 514.468 440.89V444.89C523.398 444.89 531.136 447.849 537.775 453.801L540.445 450.823ZM514.468 440.89C507.235 440.89 499.862 443.346 492.38 448.085L494.52 451.465C501.533 447.023 508.172 444.89 514.468 444.89V440.89ZM492.38 448.085C484.669 452.969 478.414 461.338 473.49 472.909L477.171 474.476C481.91 463.338 487.735 455.762 494.52 451.465L492.38 448.085ZM473.49 472.909C468.505 484.625 466.083 501.003 466.083 521.89H470.083C470.083 501.223 472.493 485.469 477.171 474.476L473.49 472.909ZM466.083 521.89C466.083 536.485 467.298 548.972 469.761 559.316L473.652 558.39C471.284 548.441 470.083 536.285 470.083 521.89H466.083ZM469.775 559.371C472.473 569.427 476.056 577.749 480.571 584.271L483.86 581.994C479.678 575.954 476.255 568.089 473.638 558.335L469.775 559.371ZM480.624 584.343C485.355 590.569 490.644 595.253 496.511 598.314L498.361 594.768C493.115 592.03 488.257 587.776 483.808 581.922L480.624 584.343ZM496.542 598.33C502.597 601.357 508.82 602.889 515.193 602.889V598.889C509.486 598.889 503.872 597.523 498.33 594.752L496.542 598.33ZM677.15 638.577L676.354 640.412L676.375 640.421L676.396 640.43L677.15 638.577ZM644.173 614.66L642.675 615.985L642.675 615.985L644.173 614.66ZM623.155 575.885L625.064 575.288L625.064 575.288L623.155 575.885ZM629.678 453.399L631.467 454.293L631.472 454.284L629.678 453.399ZM667.366 411.725L668.364 413.458L668.372 413.453L667.366 411.725ZM776.806 411.725L775.777 413.44L775.777 413.44L776.806 411.725ZM813.407 453.399L815.215 452.543L815.215 452.543L813.407 453.399ZM818.48 575.885L816.586 575.244L816.582 575.257L816.577 575.27L818.48 575.885ZM796.375 615.022L794.911 613.66L794.902 613.67L794.894 613.679L796.375 615.022ZM762.673 638.577L761.919 636.725L761.906 636.73L762.673 638.577ZM737.669 597.266L738.496 599.086L738.514 599.078L738.532 599.07L737.669 597.266ZM752.889 584.582L751.321 583.341L751.321 583.341L752.889 584.582ZM763.76 561.39L765.689 561.92L765.692 561.908L763.76 561.39ZM761.948 479.853L760.044 480.463L760.044 480.463L761.948 479.853ZM745.641 452.312L744.306 453.801L744.306 453.801L745.641 452.312ZM678.238 558.853L676.292 559.316L676.299 559.344L676.306 559.371L678.238 558.853ZM688.747 583.133L687.102 584.271L687.128 584.308L687.154 584.343L688.747 583.133ZM703.967 596.541L703.042 598.314L703.057 598.322L703.072 598.33L703.967 596.541ZM720.274 644.55C704.8 644.55 690.685 641.932 677.905 636.725L676.396 640.43C689.707 645.853 704.342 648.55 720.274 648.55V644.55ZM677.947 636.743C665.409 631.302 654.657 623.503 645.672 613.336L642.675 615.985C652.051 626.594 663.283 634.74 676.354 640.412L677.947 636.743ZM645.672 613.336C636.707 603.191 629.826 590.526 625.064 575.288L621.246 576.482C626.148 592.167 633.279 605.353 642.675 615.985L645.672 613.336ZM625.064 575.288C620.304 560.057 617.907 542.628 617.907 522.977H613.907C613.907 542.946 616.342 560.789 621.246 576.482L625.064 575.288ZM617.907 522.977C617.907 495.155 622.467 472.294 631.467 454.293L627.889 452.505C618.529 471.225 613.907 494.749 613.907 522.977H617.907ZM631.472 454.284C640.5 435.99 652.805 422.416 668.364 413.458L666.368 409.992C650.037 419.394 637.217 433.603 627.885 452.514L631.472 454.284ZM668.372 413.453C684.228 404.224 702.116 399.592 722.086 399.592V395.592C701.47 395.592 682.877 400.382 666.36 409.996L668.372 413.453ZM722.086 399.592C742.55 399.592 760.425 404.228 775.777 413.44L777.835 410.01C761.781 400.377 743.176 395.592 722.086 395.592V399.592ZM775.777 413.44C791.105 422.637 803.052 436.211 811.6 454.255L815.215 452.543C806.367 433.866 793.914 419.657 777.835 410.01L775.777 413.44ZM811.6 454.255C820.135 472.275 824.453 494.672 824.453 521.527H828.453C828.453 494.267 824.073 471.245 815.215 452.543L811.6 454.255ZM824.453 521.527C824.453 541.894 821.817 559.79 816.586 575.244L820.375 576.526C825.774 560.574 828.453 542.23 828.453 521.527H824.453ZM816.577 575.27C811.579 590.74 804.345 603.518 794.911 613.66L797.839 616.385C807.732 605.75 815.235 592.436 820.384 576.5L816.577 575.27ZM794.894 613.679C785.674 623.844 774.688 631.523 761.919 636.725L763.428 640.43C776.75 635.002 788.232 626.977 797.856 616.366L794.894 613.679ZM761.906 636.73C749.372 641.933 735.503 644.55 720.274 644.55V648.55C735.969 648.55 750.366 645.852 763.44 640.425L761.906 636.73ZM721.724 602.889C727.351 602.889 732.947 601.609 738.496 599.086L736.841 595.445C731.76 597.754 726.726 598.889 721.724 598.889V602.889ZM738.532 599.07C744.413 596.257 749.715 591.813 754.457 585.824L751.321 583.341C746.882 588.947 742.038 592.959 736.806 595.461L738.532 599.07ZM754.457 585.824C759.262 579.755 762.984 571.756 765.689 561.92L761.832 560.859C759.222 570.351 755.696 577.814 751.321 583.341L754.457 585.824ZM765.692 561.908C768.41 551.778 769.747 539.269 769.747 524.426H765.747C765.747 539.058 764.426 551.191 761.829 560.871L765.692 561.908ZM769.747 524.426C769.747 506.658 767.801 491.58 763.853 479.243L760.044 480.463C763.827 492.285 765.747 506.923 765.747 524.426H769.747ZM763.853 479.243C759.916 466.939 754.324 457.41 746.976 450.823L744.306 453.801C750.971 459.776 756.25 468.608 760.044 480.463L763.853 479.243ZM746.976 450.823C739.603 444.212 730.913 440.89 720.999 440.89V444.89C729.929 444.89 737.667 447.849 744.306 453.801L746.976 450.823ZM720.999 440.89C713.766 440.89 706.393 443.346 698.911 448.085L701.051 451.465C708.064 447.023 714.703 444.89 720.999 444.89V440.89ZM698.911 448.085C691.2 452.969 684.945 461.338 680.021 472.909L683.702 474.476C688.441 463.338 694.266 455.762 701.051 451.465L698.911 448.085ZM680.021 472.909C675.036 484.625 672.614 501.003 672.614 521.89H676.614C676.614 501.223 679.024 485.469 683.702 474.476L680.021 472.909ZM672.614 521.89C672.614 536.485 673.829 548.972 676.292 559.316L680.183 558.39C677.814 548.441 676.614 536.285 676.614 521.89H672.614ZM676.306 559.371C679.004 569.427 682.587 577.749 687.102 584.271L690.391 581.994C686.209 575.954 682.786 568.089 680.169 558.335L676.306 559.371ZM687.154 584.343C691.886 590.569 697.175 595.253 703.042 598.314L704.892 594.768C699.646 592.03 694.788 587.776 690.339 581.922L687.154 584.343ZM703.072 598.33C709.128 601.357 715.351 602.889 721.724 602.889V598.889C716.017 598.889 710.403 597.523 704.861 594.752L703.072 598.33Z" fill="url(#paint1_linear_16226_4665)" mask="url(#path-3-outside-2_16226_4665)"/>
<path d="M110.698 440.55C92.0957 440.55 75.6676 437.892 61.4138 432.577C47.16 427.263 36.0469 419.773 28.0744 410.11C20.102 400.204 16.2365 388.246 16.4781 374.234L71.923 363.724C73.1309 374.113 77.4795 381.844 84.9688 386.917C92.4581 391.99 101.035 394.527 110.698 394.527C122.536 394.527 131.596 391.145 137.877 384.38C144.4 377.616 147.661 367.59 147.661 354.302C147.661 347.779 146.937 341.981 145.487 336.908C144.037 331.593 141.863 327.124 138.964 323.5C136.065 319.876 132.32 317.218 127.73 315.527C123.382 313.595 118.187 312.628 112.148 312.628C108.765 312.628 105.504 313.111 102.363 314.078C99.2226 314.803 96.2027 316.01 93.3037 317.702C90.4046 319.393 87.6263 321.688 84.9688 324.587C82.5529 327.486 80.0162 330.989 77.3587 335.096H20.102L29.524 196.303H197.67L197.67 244.5L77.7211 244.5L72.6477 307.192H76.634C81.7073 295.596 89.6798 286.778 100.551 280.738C111.423 274.457 123.502 271.316 136.79 271.316C152.493 271.316 165.539 274.699 175.927 281.463C186.557 287.986 194.53 297.408 199.845 309.729C205.16 321.809 207.817 336.304 207.817 353.215C207.817 373.267 203.71 389.816 195.496 402.862C187.524 415.666 176.169 425.209 161.432 431.49C146.937 437.53 130.025 440.55 110.698 440.55ZM307.212 440.55C291.509 440.55 277.135 437.892 264.089 432.577C251.284 427.021 240.292 419.048 231.112 408.66C221.931 398.272 214.925 385.347 210.093 369.885C205.262 354.423 202.846 336.787 202.846 316.977C202.846 288.952 207.436 265.76 216.616 247.399C225.797 228.797 238.359 214.905 254.304 205.725C270.491 196.303 288.731 191.592 309.024 191.592C329.801 191.592 348.041 196.303 363.744 205.725C379.448 215.147 391.648 229.038 400.345 247.399C409.043 265.76 413.391 288.469 413.391 315.527C413.391 336.062 410.734 354.182 405.419 369.885C400.345 385.588 392.977 398.634 383.313 409.022C373.891 419.411 362.657 427.263 349.611 432.577C336.807 437.892 322.674 440.55 307.212 440.55ZM308.662 394.889C313.977 394.889 319.292 393.682 324.607 391.266C330.163 388.608 335.237 384.38 339.827 378.582C344.417 372.784 348.041 365.053 350.699 355.39C353.356 345.484 354.685 333.163 354.685 318.426C354.685 300.79 352.752 285.933 348.887 273.853C345.021 261.774 339.585 252.593 332.579 246.312C325.573 240.03 317.359 236.89 307.937 236.89C301.173 236.89 294.167 239.185 286.919 243.775C279.671 248.365 273.631 256.338 268.8 267.693C263.968 279.047 261.552 295.113 261.552 315.89C261.552 330.385 262.76 342.706 265.176 352.853C267.833 362.758 271.336 370.851 275.685 377.133C280.275 383.172 285.349 387.642 290.905 390.541C296.703 393.44 302.622 394.889 308.662 394.889ZM513.743 440.55C498.04 440.55 483.665 437.892 470.62 432.577C457.815 427.021 446.823 419.048 437.643 408.66C428.462 398.272 421.456 385.347 416.624 369.885C411.792 354.423 409.377 336.787 409.377 316.977C409.377 288.952 413.967 265.76 423.147 247.399C432.328 228.797 444.89 214.905 460.835 205.725C477.022 196.303 495.262 191.592 515.555 191.592C536.332 191.592 554.572 196.303 570.275 205.725C585.979 215.147 598.179 229.038 606.876 247.399C615.573 265.76 619.922 288.469 619.922 315.527C619.922 336.062 617.265 354.182 611.95 369.885C606.876 385.588 599.508 398.634 589.844 409.022C580.422 419.411 569.188 427.263 556.142 432.577C543.338 437.892 529.205 440.55 513.743 440.55ZM515.193 394.889C520.508 394.889 525.823 393.682 531.138 391.266C536.694 388.608 541.768 384.38 546.358 378.582C550.948 372.784 554.572 365.053 557.229 355.39C559.887 345.484 561.216 333.163 561.216 318.426C561.216 300.79 559.283 285.933 555.418 273.853C551.552 261.774 546.116 252.593 539.11 246.312C532.104 240.03 523.89 236.89 514.468 236.89C507.704 236.89 500.697 239.185 493.45 243.775C486.202 248.365 480.162 256.338 475.331 267.693C470.499 279.047 468.083 295.113 468.083 315.89C468.083 330.385 469.291 342.706 471.707 352.853C474.364 362.758 477.867 370.851 482.216 377.133C486.806 383.172 491.879 387.642 497.436 390.541C503.234 393.44 509.153 394.889 515.193 394.889ZM720.274 440.55C704.571 440.55 690.196 437.892 677.15 432.577C664.346 427.021 653.354 419.048 644.173 408.66C634.993 398.272 627.987 385.347 623.155 369.885C618.323 354.423 615.907 336.787 615.907 316.977C615.907 288.952 620.498 265.76 629.678 247.399C638.858 228.797 651.421 214.905 667.366 205.725C683.553 196.303 701.793 191.592 722.086 191.592C742.863 191.592 761.103 196.303 776.806 205.725C792.51 215.147 804.71 229.038 813.407 247.399C822.104 265.76 826.453 288.469 826.453 315.527C826.453 336.062 823.795 354.182 818.48 369.885C813.407 385.588 806.039 398.634 796.375 409.022C786.953 419.411 775.719 427.263 762.673 432.577C749.869 437.892 735.736 440.55 720.274 440.55ZM721.724 394.889C727.039 394.889 732.354 393.682 737.669 391.266C743.225 388.608 748.299 384.38 752.889 378.582C757.479 372.784 761.103 365.053 763.76 355.39C766.418 345.484 767.747 333.163 767.747 318.426C767.747 300.79 765.814 285.933 761.948 273.853C758.083 261.774 752.647 252.593 745.641 246.312C738.635 240.03 730.421 236.89 720.999 236.89C714.234 236.89 707.228 239.185 699.981 243.775C692.733 248.365 686.693 256.338 681.861 267.693C677.03 279.047 674.614 295.113 674.614 315.89C674.614 330.385 675.822 342.706 678.238 352.853C680.895 362.758 684.398 370.851 688.747 377.133C693.337 383.172 698.41 387.642 703.967 390.541C709.765 393.44 715.684 394.889 721.724 394.889Z" fill="url(#paint2_linear_16226_4665)"/>
<defs>
<linearGradient id="paint0_linear_16226_4665" x1="50.5006" y1="343.001" x2="76.8119" y2="-5.4683" gradientUnits="userSpaceOnUse">
<stop stop-color="#FFBD6D"/>
<stop offset="0.638757" stop-color="#FF8657"/>
<stop offset="1" stop-color="#F3F3F3"/>
</linearGradient>
<linearGradient id="paint1_linear_16226_4665" x1="674.499" y1="370.001" x2="668.291" y2="615.718" gradientUnits="userSpaceOnUse">
<stop stop-color="#FFBD6D"/>
<stop offset="0.638757" stop-color="#FF8657"/>
<stop offset="1" stop-color="#F3F3F3"/>
</linearGradient>
<linearGradient id="paint2_linear_16226_4665" x1="0.533205" y1="533.477" x2="908.62" y2="524.061" gradientUnits="userSpaceOnUse">
<stop stop-color="#FFBD6D"/>
<stop offset="1" stop-color="#FF8657"/>
</linearGradient>
</defs>
</svg>
