<svg width="46" height="45" viewBox="0 0 46 45" fill="none" xmlns="http://www.w3.org/2000/svg">
<path d="M22.9996 44.8C10.6459 44.8 0.599609 34.7537 0.599609 22.4C0.599609 10.0462 10.6459 0 22.9996 0C35.3534 0 45.3996 10.0462 45.3996 22.4C45.3996 34.7537 35.3534 44.8 22.9996 44.8ZM22.9996 0.708682C11.0371 0.708682 1.30829 10.4374 1.30829 22.4C1.30829 34.3625 11.0371 44.0913 22.9996 44.0913C34.9622 44.0913 44.691 34.3625 44.691 22.4C44.691 10.4374 34.9622 0.708682 22.9996 0.708682Z" fill="white"/>
<path d="M31.5996 29.6486V35.1338C31.5996 35.3449 31.5182 35.5473 31.3733 35.6966C31.2284 35.8458 31.0318 35.9297 30.8269 35.9297C30.6219 35.9297 30.4254 35.8458 30.2805 35.6966C30.1356 35.5473 30.0542 35.3449 30.0542 35.1338V29.6486C30.0497 28.1495 29.7242 26.6699 29.1008 25.3152C28.4775 23.9605 27.5718 22.7642 26.4481 21.8114V30.1341C26.4471 30.3046 26.3929 30.4704 26.2935 30.6068C26.1942 30.7433 26.0549 30.8432 25.8962 30.892C25.7375 30.9407 25.5678 30.9356 25.4121 30.8775C25.2564 30.8194 25.123 30.7113 25.0314 30.5692L23.656 28.4069C23.6479 28.3946 23.6406 28.3817 23.6341 28.3685C23.3972 27.9405 23.005 27.6269 22.5437 27.4968C22.0823 27.3667 21.5897 27.4307 21.1742 27.6747C20.7587 27.9187 20.4543 28.3227 20.328 28.7978C20.2017 29.273 20.2638 29.7804 20.5007 30.2084L23.3572 34.6973C23.453 34.873 23.4806 35.0795 23.4344 35.2752C23.3882 35.471 23.2717 35.6414 23.1083 35.7522C22.9449 35.8629 22.7468 35.9057 22.554 35.8719C22.3612 35.8382 22.188 35.7303 22.0693 35.5702L19.2025 31.06C19.1948 31.0467 19.187 31.0348 19.1806 31.0215C18.7798 30.243 18.6834 29.336 18.9114 28.4866C19.1394 27.6373 19.6743 26.91 20.4065 26.4541C21.1386 25.9982 22.0124 25.8482 22.8485 26.035C23.6846 26.2218 24.4196 26.7311 24.9026 27.4585V11.7868C24.9026 11.7165 24.8755 11.649 24.8272 11.5992C24.7789 11.5495 24.7134 11.5215 24.6451 11.5215H22.5845C22.3795 11.5215 22.183 11.4377 22.0381 11.2884C21.8931 11.1391 21.8117 10.9367 21.8117 10.7256C21.8117 10.5145 21.8931 10.3121 22.0381 10.1628C22.183 10.0135 22.3795 9.92969 22.5845 9.92969H24.6451C25.1233 9.92969 25.5819 10.1254 25.92 10.4736C26.2581 10.8219 26.4481 11.2943 26.4481 11.7868V19.8375C28.0262 20.9079 29.3226 22.364 30.2215 24.0759C31.1204 25.7878 31.5938 27.7023 31.5996 29.6486ZM19.236 10.7256C19.236 10.5145 19.1546 10.3121 19.0096 10.1628C18.8647 10.0135 18.6682 9.92969 18.4632 9.92969H16.4026C15.9244 9.92969 15.4658 10.1254 15.1277 10.4736C14.7896 10.8219 14.5996 11.2943 14.5996 11.7868V29.8276C14.5996 30.0387 14.681 30.2412 14.8259 30.3904C14.9709 30.5397 15.1674 30.6236 15.3723 30.6236C15.5773 30.6236 15.7738 30.5397 15.9187 30.3904C16.0637 30.2412 16.1451 30.0387 16.1451 29.8276V11.7868C16.1451 11.7165 16.1722 11.649 16.2205 11.5992C16.2688 11.5495 16.3343 11.5215 16.4026 11.5215H18.4632C18.6682 11.5215 18.8647 11.4377 19.0096 11.2884C19.1546 11.1391 19.236 10.9367 19.236 10.7256Z" fill="white"/>
</svg>
