<svg width="46" height="45" viewBox="0 0 46 45" fill="none" xmlns="http://www.w3.org/2000/svg">
<g id="Group">
<path id="Vector" d="M23.2008 44.8C10.8471 44.8 0.800781 34.7537 0.800781 22.4C0.800781 10.0462 10.8471 0 23.2008 0C35.5545 0 45.6008 10.0462 45.6008 22.4C45.6008 34.7537 35.5545 44.8 23.2008 44.8ZM23.2008 0.708682C11.2383 0.708682 1.50946 10.4374 1.50946 22.4C1.50946 34.3625 11.2383 44.0913 23.2008 44.0913C35.1633 44.0913 44.8921 34.3625 44.8921 22.4C44.8921 10.4374 35.1633 0.708682 23.2008 0.708682Z" fill="white"/>
<g id="Group_2">
<path id="Vector_2" d="M28.6506 14.2617L28.1504 15.2665H29.1888L28.6506 14.2617Z" fill="white"/>
<path id="Vector_3" d="M28.6506 19.3879L29.1888 18.3789H28.1504L28.6506 19.3879Z" fill="white"/>
<path id="Vector_4" d="M27.9291 15.3604L26.8613 15.0156L27.206 16.0835L27.9291 15.3604Z" fill="white"/>
<path id="Vector_5" d="M30.1297 17.5664L29.373 18.2895L30.4745 18.6343L30.1297 17.5664Z" fill="white"/>
<path id="Vector_6" d="M27.1125 16.3047L26.1035 16.8428L27.1125 17.3431V16.3047Z" fill="white"/>
<path id="Vector_7" d="M30.1973 16.3047V17.3431L31.202 16.8428L30.1973 16.3047Z" fill="white"/>
<path id="Vector_8" d="M26.8613 18.6343L27.9291 18.2895L27.206 17.5664L26.8613 18.6343Z" fill="white"/>
<path id="Vector_9" d="M30.4745 15.0156L29.373 15.3604L30.1297 16.0835L30.4745 15.0156Z" fill="white"/>
<path id="Vector_10" d="M28.6542 17.9412C29.2625 17.9412 29.7557 17.4481 29.7557 16.8397C29.7557 16.2314 29.2625 15.7383 28.6542 15.7383C28.0459 15.7383 27.5527 16.2314 27.5527 16.8397C27.5527 17.4481 28.0459 17.9412 28.6542 17.9412Z" fill="white"/>
<path id="Vector_11" d="M28.458 25.1133L27.4375 26.7234L31.3438 32.8748L32.6449 32.1809L28.458 25.1133Z" fill="white"/>
<path id="Vector_12" d="M17.9369 25.1133L13.4258 31.9764L15.3913 32.8748L19.1275 26.9785L17.9369 25.1133Z" fill="white"/>
<path id="Vector_13" d="M13.8444 20.2955C13.8444 20.2955 14.0698 19.9966 14.3932 19.9721C14.6185 19.9476 14.8929 20.0701 15.1428 20.3445C15.2408 20.4425 15.3927 20.4425 15.4907 20.3445C15.7651 20.0701 16.015 19.9427 16.2403 19.9721C16.5637 19.9966 16.7891 20.2955 16.7891 20.2955C16.8626 20.3935 17.0145 20.4474 17.137 20.369C17.2595 20.2955 17.2889 20.1436 17.2105 20.0211C17.186 19.9966 16.8626 19.5214 16.3139 19.4724C15.9905 19.4479 15.6671 19.5703 15.3388 19.8202C15.0154 19.5458 14.692 19.4479 14.3637 19.4724C13.7905 19.5214 13.4671 19.9966 13.4671 20.0211C13.3936 20.1436 13.4181 20.2955 13.5406 20.369C13.5896 20.418 13.7415 20.3935 13.8395 20.2955H13.8444Z" fill="white"/>
<path id="Vector_14" d="M15.8934 20.9406C15.6925 20.921 15.4965 20.9945 15.2956 21.1415C15.0947 20.9945 14.8987 20.9259 14.6978 20.9406C14.3549 20.9749 14.1393 21.264 14.1393 21.2836C14.0854 21.3718 14.105 21.4845 14.1932 21.5384C14.2667 21.5923 14.3941 21.5727 14.4479 21.5041C14.4479 21.5041 14.5753 21.3424 14.7566 21.3228C14.884 21.3032 15.0261 21.3767 15.1731 21.5384C15.2466 21.6119 15.3544 21.6119 15.4279 21.5384C15.5749 21.3914 15.717 21.3228 15.8443 21.3228C16.0256 21.3424 16.153 21.5041 16.153 21.5041C16.2069 21.5923 16.3147 21.6119 16.4078 21.558C16.496 21.5041 16.5156 21.3963 16.4617 21.3032C16.4617 21.2689 16.2608 20.9798 15.9031 20.9406H15.8934Z" fill="white"/>
<path id="Vector_15" d="M23.3696 21.5938L15.9785 33.309C15.9785 33.309 20.4072 35.7845 23.4546 35.7603C26.4426 35.7365 30.6512 33.1532 30.6512 33.1532L23.3753 21.5938H23.3696ZM24.22 26.2597L23.4546 27.9549L22.6892 26.2597L21.544 27.6147L20.9941 26.9344L23.3696 23.1585L25.7054 26.804L25.1951 27.3993L24.22 26.2541V26.2597Z" fill="white"/>
<path id="Vector_16" d="M13.0239 32.1799C15.7326 34.8618 19.3918 36.3642 23.2036 36.3594H23.3491C27.1807 36.321 30.8424 34.772 33.5382 32.0489C36.2341 29.3258 37.7463 25.6487 37.7461 21.8169C37.7461 15.8225 34.0305 10.7864 28.0477 8.67342C27.6078 8.5174 27.1446 8.43725 26.6778 8.43638C25.6004 8.44061 24.5686 8.87168 23.8084 9.63516C23.0482 10.3986 22.6215 11.4323 22.6219 12.5097C22.6219 13.2811 22.3155 14.0209 21.7701 14.5663C21.2246 15.1118 20.4848 15.4182 19.7134 15.4182H12.9934C12.07 15.4138 11.1728 15.7253 10.4507 16.3008C9.72858 16.8764 9.22493 17.6815 9.02328 18.5827C8.77294 19.6846 8.65142 20.812 8.66117 21.942C8.67474 23.8522 9.06735 25.7408 9.81625 27.4983C10.5651 29.2557 11.6554 30.8469 13.0239 32.1799ZM10.1532 18.8415C10.2976 18.1972 10.6581 17.6218 11.1747 17.2107C11.6914 16.7996 12.3331 16.5776 12.9934 16.5816H19.7134C20.7934 16.5816 21.8291 16.1526 22.5927 15.389C23.3563 14.6254 23.7853 13.5897 23.7853 12.5097C23.7862 12.0452 23.8982 11.5876 24.1122 11.1753C24.3261 10.763 24.6357 10.4079 25.015 10.1398C25.3944 9.87169 25.8324 9.69833 26.2925 9.63423C26.7525 9.57013 27.2213 9.61716 27.6594 9.77138C33.1638 11.7157 36.5827 16.3315 36.5827 21.8169C36.5829 25.3414 35.1923 28.7237 32.713 31.2288C30.2338 33.7339 26.8661 35.1596 23.3418 35.196H23.2036C21.1935 35.1965 19.2092 34.7441 17.3979 33.8723C15.5867 33.0006 13.9952 31.732 12.7416 30.1607C11.488 28.5894 10.6046 26.7558 10.157 24.7962C9.70941 22.8366 9.70911 20.8013 10.1561 18.8415H10.1532Z" fill="white"/>
</g>
</g>
</svg>
