<svg width="1282" height="573" viewBox="0 0 1282 573" fill="none" xmlns="http://www.w3.org/2000/svg">
<path d="M149.417 537.224L149.417 535.355C149.417 512.931 134.475 501.719 113.93 501.719L110.195 501.719C87.7823 501.719 70.9729 484.901 70.9729 462.476L70.9729 458.739C70.9729 438.183 59.7667 423.234 37.3542 423.234L35.4865 423.234C13.074 423.234 2.44851e-05 410.153 2.35049e-05 387.729L1.02722e-05 235C9.292e-06 212.576 13.074 199.495 35.4864 199.495L37.3542 199.495C59.7667 199.495 70.9729 184.546 70.9729 163.99L70.9729 160.253C70.9729 137.829 87.7823 121.01 110.195 121.01L113.93 121.01C134.475 121.01 149.417 109.798 149.417 87.3738L149.417 85.5051C149.417 63.0808 162.491 50 184.903 50L616 50C629.807 50 641 38.8071 641 25C641 11.1929 652.193 -2.85083e-05 666 -2.91118e-05L1097.1 -3.17432e-05L1246 -3.21079e-05C1265.88 -3.21567e-05 1282 16.1177 1282 36L1282 155L1282 387.729C1282 410.153 1268.93 423.234 1246.51 423.234L1244.65 423.234C1222.23 423.234 1211.03 438.183 1211.03 458.739L1211.03 462.476C1211.03 484.9 1194.22 501.719 1171.81 501.719L1168.07 501.719C1147.52 501.719 1132.58 512.931 1132.58 535.355L1132.58 537.224C1132.58 559.648 1119.51 572.729 1097.1 572.729L184.903 572.729C162.491 572.729 149.417 559.648 149.417 537.224Z" fill="black"/>
</svg>
